<?xml version="1.0" encoding="UTF-8" standalone="no"?><svg xmlns="http://www.w3.org/2000/svg" xmlns:xlink="http://www.w3.org/1999/xlink" contentStyleType="text/css" height="513px" preserveAspectRatio="none" style="width:2061px;height:513px;background:#FFFFFF;" version="1.1" viewBox="0 0 2061 513" width="2061px" zoomAndPan="magnify"><defs/><g><rect height="42.2969" style="stroke:#00000000;stroke-width:1.0;fill:none;" width="197" x="925.25" y="5"/><text fill="#000000" font-family="sans-serif" font-size="14" font-weight="bold" lengthAdjust="spacing" textLength="171" x="938.25" y="30.9951">NODE move_base_nav</text><!--MD5=[39c4eee9471449e046008ca5703679c3]
cluster PARAMETERS--><g id="cluster_PARAMETERS"><path d="M996.5,346.2969 C996.5,336.2969 1177,336.2969 1177,336.2969 C1177,336.2969 1357.5,336.2969 1357.5,346.2969 L1357.5,486.2969 C1357.5,496.2969 1177,496.2969 1177,496.2969 C1177,496.2969 996.5,496.2969 996.5,486.2969 L996.5,346.2969 " style="stroke:#181818;stroke-width:1.0;fill:none;"/><path d="M996.5,346.2969 C996.5,356.2969 1177,356.2969 1177,356.2969 C1177,356.2969 1357.5,356.2969 1357.5,346.2969 " fill="none" style="stroke:#181818;stroke-width:1.0;"/><text fill="#000000" font-family="sans-serif" font-size="14" font-weight="bold" lengthAdjust="spacing" textLength="176" x="1089" y="379.292">ROS parameter server</text></g><!--MD5=[19fa23326ec51ca88bbfac075c92d164]
cluster MOVE_BASE_NAV--><g id="cluster_MOVE_BASE_NAV"><rect height="177" rx="2.5" ry="2.5" style="stroke:#181818;stroke-width:1.0;fill:none;" width="451" x="958.5" y="60.2969"/><rect height="10" style="stroke:#181818;stroke-width:1.0;fill:none;" width="15" x="1389.5" y="65.2969"/><rect height="2" style="stroke:#181818;stroke-width:1.0;fill:none;" width="4" x="1387.5" y="67.2969"/><rect height="2" style="stroke:#181818;stroke-width:1.0;fill:none;" width="4" x="1387.5" y="71.2969"/><text fill="#000000" font-family="sans-serif" font-size="14" font-style="italic" lengthAdjust="spacing" textLength="104" x="1132" y="94.292">«ROSPy node»</text><text fill="#000000" font-family="sans-serif" font-size="14" font-weight="bold" lengthAdjust="spacing" textLength="123" x="1122.5" y="126.5889">move_base_nav</text></g><!--MD5=[3d2d0cdc5a87e8d33dbbdf625e1e368a]
entity des_pos_x--><g id="elem_des_pos_x"><polygon fill="#F1F1F1" points="1204,420.2969,1214,410.2969,1333,410.2969,1333,462.5938,1323,472.5938,1204,472.5938,1204,420.2969" style="stroke:#181818;stroke-width:0.5;"/><line style="stroke:#181818;stroke-width:0.5;" x1="1323" x2="1333" y1="420.2969" y2="410.2969"/><line style="stroke:#181818;stroke-width:0.5;" x1="1204" x2="1323" y1="420.2969" y2="420.2969"/><line style="stroke:#181818;stroke-width:0.5;" x1="1323" x2="1323" y1="420.2969" y2="472.5938"/><text fill="#000000" font-family="sans-serif" font-size="14" lengthAdjust="spacing" textLength="73" x="1227" y="451.292">des_pos_x</text></g><!--MD5=[f8ee79e2f34056c410e55b7856b01451]
entity des_pos_y--><g id="elem_des_pos_y"><polygon fill="#F1F1F1" points="1040,420.2969,1050,410.2969,1169,410.2969,1169,462.5938,1159,472.5938,1040,472.5938,1040,420.2969" style="stroke:#181818;stroke-width:0.5;"/><line style="stroke:#181818;stroke-width:0.5;" x1="1159" x2="1169" y1="420.2969" y2="410.2969"/><line style="stroke:#181818;stroke-width:0.5;" x1="1040" x2="1159" y1="420.2969" y2="420.2969"/><line style="stroke:#181818;stroke-width:0.5;" x1="1159" x2="1159" y1="420.2969" y2="472.5938"/><text fill="#000000" font-family="sans-serif" font-size="14" lengthAdjust="spacing" textLength="73" x="1063" y="451.292">des_pos_y</text></g><!--MD5=[571572b5270ca6220669ba8bfdbc29df]
entity MOVE_BASE_NAV.SWITCH--><g id="elem_MOVE_BASE_NAV.SWITCH"><polygon fill="#F1F1F1" points="1002,161.2969,1012,151.2969,1219,151.2969,1219,203.5938,1209,213.5938,1002,213.5938,1002,161.2969" style="stroke:#181818;stroke-width:0.5;"/><line style="stroke:#181818;stroke-width:0.5;" x1="1209" x2="1219" y1="161.2969" y2="151.2969"/><line style="stroke:#181818;stroke-width:0.5;" x1="1002" x2="1209" y1="161.2969" y2="161.2969"/><line style="stroke:#181818;stroke-width:0.5;" x1="1209" x2="1209" y1="161.2969" y2="213.5938"/><text fill="#000000" font-family="sans-serif" font-size="14" lengthAdjust="spacing" textLength="161" x="1025" y="192.292">move_base_nav_switch</text></g><!--MD5=[e4b89f7ae3b87a2aebf958aeef066cc9]
entity MOVE_BASE_NAV.READ_ODOM--><g id="elem_MOVE_BASE_NAV.READ_ODOM"><polygon fill="#F1F1F1" points="1254,161.2969,1264,151.2969,1385,151.2969,1385,203.5938,1375,213.5938,1254,213.5938,1254,161.2969" style="stroke:#181818;stroke-width:0.5;"/><line style="stroke:#181818;stroke-width:0.5;" x1="1375" x2="1385" y1="161.2969" y2="151.2969"/><line style="stroke:#181818;stroke-width:0.5;" x1="1254" x2="1375" y1="161.2969" y2="161.2969"/><line style="stroke:#181818;stroke-width:0.5;" x1="1375" x2="1375" y1="161.2969" y2="213.5938"/><text fill="#000000" font-family="sans-serif" font-size="14" lengthAdjust="spacing" textLength="75" x="1277" y="192.292">clbk_odom</text></g><!--MD5=[9c0f7ecf381f88014a7ea481e5efb054]
entity TOPIC_ODOM--><g id="elem_TOPIC_ODOM"><ellipse cx="1856.5" cy="441.2969" fill="#F1F1F1" rx="8" ry="8" style="stroke:#181818;stroke-width:0.5;"/><text fill="#000000" font-family="sans-serif" font-size="14" lengthAdjust="spacing" textLength="45" x="1834" y="479.292">/odom</text></g><!--MD5=[a29493d5c3d449fd805f8038216f6f38]
entity TOPIC_VEL--><g id="elem_TOPIC_VEL"><ellipse cx="36.5" cy="441.2969" fill="#F1F1F1" rx="8" ry="8" style="stroke:#181818;stroke-width:0.5;"/><text fill="#000000" font-family="sans-serif" font-size="14" lengthAdjust="spacing" textLength="61" x="6" y="479.292">/cmd_vel</text></g><!--MD5=[5f76c7c8f098306226c4896f803538f7]
entity TOPIC_MOVE_BASE_GOAL--><g id="elem_TOPIC_MOVE_BASE_GOAL"><ellipse cx="294.5" cy="441.2969" fill="#F1F1F1" rx="8" ry="8" style="stroke:#181818;stroke-width:0.5;"/><text fill="#000000" font-family="sans-serif" font-size="14" lengthAdjust="spacing" textLength="118" x="235.5" y="479.292">/move_base/goal</text></g><!--MD5=[fed9efc106039e65771e2b561972d852]
entity TOPIC_MOVE_BASE_CANCEL--><g id="elem_TOPIC_MOVE_BASE_CANCEL"><ellipse cx="668.5" cy="441.2969" fill="#F1F1F1" rx="8" ry="8" style="stroke:#181818;stroke-width:0.5;"/><text fill="#000000" font-family="sans-serif" font-size="14" lengthAdjust="spacing" textLength="134" x="601.5" y="479.292">/move_base/cancel</text></g><!--MD5=[b87ffea39230279ef1f7e397cf84b392]
entity SRV_MOVE_BASE_NAV_SWITCH--><g id="elem_SRV_MOVE_BASE_NAV_SWITCH"><ellipse cx="1459.5" cy="441.2969" fill="#F1F1F1" rx="8" ry="8" style="stroke:#181818;stroke-width:0.5;"/><text fill="#000000" font-family="sans-serif" font-size="14" lengthAdjust="spacing" textLength="124" x="1397.5" y="479.292">/nav_stack_switch</text></g><!--MD5=[f55e2e28c75719e0f19d6add3c23b196]
entity SRV_MOVE_BASE_NAV_SIGNAL--><g id="elem_SRV_MOVE_BASE_NAV_SIGNAL"><ellipse cx="1648.5" cy="441.2969" fill="#F1F1F1" rx="8" ry="8" style="stroke:#181818;stroke-width:0.5;"/><text fill="#000000" font-family="sans-serif" font-size="14" lengthAdjust="spacing" textLength="120" x="1588.5" y="479.292">/nav_stack_signal</text></g><!--MD5=[ce0550ece9e8498f5b487be6600f7375]
entity SRV_HEAD_ORIENT_SWITCH--><g id="elem_SRV_HEAD_ORIENT_SWITCH"><ellipse cx="884.5" cy="441.2969" fill="#F1F1F1" rx="8" ry="8" style="stroke:#181818;stroke-width:0.5;"/><text fill="#000000" font-family="sans-serif" font-size="14" lengthAdjust="spacing" textLength="138" x="815.5" y="479.292">/head_orient_switch</text></g><!--MD5=[04763481c05e06653c8598e3b8874b89]
reverse link MOVE_BASE_NAV to PARAMETERS--><g id="link_MOVE_BASE_NAV_PARAMETERS"><path d="M973.6051,237.468 C973.6569,237.5783 973.709,237.6884 973.7614,237.7983 C973.8663,238.0182 973.9726,238.2373 974.0802,238.4556 C974.2953,238.8922 974.5159,239.3257 974.7421,239.7559 C975.6466,241.4763 976.64,243.1422 977.7302,244.7362 C979.9106,247.9242 982.4788,250.8244 985.5,253.2969 C1006.35,270.3669 1088.08,241.6269 1106.5,261.2969 C1121.99,277.8469 1121.74,295.5169 1106.5,312.2969 C1094.04,326.0169 1037,307.5969 1023.5,320.2969 C1018.6613,324.8494 1014.7256,330.0984 1011.5441,335.8037 " fill="none" id="MOVE_BASE_NAV-backto-PARAMETERS" style="stroke:#181818;stroke-width:1.0;"/><polygon fill="#181818" points="973.6051,237.468,973.8089,247.3147,975.7299,241.994,981.0506,243.915,973.6051,237.468" style="stroke:#181818;stroke-width:1.0;"/><text fill="#000000" font-family="sans-serif" font-size="13" lengthAdjust="spacing" textLength="21" x="964.8699" y="171.3981">get</text></g><!--MD5=[9cc0349f95736d8df3fe0338ec5fc4cb]
reverse link MOVE_BASE_NAV.READ_ODOM to TOPIC_ODOM--><g id="link_MOVE_BASE_NAV.READ_ODOM_TOPIC_ODOM"><path codeLine="23" d="M1390.4,184.8269 C1512.96,188.9869 1757.12,204.3869 1817.5,261.2969 C1867.49,308.4169 1860.89,403.4569 1857.6,432.0069 " fill="none" id="MOVE_BASE_NAV.READ_ODOM-backto-TOPIC_ODOM" style="stroke:#181818;stroke-width:1.0;"/><polygon fill="#181818" points="1385.38,184.6669,1394.2499,188.9476,1390.3775,184.8239,1394.5012,180.9516,1385.38,184.6669" style="stroke:#181818;stroke-width:1.0;"/><path d="M1852.5,266.2969 L1852.5,307.2969 L2054.5,307.2969 L2054.5,276.2969 L2044.5,266.2969 L1852.5,266.2969 " fill="#FEFFDD" style="stroke:#181818;stroke-width:0.5;"/><path d="M2044.5,266.2969 L2044.5,276.2969 L2054.5,276.2969 L2044.5,266.2969 " fill="#FEFFDD" style="stroke:#181818;stroke-width:0.5;"/><text fill="#000000" font-family="sans-serif" font-size="13" lengthAdjust="spacing" textLength="165" x="1866.5" y="291.3638">nav_msgs/Odometry.msg</text><text fill="#000000" font-family="sans-serif" font-size="13" lengthAdjust="spacing" textLength="23" x="1400.9842" y="172.5571">sub</text></g><!--MD5=[f8537d44f1fdea604087a8f73091d434]
link MOVE_BASE_NAV to TOPIC_VEL--><g id="link_MOVE_BASE_NAV_TOPIC_VEL"><path codeLine="27" d="M958.3744,183.395 C958.0205,183.3997 957.6556,183.4045 957.2796,183.4095 C956.5277,183.4196 955.7318,183.4303 954.8926,183.4418 C948.1794,183.5338 938.6982,183.6735 926.8277,183.8733 C903.0869,184.2729 869.7891,184.9127 829.9638,185.8909 C750.3131,187.8475 644.5525,191.1581 536.9175,196.6094 C321.6475,207.5119 98.88,226.9769 62.5,261.2969 C15.86,305.2969 27.08,392.9869 33.53,426.6769 " fill="none" id="MOVE_BASE_NAV-to-TOPIC_VEL" style="stroke:#181818;stroke-width:1.0;"/><polygon fill="#181818" points="34.59,431.9569,36.7419,422.346,33.6067,427.0545,28.8981,423.9193,34.59,431.9569" style="stroke:#181818;stroke-width:1.0;"/><path d="M67.5,266.2969 L67.5,307.2969 L275.5,307.2969 L275.5,276.2969 L265.5,266.2969 L67.5,266.2969 " fill="#FEFFDD" style="stroke:#181818;stroke-width:0.5;"/><path d="M265.5,266.2969 L265.5,276.2969 L275.5,276.2969 L265.5,266.2969 " fill="#FEFFDD" style="stroke:#181818;stroke-width:0.5;"/><text fill="#000000" font-family="sans-serif" font-size="13" lengthAdjust="spacing" textLength="171" x="81.5" y="291.3638">geometry_msgs/Twist.msg</text><text fill="#000000" font-family="sans-serif" font-size="13" lengthAdjust="spacing" textLength="24" x="934.35" y="172.3638">pub</text></g><!--MD5=[a19dbef3c35df7478e5c6d7f6fbc4cbb]
link MOVE_BASE_NAV to TOPIC_MOVE_BASE_GOAL--><g id="link_MOVE_BASE_NAV_TOPIC_MOVE_BASE_GOAL"><path codeLine="31" d="M958.1065,183.6758 C953.253,183.9028 946.3986,184.2304 937.8176,184.6584 C920.6555,185.5144 896.5866,186.7722 867.8045,188.4306 C810.2403,191.7475 733.8231,196.6669 656.1012,203.1794 C500.6575,216.2044 339.995,235.6019 314.5,261.2969 C269.53,306.6169 283.57,393.5169 291.1,426.8369 " fill="none" id="MOVE_BASE_NAV-to-TOPIC_MOVE_BASE_GOAL" style="stroke:#181818;stroke-width:1.0;"/><polygon fill="#181818" points="292.33,432.0669,294.1686,422.3912,291.188,427.199,286.3801,424.2184,292.33,432.0669" style="stroke:#181818;stroke-width:1.0;"/><path d="M319.5,266.2969 L319.5,307.2969 L643.5,307.2969 L643.5,276.2969 L633.5,266.2969 L319.5,266.2969 " fill="#FEFFDD" style="stroke:#181818;stroke-width:0.5;"/><path d="M633.5,266.2969 L633.5,276.2969 L643.5,276.2969 L633.5,266.2969 " fill="#FEFFDD" style="stroke:#181818;stroke-width:0.5;"/><text fill="#000000" font-family="sans-serif" font-size="13" lengthAdjust="spacing" textLength="287" x="333.5" y="291.3638">move_base_msgs/MoveBaseActionGoal.msg</text><text fill="#000000" font-family="sans-serif" font-size="13" lengthAdjust="spacing" textLength="24" x="934.39" y="203.3638">pub</text></g><!--MD5=[da592faeaf6e9f5ce5b1377e02236cbd]
link MOVE_BASE_NAV to TOPIC_MOVE_BASE_CANCEL--><g id="link_MOVE_BASE_NAV_TOPIC_MOVE_BASE_CANCEL"><path codeLine="35" d="M958.3695,184.2295 C957.9961,184.274 957.6108,184.3201 957.2139,184.3677 C956.4202,184.4631 955.5798,184.5647 954.6946,184.6727 C947.6126,185.5365 937.657,186.8046 925.6878,188.4742 C901.7494,191.8134 869.7562,196.7588 836.5875,203.2881 C770.25,216.3469 699.21,235.7419 678.5,261.2969 C638.67,310.4469 655.78,394.3769 664.52,426.8869 " fill="none" id="MOVE_BASE_NAV-to-TOPIC_MOVE_BASE_CANCEL" style="stroke:#181818;stroke-width:1.0;"/><polygon fill="#181818" points="665.95,431.9969,667.3848,422.2531,664.6066,427.1807,659.679,424.4025,665.95,431.9969" style="stroke:#181818;stroke-width:1.0;"/><path d="M683.5,266.2969 L683.5,307.2969 L893.5,307.2969 L893.5,276.2969 L883.5,266.2969 L683.5,266.2969 " fill="#FEFFDD" style="stroke:#181818;stroke-width:0.5;"/><path d="M883.5,266.2969 L883.5,276.2969 L893.5,276.2969 L883.5,266.2969 " fill="#FEFFDD" style="stroke:#181818;stroke-width:0.5;"/><text fill="#000000" font-family="sans-serif" font-size="13" lengthAdjust="spacing" textLength="173" x="697.5" y="291.3638">actionlib_msgs/GoalID.msg</text><text fill="#000000" font-family="sans-serif" font-size="13" lengthAdjust="spacing" textLength="24" x="961.6684" y="205.0569">pub</text></g><!--MD5=[57b92e13d3f46b5c771147ad763ee43d]
link MOVE_BASE_NAV.SWITCH to SRV_MOVE_BASE_NAV_SWITCH--><g id="link_MOVE_BASE_NAV.SWITCH_SRV_MOVE_BASE_NAV_SWITCH"><path codeLine="39" d="M1165.05,213.4069 C1230.48,249.6869 1333.39,307.4169 1349.5,320.2969 C1391.92,354.2269 1432.64,404.8469 1450.31,427.9669 " fill="none" id="MOVE_BASE_NAV.SWITCH-to-SRV_MOVE_BASE_NAV_SWITCH" style="stroke:#181818;stroke-width:1.0;"/><polygon fill="#181818" points="1453.53,432.2169,1451.2916,422.6258,1450.514,428.2289,1444.9109,427.4513,1453.53,432.2169" style="stroke:#181818;stroke-width:1.0;"/><path d="M1341.5,266.2969 L1341.5,307.2969 L1508.5,307.2969 L1508.5,276.2969 L1498.5,266.2969 L1341.5,266.2969 " fill="#FEFFDD" style="stroke:#181818;stroke-width:0.5;"/><path d="M1498.5,266.2969 L1498.5,276.2969 L1508.5,276.2969 L1498.5,266.2969 " fill="#FEFFDD" style="stroke:#181818;stroke-width:0.5;"/><text fill="#000000" font-family="sans-serif" font-size="13" lengthAdjust="spacing" textLength="130" x="1355.5" y="291.3638">std_srvs/SetBool.srv</text><text fill="#000000" font-family="sans-serif" font-size="13" lengthAdjust="spacing" textLength="19" x="1144.6495" y="241.7616">srv</text></g><!--MD5=[f1e3a7c3e2b40bc205f9f431c07a0bf3]
reverse link MOVE_BASE_NAV.SWITCH to SRV_MOVE_BASE_NAV_SIGNAL--><g id="link_MOVE_BASE_NAV.SWITCH_SRV_MOVE_BASE_NAV_SIGNAL"><path codeLine="43" d="M1157.07,216.2269 C1179.89,230.4669 1208.44,245.6069 1236.5,253.2969 C1267.05,261.6769 1493.56,246.3669 1521.5,261.2969 C1594.76,300.4569 1635.34,402.7269 1645.78,432.2269 " fill="none" id="MOVE_BASE_NAV.SWITCH-backto-SRV_MOVE_BASE_NAV_SIGNAL" style="stroke:#181818;stroke-width:1.0;"/><polygon fill="#181818" points="1152.58,213.3969,1158.0524,221.5855,1156.8071,216.0674,1162.3252,214.8221,1152.58,213.3969" style="stroke:#181818;stroke-width:1.0;"/><path d="M1584.5,266.2969 L1584.5,307.2969 L1742.5,307.2969 L1742.5,276.2969 L1732.5,266.2969 L1584.5,266.2969 " fill="#FEFFDD" style="stroke:#181818;stroke-width:0.5;"/><path d="M1732.5,266.2969 L1732.5,276.2969 L1742.5,276.2969 L1732.5,266.2969 " fill="#FEFFDD" style="stroke:#181818;stroke-width:0.5;"/><text fill="#000000" font-family="sans-serif" font-size="13" lengthAdjust="spacing" textLength="121" x="1598.5" y="291.3638">std_srvs/Empty.srv</text><text fill="#000000" font-family="sans-serif" font-size="13" lengthAdjust="spacing" textLength="10" x="1622.5728" y="413.177">cl</text></g><!--MD5=[e81c743949dd66c2321014657d46feab]
reverse link MOVE_BASE_NAV to SRV_HEAD_ORIENT_SWITCH--><g id="link_MOVE_BASE_NAV_SRV_HEAD_ORIENT_SWITCH"><path codeLine="47" d="M958.4793,194.5015 C958.4228,194.5833 958.3661,194.6656 958.3091,194.7482 C958.1953,194.9135 958.0805,195.0802 957.9649,195.2485 C957.0401,196.5944 956.0605,198.0355 955.0364,199.5622 C952.9884,202.6155 950.7628,206.0109 948.4438,209.6706 C939.1675,224.3094 928.395,243.1769 921.5,261.2969 C897.46,324.4669 887.81,406.4369 885.25,432.1869 " fill="none" id="MOVE_BASE_NAV-backto-SRV_HEAD_ORIENT_SWITCH" style="stroke:#181818;stroke-width:1.0;"/><polygon fill="#181818" points="958.4793,194.5015,950.0755,199.6373,955.6395,198.6168,956.66,204.1809,958.4793,194.5015" style="stroke:#181818;stroke-width:1.0;"/><path d="M926.5,266.2969 L926.5,307.2969 L1093.5,307.2969 L1093.5,276.2969 L1083.5,266.2969 L926.5,266.2969 " fill="#FEFFDD" style="stroke:#181818;stroke-width:0.5;"/><path d="M1083.5,266.2969 L1083.5,276.2969 L1093.5,276.2969 L1083.5,266.2969 " fill="#FEFFDD" style="stroke:#181818;stroke-width:0.5;"/><text fill="#000000" font-family="sans-serif" font-size="13" lengthAdjust="spacing" textLength="130" x="940.5" y="291.3638">std_srvs/SetBool.srv</text><text fill="#000000" font-family="sans-serif" font-size="13" lengthAdjust="spacing" textLength="10" x="863.1922" y="413.1237">cl</text></g><!--MD5=[3380a0bcd41437c21dba2e949617a164]
@startuml

''' INFOS
title NODE move_base_nav
skinparam Padding 8
allow_mixing


''' COMPONENTS
database "ROS parameter server" as PARAMETERS {
	node "des_pos_x"
	node "des_pos_y"
}

component "move_base_nav" <<ROSPy node>> as MOVE_BASE_NAV {
	node "move_base_nav_switch" as MOVE_BASE_NAV.SWITCH
	node "clbk_odom" as MOVE_BASE_NAV.READ_ODOM
	
}

MOVE_BASE_NAV "get" <- - PARAMETERS

() "/odom" as TOPIC_ODOM
MOVE_BASE_NAV.READ_ODOM "sub" <- - TOPIC_ODOM
note on link: nav_msgs/Odometry.msg

() "/cmd_vel" as TOPIC_VEL
MOVE_BASE_NAV "pub" - -> TOPIC_VEL
note on link: geometry_msgs/Twist.msg

() "/move_base/goal" as TOPIC_MOVE_BASE_GOAL
MOVE_BASE_NAV "pub" - -> TOPIC_MOVE_BASE_GOAL
note on link: move_base_msgs/MoveBaseActionGoal.msg

() "/move_base/cancel" as TOPIC_MOVE_BASE_CANCEL
MOVE_BASE_NAV "pub" - -> TOPIC_MOVE_BASE_CANCEL
note on link: actionlib_msgs/GoalID.msg

() "/nav_stack_switch" as SRV_MOVE_BASE_NAV_SWITCH
MOVE_BASE_NAV.SWITCH "srv" - -> SRV_MOVE_BASE_NAV_SWITCH
note on link: std_srvs/SetBool.srv

() "/nav_stack_signal" as SRV_MOVE_BASE_NAV_SIGNAL
MOVE_BASE_NAV.SWITCH <- - "cl" SRV_MOVE_BASE_NAV_SIGNAL
note on link: std_srvs/Empty.srv

() "/head_orient_switch" as SRV_HEAD_ORIENT_SWITCH
MOVE_BASE_NAV <- - "cl" SRV_HEAD_ORIENT_SWITCH
note on link: std_srvs/SetBool.srv

@enduml

@startuml

title NODE move_base_nav
skinparam Padding 8
allow_mixing


database "ROS parameter server" as PARAMETERS {
	node "des_pos_x"
	node "des_pos_y"
}

component "move_base_nav" <<ROSPy node>> as MOVE_BASE_NAV {
	node "move_base_nav_switch" as MOVE_BASE_NAV.SWITCH
	node "clbk_odom" as MOVE_BASE_NAV.READ_ODOM
	
}

MOVE_BASE_NAV "get" <- - PARAMETERS

() "/odom" as TOPIC_ODOM
MOVE_BASE_NAV.READ_ODOM "sub" <- - TOPIC_ODOM
note on link: nav_msgs/Odometry.msg

() "/cmd_vel" as TOPIC_VEL
MOVE_BASE_NAV "pub" - -> TOPIC_VEL
note on link: geometry_msgs/Twist.msg

() "/move_base/goal" as TOPIC_MOVE_BASE_GOAL
MOVE_BASE_NAV "pub" - -> TOPIC_MOVE_BASE_GOAL
note on link: move_base_msgs/MoveBaseActionGoal.msg

() "/move_base/cancel" as TOPIC_MOVE_BASE_CANCEL
MOVE_BASE_NAV "pub" - -> TOPIC_MOVE_BASE_CANCEL
note on link: actionlib_msgs/GoalID.msg

() "/nav_stack_switch" as SRV_MOVE_BASE_NAV_SWITCH
MOVE_BASE_NAV.SWITCH "srv" - -> SRV_MOVE_BASE_NAV_SWITCH
note on link: std_srvs/SetBool.srv

() "/nav_stack_signal" as SRV_MOVE_BASE_NAV_SIGNAL
MOVE_BASE_NAV.SWITCH <- - "cl" SRV_MOVE_BASE_NAV_SIGNAL
note on link: std_srvs/Empty.srv

() "/head_orient_switch" as SRV_HEAD_ORIENT_SWITCH
MOVE_BASE_NAV <- - "cl" SRV_HEAD_ORIENT_SWITCH
note on link: std_srvs/SetBool.srv

@enduml

PlantUML version 1.2022.6(Tue Jun 21 17:34:49 UTC 2022)
(GPL source distribution)
Java Runtime: Java(TM) SE Runtime Environment
JVM: Java HotSpot(TM) 64-Bit Server VM
Default Encoding: UTF-8
Language: en
Country: US
--></g></svg>