<?xml version="1.0" encoding="UTF-8" standalone="no"?><svg xmlns="http://www.w3.org/2000/svg" xmlns:xlink="http://www.w3.org/1999/xlink" contentStyleType="text/css" height="945px" preserveAspectRatio="none" style="width:710px;height:945px;background:#FFFFFF;" version="1.1" viewBox="0 0 710 945" width="710px" zoomAndPan="magnify"><defs/><g><rect height="26.2969" style="stroke:#00000000;stroke-width:1.0;fill:none;" width="292" x="205" y="10"/><text fill="#000000" font-family="sans-serif" font-size="14" font-weight="bold" lengthAdjust="spacing" textLength="282" x="210" y="27.9951">Asynchronous Manipuation - RCL#3</text><line style="stroke:#181818;stroke-width:0.5;stroke-dasharray:5.0,5.0;" x1="136" x2="136" y1="73.5938" y2="910.1797"/><line style="stroke:#181818;stroke-width:0.5;stroke-dasharray:5.0,5.0;" x1="297" x2="297" y1="73.5938" y2="910.1797"/><line style="stroke:#181818;stroke-width:0.5;stroke-dasharray:5.0,5.0;" x1="493" x2="493" y1="73.5938" y2="910.1797"/><line style="stroke:#181818;stroke-width:0.5;stroke-dasharray:5.0,5.0;" x1="645" x2="645" y1="73.5938" y2="910.1797"/><rect fill="#E2E2F0" height="30.2969" rx="2.5" ry="2.5" style="stroke:#181818;stroke-width:0.5;" width="148" x="62" y="42.2969"/><text fill="#000000" font-family="sans-serif" font-size="14" lengthAdjust="spacing" textLength="134" x="69" y="62.292">MISSION_MANAGER</text><rect fill="#E2E2F0" height="30.2969" rx="2.5" ry="2.5" style="stroke:#181818;stroke-width:0.5;" width="148" x="62" y="909.1797"/><text fill="#000000" font-family="sans-serif" font-size="14" lengthAdjust="spacing" textLength="134" x="69" y="929.1748">MISSION_MANAGER</text><rect fill="#E2E2F0" height="30.2969" rx="2.5" ry="2.5" style="stroke:#181818;stroke-width:0.5;" width="155" x="220" y="42.2969"/><text fill="#000000" font-family="sans-serif" font-size="14" lengthAdjust="spacing" textLength="141" x="227" y="62.292">MANIPULATION_UNIT</text><rect fill="#E2E2F0" height="30.2969" rx="2.5" ry="2.5" style="stroke:#181818;stroke-width:0.5;" width="155" x="220" y="909.1797"/><text fill="#000000" font-family="sans-serif" font-size="14" lengthAdjust="spacing" textLength="141" x="227" y="929.1748">MANIPULATION_UNIT</text><rect fill="#E2E2F0" height="30.2969" rx="2.5" ry="2.5" style="stroke:#181818;stroke-width:0.5;" width="217" x="385" y="42.2969"/><text fill="#000000" font-family="sans-serif" font-size="14" lengthAdjust="spacing" textLength="203" x="392" y="62.292">MANIPULATION_CONTROLLER</text><rect fill="#E2E2F0" height="30.2969" rx="2.5" ry="2.5" style="stroke:#181818;stroke-width:0.5;" width="217" x="385" y="909.1797"/><text fill="#000000" font-family="sans-serif" font-size="14" lengthAdjust="spacing" textLength="203" x="392" y="929.1748">MANIPULATION_CONTROLLER</text><rect fill="#E2E2F0" height="30.2969" rx="2.5" ry="2.5" style="stroke:#181818;stroke-width:0.5;" width="67" x="612" y="42.2969"/><text fill="#000000" font-family="sans-serif" font-size="14" lengthAdjust="spacing" textLength="53" x="619" y="62.292">MOVEIT</text><rect fill="#E2E2F0" height="30.2969" rx="2.5" ry="2.5" style="stroke:#181818;stroke-width:0.5;" width="67" x="612" y="909.1797"/><text fill="#000000" font-family="sans-serif" font-size="14" lengthAdjust="spacing" textLength="53" x="619" y="929.1748">MOVEIT</text><rect fill="#EEEEEE" height="3" style="stroke:#EEEEEE;stroke-width:1.0;" width="703" x="0" y="104.1602"/><line style="stroke:#000000;stroke-width:1.0;" x1="0" x2="703" y1="104.1602" y2="104.1602"/><line style="stroke:#000000;stroke-width:1.0;" x1="0" x2="703" y1="107.1602" y2="107.1602"/><rect fill="#EEEEEE" height="23.1328" style="stroke:#000000;stroke-width:2.0;" width="249" x="227" y="93.5938"/><text fill="#000000" font-family="sans-serif" font-size="13" font-weight="bold" lengthAdjust="spacing" textLength="230" x="233" y="109.6606">enable automatic manipolation</text><polygon fill="#181818" points="285.5,143.8594,295.5,147.8594,285.5,151.8594,289.5,147.8594" style="stroke:#181818;stroke-width:1.0;"/><line style="stroke:#181818;stroke-width:1.0;" x1="136" x2="291.5" y1="147.8594" y2="147.8594"/><text fill="#000000" font-family="sans-serif" font-size="13" lengthAdjust="spacing" textLength="39" x="143" y="142.7935">switch</text><text fill="#000000" font-family="sans-serif" font-size="13" font-weight="bold" lengthAdjust="spacing" textLength="22" x="186" y="142.7935">ON</text><polygon fill="#181818" points="147,172.9922,137,176.9922,147,180.9922,143,176.9922" style="stroke:#181818;stroke-width:1.0;"/><line style="stroke:#181818;stroke-width:1.0;" x1="141" x2="296.5" y1="176.9922" y2="176.9922"/><text fill="#000000" font-family="sans-serif" font-size="13" font-style="italic" lengthAdjust="spacing" textLength="51" x="153" y="171.9263">success</text><rect fill="#EEEEEE" height="3" style="stroke:#EEEEEE;stroke-width:1.0;" width="703" x="0" y="205.5586"/><line style="stroke:#000000;stroke-width:1.0;" x1="0" x2="703" y1="205.5586" y2="205.5586"/><line style="stroke:#000000;stroke-width:1.0;" x1="0" x2="703" y1="208.5586" y2="208.5586"/><rect fill="#EEEEEE" height="23.1328" style="stroke:#000000;stroke-width:2.0;" width="236" x="233.5" y="194.9922"/><text fill="#000000" font-family="sans-serif" font-size="13" font-weight="bold" lengthAdjust="spacing" textLength="217" x="239.5" y="211.0591">automatic manipulation cycle</text><polygon fill="#181818" points="481.5,245.2578,491.5,249.2578,481.5,253.2578,485.5,249.2578" style="stroke:#181818;stroke-width:1.0;"/><line style="stroke:#181818;stroke-width:1.0;" x1="297.5" x2="487.5" y1="249.2578" y2="249.2578"/><text fill="#000000" font-family="sans-serif" font-size="13" lengthAdjust="spacing" textLength="120" x="304.5" y="244.1919">send random pose</text><polygon fill="#FEFFDD" points="243,262.2578,351,262.2578,361,273.2578,351,285.2578,243,285.2578,233,273.2578,243,262.2578" style="stroke:#181818;stroke-width:0.5;"/><text fill="#000000" font-family="sans-serif" font-size="13" lengthAdjust="spacing" textLength="104" x="245" y="278.3247">wait tot seconds</text><path d="M155,295.3906 L155,350.3906 L440,350.3906 L440,305.3906 L430,295.3906 L155,295.3906 " fill="#FEFFDD" style="stroke:#181818;stroke-width:0.5;"/><path d="M430,295.3906 L430,305.3906 L440,305.3906 L430,295.3906 " fill="#FEFFDD" style="stroke:#181818;stroke-width:0.5;"/><text fill="#000000" font-family="sans-serif" font-size="13" lengthAdjust="spacing" textLength="175" x="161" y="312.4575">let's assume the cycle time</text><text fill="#000000" font-family="sans-serif" font-size="13" lengthAdjust="spacing" textLength="189" x="161" y="327.5903">of the MANIPULATION_UNIT is</text><text fill="#000000" font-family="sans-serif" font-size="13" lengthAdjust="spacing" textLength="264" x="161" y="342.7231">large enough to complete the movement</text><polygon fill="#181818" points="633.5,372.9219,643.5,376.9219,633.5,380.9219,637.5,376.9219" style="stroke:#181818;stroke-width:1.0;"/><line style="stroke:#181818;stroke-width:1.0;" x1="493.5" x2="639.5" y1="376.9219" y2="376.9219"/><text fill="#000000" font-family="sans-serif" font-size="13" lengthAdjust="spacing" textLength="71" x="500.5" y="371.856">call move()</text><polygon fill="#181818" points="504.5,402.0547,494.5,406.0547,504.5,410.0547,500.5,406.0547" style="stroke:#181818;stroke-width:1.0;"/><line style="stroke:#181818;stroke-width:1.0;stroke-dasharray:2.0,2.0;" x1="498.5" x2="644.5" y1="406.0547" y2="406.0547"/><text fill="#000000" font-family="sans-serif" font-size="13" lengthAdjust="spacing" textLength="114" x="510.5" y="400.9888">end of the motion</text><polygon fill="#181818" points="481.5,431.1875,491.5,435.1875,481.5,439.1875,485.5,435.1875" style="stroke:#181818;stroke-width:1.0;"/><line style="stroke:#181818;stroke-width:1.0;" x1="297.5" x2="487.5" y1="435.1875" y2="435.1875"/><text fill="#000000" font-family="sans-serif" font-size="13" lengthAdjust="spacing" textLength="120" x="304.5" y="430.1216">send random pose</text><polygon fill="#FEFFDD" points="243,448.1875,351,448.1875,361,459.1875,351,471.1875,243,471.1875,233,459.1875,243,448.1875" style="stroke:#181818;stroke-width:0.5;"/><text fill="#000000" font-family="sans-serif" font-size="13" lengthAdjust="spacing" textLength="104" x="245" y="464.2544">wait tot seconds</text><polygon fill="#181818" points="633.5,493.4531,643.5,497.4531,633.5,501.4531,637.5,497.4531" style="stroke:#181818;stroke-width:1.0;"/><line style="stroke:#181818;stroke-width:1.0;" x1="493.5" x2="639.5" y1="497.4531" y2="497.4531"/><text fill="#000000" font-family="sans-serif" font-size="13" lengthAdjust="spacing" textLength="71" x="500.5" y="492.3872">call move()</text><polygon fill="#181818" points="504.5,522.5859,494.5,526.5859,504.5,530.5859,500.5,526.5859" style="stroke:#181818;stroke-width:1.0;"/><line style="stroke:#181818;stroke-width:1.0;stroke-dasharray:2.0,2.0;" x1="498.5" x2="644.5" y1="526.5859" y2="526.5859"/><text fill="#000000" font-family="sans-serif" font-size="13" lengthAdjust="spacing" textLength="114" x="510.5" y="521.52">end of the motion</text><path d="M244,539.5859 L244,564.5859 L698,564.5859 L698,549.5859 L688,539.5859 L244,539.5859 " fill="#FEFFDD" style="stroke:#181818;stroke-width:0.5;"/><path d="M688,539.5859 L688,549.5859 L698,549.5859 L688,539.5859 " fill="#FEFFDD" style="stroke:#181818;stroke-width:0.5;"/><text fill="#000000" font-family="sans-serif" font-size="13" lengthAdjust="spacing" textLength="111" x="411" y="556.6528">. . . and so on . . .</text><rect fill="#EEEEEE" height="3" style="stroke:#EEEEEE;stroke-width:1.0;" width="703" x="0" y="590.2852"/><line style="stroke:#000000;stroke-width:1.0;" x1="0" x2="703" y1="590.2852" y2="590.2852"/><line style="stroke:#000000;stroke-width:1.0;" x1="0" x2="703" y1="593.2852" y2="593.2852"/><rect fill="#EEEEEE" height="23.1328" style="stroke:#000000;stroke-width:2.0;" width="253" x="225" y="579.7188"/><text fill="#000000" font-family="sans-serif" font-size="13" font-weight="bold" lengthAdjust="spacing" textLength="234" x="231" y="595.7856">disable automatic manipulation</text><path d="M5,617.8516 L5,657.8516 L268,657.8516 L268,627.8516 L258,617.8516 L5,617.8516 " fill="#FEFFDD" style="stroke:#181818;stroke-width:0.5;"/><path d="M258,617.8516 L258,627.8516 L268,627.8516 L258,617.8516 " fill="#FEFFDD" style="stroke:#181818;stroke-width:0.5;"/><text fill="#000000" font-family="sans-serif" font-size="13" lengthAdjust="spacing" textLength="238" x="11" y="634.9185">the MISSION MANAGER can issue the</text><text fill="#000000" font-family="sans-serif" font-size="13" lengthAdjust="spacing" textLength="140" x="11" y="650.0513">command in any time</text><polygon fill="#181818" points="633.5,680.25,643.5,684.25,633.5,688.25,637.5,684.25" style="stroke:#181818;stroke-width:1.0;"/><line style="stroke:#181818;stroke-width:1.0;" x1="493.5" x2="639.5" y1="684.25" y2="684.25"/><text fill="#000000" font-family="sans-serif" font-size="13" lengthAdjust="spacing" textLength="71" x="500.5" y="679.1841">call move()</text><polygon fill="#181818" points="504.5,709.3828,494.5,713.3828,504.5,717.3828,500.5,713.3828" style="stroke:#181818;stroke-width:1.0;"/><line style="stroke:#181818;stroke-width:1.0;stroke-dasharray:2.0,2.0;" x1="498.5" x2="644.5" y1="713.3828" y2="713.3828"/><text fill="#000000" font-family="sans-serif" font-size="13" lengthAdjust="spacing" textLength="114" x="510.5" y="708.3169">end of the motion</text><polygon fill="#181818" points="481.5,738.5156,491.5,742.5156,481.5,746.5156,485.5,742.5156" style="stroke:#181818;stroke-width:1.0;"/><line style="stroke:#181818;stroke-width:1.0;" x1="297.5" x2="487.5" y1="742.5156" y2="742.5156"/><text fill="#000000" font-family="sans-serif" font-size="13" lengthAdjust="spacing" textLength="120" x="304.5" y="737.4497">send random pose</text><polygon fill="#FEFFDD" points="243,755.5156,351,755.5156,361,766.5156,351,778.5156,243,778.5156,233,766.5156,243,755.5156" style="stroke:#181818;stroke-width:0.5;"/><text fill="#000000" font-family="sans-serif" font-size="13" lengthAdjust="spacing" textLength="104" x="245" y="771.5825">wait tot seconds</text><polygon fill="#181818" points="285.5,800.7813,295.5,804.7813,285.5,808.7813,289.5,804.7813" style="stroke:#181818;stroke-width:1.0;"/><line style="stroke:#181818;stroke-width:1.0;" x1="136" x2="291.5" y1="804.7813" y2="804.7813"/><text fill="#000000" font-family="sans-serif" font-size="13" lengthAdjust="spacing" textLength="39" x="143" y="799.7153">switch</text><text fill="#000000" font-family="sans-serif" font-size="13" font-weight="bold" lengthAdjust="spacing" textLength="29" x="186" y="799.7153">OFF</text><polygon fill="#181818" points="147,829.9141,137,833.9141,147,837.9141,143,833.9141" style="stroke:#181818;stroke-width:1.0;"/><line style="stroke:#181818;stroke-width:1.0;" x1="141" x2="296.5" y1="833.9141" y2="833.9141"/><text fill="#000000" font-family="sans-serif" font-size="13" font-style="italic" lengthAdjust="spacing" textLength="51" x="153" y="828.8481">success</text><polygon fill="#181818" points="633.5,859.0469,643.5,863.0469,633.5,867.0469,637.5,863.0469" style="stroke:#181818;stroke-width:1.0;"/><line style="stroke:#181818;stroke-width:1.0;" x1="493.5" x2="639.5" y1="863.0469" y2="863.0469"/><text fill="#000000" font-family="sans-serif" font-size="13" lengthAdjust="spacing" textLength="71" x="500.5" y="857.981">call move()</text><polygon fill="#181818" points="504.5,888.1797,494.5,892.1797,504.5,896.1797,500.5,892.1797" style="stroke:#181818;stroke-width:1.0;"/><line style="stroke:#181818;stroke-width:1.0;stroke-dasharray:2.0,2.0;" x1="498.5" x2="644.5" y1="892.1797" y2="892.1797"/><text fill="#000000" font-family="sans-serif" font-size="13" lengthAdjust="spacing" textLength="114" x="510.5" y="887.1138">end of the motion</text><!--MD5=[7716235410beb857749cdde8ee21165d]
@startuml

title Asynchronous Manipuation - RCL#3

''' ENTITIES
participant MISSION_MANAGER
participant MANIPULATION_UNIT
participant MANIPULATION_CONTROLLER
participant MOVEIT

== enable automatic manipolation ==

MISSION_MANAGER -> MANIPULATION_UNIT : switch <b>ON</b>
MISSION_MANAGER <- MANIPULATION_UNIT : <i>success</i>

== automatic manipulation cycle ==

MANIPULATION_UNIT -> MANIPULATION_CONTROLLER : send random pose
hnote over MANIPULATION_UNIT
wait tot seconds
end hnote
note over MANIPULATION_UNIT
let's assume the cycle time
of the MANIPULATION_UNIT is
large enough to complete the movement
end note

MANIPULATION_CONTROLLER -> MOVEIT : call move()
MANIPULATION_CONTROLLER <- - MOVEIT : end of the motion

MANIPULATION_UNIT -> MANIPULATION_CONTROLLER : send random pose
hnote over MANIPULATION_UNIT
wait tot seconds
end hnote

MANIPULATION_CONTROLLER -> MOVEIT : call move()
MANIPULATION_CONTROLLER <- - MOVEIT : end of the motion

note over MANIPULATION_UNIT, MOVEIT
. . . and so on . . .
end note

== disable automatic manipulation ==

note over MISSION_MANAGER
the MISSION MANAGER can issue the 
command in any time
end note

MANIPULATION_CONTROLLER -> MOVEIT : call move()
MANIPULATION_CONTROLLER <- - MOVEIT : end of the motion

MANIPULATION_UNIT -> MANIPULATION_CONTROLLER : send random pose
hnote over MANIPULATION_UNIT
wait tot seconds
end hnote

MISSION_MANAGER -> MANIPULATION_UNIT : switch <b>OFF</b>
MISSION_MANAGER <- MANIPULATION_UNIT : <i>success</i>

MANIPULATION_CONTROLLER -> MOVEIT : call move()
MANIPULATION_CONTROLLER <- - MOVEIT : end of the motion


@enduml

@startuml

title Asynchronous Manipuation - RCL#3

participant MISSION_MANAGER
participant MANIPULATION_UNIT
participant MANIPULATION_CONTROLLER
participant MOVEIT

== enable automatic manipolation ==

MISSION_MANAGER -> MANIPULATION_UNIT : switch <b>ON</b>
MISSION_MANAGER <- MANIPULATION_UNIT : <i>success</i>

== automatic manipulation cycle ==

MANIPULATION_UNIT -> MANIPULATION_CONTROLLER : send random pose
hnote over MANIPULATION_UNIT
wait tot seconds
end hnote
note over MANIPULATION_UNIT
let's assume the cycle time
of the MANIPULATION_UNIT is
large enough to complete the movement
end note

MANIPULATION_CONTROLLER -> MOVEIT : call move()
MANIPULATION_CONTROLLER <- - MOVEIT : end of the motion

MANIPULATION_UNIT -> MANIPULATION_CONTROLLER : send random pose
hnote over MANIPULATION_UNIT
wait tot seconds
end hnote

MANIPULATION_CONTROLLER -> MOVEIT : call move()
MANIPULATION_CONTROLLER <- - MOVEIT : end of the motion

note over MANIPULATION_UNIT, MOVEIT
. . . and so on . . .
end note

== disable automatic manipulation ==

note over MISSION_MANAGER
the MISSION MANAGER can issue the 
command in any time
end note

MANIPULATION_CONTROLLER -> MOVEIT : call move()
MANIPULATION_CONTROLLER <- - MOVEIT : end of the motion

MANIPULATION_UNIT -> MANIPULATION_CONTROLLER : send random pose
hnote over MANIPULATION_UNIT
wait tot seconds
end hnote

MISSION_MANAGER -> MANIPULATION_UNIT : switch <b>OFF</b>
MISSION_MANAGER <- MANIPULATION_UNIT : <i>success</i>

MANIPULATION_CONTROLLER -> MOVEIT : call move()
MANIPULATION_CONTROLLER <- - MOVEIT : end of the motion


@enduml

PlantUML version 1.2022.6(Tue Jun 21 17:34:49 UTC 2022)
(GPL source distribution)
Java Runtime: Java(TM) SE Runtime Environment
JVM: Java HotSpot(TM) 64-Bit Server VM
Default Encoding: UTF-8
Language: en
Country: US
--></g></svg>