<?xml version="1.0" encoding="UTF-8" standalone="no"?><svg xmlns="http://www.w3.org/2000/svg" xmlns:xlink="http://www.w3.org/1999/xlink" contentStyleType="text/css" height="464px" preserveAspectRatio="none" style="width:496px;height:464px;background:#FFFFFF;" version="1.1" viewBox="0 0 496 464" width="496px" zoomAndPan="magnify"><defs/><g><rect height="26.2969" style="stroke:#00000000;stroke-width:1.0;fill:none;" width="466" x="11" y="10"/><text fill="#000000" font-family="sans-serif" font-size="14" font-weight="bold" lengthAdjust="spacing" textLength="456" x="16" y="27.9951">RCL#3 move_base navigation - package temporal diagram</text><line style="stroke:#181818;stroke-width:0.5;stroke-dasharray:5.0,5.0;" x1="46" x2="46" y1="77.5938" y2="424.9219"/><line style="stroke:#181818;stroke-width:0.5;stroke-dasharray:5.0,5.0;" x1="254" x2="254" y1="77.5938" y2="424.9219"/><line style="stroke:#181818;stroke-width:0.5;stroke-dasharray:5.0,5.0;" x1="402" x2="402" y1="77.5938" y2="424.9219"/><rect fill="#E2E2F0" height="30.2969" style="stroke:#181818;stroke-width:0.5;" width="79" x="9" y="42.2969"/><rect fill="#E2E2F0" height="30.2969" style="stroke:#181818;stroke-width:0.5;" width="79" x="5" y="46.2969"/><text fill="#000000" font-family="sans-serif" font-size="14" lengthAdjust="spacing" textLength="65" x="12" y="66.292">ROSPLAN</text><rect fill="#E2E2F0" height="30.2969" style="stroke:#181818;stroke-width:0.5;" width="79" x="9" y="423.9219"/><rect fill="#E2E2F0" height="30.2969" style="stroke:#181818;stroke-width:0.5;" width="79" x="5" y="427.9219"/><text fill="#000000" font-family="sans-serif" font-size="14" lengthAdjust="spacing" textLength="65" x="12" y="447.917">ROSPLAN</text><rect fill="#E2E2F0" height="30.2969" style="stroke:#181818;stroke-width:0.5;" width="71" x="221" y="42.2969"/><rect fill="#E2E2F0" height="30.2969" style="stroke:#181818;stroke-width:0.5;" width="71" x="217" y="46.2969"/><text fill="#000000" font-family="sans-serif" font-size="14" lengthAdjust="spacing" textLength="57" x="224" y="66.292">MISSION</text><rect fill="#E2E2F0" height="30.2969" style="stroke:#181818;stroke-width:0.5;" width="71" x="221" y="423.9219"/><rect fill="#E2E2F0" height="30.2969" style="stroke:#181818;stroke-width:0.5;" width="71" x="217" y="427.9219"/><text fill="#000000" font-family="sans-serif" font-size="14" lengthAdjust="spacing" textLength="57" x="224" y="447.917">MISSION</text><rect fill="#E2E2F0" height="30.2969" style="stroke:#181818;stroke-width:0.5;" width="95" x="357" y="42.2969"/><rect fill="#E2E2F0" height="30.2969" style="stroke:#181818;stroke-width:0.5;" width="95" x="353" y="46.2969"/><text fill="#000000" font-family="sans-serif" font-size="14" lengthAdjust="spacing" textLength="81" x="360" y="66.292">MOVEMENT</text><rect fill="#E2E2F0" height="30.2969" style="stroke:#181818;stroke-width:0.5;" width="95" x="357" y="423.9219"/><rect fill="#E2E2F0" height="30.2969" style="stroke:#181818;stroke-width:0.5;" width="95" x="353" y="427.9219"/><text fill="#000000" font-family="sans-serif" font-size="14" lengthAdjust="spacing" textLength="81" x="360" y="447.917">MOVEMENT</text><rect fill="#EEEEEE" height="3" style="stroke:#EEEEEE;stroke-width:1.0;" width="489" x="0" y="108.1602"/><line style="stroke:#000000;stroke-width:1.0;" x1="0" x2="489" y1="108.1602" y2="108.1602"/><line style="stroke:#000000;stroke-width:1.0;" x1="0" x2="489" y1="111.1602" y2="111.1602"/><rect fill="#EEEEEE" height="23.1328" style="stroke:#000000;stroke-width:2.0;" width="208" x="140.5" y="97.5938"/><text fill="#000000" font-family="sans-serif" font-size="13" font-weight="bold" lengthAdjust="spacing" textLength="189" x="146.5" y="113.6606">First setup (first request)</text><polygon fill="#181818" points="390.5,147.8594,400.5,151.8594,390.5,155.8594,394.5,151.8594" style="stroke:#181818;stroke-width:1.0;"/><line style="stroke:#181818;stroke-width:1.0;" x1="254.5" x2="396.5" y1="151.8594" y2="151.8594"/><text fill="#000000" font-family="sans-serif" font-size="13" lengthAdjust="spacing" textLength="124" x="261.5" y="146.7935">SET controller ID=1</text><polygon fill="#181818" points="265.5,176.9922,255.5,180.9922,265.5,184.9922,261.5,180.9922" style="stroke:#181818;stroke-width:1.0;"/><line style="stroke:#181818;stroke-width:1.0;" x1="259.5" x2="401.5" y1="180.9922" y2="180.9922"/><text fill="#000000" font-family="sans-serif" font-size="13" lengthAdjust="spacing" textLength="51" x="271.5" y="175.9263">success</text><polygon fill="#FEFFDD" points="191,193.9922,317,193.9922,327,204.9922,317,216.9922,191,216.9922,181,204.9922,191,193.9922" style="stroke:#181818;stroke-width:0.5;"/><text fill="#000000" font-family="sans-serif" font-size="13" lengthAdjust="spacing" textLength="122" x="193" y="210.0591">waiting for markers</text><rect fill="#EEEEEE" height="3" style="stroke:#EEEEEE;stroke-width:1.0;" width="489" x="0" y="242.6914"/><line style="stroke:#000000;stroke-width:1.0;" x1="0" x2="489" y1="242.6914" y2="242.6914"/><line style="stroke:#000000;stroke-width:1.0;" x1="0" x2="489" y1="245.6914" y2="245.6914"/><rect fill="#EEEEEE" height="23.1328" style="stroke:#000000;stroke-width:2.0;" width="96" x="196.5" y="232.125"/><text fill="#000000" font-family="sans-serif" font-size="13" font-weight="bold" lengthAdjust="spacing" textLength="77" x="202.5" y="248.1919">Movement</text><polygon fill="#181818" points="242.5,282.3906,252.5,286.3906,242.5,290.3906,246.5,286.3906" style="stroke:#181818;stroke-width:1.0;"/><line style="stroke:#181818;stroke-width:1.0;" x1="46.5" x2="248.5" y1="286.3906" y2="286.3906"/><text fill="#000000" font-family="sans-serif" font-size="13" lengthAdjust="spacing" textLength="184" x="53.5" y="281.3247">request from ROSPlan action</text><polygon fill="#181818" points="390.5,311.5234,400.5,315.5234,390.5,319.5234,394.5,315.5234" style="stroke:#181818;stroke-width:1.0;"/><line style="stroke:#181818;stroke-width:1.0;" x1="254.5" x2="396.5" y1="315.5234" y2="315.5234"/><text fill="#000000" font-family="sans-serif" font-size="13" lengthAdjust="spacing" textLength="119" x="261.5" y="310.4575">navigation request</text><polygon fill="#FEFFDD" points="330,328.5234,474,328.5234,484,339.5234,474,351.5234,330,351.5234,320,339.5234,330,328.5234" style="stroke:#181818;stroke-width:0.5;"/><text fill="#000000" font-family="sans-serif" font-size="13" lengthAdjust="spacing" textLength="140" x="332" y="344.5903">performing navigation</text><polygon fill="#181818" points="265.5,373.7891,255.5,377.7891,265.5,381.7891,261.5,377.7891" style="stroke:#181818;stroke-width:1.0;"/><line style="stroke:#181818;stroke-width:1.0;" x1="259.5" x2="401.5" y1="377.7891" y2="377.7891"/><text fill="#000000" font-family="sans-serif" font-size="13" lengthAdjust="spacing" textLength="95" x="271.5" y="372.7231">target reached</text><polygon fill="#181818" points="57.5,402.9219,47.5,406.9219,57.5,410.9219,53.5,406.9219" style="stroke:#181818;stroke-width:1.0;"/><line style="stroke:#181818;stroke-width:1.0;" x1="51.5" x2="253.5" y1="406.9219" y2="406.9219"/><text fill="#000000" font-family="sans-serif" font-size="13" lengthAdjust="spacing" textLength="110" x="63.5" y="401.856">navigation ended</text><!--MD5=[822834d72ab0c31a67b1e893f876d98d]
@startuml

title RCL#3 move_base navigation - package temporal diagram

''' ENTITIES 
collections ROSPLAN
collections MISSION
collections MOVEMENT

''' SEQUENCE
' == section ==
' ...
== First setup (first request) ==

MISSION -> MOVEMENT : SET controller ID=1
MISSION <- MOVEMENT : success
hnote over MISSION: waiting for markers

== Movement ==

ROSPLAN -> MISSION : request from ROSPlan action
MISSION -> MOVEMENT : navigation request
hnote over MOVEMENT : performing navigation
MISSION <- MOVEMENT : target reached
ROSPLAN <- MISSION : navigation ended

@enduml

@startuml

title RCL#3 move_base navigation - package temporal diagram

collections ROSPLAN
collections MISSION
collections MOVEMENT

== First setup (first request) ==

MISSION -> MOVEMENT : SET controller ID=1
MISSION <- MOVEMENT : success
hnote over MISSION: waiting for markers

== Movement ==

ROSPLAN -> MISSION : request from ROSPlan action
MISSION -> MOVEMENT : navigation request
hnote over MOVEMENT : performing navigation
MISSION <- MOVEMENT : target reached
ROSPLAN <- MISSION : navigation ended

@enduml

PlantUML version 1.2022.6(Tue Jun 21 17:34:49 UTC 2022)
(GPL source distribution)
Java Runtime: Java(TM) SE Runtime Environment
JVM: Java HotSpot(TM) 64-Bit Server VM
Default Encoding: UTF-8
Language: en
Country: US
--></g></svg>