<?xml version="1.0" encoding="UTF-8" standalone="no"?><svg xmlns="http://www.w3.org/2000/svg" xmlns:xlink="http://www.w3.org/1999/xlink" contentStyleType="text/css" height="483px" preserveAspectRatio="none" style="width:483px;height:483px;background:#FFFFFF;" version="1.1" viewBox="0 0 483 483" width="483px" zoomAndPan="magnify"><defs/><g><rect height="46.2969" style="stroke:#00000000;stroke-width:1.0;fill:none;" width="247" x="111.25" y="5"/><text fill="#000000" font-family="sans-serif" font-size="14" font-weight="bold" lengthAdjust="spacing" textLength="217" x="126.25" y="32.9951">ROSPlan feedback manager</text><!--MD5=[70bcd7bd3fee704975ee0db46a91c203]
class FEEDBACK--><g id="elem_FEEDBACK"><rect codeLine="9" fill="#F1F1F1" height="207.4844" id="FEEDBACK" rx="2.5" ry="2.5" style="stroke:#181818;stroke-width:0.5;" width="239" x="7" y="64.2969"/><ellipse cx="46.75" cy="87.4453" fill="#ADD1B2" rx="11" ry="11" style="stroke:#181818;stroke-width:1.0;"/><path d="M49.7188,93.0859 Q49.1406,93.3828 48.5,93.5313 Q47.8594,93.6797 47.1563,93.6797 Q44.6563,93.6797 43.3359,92.0313 Q42.0156,90.3828 42.0156,87.2578 Q42.0156,84.1328 43.3359,82.4766 Q44.6563,80.8203 47.1563,80.8203 Q47.8594,80.8203 48.5078,80.9766 Q49.1563,81.1328 49.7188,81.4297 L49.7188,84.1484 Q49.0938,83.5703 48.5,83.2969 Q47.9063,83.0234 47.2813,83.0234 Q45.9375,83.0234 45.25,84.0938 Q44.5625,85.1641 44.5625,87.2578 Q44.5625,89.3516 45.25,90.4219 Q45.9375,91.4922 47.2813,91.4922 Q47.9063,91.4922 48.5,91.2188 Q49.0938,90.9453 49.7188,90.3672 L49.7188,93.0859 Z " fill="#000000"/><text fill="#000000" font-family="sans-serif" font-size="14" lengthAdjust="spacing" textLength="132" x="76.25" y="92.292">Feedback Manager</text><line style="stroke:#181818;stroke-width:0.5;" x1="8" x2="245" y1="110.5938" y2="110.5938"/><line style="stroke:#181818;stroke-width:0.5;" x1="8" x2="245" y1="118.5938" y2="118.5938"/><ellipse cx="18" cy="129.5938" fill="#84BE84" rx="3" ry="3" style="stroke:#038048;stroke-width:1.0;"/><text fill="#000000" font-family="sans-serif" font-size="14" lengthAdjust="spacing" textLength="71" x="37" y="145.5889">fb_failure()</text><ellipse cx="18" cy="165.8906" fill="#84BE84" rx="3" ry="3" style="stroke:#038048;stroke-width:1.0;"/><text fill="#000000" font-family="sans-serif" font-size="14" lengthAdjust="spacing" textLength="98" x="37" y="181.8857">fb_hw_failure()</text><ellipse cx="18" cy="202.1875" fill="#84BE84" rx="3" ry="3" style="stroke:#038048;stroke-width:1.0;"/><text fill="#000000" font-family="sans-serif" font-size="14" lengthAdjust="spacing" textLength="175" x="37" y="218.1826">fb_hw_navigation_failure()</text><ellipse cx="18" cy="238.4844" fill="#84BE84" rx="3" ry="3" style="stroke:#038048;stroke-width:1.0;"/><text fill="#000000" font-family="sans-serif" font-size="14" lengthAdjust="spacing" textLength="193" x="37" y="254.4795">fb_hw_manipulation_failure()</text></g><!--MD5=[4a6774d2d636828099b9e534edd85988]
entity TOPIC_FEEDBACK--><g id="elem_TOPIC_FEEDBACK"><ellipse cx="126.5" cy="435.2969" fill="#F1F1F1" rx="8" ry="8" style="stroke:#181818;stroke-width:0.5;"/><text fill="#000000" font-family="sans-serif" font-size="14" lengthAdjust="spacing" textLength="202" x="25.5" y="475.292">/robocluedo/action_feedback</text></g><!--MD5=[0d91df645df5ea738140d6024ee71c06]
link FEEDBACK to TOPIC_FEEDBACK--><g id="link_FEEDBACK_TOPIC_FEEDBACK"><path codeLine="18" d="M126.5,271.4469 C126.5,328.3869 126.5,393.1369 126.5,420.7069 " fill="none" id="FEEDBACK-to-TOPIC_FEEDBACK" style="stroke:#181818;stroke-width:1.0;"/><polygon fill="#181818" points="126.5,426.0169,130.5,417.0169,126.5,421.0169,122.5,417.0169,126.5,426.0169" style="stroke:#181818;stroke-width:1.0;"/><path d="M131.5,306.2969 L131.5,351.2969 L476.5,351.2969 L476.5,316.2969 L466.5,306.2969 L131.5,306.2969 " fill="#FEFFDD" style="stroke:#181818;stroke-width:0.5;"/><path d="M466.5,306.2969 L466.5,316.2969 L476.5,316.2969 L466.5,306.2969 " fill="#FEFFDD" style="stroke:#181818;stroke-width:0.5;"/><text fill="#000000" font-family="sans-serif" font-size="13" lengthAdjust="spacing" textLength="304" x="147.5" y="333.3638">robocluedo_rosplan_msgs/ActionFeedback.msg</text><text fill="#000000" font-family="sans-serif" font-size="13" lengthAdjust="spacing" textLength="24" x="86.0375" y="405.2367">pub</text></g><!--MD5=[bf632c1a83c68574e9feab0380f95b3b]
@startuml

''' INFOS
title ROSPlan feedback manager
skinparam Padding 10
allow_mixing


''' COMPONENTS
class "Feedback Manager" as FEEDBACK
{
  + fb_failure()
  + fb_hw_failure()
  + fb_hw_navigation_failure()
  + fb_hw_manipulation_failure()
}

() "/robocluedo/action_feedback" as TOPIC_FEEDBACK
FEEDBACK - -> "pub" TOPIC_FEEDBACK
note on link: robocluedo_rosplan_msgs/ActionFeedback.msg


''' CONNECTIONS
' ...

@enduml

@startuml

title ROSPlan feedback manager
skinparam Padding 10
allow_mixing


class "Feedback Manager" as FEEDBACK
{
  + fb_failure()
  + fb_hw_failure()
  + fb_hw_navigation_failure()
  + fb_hw_manipulation_failure()
}

() "/robocluedo/action_feedback" as TOPIC_FEEDBACK
FEEDBACK - -> "pub" TOPIC_FEEDBACK
note on link: robocluedo_rosplan_msgs/ActionFeedback.msg



@enduml

PlantUML version 1.2022.6(Tue Jun 21 17:34:49 UTC 2022)
(GPL source distribution)
Java Runtime: Java(TM) SE Runtime Environment
JVM: Java HotSpot(TM) 64-Bit Server VM
Default Encoding: UTF-8
Language: en
Country: US
--></g></svg>