<?xml version="1.0" encoding="UTF-8" standalone="no"?><svg xmlns="http://www.w3.org/2000/svg" xmlns:xlink="http://www.w3.org/1999/xlink" contentStyleType="text/css" height="513px" preserveAspectRatio="none" style="width:2100px;height:513px;background:#FFFFFF;" version="1.1" viewBox="0 0 2100 513" width="2100px" zoomAndPan="magnify"><defs/><g><rect height="42.2969" style="stroke:#00000000;stroke-width:1.0;fill:none;" width="197" x="944.75" y="5"/><text fill="#000000" font-family="sans-serif" font-size="14" font-weight="bold" lengthAdjust="spacing" textLength="171" x="957.75" y="30.9951">NODE move_base_nav</text><!--MD5=[39c4eee9471449e046008ca5703679c3]
cluster PARAMETERS--><g id="cluster_PARAMETERS"><path d="M1248.5,346.2969 C1248.5,336.2969 1429,336.2969 1429,336.2969 C1429,336.2969 1609.5,336.2969 1609.5,346.2969 L1609.5,486.2969 C1609.5,496.2969 1429,496.2969 1429,496.2969 C1429,496.2969 1248.5,496.2969 1248.5,486.2969 L1248.5,346.2969 " style="stroke:#181818;stroke-width:1.0;fill:none;"/><path d="M1248.5,346.2969 C1248.5,356.2969 1429,356.2969 1429,356.2969 C1429,356.2969 1609.5,356.2969 1609.5,346.2969 " fill="none" style="stroke:#181818;stroke-width:1.0;"/><text fill="#000000" font-family="sans-serif" font-size="14" font-weight="bold" lengthAdjust="spacing" textLength="176" x="1341" y="379.292">ROS parameter server</text></g><!--MD5=[19fa23326ec51ca88bbfac075c92d164]
cluster MOVE_BASE_NAV--><g id="cluster_MOVE_BASE_NAV"><rect height="177" rx="2.5" ry="2.5" style="stroke:#181818;stroke-width:1.0;fill:none;" width="451" x="1024.5" y="60.2969"/><rect height="10" style="stroke:#181818;stroke-width:1.0;fill:none;" width="15" x="1455.5" y="65.2969"/><rect height="2" style="stroke:#181818;stroke-width:1.0;fill:none;" width="4" x="1453.5" y="67.2969"/><rect height="2" style="stroke:#181818;stroke-width:1.0;fill:none;" width="4" x="1453.5" y="71.2969"/><text fill="#000000" font-family="sans-serif" font-size="14" font-style="italic" lengthAdjust="spacing" textLength="104" x="1198" y="94.292">«ROSPy node»</text><text fill="#000000" font-family="sans-serif" font-size="14" font-weight="bold" lengthAdjust="spacing" textLength="123" x="1188.5" y="126.5889">move_base_nav</text></g><!--MD5=[3d2d0cdc5a87e8d33dbbdf625e1e368a]
entity des_pos_x--><g id="elem_des_pos_x"><polygon fill="#F1F1F1" points="1456,420.2969,1466,410.2969,1585,410.2969,1585,462.5938,1575,472.5938,1456,472.5938,1456,420.2969" style="stroke:#181818;stroke-width:0.5;"/><line style="stroke:#181818;stroke-width:0.5;" x1="1575" x2="1585" y1="420.2969" y2="410.2969"/><line style="stroke:#181818;stroke-width:0.5;" x1="1456" x2="1575" y1="420.2969" y2="420.2969"/><line style="stroke:#181818;stroke-width:0.5;" x1="1575" x2="1575" y1="420.2969" y2="472.5938"/><text fill="#000000" font-family="sans-serif" font-size="14" lengthAdjust="spacing" textLength="73" x="1479" y="451.292">des_pos_x</text></g><!--MD5=[f8ee79e2f34056c410e55b7856b01451]
entity des_pos_y--><g id="elem_des_pos_y"><polygon fill="#F1F1F1" points="1292,420.2969,1302,410.2969,1421,410.2969,1421,462.5938,1411,472.5938,1292,472.5938,1292,420.2969" style="stroke:#181818;stroke-width:0.5;"/><line style="stroke:#181818;stroke-width:0.5;" x1="1411" x2="1421" y1="420.2969" y2="410.2969"/><line style="stroke:#181818;stroke-width:0.5;" x1="1292" x2="1411" y1="420.2969" y2="420.2969"/><line style="stroke:#181818;stroke-width:0.5;" x1="1411" x2="1411" y1="420.2969" y2="472.5938"/><text fill="#000000" font-family="sans-serif" font-size="14" lengthAdjust="spacing" textLength="73" x="1315" y="451.292">des_pos_y</text></g><!--MD5=[571572b5270ca6220669ba8bfdbc29df]
entity MOVE_BASE_NAV.SWITCH--><g id="elem_MOVE_BASE_NAV.SWITCH"><polygon fill="#F1F1F1" points="1068,161.2969,1078,151.2969,1285,151.2969,1285,203.5938,1275,213.5938,1068,213.5938,1068,161.2969" style="stroke:#181818;stroke-width:0.5;"/><line style="stroke:#181818;stroke-width:0.5;" x1="1275" x2="1285" y1="161.2969" y2="151.2969"/><line style="stroke:#181818;stroke-width:0.5;" x1="1068" x2="1275" y1="161.2969" y2="161.2969"/><line style="stroke:#181818;stroke-width:0.5;" x1="1275" x2="1275" y1="161.2969" y2="213.5938"/><text fill="#000000" font-family="sans-serif" font-size="14" lengthAdjust="spacing" textLength="161" x="1091" y="192.292">move_base_nav_switch</text></g><!--MD5=[e4b89f7ae3b87a2aebf958aeef066cc9]
entity MOVE_BASE_NAV.READ_ODOM--><g id="elem_MOVE_BASE_NAV.READ_ODOM"><polygon fill="#F1F1F1" points="1320,161.2969,1330,151.2969,1451,151.2969,1451,203.5938,1441,213.5938,1320,213.5938,1320,161.2969" style="stroke:#181818;stroke-width:0.5;"/><line style="stroke:#181818;stroke-width:0.5;" x1="1441" x2="1451" y1="161.2969" y2="151.2969"/><line style="stroke:#181818;stroke-width:0.5;" x1="1320" x2="1441" y1="161.2969" y2="161.2969"/><line style="stroke:#181818;stroke-width:0.5;" x1="1441" x2="1441" y1="161.2969" y2="213.5938"/><text fill="#000000" font-family="sans-serif" font-size="14" lengthAdjust="spacing" textLength="75" x="1343" y="192.292">clbk_odom</text></g><!--MD5=[9c0f7ecf381f88014a7ea481e5efb054]
entity TOPIC_ODOM--><g id="elem_TOPIC_ODOM"><ellipse cx="1895.5" cy="441.2969" fill="#F1F1F1" rx="8" ry="8" style="stroke:#181818;stroke-width:0.5;"/><text fill="#000000" font-family="sans-serif" font-size="14" lengthAdjust="spacing" textLength="45" x="1873" y="479.292">/odom</text></g><!--MD5=[a29493d5c3d449fd805f8038216f6f38]
entity TOPIC_VEL--><g id="elem_TOPIC_VEL"><ellipse cx="36.5" cy="441.2969" fill="#F1F1F1" rx="8" ry="8" style="stroke:#181818;stroke-width:0.5;"/><text fill="#000000" font-family="sans-serif" font-size="14" lengthAdjust="spacing" textLength="61" x="6" y="479.292">/cmd_vel</text></g><!--MD5=[5f76c7c8f098306226c4896f803538f7]
entity TOPIC_MOVE_BASE_GOAL--><g id="elem_TOPIC_MOVE_BASE_GOAL"><ellipse cx="294.5" cy="441.2969" fill="#F1F1F1" rx="8" ry="8" style="stroke:#181818;stroke-width:0.5;"/><text fill="#000000" font-family="sans-serif" font-size="14" lengthAdjust="spacing" textLength="118" x="235.5" y="479.292">/move_base/goal</text></g><!--MD5=[fed9efc106039e65771e2b561972d852]
entity TOPIC_MOVE_BASE_CANCEL--><g id="elem_TOPIC_MOVE_BASE_CANCEL"><ellipse cx="668.5" cy="441.2969" fill="#F1F1F1" rx="8" ry="8" style="stroke:#181818;stroke-width:0.5;"/><text fill="#000000" font-family="sans-serif" font-size="14" lengthAdjust="spacing" textLength="134" x="601.5" y="479.292">/move_base/cancel</text></g><!--MD5=[b87ffea39230279ef1f7e397cf84b392]
entity SRV_MOVE_BASE_NAV_SWITCH--><g id="elem_SRV_MOVE_BASE_NAV_SWITCH"><ellipse cx="1711.5" cy="441.2969" fill="#F1F1F1" rx="8" ry="8" style="stroke:#181818;stroke-width:0.5;"/><text fill="#000000" font-family="sans-serif" font-size="14" lengthAdjust="spacing" textLength="124" x="1649.5" y="479.292">/nav_stack_switch</text></g><!--MD5=[f55e2e28c75719e0f19d6add3c23b196]
entity SRV_MOVE_BASE_NAV_SIGNAL--><g id="elem_SRV_MOVE_BASE_NAV_SIGNAL"><ellipse cx="928.5" cy="441.2969" fill="#F1F1F1" rx="8" ry="8" style="stroke:#181818;stroke-width:0.5;"/><text fill="#000000" font-family="sans-serif" font-size="14" lengthAdjust="spacing" textLength="120" x="868.5" y="479.292">/nav_stack_signal</text></g><!--MD5=[ce0550ece9e8498f5b487be6600f7375]
entity SRV_HEAD_ORIENT_SWITCH--><g id="elem_SRV_HEAD_ORIENT_SWITCH"><ellipse cx="1136.5" cy="441.2969" fill="#F1F1F1" rx="8" ry="8" style="stroke:#181818;stroke-width:0.5;"/><text fill="#000000" font-family="sans-serif" font-size="14" lengthAdjust="spacing" textLength="138" x="1067.5" y="479.292">/head_orient_switch</text></g><!--MD5=[04763481c05e06653c8598e3b8874b89]
reverse link MOVE_BASE_NAV to PARAMETERS--><g id="link_MOVE_BASE_NAV_PARAMETERS"><path d="M1039.3123,237.3121 C1039.7243,238.1935 1040.1579,239.0629 1040.6141,239.9181 C1041.5266,241.6285 1042.5296,243.282 1043.6317,244.8609 C1045.8359,248.0188 1048.4363,250.8781 1051.5,253.2969 C1074.27,271.2769 1292.3,240.4669 1312.5,261.2969 C1328.28,277.5669 1326.73,294.6569 1312.5,312.2969 C1301.93,325.3869 1287.06,308.0769 1275.5,320.2969 C1273.2175,322.7106 1271.1439,325.2816 1269.2623,327.9813 C1268.3214,329.3312 1267.4286,330.7132 1266.5815,332.1239 C1266.158,332.8292 1265.7459,333.5417 1265.3451,334.2609 C1265.1446,334.6205 1264.947,334.9818 1264.7521,335.3447 C1264.6547,335.5262 1264.558,335.708 1264.4619,335.8903 " fill="none" id="MOVE_BASE_NAV-backto-PARAMETERS" style="stroke:#181818;stroke-width:1.0;"/><polygon fill="#181818" points="1039.3123,237.3121,1039.4996,247.1592,1041.4295,241.8417,1046.747,243.7717,1039.3123,237.3121" style="stroke:#181818;stroke-width:1.0;"/><text fill="#000000" font-family="sans-serif" font-size="13" lengthAdjust="spacing" textLength="21" x="1030.8699" y="171.3981">get</text></g><!--MD5=[9cc0349f95736d8df3fe0338ec5fc4cb]
reverse link MOVE_BASE_NAV.READ_ODOM to TOPIC_ODOM--><g id="link_MOVE_BASE_NAV.READ_ODOM_TOPIC_ODOM"><path codeLine="23" d="M1456.59,185.5669 C1573.79,190.8069 1800.2,207.7669 1856.5,261.2969 C1906.29,308.6369 1899.82,403.5269 1896.59,432.0169 " fill="none" id="MOVE_BASE_NAV.READ_ODOM-backto-TOPIC_ODOM" style="stroke:#181818;stroke-width:1.0;"/><polygon fill="#181818" points="1451.44,185.3369,1460.2605,189.7186,1456.4354,185.551,1460.603,181.7259,1451.44,185.3369" style="stroke:#181818;stroke-width:1.0;"/><path d="M1891.5,266.2969 L1891.5,307.2969 L2093.5,307.2969 L2093.5,276.2969 L2083.5,266.2969 L1891.5,266.2969 " fill="#FEFFDD" style="stroke:#181818;stroke-width:0.5;"/><path d="M2083.5,266.2969 L2083.5,276.2969 L2093.5,276.2969 L2083.5,266.2969 " fill="#FEFFDD" style="stroke:#181818;stroke-width:0.5;"/><text fill="#000000" font-family="sans-serif" font-size="13" lengthAdjust="spacing" textLength="165" x="1905.5" y="291.3638">nav_msgs/Odometry.msg</text><text fill="#000000" font-family="sans-serif" font-size="13" lengthAdjust="spacing" textLength="23" x="1467.0495" y="173.2867">sub</text></g><!--MD5=[f8537d44f1fdea604087a8f73091d434]
link MOVE_BASE_NAV to TOPIC_VEL--><g id="link_MOVE_BASE_NAV_TOPIC_VEL"><path codeLine="27" d="M1023.8046,183.3561 C1023.4259,183.359 1023.0353,183.3621 1022.633,183.3653 C1021.8283,183.3717 1020.9766,183.3786 1020.0785,183.386 C1012.8942,183.4455 1002.7478,183.54 990.0444,183.6846 C964.6375,183.974 929.0025,184.4642 886.38,185.2778 C801.135,186.905 687.94,189.8256 572.72,195.0194 C342.28,205.4069 103.74,224.8869 64.5,261.2969 C17.42,304.9869 27.63,392.8569 33.69,426.6369 " fill="none" id="MOVE_BASE_NAV-to-TOPIC_VEL" style="stroke:#181818;stroke-width:1.0;"/><polygon fill="#181818" points="34.69,431.9369,36.9494,422.3507,33.7617,427.0238,29.0885,423.836,34.69,431.9369" style="stroke:#181818;stroke-width:1.0;"/><path d="M69.5,266.2969 L69.5,307.2969 L277.5,307.2969 L277.5,276.2969 L267.5,266.2969 L69.5,266.2969 " fill="#FEFFDD" style="stroke:#181818;stroke-width:0.5;"/><path d="M267.5,266.2969 L267.5,276.2969 L277.5,276.2969 L267.5,266.2969 " fill="#FEFFDD" style="stroke:#181818;stroke-width:0.5;"/><text fill="#000000" font-family="sans-serif" font-size="13" lengthAdjust="spacing" textLength="171" x="83.5" y="291.3638">geometry_msgs/Twist.msg</text><text fill="#000000" font-family="sans-serif" font-size="13" lengthAdjust="spacing" textLength="24" x="1000.34" y="172.3638">pub</text></g><!--MD5=[a19dbef3c35df7478e5c6d7f6fbc4cbb]
link MOVE_BASE_NAV to TOPIC_MOVE_BASE_GOAL--><g id="link_MOVE_BASE_NAV_TOPIC_MOVE_BASE_GOAL"><path codeLine="31" d="M1024.2768,183.585 C1023.9617,183.5965 1023.638,183.6083 1023.3057,183.6205 C1017.9887,183.8153 1010.4795,184.0979 1001.0784,184.4713 C982.2763,185.2181 955.9063,186.3278 924.37,187.8231 C861.2975,190.8138 777.56,195.3469 692.37,201.6044 C521.99,214.1194 345.8,233.5319 317.5,261.2969 C271.83,306.0969 284.38,393.3069 291.33,426.7769 " fill="none" id="MOVE_BASE_NAV-to-TOPIC_MOVE_BASE_GOAL" style="stroke:#181818;stroke-width:1.0;"/><polygon fill="#181818" points="292.47,432.0269,294.4762,422.3845,291.4126,427.14,286.6571,424.0764,292.47,432.0269" style="stroke:#181818;stroke-width:1.0;"/><path d="M322.5,266.2969 L322.5,307.2969 L646.5,307.2969 L646.5,276.2969 L636.5,266.2969 L322.5,266.2969 " fill="#FEFFDD" style="stroke:#181818;stroke-width:0.5;"/><path d="M636.5,266.2969 L636.5,276.2969 L646.5,276.2969 L636.5,266.2969 " fill="#FEFFDD" style="stroke:#181818;stroke-width:0.5;"/><text fill="#000000" font-family="sans-serif" font-size="13" lengthAdjust="spacing" textLength="287" x="336.5" y="291.3638">move_base_msgs/MoveBaseActionGoal.msg</text><text fill="#000000" font-family="sans-serif" font-size="13" lengthAdjust="spacing" textLength="24" x="1000.38" y="203.3638">pub</text></g><!--MD5=[da592faeaf6e9f5ce5b1377e02236cbd]
link MOVE_BASE_NAV to TOPIC_MOVE_BASE_CANCEL--><g id="link_MOVE_BASE_NAV_TOPIC_MOVE_BASE_CANCEL"><path codeLine="35" d="M1023.9775,183.8629 C1022.2868,183.9821 1020.3624,184.1208 1018.2207,184.2798 C1009.6537,184.9157 997.6084,185.8754 983.1211,187.2058 C954.1466,189.8666 915.4044,194.01 875.1863,200.0106 C794.75,212.0119 708.41,231.4419 682.5,261.2969 C640.78,309.3669 656.71,394.6269 664.86,427.1769 " fill="none" id="MOVE_BASE_NAV-to-TOPIC_MOVE_BASE_CANCEL" style="stroke:#181818;stroke-width:1.0;"/><polygon fill="#181818" points="666.19,432.2769,667.7934,422.5594,664.9302,427.4382,660.0514,424.575,666.19,432.2769" style="stroke:#181818;stroke-width:1.0;"/><path d="M687.5,266.2969 L687.5,307.2969 L897.5,307.2969 L897.5,276.2969 L887.5,266.2969 L687.5,266.2969 " fill="#FEFFDD" style="stroke:#181818;stroke-width:0.5;"/><path d="M887.5,266.2969 L887.5,276.2969 L897.5,276.2969 L887.5,266.2969 " fill="#FEFFDD" style="stroke:#181818;stroke-width:0.5;"/><text fill="#000000" font-family="sans-serif" font-size="13" lengthAdjust="spacing" textLength="173" x="701.5" y="291.3638">actionlib_msgs/GoalID.msg</text><text fill="#000000" font-family="sans-serif" font-size="13" lengthAdjust="spacing" textLength="24" x="1027.6573" y="205.0569">pub</text></g><!--MD5=[57b92e13d3f46b5c771147ad763ee43d]
link MOVE_BASE_NAV.SWITCH to SRV_MOVE_BASE_NAV_SWITCH--><g id="link_MOVE_BASE_NAV.SWITCH_SRV_MOVE_BASE_NAV_SWITCH"><path codeLine="39" d="M1222.39,213.3869 C1245.58,227.3769 1274.64,243.1269 1302.5,253.2969 C1319.94,259.6569 1325.34,257.4469 1343.5,261.2969 C1458.57,285.6769 1499.82,261.1569 1601.5,320.2969 C1649.11,347.9869 1687.97,403.0569 1703.82,427.7769 " fill="none" id="MOVE_BASE_NAV.SWITCH-to-SRV_MOVE_BASE_NAV_SWITCH" style="stroke:#181818;stroke-width:1.0;"/><polygon fill="#181818" points="1706.51,432.0269,1705.0848,422.2817,1703.8395,427.7998,1698.3214,426.5545,1706.51,432.0269" style="stroke:#181818;stroke-width:1.0;"/><path d="M1588.5,266.2969 L1588.5,307.2969 L1755.5,307.2969 L1755.5,276.2969 L1745.5,266.2969 L1588.5,266.2969 " fill="#FEFFDD" style="stroke:#181818;stroke-width:0.5;"/><path d="M1745.5,266.2969 L1745.5,276.2969 L1755.5,276.2969 L1745.5,266.2969 " fill="#FEFFDD" style="stroke:#181818;stroke-width:0.5;"/><text fill="#000000" font-family="sans-serif" font-size="13" lengthAdjust="spacing" textLength="130" x="1602.5" y="291.3638">std_srvs/SetBool.srv</text><text fill="#000000" font-family="sans-serif" font-size="13" lengthAdjust="spacing" textLength="19" x="1200.447" y="241.738">srv</text></g><!--MD5=[20ac9376cb9d212fa9c7cd384daea494]
reverse link MOVE_BASE_NAV to SRV_MOVE_BASE_NAV_SIGNAL--><g id="link_MOVE_BASE_NAV_SRV_MOVE_BASE_NAV_SIGNAL"><path codeLine="43" d="M1024.2219,186.2603 C1024.1205,186.299 1024.0183,186.3382 1023.9153,186.3777 C1022.267,187.0101 1020.4162,187.7402 1018.3941,188.5684 C1010.3056,191.8813 999.4762,196.7631 987.9025,203.2344 C964.755,216.1769 938.63,235.4769 925.5,261.2969 C895.35,320.5869 917.7,405.8369 925.85,432.2069 " fill="none" id="MOVE_BASE_NAV-backto-SRV_MOVE_BASE_NAV_SIGNAL" style="stroke:#181818;stroke-width:1.0;"/><polygon fill="#181818" points="1024.2219,186.2603,1014.387,185.7365,1019.5514,188.0451,1017.2428,193.2095,1024.2219,186.2603" style="stroke:#181818;stroke-width:1.0;"/><path d="M930.5,266.2969 L930.5,307.2969 L1088.5,307.2969 L1088.5,276.2969 L1078.5,266.2969 L930.5,266.2969 " fill="#FEFFDD" style="stroke:#181818;stroke-width:0.5;"/><path d="M1078.5,266.2969 L1078.5,276.2969 L1088.5,276.2969 L1078.5,266.2969 " fill="#FEFFDD" style="stroke:#181818;stroke-width:0.5;"/><text fill="#000000" font-family="sans-serif" font-size="13" lengthAdjust="spacing" textLength="121" x="944.5" y="291.3638">std_srvs/Empty.srv</text><text fill="#000000" font-family="sans-serif" font-size="13" lengthAdjust="spacing" textLength="10" x="902.6659" y="413.1503">cl</text></g><!--MD5=[e81c743949dd66c2321014657d46feab]
reverse link MOVE_BASE_NAV to SRV_HEAD_ORIENT_SWITCH--><g id="link_MOVE_BASE_NAV_SRV_HEAD_ORIENT_SWITCH"><path codeLine="47" d="M1040.1984,237.2974 C1040.3006,237.5202 1040.4042,237.7425 1040.5089,237.964 C1040.7185,238.4071 1040.9331,238.8474 1041.1529,239.2848 C1042.0321,241.0344 1042.9939,242.7363 1044.046,244.3741 C1046.1502,247.6495 1048.615,250.6681 1051.5,253.2969 C1066.84,267.2769 1082.52,246.9369 1097.5,261.2969 C1147.1,308.8369 1140.76,403.5869 1137.57,432.0369 " fill="none" id="MOVE_BASE_NAV-backto-SRV_HEAD_ORIENT_SWITCH" style="stroke:#181818;stroke-width:1.0;"/><polygon fill="#181818" points="1040.1984,237.2974,1040.3164,247.1455,1042.2837,241.8418,1047.5874,243.809,1040.1984,237.2974" style="stroke:#181818;stroke-width:1.0;"/><path d="M1132.5,266.2969 L1132.5,307.2969 L1299.5,307.2969 L1299.5,276.2969 L1289.5,266.2969 L1132.5,266.2969 " fill="#FEFFDD" style="stroke:#181818;stroke-width:0.5;"/><path d="M1289.5,266.2969 L1289.5,276.2969 L1299.5,276.2969 L1289.5,266.2969 " fill="#FEFFDD" style="stroke:#181818;stroke-width:0.5;"/><text fill="#000000" font-family="sans-serif" font-size="13" lengthAdjust="spacing" textLength="130" x="1146.5" y="291.3638">std_srvs/SetBool.srv</text><text fill="#000000" font-family="sans-serif" font-size="13" lengthAdjust="spacing" textLength="10" x="1115.7673" y="413.2327">cl</text></g><!--MD5=[ec5791f6098e147454cbfdc1815e62f6]
@startuml

''' INFOS
title NODE move_base_nav
skinparam Padding 8
allow_mixing


''' COMPONENTS
database "ROS parameter server" as PARAMETERS {
	node "des_pos_x"
	node "des_pos_y"
}

component "move_base_nav" <<ROSPy node>> as MOVE_BASE_NAV {
	node "move_base_nav_switch" as MOVE_BASE_NAV.SWITCH
	node "clbk_odom" as MOVE_BASE_NAV.READ_ODOM
	
}

MOVE_BASE_NAV "get" <- - PARAMETERS

() "/odom" as TOPIC_ODOM
MOVE_BASE_NAV.READ_ODOM "sub" <- - TOPIC_ODOM
note on link: nav_msgs/Odometry.msg

() "/cmd_vel" as TOPIC_VEL
MOVE_BASE_NAV "pub" - -> TOPIC_VEL
note on link: geometry_msgs/Twist.msg

() "/move_base/goal" as TOPIC_MOVE_BASE_GOAL
MOVE_BASE_NAV "pub" - -> TOPIC_MOVE_BASE_GOAL
note on link: move_base_msgs/MoveBaseActionGoal.msg

() "/move_base/cancel" as TOPIC_MOVE_BASE_CANCEL
MOVE_BASE_NAV "pub" - -> TOPIC_MOVE_BASE_CANCEL
note on link: actionlib_msgs/GoalID.msg

() "/nav_stack_switch" as SRV_MOVE_BASE_NAV_SWITCH
MOVE_BASE_NAV.SWITCH "srv" - -> SRV_MOVE_BASE_NAV_SWITCH
note on link: std_srvs/SetBool.srv

() "/nav_stack_signal" as SRV_MOVE_BASE_NAV_SIGNAL
MOVE_BASE_NAV <- - "cl" SRV_MOVE_BASE_NAV_SIGNAL
note on link: std_srvs/Empty.srv

() "/head_orient_switch" as SRV_HEAD_ORIENT_SWITCH
MOVE_BASE_NAV <- - "cl" SRV_HEAD_ORIENT_SWITCH
note on link: std_srvs/SetBool.srv

@enduml

@startuml

title NODE move_base_nav
skinparam Padding 8
allow_mixing


database "ROS parameter server" as PARAMETERS {
	node "des_pos_x"
	node "des_pos_y"
}

component "move_base_nav" <<ROSPy node>> as MOVE_BASE_NAV {
	node "move_base_nav_switch" as MOVE_BASE_NAV.SWITCH
	node "clbk_odom" as MOVE_BASE_NAV.READ_ODOM
	
}

MOVE_BASE_NAV "get" <- - PARAMETERS

() "/odom" as TOPIC_ODOM
MOVE_BASE_NAV.READ_ODOM "sub" <- - TOPIC_ODOM
note on link: nav_msgs/Odometry.msg

() "/cmd_vel" as TOPIC_VEL
MOVE_BASE_NAV "pub" - -> TOPIC_VEL
note on link: geometry_msgs/Twist.msg

() "/move_base/goal" as TOPIC_MOVE_BASE_GOAL
MOVE_BASE_NAV "pub" - -> TOPIC_MOVE_BASE_GOAL
note on link: move_base_msgs/MoveBaseActionGoal.msg

() "/move_base/cancel" as TOPIC_MOVE_BASE_CANCEL
MOVE_BASE_NAV "pub" - -> TOPIC_MOVE_BASE_CANCEL
note on link: actionlib_msgs/GoalID.msg

() "/nav_stack_switch" as SRV_MOVE_BASE_NAV_SWITCH
MOVE_BASE_NAV.SWITCH "srv" - -> SRV_MOVE_BASE_NAV_SWITCH
note on link: std_srvs/SetBool.srv

() "/nav_stack_signal" as SRV_MOVE_BASE_NAV_SIGNAL
MOVE_BASE_NAV <- - "cl" SRV_MOVE_BASE_NAV_SIGNAL
note on link: std_srvs/Empty.srv

() "/head_orient_switch" as SRV_HEAD_ORIENT_SWITCH
MOVE_BASE_NAV <- - "cl" SRV_HEAD_ORIENT_SWITCH
note on link: std_srvs/SetBool.srv

@enduml

PlantUML version 1.2022.6(Tue Jun 21 17:34:49 UTC 2022)
(GPL source distribution)
Java Runtime: Java(TM) SE Runtime Environment
JVM: Java HotSpot(TM) 64-Bit Server VM
Default Encoding: UTF-8
Language: en
Country: US
--></g></svg>