<?xml version="1.0" encoding="UTF-8" standalone="no"?><svg xmlns="http://www.w3.org/2000/svg" xmlns:xlink="http://www.w3.org/1999/xlink" contentStyleType="text/css" height="540px" preserveAspectRatio="none" style="width:995px;height:540px;background:#FFFFFF;" version="1.1" viewBox="0 0 995 540" width="995px" zoomAndPan="magnify"><defs/><g><rect height="42.2969" style="stroke:#00000000;stroke-width:1.0;fill:none;" width="241" x="370" y="5"/><text fill="#000000" font-family="sans-serif" font-size="14" font-weight="bold" lengthAdjust="spacing" textLength="215" x="383" y="30.9951">package robocluedo_armor</text><!--MD5=[51fff5a33012d4f83ee477d5dd863653]
cluster aRMOR--><g id="cluster_aRMOR"><path d="M8.5,371.2969 L79.5,371.2969 A3.75,3.75 0 0 1 82,373.7969 L89,409.5938 L345.5,409.5938 A2.5,2.5 0 0 1 348,412.0938 L348,530.7969 A2.5,2.5 0 0 1 345.5,533.2969 L8.5,533.2969 A2.5,2.5 0 0 1 6,530.7969 L6,373.7969 A2.5,2.5 0 0 1 8.5,371.2969 " style="stroke:#000000;stroke-width:1.5;fill:none;"/><line style="stroke:#000000;stroke-width:1.5;fill:none;" x1="6" x2="89" y1="409.5938" y2="409.5938"/><text fill="#000000" font-family="sans-serif" font-size="14" font-weight="bold" lengthAdjust="spacing" textLength="54" x="18" y="394.292">aRMOR</text></g><!--MD5=[22f576cefb7236027edb184aeee74c18]
cluster aRMOR tools--><g id="cluster_aRMOR tools"><path d="M374.5,59.2969 L489.5,59.2969 A3.75,3.75 0 0 1 492,61.7969 L499,97.5938 L573.5,97.5938 A2.5,2.5 0 0 1 576,100.0938 L576,512.2969 A2.5,2.5 0 0 1 573.5,514.7969 L374.5,514.7969 A2.5,2.5 0 0 1 372,512.2969 L372,61.7969 A2.5,2.5 0 0 1 374.5,59.2969 " style="stroke:#000000;stroke-width:1.5;fill:none;"/><line style="stroke:#000000;stroke-width:1.5;fill:none;" x1="372" x2="499" y1="97.5938" y2="97.5938"/><text fill="#000000" font-family="sans-serif" font-size="14" font-weight="bold" lengthAdjust="spacing" textLength="98" x="384" y="82.292">aRMOR tools</text></g><!--MD5=[0a26546800125744b8c45768ed14cc1a]
entity A_KB--><g id="elem_A_KB"><path d="M22,432.7969 C22,422.7969 97,422.7969 97,422.7969 C97,422.7969 172,422.7969 172,432.7969 L172,506.3906 C172,516.3906 97,516.3906 97,516.3906 C97,516.3906 22,516.3906 22,506.3906 L22,432.7969 " fill="#F1F1F1" style="stroke:#181818;stroke-width:0.5;"/><path d="M22,432.7969 C22,442.7969 97,442.7969 97,442.7969 C97,442.7969 172,442.7969 172,432.7969 " fill="none" style="stroke:#181818;stroke-width:0.5;"/><text fill="#000000" font-family="sans-serif" font-size="14" font-style="italic" lengthAdjust="spacing" textLength="69" x="62.5" y="467.792">«aRMOR»</text><text fill="#000000" font-family="sans-serif" font-size="14" lengthAdjust="spacing" textLength="114" x="40" y="500.0889">knowledge base</text></g><!--MD5=[7b489433cd2a3f17ce685c34996ac952]
entity A_SRV--><g id="elem_A_SRV"><rect fill="#F1F1F1" height="94.5938" rx="2.5" ry="2.5" style="stroke:#181818;stroke-width:0.5;" width="125" x="206.5" y="422.2969"/><rect fill="#F1F1F1" height="10" style="stroke:#181818;stroke-width:0.5;" width="15" x="311.5" y="427.2969"/><rect fill="#F1F1F1" height="2" style="stroke:#181818;stroke-width:0.5;" width="4" x="309.5" y="429.2969"/><rect fill="#F1F1F1" height="2" style="stroke:#181818;stroke-width:0.5;" width="4" x="309.5" y="433.2969"/><text fill="#000000" font-family="sans-serif" font-size="14" font-style="italic" lengthAdjust="spacing" textLength="69" x="229.5" y="463.292">«aRMOR»</text><text fill="#000000" font-family="sans-serif" font-size="14" lengthAdjust="spacing" textLength="57" x="235.5" y="495.5889">services</text></g><!--MD5=[4a6804c012b9d48f6e64e9f617d44342]
class A_TOOLS--><g id="elem_A_TOOLS"><rect codeLine="15" fill="#F1F1F1" height="58.2969" id="A_TOOLS" rx="2.5" ry="2.5" style="stroke:#181818;stroke-width:0.5;" width="137" x="393.5" y="440.7969"/><ellipse cx="408.5" cy="461.9453" fill="#ADD1B2" rx="11" ry="11" style="stroke:#181818;stroke-width:1.0;"/><path d="M411.4688,467.5859 Q410.8906,467.8828 410.25,468.0313 Q409.6094,468.1797 408.9063,468.1797 Q406.4063,468.1797 405.0859,466.5313 Q403.7656,464.8828 403.7656,461.7578 Q403.7656,458.6328 405.0859,456.9766 Q406.4063,455.3203 408.9063,455.3203 Q409.6094,455.3203 410.2578,455.4766 Q410.9063,455.6328 411.4688,455.9297 L411.4688,458.6484 Q410.8438,458.0703 410.25,457.7969 Q409.6563,457.5234 409.0313,457.5234 Q407.6875,457.5234 407,458.5938 Q406.3125,459.6641 406.3125,461.7578 Q406.3125,463.8516 407,464.9219 Q407.6875,465.9922 409.0313,465.9922 Q409.6563,465.9922 410.25,465.7188 Q410.8438,465.4453 411.4688,464.8672 L411.4688,467.5859 Z " fill="#000000"/><text fill="#000000" font-family="sans-serif" font-size="14" lengthAdjust="spacing" textLength="89" x="430.5" y="466.792">aRMOR tools</text><line style="stroke:#181818;stroke-width:0.5;" x1="394.5" x2="529.5" y1="483.0938" y2="483.0938"/><line style="stroke:#181818;stroke-width:0.5;" x1="394.5" x2="529.5" y1="491.0938" y2="491.0938"/></g><!--MD5=[497185c61b5d529ea25aa6b1793e14ef]
class A_CLUEDO--><g id="elem_A_CLUEDO"><rect codeLine="16" fill="#F1F1F1" height="58.2969" id="A_CLUEDO" rx="2.5" ry="2.5" style="stroke:#181818;stroke-width:0.5;" width="150" x="393" y="281.2969"/><ellipse cx="408" cy="302.4453" fill="#ADD1B2" rx="11" ry="11" style="stroke:#181818;stroke-width:1.0;"/><path d="M410.9688,308.0859 Q410.3906,308.3828 409.75,308.5313 Q409.1094,308.6797 408.4063,308.6797 Q405.9063,308.6797 404.5859,307.0313 Q403.2656,305.3828 403.2656,302.2578 Q403.2656,299.1328 404.5859,297.4766 Q405.9063,295.8203 408.4063,295.8203 Q409.1094,295.8203 409.7578,295.9766 Q410.4063,296.1328 410.9688,296.4297 L410.9688,299.1484 Q410.3438,298.5703 409.75,298.2969 Q409.1563,298.0234 408.5313,298.0234 Q407.1875,298.0234 406.5,299.0938 Q405.8125,300.1641 405.8125,302.2578 Q405.8125,304.3516 406.5,305.4219 Q407.1875,306.4922 408.5313,306.4922 Q409.1563,306.4922 409.75,306.2188 Q410.3438,305.9453 410.9688,305.3672 L410.9688,308.0859 Z " fill="#000000"/><text fill="#000000" font-family="sans-serif" font-size="14" lengthAdjust="spacing" textLength="102" x="430" y="307.292">aRMOR cluedo</text><line style="stroke:#181818;stroke-width:0.5;" x1="394" x2="542" y1="323.5938" y2="323.5938"/><line style="stroke:#181818;stroke-width:0.5;" x1="394" x2="542" y1="331.5938" y2="331.5938"/></g><!--MD5=[2225bc70dd83aad45d6086ccffc81570]
entity A_NODE--><g id="elem_A_NODE"><rect fill="#F1F1F1" height="94.5938" rx="2.5" ry="2.5" style="stroke:#181818;stroke-width:0.5;" width="171" x="388.5" y="110.2969"/><rect fill="#F1F1F1" height="10" style="stroke:#181818;stroke-width:0.5;" width="15" x="539.5" y="115.2969"/><rect fill="#F1F1F1" height="2" style="stroke:#181818;stroke-width:0.5;" width="4" x="537.5" y="117.2969"/><rect fill="#F1F1F1" height="2" style="stroke:#181818;stroke-width:0.5;" width="4" x="537.5" y="121.2969"/><text fill="#000000" font-family="sans-serif" font-size="14" font-style="italic" lengthAdjust="spacing" textLength="88" x="425" y="151.292">«ROS node»</text><text fill="#000000" font-family="sans-serif" font-size="14" lengthAdjust="spacing" textLength="115" x="411.5" y="183.5889">aRMOR interface</text></g><!--MD5=[de4e6fd72653c84560cf5073d151a5c3]
entity SRV_ADD--><g id="elem_SRV_ADD"><ellipse cx="636" cy="310.2969" fill="#F1F1F1" rx="8" ry="8" style="stroke:#181818;stroke-width:0.5;"/><text fill="#000000" font-family="sans-serif" font-size="14" lengthAdjust="spacing" textLength="56" x="608" y="348.292">add hint</text></g><!--MD5=[76a75b026aabf67f8f961dfc42a1fdb1]
entity SRV_DELETE--><g id="elem_SRV_DELETE"><ellipse cx="786" cy="310.2969" fill="#F1F1F1" rx="8" ry="8" style="stroke:#181818;stroke-width:0.5;"/><text fill="#000000" font-family="sans-serif" font-size="14" lengthAdjust="spacing" textLength="111" x="730.5" y="348.292">mark wrong hint</text></g><!--MD5=[22508d1cbf7236391ed5283cdab73099]
entity SRV_GET--><g id="elem_SRV_GET"><ellipse cx="948" cy="310.2969" fill="#F1F1F1" rx="8" ry="8" style="stroke:#181818;stroke-width:0.5;"/><text fill="#000000" font-family="sans-serif" font-size="14" lengthAdjust="spacing" textLength="80" x="908" y="348.292">check hints</text></g><!--MD5=[37579e7b7586953de5d8955b3bb7aa8e]
link A_KB to A_SRV--><g id="link_A_KB_A_SRV"><path codeLine="11" d="M172.25,469.7969 C183.59,469.7969 194.93,469.7969 206.26,469.7969 " fill="none" id="A_KB-A_SRV" style="stroke:#181818;stroke-width:1.0;"/></g><!--MD5=[6d1ba091aa99892b004b67bf37b2c9aa]
reverse link A_CLUEDO to A_TOOLS--><g id="link_A_CLUEDO_A_TOOLS"><path codeLine="17" d="M466.16,359.7069 C465.15,386.2269 463.93,418.1769 463.07,440.6169 " fill="none" id="A_CLUEDO-backto-A_TOOLS" style="stroke:#181818;stroke-width:1.0;"/><polygon fill="none" points="459.17,359.1769,466.93,339.4569,473.16,359.7069,459.17,359.1769" style="stroke:#181818;stroke-width:1.0;"/></g><!--MD5=[290265b1421f78f4f410b285726d23e9]
reverse link A_NODE to A_CLUEDO--><g id="link_A_NODE_A_CLUEDO"><path codeLine="19" d="M471.33,225.7169 C470.56,245.1269 469.75,265.2869 469.13,280.9469 " fill="none" id="A_NODE-backto-A_CLUEDO" style="stroke:#181818;stroke-width:1.0;"/><polygon fill="none" points="464.34,225.2969,472.13,205.5869,478.33,225.8569,464.34,225.2969" style="stroke:#181818;stroke-width:1.0;"/></g><!--MD5=[f5af136f50a9770d1e7fd5f3a0fe4ebc]
link A_SRV to A_TOOLS--><g id="link_A_SRV_A_TOOLS"><path codeLine="27" d="M331.57,501.0169 C355.04,507.1069 378.5,506.8769 401.97,500.3369 " fill="none" id="A_SRV-to-A_TOOLS" style="stroke:#181818;stroke-width:1.0;"/><polygon fill="#181818" points="406.98,498.8369,397.2119,497.5783,402.1889,500.2671,399.5002,505.2441,406.98,498.8369" style="stroke:#181818;stroke-width:1.0;"/></g><!--MD5=[895a7c61edf59bd90b06ca5015e7c537]
link A_NODE to SRV_ADD--><g id="link_A_NODE_SRV_ADD"><path codeLine="28" d="M524.37,205.5869 C559.03,237.7869 602.46,278.1369 623.47,297.6569 " fill="none" id="A_NODE-to-SRV_ADD" style="stroke:#181818;stroke-width:1.0;"/><polygon fill="#181818" points="627.36,301.2669,623.4921,292.2093,623.6981,297.8624,618.045,298.0684,627.36,301.2669" style="stroke:#181818;stroke-width:1.0;"/></g><!--MD5=[b222fcf55b18b4fbeec0b00aadf03fbd]
link A_NODE to SRV_DELETE--><g id="link_A_NODE_SRV_DELETE"><path codeLine="29" d="M559.55,198.9869 C601.39,218.7569 652.43,243.0769 698,265.2969 C724.38,278.1669 755,293.5869 772.28,302.3269 " fill="none" id="A_NODE-to-SRV_DELETE" style="stroke:#181818;stroke-width:1.0;"/><polygon fill="#181818" points="776.78,304.6169,770.5481,296.9903,772.3165,302.3637,766.9431,304.132,776.78,304.6169" style="stroke:#181818;stroke-width:1.0;"/></g><!--MD5=[aaeee99635b2c37f7f2a7cf45dcd3ead]
link A_NODE to SRV_GET--><g id="link_A_NODE_SRV_GET"><path codeLine="30" d="M559.63,174.2169 C642.43,190.8069 770.38,220.9369 875,265.2969 C896.98,274.6169 920.24,289.6569 934.45,299.5169 " fill="none" id="A_NODE-to-SRV_GET" style="stroke:#181818;stroke-width:1.0;"/><polygon fill="#181818" points="938.55,302.3969,933.4727,293.9576,934.4545,299.5286,928.8835,300.5104,938.55,302.3969" style="stroke:#181818;stroke-width:1.0;"/></g><!--MD5=[1b83431ace4c51d47ecfc17fee8817ef]
@startuml

''' INFOS
title package robocluedo_armor
skinparam Padding 8
allow_mixing

''' COMPONENTS
package "aRMOR" {
	database "knowledge base" <<aRMOR>> as A_KB
	component "services" <<aRMOR>> as A_SRV
	A_KB -right- A_SRV
}

package "aRMOR tools" {
	class "aRMOR tools" as A_TOOLS 
	class "aRMOR cluedo" as A_CLUEDO 
	A_TOOLS -up-|> A_CLUEDO
	component "aRMOR interface" <<ROS node>> as A_NODE
	A_CLUEDO -up-|> A_NODE
}

() "add hint" as SRV_ADD
() "mark wrong hint" as SRV_DELETE
() "check hints" as SRV_GET

''' CONNECTIONS
A_SRV -right-> A_TOOLS
A_NODE - -> SRV_ADD
A_NODE - -> SRV_DELETE
A_NODE - -> SRV_GET

@enduml

@startuml

title package robocluedo_armor
skinparam Padding 8
allow_mixing

package "aRMOR" {
	database "knowledge base" <<aRMOR>> as A_KB
	component "services" <<aRMOR>> as A_SRV
	A_KB -right- A_SRV
}

package "aRMOR tools" {
	class "aRMOR tools" as A_TOOLS 
	class "aRMOR cluedo" as A_CLUEDO 
	A_TOOLS -up-|> A_CLUEDO
	component "aRMOR interface" <<ROS node>> as A_NODE
	A_CLUEDO -up-|> A_NODE
}

() "add hint" as SRV_ADD
() "mark wrong hint" as SRV_DELETE
() "check hints" as SRV_GET

A_SRV -right-> A_TOOLS
A_NODE - -> SRV_ADD
A_NODE - -> SRV_DELETE
A_NODE - -> SRV_GET

@enduml

PlantUML version 1.2022.6(Tue Jun 21 17:34:49 UTC 2022)
(GPL source distribution)
Java Runtime: Java(TM) SE Runtime Environment
JVM: Java HotSpot(TM) 64-Bit Server VM
Default Encoding: UTF-8
Language: en
Country: US
--></g></svg>