<?xml version="1.0" encoding="UTF-8" standalone="no"?><svg xmlns="http://www.w3.org/2000/svg" xmlns:xlink="http://www.w3.org/1999/xlink" contentStyleType="text/css" height="456px" preserveAspectRatio="none" style="width:544px;height:456px;background:#FFFFFF;" version="1.1" viewBox="0 0 544 456" width="544px" zoomAndPan="magnify"><defs/><g><rect height="26.2969" style="stroke:#00000000;stroke-width:1.0;fill:none;" width="466" x="35" y="10"/><text fill="#000000" font-family="sans-serif" font-size="14" font-weight="bold" lengthAdjust="spacing" textLength="456" x="40" y="27.9951">RCL#3 move_base navigation - package temporal diagram</text><line style="stroke:#181818;stroke-width:0.5;stroke-dasharray:5.0,5.0;" x1="44" x2="44" y1="73.5938" y2="420.9219"/><line style="stroke:#181818;stroke-width:0.5;stroke-dasharray:5.0,5.0;" x1="252" x2="252" y1="73.5938" y2="420.9219"/><line style="stroke:#181818;stroke-width:0.5;stroke-dasharray:5.0,5.0;" x1="450" x2="450" y1="73.5938" y2="420.9219"/><rect fill="#E2E2F0" height="30.2969" rx="2.5" ry="2.5" style="stroke:#181818;stroke-width:0.5;" width="79" x="5" y="42.2969"/><text fill="#000000" font-family="sans-serif" font-size="14" lengthAdjust="spacing" textLength="65" x="12" y="62.292">ROSPLAN</text><rect fill="#E2E2F0" height="30.2969" rx="2.5" ry="2.5" style="stroke:#181818;stroke-width:0.5;" width="79" x="5" y="419.9219"/><text fill="#000000" font-family="sans-serif" font-size="14" lengthAdjust="spacing" textLength="65" x="12" y="439.917">ROSPLAN</text><rect fill="#E2E2F0" height="30.2969" rx="2.5" ry="2.5" style="stroke:#181818;stroke-width:0.5;" width="71" x="217" y="42.2969"/><text fill="#000000" font-family="sans-serif" font-size="14" lengthAdjust="spacing" textLength="57" x="224" y="62.292">MISSION</text><rect fill="#E2E2F0" height="30.2969" rx="2.5" ry="2.5" style="stroke:#181818;stroke-width:0.5;" width="71" x="217" y="419.9219"/><text fill="#000000" font-family="sans-serif" font-size="14" lengthAdjust="spacing" textLength="57" x="224" y="439.917">MISSION</text><rect fill="#E2E2F0" height="30.2969" rx="2.5" ry="2.5" style="stroke:#181818;stroke-width:0.5;" width="95" x="403" y="42.2969"/><text fill="#000000" font-family="sans-serif" font-size="14" lengthAdjust="spacing" textLength="81" x="410" y="62.292">MOVEMENT</text><rect fill="#E2E2F0" height="30.2969" rx="2.5" ry="2.5" style="stroke:#181818;stroke-width:0.5;" width="95" x="403" y="419.9219"/><text fill="#000000" font-family="sans-serif" font-size="14" lengthAdjust="spacing" textLength="81" x="410" y="439.917">MOVEMENT</text><rect fill="#EEEEEE" height="3" style="stroke:#EEEEEE;stroke-width:1.0;" width="537" x="0" y="104.1602"/><line style="stroke:#000000;stroke-width:1.0;" x1="0" x2="537" y1="104.1602" y2="104.1602"/><line style="stroke:#000000;stroke-width:1.0;" x1="0" x2="537" y1="107.1602" y2="107.1602"/><rect fill="#EEEEEE" height="23.1328" style="stroke:#000000;stroke-width:2.0;" width="208" x="164.5" y="93.5938"/><text fill="#000000" font-family="sans-serif" font-size="13" font-weight="bold" lengthAdjust="spacing" textLength="189" x="170.5" y="109.6606">First setup (first request)</text><polygon fill="#181818" points="438.5,143.8594,448.5,147.8594,438.5,151.8594,442.5,147.8594" style="stroke:#181818;stroke-width:1.0;"/><line style="stroke:#181818;stroke-width:1.0;" x1="252.5" x2="444.5" y1="147.8594" y2="147.8594"/><text fill="#000000" font-family="sans-serif" font-size="13" lengthAdjust="spacing" textLength="174" x="259.5" y="142.7935">controller selection request</text><polygon fill="#181818" points="263.5,172.9922,253.5,176.9922,263.5,180.9922,259.5,176.9922" style="stroke:#181818;stroke-width:1.0;"/><line style="stroke:#181818;stroke-width:1.0;" x1="257.5" x2="449.5" y1="176.9922" y2="176.9922"/><text fill="#000000" font-family="sans-serif" font-size="13" lengthAdjust="spacing" textLength="96" x="269.5" y="171.9263">controller ID=1</text><polygon fill="#FEFFDD" points="189,189.9922,315,189.9922,325,200.9922,315,212.9922,189,212.9922,179,200.9922,189,189.9922" style="stroke:#181818;stroke-width:0.5;"/><text fill="#000000" font-family="sans-serif" font-size="13" lengthAdjust="spacing" textLength="122" x="191" y="206.0591">waiting for markers</text><rect fill="#EEEEEE" height="3" style="stroke:#EEEEEE;stroke-width:1.0;" width="537" x="0" y="238.6914"/><line style="stroke:#000000;stroke-width:1.0;" x1="0" x2="537" y1="238.6914" y2="238.6914"/><line style="stroke:#000000;stroke-width:1.0;" x1="0" x2="537" y1="241.6914" y2="241.6914"/><rect fill="#EEEEEE" height="23.1328" style="stroke:#000000;stroke-width:2.0;" width="96" x="220.5" y="228.125"/><text fill="#000000" font-family="sans-serif" font-size="13" font-weight="bold" lengthAdjust="spacing" textLength="77" x="226.5" y="244.1919">Movement</text><polygon fill="#181818" points="240.5,278.3906,250.5,282.3906,240.5,286.3906,244.5,282.3906" style="stroke:#181818;stroke-width:1.0;"/><line style="stroke:#181818;stroke-width:1.0;" x1="44.5" x2="246.5" y1="282.3906" y2="282.3906"/><text fill="#000000" font-family="sans-serif" font-size="13" lengthAdjust="spacing" textLength="184" x="51.5" y="277.3247">request from ROSPlan action</text><polygon fill="#181818" points="438.5,307.5234,448.5,311.5234,438.5,315.5234,442.5,311.5234" style="stroke:#181818;stroke-width:1.0;"/><line style="stroke:#181818;stroke-width:1.0;" x1="252.5" x2="444.5" y1="311.5234" y2="311.5234"/><text fill="#000000" font-family="sans-serif" font-size="13" lengthAdjust="spacing" textLength="119" x="259.5" y="306.4575">navigation request</text><polygon fill="#FEFFDD" points="378,324.5234,522,324.5234,532,335.5234,522,347.5234,378,347.5234,368,335.5234,378,324.5234" style="stroke:#181818;stroke-width:0.5;"/><text fill="#000000" font-family="sans-serif" font-size="13" lengthAdjust="spacing" textLength="140" x="380" y="340.5903">performing navigation</text><polygon fill="#181818" points="263.5,369.7891,253.5,373.7891,263.5,377.7891,259.5,373.7891" style="stroke:#181818;stroke-width:1.0;"/><line style="stroke:#181818;stroke-width:1.0;" x1="257.5" x2="449.5" y1="373.7891" y2="373.7891"/><text fill="#000000" font-family="sans-serif" font-size="13" lengthAdjust="spacing" textLength="95" x="269.5" y="368.7231">target reached</text><polygon fill="#181818" points="55.5,398.9219,45.5,402.9219,55.5,406.9219,51.5,402.9219" style="stroke:#181818;stroke-width:1.0;"/><line style="stroke:#181818;stroke-width:1.0;" x1="49.5" x2="251.5" y1="402.9219" y2="402.9219"/><text fill="#000000" font-family="sans-serif" font-size="13" lengthAdjust="spacing" textLength="110" x="61.5" y="397.856">navigation ended</text><!--MD5=[0443428337ab395e3716c1bb3357ad47]
@startuml

title RCL#3 move_base navigation - package temporal diagram

''' ENTITIES 
participant ROSPLAN
participant MISSION
participant MOVEMENT

''' SEQUENCE
' == section ==
' ...
== First setup (first request) ==

MISSION -> MOVEMENT : controller selection request
MISSION <- MOVEMENT : controller ID=1
hnote over MISSION: waiting for markers

== Movement ==

ROSPLAN -> MISSION : request from ROSPlan action
MISSION -> MOVEMENT : navigation request
hnote over MOVEMENT : performing navigation
MISSION <- MOVEMENT : target reached
ROSPLAN <- MISSION : navigation ended

@enduml

@startuml

title RCL#3 move_base navigation - package temporal diagram

participant ROSPLAN
participant MISSION
participant MOVEMENT

== First setup (first request) ==

MISSION -> MOVEMENT : controller selection request
MISSION <- MOVEMENT : controller ID=1
hnote over MISSION: waiting for markers

== Movement ==

ROSPLAN -> MISSION : request from ROSPlan action
MISSION -> MOVEMENT : navigation request
hnote over MOVEMENT : performing navigation
MISSION <- MOVEMENT : target reached
ROSPLAN <- MISSION : navigation ended

@enduml

PlantUML version 1.2022.6(Tue Jun 21 17:34:49 UTC 2022)
(GPL source distribution)
Java Runtime: Java(TM) SE Runtime Environment
JVM: Java HotSpot(TM) 64-Bit Server VM
Default Encoding: UTF-8
Language: en
Country: US
--></g></svg>