<?xml version="1.0" encoding="UTF-8" standalone="no"?><svg xmlns="http://www.w3.org/2000/svg" xmlns:xlink="http://www.w3.org/1999/xlink" contentStyleType="text/css" height="355px" preserveAspectRatio="none" style="width:1763px;height:355px;background:#FFFFFF;" version="1.1" viewBox="0 0 1763 355" width="1763px" zoomAndPan="magnify"><defs/><g><rect height="42.2969" style="stroke:#00000000;stroke-width:1.0;fill:none;" width="310" x="719.75" y="5"/><text fill="#000000" font-family="sans-serif" font-size="14" font-weight="bold" lengthAdjust="spacing" textLength="284" x="732.75" y="30.9951">robocluedo_armor project structure</text><!--MD5=[3287247eb5ef114031405aae8a2c204e]
entity KB--><g id="elem_KB"><path d="M674.5,69.2969 C674.5,59.2969 749.5,59.2969 749.5,59.2969 C749.5,59.2969 824.5,59.2969 824.5,69.2969 L824.5,142.8906 C824.5,152.8906 749.5,152.8906 749.5,152.8906 C749.5,152.8906 674.5,152.8906 674.5,142.8906 L674.5,69.2969 " fill="#F1F1F1" style="stroke:#181818;stroke-width:0.5;"/><path d="M674.5,69.2969 C674.5,79.2969 749.5,79.2969 749.5,79.2969 C749.5,79.2969 824.5,79.2969 824.5,69.2969 " fill="none" style="stroke:#181818;stroke-width:0.5;"/><text fill="#000000" font-family="sans-serif" font-size="14" font-style="italic" lengthAdjust="spacing" textLength="77" x="711" y="104.292">«ROSPlan»</text><text fill="#000000" font-family="sans-serif" font-size="14" lengthAdjust="spacing" textLength="114" x="692.5" y="136.5889">knowledge base</text></g><!--MD5=[d9b0ff4e9238b5304521bdcfabd6e54a]
entity SRV_KB_GET_PRED--><g id="elem_SRV_KB_GET_PRED"><ellipse cx="161.5" cy="309.2969" fill="#F1F1F1" rx="8" ry="8" style="stroke:#181818;stroke-width:0.5;"/><text fill="#000000" font-family="sans-serif" font-size="14" lengthAdjust="spacing" textLength="311" x="6" y="347.292">/rosplan_knowledge_base/state/propositions</text></g><!--MD5=[c601e9962b697d328cec0a57ddc55295]
entity SRV_KB_UPDATE--><g id="elem_SRV_KB_UPDATE"><ellipse cx="541.5" cy="309.2969" fill="#F1F1F1" rx="8" ry="8" style="stroke:#181818;stroke-width:0.5;"/><text fill="#000000" font-family="sans-serif" font-size="14" lengthAdjust="spacing" textLength="274" x="404.5" y="347.292">/rosplan_knowledge_base/update_array</text></g><!--MD5=[0270e703bf5fe18487c64aafea7be109]
entity SRV_KB_UPDATE_ARRAY--><g id="elem_SRV_KB_UPDATE_ARRAY"><ellipse cx="957.5" cy="309.2969" fill="#F1F1F1" rx="8" ry="8" style="stroke:#181818;stroke-width:0.5;"/><text fill="#000000" font-family="sans-serif" font-size="14" lengthAdjust="spacing" textLength="234" x="840.5" y="347.292">/rosplan_knowledge_base/update</text></g><!--MD5=[8cd373876d6b622e4e1028111b915192]
entity SRV_QUERY--><g id="elem_SRV_QUERY"><ellipse cx="1407.5" cy="309.2969" fill="#F1F1F1" rx="8" ry="8" style="stroke:#181818;stroke-width:0.5;"/><text fill="#000000" font-family="sans-serif" font-size="14" lengthAdjust="spacing" textLength="266" x="1274.5" y="347.292">/rosplan_knowledge_base/query_state</text></g><!--MD5=[019d1a5a01cdb7fb327e3ed7eb8fa7c4]
link KB to SRV_KB_GET_PRED--><g id="link_KB_SRV_KB_GET_PRED"><path codeLine="24" d="M674.3,106.3169 C534.92,106.2069 244.46,114.4869 176.5,183.2969 C146.67,213.4969 153.47,269.8069 158.48,295.2369 " fill="none" id="KB-to-SRV_KB_GET_PRED" style="stroke:#181818;stroke-width:1.0;"/><polygon fill="#181818" points="159.51,300.1769,161.5758,290.5471,158.4828,295.2835,153.7464,292.1906,159.51,300.1769" style="stroke:#181818;stroke-width:1.0;"/><path d="M181.5,188.2969 L181.5,229.2969 L511.5,229.2969 L511.5,198.2969 L501.5,188.2969 L181.5,188.2969 " fill="#FEFFDD" style="stroke:#181818;stroke-width:0.5;"/><path d="M501.5,188.2969 L501.5,198.2969 L511.5,198.2969 L501.5,188.2969 " fill="#FEFFDD" style="stroke:#181818;stroke-width:0.5;"/><text fill="#000000" font-family="sans-serif" font-size="13" lengthAdjust="spacing" textLength="293" x="195.5" y="213.3638">rosplan_knowledge_msgs/GetAttributeService</text><text fill="#000000" font-family="sans-serif" font-size="13" lengthAdjust="spacing" textLength="19" x="639.6233" y="94.1242">srv</text><text fill="#000000" font-family="sans-serif" font-size="13" lengthAdjust="spacing" textLength="10" x="136.5446" y="281.1104">cl</text></g><!--MD5=[42433cea24859ba38bfb9dd4ddfc1684]
link KB to SRV_KB_UPDATE--><g id="link_KB_SRV_KB_UPDATE"><path codeLine="28" d="M674.47,113.0869 C627.02,121.0969 569.06,139.8169 538.5,183.2969 C514.5,217.4569 528.25,270.8369 536.58,295.2869 " fill="none" id="KB-to-SRV_KB_UPDATE" style="stroke:#181818;stroke-width:1.0;"/><polygon fill="#181818" points="538.26,300.0369,539.049,290.2197,536.6019,295.3198,531.5017,292.8727,538.26,300.0369" style="stroke:#181818;stroke-width:1.0;"/><path d="M543.5,188.2969 L543.5,229.2969 L909.5,229.2969 L909.5,198.2969 L899.5,188.2969 L543.5,188.2969 " fill="#FEFFDD" style="stroke:#181818;stroke-width:0.5;"/><path d="M899.5,188.2969 L899.5,198.2969 L909.5,198.2969 L899.5,188.2969 " fill="#FEFFDD" style="stroke:#181818;stroke-width:0.5;"/><text fill="#000000" font-family="sans-serif" font-size="13" lengthAdjust="spacing" textLength="329" x="557.5" y="213.3638">rosplan_knowledge_msgs/KnowledgeUpdateService</text><text fill="#000000" font-family="sans-serif" font-size="13" lengthAdjust="spacing" textLength="19" x="639.5182" y="135.0925">srv</text><text fill="#000000" font-family="sans-serif" font-size="13" lengthAdjust="spacing" textLength="10" x="515.0835" y="281.2327">cl</text></g><!--MD5=[e75efd208ea4bb8f646b2dcfbcbbe142]
link KB to SRV_KB_UPDATE_ARRAY--><g id="link_KB_SRV_KB_UPDATE_ARRAY"><path codeLine="32" d="M824.92,126.0269 C857.68,137.6269 894.06,155.7369 918.5,183.2969 C947.52,216.0369 954.95,270.1869 956.85,295.0669 " fill="none" id="KB-to-SRV_KB_UPDATE_ARRAY" style="stroke:#181818;stroke-width:1.0;"/><polygon fill="#181818" points="957.19,300.1769,960.5895,290.9333,956.8612,295.1877,952.6068,291.4594,957.19,300.1769" style="stroke:#181818;stroke-width:1.0;"/><path d="M949.5,188.2969 L949.5,229.2969 L1349.5,229.2969 L1349.5,198.2969 L1339.5,188.2969 L949.5,188.2969 " fill="#FEFFDD" style="stroke:#181818;stroke-width:0.5;"/><path d="M1339.5,188.2969 L1339.5,198.2969 L1349.5,198.2969 L1339.5,188.2969 " fill="#FEFFDD" style="stroke:#181818;stroke-width:0.5;"/><text fill="#000000" font-family="sans-serif" font-size="13" lengthAdjust="spacing" textLength="363" x="963.5" y="213.3638">rosplan_knowledge_msgs/KnowledgeUpdateServiceArray</text><text fill="#000000" font-family="sans-serif" font-size="13" lengthAdjust="spacing" textLength="19" x="840.6149" y="115.4664">srv</text><text fill="#000000" font-family="sans-serif" font-size="13" lengthAdjust="spacing" textLength="10" x="934.7811" y="281.1104">cl</text></g><!--MD5=[e9e1beea8ed5832efcb346ac2c86a2c0]
link KB to SRV_QUERY--><g id="link_KB_SRV_QUERY"><path codeLine="36" d="M824.53,107.0769 C969.51,108.1369 1281.03,118.1869 1362.5,183.2969 C1397.65,211.3969 1405.36,269.2769 1407.04,295.2169 " fill="none" id="KB-to-SRV_QUERY" style="stroke:#181818;stroke-width:1.0;"/><polygon fill="#181818" points="1407.31,300.2469,1410.8163,291.0433,1407.039,295.2542,1402.828,291.4769,1407.31,300.2469" style="stroke:#181818;stroke-width:1.0;"/><path d="M1399.5,188.2969 L1399.5,229.2969 L1756.5,229.2969 L1756.5,198.2969 L1746.5,188.2969 L1399.5,188.2969 " fill="#FEFFDD" style="stroke:#181818;stroke-width:0.5;"/><path d="M1746.5,188.2969 L1746.5,198.2969 L1756.5,198.2969 L1746.5,188.2969 " fill="#FEFFDD" style="stroke:#181818;stroke-width:0.5;"/><text fill="#000000" font-family="sans-serif" font-size="13" lengthAdjust="spacing" textLength="320" x="1413.5" y="213.3638">rosplan_knowledge_msgs/KnowledgeQueryService</text><text fill="#000000" font-family="sans-serif" font-size="13" lengthAdjust="spacing" textLength="19" x="840.4818" y="94.9019">srv</text><text fill="#000000" font-family="sans-serif" font-size="13" lengthAdjust="spacing" textLength="10" x="1384.9408" y="281.2036">cl</text></g><!--MD5=[cd21ac6a65a63a4a71cf49ccf017e5c7]
@startuml

''' INFOS
title robocluedo_armor project structure
skinparam Padding 8
allow_mixing


''' COMPONENTS
database "knowledge base" <<ROSPlan>> as KB


''' SERVICES
/'
() "srv" as SRV_
KB "srv" - -> "cl" SRV_
note on link: 
'/

' () "/rosplan_knowledge_base/clear" as SRV_KB_CLEAR
' KB "srv" - -> "cl" SRV_KB_CLEAR
' note on link: std_srvs::Empty

() "/rosplan_knowledge_base/state/propositions" as SRV_KB_GET_PRED
KB "srv" - -> "cl" SRV_KB_GET_PRED
note on link: rosplan_knowledge_msgs/GetAttributeService

() "/rosplan_knowledge_base/update_array" as SRV_KB_UPDATE
KB "srv" - -> "cl" SRV_KB_UPDATE
note on link: rosplan_knowledge_msgs/KnowledgeUpdateService

() "/rosplan_knowledge_base/update" as SRV_KB_UPDATE_ARRAY
KB "srv" - -> "cl" SRV_KB_UPDATE_ARRAY
note on link: rosplan_knowledge_msgs/KnowledgeUpdateServiceArray

() "/rosplan_knowledge_base/query_state" as SRV_QUERY
KB "srv" - -> "cl" SRV_QUERY
note on link: rosplan_knowledge_msgs/KnowledgeQueryService


''' CONNECTIONS
' ...

@enduml

@startuml

title robocluedo_armor project structure
skinparam Padding 8
allow_mixing


database "knowledge base" <<ROSPlan>> as KB




() "/rosplan_knowledge_base/state/propositions" as SRV_KB_GET_PRED
KB "srv" - -> "cl" SRV_KB_GET_PRED
note on link: rosplan_knowledge_msgs/GetAttributeService

() "/rosplan_knowledge_base/update_array" as SRV_KB_UPDATE
KB "srv" - -> "cl" SRV_KB_UPDATE
note on link: rosplan_knowledge_msgs/KnowledgeUpdateService

() "/rosplan_knowledge_base/update" as SRV_KB_UPDATE_ARRAY
KB "srv" - -> "cl" SRV_KB_UPDATE_ARRAY
note on link: rosplan_knowledge_msgs/KnowledgeUpdateServiceArray

() "/rosplan_knowledge_base/query_state" as SRV_QUERY
KB "srv" - -> "cl" SRV_QUERY
note on link: rosplan_knowledge_msgs/KnowledgeQueryService



@enduml

PlantUML version 1.2022.6(Tue Jun 21 17:34:49 UTC 2022)
(GPL source distribution)
Java Runtime: Java(TM) SE Runtime Environment
JVM: Java HotSpot(TM) 64-Bit Server VM
Default Encoding: UTF-8
Language: en
Country: US
--></g></svg>