<?xml version="1.0" encoding="UTF-8" standalone="no"?><svg xmlns="http://www.w3.org/2000/svg" xmlns:xlink="http://www.w3.org/1999/xlink" contentStyleType="text/css" height="357px" preserveAspectRatio="none" style="width:452px;height:357px;background:#FFFFFF;" version="1.1" viewBox="0 0 452 357" width="452px" zoomAndPan="magnify"><defs/><g><rect height="42.2969" style="stroke:#00000000;stroke-width:1.0;fill:none;" width="233" x="102.75" y="5"/><text fill="#000000" font-family="sans-serif" font-size="14" font-weight="bold" lengthAdjust="spacing" textLength="207" x="115.75" y="30.9951">(erl2) node simulation.cpp</text><!--MD5=[ea03b9fdc4f51ebe956869d781e4fd63]
entity NODE_ERL3_ORACLE--><g id="elem_NODE_ERL3_ORACLE"><rect fill="#F1F1F1" height="94.5938" rx="2.5" ry="2.5" style="stroke:#181818;stroke-width:0.5;" width="157" x="71" y="60.2969"/><rect fill="#F1F1F1" height="10" style="stroke:#181818;stroke-width:0.5;" width="15" x="208" y="65.2969"/><rect fill="#F1F1F1" height="2" style="stroke:#181818;stroke-width:0.5;" width="4" x="206" y="67.2969"/><rect fill="#F1F1F1" height="2" style="stroke:#181818;stroke-width:0.5;" width="4" x="206" y="71.2969"/><text fill="#000000" font-family="sans-serif" font-size="14" font-style="italic" lengthAdjust="spacing" textLength="101" x="94" y="101.292">«ERL3 Oracle»</text><text fill="#000000" font-family="sans-serif" font-size="14" lengthAdjust="spacing" textLength="100" x="94.5" y="133.5889">simulation.cpp</text></g><!--MD5=[fcd41c5334bc317cf1103d6cb296c7d2]
entity SRV_ORACLE_SOLUTION--><g id="elem_SRV_ORACLE_SOLUTION"><ellipse cx="60.5" cy="311.2969" fill="#F1F1F1" rx="8" ry="8" style="stroke:#181818;stroke-width:0.5;"/><text fill="#000000" font-family="sans-serif" font-size="14" lengthAdjust="spacing" textLength="109" x="6" y="349.292">/oracle_solution</text></g><!--MD5=[1b934c64d909d70ab289657b749f62a3]
entity SRV_HINT--><g id="elem_SRV_HINT"><ellipse cx="239.5" cy="311.2969" fill="#F1F1F1" rx="8" ry="8" style="stroke:#181818;stroke-width:0.5;"/><text fill="#000000" font-family="sans-serif" font-size="14" lengthAdjust="spacing" textLength="80" x="199.5" y="349.292">/oracle_hint</text></g><!--MD5=[c93e81fab92d6faa20b22b641675dbeb]
link NODE_ERL3_ORACLE to SRV_ORACLE_SOLUTION--><g id="link_NODE_ERL3_ORACLE_SRV_ORACLE_SOLUTION"><path codeLine="14" d="M78.71,155.7169 C70.14,164.4969 62.62,174.3869 57.5,185.2969 C39.93,222.7569 50.18,273.7169 56.57,297.3169 " fill="none" id="NODE_ERL3_ORACLE-to-SRV_ORACLE_SOLUTION" style="stroke:#181818;stroke-width:1.0;"/><polygon fill="#181818" points="57.94,302.1869,59.348,292.4392,56.5834,297.3744,51.6481,294.6098,57.94,302.1869" style="stroke:#181818;stroke-width:1.0;"/><path d="M62.5,190.2969 L62.5,231.2969 L191.5,231.2969 L191.5,200.2969 L181.5,190.2969 L62.5,190.2969 " fill="#FEFFDD" style="stroke:#181818;stroke-width:0.5;"/><path d="M181.5,190.2969 L181.5,200.2969 L191.5,200.2969 L181.5,190.2969 " fill="#FEFFDD" style="stroke:#181818;stroke-width:0.5;"/><text fill="#000000" font-family="sans-serif" font-size="13" lengthAdjust="spacing" textLength="92" x="76.5" y="215.3638">erl2/Oracle.srv</text><text fill="#000000" font-family="sans-serif" font-size="13" lengthAdjust="spacing" textLength="19" x="41.5015" y="183.1479">srv</text></g><!--MD5=[66a3e21ce977eb092c7dc6cf4bbc5754]
link NODE_ERL3_ORACLE to SRV_HINT--><g id="link_NODE_ERL3_ORACLE_SRV_HINT"><path codeLine="18" d="M183.79,155.7069 C189.87,165.2169 195.76,175.3569 200.5,185.2969 C218.99,224.0469 231.42,273.6569 236.67,297.0069 " fill="none" id="NODE_ERL3_ORACLE-to-SRV_HINT" style="stroke:#181818;stroke-width:1.0;"/><polygon fill="#181818" points="237.8,302.0969,239.7524,292.4435,236.7153,297.2159,231.9429,294.1789,237.8,302.0969" style="stroke:#181818;stroke-width:1.0;"/><path d="M224.5,190.2969 L224.5,231.2969 L445.5,231.2969 L445.5,200.2969 L435.5,190.2969 L224.5,190.2969 " fill="#FEFFDD" style="stroke:#181818;stroke-width:0.5;"/><path d="M435.5,190.2969 L435.5,200.2969 L445.5,200.2969 L435.5,190.2969 " fill="#FEFFDD" style="stroke:#181818;stroke-width:0.5;"/><text fill="#000000" font-family="sans-serif" font-size="13" lengthAdjust="spacing" textLength="184" x="238.5" y="215.3638">exp_assignment3/Marker.srv</text><text fill="#000000" font-family="sans-serif" font-size="13" lengthAdjust="spacing" textLength="19" x="197.7782" y="183.1367">srv</text></g><!--MD5=[a676c826db3d4a474236f4f175f35166]
@startuml

''' INFOS
title (erl2) node simulation.cpp
skinparam Padding 8
allow_mixing


''' COMPONENTS
component "simulation.cpp" <<ERL3 Oracle>> as NODE_ERL3_ORACLE


''' LINKS 
() "/oracle_solution" as SRV_ORACLE_SOLUTION
NODE_ERL3_ORACLE "srv" - -> SRV_ORACLE_SOLUTION
note on link: erl2/Oracle.srv

() "/oracle_hint" as SRV_HINT
NODE_ERL3_ORACLE "srv" - -> SRV_HINT
note on link: exp_assignment3/Marker.srv

@enduml

@startuml

title (erl2) node simulation.cpp
skinparam Padding 8
allow_mixing


component "simulation.cpp" <<ERL3 Oracle>> as NODE_ERL3_ORACLE


() "/oracle_solution" as SRV_ORACLE_SOLUTION
NODE_ERL3_ORACLE "srv" - -> SRV_ORACLE_SOLUTION
note on link: erl2/Oracle.srv

() "/oracle_hint" as SRV_HINT
NODE_ERL3_ORACLE "srv" - -> SRV_HINT
note on link: exp_assignment3/Marker.srv

@enduml

PlantUML version 1.2022.6(Tue Jun 21 17:34:49 UTC 2022)
(GPL source distribution)
Java Runtime: Java(TM) SE Runtime Environment
JVM: Java HotSpot(TM) 64-Bit Server VM
Default Encoding: UTF-8
Language: en
Country: US
--></g></svg>