<?xml version="1.0" encoding="UTF-8" standalone="no"?><svg xmlns="http://www.w3.org/2000/svg" xmlns:xlink="http://www.w3.org/1999/xlink" contentStyleType="text/css" height="446px" preserveAspectRatio="none" style="width:948px;height:446px;background:#FFFFFF;" version="1.1" viewBox="0 0 948 446" width="948px" zoomAndPan="magnify"><defs/><g><rect height="26.2969" style="stroke:#00000000;stroke-width:1.0;fill:none;" width="423" x="255.905" y="5"/><text fill="#000000" font-family="sans-serif" font-size="14" font-weight="bold" lengthAdjust="spacing" textLength="413" x="260.905" y="22.9951">Mission Manager -- interaction with aRMOR interface</text><!--MD5=[ff6769c984590f49ebaa14c52fb754a5]
entity SRV_ARMOR_ADD--><g id="elem_SRV_ARMOR_ADD"><ellipse cx="588.81" cy="102.5169" fill="#F1F1F1" rx="8" ry="8" style="stroke:#181818;stroke-width:0.5;"/><text fill="#000000" font-family="sans-serif" font-size="14" lengthAdjust="spacing" textLength="163" x="507.31" y="132.512">/cluedo_armor/add_hint</text></g><!--MD5=[9a50e2d0d5368a0a1b0a68b01337ec49]
entity SRV_ARMOR_FIND--><g id="elem_SRV_ARMOR_FIND"><ellipse cx="588.81" cy="162.5169" fill="#F1F1F1" rx="8" ry="8" style="stroke:#181818;stroke-width:0.5;"/><text fill="#000000" font-family="sans-serif" font-size="14" lengthAdjust="spacing" textLength="225" x="476.31" y="192.512">/cluedo_armor/find_consistent_h</text></g><!--MD5=[3b3b20904a042ad183e8b7df1d6262e8]
entity SRV_ARMOR_DEL--><g id="elem_SRV_ARMOR_DEL"><ellipse cx="588.81" cy="222.5169" fill="#F1F1F1" rx="8" ry="8" style="stroke:#181818;stroke-width:0.5;"/><text fill="#000000" font-family="sans-serif" font-size="14" lengthAdjust="spacing" textLength="230" x="473.81" y="252.512">/cluedo_armor/wrong_hypothesis</text></g><!--MD5=[780a75eaa14ca967fc45d84d76f7efe8]
entity SRV_ARMOR_BACKUP--><g id="elem_SRV_ARMOR_BACKUP"><ellipse cx="588.81" cy="282.5169" fill="#F1F1F1" rx="8" ry="8" style="stroke:#181818;stroke-width:0.5;"/><text fill="#000000" font-family="sans-serif" font-size="14" lengthAdjust="spacing" textLength="155" x="511.31" y="312.512">/cluedo_armor/backup</text></g><!--MD5=[9a0d4b0340012a44161447de88fcc332]
entity MISSION_MANAGER--><g id="elem_MISSION_MANAGER"><rect fill="#F1F1F1" height="62.5938" rx="2.5" ry="2.5" style="stroke:#181818;stroke-width:0.5;" width="205" x="737.81" y="161.0169"/><rect fill="#F1F1F1" height="10" style="stroke:#181818;stroke-width:0.5;" width="15" x="922.81" y="166.0169"/><rect fill="#F1F1F1" height="2" style="stroke:#181818;stroke-width:0.5;" width="4" x="920.81" y="168.0169"/><rect fill="#F1F1F1" height="2" style="stroke:#181818;stroke-width:0.5;" width="4" x="920.81" y="172.0169"/><text fill="#000000" font-family="sans-serif" font-size="14" font-style="italic" lengthAdjust="spacing" textLength="165" x="752.81" y="194.012">«RCL Mission Manager»</text><text fill="#000000" font-family="sans-serif" font-size="14" lengthAdjust="spacing" textLength="134" x="768.31" y="210.3089">MISSION_MANAGER</text></g><!--MD5=[8f9906a53639a45e8f1d1b5fd8a8f490]
entity ARMOR_INTERFACE--><g id="elem_ARMOR_INTERFACE"><rect fill="#F1F1F1" height="62.5938" rx="2.5" ry="2.5" style="stroke:#181818;stroke-width:0.5;" width="176" x="500.81" y="368.0169"/><rect fill="#F1F1F1" height="10" style="stroke:#181818;stroke-width:0.5;" width="15" x="656.81" y="373.0169"/><rect fill="#F1F1F1" height="2" style="stroke:#181818;stroke-width:0.5;" width="4" x="654.81" y="375.0169"/><rect fill="#F1F1F1" height="2" style="stroke:#181818;stroke-width:0.5;" width="4" x="654.81" y="379.0169"/><text fill="#000000" font-family="sans-serif" font-size="14" font-style="italic" lengthAdjust="spacing" textLength="100" x="533.81" y="401.012">«RCL aRMOR»</text><text fill="#000000" font-family="sans-serif" font-size="14" lengthAdjust="spacing" textLength="136" x="515.81" y="417.3089">ARMOR_INTERFACE</text></g><!--MD5=[5c6dc7dc5376f33f1f8e06a83ace745c]
link ARMOR_INTERFACE to SRV_ARMOR_ADD--><g id="link_ARMOR_INTERFACE_SRV_ARMOR_ADD"><path d="M500.62,382.0669 C356.31,349.7569 95.2,273.3369 194.31,159.0169 C294.64,43.2969 516.42,85.4569 574.61,98.9869 " fill="none" id="ARMOR_INTERFACE-to-SRV_ARMOR_ADD" style="stroke:#181818;stroke-width:1.0;"/><polygon fill="#181818" points="579.72,100.1969,571.8881,94.2252,574.8554,99.0413,570.0392,102.0086,579.72,100.1969" style="stroke:#181818;stroke-width:1.0;"/><path d="M148.31,164.0169 L148.31,189.0169 L406.31,189.0169 L406.31,174.0169 L396.31,164.0169 L148.31,164.0169 " fill="#FEFFDD" style="stroke:#181818;stroke-width:0.5;"/><path d="M396.31,164.0169 L396.31,174.0169 L406.31,174.0169 L396.31,164.0169 " fill="#FEFFDD" style="stroke:#181818;stroke-width:0.5;"/><text fill="#000000" font-family="sans-serif" font-size="13" lengthAdjust="spacing" textLength="237" x="154.31" y="181.0838">robocluedo_armor_msgs/AddHint.srv</text><text fill="#000000" font-family="sans-serif" font-size="13" lengthAdjust="spacing" textLength="19" x="473.8353" y="377.167">srv</text></g><!--MD5=[fb6a378461c75b0d2f08eb5a5c26451d]
link ARMOR_INTERFACE to SRV_ARMOR_FIND--><g id="link_ARMOR_INTERFACE_SRV_ARMOR_FIND"><path d="M500.54,417.4769 C395.74,433.0469 223.95,439.2669 134.81,337.0169 C6,189.2569 484.11,165.9869 574.36,162.9269 " fill="none" id="ARMOR_INTERFACE-to-SRV_ARMOR_FIND" style="stroke:#181818;stroke-width:1.0;"/><polygon fill="#181818" points="579.51,162.7669,570.3888,159.0516,574.5125,162.9239,570.6401,167.0476,579.51,162.7669" style="stroke:#181818;stroke-width:1.0;"/><path d="M88.81,307.0169 L88.81,332.0169 L465.81,332.0169 L465.81,317.0169 L455.81,307.0169 L88.81,307.0169 " fill="#FEFFDD" style="stroke:#181818;stroke-width:0.5;"/><path d="M455.81,307.0169 L455.81,317.0169 L465.81,317.0169 L455.81,307.0169 " fill="#FEFFDD" style="stroke:#181818;stroke-width:0.5;"/><text fill="#000000" font-family="sans-serif" font-size="13" lengthAdjust="spacing" textLength="356" x="94.81" y="324.0838">robocluedo_armor_msgs/FindConsistentHypotheses.srv</text><text fill="#000000" font-family="sans-serif" font-size="13" lengthAdjust="spacing" textLength="19" x="473.749" y="431.5941">srv</text></g><!--MD5=[2eb170e8eb9506c418e17ae0e9bee8b0]
link ARMOR_INTERFACE to SRV_ARMOR_DEL--><g id="link_ARMOR_INTERFACE_SRV_ARMOR_DEL"><path d="M500.54,396.2569 C347.01,387.6669 56.62,356.8069 160.31,247.0169 C218.04,185.8969 506.93,213.4869 574.61,220.8869 " fill="none" id="ARMOR_INTERFACE-to-SRV_ARMOR_DEL" style="stroke:#181818;stroke-width:1.0;"/><polygon fill="#181818" points="579.78,221.4669,571.2815,216.4894,574.8111,220.91,570.3905,224.4396,579.78,221.4669" style="stroke:#181818;stroke-width:1.0;"/><path d="M114.31,252.0169 L114.31,277.0169 L440.31,277.0169 L440.31,262.0169 L430.31,252.0169 L114.31,252.0169 " fill="#FEFFDD" style="stroke:#181818;stroke-width:0.5;"/><path d="M430.31,252.0169 L430.31,262.0169 L440.31,262.0169 L430.31,252.0169 " fill="#FEFFDD" style="stroke:#181818;stroke-width:0.5;"/><text fill="#000000" font-family="sans-serif" font-size="13" lengthAdjust="spacing" textLength="305" x="120.31" y="269.0838">robocluedo_armor_msgs/DiscardHypothesis.srv</text><text fill="#000000" font-family="sans-serif" font-size="13" lengthAdjust="spacing" textLength="19" x="473.749" y="408.6831">srv</text></g><!--MD5=[05e3c9b71958fc16fdfb781ed7b884f3]
link ARMOR_INTERFACE to SRV_ARMOR_BACKUP--><g id="link_ARMOR_INTERFACE_SRV_ARMOR_BACKUP"><path d="M588.81,367.8569 C588.81,344.6669 588.81,314.3069 588.81,296.7569 " fill="none" id="ARMOR_INTERFACE-to-SRV_ARMOR_BACKUP" style="stroke:#181818;stroke-width:1.0;"/><polygon fill="#181818" points="588.81,291.7369,584.81,300.7369,588.81,296.7369,592.81,300.7369,588.81,291.7369" style="stroke:#181818;stroke-width:1.0;"/><path d="M495.81,317.2669 L495.81,342.2669 L640.81,342.2669 L640.81,327.2669 L630.81,317.2669 L495.81,317.2669 " fill="#FEFFDD" style="stroke:#181818;stroke-width:0.5;"/><path d="M630.81,317.2669 L630.81,327.2669 L640.81,327.2669 L630.81,317.2669 " fill="#FEFFDD" style="stroke:#181818;stroke-width:0.5;"/><text fill="#000000" font-family="sans-serif" font-size="13" lengthAdjust="spacing" textLength="124" x="501.81" y="334.3338">std_srvs/Trigger.srv</text><text fill="#000000" font-family="sans-serif" font-size="13" lengthAdjust="spacing" textLength="19" x="567.8506" y="356.9026">srv</text></g><!--MD5=[0ab236128e0fc6bea1d654d04f92e384]
link SRV_ARMOR_ADD to MISSION_MANAGER--><g id="link_SRV_ARMOR_ADD_MISSION_MANAGER"><path d="M597.99,105.2669 C613.43,110.4869 647.92,122.2069 676.81,132.5169 C700.57,140.9969 726.22,150.3669 749.96,159.1269 " fill="none" id="SRV_ARMOR_ADD-to-MISSION_MANAGER" style="stroke:#181818;stroke-width:1.0;"/><polygon fill="#181818" points="754.68,160.8769,747.6139,154.0161,749.9873,159.151,744.8525,161.5244,754.68,160.8769" style="stroke:#181818;stroke-width:1.0;"/><text fill="#000000" font-family="sans-serif" font-size="13" lengthAdjust="spacing" textLength="10" x="725.9876" y="149.9267">cl</text></g><!--MD5=[5a3de3fcc593adb3e5e74c58e19d50d6]
link SRV_ARMOR_FIND to MISSION_MANAGER--><g id="link_SRV_ARMOR_FIND_MISSION_MANAGER"><path d="M597.83,163.4769 C618.92,166.0169 678.07,173.1269 732.55,179.6769 " fill="none" id="SRV_ARMOR_FIND-to-MISSION_MANAGER" style="stroke:#181818;stroke-width:1.0;"/><polygon fill="#181818" points="737.8,180.3069,729.3441,175.2573,732.836,179.7078,728.3856,183.1997,737.8,180.3069" style="stroke:#181818;stroke-width:1.0;"/><text fill="#000000" font-family="sans-serif" font-size="13" lengthAdjust="spacing" textLength="10" x="719.9047" y="192.0477">cl</text></g><!--MD5=[52db7bb16e793cd414405373723acb94]
link SRV_ARMOR_DEL to MISSION_MANAGER--><g id="link_SRV_ARMOR_DEL_MISSION_MANAGER"><path d="M597.83,221.5569 C618.92,219.0169 678.07,211.9069 732.55,205.3569 " fill="none" id="SRV_ARMOR_DEL-to-MISSION_MANAGER" style="stroke:#181818;stroke-width:1.0;"/><polygon fill="#181818" points="737.8,204.7269,728.3856,201.8341,732.836,205.326,729.3441,209.7764,737.8,204.7269" style="stroke:#181818;stroke-width:1.0;"/><text fill="#000000" font-family="sans-serif" font-size="13" lengthAdjust="spacing" textLength="10" x="719.9047" y="218.261">cl</text></g><!--MD5=[e3db4730e12bcb8d7a7cf0f6f1988241]
link SRV_ARMOR_BACKUP to MISSION_MANAGER--><g id="link_SRV_ARMOR_BACKUP_MISSION_MANAGER"><path d="M597.99,279.7669 C613.43,274.5469 647.92,262.8269 676.81,252.5169 C700.57,244.0369 726.22,234.6669 749.96,225.9069 " fill="none" id="SRV_ARMOR_BACKUP-to-MISSION_MANAGER" style="stroke:#181818;stroke-width:1.0;"/><polygon fill="#181818" points="754.68,224.1569,744.8525,223.5093,749.9873,225.8828,747.6139,231.0176,754.68,224.1569" style="stroke:#181818;stroke-width:1.0;"/><text fill="#000000" font-family="sans-serif" font-size="13" lengthAdjust="spacing" textLength="10" x="727.4037" y="243.7362">cl</text></g><!--MD5=[83ab5376f88ffbb3654891638746f408]
@startuml

title Mission Manager - - interaction with aRMOR interface

''' COMPONENTS
component MISSION_MANAGER <<RCL Mission Manager>>
component ARMOR_INTERFACE <<RCL aRMOR>>

''' INTERFACES
together {
left to right direction
() "/cluedo_armor/add_hint" as SRV_ARMOR_ADD
() "/cluedo_armor/find_consistent_h" as SRV_ARMOR_FIND
() "/cluedo_armor/wrong_hypothesis" as SRV_ARMOR_DEL
() "/cluedo_armor/backup" as SRV_ARMOR_BACKUP
}

SRV_ARMOR_ADD <-left- "srv" ARMOR_INTERFACE
note on link: robocluedo_armor_msgs/AddHint.srv

SRV_ARMOR_FIND <-left- "srv" ARMOR_INTERFACE
note on link: robocluedo_armor_msgs/FindConsistentHypotheses.srv


SRV_ARMOR_DEL <-left- "srv" ARMOR_INTERFACE
note on link: robocluedo_armor_msgs/DiscardHypothesis.srv


SRV_ARMOR_BACKUP <-left- "srv" ARMOR_INTERFACE
note on link: std_srvs/Trigger.srv

''' LINKS
SRV_ARMOR_ADD - -> "cl" MISSION_MANAGER
SRV_ARMOR_FIND - -> "cl" MISSION_MANAGER
SRV_ARMOR_DEL - -> "cl" MISSION_MANAGER
SRV_ARMOR_BACKUP - -> "cl" MISSION_MANAGER


@enduml

@startuml

title Mission Manager - - interaction with aRMOR interface

component MISSION_MANAGER <<RCL Mission Manager>>
component ARMOR_INTERFACE <<RCL aRMOR>>

together {
left to right direction
() "/cluedo_armor/add_hint" as SRV_ARMOR_ADD
() "/cluedo_armor/find_consistent_h" as SRV_ARMOR_FIND
() "/cluedo_armor/wrong_hypothesis" as SRV_ARMOR_DEL
() "/cluedo_armor/backup" as SRV_ARMOR_BACKUP
}

SRV_ARMOR_ADD <-left- "srv" ARMOR_INTERFACE
note on link: robocluedo_armor_msgs/AddHint.srv

SRV_ARMOR_FIND <-left- "srv" ARMOR_INTERFACE
note on link: robocluedo_armor_msgs/FindConsistentHypotheses.srv


SRV_ARMOR_DEL <-left- "srv" ARMOR_INTERFACE
note on link: robocluedo_armor_msgs/DiscardHypothesis.srv


SRV_ARMOR_BACKUP <-left- "srv" ARMOR_INTERFACE
note on link: std_srvs/Trigger.srv

SRV_ARMOR_ADD - -> "cl" MISSION_MANAGER
SRV_ARMOR_FIND - -> "cl" MISSION_MANAGER
SRV_ARMOR_DEL - -> "cl" MISSION_MANAGER
SRV_ARMOR_BACKUP - -> "cl" MISSION_MANAGER


@enduml

PlantUML version 1.2022.6(Tue Jun 21 17:34:49 UTC 2022)
(GPL source distribution)
Java Runtime: Java(TM) SE Runtime Environment
JVM: Java HotSpot(TM) 64-Bit Server VM
Default Encoding: UTF-8
Language: en
Country: US
--></g></svg>