<?xml version="1.0" encoding="UTF-8" standalone="no"?><svg xmlns="http://www.w3.org/2000/svg" xmlns:xlink="http://www.w3.org/1999/xlink" contentStyleType="text/css" height="479px" preserveAspectRatio="none" style="width:501px;height:479px;background:#FFFFFF;" version="1.1" viewBox="0 0 501 479" width="501px" zoomAndPan="magnify"><defs/><g><rect height="26.2969" style="stroke:#00000000;stroke-width:1.0;fill:none;" width="372" x="60.5" y="10"/><text fill="#000000" font-family="sans-serif" font-size="14" font-weight="bold" lengthAdjust="spacing" textLength="362" x="65.5" y="27.9951">bug_m navigation - package temporal diagram</text><line style="stroke:#181818;stroke-width:0.5;stroke-dasharray:5.0,5.0;" x1="46" x2="46" y1="77.5938" y2="440.0547"/><line style="stroke:#181818;stroke-width:0.5;stroke-dasharray:5.0,5.0;" x1="254" x2="254" y1="77.5938" y2="440.0547"/><line style="stroke:#181818;stroke-width:0.5;stroke-dasharray:5.0,5.0;" x1="405" x2="405" y1="77.5938" y2="440.0547"/><rect fill="#E2E2F0" height="30.2969" style="stroke:#181818;stroke-width:0.5;" width="79" x="9" y="42.2969"/><rect fill="#E2E2F0" height="30.2969" style="stroke:#181818;stroke-width:0.5;" width="79" x="5" y="46.2969"/><text fill="#000000" font-family="sans-serif" font-size="14" lengthAdjust="spacing" textLength="65" x="12" y="66.292">ROSPLAN</text><rect fill="#E2E2F0" height="30.2969" style="stroke:#181818;stroke-width:0.5;" width="79" x="9" y="439.0547"/><rect fill="#E2E2F0" height="30.2969" style="stroke:#181818;stroke-width:0.5;" width="79" x="5" y="443.0547"/><text fill="#000000" font-family="sans-serif" font-size="14" lengthAdjust="spacing" textLength="65" x="12" y="463.0498">ROSPLAN</text><rect fill="#E2E2F0" height="30.2969" style="stroke:#181818;stroke-width:0.5;" width="71" x="221" y="42.2969"/><rect fill="#E2E2F0" height="30.2969" style="stroke:#181818;stroke-width:0.5;" width="71" x="217" y="46.2969"/><text fill="#000000" font-family="sans-serif" font-size="14" lengthAdjust="spacing" textLength="57" x="224" y="66.292">MISSION</text><rect fill="#E2E2F0" height="30.2969" style="stroke:#181818;stroke-width:0.5;" width="71" x="221" y="439.0547"/><rect fill="#E2E2F0" height="30.2969" style="stroke:#181818;stroke-width:0.5;" width="71" x="217" y="443.0547"/><text fill="#000000" font-family="sans-serif" font-size="14" lengthAdjust="spacing" textLength="57" x="224" y="463.0498">MISSION</text><rect fill="#E2E2F0" height="30.2969" style="stroke:#181818;stroke-width:0.5;" width="95" x="360" y="42.2969"/><rect fill="#E2E2F0" height="30.2969" style="stroke:#181818;stroke-width:0.5;" width="95" x="356" y="46.2969"/><text fill="#000000" font-family="sans-serif" font-size="14" lengthAdjust="spacing" textLength="81" x="363" y="66.292">MOVEMENT</text><rect fill="#E2E2F0" height="30.2969" style="stroke:#181818;stroke-width:0.5;" width="95" x="360" y="439.0547"/><rect fill="#E2E2F0" height="30.2969" style="stroke:#181818;stroke-width:0.5;" width="95" x="356" y="443.0547"/><text fill="#000000" font-family="sans-serif" font-size="14" lengthAdjust="spacing" textLength="81" x="363" y="463.0498">MOVEMENT</text><rect fill="#EEEEEE" height="3" style="stroke:#EEEEEE;stroke-width:1.0;" width="494" x="0" y="108.1602"/><line style="stroke:#000000;stroke-width:1.0;" x1="0" x2="494" y1="108.1602" y2="108.1602"/><line style="stroke:#000000;stroke-width:1.0;" x1="0" x2="494" y1="111.1602" y2="111.1602"/><rect fill="#EEEEEE" height="23.1328" style="stroke:#000000;stroke-width:2.0;" width="208" x="143" y="97.5938"/><text fill="#000000" font-family="sans-serif" font-size="13" font-weight="bold" lengthAdjust="spacing" textLength="189" x="149" y="113.6606">First setup (first request)</text><polygon fill="#181818" points="393.5,147.8594,403.5,151.8594,393.5,155.8594,397.5,151.8594" style="stroke:#181818;stroke-width:1.0;"/><line style="stroke:#181818;stroke-width:1.0;" x1="254.5" x2="399.5" y1="151.8594" y2="151.8594"/><text fill="#000000" font-family="sans-serif" font-size="13" lengthAdjust="spacing" textLength="88" x="261.5" y="146.7935">SET controller</text><text fill="#000000" font-family="sans-serif" font-size="13" font-weight="bold" lengthAdjust="spacing" textLength="35" x="353.5" y="146.7935">ID=0</text><polygon fill="#181818" points="265.5,176.9922,255.5,180.9922,265.5,184.9922,261.5,180.9922" style="stroke:#181818;stroke-width:1.0;"/><line style="stroke:#181818;stroke-width:1.0;" x1="259.5" x2="404.5" y1="180.9922" y2="180.9922"/><text fill="#000000" font-family="sans-serif" font-size="13" font-style="italic" lengthAdjust="spacing" textLength="51" x="271.5" y="175.9263">success</text><polygon fill="#FEFFDD" points="191,193.9922,317,193.9922,327,204.9922,317,216.9922,191,216.9922,181,204.9922,191,193.9922" style="stroke:#181818;stroke-width:0.5;"/><text fill="#000000" font-family="sans-serif" font-size="13" lengthAdjust="spacing" textLength="122" x="193" y="210.0591">waiting for markers</text><rect fill="#EEEEEE" height="3" style="stroke:#EEEEEE;stroke-width:1.0;" width="494" x="0" y="242.6914"/><line style="stroke:#000000;stroke-width:1.0;" x1="0" x2="494" y1="242.6914" y2="242.6914"/><line style="stroke:#000000;stroke-width:1.0;" x1="0" x2="494" y1="245.6914" y2="245.6914"/><rect fill="#EEEEEE" height="23.1328" style="stroke:#000000;stroke-width:2.0;" width="96" x="199" y="232.125"/><text fill="#000000" font-family="sans-serif" font-size="13" font-weight="bold" lengthAdjust="spacing" textLength="77" x="205" y="248.1919">Movement</text><polygon fill="#181818" points="242.5,282.3906,252.5,286.3906,242.5,290.3906,246.5,286.3906" style="stroke:#181818;stroke-width:1.0;"/><line style="stroke:#181818;stroke-width:1.0;" x1="46.5" x2="248.5" y1="286.3906" y2="286.3906"/><text fill="#000000" font-family="sans-serif" font-size="13" lengthAdjust="spacing" textLength="184" x="53.5" y="281.3247">request from ROSPlan action</text><polygon fill="#181818" points="393.5,311.5234,403.5,315.5234,393.5,319.5234,397.5,315.5234" style="stroke:#181818;stroke-width:1.0;"/><line style="stroke:#181818;stroke-width:1.0;" x1="254.5" x2="399.5" y1="315.5234" y2="315.5234"/><text fill="#000000" font-family="sans-serif" font-size="13" lengthAdjust="spacing" textLength="119" x="261.5" y="310.4575">navigation request</text><polygon fill="#FEFFDD" points="331,328.5234,479,328.5234,489,347.5234,479,366.5234,331,366.5234,321,347.5234,331,328.5234" style="stroke:#181818;stroke-width:0.5;"/><text fill="#000000" font-family="sans-serif" font-size="13" lengthAdjust="spacing" textLength="140" x="333" y="344.5903">performing navigation</text><text fill="#000000" font-family="sans-serif" font-size="13" lengthAdjust="spacing" textLength="143" x="333" y="359.7231">with BUG_M behaviour</text><polygon fill="#181818" points="265.5,388.9219,255.5,392.9219,265.5,396.9219,261.5,392.9219" style="stroke:#181818;stroke-width:1.0;"/><line style="stroke:#181818;stroke-width:1.0;" x1="259.5" x2="404.5" y1="392.9219" y2="392.9219"/><text fill="#000000" font-family="sans-serif" font-size="13" lengthAdjust="spacing" textLength="95" x="271.5" y="387.856">target reached</text><polygon fill="#181818" points="57.5,418.0547,47.5,422.0547,57.5,426.0547,53.5,422.0547" style="stroke:#181818;stroke-width:1.0;"/><line style="stroke:#181818;stroke-width:1.0;" x1="51.5" x2="253.5" y1="422.0547" y2="422.0547"/><text fill="#000000" font-family="sans-serif" font-size="13" lengthAdjust="spacing" textLength="110" x="63.5" y="416.9888">navigation ended</text><!--MD5=[cd18f4598a8cab1a4679866e2567bfa4]
@startuml

title bug_m navigation - package temporal diagram

''' ENTITIES 
collections ROSPLAN
collections MISSION
collections MOVEMENT

''' SEQUENCE
' == section ==
' ...
== First setup (first request) ==

MISSION -> MOVEMENT : SET controller <b>ID=0</b>
MISSION <- MOVEMENT : <i>success</i>
hnote over MISSION: waiting for markers

== Movement ==

ROSPLAN -> MISSION : request from ROSPlan action
MISSION -> MOVEMENT : navigation request
hnote over MOVEMENT 
performing navigation 
with BUG_M behaviour
end hnote
MISSION <- MOVEMENT : target reached
ROSPLAN <- MISSION : navigation ended

@enduml

@startuml

title bug_m navigation - package temporal diagram

collections ROSPLAN
collections MISSION
collections MOVEMENT

== First setup (first request) ==

MISSION -> MOVEMENT : SET controller <b>ID=0</b>
MISSION <- MOVEMENT : <i>success</i>
hnote over MISSION: waiting for markers

== Movement ==

ROSPLAN -> MISSION : request from ROSPlan action
MISSION -> MOVEMENT : navigation request
hnote over MOVEMENT 
performing navigation 
with BUG_M behaviour
end hnote
MISSION <- MOVEMENT : target reached
ROSPLAN <- MISSION : navigation ended

@enduml

PlantUML version 1.2022.6(Tue Jun 21 17:34:49 UTC 2022)
(GPL source distribution)
Java Runtime: Java(TM) SE Runtime Environment
JVM: Java HotSpot(TM) 64-Bit Server VM
Default Encoding: UTF-8
Language: en
Country: US
--></g></svg>