<?xml version="1.0" encoding="UTF-8" standalone="no"?><svg xmlns="http://www.w3.org/2000/svg" xmlns:xlink="http://www.w3.org/1999/xlink" contentStyleType="text/css" height="375px" preserveAspectRatio="none" style="width:432px;height:375px;background:#FFFFFF;" version="1.1" viewBox="0 0 432 375" width="432px" zoomAndPan="magnify"><defs/><g><rect height="46.2969" style="stroke:#00000000;stroke-width:1.0;fill:none;" width="247" x="85.5" y="5"/><text fill="#000000" font-family="sans-serif" font-size="14" font-weight="bold" lengthAdjust="spacing" textLength="217" x="100.5" y="32.9951">ROSPlan feedback manager</text><!--MD5=[70bcd7bd3fee704975ee0db46a91c203]
class FEEDBACK--><g id="elem_FEEDBACK"><rect codeLine="9" fill="#F1F1F1" height="98.5938" id="FEEDBACK" rx="2.5" ry="2.5" style="stroke:#181818;stroke-width:0.5;" width="184" x="15" y="64.2969"/><ellipse cx="30" cy="87.4453" fill="#ADD1B2" rx="11" ry="11" style="stroke:#181818;stroke-width:1.0;"/><path d="M32.9688,93.0859 Q32.3906,93.3828 31.75,93.5313 Q31.1094,93.6797 30.4063,93.6797 Q27.9063,93.6797 26.5859,92.0313 Q25.2656,90.3828 25.2656,87.2578 Q25.2656,84.1328 26.5859,82.4766 Q27.9063,80.8203 30.4063,80.8203 Q31.1094,80.8203 31.7578,80.9766 Q32.4063,81.1328 32.9688,81.4297 L32.9688,84.1484 Q32.3438,83.5703 31.75,83.2969 Q31.1563,83.0234 30.5313,83.0234 Q29.1875,83.0234 28.5,84.0938 Q27.8125,85.1641 27.8125,87.2578 Q27.8125,89.3516 28.5,90.4219 Q29.1875,91.4922 30.5313,91.4922 Q31.1563,91.4922 31.75,91.2188 Q32.3438,90.9453 32.9688,90.3672 L32.9688,93.0859 Z " fill="#000000"/><text fill="#000000" font-family="sans-serif" font-size="14" lengthAdjust="spacing" textLength="132" x="54" y="92.292">Feedback Manager</text><line style="stroke:#181818;stroke-width:0.5;" x1="16" x2="198" y1="110.5938" y2="110.5938"/><line style="stroke:#181818;stroke-width:0.5;" x1="16" x2="198" y1="118.5938" y2="118.5938"/><ellipse cx="26" cy="129.5938" fill="#84BE84" rx="3" ry="3" style="stroke:#038048;stroke-width:1.0;"/><text fill="#000000" font-family="sans-serif" font-size="14" lengthAdjust="spacing" textLength="134" x="45" y="145.5889">fb_???( ...params... )</text></g><!--MD5=[0714e9a331ae64015fb98ee33b66f9e9]
entity SRV_FEEDBACK--><g id="elem_SRV_FEEDBACK"><ellipse cx="107" cy="327.2969" fill="#F1F1F1" rx="8" ry="8" style="stroke:#181818;stroke-width:0.5;"/><text fill="#000000" font-family="sans-serif" font-size="14" lengthAdjust="spacing" textLength="202" x="6" y="367.292">/robocluedo/action_feedback</text></g><!--MD5=[e8cf7b2041f0c75205a763958a2ec506]
link FEEDBACK to SRV_FEEDBACK--><g id="link_FEEDBACK_SRV_FEEDBACK"><path codeLine="15" d="M107,163.3169 C107,211.7969 107,283.2369 107,312.7669 " fill="none" id="FEEDBACK-to-SRV_FEEDBACK" style="stroke:#181818;stroke-width:1.0;"/><polygon fill="#181818" points="107,318.0869,111,309.0869,107,313.0869,103,309.0869,107,318.0869" style="stroke:#181818;stroke-width:1.0;"/><path d="M112,198.2969 L112,243.2969 L425,243.2969 L425,208.2969 L415,198.2969 L112,198.2969 " fill="#FEFFDD" style="stroke:#181818;stroke-width:0.5;"/><path d="M415,198.2969 L415,208.2969 L425,208.2969 L415,198.2969 " fill="#FEFFDD" style="stroke:#181818;stroke-width:0.5;"/><text fill="#000000" font-family="sans-serif" font-size="13" lengthAdjust="spacing" textLength="272" x="128" y="225.3638">robocluedo_rosplan_msgs/ActionFeedback</text></g><!--MD5=[9c10efe57e63c65cc805b3b199591f3a]
@startuml

''' INFOS
title ROSPlan feedback manager
skinparam Padding 10
allow_mixing


''' COMPONENTS
class "Feedback Manager" as FEEDBACK
{
  + fb_???( ...params... )
}

() "/robocluedo/action_feedback" as SRV_FEEDBACK
FEEDBACK - -> SRV_FEEDBACK
note on link: robocluedo_rosplan_msgs/ActionFeedback


''' CONNECTIONS
' ...

@enduml

@startuml

title ROSPlan feedback manager
skinparam Padding 10
allow_mixing


class "Feedback Manager" as FEEDBACK
{
  + fb_???( ...params... )
}

() "/robocluedo/action_feedback" as SRV_FEEDBACK
FEEDBACK - -> SRV_FEEDBACK
note on link: robocluedo_rosplan_msgs/ActionFeedback



@enduml

PlantUML version 1.2022.6(Tue Jun 21 17:34:49 UTC 2022)
(GPL source distribution)
Java Runtime: Java(TM) SE Runtime Environment
JVM: Java HotSpot(TM) 64-Bit Server VM
Default Encoding: UTF-8
Language: en
Country: US
--></g></svg>