<?xml version="1.0" encoding="UTF-8" standalone="no"?><svg xmlns="http://www.w3.org/2000/svg" xmlns:xlink="http://www.w3.org/1999/xlink" contentStyleType="text/css" height="650px" preserveAspectRatio="none" style="width:2017px;height:650px;background:#FFFFFF;" version="1.1" viewBox="0 0 2017 650" width="2017px" zoomAndPan="magnify"><defs/><g><rect height="42.2969" style="stroke:#00000000;stroke-width:1.0;fill:none;" width="125" x="939.25" y="5"/><text fill="#000000" font-family="sans-serif" font-size="14" font-weight="bold" lengthAdjust="spacing" textLength="99" x="952.25" y="30.9951">NODE bug_m</text><!--MD5=[39c4eee9471449e046008ca5703679c3]
cluster PARAMETERS--><g id="cluster_PARAMETERS"><path d="M1042.5,346.2969 C1042.5,336.2969 1223,336.2969 1223,336.2969 C1223,336.2969 1403.5,336.2969 1403.5,346.2969 L1403.5,623.2969 C1403.5,633.2969 1223,633.2969 1223,633.2969 C1223,633.2969 1042.5,633.2969 1042.5,623.2969 L1042.5,346.2969 " style="stroke:#181818;stroke-width:1.0;fill:none;"/><path d="M1042.5,346.2969 C1042.5,356.2969 1223,356.2969 1223,356.2969 C1223,356.2969 1403.5,356.2969 1403.5,346.2969 " fill="none" style="stroke:#181818;stroke-width:1.0;"/><text fill="#000000" font-family="sans-serif" font-size="14" font-weight="bold" lengthAdjust="spacing" textLength="176" x="1135" y="379.292">ROS parameter server</text></g><!--MD5=[01bf3e4363d59cfe4feb1f9f5aa6a0d4]
cluster NODE_BUG_M--><g id="cluster_NODE_BUG_M"><rect height="177" rx="2.5" ry="2.5" style="stroke:#181818;stroke-width:1.0;fill:none;" width="527" x="928.5" y="60.2969"/><rect height="10" style="stroke:#181818;stroke-width:1.0;fill:none;" width="15" x="1435.5" y="65.2969"/><rect height="2" style="stroke:#181818;stroke-width:1.0;fill:none;" width="4" x="1433.5" y="67.2969"/><rect height="2" style="stroke:#181818;stroke-width:1.0;fill:none;" width="4" x="1433.5" y="71.2969"/><text fill="#000000" font-family="sans-serif" font-size="14" font-style="italic" lengthAdjust="spacing" textLength="104" x="1140" y="94.292">«ROSPy node»</text><text fill="#000000" font-family="sans-serif" font-size="14" font-weight="bold" lengthAdjust="spacing" textLength="51" x="1166.5" y="126.5889">bug_m</text></g><!--MD5=[3d2d0cdc5a87e8d33dbbdf625e1e368a]
entity des_pos_x--><g id="elem_des_pos_x"><polygon fill="#F1F1F1" points="1086,420.2969,1096,410.2969,1215,410.2969,1215,462.5938,1205,472.5938,1086,472.5938,1086,420.2969" style="stroke:#181818;stroke-width:0.5;"/><line style="stroke:#181818;stroke-width:0.5;" x1="1205" x2="1215" y1="420.2969" y2="410.2969"/><line style="stroke:#181818;stroke-width:0.5;" x1="1086" x2="1205" y1="420.2969" y2="420.2969"/><line style="stroke:#181818;stroke-width:0.5;" x1="1205" x2="1205" y1="420.2969" y2="472.5938"/><text fill="#000000" font-family="sans-serif" font-size="14" lengthAdjust="spacing" textLength="73" x="1109" y="451.292">des_pos_x</text></g><!--MD5=[f8ee79e2f34056c410e55b7856b01451]
entity des_pos_y--><g id="elem_des_pos_y"><polygon fill="#F1F1F1" points="1250,420.2969,1260,410.2969,1379,410.2969,1379,462.5938,1369,472.5938,1250,472.5938,1250,420.2969" style="stroke:#181818;stroke-width:0.5;"/><line style="stroke:#181818;stroke-width:0.5;" x1="1369" x2="1379" y1="420.2969" y2="410.2969"/><line style="stroke:#181818;stroke-width:0.5;" x1="1250" x2="1369" y1="420.2969" y2="420.2969"/><line style="stroke:#181818;stroke-width:0.5;" x1="1369" x2="1369" y1="420.2969" y2="472.5938"/><text fill="#000000" font-family="sans-serif" font-size="14" lengthAdjust="spacing" textLength="73" x="1273" y="451.292">des_pos_y</text></g><!--MD5=[acc9675f3f958e31865bb2808a39cf41]
entity des_yaw--><g id="elem_des_yaw"><polygon fill="#F1F1F1" points="1093,557.2969,1103,547.2969,1208,547.2969,1208,599.5938,1198,609.5938,1093,609.5938,1093,557.2969" style="stroke:#181818;stroke-width:0.5;"/><line style="stroke:#181818;stroke-width:0.5;" x1="1198" x2="1208" y1="557.2969" y2="547.2969"/><line style="stroke:#181818;stroke-width:0.5;" x1="1093" x2="1198" y1="557.2969" y2="557.2969"/><line style="stroke:#181818;stroke-width:0.5;" x1="1198" x2="1198" y1="557.2969" y2="609.5938"/><text fill="#000000" font-family="sans-serif" font-size="14" lengthAdjust="spacing" textLength="59" x="1116" y="588.292">des_yaw</text></g><!--MD5=[8e1eacda4580b15fb4a71e0bfab2db93]
entity NODE_BUG_M.READ_ODOM--><g id="elem_NODE_BUG_M.READ_ODOM"><polygon fill="#F1F1F1" points="972,161.2969,982,151.2969,1103,151.2969,1103,203.5938,1093,213.5938,972,213.5938,972,161.2969" style="stroke:#181818;stroke-width:0.5;"/><line style="stroke:#181818;stroke-width:0.5;" x1="1093" x2="1103" y1="161.2969" y2="151.2969"/><line style="stroke:#181818;stroke-width:0.5;" x1="972" x2="1093" y1="161.2969" y2="161.2969"/><line style="stroke:#181818;stroke-width:0.5;" x1="1093" x2="1093" y1="161.2969" y2="213.5938"/><text fill="#000000" font-family="sans-serif" font-size="14" lengthAdjust="spacing" textLength="75" x="995" y="192.292">clbk_odom</text></g><!--MD5=[05030d403f5f485f3569c237755bb83a]
entity NODE_BUG_M.LISTENER_LASER--><g id="elem_NODE_BUG_M.LISTENER_LASER"><polygon fill="#F1F1F1" points="1138.5,161.2969,1148.5,151.2969,1262.5,151.2969,1262.5,203.5938,1252.5,213.5938,1138.5,213.5938,1138.5,161.2969" style="stroke:#181818;stroke-width:0.5;"/><line style="stroke:#181818;stroke-width:0.5;" x1="1252.5" x2="1262.5" y1="161.2969" y2="151.2969"/><line style="stroke:#181818;stroke-width:0.5;" x1="1138.5" x2="1252.5" y1="161.2969" y2="161.2969"/><line style="stroke:#181818;stroke-width:0.5;" x1="1252.5" x2="1252.5" y1="161.2969" y2="213.5938"/><text fill="#000000" font-family="sans-serif" font-size="14" lengthAdjust="spacing" textLength="68" x="1161.5" y="192.292">clbk_laser</text></g><!--MD5=[405c75ce201b9d8a05cb609819e52244]
entity NODE_BUG_M.SWITCH--><g id="elem_NODE_BUG_M.SWITCH"><polygon fill="#F1F1F1" points="1297.5,161.2969,1307.5,151.2969,1431.5,151.2969,1431.5,203.5938,1421.5,213.5938,1297.5,213.5938,1297.5,161.2969" style="stroke:#181818;stroke-width:0.5;"/><line style="stroke:#181818;stroke-width:0.5;" x1="1421.5" x2="1431.5" y1="161.2969" y2="151.2969"/><line style="stroke:#181818;stroke-width:0.5;" x1="1297.5" x2="1421.5" y1="161.2969" y2="161.2969"/><line style="stroke:#181818;stroke-width:0.5;" x1="1421.5" x2="1421.5" y1="161.2969" y2="213.5938"/><text fill="#000000" font-family="sans-serif" font-size="14" lengthAdjust="spacing" textLength="78" x="1320.5" y="192.292">bug_switch</text></g><!--MD5=[9c0f7ecf381f88014a7ea481e5efb054]
entity TOPIC_ODOM--><g id="elem_TOPIC_ODOM"><ellipse cx="1465.5" cy="441.2969" fill="#F1F1F1" rx="8" ry="8" style="stroke:#181818;stroke-width:0.5;"/><text fill="#000000" font-family="sans-serif" font-size="14" lengthAdjust="spacing" textLength="45" x="1443" y="479.292">/odom</text></g><!--MD5=[cf4c761246342468269b9fda4f668b9a]
entity TOPIC_LASER--><g id="elem_TOPIC_LASER"><ellipse cx="1573.5" cy="441.2969" fill="#F1F1F1" rx="8" ry="8" style="stroke:#181818;stroke-width:0.5;"/><text fill="#000000" font-family="sans-serif" font-size="14" lengthAdjust="spacing" textLength="38" x="1554.5" y="479.292">/scan</text></g><!--MD5=[a29493d5c3d449fd805f8038216f6f38]
entity TOPIC_VEL--><g id="elem_TOPIC_VEL"><ellipse cx="36.5" cy="441.2969" fill="#F1F1F1" rx="8" ry="8" style="stroke:#181818;stroke-width:0.5;"/><text fill="#000000" font-family="sans-serif" font-size="14" lengthAdjust="spacing" textLength="61" x="6" y="479.292">/cmd_vel</text></g><!--MD5=[e15ecfc50d5ee6f9b14c4c0ec877aca4]
entity TOPIC_BUG_M_SIGNAL--><g id="elem_TOPIC_BUG_M_SIGNAL"><ellipse cx="294.5" cy="441.2969" fill="#F1F1F1" rx="8" ry="8" style="stroke:#181818;stroke-width:0.5;"/><text fill="#000000" font-family="sans-serif" font-size="14" lengthAdjust="spacing" textLength="99" x="245" y="479.292">/bug_m_signal</text></g><!--MD5=[e6d9a3d81fc487a20f0b2c2970d6073d]
entity SRV_GOTO_SWITCH--><g id="elem_SRV_GOTO_SWITCH"><ellipse cx="502.5" cy="441.2969" fill="#F1F1F1" rx="8" ry="8" style="stroke:#181818;stroke-width:0.5;"/><text fill="#000000" font-family="sans-serif" font-size="14" lengthAdjust="spacing" textLength="137" x="434" y="479.292">/go_to_point_switch</text></g><!--MD5=[0de5e037182cbe7d3ce53b2ba1c49cc1]
entity SRV_WALL_SWITCH--><g id="elem_SRV_WALL_SWITCH"><ellipse cx="719.5" cy="441.2969" fill="#F1F1F1" rx="8" ry="8" style="stroke:#181818;stroke-width:0.5;"/><text fill="#000000" font-family="sans-serif" font-size="14" lengthAdjust="spacing" textLength="141" x="649" y="479.292">/wall_follower_switch</text></g><!--MD5=[ce0550ece9e8498f5b487be6600f7375]
entity SRV_HEAD_ORIENT_SWITCH--><g id="elem_SRV_HEAD_ORIENT_SWITCH"><ellipse cx="930.5" cy="441.2969" fill="#F1F1F1" rx="8" ry="8" style="stroke:#181818;stroke-width:0.5;"/><text fill="#000000" font-family="sans-serif" font-size="14" lengthAdjust="spacing" textLength="138" x="861.5" y="479.292">/head_orient_switch</text></g><!--MD5=[7b41821c8cfb3c757c9844b2404b064c]
entity SRV_BUG_SWITCH--><g id="elem_SRV_BUG_SWITCH"><ellipse cx="1848.5" cy="441.2969" fill="#F1F1F1" rx="8" ry="8" style="stroke:#181818;stroke-width:0.5;"/><text fill="#000000" font-family="sans-serif" font-size="14" lengthAdjust="spacing" textLength="83" x="1807" y="479.292">/bug_switch</text></g><!--MD5=[fcd0e82e8f507c8ad0b4edc4ec707135]
reverse link NODE_BUG_M to PARAMETERS--><g id="link_NODE_BUG_M_PARAMETERS"><path d="M943.5444,237.5445 C943.5964,237.6546 943.6487,237.7645 943.7013,237.8742 C943.8065,238.0936 943.9132,238.3123 944.0211,238.5301 C944.2371,238.9658 944.4585,239.3983 944.6855,239.8273 C945.5936,241.5433 946.5912,243.2038 947.6867,244.7912 C949.8777,247.9659 952.46,250.8481 955.5,253.2969 C969.28,264.3969 1102.31,248.4769 1114.5,261.2969 C1130.12,277.7269 1129.06,294.9269 1114.5,312.2969 C1101.45,327.8669 1083.73,305.7969 1069.5,320.2969 C1064.8463,325.0394 1061.0502,330.4316 1057.9711,336.2418 " fill="none" id="NODE_BUG_M-backto-PARAMETERS" style="stroke:#181818;stroke-width:1.0;"/><polygon fill="#181818" points="943.5444,237.5445,943.7686,247.3909,945.6786,242.0662,951.0032,243.9762,943.5444,237.5445" style="stroke:#181818;stroke-width:1.0;"/><text fill="#000000" font-family="sans-serif" font-size="13" lengthAdjust="spacing" textLength="21" x="907.48" y="203.5038">get</text></g><!--MD5=[50606cfa1abf67bc0bfa867db0e0c6f4]
reverse link NODE_BUG_M.READ_ODOM to TOPIC_ODOM--><g id="link_NODE_BUG_M.READ_ODOM_TOPIC_ODOM"><path codeLine="24" d="M1071.61,217.0369 C1086.04,229.8369 1103.64,243.6369 1121.5,253.2969 C1126.43,255.9669 1309,311.1969 1314.5,312.2969 C1332.24,315.8469 1380.28,310.5269 1395.5,320.2969 C1437.72,347.3969 1457.54,409.6769 1463.49,432.0769 " fill="none" id="NODE_BUG_M.READ_ODOM-backto-TOPIC_ODOM" style="stroke:#181818;stroke-width:1.0;"/><polygon fill="#181818" points="1067.62,213.4569,1071.6338,222.4507,1071.3365,216.8017,1076.9855,216.5044,1067.62,213.4569" style="stroke:#181818;stroke-width:1.0;"/><path d="M1319.5,266.2969 L1319.5,307.2969 L1521.5,307.2969 L1521.5,276.2969 L1511.5,266.2969 L1319.5,266.2969 " fill="#FEFFDD" style="stroke:#181818;stroke-width:0.5;"/><path d="M1511.5,266.2969 L1511.5,276.2969 L1521.5,276.2969 L1511.5,266.2969 " fill="#FEFFDD" style="stroke:#181818;stroke-width:0.5;"/><text fill="#000000" font-family="sans-serif" font-size="13" lengthAdjust="spacing" textLength="165" x="1333.5" y="291.3638">nav_msgs/Odometry.msg</text><text fill="#000000" font-family="sans-serif" font-size="13" lengthAdjust="spacing" textLength="23" x="1038.4453" y="241.5294">sub</text></g><!--MD5=[7d06c8ae2e1af6d4d11e89a8b0079aa3]
reverse link NODE_BUG_M.LISTENER_LASER to TOPIC_LASER--><g id="link_NODE_BUG_M.LISTENER_LASER_TOPIC_LASER"><path codeLine="28" d="M1229.55,217.4769 C1243.42,231.2669 1261.19,245.6969 1280.5,253.2969 C1306.77,263.6469 1512.79,243.2369 1534.5,261.2969 C1587.56,305.4369 1578.69,403.3569 1574.75,432.1769 " fill="none" id="NODE_BUG_M.LISTENER_LASER-backto-TOPIC_LASER" style="stroke:#181818;stroke-width:1.0;"/><polygon fill="#181818" points="1225.74,213.6069,1229.2198,222.8205,1229.254,217.1638,1234.9108,217.1981,1225.74,213.6069" style="stroke:#181818;stroke-width:1.0;"/><path d="M1570.5,266.2969 L1570.5,307.2969 L1795.5,307.2969 L1795.5,276.2969 L1785.5,266.2969 L1570.5,266.2969 " fill="#FEFFDD" style="stroke:#181818;stroke-width:0.5;"/><path d="M1785.5,266.2969 L1785.5,276.2969 L1795.5,276.2969 L1785.5,266.2969 " fill="#FEFFDD" style="stroke:#181818;stroke-width:0.5;"/><text fill="#000000" font-family="sans-serif" font-size="13" lengthAdjust="spacing" textLength="188" x="1584.5" y="291.3638">sensor_msgs/LaserScan.msg</text><text fill="#000000" font-family="sans-serif" font-size="13" lengthAdjust="spacing" textLength="23" x="1195.7266" y="241.7051">sub</text></g><!--MD5=[2cbf74590d6c00b3fca55a4630363409]
link NODE_BUG_M to TOPIC_VEL--><g id="link_NODE_BUG_M_TOPIC_VEL"><path codeLine="32" d="M927.7439,183.4699 C927.0296,183.4848 926.2736,183.5008 925.4764,183.5177 C919.0991,183.6534 910.0921,183.8538 898.8146,184.1272 C876.2595,184.6741 844.622,185.5132 806.7753,186.7108 C731.0819,189.1059 630.5513,192.935 528.1675,198.7281 C323.4,210.3144 111.22,229.7569 75.5,261.2969 C26.59,304.4769 31.02,393.3869 34.71,427.0169 " fill="none" id="NODE_BUG_M-to-TOPIC_VEL" style="stroke:#181818;stroke-width:1.0;"/><polygon fill="#181818" points="35.34,432.2769,38.2595,422.8707,34.755,427.3112,30.3144,423.8067,35.34,432.2769" style="stroke:#181818;stroke-width:1.0;"/><path d="M80.5,266.2969 L80.5,307.2969 L288.5,307.2969 L288.5,276.2969 L278.5,266.2969 L80.5,266.2969 " fill="#FEFFDD" style="stroke:#181818;stroke-width:0.5;"/><path d="M278.5,266.2969 L278.5,276.2969 L288.5,276.2969 L278.5,266.2969 " fill="#FEFFDD" style="stroke:#181818;stroke-width:0.5;"/><text fill="#000000" font-family="sans-serif" font-size="13" lengthAdjust="spacing" textLength="171" x="94.5" y="291.3638">geometry_msgs/Twist.msg</text><text fill="#000000" font-family="sans-serif" font-size="13" lengthAdjust="spacing" textLength="24" x="904.36" y="172.3638">pub</text></g><!--MD5=[084004d7efffa6299b3c092e29c41db9]
reverse link NODE_BUG_M to TOPIC_BUG_M_SIGNAL--><g id="link_NODE_BUG_M_TOPIC_BUG_M_SIGNAL"><path codeLine="36" d="M927.8174,183.1059 C927.2531,183.0949 926.6626,183.0836 926.0466,183.0721 C924.8144,183.0491 923.4797,183.0253 922.0457,183.001 C919.1778,182.9525 915.9131,182.9024 912.2786,182.8541 C897.7405,182.661 877.2867,182.4982 852.6522,182.5933 C803.3831,182.7834 737.3912,184.005 668.5575,188.0781 C530.89,196.2244 381.855,215.7769 332.5,261.2969 C282.06,307.8169 289.68,403.2669 293.3,431.9569 " fill="none" id="NODE_BUG_M-backto-TOPIC_BUG_M_SIGNAL" style="stroke:#181818;stroke-width:1.0;"/><polygon fill="#181818" points="927.8174,183.1059,918.8971,178.9312,922.8184,183.0084,918.7411,186.9296,927.8174,183.1059" style="stroke:#181818;stroke-width:1.0;"/><path d="M337.5,266.2969 L337.5,307.2969 L495.5,307.2969 L495.5,276.2969 L485.5,266.2969 L337.5,266.2969 " fill="#FEFFDD" style="stroke:#181818;stroke-width:0.5;"/><path d="M485.5,266.2969 L485.5,276.2969 L495.5,276.2969 L485.5,266.2969 " fill="#FEFFDD" style="stroke:#181818;stroke-width:0.5;"/><text fill="#000000" font-family="sans-serif" font-size="13" lengthAdjust="spacing" textLength="121" x="351.5" y="291.3638">std_srvs/Empty.srv</text><text fill="#000000" font-family="sans-serif" font-size="13" lengthAdjust="spacing" textLength="10" x="944.41" y="203.3638">cl</text></g><!--MD5=[d2b55514db171e2cbb2b77beeba89690]
reverse link NODE_BUG_M to SRV_GOTO_SWITCH--><g id="link_NODE_BUG_M_SRV_GOTO_SWITCH"><path codeLine="40" d="M928.2798,183.6898 C927.837,183.7126 927.3774,183.7364 926.9013,183.7613 C924.9971,183.8608 922.8295,183.9774 920.4165,184.112 C910.7648,184.6506 897.188,185.4788 880.843,186.6644 C848.1528,189.0356 804.3894,192.8369 758.8063,198.6119 C667.64,210.1619 569.195,229.6069 537.5,261.2969 C489.14,309.6569 497.47,403.8469 501.25,432.0969 " fill="none" id="NODE_BUG_M-backto-SRV_GOTO_SWITCH" style="stroke:#181818;stroke-width:1.0;"/><polygon fill="#181818" points="928.2798,183.6898,919.0863,180.1572,923.2864,183.9466,919.4971,188.1467,928.2798,183.6898" style="stroke:#181818;stroke-width:1.0;"/><path d="M542.5,266.2969 L542.5,307.2969 L709.5,307.2969 L709.5,276.2969 L699.5,266.2969 L542.5,266.2969 " fill="#FEFFDD" style="stroke:#181818;stroke-width:0.5;"/><path d="M699.5,266.2969 L699.5,276.2969 L709.5,276.2969 L699.5,266.2969 " fill="#FEFFDD" style="stroke:#181818;stroke-width:0.5;"/><text fill="#000000" font-family="sans-serif" font-size="13" lengthAdjust="spacing" textLength="130" x="556.5" y="291.3638">std_srvs/SetBool.srv</text><text fill="#000000" font-family="sans-serif" font-size="13" lengthAdjust="spacing" textLength="10" x="918.44" y="203.3638">cl</text></g><!--MD5=[7fa9dd9e3b991b909dd28aede12b03b9]
reverse link NODE_BUG_M to SRV_WALL_SWITCH--><g id="link_NODE_BUG_M_SRV_WALL_SWITCH"><path codeLine="44" d="M928.1665,183.9148 C928.0304,183.9271 927.8928,183.9396 927.7538,183.9524 C927.1975,184.0035 926.6172,184.0583 926.0138,184.1169 C924.807,184.234 923.5076,184.3666 922.1217,184.5163 C919.3498,184.8157 916.232,185.1835 912.8172,185.6336 C899.1581,187.4341 880.7488,190.5512 860.7325,195.8706 C820.7,206.5094 774.24,225.9569 746.5,261.2969 C704.78,314.4469 714.09,404.5769 718.15,432.0869 " fill="none" id="NODE_BUG_M-backto-SRV_WALL_SWITCH" style="stroke:#181818;stroke-width:1.0;"/><polygon fill="#181818" points="928.1665,183.9148,918.8423,180.7431,923.1869,184.3659,919.5641,188.7105,928.1665,183.9148" style="stroke:#181818;stroke-width:1.0;"/><path d="M751.5,266.2969 L751.5,307.2969 L918.5,307.2969 L918.5,276.2969 L908.5,266.2969 L751.5,266.2969 " fill="#FEFFDD" style="stroke:#181818;stroke-width:0.5;"/><path d="M908.5,266.2969 L908.5,276.2969 L918.5,276.2969 L908.5,266.2969 " fill="#FEFFDD" style="stroke:#181818;stroke-width:0.5;"/><text fill="#000000" font-family="sans-serif" font-size="13" lengthAdjust="spacing" textLength="130" x="765.5" y="291.3638">std_srvs/SetBool.srv</text><text fill="#000000" font-family="sans-serif" font-size="13" lengthAdjust="spacing" textLength="10" x="944.4" y="172.3638">cl</text></g><!--MD5=[c8ae8bb65eb275d034e3808df72582ff]
reverse link NODE_BUG_M to SRV_HEAD_ORIENT_SWITCH--><g id="link_NODE_BUG_M_SRV_HEAD_ORIENT_SWITCH"><path codeLine="48" d="M934.2693,237.3531 C934.2644,237.4891 934.2596,237.6252 934.2547,237.7613 C934.245,238.0335 934.2353,238.3059 934.2257,238.5785 C934.187,239.6686 934.1488,240.7609 934.111,241.8539 C934.0354,244.04 933.9617,246.229 933.8906,248.4094 C933.7483,252.7703 933.6163,257.0969 933.5,261.2969 C931.68,327.1669 930.82,406.6969 930.57,432.0869 " fill="none" id="NODE_BUG_M-backto-SRV_HEAD_ORIENT_SWITCH" style="stroke:#181818;stroke-width:1.0;"/><polygon fill="#181818" points="934.2693,237.3531,929.9503,246.2044,934.0906,242.3499,937.9451,246.4903,934.2693,237.3531" style="stroke:#181818;stroke-width:1.0;"/><path d="M938.5,266.2969 L938.5,307.2969 L1105.5,307.2969 L1105.5,276.2969 L1095.5,266.2969 L938.5,266.2969 " fill="#FEFFDD" style="stroke:#181818;stroke-width:0.5;"/><path d="M1095.5,266.2969 L1095.5,276.2969 L1105.5,276.2969 L1095.5,266.2969 " fill="#FEFFDD" style="stroke:#181818;stroke-width:0.5;"/><text fill="#000000" font-family="sans-serif" font-size="13" lengthAdjust="spacing" textLength="130" x="952.5" y="291.3638">std_srvs/SetBool.srv</text><text fill="#000000" font-family="sans-serif" font-size="13" lengthAdjust="spacing" textLength="10" x="944.49" y="203.4938">cl</text></g><!--MD5=[f9c5af0ec59368466f7e2f9d4180d47f]
link NODE_BUG_M.SWITCH to SRV_BUG_SWITCH--><g id="link_NODE_BUG_M.SWITCH_SRV_BUG_SWITCH"><path codeLine="52" d="M1431.9,186.1969 C1542.49,192.3869 1755.51,210.6869 1808.5,261.2969 C1855.52,306.2069 1852.98,393.3469 1850.03,426.7869 " fill="none" id="NODE_BUG_M.SWITCH-to-SRV_BUG_SWITCH" style="stroke:#181818;stroke-width:1.0;"/><polygon fill="#181818" points="1849.52,432.0269,1854.3762,423.4585,1850.0062,427.0506,1846.4141,422.6806,1849.52,432.0269" style="stroke:#181818;stroke-width:1.0;"/><path d="M1843.5,266.2969 L1843.5,307.2969 L2010.5,307.2969 L2010.5,276.2969 L2000.5,266.2969 L1843.5,266.2969 " fill="#FEFFDD" style="stroke:#181818;stroke-width:0.5;"/><path d="M2000.5,266.2969 L2000.5,276.2969 L2010.5,276.2969 L2000.5,266.2969 " fill="#FEFFDD" style="stroke:#181818;stroke-width:0.5;"/><text fill="#000000" font-family="sans-serif" font-size="13" lengthAdjust="spacing" textLength="130" x="1857.5" y="291.3638">std_srvs/SetBool.srv</text><text fill="#000000" font-family="sans-serif" font-size="13" lengthAdjust="spacing" textLength="19" x="1447.4614" y="174.2233">srv</text></g><!--MD5=[9edd299b346e44f6cbd2793e5bad5ba5]
@startuml

''' INFOS
title NODE bug_m
skinparam Padding 8
allow_mixing


''' COMPONENTS
database "ROS parameter server" as PARAMETERS {
	node "des_pos_x"
	node "des_pos_y"
	node "des_yaw"
}

component "bug_m" <<ROSPy node>> as NODE_BUG_M {
	node "clbk_odom" as NODE_BUG_M.READ_ODOM
	node "clbk_laser" as NODE_BUG_M.LISTENER_LASER
	node "bug_switch" as NODE_BUG_M.SWITCH
}

NODE_BUG_M "get" <- - PARAMETERS

() "/odom" as TOPIC_ODOM
NODE_BUG_M.READ_ODOM "sub" <- - TOPIC_ODOM
note on link: nav_msgs/Odometry.msg

() "/scan" as TOPIC_LASER
NODE_BUG_M.LISTENER_LASER "sub" <- - TOPIC_LASER
note on link: sensor_msgs/LaserScan.msg

() "/cmd_vel" as TOPIC_VEL
NODE_BUG_M "pub" - -> TOPIC_VEL
note on link: geometry_msgs/Twist.msg

() "/bug_m_signal" as TOPIC_BUG_M_SIGNAL
NODE_BUG_M "cl" <- - TOPIC_BUG_M_SIGNAL
note on link: std_srvs/Empty.srv

() "/go_to_point_switch" as SRV_GOTO_SWITCH
NODE_BUG_M "cl" <- - SRV_GOTO_SWITCH
note on link: std_srvs/SetBool.srv

() "/wall_follower_switch" as SRV_WALL_SWITCH
NODE_BUG_M "cl" <- - SRV_WALL_SWITCH
note on link: std_srvs/SetBool.srv

() "/head_orient_switch" as SRV_HEAD_ORIENT_SWITCH
NODE_BUG_M "cl" <- - SRV_HEAD_ORIENT_SWITCH
note on link: std_srvs/SetBool.srv

() "/bug_switch" as SRV_BUG_SWITCH
NODE_BUG_M.SWITCH "srv" - -> SRV_BUG_SWITCH
note on link: std_srvs/SetBool.srv

@enduml

@startuml

title NODE bug_m
skinparam Padding 8
allow_mixing


database "ROS parameter server" as PARAMETERS {
	node "des_pos_x"
	node "des_pos_y"
	node "des_yaw"
}

component "bug_m" <<ROSPy node>> as NODE_BUG_M {
	node "clbk_odom" as NODE_BUG_M.READ_ODOM
	node "clbk_laser" as NODE_BUG_M.LISTENER_LASER
	node "bug_switch" as NODE_BUG_M.SWITCH
}

NODE_BUG_M "get" <- - PARAMETERS

() "/odom" as TOPIC_ODOM
NODE_BUG_M.READ_ODOM "sub" <- - TOPIC_ODOM
note on link: nav_msgs/Odometry.msg

() "/scan" as TOPIC_LASER
NODE_BUG_M.LISTENER_LASER "sub" <- - TOPIC_LASER
note on link: sensor_msgs/LaserScan.msg

() "/cmd_vel" as TOPIC_VEL
NODE_BUG_M "pub" - -> TOPIC_VEL
note on link: geometry_msgs/Twist.msg

() "/bug_m_signal" as TOPIC_BUG_M_SIGNAL
NODE_BUG_M "cl" <- - TOPIC_BUG_M_SIGNAL
note on link: std_srvs/Empty.srv

() "/go_to_point_switch" as SRV_GOTO_SWITCH
NODE_BUG_M "cl" <- - SRV_GOTO_SWITCH
note on link: std_srvs/SetBool.srv

() "/wall_follower_switch" as SRV_WALL_SWITCH
NODE_BUG_M "cl" <- - SRV_WALL_SWITCH
note on link: std_srvs/SetBool.srv

() "/head_orient_switch" as SRV_HEAD_ORIENT_SWITCH
NODE_BUG_M "cl" <- - SRV_HEAD_ORIENT_SWITCH
note on link: std_srvs/SetBool.srv

() "/bug_switch" as SRV_BUG_SWITCH
NODE_BUG_M.SWITCH "srv" - -> SRV_BUG_SWITCH
note on link: std_srvs/SetBool.srv

@enduml

PlantUML version 1.2022.6(Tue Jun 21 17:34:49 UTC 2022)
(GPL source distribution)
Java Runtime: Java(TM) SE Runtime Environment
JVM: Java HotSpot(TM) 64-Bit Server VM
Default Encoding: UTF-8
Language: en
Country: US
--></g></svg>