<?xml version="1.0" encoding="UTF-8" standalone="no"?><svg xmlns="http://www.w3.org/2000/svg" xmlns:xlink="http://www.w3.org/1999/xlink" contentStyleType="text/css" height="875px" preserveAspectRatio="none" style="width:835px;height:875px;background:#FFFFFF;" version="1.1" viewBox="0 0 835 875" width="835px" zoomAndPan="magnify"><defs/><g><g id="REPLAN"><rect fill="#F1F1F1" height="52.5938" rx="12.5" ry="12.5" style="stroke:#181818;stroke-width:0.5;" width="105" x="357.01" y="103"/><line style="stroke:#181818;stroke-width:0.5;" x1="357.01" x2="462.01" y1="129.2969" y2="129.2969"/><text fill="#000000" font-family="sans-serif" font-size="14" lengthAdjust="spacing" textLength="54" x="382.51" y="120.9951">REPLAN</text><text fill="#000000" font-family="sans-serif" font-size="14" lengthAdjust="spacing" textLength="85" x="362.01" y="147.292">clean the kb</text></g><g id="COLLECT"><rect fill="#F1F1F1" height="68.8906" rx="12.5" ry="12.5" style="stroke:#181818;stroke-width:0.5;" width="160" x="220.51" y="233"/><line style="stroke:#181818;stroke-width:0.5;" x1="220.51" x2="380.51" y1="259.2969" y2="259.2969"/><text fill="#000000" font-family="sans-serif" font-size="14" lengthAdjust="spacing" textLength="63" x="269.01" y="250.9951">COLLECT</text><text fill="#000000" font-family="sans-serif" font-size="14" lengthAdjust="spacing" textLength="136" x="225.51" y="277.292">move the robot and</text><text fill="#000000" font-family="sans-serif" font-size="14" lengthAdjust="spacing" textLength="136" x="229.51" y="293.5889">collect hints around</text></g><g id="ASK_ORACLE"><rect fill="#F1F1F1" height="85.1875" rx="12.5" ry="12.5" style="stroke:#181818;stroke-width:0.5;" width="211" x="528.01" y="687"/><line style="stroke:#181818;stroke-width:0.5;" x1="528.01" x2="739.01" y1="713.2969" y2="713.2969"/><text fill="#000000" font-family="sans-serif" font-size="14" lengthAdjust="spacing" textLength="90" x="588.51" y="704.9951">ASK_ORACLE</text><text fill="#000000" font-family="sans-serif" font-size="14" lengthAdjust="spacing" textLength="160" x="533.01" y="731.292">check if in the ontology</text><text fill="#000000" font-family="sans-serif" font-size="14" lengthAdjust="spacing" textLength="183" x="537.01" y="747.5889">there are valid hypotheses</text><text fill="#000000" font-family="sans-serif" font-size="14" lengthAdjust="spacing" textLength="169" x="537.01" y="763.8857">to propose to the Oracle</text></g><g id="SOLVE"><rect fill="#F1F1F1" height="85.1875" rx="12.5" ry="12.5" style="stroke:#181818;stroke-width:0.5;" width="154" x="329.51" y="525"/><line style="stroke:#181818;stroke-width:0.5;" x1="329.51" x2="483.51" y1="551.2969" y2="551.2969"/><text fill="#000000" font-family="sans-serif" font-size="14" lengthAdjust="spacing" textLength="45" x="384.01" y="542.9951">SOLVE</text><text fill="#000000" font-family="sans-serif" font-size="14" lengthAdjust="spacing" textLength="132" x="334.51" y="569.292">move to the center</text><text fill="#000000" font-family="sans-serif" font-size="14" lengthAdjust="spacing" textLength="126" x="338.51" y="585.5889">ready to introduce</text><text fill="#000000" font-family="sans-serif" font-size="14" lengthAdjust="spacing" textLength="67" x="338.51" y="601.8857">a solution</text></g><g id="ASK_ONTOLOGY"><rect fill="#F1F1F1" height="68.8906" rx="12.5" ry="12.5" style="stroke:#181818;stroke-width:0.5;" width="148" x="206.51" y="379"/><line style="stroke:#181818;stroke-width:0.5;" x1="206.51" x2="354.51" y1="405.2969" y2="405.2969"/><text fill="#000000" font-family="sans-serif" font-size="14" lengthAdjust="spacing" textLength="113" x="224.01" y="396.9951">ASK_ONTOLOGY</text><text fill="#000000" font-family="sans-serif" font-size="14" lengthAdjust="spacing" textLength="128" x="211.51" y="423.292">check the solution</text><text fill="#000000" font-family="sans-serif" font-size="14" lengthAdjust="spacing" textLength="117" x="211.51" y="439.5889">ask to the Oracle</text></g><ellipse cx="409.51" cy="16" fill="#222222" rx="10" ry="10" style="stroke:none;stroke-width:1.0;"/><ellipse cx="633.51" cy="859" fill="none" rx="10" ry="10" style="stroke:#222222;stroke-width:1.0;"/><ellipse cx="634.01" cy="859.5" fill="#222222" rx="6" ry="6" style="stroke:none;stroke-width:1.0;"/><!--MD5=[9db0778cfa153c4eda13c147fe3dae05]
link *start to REPLAN--><g id="link_*start_REPLAN"><path d="M409.51,26.12 C409.51,41.57 409.51,73.52 409.51,97.65 " fill="none" id="*start-to-REPLAN" style="stroke:#181818;stroke-width:1.0;"/><polygon fill="#181818" points="409.51,102.67,413.51,93.67,409.51,97.67,405.51,93.67,409.51,102.67" style="stroke:#181818;stroke-width:1.0;"/><text fill="#000000" font-family="sans-serif" font-size="13" lengthAdjust="spacing" textLength="259" x="410.51" y="69.0669">mission manager begins (like Batman...)</text></g><!--MD5=[e5210cfbcf1e21dcb3d018f4453147c6]
link REPLAN to COLLECT--><g id="link_REPLAN_COLLECT"><path d="M398.3,156.28 C391.38,170.75 381.69,188.7 370.51,203 C363.34,212.16 354.78,221.12 346.14,229.28 " fill="none" id="REPLAN-to-COLLECT" style="stroke:#181818;stroke-width:1.0;"/><polygon fill="#181818" points="342.44,232.72,351.755,229.5215,346.1019,229.3156,346.3079,223.6624,342.44,232.72" style="stroke:#181818;stroke-width:1.0;"/><text fill="#000000" font-family="sans-serif" font-size="13" lengthAdjust="spacing" textLength="97" x="383.51" y="199.0669">still mumbleing</text></g><!--MD5=[e210fc5a8dbfc3eb7dfc295b504ab042]
link COLLECT to REPLAN--><g id="link_COLLECT_REPLAN"><path d="M220.3,251.09 C173.48,238.43 128.16,217.43 153.51,186 C177.92,155.73 283.99,141.13 351.71,134.78 " fill="none" id="COLLECT-to-REPLAN" style="stroke:#181818;stroke-width:1.0;"/><polygon fill="#181818" points="356.92,134.3,347.5924,131.1385,351.9409,134.7565,348.3228,139.1051,356.92,134.3" style="stroke:#181818;stroke-width:1.0;"/><text fill="#000000" font-family="sans-serif" font-size="13" lengthAdjust="spacing" textLength="207" x="154.51" y="199.0669">end of the explorable waypoints!</text></g><!--MD5=[5493b91056ac9d9f81a6d83f208d870c]
link COLLECT to ASK_ONTOLOGY--><g id="link_COLLECT_ASK_ONTOLOGY"><path d="M229.97,302.2 C219.33,310.43 209.83,320.31 203.51,332 C194.93,347.86 202.82,362.85 216.31,375.49 " fill="none" id="COLLECT-to-ASK_ONTOLOGY" style="stroke:#181818;stroke-width:1.0;"/><polygon fill="#181818" points="220.25,378.99,216.1999,370.0124,216.5201,375.6602,210.8723,375.9803,220.25,378.99" style="stroke:#181818;stroke-width:1.0;"/><text fill="#000000" font-family="sans-serif" font-size="13" lengthAdjust="spacing" textLength="146" x="204.51" y="345.0669">arrived at the waypoint</text></g><!--MD5=[c455430a189241e59414955b16661214]
link ASK_ONTOLOGY to COLLECT--><g id="link_ASK_ONTOLOGY_COLLECT"><path d="M332.66,378.87 C341.92,370.32 350.27,360.3 355.51,349 C362.35,334.25 356.31,319.23 346.09,306.23 " fill="none" id="ASK_ONTOLOGY-to-COLLECT" style="stroke:#181818;stroke-width:1.0;"/><polygon fill="#181818" points="342.8,302.26,345.4645,311.7416,345.9911,306.1093,351.6233,306.6359,342.8,302.26" style="stroke:#181818;stroke-width:1.0;"/><text fill="#000000" font-family="sans-serif" font-size="13" lengthAdjust="spacing" textLength="95" x="359.51" y="345.0669">no bright ideas</text></g><!--MD5=[60c8cdad1ce505201cf77df582175779]
link ASK_ONTOLOGY to SOLVE--><g id="link_ASK_ONTOLOGY_SOLVE"><path d="M271.35,448.25 C269.12,463.49 269.34,481.14 277.51,495 C288.35,513.41 305.83,527.41 324.46,537.92 " fill="none" id="ASK_ONTOLOGY-to-SOLVE" style="stroke:#181818;stroke-width:1.0;"/><polygon fill="#181818" points="329.22,540.52,323.2451,532.6906,324.8338,538.1197,319.4046,539.7085,329.22,540.52" style="stroke:#181818;stroke-width:1.0;"/><text fill="#000000" font-family="sans-serif" font-size="13" lengthAdjust="spacing" textLength="226" x="278.51" y="491.0669">at least one possible solution found</text></g><!--MD5=[0b9d7b62a91a64f67addb4c0a0725317]
link SOLVE to REPLAN--><g id="link_SOLVE_REPLAN"><path d="M483.53,526.15 C493.98,517.32 503.25,506.96 509.51,495 C513.01,488.31 509.77,485.55 509.51,478 C505.06,347.99 553.73,299.12 489.51,186 C483.59,175.58 474.82,166.68 465.23,159.25 " fill="none" id="SOLVE-to-REPLAN" style="stroke:#181818;stroke-width:1.0;"/><polygon fill="#181818" points="461.07,156.15,465.8897,164.739,465.0769,159.1408,470.675,158.328,461.07,156.15" style="stroke:#181818;stroke-width:1.0;"/><text fill="#000000" font-family="sans-serif" font-size="13" lengthAdjust="spacing" textLength="178" x="521.51" y="345.0669">need for updating the paths</text></g><!--MD5=[dc8254d5a7772427ee8e690d114f6706]
link REPLAN to SOLVE--><g id="link_REPLAN_SOLVE"><path d="M356.87,136.38 C288.39,144.84 173.38,162.12 138.51,186 C74.83,229.6 66.28,257.96 44.51,332 C6,462.96 205.88,526.31 324.18,551.94 " fill="none" id="REPLAN-to-SOLVE" style="stroke:#181818;stroke-width:1.0;"/><polygon fill="#181818" points="329.4,553.06,321.4495,547.2471,324.5131,552.0026,319.7576,555.0662,329.4,553.06" style="stroke:#181818;stroke-width:1.0;"/><text fill="#000000" font-family="sans-serif" font-size="13" lengthAdjust="spacing" textLength="146" x="45.51" y="345.0669">possible solution ready</text></g><!--MD5=[e7cb8cd11d17221fb2d8889676273629]
link SOLVE to ASK_ORACLE--><g id="link_SOLVE_ASK_ORACLE"><path d="M465.56,610.12 C497.62,632.72 537.27,660.67 570,683.73 " fill="none" id="SOLVE-to-ASK_ORACLE" style="stroke:#181818;stroke-width:1.0;"/><polygon fill="#181818" points="574.36,686.81,569.2966,678.3624,570.2692,683.935,564.6966,684.9076,574.36,686.81" style="stroke:#181818;stroke-width:1.0;"/><text fill="#000000" font-family="sans-serif" font-size="13" lengthAdjust="spacing" textLength="83" x="527.51" y="653.0669">at the center</text></g><!--MD5=[67acf3b5b909648d5d8ddbe47306ffc4]
link ASK_ORACLE to *end--><g id="link_ASK_ORACLE_*end"><path d="M633.51,772.25 C633.51,796.78 633.51,826.27 633.51,843.5 " fill="none" id="ASK_ORACLE-to-*end" style="stroke:#181818;stroke-width:1.0;"/><polygon fill="#181818" points="633.51,848.84,637.51,839.84,633.51,843.84,629.51,839.84,633.51,848.84" style="stroke:#181818;stroke-width:1.0;"/><text fill="#000000" font-family="sans-serif" font-size="13" lengthAdjust="spacing" textLength="102" x="634.51" y="815.0669">mystery solved!</text></g><!--MD5=[cf74fbe97389c83600893dcaae6fedda]
link ASK_ORACLE to REPLAN--><g id="link_ASK_ORACLE_REPLAN"><path d="M678.1,686.75 C705.16,656.78 734.51,613.83 734.51,568.5 C734.51,266.5 734.51,266.5 734.51,266.5 C734.51,151.99 560.7,132.23 467.3,129.88 " fill="none" id="ASK_ORACLE-to-REPLAN" style="stroke:#181818;stroke-width:1.0;"/><polygon fill="#181818" points="462.09,129.76,471.0082,133.9392,467.089,129.86,471.1682,125.9408,462.09,129.76" style="stroke:#181818;stroke-width:1.0;"/><text fill="#000000" font-family="sans-serif" font-size="13" lengthAdjust="spacing" textLength="92" x="735.51" y="418.0669">solution wrong</text></g><!--MD5=[a9e77924b98f096af4b6ae83619b3b3b]
@startuml

state REPLAN
REPLAN : clean the kb

state COLLECT
COLLECT : move the robot and \n collect hints around

state ASK_ORACLE
ASK_ORACLE : check if in the ontology \n there are valid hypotheses \n to propose to the Oracle

state SOLVE
SOLVE : move to the center\n ready to introduce \n a solution

state ASK_ONTOLOGY
ASK_ONTOLOGY : check the solution\nask to the Oracle

''' state MISSION_STATUS_COUNT_FAULT
''' MISSION_STATUS_COUNT_FAULT : unexpected situation

[*] - -> REPLAN : mission manager begins (like Batman...)
REPLAN - -> COLLECT : still mumbleing
COLLECT - -> ASK_ONTOLOGY : arrived at the waypoint
ASK_ONTOLOGY - -> COLLECT : no bright ideas
COLLECT - -> REPLAN : end of the explorable waypoints!
ASK_ONTOLOGY - -> SOLVE : at least one possible solution found
SOLVE - -> REPLAN : need for updating the paths
REPLAN - -> SOLVE : possible solution ready
SOLVE - -> ASK_ORACLE : at the center
ASK_ORACLE - -> [*] : mystery solved!
ASK_ORACLE - -> REPLAN : solution wrong

@enduml

@startuml

state REPLAN
REPLAN : clean the kb

state COLLECT
COLLECT : move the robot and \n collect hints around

state ASK_ORACLE
ASK_ORACLE : check if in the ontology \n there are valid hypotheses \n to propose to the Oracle

state SOLVE
SOLVE : move to the center\n ready to introduce \n a solution

state ASK_ONTOLOGY
ASK_ONTOLOGY : check the solution\nask to the Oracle


[*] - -> REPLAN : mission manager begins (like Batman...)
REPLAN - -> COLLECT : still mumbleing
COLLECT - -> ASK_ONTOLOGY : arrived at the waypoint
ASK_ONTOLOGY - -> COLLECT : no bright ideas
COLLECT - -> REPLAN : end of the explorable waypoints!
ASK_ONTOLOGY - -> SOLVE : at least one possible solution found
SOLVE - -> REPLAN : need for updating the paths
REPLAN - -> SOLVE : possible solution ready
SOLVE - -> ASK_ORACLE : at the center
ASK_ORACLE - -> [*] : mystery solved!
ASK_ORACLE - -> REPLAN : solution wrong

@enduml

PlantUML version 1.2022.6(Tue Jun 21 17:34:49 UTC 2022)
(GPL source distribution)
Java Runtime: Java(TM) SE Runtime Environment
JVM: Java HotSpot(TM) 64-Bit Server VM
Default Encoding: UTF-8
Language: en
Country: US
--></g></svg>