<?xml version="1.0" encoding="UTF-8" standalone="no"?><svg xmlns="http://www.w3.org/2000/svg" xmlns:xlink="http://www.w3.org/1999/xlink" contentStyleType="text/css" height="284px" preserveAspectRatio="none" style="width:406px;height:284px;background:#FFFFFF;" version="1.1" viewBox="0 0 406 284" width="406px" zoomAndPan="magnify"><defs/><g><!--MD5=[1c66db8d4ddf4f1f0ddf2cee58876e7b]
cluster ARMOR--><g id="cluster_ARMOR"><path d="M236,6 L291,6 A3.75,3.75 0 0 1 293.5,8.5 L300.5,28.2969 L397,28.2969 A2.5,2.5 0 0 1 399.5,30.7969 L399.5,274.5 A2.5,2.5 0 0 1 397,277 L236,277 A2.5,2.5 0 0 1 233.5,274.5 L233.5,8.5 A2.5,2.5 0 0 1 236,6 " style="stroke:#000000;stroke-width:1.5;fill:none;"/><line style="stroke:#000000;stroke-width:1.5;fill:none;" x1="233.5" x2="300.5" y1="28.2969" y2="28.2969"/><text fill="#000000" font-family="sans-serif" font-size="14" font-weight="bold" lengthAdjust="spacing" textLength="54" x="237.5" y="20.9951">aRMOR</text></g><!--MD5=[e897962d761a5d48dd6fd6e93de41f4f]
entity ARMOR.KB--><g id="elem_ARMOR.KB"><path d="M249.5,51 C249.5,41 316.5,41 316.5,41 C316.5,41 383.5,41 383.5,51 L383.5,92.5938 C383.5,102.5938 316.5,102.5938 316.5,102.5938 C316.5,102.5938 249.5,102.5938 249.5,92.5938 L249.5,51 " fill="#F1F1F1" style="stroke:#181818;stroke-width:0.5;"/><path d="M249.5,51 C249.5,61 316.5,61 316.5,61 C316.5,61 383.5,61 383.5,51 " fill="none" style="stroke:#181818;stroke-width:0.5;"/><text fill="#000000" font-family="sans-serif" font-size="14" font-style="italic" lengthAdjust="spacing" textLength="69" x="282" y="77.9951">«aRMOR»</text><text fill="#000000" font-family="sans-serif" font-size="14" lengthAdjust="spacing" textLength="114" x="259.5" y="94.292">knowledge base</text></g><!--MD5=[0aa88e9046e94c886c19c17824edf041]
entity ARMOR.NODE--><g id="elem_ARMOR.NODE"><rect fill="#F1F1F1" height="62.5938" rx="2.5" ry="2.5" style="stroke:#181818;stroke-width:0.5;" width="109" x="262" y="198"/><rect fill="#F1F1F1" height="10" style="stroke:#181818;stroke-width:0.5;" width="15" x="351" y="203"/><rect fill="#F1F1F1" height="2" style="stroke:#181818;stroke-width:0.5;" width="4" x="349" y="205"/><rect fill="#F1F1F1" height="2" style="stroke:#181818;stroke-width:0.5;" width="4" x="349" y="209"/><text fill="#000000" font-family="sans-serif" font-size="14" font-style="italic" lengthAdjust="spacing" textLength="69" x="277" y="230.9951">«aRMOR»</text><text fill="#000000" font-family="sans-serif" font-size="14" lengthAdjust="spacing" textLength="57" x="283" y="247.292">services</text></g><!--MD5=[bd6f0174d6c8cf3399456c44a5f04e4b]
entity SRV_ARMOR_DIRECTIVE--><g id="elem_SRV_ARMOR_DIRECTIVE"><ellipse cx="75.5" cy="72" fill="#F1F1F1" rx="8" ry="8" style="stroke:#181818;stroke-width:0.5;"/><text fill="#000000" font-family="sans-serif" font-size="14" lengthAdjust="spacing" textLength="139" x="6" y="101.9951">/armor_interface_srv</text></g><!--MD5=[8fe1cbb8cdb5cd2e66b8ebd4bee4b855]
reverse link ARMOR.KB to ARMOR.NODE--><g id="link_ARMOR.KB_ARMOR.NODE"><path d="M305.59,108.61 C302.97,135.6 303.15,172.3 306.13,197.96 " fill="none" id="ARMOR.KB-backto-ARMOR.NODE" style="stroke:#181818;stroke-width:1.0;"/><polygon fill="#181818" points="306.15,103.35,301.2209,111.8767,305.6214,108.322,309.176,112.7225,306.15,103.35" style="stroke:#181818;stroke-width:1.0;"/></g><!--MD5=[722c758c5f1447dcc01e42514b50437e]
link ARMOR.KB to ARMOR.NODE--><g id="link_ARMOR.KB_ARMOR.NODE"><path d="M327.46,103.35 C330.63,128.96 330.83,165.65 328.08,192.69 " fill="none" id="ARMOR.KB-to-ARMOR.NODE" style="stroke:#181818;stroke-width:1.0;"/><polygon fill="#181818" points="327.49,197.96,332.4675,189.4615,328.0469,192.9911,324.5172,188.5705,327.49,197.96" style="stroke:#181818;stroke-width:1.0;"/></g><!--MD5=[cedd9f2c5e2246818534c6b5cbada513]
reverse link SRV_ARMOR_DIRECTIVE to ARMOR.NODE--><g id="link_SRV_ARMOR_DIRECTIVE_ARMOR.NODE"><path d="M70.53,86.07 C63.89,106.03 54.94,144.26 73.5,168 C96.42,197.33 197.42,214.49 261.77,222.64 " fill="none" id="SRV_ARMOR_DIRECTIVE-backto-ARMOR.NODE" style="stroke:#181818;stroke-width:1.0;"/><polygon fill="#181818" points="72.24,81.18,65.5079,88.3688,70.5991,85.9031,73.0648,90.9943,72.24,81.18" style="stroke:#181818;stroke-width:1.0;"/><path d="M78.5,138 L78.5,163 L303.5,163 L303.5,148 L293.5,138 L78.5,138 " fill="#FEFFDD" style="stroke:#181818;stroke-width:0.5;"/><path d="M293.5,138 L293.5,148 L303.5,148 L293.5,138 " fill="#FEFFDD" style="stroke:#181818;stroke-width:0.5;"/><text fill="#000000" font-family="sans-serif" font-size="13" lengthAdjust="spacing" textLength="204" x="84.5" y="155.0669">armor_msgs/ArmorDirective.srv</text><text fill="#000000" font-family="sans-serif" font-size="13" lengthAdjust="spacing" textLength="19" x="234.942" y="217.9896">srv</text></g><!--MD5=[db3b489052b43657b0555b615a208421]
@startuml

''' COMPONENTS
package "aRMOR" as ARMOR {
	database "knowledge base" <<aRMOR>> as ARMOR.KB
	component "services" <<aRMOR>> as ARMOR.NODE
	ARMOR.KB <- - ARMOR.NODE
	ARMOR.KB - -> ARMOR.NODE
}

''' LINKS
() "/armor_interface_srv" as SRV_ARMOR_DIRECTIVE
SRV_ARMOR_DIRECTIVE <- - "srv" ARMOR.NODE
note on link: armor_msgs/ArmorDirective.srv

@enduml

@startuml

package "aRMOR" as ARMOR {
	database "knowledge base" <<aRMOR>> as ARMOR.KB
	component "services" <<aRMOR>> as ARMOR.NODE
	ARMOR.KB <- - ARMOR.NODE
	ARMOR.KB - -> ARMOR.NODE
}

() "/armor_interface_srv" as SRV_ARMOR_DIRECTIVE
SRV_ARMOR_DIRECTIVE <- - "srv" ARMOR.NODE
note on link: armor_msgs/ArmorDirective.srv

@enduml

PlantUML version 1.2022.6(Tue Jun 21 17:34:49 UTC 2022)
(GPL source distribution)
Java Runtime: Java(TM) SE Runtime Environment
JVM: Java HotSpot(TM) 64-Bit Server VM
Default Encoding: UTF-8
Language: en
Country: US
--></g></svg>