<?xml version="1.0" encoding="UTF-8" standalone="no"?><svg xmlns="http://www.w3.org/2000/svg" xmlns:xlink="http://www.w3.org/1999/xlink" contentStyleType="text/css" height="433px" preserveAspectRatio="none" style="width:1282px;height:433px;background:#FFFFFF;" version="1.1" viewBox="0 0 1282 433" width="1282px" zoomAndPan="magnify"><defs/><g><rect height="42.2969" style="stroke:#00000000;stroke-width:1.0;fill:none;" width="233" x="517.5" y="5"/><text fill="#000000" font-family="sans-serif" font-size="14" font-weight="bold" lengthAdjust="spacing" textLength="207" x="530.5" y="30.9951">(erl2) node simulation.cpp</text><!--MD5=[33212273abe26724ff1e731702c8f505]
cluster ORACLE--><g id="cluster_ORACLE"><rect height="177" rx="2.5" ry="2.5" style="stroke:#181818;stroke-width:1.0;fill:none;" width="223" x="578" y="60.2969"/><rect height="10" style="stroke:#181818;stroke-width:1.0;fill:none;" width="15" x="781" y="65.2969"/><rect height="2" style="stroke:#181818;stroke-width:1.0;fill:none;" width="4" x="779" y="67.2969"/><rect height="2" style="stroke:#181818;stroke-width:1.0;fill:none;" width="4" x="779" y="71.2969"/><text fill="#000000" font-family="sans-serif" font-size="14" font-style="italic" lengthAdjust="spacing" textLength="92" x="643.5" y="94.292">«ERL Oracle»</text><text fill="#000000" font-family="sans-serif" font-size="14" font-weight="bold" lengthAdjust="spacing" textLength="114" x="632.5" y="126.5889">simulation.cpp</text></g><!--MD5=[3a78b7570f334d204b4d0cf6757a201e]
entity ORACLE.ORACLE_CALLBACK--><g id="elem_ORACLE.ORACLE_CALLBACK"><polygon fill="#F1F1F1" points="602.5,161.2969,612.5,151.2969,757.5,151.2969,757.5,203.5938,747.5,213.5938,602.5,213.5938,602.5,161.2969" style="stroke:#181818;stroke-width:0.5;"/><line style="stroke:#181818;stroke-width:0.5;" x1="747.5" x2="757.5" y1="161.2969" y2="151.2969"/><line style="stroke:#181818;stroke-width:0.5;" x1="602.5" x2="747.5" y1="161.2969" y2="161.2969"/><line style="stroke:#181818;stroke-width:0.5;" x1="747.5" x2="747.5" y1="161.2969" y2="213.5938"/><text fill="#000000" font-family="sans-serif" font-size="14" lengthAdjust="spacing" textLength="99" x="625.5" y="192.292">oracleCallback</text></g><g id="elem_GMN4"><path d="M6,161.7969 L6,202.9297 A0,0 0 0 0 6,202.9297 L554,202.9297 A0,0 0 0 0 554,202.9297 L554,186.2969 L602.37,182.2969 L554,178.2969 L554,171.7969 L544,161.7969 L6,161.7969 A0,0 0 0 0 6,161.7969 " fill="#FEFFDD" style="stroke:#181818;stroke-width:0.5;"/><path d="M544,161.7969 L544,171.7969 L554,171.7969 L544,161.7969 " fill="#FEFFDD" style="stroke:#181818;stroke-width:0.5;"/><text fill="#000000" font-family="sans-serif" font-size="13" lengthAdjust="spacing" textLength="511" x="20" y="186.8638">to trigger the message, the link "cluedo_link" must be at a distance up to 0.25m</text></g><!--MD5=[c5530b1eb0d2b01858bf10ddfa8d1792]
entity SRV_MARKER--><g id="elem_SRV_MARKER"><ellipse cx="839" cy="387.2969" fill="#F1F1F1" rx="8" ry="8" style="stroke:#181818;stroke-width:0.5;"/><text fill="#000000" font-family="sans-serif" font-size="14" lengthAdjust="spacing" textLength="143" x="767.5" y="425.292">/visualization_marker</text></g><!--MD5=[fcd41c5334bc317cf1103d6cb296c7d2]
entity SRV_ORACLE_SOLUTION--><g id="elem_SRV_ORACLE_SOLUTION"><ellipse cx="1160" cy="387.2969" fill="#F1F1F1" rx="8" ry="8" style="stroke:#181818;stroke-width:0.5;"/><text fill="#000000" font-family="sans-serif" font-size="14" lengthAdjust="spacing" textLength="109" x="1105.5" y="425.292">/oracle_solution</text></g><!--MD5=[fa462773b65741fd187f00efcdea9233]
entity TOPIC_GAZEBO_LINKS--><g id="elem_TOPIC_GAZEBO_LINKS"><ellipse cx="356" cy="387.2969" fill="#F1F1F1" rx="8" ry="8" style="stroke:#181818;stroke-width:0.5;"/><text fill="#000000" font-family="sans-serif" font-size="14" lengthAdjust="spacing" textLength="135" x="288.5" y="425.292">/gazebo/link_states</text></g><!--MD5=[545526249eacd936497d39018a0ab440]
entity TOPIC_HINT--><g id="elem_TOPIC_HINT"><ellipse cx="635" cy="387.2969" fill="#F1F1F1" rx="8" ry="8" style="stroke:#181818;stroke-width:0.5;"/><text fill="#000000" font-family="sans-serif" font-size="14" lengthAdjust="spacing" textLength="80" x="595" y="425.292">/oracle_hint</text></g><!--MD5=[95e405003c5ee7e958f6f4bd978b36f4]
link ORACLE to SRV_MARKER--><g id="link_ORACLE_SRV_MARKER"><path codeLine="17" d="M801.1268,219.181 C801.2434,219.6957 801.361,220.2145 801.4794,220.737 C802.4268,224.9176 803.4297,229.3433 804.4755,233.9581 C806.567,243.1877 808.83,253.1734 811.1625,263.4656 C820.4925,304.6344 830.935,350.7069 835.97,372.9069 " fill="none" id="ORACLE-to-SRV_MARKER" style="stroke:#181818;stroke-width:1.0;stroke-dasharray:7.0,7.0;"/><polygon fill="#181818" points="837.08,377.8369,838.9725,368.1715,835.9651,372.9628,831.1739,369.9554,837.08,377.8369" style="stroke:#181818;stroke-width:1.0;"/><path d="M826,266.2969 L826,307.2969 L1097,307.2969 L1097,276.2969 L1087,266.2969 L826,266.2969 " fill="#FEFFDD" style="stroke:#181818;stroke-width:0.5;"/><path d="M1087,266.2969 L1087,276.2969 L1097,276.2969 L1087,266.2969 " fill="#FEFFDD" style="stroke:#181818;stroke-width:0.5;"/><text fill="#000000" font-family="sans-serif" font-size="13" lengthAdjust="spacing" textLength="234" x="840" y="291.3638">visualization_msgs/MarkerArray.msg</text><text fill="#000000" font-family="sans-serif" font-size="13" lengthAdjust="spacing" textLength="24" x="801.03" y="203.5138">pub</text></g><!--MD5=[a54934ef0a174fdfa014cf5870edac79]
link ORACLE to SRV_ORACLE_SOLUTION--><g id="link_ORACLE_SRV_ORACLE_SOLUTION"><path codeLine="21" d="M801.0893,184.2857 C801.2822,184.3098 801.4783,184.3344 801.6776,184.3594 C802.0761,184.4093 802.4873,184.461 802.9111,184.5144 C803.7585,184.6213 804.6558,184.7351 805.6013,184.8558 C813.1651,185.8213 823.8102,187.2275 836.6405,189.0494 C862.3009,192.6931 896.7019,197.9994 932.6738,204.7669 C1004.6175,218.3019 1082.845,237.6819 1110,261.2969 C1144.11,290.9569 1155.22,347.1269 1158.61,372.8369 " fill="none" id="ORACLE-to-SRV_ORACLE_SOLUTION" style="stroke:#181818;stroke-width:1.0;"/><polygon fill="#181818" points="1159.25,378.1269,1162.1161,368.7043,1158.6368,373.1646,1154.1765,369.6853,1159.25,378.1269" style="stroke:#181818;stroke-width:1.0;"/><path d="M1148,266.2969 L1148,307.2969 L1275,307.2969 L1275,276.2969 L1265,266.2969 L1148,266.2969 " fill="#FEFFDD" style="stroke:#181818;stroke-width:0.5;"/><path d="M1265,266.2969 L1265,276.2969 L1275,276.2969 L1265,266.2969 " fill="#FEFFDD" style="stroke:#181818;stroke-width:0.5;"/><text fill="#000000" font-family="sans-serif" font-size="13" lengthAdjust="spacing" textLength="90" x="1162" y="291.3638">erl2/oracle.srv</text><text fill="#000000" font-family="sans-serif" font-size="13" lengthAdjust="spacing" textLength="19" x="801.05" y="172.3738">srv</text></g><!--MD5=[c96a2a03d6ce4e0a2b398a9952704977]
reverse link ORACLE.ORACLE_CALLBACK to TOPIC_GAZEBO_LINKS--><g id="link_ORACLE.ORACLE_CALLBACK_TOPIC_GAZEBO_LINKS"><path codeLine="25" d="M639.76,216.7569 C620.49,230.7569 596.35,245.5469 572,253.2969 C551.44,259.8369 394.24,247.0869 378,261.2969 C343.34,291.6269 350.61,355.7469 354.45,378.2669 " fill="none" id="ORACLE.ORACLE_CALLBACK-backto-TOPIC_GAZEBO_LINKS" style="stroke:#181818;stroke-width:1.0;stroke-dasharray:7.0,7.0;"/><polygon fill="#181818" points="644.04,213.5969,634.4227,215.7201,640.0162,216.5648,639.1714,222.1582,644.04,213.5969" style="stroke:#181818;stroke-width:1.0;"/><path d="M383,266.2969 L383,307.2969 L612,307.2969 L612,276.2969 L602,266.2969 L383,266.2969 " fill="#FEFFDD" style="stroke:#181818;stroke-width:0.5;"/><path d="M602,266.2969 L602,276.2969 L612,276.2969 L602,266.2969 " fill="#FEFFDD" style="stroke:#181818;stroke-width:0.5;"/><text fill="#000000" font-family="sans-serif" font-size="13" lengthAdjust="spacing" textLength="192" x="397" y="291.3638">gazebo_msgs/LinkStates.msg</text><text fill="#000000" font-family="sans-serif" font-size="13" lengthAdjust="spacing" textLength="23" x="603.5078" y="241.6934">sub</text></g><!--MD5=[9d5be747021d84c52a29d7c8659565a8]
link ORACLE.ORACLE_CALLBACK to TOPIC_HINT--><g id="link_ORACLE.ORACLE_CALLBACK_TOPIC_HINT"><path codeLine="29" d="M656.13,213.3069 C646.64,227.0869 636.85,244.1569 632,261.2969 C620.83,300.7469 627.78,350.0169 632.19,373.1569 " fill="none" id="ORACLE.ORACLE_CALLBACK-to-TOPIC_HINT" style="stroke:#181818;stroke-width:1.0;"/><polygon fill="#181818" points="633.19,378.1969,635.3634,368.5908,632.2177,373.2923,627.5162,370.1466,633.19,378.1969" style="stroke:#181818;stroke-width:1.0;"/><path d="M637,266.2969 L637,307.2969 L791,307.2969 L791,276.2969 L781,266.2969 L637,266.2969 " fill="#FEFFDD" style="stroke:#181818;stroke-width:0.5;"/><path d="M781,266.2969 L781,276.2969 L791,276.2969 L781,266.2969 " fill="#FEFFDD" style="stroke:#181818;stroke-width:0.5;"/><text fill="#000000" font-family="sans-serif" font-size="13" lengthAdjust="spacing" textLength="117" x="651" y="291.3638">erl2/ErlOracle.msg</text><text fill="#000000" font-family="sans-serif" font-size="13" lengthAdjust="spacing" textLength="24" x="663.4407" y="241.6438">pub</text></g><!--MD5=[fbba6d8b9421693ca3b5eefc4a6d3e93]
@startuml

''' INFOS
title (erl2) node simulation.cpp
skinparam Padding 8
allow_mixing

component "simulation.cpp" <<ERL Oracle>> as ORACLE {
	node "oracleCallback" as ORACLE.ORACLE_CALLBACK
	' to trigger the message, the link "cluedo_link" must be at a distance up to 0.25m
}

note left of ORACLE.ORACLE_CALLBACK
	to trigger the message, the link "cluedo_link" must be at a distance up to 0.25m
end note

() "/visualization_marker" as SRV_MARKER
ORACLE "pub" ..> SRV_MARKER
note on link: visualization_msgs/MarkerArray.msg

() "/oracle_solution" as SRV_ORACLE_SOLUTION
ORACLE "srv" - -> SRV_ORACLE_SOLUTION
note on link: erl2/oracle.srv

() "/gazebo/link_states" as TOPIC_GAZEBO_LINKS
ORACLE.ORACLE_CALLBACK "sub" <.. TOPIC_GAZEBO_LINKS
note on link: gazebo_msgs/LinkStates.msg

() "/oracle_hint" as TOPIC_HINT
ORACLE.ORACLE_CALLBACK "pub" - -> TOPIC_HINT
note on link: erl2/ErlOracle.msg

@enduml

@startuml

title (erl2) node simulation.cpp
skinparam Padding 8
allow_mixing

component "simulation.cpp" <<ERL Oracle>> as ORACLE {
	node "oracleCallback" as ORACLE.ORACLE_CALLBACK
}

note left of ORACLE.ORACLE_CALLBACK
	to trigger the message, the link "cluedo_link" must be at a distance up to 0.25m
end note

() "/visualization_marker" as SRV_MARKER
ORACLE "pub" ..> SRV_MARKER
note on link: visualization_msgs/MarkerArray.msg

() "/oracle_solution" as SRV_ORACLE_SOLUTION
ORACLE "srv" - -> SRV_ORACLE_SOLUTION
note on link: erl2/oracle.srv

() "/gazebo/link_states" as TOPIC_GAZEBO_LINKS
ORACLE.ORACLE_CALLBACK "sub" <.. TOPIC_GAZEBO_LINKS
note on link: gazebo_msgs/LinkStates.msg

() "/oracle_hint" as TOPIC_HINT
ORACLE.ORACLE_CALLBACK "pub" - -> TOPIC_HINT
note on link: erl2/ErlOracle.msg

@enduml

PlantUML version 1.2022.6(Tue Jun 21 17:34:49 UTC 2022)
(GPL source distribution)
Java Runtime: Java(TM) SE Runtime Environment
JVM: Java HotSpot(TM) 64-Bit Server VM
Default Encoding: UTF-8
Language: en
Country: US
--></g></svg>