<?xml version="1.0" encoding="UTF-8" standalone="no"?><svg xmlns="http://www.w3.org/2000/svg" xmlns:xlink="http://www.w3.org/1999/xlink" contentStyleType="text/css" height="803px" preserveAspectRatio="none" style="width:2586px;height:803px;background:#FFFFFF;" version="1.1" viewBox="0 0 2586 803" width="2586px" zoomAndPan="magnify"><defs/><g><rect height="26.2969" style="stroke:#00000000;stroke-width:1.0;fill:none;" width="261" x="1155.67" y="5"/><text fill="#000000" font-family="sans-serif" font-size="14" font-weight="bold" lengthAdjust="spacing" textLength="251" x="1160.67" y="22.9951">Project Architecture - extended</text><!--MD5=[3290a3d2b9c0a2561ce47a49167ad83c]
cluster armor--><g id="cluster_armor"><path d="M668.84,389.2969 L716.84,389.2969 A3.75,3.75 0 0 1 719.34,391.7969 L726.34,411.5938 L881.84,411.5938 A2.5,2.5 0 0 1 884.34,414.0938 L884.34,663.2969 A2.5,2.5 0 0 1 881.84,665.7969 L668.84,665.7969 A2.5,2.5 0 0 1 666.34,663.2969 L666.34,391.7969 A2.5,2.5 0 0 1 668.84,389.2969 " style="stroke:#000000;stroke-width:1.5;fill:none;"/><line style="stroke:#000000;stroke-width:1.5;fill:none;" x1="666.34" x2="726.34" y1="411.5938" y2="411.5938"/><text fill="#000000" font-family="sans-serif" font-size="14" font-weight="bold" lengthAdjust="spacing" textLength="47" x="670.34" y="404.292">armor</text></g><!--MD5=[72ec1ef6db8df4b6bc510ac98a681591]
cluster RCL Mission Manager--><g id="cluster_RCL Mission Manager"><path d="M910.84,252.2969 L1078.84,252.2969 A3.75,3.75 0 0 1 1081.34,254.7969 L1088.34,274.5938 L1333.84,274.5938 A2.5,2.5 0 0 1 1336.34,277.0938 L1336.34,483.7969 A2.5,2.5 0 0 1 1333.84,486.2969 L910.84,486.2969 A2.5,2.5 0 0 1 908.34,483.7969 L908.34,254.7969 A2.5,2.5 0 0 1 910.84,252.2969 " style="stroke:#000000;stroke-width:1.5;fill:none;"/><line style="stroke:#000000;stroke-width:1.5;fill:none;" x1="908.34" x2="1088.34" y1="274.5938" y2="274.5938"/><text fill="#000000" font-family="sans-serif" font-size="14" font-weight="bold" lengthAdjust="spacing" textLength="167" x="912.34" y="267.292">RCL Mission Manager</text></g><!--MD5=[50a2f19a8c034c1bda91c457de53d287]
cluster RCL ROSPlan--><g id="cluster_RCL ROSPlan"><path d="M38.84,43.2969 L139.84,43.2969 A3.75,3.75 0 0 1 142.34,45.7969 L149.34,65.5938 L639.84,65.5938 A2.5,2.5 0 0 1 642.34,68.0938 L642.34,769.7969 A2.5,2.5 0 0 1 639.84,772.2969 L38.84,772.2969 A2.5,2.5 0 0 1 36.34,769.7969 L36.34,45.7969 A2.5,2.5 0 0 1 38.84,43.2969 " style="stroke:#000000;stroke-width:1.5;fill:none;"/><line style="stroke:#000000;stroke-width:1.5;fill:none;" x1="36.34" x2="149.34" y1="65.5938" y2="65.5938"/><text fill="#000000" font-family="sans-serif" font-size="14" font-weight="bold" lengthAdjust="spacing" textLength="100" x="40.34" y="58.292">RCL ROSPlan</text></g><!--MD5=[d52787fb9afba253a951849d442c2cd9]
cluster ROSPLAN_ACTIONS--><g id="cluster_ROSPLAN_ACTIONS"><path d="M154.84,381.2969 L319.84,381.2969 A3.75,3.75 0 0 1 322.34,383.7969 L329.34,403.5938 L431.84,403.5938 A2.5,2.5 0 0 1 434.34,406.0938 L434.34,671.7969 A2.5,2.5 0 0 1 431.84,674.2969 L154.84,674.2969 A2.5,2.5 0 0 1 152.34,671.7969 L152.34,383.7969 A2.5,2.5 0 0 1 154.84,381.2969 " style="stroke:#000000;stroke-width:1.5;fill:none;"/><line style="stroke:#000000;stroke-width:1.5;fill:none;" x1="152.34" x2="329.34" y1="403.5938" y2="403.5938"/><text fill="#000000" font-family="sans-serif" font-size="14" font-weight="bold" lengthAdjust="spacing" textLength="164" x="156.34" y="396.292">RCL ROSPlan Actions</text></g><!--MD5=[e82bd7715a39275f8d15834ea1ee8157]
cluster erl3--><g id="cluster_erl3"><path d="M1362.84,389.2969 L1394.84,389.2969 A3.75,3.75 0 0 1 1397.34,391.7969 L1404.34,411.5938 L1702.84,411.5938 A2.5,2.5 0 0 1 1705.34,414.0938 L1705.34,483.7969 A2.5,2.5 0 0 1 1702.84,486.2969 L1362.84,486.2969 A2.5,2.5 0 0 1 1360.34,483.7969 L1360.34,391.7969 A2.5,2.5 0 0 1 1362.84,389.2969 " style="stroke:#000000;stroke-width:1.5;fill:none;"/><line style="stroke:#000000;stroke-width:1.5;fill:none;" x1="1360.34" x2="1404.34" y1="411.5938" y2="411.5938"/><text fill="#000000" font-family="sans-serif" font-size="14" font-weight="bold" lengthAdjust="spacing" textLength="31" x="1364.34" y="404.292">erl3</text></g><!--MD5=[27e3bb7b1570ed677aba69e5ad0dddbd]
cluster RCL Vision--><g id="cluster_RCL Vision"><path d="M1530.84,139.2969 L1614.84,139.2969 A3.75,3.75 0 0 1 1617.34,141.7969 L1624.34,161.5938 L1737.84,161.5938 A2.5,2.5 0 0 1 1740.34,164.0938 L1740.34,346.7969 A2.5,2.5 0 0 1 1737.84,349.2969 L1530.84,349.2969 A2.5,2.5 0 0 1 1528.34,346.7969 L1528.34,141.7969 A2.5,2.5 0 0 1 1530.84,139.2969 " style="stroke:#000000;stroke-width:1.5;fill:none;"/><line style="stroke:#000000;stroke-width:1.5;fill:none;" x1="1528.34" x2="1624.34" y1="161.5938" y2="161.5938"/><text fill="#000000" font-family="sans-serif" font-size="14" font-weight="bold" lengthAdjust="spacing" textLength="83" x="1532.34" y="154.292">RCL Vision</text></g><!--MD5=[4a4f0e6043b47fc8cab18a797167e00e]
cluster ENVIRONMENT--><g id="cluster_ENVIRONMENT"><path d="M2221.84,244.2969 L2403.84,244.2969 A3.75,3.75 0 0 1 2406.34,246.7969 L2413.34,266.5938 L2576.84,266.5938 A2.5,2.5 0 0 1 2579.34,269.0938 L2579.34,491.7969 A2.5,2.5 0 0 1 2576.84,494.2969 L2221.84,494.2969 A2.5,2.5 0 0 1 2219.34,491.7969 L2219.34,246.7969 A2.5,2.5 0 0 1 2221.84,244.2969 " style="stroke:#000000;stroke-width:1.5;fill:none;"/><line style="stroke:#000000;stroke-width:1.5;fill:none;" x1="2219.34" x2="2413.34" y1="266.5938" y2="266.5938"/><text fill="#000000" font-family="sans-serif" font-size="14" font-weight="bold" lengthAdjust="spacing" textLength="181" x="2223.34" y="259.292">Simulated Environment</text></g><!--MD5=[f8c67dae79871263af26454ede3c252f]
cluster moveit--><g id="cluster_moveit"><path d="M1731.84,389.2969 L1785.84,389.2969 A3.75,3.75 0 0 1 1788.34,391.7969 L1795.34,411.5938 L1848.84,411.5938 A2.5,2.5 0 0 1 1851.34,414.0938 L1851.34,483.7969 A2.5,2.5 0 0 1 1848.84,486.2969 L1731.84,486.2969 A2.5,2.5 0 0 1 1729.34,483.7969 L1729.34,391.7969 A2.5,2.5 0 0 1 1731.84,389.2969 " style="stroke:#000000;stroke-width:1.5;fill:none;"/><line style="stroke:#000000;stroke-width:1.5;fill:none;" x1="1729.34" x2="1795.34" y1="411.5938" y2="411.5938"/><text fill="#000000" font-family="sans-serif" font-size="14" font-weight="bold" lengthAdjust="spacing" textLength="53" x="1733.34" y="404.292">moveit</text></g><!--MD5=[769a1f78ddba76244a83e5d38770c221]
cluster NAVSTACK--><g id="cluster_NAVSTACK"><path d="M1885.84,381.2969 L2014.84,381.2969 A3.75,3.75 0 0 1 2017.34,383.7969 L2024.34,403.5938 L2176.84,403.5938 A2.5,2.5 0 0 1 2179.34,406.0938 L2179.34,671.7969 A2.5,2.5 0 0 1 2176.84,674.2969 L1885.84,674.2969 A2.5,2.5 0 0 1 1883.34,671.7969 L1883.34,383.7969 A2.5,2.5 0 0 1 1885.84,381.2969 " style="stroke:#000000;stroke-width:1.5;fill:none;"/><line style="stroke:#000000;stroke-width:1.5;fill:none;" x1="1883.34" x2="2024.34" y1="403.5938" y2="403.5938"/><text fill="#000000" font-family="sans-serif" font-size="14" font-weight="bold" lengthAdjust="spacing" textLength="128" x="1887.34" y="396.292">navigation stack</text></g><!--MD5=[fb57ac82275689eb067e1d4d79e0f27c]
cluster RCL Movement Controller--><g id="cluster_RCL Movement Controller"><path d="M983.84,526.2969 L1185.84,526.2969 A3.75,3.75 0 0 1 1188.34,528.7969 L1195.34,548.5938 L1848.84,548.5938 A2.5,2.5 0 0 1 1851.34,551.0938 L1851.34,793.7969 A2.5,2.5 0 0 1 1848.84,796.2969 L983.84,796.2969 A2.5,2.5 0 0 1 981.34,793.7969 L981.34,528.7969 A2.5,2.5 0 0 1 983.84,526.2969 " style="stroke:#000000;stroke-width:1.5;fill:none;"/><line style="stroke:#000000;stroke-width:1.5;fill:none;" x1="981.34" x2="1195.34" y1="548.5938" y2="548.5938"/><text fill="#000000" font-family="sans-serif" font-size="14" font-weight="bold" lengthAdjust="spacing" textLength="201" x="985.34" y="541.292">RCL Movement Controller</text></g><!--MD5=[d40cf5c215657fb3fe2b2c6fb7de3704]
cluster behaviours--><g id="cluster_behaviours"><path d="M1484.84,569.2969 L1573.84,569.2969 A3.75,3.75 0 0 1 1576.34,571.7969 L1583.34,591.5938 L1824.84,591.5938 A2.5,2.5 0 0 1 1827.34,594.0938 L1827.34,769.7969 A2.5,2.5 0 0 1 1824.84,772.2969 L1484.84,772.2969 A2.5,2.5 0 0 1 1482.34,769.7969 L1482.34,571.7969 A2.5,2.5 0 0 1 1484.84,569.2969 " style="stroke:#000000;stroke-width:1.5;fill:none;"/><line style="stroke:#000000;stroke-width:1.5;fill:none;" x1="1482.34" x2="1583.34" y1="591.5938" y2="591.5938"/><text fill="#000000" font-family="sans-serif" font-size="14" font-weight="bold" lengthAdjust="spacing" textLength="88" x="1486.34" y="584.292">behaviours</text></g><!--MD5=[d966621a06b379d0f2866da504c15a36]
entity ARMOR--><g id="elem_ARMOR"><path d="M739.84,614.7969 C739.84,604.7969 775.34,604.7969 775.34,604.7969 C775.34,604.7969 810.84,604.7969 810.84,614.7969 L810.84,640.0938 C810.84,650.0938 775.34,650.0938 775.34,650.0938 C775.34,650.0938 739.84,650.0938 739.84,640.0938 L739.84,614.7969 " fill="#F1F1F1" style="stroke:#181818;stroke-width:0.5;"/><path d="M739.84,614.7969 C739.84,624.7969 775.34,624.7969 775.34,624.7969 C775.34,624.7969 810.84,624.7969 810.84,614.7969 " fill="none" style="stroke:#181818;stroke-width:0.5;"/><text fill="#000000" font-family="sans-serif" font-size="14" lengthAdjust="spacing" textLength="51" x="749.84" y="641.792">aRMOR</text></g><!--MD5=[0f6829ecb44924df652b3631a96aadbd]
entity RCL_ARMOR--><g id="elem_RCL_ARMOR"><rect fill="#F1F1F1" height="46.2969" rx="2.5" ry="2.5" style="stroke:#181818;stroke-width:0.5;" width="186" x="682.34" y="424.2969"/><rect fill="#F1F1F1" height="10" style="stroke:#181818;stroke-width:0.5;" width="15" x="848.34" y="429.2969"/><rect fill="#F1F1F1" height="2" style="stroke:#181818;stroke-width:0.5;" width="4" x="846.34" y="431.2969"/><rect fill="#F1F1F1" height="2" style="stroke:#181818;stroke-width:0.5;" width="4" x="846.34" y="435.2969"/><text fill="#000000" font-family="sans-serif" font-size="14" lengthAdjust="spacing" textLength="146" x="697.34" y="457.292">RCL aRMOR interface</text></g><!--MD5=[9a0d4b0340012a44161447de88fcc332]
entity MISSION_MANAGER--><g id="elem_MISSION_MANAGER"><rect fill="#F1F1F1" height="46.2969" rx="2.5" ry="2.5" style="stroke:#181818;stroke-width:0.5;" width="189" x="1130.84" y="287.2969"/><rect fill="#F1F1F1" height="10" style="stroke:#181818;stroke-width:0.5;" width="15" x="1299.84" y="292.2969"/><rect fill="#F1F1F1" height="2" style="stroke:#181818;stroke-width:0.5;" width="4" x="1297.84" y="294.2969"/><rect fill="#F1F1F1" height="2" style="stroke:#181818;stroke-width:0.5;" width="4" x="1297.84" y="298.2969"/><text fill="#000000" font-family="sans-serif" font-size="14" lengthAdjust="spacing" textLength="149" x="1145.84" y="320.292">RCL mission manager</text></g><!--MD5=[85f7837dfbb1d6f968ca872290da27d1]
entity MANIP_UNIT--><g id="elem_MANIP_UNIT"><rect fill="#F1F1F1" height="46.2969" rx="2.5" ry="2.5" style="stroke:#181818;stroke-width:0.5;" width="189" x="1103.84" y="424.2969"/><rect fill="#F1F1F1" height="10" style="stroke:#181818;stroke-width:0.5;" width="15" x="1272.84" y="429.2969"/><rect fill="#F1F1F1" height="2" style="stroke:#181818;stroke-width:0.5;" width="4" x="1270.84" y="431.2969"/><rect fill="#F1F1F1" height="2" style="stroke:#181818;stroke-width:0.5;" width="4" x="1270.84" y="435.2969"/><text fill="#000000" font-family="sans-serif" font-size="14" lengthAdjust="spacing" textLength="149" x="1118.84" y="457.292">RCL manipulation unit</text></g><!--MD5=[d3c6a3352a82e16776188b2bc459db07]
entity NAV_UNIT--><g id="elem_NAV_UNIT"><rect fill="#F1F1F1" height="46.2969" rx="2.5" ry="2.5" style="stroke:#181818;stroke-width:0.5;" width="171" x="924.84" y="287.2969"/><rect fill="#F1F1F1" height="10" style="stroke:#181818;stroke-width:0.5;" width="15" x="1075.84" y="292.2969"/><rect fill="#F1F1F1" height="2" style="stroke:#181818;stroke-width:0.5;" width="4" x="1073.84" y="294.2969"/><rect fill="#F1F1F1" height="2" style="stroke:#181818;stroke-width:0.5;" width="4" x="1073.84" y="298.2969"/><text fill="#000000" font-family="sans-serif" font-size="14" lengthAdjust="spacing" textLength="131" x="939.84" y="320.292">RCL navigation unit</text></g><!--MD5=[8fd27179cfada5ccc37b63382e72f2b8]
entity ROSPLAN--><g id="elem_ROSPLAN"><rect fill="#F1F1F1" height="46.2969" rx="2.5" ry="2.5" style="stroke:#181818;stroke-width:0.5;" width="222" x="52.34" y="710.2969"/><rect fill="#F1F1F1" height="10" style="stroke:#181818;stroke-width:0.5;" width="15" x="254.34" y="715.2969"/><rect fill="#F1F1F1" height="2" style="stroke:#181818;stroke-width:0.5;" width="4" x="252.34" y="717.2969"/><rect fill="#F1F1F1" height="2" style="stroke:#181818;stroke-width:0.5;" width="4" x="252.34" y="721.2969"/><text fill="#000000" font-family="sans-serif" font-size="14" lengthAdjust="spacing" textLength="182" x="67.34" y="743.292">ROSPlan pipeline manager</text></g><!--MD5=[1ec02bda1596c59b8c0e4ea7203accd3]
entity RCL_KBTOOLS--><g id="elem_RCL_KBTOOLS"><rect fill="#F1F1F1" height="46.2969" rx="2.5" ry="2.5" style="stroke:#181818;stroke-width:0.5;" width="129" x="52.84" y="287.2969"/><rect fill="#F1F1F1" height="10" style="stroke:#181818;stroke-width:0.5;" width="15" x="161.84" y="292.2969"/><rect fill="#F1F1F1" height="2" style="stroke:#181818;stroke-width:0.5;" width="4" x="159.84" y="294.2969"/><rect fill="#F1F1F1" height="2" style="stroke:#181818;stroke-width:0.5;" width="4" x="159.84" y="298.2969"/><text fill="#000000" font-family="sans-serif" font-size="14" lengthAdjust="spacing" textLength="89" x="67.84" y="320.292">RCL kb_tools</text></g><!--MD5=[f0473ce8c4294036dd7f66e3469f33ba]
entity ROSPLANKB--><g id="elem_ROSPLANKB"><path d="M119.84,184.7969 C119.84,174.7969 218.34,174.7969 218.34,174.7969 C218.34,174.7969 316.84,174.7969 316.84,184.7969 L316.84,210.0938 C316.84,220.0938 218.34,220.0938 218.34,220.0938 C218.34,220.0938 119.84,220.0938 119.84,210.0938 L119.84,184.7969 " fill="#F1F1F1" style="stroke:#181818;stroke-width:0.5;"/><path d="M119.84,184.7969 C119.84,194.7969 218.34,194.7969 218.34,194.7969 C218.34,194.7969 316.84,194.7969 316.84,184.7969 " fill="none" style="stroke:#181818;stroke-width:0.5;"/><text fill="#000000" font-family="sans-serif" font-size="14" lengthAdjust="spacing" textLength="177" x="129.84" y="211.792">ROSPlan knowledge base</text></g><!--MD5=[51f810b966fae3ed1e8d909503f3944c]
entity ROSPLAN_COMPONENTS--><g id="elem_ROSPLAN_COMPONENTS"><rect fill="#F1F1F1" height="46.2969" rx="2.5" ry="2.5" style="stroke:#181818;stroke-width:0.5;" width="191" x="254.84" y="287.2969"/><rect fill="#F1F1F1" height="10" style="stroke:#181818;stroke-width:0.5;" width="15" x="425.84" y="292.2969"/><rect fill="#F1F1F1" height="2" style="stroke:#181818;stroke-width:0.5;" width="4" x="423.84" y="294.2969"/><rect fill="#F1F1F1" height="2" style="stroke:#181818;stroke-width:0.5;" width="4" x="423.84" y="298.2969"/><text fill="#000000" font-family="sans-serif" font-size="14" lengthAdjust="spacing" textLength="151" x="269.84" y="320.292">ROSPlan components</text></g><!--MD5=[1c1ddfab09557eb457f2e2932fb59e45]
entity DOMAIN--><g id="elem_DOMAIN"><path d="M282.34,80.7969 L282.34,112.0938 A2.5,2.5 0 0 0 284.84,114.5938 L423.84,114.5938 A2.5,2.5 0 0 0 426.34,112.0938 L426.34,88.2969 L416.34,78.2969 L284.84,78.2969 A2.5,2.5 0 0 0 282.34,80.7969 " fill="#F1F1F1" style="stroke:#181818;stroke-width:0.5;"/><path d="M416.34,78.2969 L416.34,85.7969 A2.5,2.5 0 0 0 418.84,88.2969 L426.34,88.2969 " fill="#F1F1F1" style="stroke:#181818;stroke-width:0.5;"/><text fill="#000000" font-family="sans-serif" font-size="14" lengthAdjust="spacing" textLength="124" x="292.34" y="101.292">PDDL RCL domain</text></g><!--MD5=[e79c8e6bb3a9323b12a58d750a988a49]
entity PROBLEM--><g id="elem_PROBLEM"><path d="M97.34,80.7969 L97.34,112.0938 A2.5,2.5 0 0 0 99.84,114.5938 L244.84,114.5938 A2.5,2.5 0 0 0 247.34,112.0938 L247.34,88.2969 L237.34,78.2969 L99.84,78.2969 A2.5,2.5 0 0 0 97.34,80.7969 " fill="#F1F1F1" style="stroke:#181818;stroke-width:0.5;"/><path d="M237.34,78.2969 L237.34,85.7969 A2.5,2.5 0 0 0 239.84,88.2969 L247.34,88.2969 " fill="#F1F1F1" style="stroke:#181818;stroke-width:0.5;"/><text fill="#000000" font-family="sans-serif" font-size="14" lengthAdjust="spacing" textLength="130" x="107.34" y="101.292">PDDL RCL problem</text></g><!--MD5=[f538cd5cfea9b9f400fdca51e86c13d1]
entity FEEDBACK--><g id="elem_FEEDBACK"><polygon fill="#F1F1F1" points="457.84,614.2969,467.84,604.2969,626.84,604.2969,626.84,640.5938,616.84,650.5938,457.84,650.5938,457.84,614.2969" style="stroke:#181818;stroke-width:0.5;"/><line style="stroke:#181818;stroke-width:0.5;" x1="616.84" x2="626.84" y1="614.2969" y2="604.2969"/><line style="stroke:#181818;stroke-width:0.5;" x1="457.84" x2="616.84" y1="614.2969" y2="614.2969"/><line style="stroke:#181818;stroke-width:0.5;" x1="616.84" x2="616.84" y1="614.2969" y2="650.5938"/><text fill="#000000" font-family="sans-serif" font-size="14" lengthAdjust="spacing" textLength="129" x="472.84" y="637.292">feedback manager</text></g><!--MD5=[d2a866b1738f2713b1c256c1b3b522f0]
entity REPLAN--><g id="elem_REPLAN"><polygon fill="#F1F1F1" points="176.34,434.2969,186.34,424.2969,270.34,424.2969,270.34,460.5938,260.34,470.5938,176.34,470.5938,176.34,434.2969" style="stroke:#181818;stroke-width:0.5;"/><line style="stroke:#181818;stroke-width:0.5;" x1="260.34" x2="270.34" y1="434.2969" y2="424.2969"/><line style="stroke:#181818;stroke-width:0.5;" x1="176.34" x2="260.34" y1="434.2969" y2="434.2969"/><line style="stroke:#181818;stroke-width:0.5;" x1="260.34" x2="260.34" y1="434.2969" y2="470.5938"/><text fill="#000000" font-family="sans-serif" font-size="14" lengthAdjust="spacing" textLength="54" x="191.34" y="457.292">REPLAN</text></g><!--MD5=[5d298df35e955cc49a562ca8c4307f68]
entity SOLVE--><g id="elem_SOLVE"><polygon fill="#F1F1F1" points="305.84,434.2969,315.84,424.2969,390.84,424.2969,390.84,460.5938,380.84,470.5938,305.84,470.5938,305.84,434.2969" style="stroke:#181818;stroke-width:0.5;"/><line style="stroke:#181818;stroke-width:0.5;" x1="380.84" x2="390.84" y1="434.2969" y2="424.2969"/><line style="stroke:#181818;stroke-width:0.5;" x1="305.84" x2="380.84" y1="434.2969" y2="434.2969"/><line style="stroke:#181818;stroke-width:0.5;" x1="380.84" x2="380.84" y1="434.2969" y2="470.5938"/><text fill="#000000" font-family="sans-serif" font-size="14" lengthAdjust="spacing" textLength="45" x="320.84" y="457.292">SOLVE</text></g><!--MD5=[e76728030785b4949be71f6784ddb581]
entity COLLECT--><g id="elem_COLLECT"><polygon fill="#F1F1F1" points="176.84,614.2969,186.84,604.2969,279.84,604.2969,279.84,640.5938,269.84,650.5938,176.84,650.5938,176.84,614.2969" style="stroke:#181818;stroke-width:0.5;"/><line style="stroke:#181818;stroke-width:0.5;" x1="269.84" x2="279.84" y1="614.2969" y2="604.2969"/><line style="stroke:#181818;stroke-width:0.5;" x1="176.84" x2="269.84" y1="614.2969" y2="614.2969"/><line style="stroke:#181818;stroke-width:0.5;" x1="269.84" x2="269.84" y1="614.2969" y2="650.5938"/><text fill="#000000" font-family="sans-serif" font-size="14" lengthAdjust="spacing" textLength="63" x="191.84" y="637.292">COLLECT</text></g><!--MD5=[0ff8cde09c95e7bd5ad5c1a367aa2e4a]
entity ORACLE--><g id="elem_ORACLE"><rect fill="#F1F1F1" height="46.2969" rx="2.5" ry="2.5" style="stroke:#181818;stroke-width:0.5;" width="114" x="1575.34" y="424.2969"/><rect fill="#F1F1F1" height="10" style="stroke:#181818;stroke-width:0.5;" width="15" x="1669.34" y="429.2969"/><rect fill="#F1F1F1" height="2" style="stroke:#181818;stroke-width:0.5;" width="4" x="1667.34" y="431.2969"/><rect fill="#F1F1F1" height="2" style="stroke:#181818;stroke-width:0.5;" width="4" x="1667.34" y="435.2969"/><text fill="#000000" font-family="sans-serif" font-size="14" lengthAdjust="spacing" textLength="74" x="1590.34" y="457.292">erl3 Oracle</text></g><!--MD5=[5204d39963f022b927e8638925f341ea]
entity MARKERS--><g id="elem_MARKERS"><rect fill="#F1F1F1" height="46.2969" rx="2.5" ry="2.5" style="stroke:#181818;stroke-width:0.5;" width="164" x="1376.34" y="424.2969"/><rect fill="#F1F1F1" height="10" style="stroke:#181818;stroke-width:0.5;" width="15" x="1520.34" y="429.2969"/><rect fill="#F1F1F1" height="2" style="stroke:#181818;stroke-width:0.5;" width="4" x="1518.34" y="431.2969"/><rect fill="#F1F1F1" height="2" style="stroke:#181818;stroke-width:0.5;" width="4" x="1518.34" y="435.2969"/><text fill="#000000" font-family="sans-serif" font-size="14" lengthAdjust="spacing" textLength="124" x="1391.34" y="457.292">markers publisher</text></g><!--MD5=[81dfe9f25295c11202e400f169df631e]
entity VISION--><g id="elem_VISION"><rect fill="#F1F1F1" height="46.2969" rx="2.5" ry="2.5" style="stroke:#181818;stroke-width:0.5;" width="180" x="1544.34" y="174.2969"/><rect fill="#F1F1F1" height="10" style="stroke:#181818;stroke-width:0.5;" width="15" x="1704.34" y="179.2969"/><rect fill="#F1F1F1" height="2" style="stroke:#181818;stroke-width:0.5;" width="4" x="1702.34" y="181.2969"/><rect fill="#F1F1F1" height="2" style="stroke:#181818;stroke-width:0.5;" width="4" x="1702.34" y="185.2969"/><text fill="#000000" font-family="sans-serif" font-size="14" lengthAdjust="spacing" textLength="140" x="1559.34" y="207.292">RCL vision detection</text></g><!--MD5=[24161752abd23858f57440938ff69201]
entity VISION_DECODE--><g id="elem_VISION_DECODE"><rect fill="#F1F1F1" height="46.2969" rx="2.5" ry="2.5" style="stroke:#181818;stroke-width:0.5;" width="172" x="1546.34" y="287.2969"/><rect fill="#F1F1F1" height="10" style="stroke:#181818;stroke-width:0.5;" width="15" x="1698.34" y="292.2969"/><rect fill="#F1F1F1" height="2" style="stroke:#181818;stroke-width:0.5;" width="4" x="1696.34" y="294.2969"/><rect fill="#F1F1F1" height="2" style="stroke:#181818;stroke-width:0.5;" width="4" x="1696.34" y="298.2969"/><text fill="#000000" font-family="sans-serif" font-size="14" lengthAdjust="spacing" textLength="132" x="1561.34" y="320.292">RCL vision decoder</text></g><!--MD5=[6c29d6d58a9f0276963dc0c6a0f4c57d]
entity RCL robot 'hunter'--><g id="elem_RCL robot 'hunter'"><rect fill="#F1F1F1" height="46.2969" rx="2.5" ry="2.5" style="stroke:#181818;stroke-width:0.5;" width="164" x="2262.34" y="287.2969"/><rect fill="#F1F1F1" height="10" style="stroke:#181818;stroke-width:0.5;" width="15" x="2406.34" y="292.2969"/><rect fill="#F1F1F1" height="2" style="stroke:#181818;stroke-width:0.5;" width="4" x="2404.34" y="294.2969"/><rect fill="#F1F1F1" height="2" style="stroke:#181818;stroke-width:0.5;" width="4" x="2404.34" y="298.2969"/><text fill="#000000" font-family="sans-serif" font-size="14" lengthAdjust="spacing" textLength="124" x="2277.34" y="320.292">RCL robot 'hunter'</text></g><!--MD5=[bbf9db7559709992d85d6a920c748d19]
entity Gazebo--><g id="elem_Gazebo"><polygon fill="#F1F1F1" points="2461.34,297.2969,2471.34,287.2969,2555.34,287.2969,2555.34,323.5938,2545.34,333.5938,2461.34,333.5938,2461.34,297.2969" style="stroke:#181818;stroke-width:0.5;"/><line style="stroke:#181818;stroke-width:0.5;" x1="2545.34" x2="2555.34" y1="297.2969" y2="287.2969"/><line style="stroke:#181818;stroke-width:0.5;" x1="2461.34" x2="2545.34" y1="297.2969" y2="297.2969"/><line style="stroke:#181818;stroke-width:0.5;" x1="2545.34" x2="2545.34" y1="297.2969" y2="333.5938"/><text fill="#000000" font-family="sans-serif" font-size="14" lengthAdjust="spacing" textLength="54" x="2476.34" y="320.292">Gazebo</text></g><!--MD5=[6cc809afb1025c0910cc05bebbdf57d7]
entity RViz--><g id="elem_RViz"><polygon fill="#F1F1F1" points="2309.34,434.2969,2319.34,424.2969,2379.34,424.2969,2379.34,460.5938,2369.34,470.5938,2309.34,470.5938,2309.34,434.2969" style="stroke:#181818;stroke-width:0.5;"/><line style="stroke:#181818;stroke-width:0.5;" x1="2369.34" x2="2379.34" y1="434.2969" y2="424.2969"/><line style="stroke:#181818;stroke-width:0.5;" x1="2309.34" x2="2369.34" y1="434.2969" y2="434.2969"/><line style="stroke:#181818;stroke-width:0.5;" x1="2369.34" x2="2369.34" y1="434.2969" y2="470.5938"/><text fill="#000000" font-family="sans-serif" font-size="14" lengthAdjust="spacing" textLength="30" x="2324.34" y="457.292">RViz</text></g><!--MD5=[6c629335c16ba9d7cc5a2834000a699b]
entity MOVEIT--><g id="elem_MOVEIT"><rect fill="#F1F1F1" height="46.2969" rx="2.5" ry="2.5" style="stroke:#181818;stroke-width:0.5;" width="90" x="1745.34" y="424.2969"/><rect fill="#F1F1F1" height="10" style="stroke:#181818;stroke-width:0.5;" width="15" x="1815.34" y="429.2969"/><rect fill="#F1F1F1" height="2" style="stroke:#181818;stroke-width:0.5;" width="4" x="1813.34" y="431.2969"/><rect fill="#F1F1F1" height="2" style="stroke:#181818;stroke-width:0.5;" width="4" x="1813.34" y="435.2969"/><text fill="#000000" font-family="sans-serif" font-size="14" lengthAdjust="spacing" textLength="50" x="1760.34" y="457.292">MoveIt!</text></g><!--MD5=[83ad7d60e692cef2ec1145dd32723aeb]
entity Move Base--><g id="elem_Move Base"><rect fill="#F1F1F1" height="46.2969" rx="2.5" ry="2.5" style="stroke:#181818;stroke-width:0.5;" width="116" x="1926.34" y="424.2969"/><rect fill="#F1F1F1" height="10" style="stroke:#181818;stroke-width:0.5;" width="15" x="2022.34" y="429.2969"/><rect fill="#F1F1F1" height="2" style="stroke:#181818;stroke-width:0.5;" width="4" x="2020.34" y="431.2969"/><rect fill="#F1F1F1" height="2" style="stroke:#181818;stroke-width:0.5;" width="4" x="2020.34" y="435.2969"/><text fill="#000000" font-family="sans-serif" font-size="14" lengthAdjust="spacing" textLength="76" x="1941.34" y="457.292">Move Base</text></g><!--MD5=[4e612f954c2a999e31288b6e9c5d5f6e]
entity AMCL--><g id="elem_AMCL"><rect fill="#F1F1F1" height="46.2969" rx="2.5" ry="2.5" style="stroke:#181818;stroke-width:0.5;" width="78" x="2077.34" y="424.2969"/><rect fill="#F1F1F1" height="10" style="stroke:#181818;stroke-width:0.5;" width="15" x="2135.34" y="429.2969"/><rect fill="#F1F1F1" height="2" style="stroke:#181818;stroke-width:0.5;" width="4" x="2133.34" y="431.2969"/><rect fill="#F1F1F1" height="2" style="stroke:#181818;stroke-width:0.5;" width="4" x="2133.34" y="435.2969"/><text fill="#000000" font-family="sans-serif" font-size="14" lengthAdjust="spacing" textLength="38" x="2092.34" y="457.292">AMCL</text></g><!--MD5=[f37e858f0886a56eaba6701c96c5ef94]
entity SLAM/GMapping--><g id="elem_SLAM/GMapping"><rect fill="#F1F1F1" height="46.2969" rx="2.5" ry="2.5" style="stroke:#181818;stroke-width:0.5;" width="152" x="1926.34" y="604.2969"/><rect fill="#F1F1F1" height="10" style="stroke:#181818;stroke-width:0.5;" width="15" x="2058.34" y="609.2969"/><rect fill="#F1F1F1" height="2" style="stroke:#181818;stroke-width:0.5;" width="4" x="2056.34" y="611.2969"/><rect fill="#F1F1F1" height="2" style="stroke:#181818;stroke-width:0.5;" width="4" x="2056.34" y="615.2969"/><text fill="#000000" font-family="sans-serif" font-size="14" lengthAdjust="spacing" textLength="112" x="1941.34" y="637.292">SLAM/GMapping</text></g><!--MD5=[80ad804a48cb6a09fe122341649e624a]
entity MOVEMENT--><g id="elem_MOVEMENT"><rect fill="#F1F1F1" height="46.2969" rx="2.5" ry="2.5" style="stroke:#181818;stroke-width:0.5;" width="206" x="1260.34" y="604.2969"/><rect fill="#F1F1F1" height="10" style="stroke:#181818;stroke-width:0.5;" width="15" x="1446.34" y="609.2969"/><rect fill="#F1F1F1" height="2" style="stroke:#181818;stroke-width:0.5;" width="4" x="1444.34" y="611.2969"/><rect fill="#F1F1F1" height="2" style="stroke:#181818;stroke-width:0.5;" width="4" x="1444.34" y="615.2969"/><text fill="#000000" font-family="sans-serif" font-size="14" lengthAdjust="spacing" textLength="166" x="1275.34" y="637.292">RCL navigation manager</text></g><!--MD5=[ecfc7fc8bacca92c250605c7d15849a2]
entity MANIPULATION--><g id="elem_MANIPULATION"><rect fill="#F1F1F1" height="46.2969" rx="2.5" ry="2.5" style="stroke:#181818;stroke-width:0.5;" width="228" x="997.34" y="604.2969"/><rect fill="#F1F1F1" height="10" style="stroke:#181818;stroke-width:0.5;" width="15" x="1205.34" y="609.2969"/><rect fill="#F1F1F1" height="2" style="stroke:#181818;stroke-width:0.5;" width="4" x="1203.34" y="611.2969"/><rect fill="#F1F1F1" height="2" style="stroke:#181818;stroke-width:0.5;" width="4" x="1203.34" y="615.2969"/><text fill="#000000" font-family="sans-serif" font-size="14" lengthAdjust="spacing" textLength="188" x="1012.34" y="637.292">RCL manipulation controller</text></g><!--MD5=[3bce05297d300cfb2c59ee95a7d98da5]
entity bug_m--><g id="elem_bug_m"><polygon fill="#F1F1F1" points="1532.84,614.2969,1542.84,604.2969,1619.84,604.2969,1619.84,640.5938,1609.84,650.5938,1532.84,650.5938,1532.84,614.2969" style="stroke:#181818;stroke-width:0.5;"/><line style="stroke:#181818;stroke-width:0.5;" x1="1609.84" x2="1619.84" y1="614.2969" y2="604.2969"/><line style="stroke:#181818;stroke-width:0.5;" x1="1532.84" x2="1609.84" y1="614.2969" y2="614.2969"/><line style="stroke:#181818;stroke-width:0.5;" x1="1609.84" x2="1609.84" y1="614.2969" y2="650.5938"/><text fill="#000000" font-family="sans-serif" font-size="14" lengthAdjust="spacing" textLength="47" x="1547.84" y="637.292">bug_m</text></g><!--MD5=[d89e97997296693730c3fee15c3dce4b]
entity move_base_nav--><g id="elem_move_base_nav"><polygon fill="#F1F1F1" points="1655.34,614.2969,1665.34,604.2969,1805.34,604.2969,1805.34,640.5938,1795.34,650.5938,1655.34,650.5938,1655.34,614.2969" style="stroke:#181818;stroke-width:0.5;"/><line style="stroke:#181818;stroke-width:0.5;" x1="1795.34" x2="1805.34" y1="614.2969" y2="604.2969"/><line style="stroke:#181818;stroke-width:0.5;" x1="1655.34" x2="1795.34" y1="614.2969" y2="614.2969"/><line style="stroke:#181818;stroke-width:0.5;" x1="1795.34" x2="1795.34" y1="614.2969" y2="650.5938"/><text fill="#000000" font-family="sans-serif" font-size="14" lengthAdjust="spacing" textLength="110" x="1670.34" y="637.292">move_base_nav</text></g><!--MD5=[b8645edb20703ee1fdcef13886479323]
entity head_orientation--><g id="elem_head_orientation"><polygon fill="#F1F1F1" points="1498.34,720.2969,1508.34,710.2969,1654.34,710.2969,1654.34,746.5938,1644.34,756.5938,1498.34,756.5938,1498.34,720.2969" style="stroke:#181818;stroke-width:0.5;"/><line style="stroke:#181818;stroke-width:0.5;" x1="1644.34" x2="1654.34" y1="720.2969" y2="710.2969"/><line style="stroke:#181818;stroke-width:0.5;" x1="1498.34" x2="1644.34" y1="720.2969" y2="720.2969"/><line style="stroke:#181818;stroke-width:0.5;" x1="1644.34" x2="1644.34" y1="720.2969" y2="756.5938"/><text fill="#000000" font-family="sans-serif" font-size="14" lengthAdjust="spacing" textLength="116" x="1513.34" y="743.292">head_orientation</text></g><!--MD5=[12b301ae74e92ec17dcb045da6d8c140]
entity go_to_point--><g id="elem_go_to_point"><polygon fill="#F1F1F1" points="1689.84,720.2969,1699.84,710.2969,1810.84,710.2969,1810.84,746.5938,1800.84,756.5938,1689.84,756.5938,1689.84,720.2969" style="stroke:#181818;stroke-width:0.5;"/><line style="stroke:#181818;stroke-width:0.5;" x1="1800.84" x2="1810.84" y1="720.2969" y2="710.2969"/><line style="stroke:#181818;stroke-width:0.5;" x1="1689.84" x2="1800.84" y1="720.2969" y2="720.2969"/><line style="stroke:#181818;stroke-width:0.5;" x1="1800.84" x2="1800.84" y1="720.2969" y2="756.5938"/><text fill="#000000" font-family="sans-serif" font-size="14" lengthAdjust="spacing" textLength="81" x="1704.84" y="743.292">go_to_point</text></g><!--MD5=[baa7171b179f334bc22278a098c5fa40]
link RCL_ARMOR to ARMOR--><g id="link_RCL_ARMOR_ARMOR"><path codeLine="13" d="M775.34,470.4769 C775.34,504.8669 775.34,570.6269 775.34,604.6669 " fill="none" id="RCL_ARMOR-ARMOR" style="stroke:#181818;stroke-width:1.0;"/></g><!--MD5=[0aab3e68137ee0dacbe649f48fd6cdbf]
link MISSION_MANAGER to MANIP_UNIT--><g id="link_MISSION_MANAGER_MANIP_UNIT"><path codeLine="21" d="M1220.88,333.5869 C1215.88,358.6069 1207.81,398.9469 1202.81,423.9669 " fill="none" id="MISSION_MANAGER-MANIP_UNIT" style="stroke:#181818;stroke-width:1.0;"/></g><!--MD5=[a37d16129c1c7b2b911d1f44117703b0]
link FEEDBACK to ROSPLAN--><g id="link_FEEDBACK_ROSPLAN"><path codeLine="37" d="M501.78,650.2969 C475.53,663.6869 440.23,680.1069 407.34,690.2969 C366.41,702.9769 320.35,712.1569 279.37,718.6269 " fill="none" id="FEEDBACK-to-ROSPLAN" style="stroke:#181818;stroke-width:1.0;"/><polygon fill="#181818" points="274.39,719.4069,283.8992,721.9712,279.3302,718.6359,282.6655,714.0669,274.39,719.4069" style="stroke:#181818;stroke-width:1.0;"/></g><!--MD5=[d738a5db84756bdf331c2ee9f799dc8c]
link ROSPLAN_ACTIONS to FEEDBACK--><g id="link_ROSPLAN_ACTIONS_FEEDBACK"><path codeLine="38" d="M434.6017,460.9782 C434.6934,461.1189 434.7858,461.2606 434.8788,461.4033 C435.2509,461.9743 435.6334,462.5611 436.0259,463.1633 C436.8109,464.3678 437.636,465.6337 438.4983,466.9567 C445.3966,477.5409 454.6756,491.7787 464.8613,507.4081 C485.2325,538.6669 509.23,575.4919 525.06,599.7869 " fill="none" id="ROSPLAN_ACTIONS-to-FEEDBACK" style="stroke:#181818;stroke-width:1.0;"/><polygon fill="#181818" points="527.84,604.0369,526.2761,594.313,525.1095,599.8483,519.5743,598.6817,527.84,604.0369" style="stroke:#181818;stroke-width:1.0;"/></g><!--MD5=[e03eb768aca26201f2e9c5aa718dbf7d]
link ROSPLAN_COMPONENTS to ROSPLAN_ACTIONS--><g id="link_ROSPLAN_COMPONENTS_ROSPLAN_ACTIONS"><path codeLine="39" d="M379.89,333.3169 C389.96,342.2169 400.41,353.2369 407.34,365.2969 C409.57,369.1794 411.5386,373.3094 413.2764,377.57 C413.7108,378.6352 414.1309,379.7085 414.5369,380.7881 C414.5877,380.9231 414.6382,381.0581 414.6886,381.1933 " fill="none" id="ROSPLAN_COMPONENTS-ROSPLAN_ACTIONS" style="stroke:#181818;stroke-width:1.0;"/></g><!--MD5=[c1f30674e5e2e1cb6cec7ea11d2def16]
link ROSPLANKB to ROSPLAN_COMPONENTS--><g id="link_ROSPLANKB_ROSPLAN_COMPONENTS"><path codeLine="41" d="M244.1,219.9669 C267.06,239.2669 300.53,267.4069 323.74,286.9269 " fill="none" id="ROSPLANKB-ROSPLAN_COMPONENTS" style="stroke:#181818;stroke-width:1.0;"/></g><!--MD5=[66d5ba8445835e16325a510c64673028]
link ROSPLANKB to RCL_KBTOOLS--><g id="link_ROSPLANKB_RCL_KBTOOLS"><path codeLine="42" d="M198.63,219.9669 C181.06,239.2669 155.46,267.4069 137.7,286.9269 " fill="none" id="ROSPLANKB-RCL_KBTOOLS" style="stroke:#181818;stroke-width:1.0;"/></g><!--MD5=[cbd4323208b0c2c89073adee208c515f]
link ROSPLANKB to ROSPLAN--><g id="link_ROSPLANKB_ROSPLAN"><path codeLine="43" d="M223.3,219.9569 C229.78,254.4369 236.32,321.5569 199.34,357.2969 C184.27,371.8669 119.52,349.8569 105.34,365.2969 C56.48,418.4869 72.5,625.9769 105.34,690.2969 C109.3,698.0469 115.43,704.6969 122.24,710.2769 " fill="none" id="ROSPLANKB-ROSPLAN" style="stroke:#181818;stroke-width:1.0;"/></g><!--MD5=[9d9a46e644c7cbebb22e58420f598ef5]
link RCL_KBTOOLS to ROSPLAN--><g id="link_RCL_KBTOOLS_ROSPLAN"><path codeLine="44" d="M98.31,333.4169 C91.57,342.6469 84.8,353.8669 81.34,365.2969 C39.48,503.5469 6,567.0569 81.34,690.2969 C86.26,698.3469 93.27,704.9169 101.14,710.2669 " fill="none" id="RCL_KBTOOLS-ROSPLAN" style="stroke:#181818;stroke-width:1.0;"/></g><!--MD5=[3efa3e478faaae081596a985e8ab5828]
link DOMAIN to ROSPLANKB--><g id="link_DOMAIN_ROSPLANKB"><path codeLine="45" d="M330.96,114.3169 C308.03,131.0069 272.96,156.5369 248.06,174.6569 " fill="none" id="DOMAIN-ROSPLANKB" style="stroke:#181818;stroke-width:1.0;"/></g><!--MD5=[100bc635c5fe94bc7c430e84986b7ef9]
link PROBLEM to ROSPLANKB--><g id="link_PROBLEM_ROSPLANKB"><path codeLine="46" d="M180.35,114.5369 C188.13,131.2669 199.95,156.7069 208.33,174.7669 " fill="none" id="PROBLEM-ROSPLANKB" style="stroke:#181818;stroke-width:1.0;"/></g><!--MD5=[20fa6ebb47b67f574e1b89935ab02d50]
link ROSPLAN_COMPONENTS to ROSPLAN--><g id="link_ROSPLAN_COMPONENTS_ROSPLAN"><path codeLine="47" d="M299.73,333.3369 C277.85,342.0469 251.71,351.3769 227.34,357.2969 C212.77,360.8369 170.29,354.0869 160.34,365.2969 C71.72,465.1269 130.16,647.3469 154.31,710.2469 " fill="none" id="ROSPLAN_COMPONENTS-ROSPLAN" style="stroke:#181818;stroke-width:1.0;"/></g><!--MD5=[b98d991b687c2d10d51f6a031a420aaa]
link VISION to VISION_DECODE--><g id="link_VISION_VISION_DECODE"><path codeLine="59" d="M1633.94,220.4969 C1633.59,239.8569 1633.09,267.7869 1632.74,287.1369 " fill="none" id="VISION-VISION_DECODE" style="stroke:#181818;stroke-width:1.0;"/></g><!--MD5=[842b2851b2cd1464c25f009b2944caad]
link MISSION_MANAGER to RCL_ARMOR--><g id="link_MISSION_MANAGER_RCL_ARMOR"><path codeLine="90" d="M1181.8,333.3469 C1161.53,342.5169 1136.76,352.1969 1113.34,357.2969 C1068.79,366.9969 951.99,352.1269 908.34,365.2969 C868.22,377.3969 827.93,404.5369 802.38,424.0769 " fill="none" id="MISSION_MANAGER-RCL_ARMOR" style="stroke:#181818;stroke-width:1.0;"/></g><!--MD5=[47a0bb2913dc37425809b0f014cd8c46]
link MISSION_MANAGER to VISION_DECODE--><g id="link_MISSION_MANAGER_VISION_DECODE"><path codeLine="91" d="M1319.94,310.2969 C1395.39,310.2969 1470.85,310.2969 1546.31,310.2969 " fill="none" id="MISSION_MANAGER-VISION_DECODE" style="stroke:#181818;stroke-width:1.0;"/></g><!--MD5=[61381d6bf0e7dae87362e132ac3ded65]
link MISSION_MANAGER to ROSPLAN--><g id="link_MISSION_MANAGER_ROSPLAN"><path codeLine="92" d="M1174.74,333.3569 C1155.66,341.3369 1133.66,350.1369 1113.34,357.2969 C1101.54,361.4569 1096.46,357.9369 1086.34,365.2969 C1019.64,413.7969 1024.97,448.3069 981.34,518.2969 C934.91,592.7769 958.8,643.8469 884.34,690.2969 C834.01,721.6969 464.06,729.6269 274.57,731.6269 " fill="none" id="MISSION_MANAGER-ROSPLAN" style="stroke:#181818;stroke-width:1.0;"/></g><!--MD5=[ab91a5f2e08068b9424c3ab9025a1626]
link MISSION_MANAGER to ORACLE--><g id="link_MISSION_MANAGER_ORACLE"><path codeLine="93" d="M1320.23,325.1269 C1414.9,339.1569 1547.81,359.6069 1558.34,365.2969 C1583.98,379.1569 1605.4,405.3869 1618.49,424.2469 " fill="none" id="MISSION_MANAGER-ORACLE" style="stroke:#181818;stroke-width:1.0;"/></g><!--MD5=[c5c4b1e1921f196da47d5d28b1a00252]
link VISION_DECODE to ORACLE--><g id="link_VISION_DECODE_ORACLE"><path codeLine="94" d="M1632.34,333.5869 C1632.34,358.6069 1632.34,398.9469 1632.34,423.9669 " fill="none" id="VISION_DECODE-ORACLE" style="stroke:#181818;stroke-width:1.0;"/></g><!--MD5=[6c99642df7c3e0ee62e4a2668d9d2e69]
link MARKERS to NAV_UNIT--><g id="link_MARKERS_NAV_UNIT"><path codeLine="95" d="M1433.87,424.0569 C1410.67,404.5069 1373.86,377.3569 1336.34,365.2969 C1289.13,350.1269 1161.64,368.5069 1113.34,357.2969 C1091.59,352.2469 1068.79,342.5769 1050.18,333.3969 " fill="none" id="MARKERS-NAV_UNIT" style="stroke:#181818;stroke-width:1.0;"/></g><!--MD5=[4b3f2976f7df1cc181a264440184a09c]
link VISION to ENVIRONMENT--><g id="link_VISION_ENVIRONMENT"><path codeLine="96" d="M1724.4,215.1569 C1806.7,230.5619 1931.12,253.8519 2035.615,273.4119 C2087.8625,283.1919 2135.1288,292.0394 2169.6581,298.5025 C2186.9228,301.7341 2201.0033,304.3695 2210.9301,306.2274 C2213.4118,306.6919 2215.6339,307.1078 2217.5812,307.4722 C2218.0681,307.5633 2218.5377,307.6512 2218.99,307.7358 " fill="none" id="VISION-ENVIRONMENT" style="stroke:#181818;stroke-width:1.0;"/></g><!--MD5=[cbaab8b86e01fba88e79cd38bb824379]
link ENVIRONMENT to MOVEIT--><g id="link_ENVIRONMENT_MOVEIT"><path codeLine="97" d="M2219.2738,311.8735 C2217.6716,311.992 2215.8469,312.1285 2213.8143,312.2829 C2205.684,312.9007 2194.2273,313.8055 2180.3809,314.9911 C2152.6881,317.3622 2115.4363,320.8563 2076.1175,325.4231 C1997.48,334.5569 1910.575,347.9819 1875.34,365.2969 C1847.35,379.0569 1822.45,405.2969 1806.95,424.1869 " fill="none" id="ENVIRONMENT-MOVEIT" style="stroke:#181818;stroke-width:1.0;"/></g><!--MD5=[7fc6cd56aeb823ff5315d751dc17b37e]
link ENVIRONMENT to NAVSTACK--><g id="link_ENVIRONMENT_NAVSTACK"><path d="M2219.1728,311.5067 C2218.978,311.5124 2218.7801,311.5183 2218.5789,311.5244 C2218.1766,311.5364 2217.7615,311.549 2217.3338,311.5622 C2216.4784,311.5886 2215.5727,311.6173 2214.6185,311.6484 C2206.9847,311.8975 2196.2447,312.3031 2183.31,312.9394 C2157.4406,314.2119 2122.7925,316.4069 2086.6575,320.1169 C2014.3875,327.5369 1936.17,341.0169 1910.34,365.2969 C1907.0775,368.3644 1904.3266,371.8767 1902.0111,375.6812 C1901.4323,376.6323 1900.8806,377.6017 1900.355,378.5869 C1900.0922,379.0796 1899.8359,379.5761 1899.586,380.0764 C1899.461,380.3265 1899.3376,380.5776 1899.2158,380.8295 C1899.1549,380.9555 1899.0944,381.0817 1899.0343,381.2081 " fill="none" id="ENVIRONMENT-NAVSTACK" style="stroke:#181818;stroke-width:1.0;"/></g><!--MD5=[f18de347d8226dee32ce12fb4c34c831]
link MOVEIT to MANIPULATION--><g id="link_MOVEIT_MANIPULATION"><path codeLine="99" d="M1768.04,470.5569 C1752.07,484.8869 1729.24,502.2769 1705.34,510.2969 C1656.67,526.6269 1291.54,500.6169 1243.34,518.2969 C1195.8,535.7269 1152.88,578.0669 1129.61,604.2469 " fill="none" id="MOVEIT-MANIPULATION" style="stroke:#181818;stroke-width:1.0;"/></g><!--MD5=[48caf0876454b705856ed0b25a92eb24]
link NAVSTACK to MOVEMENT--><g id="link_NAVSTACK_MOVEMENT"><path codeLine="100" d="M1883.3192,470.609 C1883.2742,470.7088 1883.229,470.8088 1883.1836,470.9089 C1883.002,471.3094 1882.8172,471.7122 1882.6291,472.1171 C1882.2529,472.9269 1881.8637,473.745 1881.4612,474.5694 C1875.0225,487.7594 1865.205,502.5469 1851.34,510.2969 C1815.54,530.3069 1520.43,503.1069 1482.34,518.2969 C1438.28,535.8569 1400.26,577.7269 1379.69,603.8669 " fill="none" id="NAVSTACK-MOVEMENT" style="stroke:#181818;stroke-width:1.0;"/></g><!--MD5=[a1b89f6bdf32348038cb9443e7c941f4]
link MANIP_UNIT to MANIPULATION--><g id="link_MANIP_UNIT_MANIPULATION"><path codeLine="101" d="M1187.5,470.4769 C1170.78,504.6869 1138.9,569.9069 1122.18,604.1169 " fill="none" id="MANIP_UNIT-MANIPULATION" style="stroke:#181818;stroke-width:1.0;"/></g><!--MD5=[c9eba2f4952e04cb26662c685fc57773]
link NAV_UNIT to MOVEMENT--><g id="link_NAV_UNIT_MOVEMENT"><path codeLine="102" d="M1011.37,333.5669 C1014.65,376.0569 1028.45,468.2269 1086.34,510.2969 C1100.47,520.5669 1227.2,511.6269 1243.34,518.2969 C1287.38,536.4969 1325.84,578.1469 1346.72,604.0869 " fill="none" id="NAV_UNIT-MOVEMENT" style="stroke:#181818;stroke-width:1.0;"/></g><!--MD5=[444b32534efa1621659967c1b45da228]
link NAV_UNIT to ROSPLAN_ACTIONS--><g id="link_NAV_UNIT_ROSPLAN_ACTIONS"><path codeLine="103" d="M924.72,320.6369 C854.63,329.2569 753.23,343.9769 666.34,365.2969 C612.525,378.5019 553.545,398.3294 507.5212,415.0619 C484.5094,423.4281 464.7366,431.0206 450.468,436.6247 C446.9008,438.0257 443.6777,439.3024 440.834,440.4359 C439.4121,441.0027 438.0851,441.5336 436.8573,442.0263 C436.2435,442.2727 435.6544,442.5095 435.0907,442.7365 C434.9498,442.7932 434.8105,442.8494 434.6728,442.9049 " fill="none" id="NAV_UNIT-ROSPLAN_ACTIONS" style="stroke:#181818;stroke-width:1.0;"/></g><!--MD5=[987f7b1d9651c959ca77d7e47ff7f659]
@startuml

''' INFOS
title Project Architecture - extended
''' skinparam Padding 8
allow_mixing


''' COMPONENTS
package armor{
database "aRMOR" as ARMOR
component "RCL aRMOR interface" as RCL_ARMOR

RCL_ARMOR - - ARMOR
}

package "RCL Mission Manager"{
component "RCL mission manager" as MISSION_MANAGER
component "RCL manipulation unit" as MANIP_UNIT
component "RCL navigation unit" as NAV_UNIT

MISSION_MANAGER - - MANIP_UNIT
}

package "RCL ROSPlan" {
component "ROSPlan pipeline manager" as ROSPLAN
component "RCL kb_tools" as RCL_KBTOOLS
database "ROSPlan knowledge base" as ROSPLANKB
component "ROSPlan components" as ROSPLAN_COMPONENTS
file "PDDL RCL domain" as DOMAIN
file "PDDL RCL problem" as PROBLEM
node "feedback manager" as FEEDBACK
package "RCL ROSPlan Actions" as ROSPLAN_ACTIONS {
node REPLAN
node SOLVE
node COLLECT
}
FEEDBACK - -> ROSPLAN
ROSPLAN_ACTIONS - -> FEEDBACK
ROSPLAN_COMPONENTS - - ROSPLAN_ACTIONS

ROSPLANKB- - ROSPLAN_COMPONENTS
ROSPLANKB - - RCL_KBTOOLS
ROSPLANKB - - ROSPLAN
RCL_KBTOOLS - - ROSPLAN
DOMAIN - - ROSPLANKB
PROBLEM - - ROSPLANKB
ROSPLAN_COMPONENTS - - ROSPLAN
}

package "erl3"{
component "erl3 Oracle" as ORACLE
component "markers publisher" as MARKERS
}

package "RCL Vision" {
component "RCL vision detection" as VISION
component "RCL vision decoder" as VISION_DECODE

VISION - - VISION_DECODE
}

package "Simulated Environment" as ENVIRONMENT {
component "RCL robot 'hunter'"
node "Gazebo"
node "RViz"
}

package moveit {
component "MoveIt!" as MOVEIT
}

package "navigation stack" as NAVSTACK {
component "Move Base"
component "AMCL"
component "SLAM/GMapping"
}

package "RCL Movement Controller" {
component "RCL navigation manager" as MOVEMENT
component "RCL manipulation controller" as MANIPULATION
package behaviours {
node "bug_m"
node "move_base_nav"
node "head_orientation"
node "go_to_point"
}
}

''' CONNECTIONS
MISSION_MANAGER - - RCL_ARMOR
MISSION_MANAGER - - VISION_DECODE
MISSION_MANAGER - - ROSPLAN
MISSION_MANAGER - - ORACLE
VISION_DECODE - - ORACLE
MARKERS - - NAV_UNIT
VISION - - ENVIRONMENT
ENVIRONMENT - - MOVEIT
ENVIRONMENT - - NAVSTACK
MOVEIT - - MANIPULATION
NAVSTACK - - MOVEMENT
MANIP_UNIT - - MANIPULATION
NAV_UNIT - - MOVEMENT
NAV_UNIT - - ROSPLAN_ACTIONS

@enduml

@startuml

title Project Architecture - extended
allow_mixing


package armor{
database "aRMOR" as ARMOR
component "RCL aRMOR interface" as RCL_ARMOR

RCL_ARMOR - - ARMOR
}

package "RCL Mission Manager"{
component "RCL mission manager" as MISSION_MANAGER
component "RCL manipulation unit" as MANIP_UNIT
component "RCL navigation unit" as NAV_UNIT

MISSION_MANAGER - - MANIP_UNIT
}

package "RCL ROSPlan" {
component "ROSPlan pipeline manager" as ROSPLAN
component "RCL kb_tools" as RCL_KBTOOLS
database "ROSPlan knowledge base" as ROSPLANKB
component "ROSPlan components" as ROSPLAN_COMPONENTS
file "PDDL RCL domain" as DOMAIN
file "PDDL RCL problem" as PROBLEM
node "feedback manager" as FEEDBACK
package "RCL ROSPlan Actions" as ROSPLAN_ACTIONS {
node REPLAN
node SOLVE
node COLLECT
}
FEEDBACK - -> ROSPLAN
ROSPLAN_ACTIONS - -> FEEDBACK
ROSPLAN_COMPONENTS - - ROSPLAN_ACTIONS

ROSPLANKB- - ROSPLAN_COMPONENTS
ROSPLANKB - - RCL_KBTOOLS
ROSPLANKB - - ROSPLAN
RCL_KBTOOLS - - ROSPLAN
DOMAIN - - ROSPLANKB
PROBLEM - - ROSPLANKB
ROSPLAN_COMPONENTS - - ROSPLAN
}

package "erl3"{
component "erl3 Oracle" as ORACLE
component "markers publisher" as MARKERS
}

package "RCL Vision" {
component "RCL vision detection" as VISION
component "RCL vision decoder" as VISION_DECODE

VISION - - VISION_DECODE
}

package "Simulated Environment" as ENVIRONMENT {
component "RCL robot 'hunter'"
node "Gazebo"
node "RViz"
}

package moveit {
component "MoveIt!" as MOVEIT
}

package "navigation stack" as NAVSTACK {
component "Move Base"
component "AMCL"
component "SLAM/GMapping"
}

package "RCL Movement Controller" {
component "RCL navigation manager" as MOVEMENT
component "RCL manipulation controller" as MANIPULATION
package behaviours {
node "bug_m"
node "move_base_nav"
node "head_orientation"
node "go_to_point"
}
}

MISSION_MANAGER - - RCL_ARMOR
MISSION_MANAGER - - VISION_DECODE
MISSION_MANAGER - - ROSPLAN
MISSION_MANAGER - - ORACLE
VISION_DECODE - - ORACLE
MARKERS - - NAV_UNIT
VISION - - ENVIRONMENT
ENVIRONMENT - - MOVEIT
ENVIRONMENT - - NAVSTACK
MOVEIT - - MANIPULATION
NAVSTACK - - MOVEMENT
MANIP_UNIT - - MANIPULATION
NAV_UNIT - - MOVEMENT
NAV_UNIT - - ROSPLAN_ACTIONS

@enduml

PlantUML version 1.2022.6(Tue Jun 21 17:34:49 UTC 2022)
(GPL source distribution)
Java Runtime: Java(TM) SE Runtime Environment
JVM: Java HotSpot(TM) 64-Bit Server VM
Default Encoding: UTF-8
Language: en
Country: US
--></g></svg>