<?xml version="1.0" encoding="UTF-8" standalone="no"?><svg xmlns="http://www.w3.org/2000/svg" xmlns:xlink="http://www.w3.org/1999/xlink" contentStyleType="text/css" height="1621px" preserveAspectRatio="none" style="width:1027px;height:1621px;background:#FFFFFF;" version="1.1" viewBox="0 0 1027 1621" width="1027px" zoomAndPan="magnify"><defs/><g><rect height="42.2969" style="stroke:#00000000;stroke-width:1.0;fill:none;" width="180" x="416.5" y="5"/><text fill="#000000" font-family="sans-serif" font-size="14" font-weight="bold" lengthAdjust="spacing" textLength="154" x="429.5" y="30.9951">robocluedo rosplan</text><!--MD5=[19e394d6c1aed6b811eba8f457712ea3]
cluster robocluedo rosplan--><g id="cluster_robocluedo rosplan"><path d="M8.5,59.2969 L179.5,59.2969 A3.75,3.75 0 0 1 182,61.7969 L189,97.5938 L813.5,97.5938 A2.5,2.5 0 0 1 816,100.0938 L816,1483.7969 A2.5,2.5 0 0 1 813.5,1486.2969 L8.5,1486.2969 A2.5,2.5 0 0 1 6,1483.7969 L6,61.7969 A2.5,2.5 0 0 1 8.5,59.2969 " style="stroke:#000000;stroke-width:1.5;fill:none;"/><line style="stroke:#000000;stroke-width:1.5;fill:none;" x1="6" x2="189" y1="97.5938" y2="97.5938"/><text fill="#000000" font-family="sans-serif" font-size="14" font-weight="bold" lengthAdjust="spacing" textLength="154" x="18" y="82.292">robocluedo rosplan</text></g><!--MD5=[214036b6393beeef3a45e6f3b8ce1c8f]
cluster ROSplan--><g id="cluster_ROSplan"><path d="M32.5,371.2969 L114.5,371.2969 A3.75,3.75 0 0 1 117,373.7969 L124,409.5938 L420.5,409.5938 A2.5,2.5 0 0 1 423,412.0938 L423,1186.7969 A2.5,2.5 0 0 1 420.5,1189.2969 L32.5,1189.2969 A2.5,2.5 0 0 1 30,1186.7969 L30,373.7969 A2.5,2.5 0 0 1 32.5,371.2969 " style="stroke:#000000;stroke-width:1.5;fill:none;"/><line style="stroke:#000000;stroke-width:1.5;fill:none;" x1="30" x2="124" y1="409.5938" y2="409.5938"/><text fill="#000000" font-family="sans-serif" font-size="14" font-weight="bold" lengthAdjust="spacing" textLength="65" x="42" y="394.292">ROSplan</text></g><!--MD5=[c6f484c93ca94aa050b568abff685dd1]
cluster actions dispatch--><g id="cluster_actions dispatch"><path d="M633.5,1043.7969 L779.5,1043.7969 A3.75,3.75 0 0 1 782,1046.2969 L789,1082.0938 L789.5,1082.0938 A2.5,2.5 0 0 1 792,1084.5938 L792,1170.2969 A2.5,2.5 0 0 1 789.5,1172.7969 L633.5,1172.7969 A2.5,2.5 0 0 1 631,1170.2969 L631,1046.2969 A2.5,2.5 0 0 1 633.5,1043.7969 " style="stroke:#000000;stroke-width:1.5;fill:none;"/><line style="stroke:#000000;stroke-width:1.5;fill:none;" x1="631" x2="789" y1="1082.0938" y2="1082.0938"/><text fill="#000000" font-family="sans-serif" font-size="14" font-weight="bold" lengthAdjust="spacing" textLength="129" x="643" y="1066.792">actions dispatch</text></g><!--MD5=[c32029475a673329c3ad8c466c13ff13]
entity PDDL_DOM--><g id="elem_PDDL_DOM"><path d="M164.5,125.7969 L164.5,189.3906 A2.5,2.5 0 0 0 167,191.8906 L249,191.8906 A2.5,2.5 0 0 0 251.5,189.3906 L251.5,133.2969 L241.5,123.2969 L167,123.2969 A2.5,2.5 0 0 0 164.5,125.7969 " fill="#F1F1F1" style="stroke:#181818;stroke-width:0.5;"/><path d="M241.5,123.2969 L241.5,130.7969 A2.5,2.5 0 0 0 244,133.2969 L251.5,133.2969 " fill="#F1F1F1" style="stroke:#181818;stroke-width:0.5;"/><text fill="#000000" font-family="sans-serif" font-size="14" lengthAdjust="spacing" textLength="30" x="182.5" y="154.292">pddl</text><text fill="#000000" font-family="sans-serif" font-size="14" lengthAdjust="spacing" textLength="51" x="182.5" y="170.5889">domain</text></g><!--MD5=[032fa86fe1238ac49b7d1f0d93309a4a]
entity PDDL_PROB--><g id="elem_PDDL_PROB"><path d="M36.5,125.7969 L36.5,189.3906 A2.5,2.5 0 0 0 39,191.8906 L127,191.8906 A2.5,2.5 0 0 0 129.5,189.3906 L129.5,133.2969 L119.5,123.2969 L39,123.2969 A2.5,2.5 0 0 0 36.5,125.7969 " fill="#F1F1F1" style="stroke:#181818;stroke-width:0.5;"/><path d="M119.5,123.2969 L119.5,130.7969 A2.5,2.5 0 0 0 122,133.2969 L129.5,133.2969 " fill="#F1F1F1" style="stroke:#181818;stroke-width:0.5;"/><text fill="#000000" font-family="sans-serif" font-size="14" lengthAdjust="spacing" textLength="30" x="54.5" y="154.292">pddl</text><text fill="#000000" font-family="sans-serif" font-size="14" lengthAdjust="spacing" textLength="57" x="54.5" y="170.5889">problem</text></g><!--MD5=[f538cd5cfea9b9f400fdca51e86c13d1]
entity FEEDBACK--><g id="elem_FEEDBACK"><rect fill="#F1F1F1" height="78.5938" rx="2.5" ry="2.5" style="stroke:#181818;stroke-width:0.5;" width="120" x="639" y="1391.2969"/><rect fill="#F1F1F1" height="10" style="stroke:#181818;stroke-width:0.5;" width="15" x="739" y="1396.2969"/><rect fill="#F1F1F1" height="2" style="stroke:#181818;stroke-width:0.5;" width="4" x="737" y="1398.2969"/><rect fill="#F1F1F1" height="2" style="stroke:#181818;stroke-width:0.5;" width="4" x="737" y="1402.2969"/><text fill="#000000" font-family="sans-serif" font-size="14" lengthAdjust="spacing" textLength="64" x="662" y="1432.292">feedback</text><text fill="#000000" font-family="sans-serif" font-size="14" lengthAdjust="spacing" textLength="61" x="662" y="1448.5889">manager</text></g><!--MD5=[d31e9ee264fe380d83edc82a54b843cf]
entity MANAGER--><g id="elem_MANAGER"><rect fill="#F1F1F1" height="110.8906" rx="2.5" ry="2.5" style="stroke:#181818;stroke-width:0.5;" width="175" x="439.5" y="1070.2969"/><rect fill="#F1F1F1" height="10" style="stroke:#181818;stroke-width:0.5;" width="15" x="594.5" y="1075.2969"/><rect fill="#F1F1F1" height="2" style="stroke:#181818;stroke-width:0.5;" width="4" x="592.5" y="1077.2969"/><rect fill="#F1F1F1" height="2" style="stroke:#181818;stroke-width:0.5;" width="4" x="592.5" y="1081.2969"/><text fill="#000000" font-family="sans-serif" font-size="14" font-style="italic" lengthAdjust="spacing" textLength="54" x="495" y="1111.292">«node»</text><text fill="#000000" font-family="sans-serif" font-size="14" lengthAdjust="spacing" textLength="59" x="462.5" y="1143.5889">ROSPlan</text><text fill="#000000" font-family="sans-serif" font-size="14" lengthAdjust="spacing" textLength="119" x="462.5" y="1159.8857">pipeline manager</text></g><!--MD5=[db20a57565cba22683396279855de892]
entity IKB--><g id="elem_IKB"><rect fill="#F1F1F1" height="94.5938" rx="2.5" ry="2.5" style="stroke:#181818;stroke-width:0.5;" width="139" x="629.5" y="110.2969"/><rect fill="#F1F1F1" height="10" style="stroke:#181818;stroke-width:0.5;" width="15" x="748.5" y="115.2969"/><rect fill="#F1F1F1" height="2" style="stroke:#181818;stroke-width:0.5;" width="4" x="746.5" y="117.2969"/><rect fill="#F1F1F1" height="2" style="stroke:#181818;stroke-width:0.5;" width="4" x="746.5" y="121.2969"/><text fill="#000000" font-family="sans-serif" font-size="14" font-style="italic" lengthAdjust="spacing" textLength="54" x="667" y="151.292">«node»</text><text fill="#000000" font-family="sans-serif" font-size="14" lengthAdjust="spacing" textLength="83" x="652.5" y="183.5889">KB interface</text></g><!--MD5=[3287247eb5ef114031405aae8a2c204e]
entity KB--><g id="elem_KB"><path d="M46,432.7969 C46,422.7969 121,422.7969 121,422.7969 C121,422.7969 196,422.7969 196,432.7969 L196,506.3906 C196,516.3906 121,516.3906 121,516.3906 C121,516.3906 46,516.3906 46,506.3906 L46,432.7969 " fill="#F1F1F1" style="stroke:#181818;stroke-width:0.5;"/><path d="M46,432.7969 C46,442.7969 121,442.7969 121,442.7969 C121,442.7969 196,442.7969 196,432.7969 " fill="none" style="stroke:#181818;stroke-width:0.5;"/><text fill="#000000" font-family="sans-serif" font-size="14" font-style="italic" lengthAdjust="spacing" textLength="77" x="82.5" y="467.792">«ROSPlan»</text><text fill="#000000" font-family="sans-serif" font-size="14" lengthAdjust="spacing" textLength="114" x="64" y="500.0889">knowledge base</text></g><!--MD5=[e79c8e6bb3a9323b12a58d750a988a49]
entity PROBLEM--><g id="elem_PROBLEM"><rect fill="#F1F1F1" height="94.5938" rx="2.5" ry="2.5" style="stroke:#181818;stroke-width:0.5;" width="177" x="230.5" y="422.2969"/><rect fill="#F1F1F1" height="10" style="stroke:#181818;stroke-width:0.5;" width="15" x="387.5" y="427.2969"/><rect fill="#F1F1F1" height="2" style="stroke:#181818;stroke-width:0.5;" width="4" x="385.5" y="429.2969"/><rect fill="#F1F1F1" height="2" style="stroke:#181818;stroke-width:0.5;" width="4" x="385.5" y="433.2969"/><text fill="#000000" font-family="sans-serif" font-size="14" font-style="italic" lengthAdjust="spacing" textLength="77" x="275.5" y="463.292">«ROSPlan»</text><text fill="#000000" font-family="sans-serif" font-size="14" lengthAdjust="spacing" textLength="121" x="253.5" y="495.5889">problem interface</text></g><!--MD5=[02ea8b2314e0d0d23d286ba4611632a1]
entity PLAN--><g id="elem_PLAN"><rect fill="#F1F1F1" height="94.5938" rx="2.5" ry="2.5" style="stroke:#181818;stroke-width:0.5;" width="179" x="227.5" y="638.2969"/><rect fill="#F1F1F1" height="10" style="stroke:#181818;stroke-width:0.5;" width="15" x="386.5" y="643.2969"/><rect fill="#F1F1F1" height="2" style="stroke:#181818;stroke-width:0.5;" width="4" x="384.5" y="645.2969"/><rect fill="#F1F1F1" height="2" style="stroke:#181818;stroke-width:0.5;" width="4" x="384.5" y="649.2969"/><text fill="#000000" font-family="sans-serif" font-size="14" font-style="italic" lengthAdjust="spacing" textLength="77" x="273.5" y="679.292">«ROSPlan»</text><text fill="#000000" font-family="sans-serif" font-size="14" lengthAdjust="spacing" textLength="123" x="250.5" y="711.5889">planning interface</text></g><!--MD5=[014bc5ca5401618d6f7935a2c849fb3a]
entity PARSE--><g id="elem_PARSE"><rect fill="#F1F1F1" height="94.5938" rx="2.5" ry="2.5" style="stroke:#181818;stroke-width:0.5;" width="171" x="233.5" y="854.2969"/><rect fill="#F1F1F1" height="10" style="stroke:#181818;stroke-width:0.5;" width="15" x="384.5" y="859.2969"/><rect fill="#F1F1F1" height="2" style="stroke:#181818;stroke-width:0.5;" width="4" x="382.5" y="861.2969"/><rect fill="#F1F1F1" height="2" style="stroke:#181818;stroke-width:0.5;" width="4" x="382.5" y="865.2969"/><text fill="#000000" font-family="sans-serif" font-size="14" font-style="italic" lengthAdjust="spacing" textLength="77" x="275.5" y="895.292">«ROSPlan»</text><text fill="#000000" font-family="sans-serif" font-size="14" lengthAdjust="spacing" textLength="115" x="256.5" y="927.5889">parsing interface</text></g><!--MD5=[82817458b664c54c40293f09e7dd8da8]
entity DISPATCH--><g id="elem_DISPATCH"><rect fill="#F1F1F1" height="94.5938" rx="2.5" ry="2.5" style="stroke:#181818;stroke-width:0.5;" width="162" x="241" y="1078.2969"/><rect fill="#F1F1F1" height="10" style="stroke:#181818;stroke-width:0.5;" width="15" x="383" y="1083.2969"/><rect fill="#F1F1F1" height="2" style="stroke:#181818;stroke-width:0.5;" width="4" x="381" y="1085.2969"/><rect fill="#F1F1F1" height="2" style="stroke:#181818;stroke-width:0.5;" width="4" x="381" y="1089.2969"/><text fill="#000000" font-family="sans-serif" font-size="14" font-style="italic" lengthAdjust="spacing" textLength="77" x="278.5" y="1119.292">«ROSPlan»</text><text fill="#000000" font-family="sans-serif" font-size="14" lengthAdjust="spacing" textLength="106" x="264" y="1151.5889">plan dispatcher</text></g><!--MD5=[19a4372ec6384714f7128c4c3231e834]
entity ACTION--><g id="elem_ACTION"><rect fill="#F1F1F1" height="62.2969" rx="2.5" ry="2.5" style="stroke:#181818;stroke-width:0.5;" width="98" x="650" y="1094.7969"/><rect fill="#F1F1F1" height="10" style="stroke:#181818;stroke-width:0.5;" width="15" x="728" y="1099.7969"/><rect fill="#F1F1F1" height="2" style="stroke:#181818;stroke-width:0.5;" width="4" x="726" y="1101.7969"/><rect fill="#F1F1F1" height="2" style="stroke:#181818;stroke-width:0.5;" width="4" x="726" y="1105.7969"/><text fill="#000000" font-family="sans-serif" font-size="14" lengthAdjust="spacing" textLength="42" x="673" y="1135.792">action</text></g><!--MD5=[4a6774d2d636828099b9e534edd85988]
entity TOPIC_FEEDBACK--><g id="elem_TOPIC_FEEDBACK"><ellipse cx="699" cy="1575.2969" fill="#F1F1F1" rx="8" ry="8" style="stroke:#181818;stroke-width:0.5;"/><text fill="#000000" font-family="sans-serif" font-size="14" lengthAdjust="spacing" textLength="102" x="648" y="1613.292">feedback topic</text></g><!--MD5=[344489d3fd119170a3238c0c85f4da92]
entity SRV_MANAGER--><g id="elem_SRV_MANAGER"><ellipse cx="934" cy="1286.2969" fill="#F1F1F1" rx="8" ry="8" style="stroke:#181818;stroke-width:0.5;"/><text fill="#000000" font-family="sans-serif" font-size="14" lengthAdjust="spacing" textLength="172" x="848" y="1324.292">service pipeline manager</text></g><!--MD5=[5d98fb7919dd88807c949731bc3424a6]
entity SRV_IKB--><g id="elem_SRV_IKB"><ellipse cx="916" cy="310.2969" fill="#F1F1F1" rx="8" ry="8" style="stroke:#181818;stroke-width:0.5;"/><text fill="#000000" font-family="sans-serif" font-size="14" lengthAdjust="spacing" textLength="136" x="848" y="348.292">KB interface service</text></g><!--MD5=[bb9595c6d383560a9747c5ee557e7288]
link KB to PROBLEM--><g id="link_KB_PROBLEM"><path d="M196.02,469.7969 C207.39,469.7969 218.76,469.7969 230.13,469.7969 " fill="none" id="KB-PROBLEM" style="stroke:#181818;stroke-width:1.0;"/></g><!--MD5=[a5428df31876122ec0a957eaa7670c51]
link PROBLEM to PLAN--><g id="link_PROBLEM_PLAN"><path d="M318.56,517.4969 C318.23,553.2869 317.77,602.4369 317.44,638.1969 " fill="none" id="PROBLEM-PLAN" style="stroke:#181818;stroke-width:1.0;"/></g><!--MD5=[aa8815982f1a66de47d205f89c42f108]
link PLAN to PARSE--><g id="link_PLAN_PARSE"><path d="M317.44,733.4969 C317.77,769.2869 318.23,818.4369 318.56,854.1969 " fill="none" id="PLAN-PARSE" style="stroke:#181818;stroke-width:1.0;"/></g><!--MD5=[1430abca236160ecee2090fced0690c9]
link KB to PARSE--><g id="link_KB_PARSE"><path d="M132.94,517.2269 C147.56,570.7869 174.8,660.7869 210,733.2969 C230.91,776.3669 260.95,821.6769 284.2,854.2969 " fill="none" id="KB-PARSE" style="stroke:#181818;stroke-width:1.0;"/></g><!--MD5=[38226559f342952f54409100cdf2b7fa]
link PARSE to DISPATCH--><g id="link_PARSE_DISPATCH"><path d="M319.63,949.3369 C320.14,987.0969 320.86,1040.0869 321.37,1077.9369 " fill="none" id="PARSE-DISPATCH" style="stroke:#181818;stroke-width:1.0;"/></g><!--MD5=[cd597169a586affe267fac75c2503e56]
link DISPATCH to KB--><g id="link_DISPATCH_KB"><path d="M245.44,1078.1569 C191.56,1038.8669 129,977.2269 129,902.7969 C129,684.7969 129,684.7969 129,684.7969 C129,626.9869 126.05,560.4469 123.73,517.1169 " fill="none" id="DISPATCH-KB" style="stroke:#181818;stroke-width:1.0;"/></g><!--MD5=[1b737f43765de1e8258759bcc4c19216]
link ACTION to IKB--><g id="link_ACTION_IKB"><path d="M699,1094.6369 C699,1051.9269 699,971.3969 699,902.7969 C699,468.7969 699,468.7969 699,468.7969 C699,375.4169 699,266.2269 699,205.5369 " fill="none" id="ACTION-IKB" style="stroke:#181818;stroke-width:1.0;"/></g><!--MD5=[80f77982fa39c7cbdf9f1b50cbac05b0]
link DISPATCH to ACTION--><g id="link_DISPATCH_ACTION"><path d="M353.26,1078.0869 C371.03,1055.9569 395.51,1032.4869 424.5,1023.0469 C467.61,1009.0069 585.39,1009.0069 628.5,1023.0469 C660.18,1033.3669 679.26,1068.4469 689.43,1094.7769 " fill="none" id="DISPATCH-ACTION" style="stroke:#181818;stroke-width:1.0;"/></g><!--MD5=[62991ef91f99bee3fb9d9e2d4fe55ada]
link PDDL_DOM to KB--><g id="link_PDDL_DOM_KB"><path d="M198.52,192.5669 C182.87,248.3469 151.58,359.8369 133.91,422.7869 " fill="none" id="PDDL_DOM-KB" style="stroke:#181818;stroke-width:1.0;"/></g><!--MD5=[717701e14dda4d2e6deac24fc3b4f732]
link PDDL_PROB to KB--><g id="link_PDDL_PROB_KB"><path d="M87.14,192.5669 C93.98,248.3469 107.64,359.8369 115.36,422.7869 " fill="none" id="PDDL_PROB-KB" style="stroke:#181818;stroke-width:1.0;"/></g><!--MD5=[40b9ac208f37f07ab6d18a7540c8d111]
link IKB to KB--><g id="link_IKB_KB"><path d="M629.17,177.2369 C529.97,205.7369 345.6,267.4269 213,363.2969 C190.45,379.5969 169.67,402.4269 153.58,422.6769 " fill="none" id="IKB-KB" style="stroke:#181818;stroke-width:1.0;"/></g><!--MD5=[16d15e542ce838403090355992ed061e]
link ACTION to FEEDBACK--><g id="link_ACTION_FEEDBACK"><path d="M699,1156.9569 C699,1212.3469 699,1330.1669 699,1391.2569 " fill="none" id="ACTION-FEEDBACK" style="stroke:#181818;stroke-width:1.0;"/></g><!--MD5=[1731a2b834dd093c2be5fedcecd3ae43]
link PROBLEM to MANAGER--><g id="link_PROBLEM_MANAGER"><path d="M393.84,517.3269 C444.78,555.3469 503,614.2369 503,684.7969 C503,684.7969 503,684.7969 503,902.7969 C503,960.1669 511.02,1025.4069 517.79,1070.2369 " fill="none" id="PROBLEM-MANAGER" style="stroke:#181818;stroke-width:1.0;"/></g><!--MD5=[bfa20aa4d3564532537a8b8a0c8c78a5]
link PLAN to MANAGER--><g id="link_PLAN_MANAGER"><path d="M349.58,733.4169 C371.7,766.2669 400.68,811.8069 422,854.2969 C458.26,926.5569 490.33,1014.5369 509.21,1070.1169 " fill="none" id="PLAN-MANAGER" style="stroke:#181818;stroke-width:1.0;"/></g><!--MD5=[9d26c7df7500e0a5c4d3642686c35ae3]
link PARSE to MANAGER--><g id="link_PARSE_MANAGER"><path d="M362.6,949.3369 C395.6,984.5569 441.01,1033.0269 475.75,1070.0969 " fill="none" id="PARSE-MANAGER" style="stroke:#181818;stroke-width:1.0;"/></g><!--MD5=[44304d84a77b9c12313e580eb8f02140]
link DISPATCH to MANAGER--><g id="link_DISPATCH_MANAGER"><path d="M403.28,1125.7969 C415.2,1125.7969 427.12,1125.7969 439.04,1125.7969 " fill="none" id="DISPATCH-MANAGER" style="stroke:#181818;stroke-width:1.0;"/></g><!--MD5=[0d91df645df5ea738140d6024ee71c06]
link FEEDBACK to TOPIC_FEEDBACK--><g id="link_FEEDBACK_TOPIC_FEEDBACK"><path d="M699,1470.3569 C699,1500.4969 699,1540.5969 699,1561.0569 " fill="none" id="FEEDBACK-to-TOPIC_FEEDBACK" style="stroke:#181818;stroke-width:1.0;"/><polygon fill="#181818" points="699,1566.2869,703,1557.2869,699,1561.2869,695,1557.2869,699,1566.2869" style="stroke:#181818;stroke-width:1.0;"/></g><!--MD5=[eae5336970671b01d545cadf53e4732d]
link MANAGER to SRV_MANAGER--><g id="link_MANAGER_SRV_MANAGER"><path d="M604.04,1181.3669 C613.88,1187.1869 624.01,1192.6669 634,1197.2969 C738.37,1245.6669 875.54,1274.2569 919.67,1282.6669 " fill="none" id="MANAGER-to-SRV_MANAGER" style="stroke:#181818;stroke-width:1.0;"/><polygon fill="#181818" points="924.81,1283.6369,916.6935,1278.0582,919.8943,1282.7223,915.2302,1285.9232,924.81,1283.6369" style="stroke:#181818;stroke-width:1.0;"/></g><!--MD5=[1c56fd08e5c63a447014e9c0211f3a9c]
link IKB to SRV_IKB--><g id="link_IKB_SRV_IKB"><path d="M766.17,205.3869 C814.65,239.0069 876.07,281.6069 902.69,300.0669 " fill="none" id="IKB-to-SRV_IKB" style="stroke:#181818;stroke-width:1.0;"/><polygon fill="#181818" points="906.96,303.0269,901.8295,294.6198,902.8465,300.1845,897.2818,301.2015,906.96,303.0269" style="stroke:#181818;stroke-width:1.0;"/></g><!--MD5=[949b2759b9da969a999042f131bb4c32]
@startuml

''' DIAGRAM INFOS
title "robocluedo rosplan"
skinparam Padding 8


''' DIAGRAM ELEMENTS
package "robocluedo rosplan" {

file "pddl\ndomain" as PDDL_DOM
file "pddl\nproblem" as PDDL_PROB

package "ROSplan" {
	database "knowledge base" <<ROSPlan>> as KB
	[problem interface] <<ROSPlan>> as PROBLEM
	[planning interface] <<ROSPlan>> as PLAN
	[parsing interface] <<ROSPlan>> as PARSE
	[plan dispatcher] <<ROSPlan>> as DISPATCH

	KB -right- - PROBLEM
	PROBLEM -down- - PLAN
	PLAN -down- - PARSE
	KB -right- PARSE
	PARSE -down- - DISPATCH
	KB -left- DISPATCH
}

package "actions dispatch" {
	[action] as ACTION
}

[feedback\nmanager] as FEEDBACK
[ROSPlan\npipeline manager] <<node>> as MANAGER
[KB interface] <<node>> as IKB
ACTION - - - IKB

DISPATCH -right- - ACTION
PDDL_DOM - - - KB
PDDL_PROB - - - KB
IKB - - - KB

ACTION - - - FEEDBACK

PROBLEM -right- - MANAGER
PLAN -right- - MANAGER
PARSE -right- - MANAGER
DISPATCH -right- - MANAGER
}

() "feedback topic" as TOPIC_FEEDBACK
FEEDBACK - -> TOPIC_FEEDBACK
() "service pipeline manager" as SRV_MANAGER
MANAGER - -> SRV_MANAGER
() "KB interface service" as SRV_IKB
IKB - -> SRV_IKB
@enduml

@startuml

title "robocluedo rosplan"
skinparam Padding 8


package "robocluedo rosplan" {

file "pddl\ndomain" as PDDL_DOM
file "pddl\nproblem" as PDDL_PROB

package "ROSplan" {
	database "knowledge base" <<ROSPlan>> as KB
	[problem interface] <<ROSPlan>> as PROBLEM
	[planning interface] <<ROSPlan>> as PLAN
	[parsing interface] <<ROSPlan>> as PARSE
	[plan dispatcher] <<ROSPlan>> as DISPATCH

	KB -right- - PROBLEM
	PROBLEM -down- - PLAN
	PLAN -down- - PARSE
	KB -right- PARSE
	PARSE -down- - DISPATCH
	KB -left- DISPATCH
}

package "actions dispatch" {
	[action] as ACTION
}

[feedback\nmanager] as FEEDBACK
[ROSPlan\npipeline manager] <<node>> as MANAGER
[KB interface] <<node>> as IKB
ACTION - - - IKB

DISPATCH -right- - ACTION
PDDL_DOM - - - KB
PDDL_PROB - - - KB
IKB - - - KB

ACTION - - - FEEDBACK

PROBLEM -right- - MANAGER
PLAN -right- - MANAGER
PARSE -right- - MANAGER
DISPATCH -right- - MANAGER
}

() "feedback topic" as TOPIC_FEEDBACK
FEEDBACK - -> TOPIC_FEEDBACK
() "service pipeline manager" as SRV_MANAGER
MANAGER - -> SRV_MANAGER
() "KB interface service" as SRV_IKB
IKB - -> SRV_IKB
@enduml

PlantUML version 1.2022.6(Tue Jun 21 17:34:49 UTC 2022)
(GPL source distribution)
Java Runtime: Java(TM) SE Runtime Environment
JVM: Java HotSpot(TM) 64-Bit Server VM
Default Encoding: UTF-8
Language: en
Country: US
--></g></svg>