<?xml version="1.0" encoding="UTF-8" standalone="no"?><svg xmlns="http://www.w3.org/2000/svg" xmlns:xlink="http://www.w3.org/1999/xlink" contentStyleType="text/css" height="638px" preserveAspectRatio="none" style="width:556px;height:638px;background:#FFFFFF;" version="1.1" viewBox="0 0 556 638" width="556px" zoomAndPan="magnify"><defs/><g><rect height="26.2969" style="stroke:#00000000;stroke-width:1.0;fill:none;" width="261" x="140.5" y="5"/><text fill="#000000" font-family="sans-serif" font-size="14" font-weight="bold" lengthAdjust="spacing" textLength="251" x="145.5" y="22.9951">Packages - Component Diagram</text><!--MD5=[0ab5e50cb7c4d5dbbc1bea50a8b4b262]
cluster Front End--><g id="cluster_Front End"><path d="M25.5,43.2969 L102.5,43.2969 A3.75,3.75 0 0 1 105,45.7969 L112,65.5938 L182.5,65.5938 A2.5,2.5 0 0 1 185,68.0938 L185,154.7969 A2.5,2.5 0 0 1 182.5,157.2969 L25.5,157.2969 A2.5,2.5 0 0 1 23,154.7969 L23,45.7969 A2.5,2.5 0 0 1 25.5,43.2969 " style="stroke:#000000;stroke-width:1.5;fill:none;"/><line style="stroke:#000000;stroke-width:1.5;fill:none;" x1="23" x2="112" y1="65.5938" y2="65.5938"/><text fill="#000000" font-family="sans-serif" font-size="14" font-weight="bold" lengthAdjust="spacing" textLength="76" x="27" y="58.292">Front End</text></g><!--MD5=[3c4e00c97b9221f7d5cabe40ae091159]
cluster Middle Tier--><g id="cluster_Middle Tier"><polygon points="16,277.2969,26,267.2969,353,267.2969,353,611.2969,343,621.2969,16,621.2969,16,277.2969" style="stroke:#181818;stroke-width:1.0;fill:none;"/><line style="stroke:#181818;stroke-width:1.0;fill:none;" x1="343" x2="353" y1="277.2969" y2="267.2969"/><line style="stroke:#181818;stroke-width:1.0;fill:none;" x1="16" x2="343" y1="277.2969" y2="277.2969"/><line style="stroke:#181818;stroke-width:1.0;fill:none;" x1="343" x2="343" y1="277.2969" y2="621.2969"/><text fill="#000000" font-family="sans-serif" font-size="14" font-weight="bold" lengthAdjust="spacing" textLength="87" x="137" y="293.292">Middle Tier</text></g><!--MD5=[47eb5c3b48c5c21aa220018153df89bc]
cluster PostgreSQL\n--><g id="cluster_PostgreSQL\n"><path d="M377,497.2969 C377,487.2969 458,487.2969 458,487.2969 C458,487.2969 539,487.2969 539,497.2969 L539,605.2969 C539,615.2969 458,615.2969 458,615.2969 C458,615.2969 377,615.2969 377,605.2969 L377,497.2969 " style="stroke:#181818;stroke-width:1.0;fill:none;"/><path d="M377,497.2969 C377,507.2969 458,507.2969 458,507.2969 C458,507.2969 539,507.2969 539,497.2969 " fill="none" style="stroke:#181818;stroke-width:1.0;"/><text fill="#000000" font-family="sans-serif" font-size="14" font-weight="bold" lengthAdjust="spacing" textLength="93" x="411.5" y="522.292">PostgreSQL</text><text fill="#000000" font-family="sans-serif" font-size="14" font-weight="bold" lengthAdjust="spacing" textLength="5" x="455.5" y="538.5889"> </text></g><!--MD5=[beb5ad5244d3d849df9473931f7c2e5e]
entity GUI--><g id="elem_GUI"><rect fill="#F1F1F1" height="62.5938" rx="2.5" ry="2.5" style="stroke:#181818;stroke-width:0.5;" width="129" x="39.5" y="78.2969"/><rect fill="#F1F1F1" height="10" style="stroke:#181818;stroke-width:0.5;" width="15" x="148.5" y="83.2969"/><rect fill="#F1F1F1" height="2" style="stroke:#181818;stroke-width:0.5;" width="4" x="146.5" y="85.2969"/><rect fill="#F1F1F1" height="2" style="stroke:#181818;stroke-width:0.5;" width="4" x="146.5" y="89.2969"/><text fill="#000000" font-family="sans-serif" font-size="14" lengthAdjust="spacing" textLength="89" x="54.5" y="111.292">Graphic User</text><text fill="#000000" font-family="sans-serif" font-size="14" lengthAdjust="spacing" textLength="60" x="54.5" y="127.5889">Interface</text></g><!--MD5=[9eb86c2b3d925a16ba1bdada40016c70]
entity Internet--><g id="elem_Internet"><path d="M71.3988,211.1228 C73.9638,205.0862 77.934,204.5055 82.7765,208.5534 C86.2724,203.749 91.434,202.6176 94.4051,209.0944 C96.2201,203.7292 100.7807,203.5039 104.2423,207.3325 C107.801,203.3047 113.5415,202.9749 115.4392,209.1545 C118.8776,204.3814 123.2059,203.2327 126.7597,209.0308 C131.2738,203.5575 134.7886,204.0979 138.0842,210.2207 C147.1733,212.8486 150.5441,217.1802 145.4225,226.2954 C151.1203,233.2352 146.8494,240.5087 138.9515,241.7591 C136.8116,247.199 132.8219,248.7178 128.1207,244.689 C124.9415,250.2976 120.5858,251.0309 116.0572,246.2568 C114.5309,252.3805 110.476,255.0813 104.7206,250.9168 C99.5438,254.9554 95.8058,252.7242 94.6306,246.8455 C89.2901,251.277 84.7708,250.8936 81.9358,244.0295 C77.8968,247.6116 73.7822,246.3262 72.1123,241.3197 C63.5685,237.6928 62.8125,230.8682 68.9753,224.4987 C62.7885,218.7243 63.2846,214.3061 71.3988,211.1228 " fill="#F1F1F1" style="stroke:#181818;stroke-width:0.5;"/><text fill="#000000" font-family="sans-serif" font-size="14" lengthAdjust="spacing" textLength="54" x="77" y="229.292">Internet</text></g><!--MD5=[fb00c69e7201c02321c0e089d5bf2a53]
entity Business Logic--><g id="elem_Business Logic"><rect fill="#F1F1F1" height="46.2969" rx="2.5" ry="2.5" style="stroke:#181818;stroke-width:0.5;" width="144" x="32" y="425.2969"/><rect fill="#F1F1F1" height="10" style="stroke:#181818;stroke-width:0.5;" width="15" x="156" y="430.2969"/><rect fill="#F1F1F1" height="2" style="stroke:#181818;stroke-width:0.5;" width="4" x="154" y="432.2969"/><rect fill="#F1F1F1" height="2" style="stroke:#181818;stroke-width:0.5;" width="4" x="154" y="436.2969"/><text fill="#000000" font-family="sans-serif" font-size="14" lengthAdjust="spacing" textLength="104" x="47" y="458.292">Business Logic</text></g><!--MD5=[bdbee0fc59a29b9ec21c283a244fef13]
entity DA--><g id="elem_DA"><rect fill="#F1F1F1" height="46.2969" rx="2.5" ry="2.5" style="stroke:#181818;stroke-width:0.5;" width="126" x="211" y="425.2969"/><rect fill="#F1F1F1" height="10" style="stroke:#181818;stroke-width:0.5;" width="15" x="317" y="430.2969"/><rect fill="#F1F1F1" height="2" style="stroke:#181818;stroke-width:0.5;" width="4" x="315" y="432.2969"/><rect fill="#F1F1F1" height="2" style="stroke:#181818;stroke-width:0.5;" width="4" x="315" y="436.2969"/><text fill="#000000" font-family="sans-serif" font-size="14" lengthAdjust="spacing" textLength="86" x="226" y="458.292">Data Access</text></g><!--MD5=[ec1fdf84fcc1264f8dfcd21b889d0341]
entity Math--><g id="elem_Math"><ellipse cx="104" cy="336.2969" fill="#F1F1F1" rx="8" ry="8" style="stroke:#181818;stroke-width:0.5;"/><text fill="#000000" font-family="sans-serif" font-size="14" lengthAdjust="spacing" textLength="37" x="85.5" y="366.292">IMath</text></g><!--MD5=[848639781a92f3625397569eb056d5b5]
entity Items--><g id="elem_Items"><ellipse cx="189" cy="576.2969" fill="#F1F1F1" rx="8" ry="8" style="stroke:#181818;stroke-width:0.5;"/><text fill="#000000" font-family="sans-serif" font-size="14" lengthAdjust="spacing" textLength="41" x="168.5" y="606.292">IItems</text></g><!--MD5=[577ff177b0bb17ec2bfbec6c41e866a9]
entity Stored Procs--><g id="elem_Stored Procs"><rect fill="#F1F1F1" height="46.2969" rx="2.5" ry="2.5" style="stroke:#181818;stroke-width:0.5;" width="129" x="393.5" y="553.2969"/><rect fill="#F1F1F1" height="10" style="stroke:#181818;stroke-width:0.5;" width="15" x="502.5" y="558.2969"/><rect fill="#F1F1F1" height="2" style="stroke:#181818;stroke-width:0.5;" width="4" x="500.5" y="560.2969"/><rect fill="#F1F1F1" height="2" style="stroke:#181818;stroke-width:0.5;" width="4" x="500.5" y="564.2969"/><text fill="#000000" font-family="sans-serif" font-size="14" lengthAdjust="spacing" textLength="89" x="408.5" y="586.292">Stored Procs</text></g><!--MD5=[855b6b1b54b35e81478b6d3bd5a35232]
link GUI to Internet--><g id="link_GUI_Internet"><path d="M104,141.5369 C104,158.4869 104,179.3569 104,195.7669 " fill="none" id="GUI-to-Internet" style="stroke:#181818;stroke-width:1.0;"/><polygon fill="#181818" points="104,201.1569,108,192.1569,104,196.1569,100,192.1569,104,201.1569" style="stroke:#181818;stroke-width:1.0;"/></g><!--MD5=[2d50a929c779d3a090580d4e540032c9]
link Internet to Math--><g id="link_Internet_Math"><path d="M104,247.5569 C104,268.0369 104,298.0269 104,317.1069 " fill="none" id="Internet-to-Math" style="stroke:#181818;stroke-width:1.0;"/><path d="M112.4572,324.0787 A9,9 0 0 0 95.5428 324.0787" fill="none" style="stroke:#181818;stroke-width:1.5;"/></g><!--MD5=[9c841ba81b9e3ab5530961468df0393d]
link Math to Business Logic--><g id="link_Math_Business Logic"><path d="M104,345.5669 C104,362.2569 104,400.4569 104,425.0069 " fill="none" id="Math-Business Logic" style="stroke:#181818;stroke-width:1.0;"/></g><!--MD5=[5a4c78eb887c675ef5041367312b3e48]
link DA to Items--><g id="link_DA_Items"><path d="M259,471.5369 C239.74,500.0769 207.29,548.1769 194.46,567.2069 " fill="none" id="DA-Items" style="stroke:#181818;stroke-width:1.0;"/></g><!--MD5=[1a4cf6b70aa0426f29ba13f961154bc9]
link Business Logic to Items--><g id="link_Business Logic_Items"><path d="M119,471.5369 C135.85,496.5069 162.8,536.4569 177.87,558.7969 " fill="none" id="Business Logic-to-Items" style="stroke:#181818;stroke-width:1.0;"/><path d="M188.8319,559.9271 A9,9 0 0 0 174.8068 569.3819" fill="none" style="stroke:#181818;stroke-width:1.5;"/></g><!--MD5=[4a3b89799edb895a3526061335f23f86]
link DA to Stored Procs--><g id="link_DA_Stored Procs"><path d="M337.14,470.7569 C342.64,473.3769 348,476.2169 353,479.2969 C386.44,499.8869 418.85,531.9269 438.6,553.2569 " fill="none" id="DA-Stored Procs" style="stroke:#181818;stroke-width:1.0;stroke-dasharray:7.0,7.0;"/></g><!--MD5=[7f6718ac426b76069aa15325fc41febb]
@startuml

title Packages - Component Diagram

package "Front End" {
        component [Graphic User\nInterface] as GUI
}

cloud Internet {
}

node "Middle Tier" {
        [Business Logic]
        [Data Access] as DA
        interface IMath as Math
        interface "IItems" as Items
}

database "PostgreSQL\n" {
        [Stored Procs]
}

GUI -down-> Internet
Internet -down-( Math
[Business Logic] -up- Math
DA - - Items
[Business Logic] - -( Items
DA .. [Stored Procs]

@enduml

PlantUML version 1.2022.6(Tue Jun 21 17:34:49 UTC 2022)
(GPL source distribution)
Java Runtime: Java(TM) SE Runtime Environment
JVM: Java HotSpot(TM) 64-Bit Server VM
Default Encoding: UTF-8
Language: en
Country: US
--></g></svg>