<?xml version="1.0" encoding="UTF-8" standalone="no"?><svg xmlns="http://www.w3.org/2000/svg" xmlns:xlink="http://www.w3.org/1999/xlink" contentStyleType="text/css" height="395px" preserveAspectRatio="none" style="width:2208px;height:395px;background:#FFFFFF;" version="1.1" viewBox="0 0 2208 395" width="2208px" zoomAndPan="magnify"><defs/><g><rect height="46.2969" style="stroke:#00000000;stroke-width:1.0;fill:none;" width="204" x="995" y="5"/><text fill="#000000" font-family="sans-serif" font-size="14" font-weight="bold" lengthAdjust="spacing" textLength="174" x="1010" y="32.9951">ROSPlan main pipeline</text><!--MD5=[03c113a77f1f8b6b00d525166da001e4]
entity RCL_PIPELINE--><g id="elem_RCL_PIPELINE"><rect fill="#F1F1F1" height="118.8906" rx="2.5" ry="2.5" style="stroke:#181818;stroke-width:0.5;" width="183" x="1090" y="64.2969"/><rect fill="#F1F1F1" height="10" style="stroke:#181818;stroke-width:0.5;" width="15" x="1253" y="69.2969"/><rect fill="#F1F1F1" height="2" style="stroke:#181818;stroke-width:0.5;" width="4" x="1251" y="71.2969"/><rect fill="#F1F1F1" height="2" style="stroke:#181818;stroke-width:0.5;" width="4" x="1251" y="75.2969"/><text fill="#000000" font-family="sans-serif" font-size="14" font-style="italic" lengthAdjust="spacing" textLength="108" x="1122.5" y="107.292">«RoboCLuedo»</text><text fill="#000000" font-family="sans-serif" font-size="14" lengthAdjust="spacing" textLength="51" x="1115" y="143.5889">rosplan</text><text fill="#000000" font-family="sans-serif" font-size="14" lengthAdjust="spacing" textLength="119" x="1119" y="159.8857">pipeline manager</text></g><!--MD5=[3bd4b3459161f586c76f00998caa37eb]
entity SRV_PROBLEM_TRIG--><g id="elem_SRV_PROBLEM_TRIG"><ellipse cx="196.5" cy="347.2969" fill="#F1F1F1" rx="8" ry="8" style="stroke:#181818;stroke-width:0.5;"/><text fill="#000000" font-family="sans-serif" font-size="14" lengthAdjust="spacing" textLength="381" x="6" y="387.292">/rosplan_problem_interface/problem_generation_server</text></g><!--MD5=[0b85c392a0b8fe141436d3f77ffe2266]
entity SRV_PLAN_TRIG--><g id="elem_SRV_PLAN_TRIG"><ellipse cx="617.5" cy="347.2969" fill="#F1F1F1" rx="8" ry="8" style="stroke:#181818;stroke-width:0.5;"/><text fill="#000000" font-family="sans-serif" font-size="14" lengthAdjust="spacing" textLength="296" x="469.5" y="387.292">/rosplan_planner_interface/planning_server</text></g><!--MD5=[f51f5ff6095acc1b588cb3a3ff7105a5]
entity SRV_PARSE_TRIG--><g id="elem_SRV_PARSE_TRIG"><ellipse cx="1029.5" cy="347.2969" fill="#F1F1F1" rx="8" ry="8" style="stroke:#181818;stroke-width:0.5;"/><text fill="#000000" font-family="sans-serif" font-size="14" lengthAdjust="spacing" textLength="362" x="848.5" y="387.292">rosservice call /rosplan_parsing_interface/parse_plan</text></g><!--MD5=[89cc3e41ea68916f9c58895ce792ddd3]
entity SRV_DISPATCH_TRIG--><g id="elem_SRV_DISPATCH_TRIG"><ellipse cx="1429.5" cy="347.2969" fill="#F1F1F1" rx="8" ry="8" style="stroke:#181818;stroke-width:0.5;"/><text fill="#000000" font-family="sans-serif" font-size="14" lengthAdjust="spacing" textLength="272" x="1293.5" y="387.292">/rosplan_plan_dispatcher/dispatch_plan</text></g><!--MD5=[7ee91087643798f90fd57e8454d6279a]
entity SRV_UPDATE_GOAL--><g id="elem_SRV_UPDATE_GOAL"><ellipse cx="1693.5" cy="347.2969" fill="#F1F1F1" rx="8" ry="8" style="stroke:#181818;stroke-width:0.5;"/><text fill="#000000" font-family="sans-serif" font-size="14" lengthAdjust="spacing" textLength="90" x="1648.5" y="387.292">/update_goal</text></g><!--MD5=[f8474edefc65b0c27e7df913d004612b]
entity TOPIC_ACT_FEEDBACK--><g id="elem_TOPIC_ACT_FEEDBACK"><ellipse cx="711.5" cy="123.7969" fill="#F1F1F1" rx="8" ry="8" style="stroke:#181818;stroke-width:0.5;"/><text fill="#000000" font-family="sans-serif" font-size="14" lengthAdjust="spacing" textLength="202" x="610.5" y="163.792">/robocluedo/action_feedback</text></g><!--MD5=[35b9738285f447e52c5739b620b13aaa]
entity TOPIC_PROBLEM_INSTANCE--><g id="elem_TOPIC_PROBLEM_INSTANCE"><ellipse cx="2043.5" cy="347.2969" fill="#F1F1F1" rx="8" ry="8" style="stroke:#181818;stroke-width:0.5;"/><text fill="#000000" font-family="sans-serif" font-size="14" lengthAdjust="spacing" textLength="315" x="1886" y="387.292">/rosplan_problem_interface/problem_instance</text></g><!--MD5=[601780bd27ca849c314945d3c11d2b31]
entity SRV_PIPELINE--><g id="elem_SRV_PIPELINE"><ellipse cx="1752.5" cy="123.7969" fill="#F1F1F1" rx="8" ry="8" style="stroke:#181818;stroke-width:0.5;"/><text fill="#000000" font-family="sans-serif" font-size="14" lengthAdjust="spacing" textLength="211" x="1647" y="163.792">/robocluedo/pipeline_manager</text></g><!--MD5=[aba0e4da85f88dae7c26358d06ec8054]
reverse link RCL_PIPELINE to SRV_PROBLEM_TRIG--><g id="link_RCL_PIPELINE_SRV_PROBLEM_TRIG"><path codeLine="13" d="M1084.55,136.7569 C975.54,151.1069 793.59,177.7469 639.5,213.2969 C462.27,254.1869 251.87,326.8369 205.73,343.0369 " fill="none" id="RCL_PIPELINE-backto-SRV_PROBLEM_TRIG" style="stroke:#181818;stroke-width:1.0;"/><polygon fill="#181818" points="1089.69,136.0869,1080.2503,133.2775,1084.7315,136.7299,1081.2792,141.2111,1089.69,136.0869" style="stroke:#181818;stroke-width:1.0;"/><path d="M644.5,218.2969 L644.5,263.2969 L783.5,263.2969 L783.5,228.2969 L773.5,218.2969 L644.5,218.2969 " fill="#FEFFDD" style="stroke:#181818;stroke-width:0.5;"/><path d="M773.5,218.2969 L773.5,228.2969 L783.5,228.2969 L773.5,218.2969 " fill="#FEFFDD" style="stroke:#181818;stroke-width:0.5;"/><text fill="#000000" font-family="sans-serif" font-size="13" lengthAdjust="spacing" textLength="98" x="660.5" y="245.3638">std_srvs/Empty</text><text fill="#000000" font-family="sans-serif" font-size="13" lengthAdjust="spacing" textLength="10" x="1061.8461" y="122.7801">cl</text></g><!--MD5=[f32d367106a3a4299bc8e4e53d941cb1]
reverse link RCL_PIPELINE to SRV_PLAN_TRIG--><g id="link_RCL_PIPELINE_SRV_PLAN_TRIG"><path codeLine="17" d="M1084.95,156.6569 C1037.27,172.8469 979.06,193.2869 927.5,213.2969 C806.85,260.1369 663.48,325.2269 626.53,342.1469 " fill="none" id="RCL_PIPELINE-backto-SRV_PLAN_TRIG" style="stroke:#181818;stroke-width:1.0;"/><polygon fill="#181818" points="1089.83,155.0069,1080.0227,154.1026,1085.0938,156.6095,1082.5869,161.6805,1089.83,155.0069" style="stroke:#181818;stroke-width:1.0;"/><path d="M932.5,218.2969 L932.5,263.2969 L1071.5,263.2969 L1071.5,228.2969 L1061.5,218.2969 L932.5,218.2969 " fill="#FEFFDD" style="stroke:#181818;stroke-width:0.5;"/><path d="M1061.5,218.2969 L1061.5,228.2969 L1071.5,228.2969 L1061.5,218.2969 " fill="#FEFFDD" style="stroke:#181818;stroke-width:0.5;"/><text fill="#000000" font-family="sans-serif" font-size="13" lengthAdjust="spacing" textLength="98" x="948.5" y="245.3638">std_srvs/Empty</text><text fill="#000000" font-family="sans-serif" font-size="13" lengthAdjust="spacing" textLength="10" x="1061.9964" y="180.6598">cl</text></g><!--MD5=[8f38636f1291675e3bb7fdaab6435684]
reverse link RCL_PIPELINE to SRV_PARSE_TRIG--><g id="link_RCL_PIPELINE_SRV_PARSE_TRIG"><path codeLine="21" d="M1138.31,187.7369 C1101.44,241.4569 1051.83,313.7669 1035.2,337.9969 " fill="none" id="RCL_PIPELINE-backto-SRV_PARSE_TRIG" style="stroke:#181818;stroke-width:1.0;"/><polygon fill="#181818" points="1141.17,183.5769,1132.7834,188.7407,1138.344,187.7017,1139.3831,193.2623,1141.17,183.5769" style="stroke:#181818;stroke-width:1.0;"/><path d="M1124.5,218.2969 L1124.5,263.2969 L1263.5,263.2969 L1263.5,228.2969 L1253.5,218.2969 L1124.5,218.2969 " fill="#FEFFDD" style="stroke:#181818;stroke-width:0.5;"/><path d="M1253.5,218.2969 L1253.5,228.2969 L1263.5,228.2969 L1253.5,218.2969 " fill="#FEFFDD" style="stroke:#181818;stroke-width:0.5;"/><text fill="#000000" font-family="sans-serif" font-size="13" lengthAdjust="spacing" textLength="98" x="1140.5" y="245.3638">std_srvs/Empty</text><text fill="#000000" font-family="sans-serif" font-size="13" lengthAdjust="spacing" textLength="10" x="1115.7235" y="213.2629">cl</text></g><!--MD5=[2026dddc46e1056111520b389e082ed6]
reverse link RCL_PIPELINE to SRV_DISPATCH_TRIG--><g id="link_RCL_PIPELINE_SRV_DISPATCH_TRIG"><path codeLine="25" d="M1252.6,187.1769 C1261.81,195.7869 1270.99,204.6469 1279.5,213.2969 C1302.25,236.4369 1303.83,246.1069 1327.5,268.2969 C1359.22,298.0269 1401.8,327.7169 1420.29,340.1869 " fill="none" id="RCL_PIPELINE-backto-SRV_DISPATCH_TRIG" style="stroke:#181818;stroke-width:1.0;"/><polygon fill="#181818" points="1248.65,183.4969,1252.499,192.5625,1252.3048,186.909,1257.9583,186.7148,1248.65,183.4969" style="stroke:#181818;stroke-width:1.0;"/><path d="M1332.5,218.2969 L1332.5,263.2969 L1630.5,263.2969 L1630.5,228.2969 L1620.5,218.2969 L1332.5,218.2969 " fill="#FEFFDD" style="stroke:#181818;stroke-width:0.5;"/><path d="M1620.5,218.2969 L1620.5,228.2969 L1630.5,228.2969 L1620.5,218.2969 " fill="#FEFFDD" style="stroke:#181818;stroke-width:0.5;"/><text fill="#000000" font-family="sans-serif" font-size="13" lengthAdjust="spacing" textLength="257" x="1348.5" y="245.3638">rosplan_dispatch_msgs/DispatchService</text><text fill="#000000" font-family="sans-serif" font-size="13" lengthAdjust="spacing" textLength="10" x="1266.7366" y="213.1751">cl</text></g><!--MD5=[f7cdfbf15495e406f8b6e5ded5d2cfd6]
reverse link RCL_PIPELINE to SRV_UPDATE_GOAL--><g id="link_RCL_PIPELINE_SRV_UPDATE_GOAL"><path codeLine="29" d="M1278.3,132.3869 C1396.81,143.5169 1588.44,168.0269 1642.5,213.2969 C1682.32,246.6369 1691.13,314.7769 1693.01,338.1869 " fill="none" id="RCL_PIPELINE-backto-SRV_UPDATE_GOAL" style="stroke:#181818;stroke-width:1.0;"/><polygon fill="#181818" points="1273.07,131.9069,1281.6522,136.7386,1278.0477,132.3789,1282.4074,128.7744,1273.07,131.9069" style="stroke:#181818;stroke-width:1.0;"/><path d="M1683.5,218.2969 L1683.5,263.2969 L1971.5,263.2969 L1971.5,228.2969 L1961.5,218.2969 L1683.5,218.2969 " fill="#FEFFDD" style="stroke:#181818;stroke-width:0.5;"/><path d="M1961.5,218.2969 L1961.5,228.2969 L1971.5,228.2969 L1961.5,218.2969 " fill="#FEFFDD" style="stroke:#181818;stroke-width:0.5;"/><text fill="#000000" font-family="sans-serif" font-size="13" lengthAdjust="spacing" textLength="247" x="1699.5" y="245.3638">robocluedo_rosplan_msgs/UpdateGoal</text><text fill="#000000" font-family="sans-serif" font-size="13" lengthAdjust="spacing" textLength="10" x="1290.8962" y="118.2931">cl</text></g><!--MD5=[992b1765042fa08e36e2fdb5301e7131]
link TOPIC_ACT_FEEDBACK to RCL_PIPELINE--><g id="link_TOPIC_ACT_FEEDBACK_RCL_PIPELINE"><path codeLine="33" d="M720.89,123.7969 C765.99,123.7969 963.17,123.7969 1084.45,123.7969 " fill="none" id="TOPIC_ACT_FEEDBACK-to-RCL_PIPELINE" style="stroke:#181818;stroke-width:1.0;"/><polygon fill="#181818" points="1089.81,123.7969,1080.81,119.7969,1084.81,123.7969,1080.81,127.7969,1089.81,123.7969" style="stroke:#181818;stroke-width:1.0;"/><path d="M748.75,70.7969 L748.75,115.7969 L1061.75,115.7969 L1061.75,80.7969 L1051.75,70.7969 L748.75,70.7969 " fill="#FEFFDD" style="stroke:#181818;stroke-width:0.5;"/><path d="M1051.75,70.7969 L1051.75,80.7969 L1061.75,80.7969 L1051.75,70.7969 " fill="#FEFFDD" style="stroke:#181818;stroke-width:0.5;"/><text fill="#000000" font-family="sans-serif" font-size="13" lengthAdjust="spacing" textLength="272" x="764.75" y="97.8638">robocluedo_rosplan_msgs/ActionFeedback</text><text fill="#000000" font-family="sans-serif" font-size="13" lengthAdjust="spacing" textLength="23" x="1048.8513" y="147.1028">sub</text></g><!--MD5=[bd02491ad3ef8881917b194ac1278635]
reverse link RCL_PIPELINE to TOPIC_PROBLEM_INSTANCE--><g id="link_RCL_PIPELINE_TOPIC_PROBLEM_INSTANCE"><path codeLine="37" d="M1278.33,135.2669 C1492.1,158.4169 1985.73,211.9769 1987.5,213.2969 C2029.67,244.7469 2040.34,314.0969 2042.81,338.0069 " fill="none" id="RCL_PIPELINE-backto-TOPIC_PROBLEM_INSTANCE" style="stroke:#181818;stroke-width:1.0;"/><polygon fill="#181818" points="1273.33,134.7269,1281.8426,139.6802,1278.3005,135.2696,1282.711,131.7275,1273.33,134.7269" style="stroke:#181818;stroke-width:1.0;"/><path d="M2029.5,218.2969 L2029.5,263.2969 L2174.5,263.2969 L2174.5,228.2969 L2164.5,218.2969 L2029.5,218.2969 " fill="#FEFFDD" style="stroke:#181818;stroke-width:0.5;"/><path d="M2164.5,218.2969 L2164.5,228.2969 L2174.5,228.2969 L2164.5,218.2969 " fill="#FEFFDD" style="stroke:#181818;stroke-width:0.5;"/><text fill="#000000" font-family="sans-serif" font-size="13" lengthAdjust="spacing" textLength="104" x="2045.5" y="245.3638">std_msgs/String</text><text fill="#000000" font-family="sans-serif" font-size="13" lengthAdjust="spacing" textLength="23" x="1290.9444" y="158.712">sub</text></g><!--MD5=[8962bffcf5a42a05badc40ef2c3c1804]
link RCL_PIPELINE to SRV_PIPELINE--><g id="link_RCL_PIPELINE_SRV_PIPELINE"><path codeLine="41" d="M1273.24,123.7969 C1414.01,123.7969 1673.76,123.7969 1737.9,123.7969 " fill="none" id="RCL_PIPELINE-to-SRV_PIPELINE" style="stroke:#181818;stroke-width:1.0;"/><polygon fill="#181818" points="1743.16,123.7969,1734.16,119.7969,1738.16,123.7969,1734.16,127.7969,1743.16,123.7969" style="stroke:#181818;stroke-width:1.0;"/><path d="M1301.25,70.7969 L1301.25,115.7969 L1715.25,115.7969 L1715.25,80.7969 L1705.25,70.7969 L1301.25,70.7969 " fill="#FEFFDD" style="stroke:#181818;stroke-width:0.5;"/><path d="M1705.25,70.7969 L1705.25,80.7969 L1715.25,80.7969 L1705.25,70.7969 " fill="#FEFFDD" style="stroke:#181818;stroke-width:0.5;"/><text fill="#000000" font-family="sans-serif" font-size="13" lengthAdjust="spacing" textLength="373" x="1317.25" y="97.8638">robocluedo_rosplan_msgs/RosplanPipelineManagerService</text><text fill="#000000" font-family="sans-serif" font-size="13" lengthAdjust="spacing" textLength="19" x="1291.0616" y="147.1028">srv</text></g><!--MD5=[1dcc9c06758421e4f4cb5a46d056c166]
@startuml

''' INFOS
title ROSPlan main pipeline
skinparam Padding 10
allow_mixing


''' COMPONENTS
component "rosplan \n pipeline manager" <<RoboCLuedo>> as RCL_PIPELINE

''' INTERFACES
() "/rosplan_problem_interface/problem_generation_server" as SRV_PROBLEM_TRIG
RCL_PIPELINE "cl" <- - SRV_PROBLEM_TRIG
note on link : std_srvs/Empty

() "/rosplan_planner_interface/planning_server" as SRV_PLAN_TRIG
RCL_PIPELINE "cl" <- - SRV_PLAN_TRIG
note on link : std_srvs/Empty

() "rosservice call /rosplan_parsing_interface/parse_plan" as SRV_PARSE_TRIG
RCL_PIPELINE "cl" <- - SRV_PARSE_TRIG
note on link : std_srvs/Empty

() "/rosplan_plan_dispatcher/dispatch_plan" as SRV_DISPATCH_TRIG
RCL_PIPELINE "cl" <- - SRV_DISPATCH_TRIG
note on link : rosplan_dispatch_msgs/DispatchService

() "/update_goal" as SRV_UPDATE_GOAL
RCL_PIPELINE "cl" <- - SRV_UPDATE_GOAL
note on link : robocluedo_rosplan_msgs/UpdateGoal

() "/robocluedo/action_feedback" as TOPIC_ACT_FEEDBACK
RCL_PIPELINE "sub" <-left- TOPIC_ACT_FEEDBACK
note on link : robocluedo_rosplan_msgs/ActionFeedback

() "/rosplan_problem_interface/problem_instance" as TOPIC_PROBLEM_INSTANCE
RCL_PIPELINE "sub" <- - TOPIC_PROBLEM_INSTANCE
note on link : std_msgs/String

() "/robocluedo/pipeline_manager" as SRV_PIPELINE
RCL_PIPELINE "srv" -right-> SRV_PIPELINE
note on link : robocluedo_rosplan_msgs/RosplanPipelineManagerService

''' CONNECTIONS


@enduml

@startuml

title ROSPlan main pipeline
skinparam Padding 10
allow_mixing


component "rosplan \n pipeline manager" <<RoboCLuedo>> as RCL_PIPELINE

() "/rosplan_problem_interface/problem_generation_server" as SRV_PROBLEM_TRIG
RCL_PIPELINE "cl" <- - SRV_PROBLEM_TRIG
note on link : std_srvs/Empty

() "/rosplan_planner_interface/planning_server" as SRV_PLAN_TRIG
RCL_PIPELINE "cl" <- - SRV_PLAN_TRIG
note on link : std_srvs/Empty

() "rosservice call /rosplan_parsing_interface/parse_plan" as SRV_PARSE_TRIG
RCL_PIPELINE "cl" <- - SRV_PARSE_TRIG
note on link : std_srvs/Empty

() "/rosplan_plan_dispatcher/dispatch_plan" as SRV_DISPATCH_TRIG
RCL_PIPELINE "cl" <- - SRV_DISPATCH_TRIG
note on link : rosplan_dispatch_msgs/DispatchService

() "/update_goal" as SRV_UPDATE_GOAL
RCL_PIPELINE "cl" <- - SRV_UPDATE_GOAL
note on link : robocluedo_rosplan_msgs/UpdateGoal

() "/robocluedo/action_feedback" as TOPIC_ACT_FEEDBACK
RCL_PIPELINE "sub" <-left- TOPIC_ACT_FEEDBACK
note on link : robocluedo_rosplan_msgs/ActionFeedback

() "/rosplan_problem_interface/problem_instance" as TOPIC_PROBLEM_INSTANCE
RCL_PIPELINE "sub" <- - TOPIC_PROBLEM_INSTANCE
note on link : std_msgs/String

() "/robocluedo/pipeline_manager" as SRV_PIPELINE
RCL_PIPELINE "srv" -right-> SRV_PIPELINE
note on link : robocluedo_rosplan_msgs/RosplanPipelineManagerService



@enduml

PlantUML version 1.2022.6(Tue Jun 21 17:34:49 UTC 2022)
(GPL source distribution)
Java Runtime: Java(TM) SE Runtime Environment
JVM: Java HotSpot(TM) 64-Bit Server VM
Default Encoding: UTF-8
Language: en
Country: US
--></g></svg>