<?xml version="1.0" encoding="UTF-8" standalone="no"?><svg xmlns="http://www.w3.org/2000/svg" xmlns:xlink="http://www.w3.org/1999/xlink" contentStyleType="text/css" height="915px" preserveAspectRatio="none" style="width:1234px;height:915px;background:#FFFFFF;" version="1.1" viewBox="0 0 1234 915" width="1234px" zoomAndPan="magnify"><defs/><g><rect height="26.2969" style="stroke:#00000000;stroke-width:1.0;fill:none;" width="440" x="393.25" y="10"/><text fill="#000000" font-family="sans-serif" font-size="14" font-weight="bold" lengthAdjust="spacing" textLength="430" x="398.25" y="27.9951">RCL#3 move_base navigation - node temporal diagram</text><line style="stroke:#181818;stroke-width:0.5;stroke-dasharray:5.0,5.0;" x1="46" x2="46" y1="73.5938" y2="880.1797"/><line style="stroke:#181818;stroke-width:0.5;stroke-dasharray:5.0,5.0;" x1="249.5" x2="249.5" y1="73.5938" y2="880.1797"/><line style="stroke:#181818;stroke-width:0.5;stroke-dasharray:5.0,5.0;" x1="508.5" x2="508.5" y1="73.5938" y2="880.1797"/><line style="stroke:#181818;stroke-width:0.5;stroke-dasharray:5.0,5.0;" x1="705.5" x2="705.5" y1="73.5938" y2="880.1797"/><line style="stroke:#181818;stroke-width:0.5;stroke-dasharray:5.0,5.0;" x1="882.5" x2="882.5" y1="73.5938" y2="880.1797"/><line style="stroke:#181818;stroke-width:0.5;stroke-dasharray:5.0,5.0;" x1="1008.5" x2="1008.5" y1="73.5938" y2="880.1797"/><line style="stroke:#181818;stroke-width:0.5;stroke-dasharray:5.0,5.0;" x1="1145.5" x2="1145.5" y1="73.5938" y2="880.1797"/><rect fill="#E2E2F0" height="30.2969" rx="2.5" ry="2.5" style="stroke:#181818;stroke-width:0.5;" width="82" x="5" y="42.2969"/><text fill="#000000" font-family="sans-serif" font-size="14" lengthAdjust="spacing" textLength="68" x="12" y="62.292">MOVE_TO</text><rect fill="#E2E2F0" height="30.2969" rx="2.5" ry="2.5" style="stroke:#181818;stroke-width:0.5;" width="82" x="5" y="879.1797"/><text fill="#000000" font-family="sans-serif" font-size="14" lengthAdjust="spacing" textLength="68" x="12" y="899.1748">MOVE_TO</text><rect fill="#E2E2F0" height="30.2969" rx="2.5" ry="2.5" style="stroke:#181818;stroke-width:0.5;" width="137" x="181.5" y="42.2969"/><text fill="#000000" font-family="sans-serif" font-size="14" lengthAdjust="spacing" textLength="123" x="188.5" y="62.292">NAVIGATION_UNIT</text><rect fill="#E2E2F0" height="30.2969" rx="2.5" ry="2.5" style="stroke:#181818;stroke-width:0.5;" width="137" x="181.5" y="879.1797"/><text fill="#000000" font-family="sans-serif" font-size="14" lengthAdjust="spacing" textLength="123" x="188.5" y="899.1748">NAVIGATION_UNIT</text><rect fill="#E2E2F0" height="30.2969" rx="2.5" ry="2.5" style="stroke:#181818;stroke-width:0.5;" width="175" x="421.5" y="42.2969"/><text fill="#000000" font-family="sans-serif" font-size="14" lengthAdjust="spacing" textLength="161" x="428.5" y="62.292">NAVIGATION_MANAGER</text><rect fill="#E2E2F0" height="30.2969" rx="2.5" ry="2.5" style="stroke:#181818;stroke-width:0.5;" width="175" x="421.5" y="879.1797"/><text fill="#000000" font-family="sans-serif" font-size="14" lengthAdjust="spacing" textLength="161" x="428.5" y="899.1748">NAVIGATION_MANAGER</text><rect fill="#E2E2F0" height="30.2969" rx="2.5" ry="2.5" style="stroke:#181818;stroke-width:0.5;" width="199" x="606.5" y="42.2969"/><text fill="#000000" font-family="sans-serif" font-size="14" lengthAdjust="spacing" textLength="185" x="613.5" y="62.292">NAVIGATION_CONTROLLER</text><rect fill="#E2E2F0" height="30.2969" rx="2.5" ry="2.5" style="stroke:#181818;stroke-width:0.5;" width="199" x="606.5" y="879.1797"/><text fill="#000000" font-family="sans-serif" font-size="14" lengthAdjust="spacing" textLength="185" x="613.5" y="899.1748">NAVIGATION_CONTROLLER</text><rect fill="#E2E2F0" height="30.2969" rx="2.5" ry="2.5" style="stroke:#181818;stroke-width:0.5;" width="134" x="815.5" y="42.2969"/><text fill="#000000" font-family="sans-serif" font-size="14" lengthAdjust="spacing" textLength="120" x="822.5" y="62.292">MOVE_BASE_NAV</text><rect fill="#E2E2F0" height="30.2969" rx="2.5" ry="2.5" style="stroke:#181818;stroke-width:0.5;" width="134" x="815.5" y="879.1797"/><text fill="#000000" font-family="sans-serif" font-size="14" lengthAdjust="spacing" textLength="120" x="822.5" y="899.1748">MOVE_BASE_NAV</text><rect fill="#E2E2F0" height="30.2969" rx="2.5" ry="2.5" style="stroke:#181818;stroke-width:0.5;" width="99" x="959.5" y="42.2969"/><text fill="#000000" font-family="sans-serif" font-size="14" lengthAdjust="spacing" textLength="85" x="966.5" y="62.292">MOVE_BASE</text><rect fill="#E2E2F0" height="30.2969" rx="2.5" ry="2.5" style="stroke:#181818;stroke-width:0.5;" width="99" x="959.5" y="879.1797"/><text fill="#000000" font-family="sans-serif" font-size="14" lengthAdjust="spacing" textLength="85" x="966.5" y="899.1748">MOVE_BASE</text><rect fill="#E2E2F0" height="30.2969" rx="2.5" ry="2.5" style="stroke:#181818;stroke-width:0.5;" width="154" x="1068.5" y="42.2969"/><text fill="#000000" font-family="sans-serif" font-size="14" lengthAdjust="spacing" textLength="140" x="1075.5" y="62.292">HEAD_ORIENTATION</text><rect fill="#E2E2F0" height="30.2969" rx="2.5" ry="2.5" style="stroke:#181818;stroke-width:0.5;" width="154" x="1068.5" y="879.1797"/><text fill="#000000" font-family="sans-serif" font-size="14" lengthAdjust="spacing" textLength="140" x="1075.5" y="899.1748">HEAD_ORIENTATION</text><rect fill="#EEEEEE" height="3" style="stroke:#EEEEEE;stroke-width:1.0;" width="1227.5" x="0" y="104.1602"/><line style="stroke:#000000;stroke-width:1.0;" x1="0" x2="1227.5" y1="104.1602" y2="104.1602"/><line style="stroke:#000000;stroke-width:1.0;" x1="0" x2="1227.5" y1="107.1602" y2="107.1602"/><rect fill="#EEEEEE" height="23.1328" style="stroke:#000000;stroke-width:2.0;" width="76" x="575.75" y="93.5938"/><text fill="#000000" font-family="sans-serif" font-size="13" font-weight="bold" lengthAdjust="spacing" textLength="57" x="581.75" y="109.6606">request</text><polygon fill="#181818" points="238,143.8594,248,147.8594,238,151.8594,242,147.8594" style="stroke:#181818;stroke-width:1.0;"/><line style="stroke:#181818;stroke-width:1.0;" x1="46" x2="244" y1="147.8594" y2="147.8594"/><text fill="#000000" font-family="sans-serif" font-size="13" lengthAdjust="spacing" textLength="180" x="53" y="142.7935">using RCL ROSPlan interface</text><polygon fill="#FEFFDD" points="187,160.8594,313,160.8594,323,171.8594,313,183.8594,187,183.8594,177,171.8594,187,160.8594" style="stroke:#181818;stroke-width:0.5;"/><text fill="#000000" font-family="sans-serif" font-size="13" lengthAdjust="spacing" textLength="122" x="189" y="176.9263">waiting for markers</text><polygon fill="#181818" points="497,206.125,507,210.125,497,214.125,501,210.125" style="stroke:#181818;stroke-width:1.0;"/><line style="stroke:#181818;stroke-width:1.0;" x1="250" x2="503" y1="210.125" y2="210.125"/><text fill="#000000" font-family="sans-serif" font-size="13" lengthAdjust="spacing" textLength="157" x="257" y="205.0591">using RCL navigation req</text><path d="M402,223.125 L402,293.125 L616,293.125 L616,233.125 L606,223.125 L402,223.125 " fill="#FEFFDD" style="stroke:#181818;stroke-width:0.5;"/><path d="M606,223.125 L606,233.125 L616,233.125 L606,223.125 " fill="#FEFFDD" style="stroke:#181818;stroke-width:0.5;"/><text fill="#000000" font-family="sans-serif" font-size="13" lengthAdjust="spacing" textLength="157" x="408" y="240.1919">let's assume a controller</text><text fill="#000000" font-family="sans-serif" font-size="13" lengthAdjust="spacing" textLength="179" x="408" y="255.3247">has been activated before...</text><text fill="#000000" font-family="sans-serif" font-size="13" lengthAdjust="spacing" textLength="189" x="408" y="270.4575">otherwise, the service returns</text><text fill="#000000" font-family="sans-serif" font-size="13" lengthAdjust="spacing" textLength="79" x="408" y="285.5903">immediately</text><rect fill="#EEEEEE" height="3" style="stroke:#EEEEEE;stroke-width:1.0;" width="1227.5" x="0" y="319.2227"/><line style="stroke:#000000;stroke-width:1.0;" x1="0" x2="1227.5" y1="319.2227" y2="319.2227"/><line style="stroke:#000000;stroke-width:1.0;" x1="0" x2="1227.5" y1="322.2227" y2="322.2227"/><rect fill="#EEEEEE" height="23.1328" style="stroke:#000000;stroke-width:2.0;" width="124" x="551.75" y="308.6563"/><text fill="#000000" font-family="sans-serif" font-size="13" font-weight="bold" lengthAdjust="spacing" textLength="105" x="557.75" y="324.7231">navigation job</text><polygon fill="#181818" points="694,358.9219,704,362.9219,694,366.9219,698,362.9219" style="stroke:#181818;stroke-width:1.0;"/><line style="stroke:#181818;stroke-width:1.0;stroke-dasharray:2.0,2.0;" x1="509" x2="700" y1="362.9219" y2="362.9219"/><text fill="#000000" font-family="sans-serif" font-size="13" lengthAdjust="spacing" textLength="137" x="516" y="357.856">passing request (call)</text><polygon fill="#181818" points="870.5,388.0547,880.5,392.0547,870.5,396.0547,874.5,392.0547" style="stroke:#181818;stroke-width:1.0;"/><line style="stroke:#181818;stroke-width:1.0;" x1="706" x2="876.5" y1="392.0547" y2="392.0547"/><text fill="#000000" font-family="sans-serif" font-size="13" lengthAdjust="spacing" textLength="63" x="713" y="386.9888">switch ON</text><polygon fill="#FEFFDD" points="637,405.0547,775,405.0547,785,416.0547,775,428.0547,637,428.0547,627,416.0547,637,405.0547" style="stroke:#181818;stroke-width:0.5;"/><text fill="#000000" font-family="sans-serif" font-size="13" lengthAdjust="spacing" textLength="134" x="639" y="421.1216">waiting for a signal ...</text><path d="M781,438.1875 L781,493.1875 L983,493.1875 L983,448.1875 L973,438.1875 L781,438.1875 " fill="#FEFFDD" style="stroke:#181818;stroke-width:0.5;"/><path d="M973,438.1875 L973,448.1875 L983,448.1875 L973,438.1875 " fill="#FEFFDD" style="stroke:#181818;stroke-width:0.5;"/><text fill="#000000" font-family="sans-serif" font-size="13" lengthAdjust="spacing" textLength="145" x="787" y="455.2544">the behaviour receives</text><text fill="#000000" font-family="sans-serif" font-size="13" lengthAdjust="spacing" textLength="181" x="787" y="470.3872">a final orientation to achieve</text><text fill="#000000" font-family="sans-serif" font-size="13" lengthAdjust="spacing" textLength="136" x="787" y="485.52">and a target to reach</text><polygon fill="#181818" points="997,515.7188,1007,519.7188,997,523.7188,1001,519.7188" style="stroke:#181818;stroke-width:1.0;"/><line style="stroke:#181818;stroke-width:1.0;" x1="882.5" x2="1003" y1="519.7188" y2="519.7188"/><text fill="#000000" font-family="sans-serif" font-size="13" lengthAdjust="spacing" textLength="62" x="889.5" y="514.6528">send goal</text><polygon fill="#FEFFDD" points="802,532.7188,963,532.7188,973,543.7188,963,555.7188,802,555.7188,792,543.7188,802,532.7188" style="stroke:#181818;stroke-width:0.5;"/><text fill="#000000" font-family="sans-serif" font-size="13" lengthAdjust="spacing" textLength="157" x="804" y="548.7856">reading distance error ...</text><polygon fill="#181818" points="997,577.9844,1007,581.9844,997,585.9844,1001,581.9844" style="stroke:#181818;stroke-width:1.0;"/><line style="stroke:#181818;stroke-width:1.0;" x1="882.5" x2="1003" y1="581.9844" y2="581.9844"/><text fill="#000000" font-family="sans-serif" font-size="13" lengthAdjust="spacing" textLength="72" x="889.5" y="576.9185">cancel goal</text><polygon fill="#181818" points="1133.5,607.1172,1143.5,611.1172,1133.5,615.1172,1137.5,611.1172" style="stroke:#181818;stroke-width:1.0;"/><line style="stroke:#181818;stroke-width:1.0;" x1="882.5" x2="1139.5" y1="611.1172" y2="611.1172"/><text fill="#000000" font-family="sans-serif" font-size="13" lengthAdjust="spacing" textLength="63" x="889.5" y="606.0513">switch ON</text><polygon fill="#FEFFDD" points="794,624.1172,970,624.1172,980,635.1172,970,647.1172,794,647.1172,784,635.1172,794,624.1172" style="stroke:#181818;stroke-width:0.5;"/><text fill="#000000" font-family="sans-serif" font-size="13" lengthAdjust="spacing" textLength="172" x="796" y="640.1841">reading orientation error ...</text><polygon fill="#181818" points="1133.5,669.3828,1143.5,673.3828,1133.5,677.3828,1137.5,673.3828" style="stroke:#181818;stroke-width:1.0;"/><line style="stroke:#181818;stroke-width:1.0;" x1="882.5" x2="1139.5" y1="673.3828" y2="673.3828"/><text fill="#000000" font-family="sans-serif" font-size="13" lengthAdjust="spacing" textLength="67" x="889.5" y="668.3169">switch OFF</text><polygon fill="#181818" points="717,698.5156,707,702.5156,717,706.5156,713,702.5156" style="stroke:#181818;stroke-width:1.0;"/><line style="stroke:#181818;stroke-width:1.0;" x1="711" x2="881.5" y1="702.5156" y2="702.5156"/><text fill="#000000" font-family="sans-serif" font-size="13" lengthAdjust="spacing" textLength="72" x="723" y="697.4497">send signal</text><polygon fill="#181818" points="870.5,727.6484,880.5,731.6484,870.5,735.6484,874.5,731.6484" style="stroke:#181818;stroke-width:1.0;"/><line style="stroke:#181818;stroke-width:1.0;" x1="706" x2="876.5" y1="731.6484" y2="731.6484"/><text fill="#000000" font-family="sans-serif" font-size="13" lengthAdjust="spacing" textLength="67" x="713" y="726.5825">switch OFF</text><rect fill="#EEEEEE" height="3" style="stroke:#EEEEEE;stroke-width:1.0;" width="1227.5" x="0" y="760.2148"/><line style="stroke:#000000;stroke-width:1.0;" x1="0" x2="1227.5" y1="760.2148" y2="760.2148"/><line style="stroke:#000000;stroke-width:1.0;" x1="0" x2="1227.5" y1="763.2148" y2="763.2148"/><rect fill="#EEEEEE" height="23.1328" style="stroke:#000000;stroke-width:2.0;" width="87" x="570.25" y="749.6484"/><text fill="#000000" font-family="sans-serif" font-size="13" font-weight="bold" lengthAdjust="spacing" textLength="68" x="576.25" y="765.7153">response</text><polygon fill="#181818" points="520,799.9141,510,803.9141,520,807.9141,516,803.9141" style="stroke:#181818;stroke-width:1.0;"/><line style="stroke:#181818;stroke-width:1.0;stroke-dasharray:2.0,2.0;" x1="514" x2="705" y1="803.9141" y2="803.9141"/><text fill="#000000" font-family="sans-serif" font-size="13" lengthAdjust="spacing" textLength="39" x="526" y="798.8481">return</text><polygon fill="#181818" points="261,829.0469,251,833.0469,261,837.0469,257,833.0469" style="stroke:#181818;stroke-width:1.0;"/><line style="stroke:#181818;stroke-width:1.0;" x1="255" x2="508" y1="833.0469" y2="833.0469"/><text fill="#000000" font-family="sans-serif" font-size="13" lengthAdjust="spacing" textLength="235" x="267" y="827.981">response (RCL movement controller)</text><polygon fill="#181818" points="57,858.1797,47,862.1797,57,866.1797,53,862.1797" style="stroke:#181818;stroke-width:1.0;"/><line style="stroke:#181818;stroke-width:1.0;" x1="51" x2="249" y1="862.1797" y2="862.1797"/><text fill="#000000" font-family="sans-serif" font-size="13" lengthAdjust="spacing" textLength="155" x="63" y="857.1138">response (RCL ROSPlan)</text><!--MD5=[603138468284f6f46593c3b4217efb59]
@startuml

title RCL#3 move_base navigation - node temporal diagram
' header ...
' footer ...

''' ENTITIES 
participant MOVE_TO order 0
participant NAVIGATION_UNIT order 1
participant NAVIGATION_MANAGER order 2
participant NAVIGATION_CONTROLLER order 3
participant MOVE_BASE_NAV order 5
participant HEAD_ORIENTATION order 6
participant MOVE_BASE order 5

''' SEQUENCE
' == section ==
' ...

== request ==
MOVE_TO -> NAVIGATION_UNIT : using RCL ROSPlan interface
hnote over NAVIGATION_UNIT 
	waiting for markers
end hnote
NAVIGATION_UNIT -> NAVIGATION_MANAGER : using RCL navigation req
note over NAVIGATION_MANAGER
	let's assume a controller 
	has been activated before...
	otherwise, the service returns 
	immediately
end note


== navigation job ==
NAVIGATION_MANAGER - -> NAVIGATION_CONTROLLER : passing request (call)
NAVIGATION_CONTROLLER -> MOVE_BASE_NAV : switch ON
hnote over NAVIGATION_CONTROLLER
	waiting for a signal ...
end hnote
note over MOVE_BASE_NAV
	the behaviour receives 
	a final orientation to achieve
	and a target to reach
end note
MOVE_BASE_NAV -> MOVE_BASE : send goal
hnote over MOVE_BASE_NAV
	reading distance error ...
end hnote
MOVE_BASE_NAV -> MOVE_BASE : cancel goal
MOVE_BASE_NAV -> HEAD_ORIENTATION : switch ON
hnote over MOVE_BASE_NAV
	reading orientation error ...
end hnote
MOVE_BASE_NAV -> HEAD_ORIENTATION : switch OFF
NAVIGATION_CONTROLLER <- MOVE_BASE_NAV : send signal
NAVIGATION_CONTROLLER -> MOVE_BASE_NAV : switch OFF

== response ==
NAVIGATION_MANAGER <- - NAVIGATION_CONTROLLER : return
NAVIGATION_UNIT <- NAVIGATION_MANAGER : response (RCL movement controller)
MOVE_TO <- NAVIGATION_UNIT : response (RCL ROSPlan)

@enduml

@startuml

title RCL#3 move_base navigation - node temporal diagram

participant MOVE_TO order 0
participant NAVIGATION_UNIT order 1
participant NAVIGATION_MANAGER order 2
participant NAVIGATION_CONTROLLER order 3
participant MOVE_BASE_NAV order 5
participant HEAD_ORIENTATION order 6
participant MOVE_BASE order 5


== request ==
MOVE_TO -> NAVIGATION_UNIT : using RCL ROSPlan interface
hnote over NAVIGATION_UNIT 
	waiting for markers
end hnote
NAVIGATION_UNIT -> NAVIGATION_MANAGER : using RCL navigation req
note over NAVIGATION_MANAGER
	let's assume a controller 
	has been activated before...
	otherwise, the service returns 
	immediately
end note


== navigation job ==
NAVIGATION_MANAGER - -> NAVIGATION_CONTROLLER : passing request (call)
NAVIGATION_CONTROLLER -> MOVE_BASE_NAV : switch ON
hnote over NAVIGATION_CONTROLLER
	waiting for a signal ...
end hnote
note over MOVE_BASE_NAV
	the behaviour receives 
	a final orientation to achieve
	and a target to reach
end note
MOVE_BASE_NAV -> MOVE_BASE : send goal
hnote over MOVE_BASE_NAV
	reading distance error ...
end hnote
MOVE_BASE_NAV -> MOVE_BASE : cancel goal
MOVE_BASE_NAV -> HEAD_ORIENTATION : switch ON
hnote over MOVE_BASE_NAV
	reading orientation error ...
end hnote
MOVE_BASE_NAV -> HEAD_ORIENTATION : switch OFF
NAVIGATION_CONTROLLER <- MOVE_BASE_NAV : send signal
NAVIGATION_CONTROLLER -> MOVE_BASE_NAV : switch OFF

== response ==
NAVIGATION_MANAGER <- - NAVIGATION_CONTROLLER : return
NAVIGATION_UNIT <- NAVIGATION_MANAGER : response (RCL movement controller)
MOVE_TO <- NAVIGATION_UNIT : response (RCL ROSPlan)

@enduml

PlantUML version 1.2022.6(Tue Jun 21 17:34:49 UTC 2022)
(GPL source distribution)
Java Runtime: Java(TM) SE Runtime Environment
JVM: Java HotSpot(TM) 64-Bit Server VM
Default Encoding: UTF-8
Language: en
Country: US
--></g></svg>