<?xml version="1.0" encoding="UTF-8" standalone="no"?><svg xmlns="http://www.w3.org/2000/svg" xmlns:xlink="http://www.w3.org/1999/xlink" contentStyleType="text/css" height="935px" preserveAspectRatio="none" style="width:861px;height:935px;background:#FFFFFF;" version="1.1" viewBox="0 0 861 935" width="861px" zoomAndPan="magnify"><defs/><g><rect height="26.2969" style="stroke:#00000000;stroke-width:1.0;fill:none;" width="241" x="306.25" y="10"/><text fill="#000000" font-family="sans-serif" font-size="14" font-weight="bold" lengthAdjust="spacing" textLength="231" x="311.25" y="27.9951">landmark execution - REPLAN</text><line style="stroke:#181818;stroke-width:0.5;stroke-dasharray:5.0,5.0;" x1="121" x2="121" y1="73.5938" y2="899.9141"/><line style="stroke:#181818;stroke-width:0.5;stroke-dasharray:5.0,5.0;" x1="364.5" x2="364.5" y1="73.5938" y2="899.9141"/><line style="stroke:#181818;stroke-width:0.5;stroke-dasharray:5.0,5.0;" x1="492.5" x2="492.5" y1="73.5938" y2="899.9141"/><line style="stroke:#181818;stroke-width:0.5;stroke-dasharray:5.0,5.0;" x1="587.5" x2="587.5" y1="73.5938" y2="899.9141"/><line style="stroke:#181818;stroke-width:0.5;stroke-dasharray:5.0,5.0;" x1="647.5" x2="647.5" y1="73.5938" y2="899.9141"/><line style="stroke:#181818;stroke-width:0.5;stroke-dasharray:5.0,5.0;" x1="712.5" x2="712.5" y1="73.5938" y2="899.9141"/><line style="stroke:#181818;stroke-width:0.5;stroke-dasharray:5.0,5.0;" x1="794.5" x2="794.5" y1="73.5938" y2="899.9141"/><rect fill="#E2E2F0" height="30.2969" rx="2.5" ry="2.5" style="stroke:#181818;stroke-width:0.5;" width="148" x="47" y="42.2969"/><text fill="#000000" font-family="sans-serif" font-size="14" lengthAdjust="spacing" textLength="134" x="54" y="62.292">MISSION_MANAGER</text><rect fill="#E2E2F0" height="30.2969" rx="2.5" ry="2.5" style="stroke:#181818;stroke-width:0.5;" width="148" x="47" y="898.9141"/><text fill="#000000" font-family="sans-serif" font-size="14" lengthAdjust="spacing" textLength="134" x="54" y="918.9092">MISSION_MANAGER</text><rect fill="#E2E2F0" height="30.2969" rx="2.5" ry="2.5" style="stroke:#181818;stroke-width:0.5;" width="73" x="328.5" y="42.2969"/><text fill="#000000" font-family="sans-serif" font-size="14" lengthAdjust="spacing" textLength="59" x="335.5" y="62.292">PIPELINE</text><rect fill="#E2E2F0" height="30.2969" rx="2.5" ry="2.5" style="stroke:#181818;stroke-width:0.5;" width="73" x="328.5" y="898.9141"/><text fill="#000000" font-family="sans-serif" font-size="14" lengthAdjust="spacing" textLength="59" x="335.5" y="918.9092">PIPELINE</text><rect fill="#E2E2F0" height="30.2969" rx="2.5" ry="2.5" style="stroke:#181818;stroke-width:0.5;" width="117" x="434.5" y="42.2969"/><text fill="#000000" font-family="sans-serif" font-size="14" lengthAdjust="spacing" textLength="103" x="441.5" y="62.292">KB_INTERFACE</text><rect fill="#E2E2F0" height="30.2969" rx="2.5" ry="2.5" style="stroke:#181818;stroke-width:0.5;" width="117" x="434.5" y="898.9141"/><text fill="#000000" font-family="sans-serif" font-size="14" lengthAdjust="spacing" textLength="103" x="441.5" y="918.9092">KB_INTERFACE</text><rect fill="#E2E2F0" height="30.2969" rx="2.5" ry="2.5" style="stroke:#181818;stroke-width:0.5;" width="52" x="561.5" y="42.2969"/><text fill="#000000" font-family="sans-serif" font-size="14" lengthAdjust="spacing" textLength="38" x="568.5" y="62.292">LOAD</text><rect fill="#E2E2F0" height="30.2969" rx="2.5" ry="2.5" style="stroke:#181818;stroke-width:0.5;" width="52" x="561.5" y="898.9141"/><text fill="#000000" font-family="sans-serif" font-size="14" lengthAdjust="spacing" textLength="38" x="568.5" y="918.9092">LOAD</text><rect fill="#E2E2F0" height="30.2969" rx="2.5" ry="2.5" style="stroke:#181818;stroke-width:0.5;" width="49" x="623.5" y="42.2969"/><text fill="#000000" font-family="sans-serif" font-size="14" lengthAdjust="spacing" textLength="35" x="630.5" y="62.292">PLAN</text><rect fill="#E2E2F0" height="30.2969" rx="2.5" ry="2.5" style="stroke:#181818;stroke-width:0.5;" width="49" x="623.5" y="898.9141"/><text fill="#000000" font-family="sans-serif" font-size="14" lengthAdjust="spacing" textLength="35" x="630.5" y="918.9092">PLAN</text><rect fill="#E2E2F0" height="30.2969" rx="2.5" ry="2.5" style="stroke:#181818;stroke-width:0.5;" width="60" x="682.5" y="42.2969"/><text fill="#000000" font-family="sans-serif" font-size="14" lengthAdjust="spacing" textLength="46" x="689.5" y="62.292">PARSE</text><rect fill="#E2E2F0" height="30.2969" rx="2.5" ry="2.5" style="stroke:#181818;stroke-width:0.5;" width="60" x="682.5" y="898.9141"/><text fill="#000000" font-family="sans-serif" font-size="14" lengthAdjust="spacing" textLength="46" x="689.5" y="918.9092">PARSE</text><rect fill="#E2E2F0" height="30.2969" rx="2.5" ry="2.5" style="stroke:#181818;stroke-width:0.5;" width="84" x="752.5" y="42.2969"/><text fill="#000000" font-family="sans-serif" font-size="14" lengthAdjust="spacing" textLength="70" x="759.5" y="62.292">DISPATCH</text><rect fill="#E2E2F0" height="30.2969" rx="2.5" ry="2.5" style="stroke:#181818;stroke-width:0.5;" width="84" x="752.5" y="898.9141"/><text fill="#000000" font-family="sans-serif" font-size="14" lengthAdjust="spacing" textLength="70" x="759.5" y="918.9092">DISPATCH</text><rect fill="#EEEEEE" height="3" style="stroke:#EEEEEE;stroke-width:1.0;" width="854.5" x="0" y="104.1602"/><line style="stroke:#000000;stroke-width:1.0;" x1="0" x2="854.5" y1="104.1602" y2="104.1602"/><line style="stroke:#000000;stroke-width:1.0;" x1="0" x2="854.5" y1="107.1602" y2="107.1602"/><rect fill="#EEEEEE" height="23.1328" style="stroke:#000000;stroke-width:2.0;" width="133" x="360.75" y="93.5938"/><text fill="#000000" font-family="sans-serif" font-size="13" font-weight="bold" lengthAdjust="spacing" textLength="114" x="366.75" y="109.6606">planning phase</text><path d="M5,131.7266 L5,156.7266 L238,156.7266 L238,141.7266 L228,131.7266 L5,131.7266 " fill="#FEFFDD" style="stroke:#181818;stroke-width:0.5;"/><path d="M228,131.7266 L228,141.7266 L238,141.7266 L228,131.7266 " fill="#FEFFDD" style="stroke:#181818;stroke-width:0.5;"/><text fill="#000000" font-family="sans-serif" font-size="13" lengthAdjust="spacing" textLength="212" x="11" y="148.7935">try to load and solve the problem</text><polygon fill="#181818" points="353,178.9922,363,182.9922,353,186.9922,357,182.9922" style="stroke:#181818;stroke-width:1.0;"/><line style="stroke:#181818;stroke-width:1.0;" x1="121" x2="359" y1="182.9922" y2="182.9922"/><text fill="#000000" font-family="sans-serif" font-size="13" lengthAdjust="spacing" textLength="220" x="128" y="177.9263">load (landmark REPLAN) and solve</text><polygon fill="#181818" points="481,208.125,491,212.125,481,216.125,485,212.125" style="stroke:#181818;stroke-width:1.0;"/><line style="stroke:#181818;stroke-width:1.0;" x1="365" x2="487" y1="212.125" y2="212.125"/><text fill="#000000" font-family="sans-serif" font-size="13" lengthAdjust="spacing" textLength="104" x="372" y="207.0591">prepare REPLAN</text><polygon fill="#181818" points="376,237.2578,366,241.2578,376,245.2578,372,241.2578" style="stroke:#181818;stroke-width:1.0;"/><line style="stroke:#181818;stroke-width:1.0;" x1="370" x2="492" y1="241.2578" y2="241.2578"/><text fill="#000000" font-family="sans-serif" font-size="13" font-style="italic" lengthAdjust="spacing" textLength="97" x="382" y="236.1919">always success</text><polygon fill="#181818" points="575.5,266.3906,585.5,270.3906,575.5,274.3906,579.5,270.3906" style="stroke:#181818;stroke-width:1.0;"/><line style="stroke:#181818;stroke-width:1.0;" x1="365" x2="581.5" y1="270.3906" y2="270.3906"/><text fill="#000000" font-family="sans-serif" font-size="13" lengthAdjust="spacing" textLength="92" x="372" y="265.3247">trigger loading</text><polygon fill="#181818" points="376,295.5234,366,299.5234,376,303.5234,372,299.5234" style="stroke:#181818;stroke-width:1.0;"/><line style="stroke:#181818;stroke-width:1.0;" x1="370" x2="586.5" y1="299.5234" y2="299.5234"/><text fill="#000000" font-family="sans-serif" font-size="13" font-style="italic" lengthAdjust="spacing" textLength="51" x="382" y="294.4575">success</text><text fill="#000000" font-family="sans-serif" font-size="13" lengthAdjust="spacing" textLength="89" x="437" y="294.4575">(immediately)</text><polygon fill="#FEFFDD" points="299,312.5234,430,312.5234,440,323.5234,430,335.5234,299,335.5234,289,323.5234,299,312.5234" style="stroke:#181818;stroke-width:0.5;"/><text fill="#000000" font-family="sans-serif" font-size="13" lengthAdjust="spacing" textLength="127" x="301" y="328.5903">waiting 'load' output</text><polygon fill="#181818" points="376,357.7891,366,361.7891,376,365.7891,372,361.7891" style="stroke:#181818;stroke-width:1.0;"/><line style="stroke:#181818;stroke-width:1.0;" x1="370" x2="586.5" y1="361.7891" y2="361.7891"/><text fill="#000000" font-family="sans-serif" font-size="13" lengthAdjust="spacing" textLength="79" x="382" y="356.7231">'load' output</text><path d="M233,374.7891 L233,399.7891 L497,399.7891 L497,384.7891 L487,374.7891 L233,374.7891 " fill="#FEFFDD" style="stroke:#181818;stroke-width:0.5;"/><path d="M487,374.7891 L487,384.7891 L497,384.7891 L487,374.7891 " fill="#FEFFDD" style="stroke:#181818;stroke-width:0.5;"/><text fill="#000000" font-family="sans-serif" font-size="13" lengthAdjust="spacing" textLength="243" x="239" y="391.856">let's assume that everything went fine</text><polygon fill="#181818" points="636,422.0547,646,426.0547,636,430.0547,640,426.0547" style="stroke:#181818;stroke-width:1.0;"/><line style="stroke:#181818;stroke-width:1.0;" x1="365" x2="642" y1="426.0547" y2="426.0547"/><text fill="#000000" font-family="sans-serif" font-size="13" lengthAdjust="spacing" textLength="115" x="372" y="420.9888">solve the problem</text><polygon fill="#181818" points="376,451.1875,366,455.1875,376,459.1875,372,455.1875" style="stroke:#181818;stroke-width:1.0;"/><line style="stroke:#181818;stroke-width:1.0;" x1="370" x2="647" y1="455.1875" y2="455.1875"/><text fill="#000000" font-family="sans-serif" font-size="13" font-style="italic" lengthAdjust="spacing" textLength="51" x="382" y="450.1216">success</text><text fill="#000000" font-family="sans-serif" font-size="13" lengthAdjust="spacing" textLength="89" x="437" y="450.1216">(immediately)</text><polygon fill="#FEFFDD" points="296,468.1875,433,468.1875,443,479.1875,433,491.1875,296,491.1875,286,479.1875,296,468.1875" style="stroke:#181818;stroke-width:0.5;"/><text fill="#000000" font-family="sans-serif" font-size="13" lengthAdjust="spacing" textLength="133" x="298" y="484.2544">waiting 'solve' output</text><polygon fill="#181818" points="376,513.4531,366,517.4531,376,521.4531,372,517.4531" style="stroke:#181818;stroke-width:1.0;"/><line style="stroke:#181818;stroke-width:1.0;" x1="370" x2="647" y1="517.4531" y2="517.4531"/><text fill="#000000" font-family="sans-serif" font-size="13" lengthAdjust="spacing" textLength="85" x="382" y="512.3872">'solve' output</text><path d="M233,530.4531 L233,555.4531 L497,555.4531 L497,540.4531 L487,530.4531 L233,530.4531 " fill="#FEFFDD" style="stroke:#181818;stroke-width:0.5;"/><path d="M487,530.4531 L487,540.4531 L497,540.4531 L487,530.4531 " fill="#FEFFDD" style="stroke:#181818;stroke-width:0.5;"/><text fill="#000000" font-family="sans-serif" font-size="13" lengthAdjust="spacing" textLength="243" x="239" y="547.52">let's assume that everything went fine</text><polygon fill="#181818" points="132,577.7188,122,581.7188,132,585.7188,128,581.7188" style="stroke:#181818;stroke-width:1.0;"/><line style="stroke:#181818;stroke-width:1.0;" x1="126" x2="364" y1="581.7188" y2="581.7188"/><text fill="#000000" font-family="sans-serif" font-size="13" font-style="italic" lengthAdjust="spacing" textLength="51" x="138" y="576.6528">success</text><rect fill="#EEEEEE" height="3" style="stroke:#EEEEEE;stroke-width:1.0;" width="854.5" x="0" y="610.2852"/><line style="stroke:#000000;stroke-width:1.0;" x1="0" x2="854.5" y1="610.2852" y2="610.2852"/><line style="stroke:#000000;stroke-width:1.0;" x1="0" x2="854.5" y1="613.2852" y2="613.2852"/><rect fill="#EEEEEE" height="23.1328" style="stroke:#000000;stroke-width:2.0;" width="133" x="360.75" y="599.7188"/><text fill="#000000" font-family="sans-serif" font-size="13" font-weight="bold" lengthAdjust="spacing" textLength="114" x="366.75" y="615.7856">dispatch phase</text><polygon fill="#181818" points="353,649.9844,363,653.9844,353,657.9844,357,653.9844" style="stroke:#181818;stroke-width:1.0;"/><line style="stroke:#181818;stroke-width:1.0;" x1="121" x2="359" y1="653.9844" y2="653.9844"/><text fill="#000000" font-family="sans-serif" font-size="13" lengthAdjust="spacing" textLength="122" x="128" y="648.9185">parse and dispatch</text><polygon fill="#181818" points="700.5,679.1172,710.5,683.1172,700.5,687.1172,704.5,683.1172" style="stroke:#181818;stroke-width:1.0;"/><line style="stroke:#181818;stroke-width:1.0;" x1="365" x2="706.5" y1="683.1172" y2="683.1172"/><text fill="#000000" font-family="sans-serif" font-size="13" lengthAdjust="spacing" textLength="67" x="372" y="678.0513">parse plan</text><polygon fill="#181818" points="376,693.1172,366,697.1172,376,701.1172,372,697.1172" style="stroke:#181818;stroke-width:1.0;"/><line style="stroke:#181818;stroke-width:1.0;" x1="370" x2="711.5" y1="697.1172" y2="697.1172"/><polygon fill="#FEFFDD" points="295,710.1172,435,710.1172,445,721.1172,435,733.1172,295,733.1172,285,721.1172,295,710.1172" style="stroke:#181818;stroke-width:0.5;"/><text fill="#000000" font-family="sans-serif" font-size="13" lengthAdjust="spacing" textLength="136" x="297" y="726.1841">waiting 'parse' output</text><polygon fill="#181818" points="376,755.3828,366,759.3828,376,763.3828,372,759.3828" style="stroke:#181818;stroke-width:1.0;"/><line style="stroke:#181818;stroke-width:1.0;" x1="370" x2="711.5" y1="759.3828" y2="759.3828"/><text fill="#000000" font-family="sans-serif" font-size="13" lengthAdjust="spacing" textLength="42" x="382" y="754.3169">'parse'</text><polygon fill="#181818" points="782.5,784.5156,792.5,788.5156,782.5,792.5156,786.5,788.5156" style="stroke:#181818;stroke-width:1.0;"/><line style="stroke:#181818;stroke-width:1.0;" x1="365" x2="788.5" y1="788.5156" y2="788.5156"/><text fill="#000000" font-family="sans-serif" font-size="13" lengthAdjust="spacing" textLength="85" x="372" y="783.4497">dispatch plan</text><path d="M65,801.5156 L65,826.5156 L849,826.5156 L849,811.5156 L839,801.5156 L65,801.5156 " fill="#FEFFDD" style="stroke:#181818;stroke-width:0.5;"/><path d="M839,801.5156 L839,811.5156 L849,811.5156 L839,801.5156 " fill="#FEFFDD" style="stroke:#181818;stroke-width:0.5;"/><text fill="#000000" font-family="sans-serif" font-size="13" lengthAdjust="spacing" textLength="452" x="226.75" y="818.5825">it requires a lot of time: the system is running the RCL ROSPlan actions</text><polygon fill="#181818" points="376,848.7813,366,852.7813,376,856.7813,372,852.7813" style="stroke:#181818;stroke-width:1.0;"/><line style="stroke:#181818;stroke-width:1.0;" x1="370" x2="793.5" y1="852.7813" y2="852.7813"/><text fill="#000000" font-family="sans-serif" font-size="13" lengthAdjust="spacing" textLength="90" x="382" y="847.7153">end execution</text><polygon fill="#181818" points="132,877.9141,122,881.9141,132,885.9141,128,881.9141" style="stroke:#181818;stroke-width:1.0;"/><line style="stroke:#181818;stroke-width:1.0;" x1="126" x2="364" y1="881.9141" y2="881.9141"/><text fill="#000000" font-family="sans-serif" font-size="13" font-style="italic" lengthAdjust="spacing" textLength="51" x="138" y="876.8481">success</text><!--MD5=[be5d3cd8fbdacf9cd7bb3423ef62d347]
@startuml

title landmark execution - REPLAN

''' ENTITIES
participant MISSION_MANAGER
participant PIPELINE
participant KB_INTERFACE
participant LOAD
participant PLAN
participant PARSE
participant DISPATCH

'' TEMPORAL DIAGRAM
== planning phase ==

note over MISSION_MANAGER: try to load and solve the problem

MISSION_MANAGER -> PIPELINE : load (landmark REPLAN) and solve

PIPELINE -> KB_INTERFACE : prepare REPLAN
PIPELINE <- KB_INTERFACE : <i>always success</i>

PIPELINE -> LOAD : trigger loading
PIPELINE <- LOAD : <i>success</i> (immediately)
hnote over PIPELINE: waiting 'load' output
PIPELINE <- LOAD : 'load' output

note over PIPELINE
let's assume that everything went fine
end note

PIPELINE -> PLAN : solve the problem
PIPELINE <- PLAN : <i>success</i> (immediately)
hnote over PIPELINE: waiting 'solve' output
PIPELINE <- PLAN : 'solve' output

note over PIPELINE
let's assume that everything went fine
end note

MISSION_MANAGER <- PIPELINE : <i>success</i>

== dispatch phase ==

MISSION_MANAGER -> PIPELINE : parse and dispatch

PIPELINE -> PARSE : parse plan
PIPELINE <- PARSE
hnote over PIPELINE: waiting 'parse' output
PIPELINE <- PARSE : 'parse'

PIPELINE -> DISPATCH : dispatch plan
note over MISSION_MANAGER, DISPATCH : it requires a lot of time: the system is running the RCL ROSPlan actions
PIPELINE <- DISPATCH : end execution

MISSION_MANAGER <- PIPELINE : <i>success</i>

@enduml

@startuml

title landmark execution - REPLAN

participant MISSION_MANAGER
participant PIPELINE
participant KB_INTERFACE
participant LOAD
participant PLAN
participant PARSE
participant DISPATCH

== planning phase ==

note over MISSION_MANAGER: try to load and solve the problem

MISSION_MANAGER -> PIPELINE : load (landmark REPLAN) and solve

PIPELINE -> KB_INTERFACE : prepare REPLAN
PIPELINE <- KB_INTERFACE : <i>always success</i>

PIPELINE -> LOAD : trigger loading
PIPELINE <- LOAD : <i>success</i> (immediately)
hnote over PIPELINE: waiting 'load' output
PIPELINE <- LOAD : 'load' output

note over PIPELINE
let's assume that everything went fine
end note

PIPELINE -> PLAN : solve the problem
PIPELINE <- PLAN : <i>success</i> (immediately)
hnote over PIPELINE: waiting 'solve' output
PIPELINE <- PLAN : 'solve' output

note over PIPELINE
let's assume that everything went fine
end note

MISSION_MANAGER <- PIPELINE : <i>success</i>

== dispatch phase ==

MISSION_MANAGER -> PIPELINE : parse and dispatch

PIPELINE -> PARSE : parse plan
PIPELINE <- PARSE
hnote over PIPELINE: waiting 'parse' output
PIPELINE <- PARSE : 'parse'

PIPELINE -> DISPATCH : dispatch plan
note over MISSION_MANAGER, DISPATCH : it requires a lot of time: the system is running the RCL ROSPlan actions
PIPELINE <- DISPATCH : end execution

MISSION_MANAGER <- PIPELINE : <i>success</i>

@enduml

PlantUML version 1.2022.6(Tue Jun 21 17:34:49 UTC 2022)
(GPL source distribution)
Java Runtime: Java(TM) SE Runtime Environment
JVM: Java HotSpot(TM) 64-Bit Server VM
Default Encoding: UTF-8
Language: en
Country: US
--></g></svg>