<?xml version="1.0" encoding="UTF-8" standalone="no"?><svg xmlns="http://www.w3.org/2000/svg" xmlns:xlink="http://www.w3.org/1999/xlink" contentStyleType="text/css" height="513px" preserveAspectRatio="none" style="width:1908px;height:513px;background:#FFFFFF;" version="1.1" viewBox="0 0 1908 513" width="1908px" zoomAndPan="magnify"><defs/><g><rect height="42.2969" style="stroke:#00000000;stroke-width:1.0;fill:none;" width="197" x="848.83" y="5"/><text fill="#000000" font-family="sans-serif" font-size="14" font-weight="bold" lengthAdjust="spacing" textLength="171" x="861.83" y="30.9951">NODE move_base_nav</text><!--MD5=[39c4eee9471449e046008ca5703679c3]
cluster PARAMETERS--><g id="cluster_PARAMETERS"><path d="M628.66,346.2969 C628.66,336.2969 809.16,336.2969 809.16,336.2969 C809.16,336.2969 989.66,336.2969 989.66,346.2969 L989.66,486.2969 C989.66,496.2969 809.16,496.2969 809.16,496.2969 C809.16,496.2969 628.66,496.2969 628.66,486.2969 L628.66,346.2969 " style="stroke:#181818;stroke-width:1.0;fill:none;"/><path d="M628.66,346.2969 C628.66,356.2969 809.16,356.2969 809.16,356.2969 C809.16,356.2969 989.66,356.2969 989.66,346.2969 " fill="none" style="stroke:#181818;stroke-width:1.0;"/><text fill="#000000" font-family="sans-serif" font-size="14" font-weight="bold" lengthAdjust="spacing" textLength="176" x="721.16" y="379.292">ROS parameter server</text></g><!--MD5=[19fa23326ec51ca88bbfac075c92d164]
cluster MOVE_BASE_NAV--><g id="cluster_MOVE_BASE_NAV"><rect height="177" rx="2.5" ry="2.5" style="stroke:#181818;stroke-width:1.0;fill:none;" width="451" x="911.66" y="60.2969"/><rect height="10" style="stroke:#181818;stroke-width:1.0;fill:none;" width="15" x="1342.66" y="65.2969"/><rect height="2" style="stroke:#181818;stroke-width:1.0;fill:none;" width="4" x="1340.66" y="67.2969"/><rect height="2" style="stroke:#181818;stroke-width:1.0;fill:none;" width="4" x="1340.66" y="71.2969"/><text fill="#000000" font-family="sans-serif" font-size="14" font-style="italic" lengthAdjust="spacing" textLength="104" x="1085.16" y="94.292">«ROSPy node»</text><text fill="#000000" font-family="sans-serif" font-size="14" font-weight="bold" lengthAdjust="spacing" textLength="123" x="1075.66" y="126.5889">move_base_nav</text></g><!--MD5=[3d2d0cdc5a87e8d33dbbdf625e1e368a]
entity des_pos_x--><g id="elem_des_pos_x"><polygon fill="#F1F1F1" points="836.16,420.2969,846.16,410.2969,965.16,410.2969,965.16,462.5938,955.16,472.5938,836.16,472.5938,836.16,420.2969" style="stroke:#181818;stroke-width:0.5;"/><line style="stroke:#181818;stroke-width:0.5;" x1="955.16" x2="965.16" y1="420.2969" y2="410.2969"/><line style="stroke:#181818;stroke-width:0.5;" x1="836.16" x2="955.16" y1="420.2969" y2="420.2969"/><line style="stroke:#181818;stroke-width:0.5;" x1="955.16" x2="955.16" y1="420.2969" y2="472.5938"/><text fill="#000000" font-family="sans-serif" font-size="14" lengthAdjust="spacing" textLength="73" x="859.16" y="451.292">des_pos_x</text></g><!--MD5=[f8ee79e2f34056c410e55b7856b01451]
entity des_pos_y--><g id="elem_des_pos_y"><polygon fill="#F1F1F1" points="672.16,420.2969,682.16,410.2969,801.16,410.2969,801.16,462.5938,791.16,472.5938,672.16,472.5938,672.16,420.2969" style="stroke:#181818;stroke-width:0.5;"/><line style="stroke:#181818;stroke-width:0.5;" x1="791.16" x2="801.16" y1="420.2969" y2="410.2969"/><line style="stroke:#181818;stroke-width:0.5;" x1="672.16" x2="791.16" y1="420.2969" y2="420.2969"/><line style="stroke:#181818;stroke-width:0.5;" x1="791.16" x2="791.16" y1="420.2969" y2="472.5938"/><text fill="#000000" font-family="sans-serif" font-size="14" lengthAdjust="spacing" textLength="73" x="695.16" y="451.292">des_pos_y</text></g><!--MD5=[571572b5270ca6220669ba8bfdbc29df]
entity MOVE_BASE_NAV.SWITCH--><g id="elem_MOVE_BASE_NAV.SWITCH"><polygon fill="#F1F1F1" points="955.16,161.2969,965.16,151.2969,1172.16,151.2969,1172.16,203.5938,1162.16,213.5938,955.16,213.5938,955.16,161.2969" style="stroke:#181818;stroke-width:0.5;"/><line style="stroke:#181818;stroke-width:0.5;" x1="1162.16" x2="1172.16" y1="161.2969" y2="151.2969"/><line style="stroke:#181818;stroke-width:0.5;" x1="955.16" x2="1162.16" y1="161.2969" y2="161.2969"/><line style="stroke:#181818;stroke-width:0.5;" x1="1162.16" x2="1162.16" y1="161.2969" y2="213.5938"/><text fill="#000000" font-family="sans-serif" font-size="14" lengthAdjust="spacing" textLength="161" x="978.16" y="192.292">move_base_nav_switch</text></g><!--MD5=[e4b89f7ae3b87a2aebf958aeef066cc9]
entity MOVE_BASE_NAV.READ_ODOM--><g id="elem_MOVE_BASE_NAV.READ_ODOM"><polygon fill="#F1F1F1" points="1207.16,161.2969,1217.16,151.2969,1338.16,151.2969,1338.16,203.5938,1328.16,213.5938,1207.16,213.5938,1207.16,161.2969" style="stroke:#181818;stroke-width:0.5;"/><line style="stroke:#181818;stroke-width:0.5;" x1="1328.16" x2="1338.16" y1="161.2969" y2="151.2969"/><line style="stroke:#181818;stroke-width:0.5;" x1="1207.16" x2="1328.16" y1="161.2969" y2="161.2969"/><line style="stroke:#181818;stroke-width:0.5;" x1="1328.16" x2="1328.16" y1="161.2969" y2="213.5938"/><text fill="#000000" font-family="sans-serif" font-size="14" lengthAdjust="spacing" textLength="75" x="1230.16" y="192.292">clbk_odom</text></g><!--MD5=[9c0f7ecf381f88014a7ea481e5efb054]
entity TOPIC_ODOM--><g id="elem_TOPIC_ODOM"><ellipse cx="1705.66" cy="441.2969" fill="#F1F1F1" rx="8" ry="8" style="stroke:#181818;stroke-width:0.5;"/><text fill="#000000" font-family="sans-serif" font-size="14" lengthAdjust="spacing" textLength="45" x="1683.16" y="479.292">/odom</text></g><!--MD5=[a29493d5c3d449fd805f8038216f6f38]
entity TOPIC_VEL--><g id="elem_TOPIC_VEL"><ellipse cx="44.66" cy="441.2969" fill="#F1F1F1" rx="8" ry="8" style="stroke:#181818;stroke-width:0.5;"/><text fill="#000000" font-family="sans-serif" font-size="14" lengthAdjust="spacing" textLength="61" x="14.16" y="479.292">/cmd_vel</text></g><!--MD5=[5f76c7c8f098306226c4896f803538f7]
entity TOPIC_MOVE_BASE_GOAL--><g id="elem_TOPIC_MOVE_BASE_GOAL"><ellipse cx="302.66" cy="441.2969" fill="#F1F1F1" rx="8" ry="8" style="stroke:#181818;stroke-width:0.5;"/><text fill="#000000" font-family="sans-serif" font-size="14" lengthAdjust="spacing" textLength="118" x="243.66" y="479.292">/move_base/goal</text></g><!--MD5=[fed9efc106039e65771e2b561972d852]
entity TOPIC_MOVE_BASE_CANCEL--><g id="elem_TOPIC_MOVE_BASE_CANCEL"><ellipse cx="518.66" cy="441.2969" fill="#F1F1F1" rx="8" ry="8" style="stroke:#181818;stroke-width:0.5;"/><text fill="#000000" font-family="sans-serif" font-size="14" lengthAdjust="spacing" textLength="134" x="451.66" y="479.292">/move_base/cancel</text></g><!--MD5=[b87ffea39230279ef1f7e397cf84b392]
entity SRV_MOVE_BASE_NAV_SWITCH--><g id="elem_SRV_MOVE_BASE_NAV_SWITCH"><ellipse cx="1091.66" cy="441.2969" fill="#F1F1F1" rx="8" ry="8" style="stroke:#181818;stroke-width:0.5;"/><text fill="#000000" font-family="sans-serif" font-size="14" lengthAdjust="spacing" textLength="124" x="1029.66" y="479.292">/nav_stack_switch</text></g><!--MD5=[f55e2e28c75719e0f19d6add3c23b196]
entity SRV_MOVE_BASE_NAV_SIGNAL--><g id="elem_SRV_MOVE_BASE_NAV_SIGNAL"><ellipse cx="1280.66" cy="441.2969" fill="#F1F1F1" rx="8" ry="8" style="stroke:#181818;stroke-width:0.5;"/><text fill="#000000" font-family="sans-serif" font-size="14" lengthAdjust="spacing" textLength="120" x="1220.66" y="479.292">/nav_stack_signal</text></g><!--MD5=[ce0550ece9e8498f5b487be6600f7375]
entity SRV_HEAD_ORIENT_SWITCH--><g id="elem_SRV_HEAD_ORIENT_SWITCH"><ellipse cx="1488.66" cy="441.2969" fill="#F1F1F1" rx="8" ry="8" style="stroke:#181818;stroke-width:0.5;"/><text fill="#000000" font-family="sans-serif" font-size="14" lengthAdjust="spacing" textLength="120" x="1428.66" y="479.292">/nav_stack_signal</text></g><!--MD5=[04763481c05e06653c8598e3b8874b89]
reverse link MOVE_BASE_NAV to PARAMETERS--><g id="link_MOVE_BASE_NAV_PARAMETERS"><path d="M925.0567,237.3089 C925.0397,238.1663 925.0169,239.0276 924.9882,239.892 C924.9308,241.6209 924.8495,243.3627 924.7416,245.1131 C924.526,248.614 924.2045,252.1496 923.7567,255.6867 C922.8611,262.7608 921.4604,269.8405 919.3917,276.6589 C915.2544,290.2956 908.445,302.8869 897.66,312.2969 C877.39,329.9869 675.83,302.4869 655.66,320.2969 C650.68,324.6944 646.6378,329.8266 643.378,335.4461 C643.2762,335.6217 643.1751,335.7977 643.0747,335.9743 " fill="none" id="MOVE_BASE_NAV-backto-PARAMETERS" style="stroke:#181818;stroke-width:1.0;"/><polygon fill="#181818" points="925.0567,237.3089,920.8785,246.2275,924.9573,242.3079,928.8769,246.3867,925.0567,237.3089" style="stroke:#181818;stroke-width:1.0;"/><text fill="#000000" font-family="sans-serif" font-size="13" lengthAdjust="spacing" textLength="21" x="918.0729" y="171.3227">get</text></g><!--MD5=[9cc0349f95736d8df3fe0338ec5fc4cb]
reverse link MOVE_BASE_NAV.READ_ODOM to TOPIC_ODOM--><g id="link_MOVE_BASE_NAV.READ_ODOM_TOPIC_ODOM"><path codeLine="23" d="M1343.19,188.2669 C1443.38,196.7869 1619.76,217.6669 1664.66,261.2969 C1714.05,309.2869 1709.28,403.7269 1706.59,432.0669 " fill="none" id="MOVE_BASE_NAV.READ_ODOM-backto-TOPIC_ODOM" style="stroke:#181818;stroke-width:1.0;"/><polygon fill="#181818" points="1338.19,187.8469,1346.8279,192.5784,1343.1728,188.2609,1347.4903,184.6059,1338.19,187.8469" style="stroke:#181818;stroke-width:1.0;"/><path d="M1699.66,266.2969 L1699.66,307.2969 L1901.66,307.2969 L1901.66,276.2969 L1891.66,266.2969 L1699.66,266.2969 " fill="#FEFFDD" style="stroke:#181818;stroke-width:0.5;"/><path d="M1891.66,266.2969 L1891.66,276.2969 L1901.66,276.2969 L1891.66,266.2969 " fill="#FEFFDD" style="stroke:#181818;stroke-width:0.5;"/><text fill="#000000" font-family="sans-serif" font-size="13" lengthAdjust="spacing" textLength="165" x="1713.66" y="291.3638">nav_msgs/Odometry.msg</text><text fill="#000000" font-family="sans-serif" font-size="13" lengthAdjust="spacing" textLength="23" x="1354.0287" y="175.9889">sub</text></g><!--MD5=[f8537d44f1fdea604087a8f73091d434]
link MOVE_BASE_NAV to TOPIC_VEL--><g id="link_MOVE_BASE_NAV_TOPIC_VEL"><path codeLine="27" d="M910.7375,183.3938 C910.0103,183.4025 909.2406,183.4119 908.4291,183.4219 C901.9368,183.5023 892.7682,183.6257 881.2908,183.8056 C858.3359,184.1655 826.1455,184.7513 787.6586,185.6702 C710.6847,187.5078 608.5244,190.6775 504.6888,196.0356 C297.0175,206.7519 82.645,226.2219 49.66,261.2969 C6,307.7369 29.07,394.6069 39.98,427.3569 " fill="none" id="MOVE_BASE_NAV-to-TOPIC_VEL" style="stroke:#181818;stroke-width:1.0;"/><polygon fill="#181818" points="41.62,432.1369,42.4978,422.3272,40.0046,427.405,34.9268,424.9119,41.62,432.1369" style="stroke:#181818;stroke-width:1.0;"/><path d="M54.66,266.2969 L54.66,307.2969 L262.66,307.2969 L262.66,276.2969 L252.66,266.2969 L54.66,266.2969 " fill="#FEFFDD" style="stroke:#181818;stroke-width:0.5;"/><path d="M252.66,266.2969 L252.66,276.2969 L262.66,276.2969 L252.66,266.2969 " fill="#FEFFDD" style="stroke:#181818;stroke-width:0.5;"/><text fill="#000000" font-family="sans-serif" font-size="13" lengthAdjust="spacing" textLength="171" x="68.66" y="291.3638">geometry_msgs/Twist.msg</text><text fill="#000000" font-family="sans-serif" font-size="13" lengthAdjust="spacing" textLength="24" x="887.51" y="172.3638">pub</text></g><!--MD5=[a19dbef3c35df7478e5c6d7f6fbc4cbb]
link MOVE_BASE_NAV to TOPIC_MOVE_BASE_GOAL--><g id="link_MOVE_BASE_NAV_TOPIC_MOVE_BASE_GOAL"><path codeLine="31" d="M911.5824,183.6678 C906.9145,183.8902 900.3228,184.2114 892.0716,184.6317 C875.5693,185.4723 852.4296,186.7093 824.7686,188.3448 C769.4466,191.6159 696.0394,196.4813 621.4763,202.9581 C472.35,215.9119 318.6,235.3119 295.66,261.2969 C253.46,309.0969 283.35,395.1469 296.92,427.5169 " fill="none" id="MOVE_BASE_NAV-to-TOPIC_MOVE_BASE_GOAL" style="stroke:#181818;stroke-width:1.0;"/><polygon fill="#181818" points="298.94,432.2369,299.0602,422.3888,296.9652,427.6434,291.7106,425.5484,298.94,432.2369" style="stroke:#181818;stroke-width:1.0;"/><path d="M300.66,266.2969 L300.66,307.2969 L624.66,307.2969 L624.66,276.2969 L614.66,266.2969 L300.66,266.2969 " fill="#FEFFDD" style="stroke:#181818;stroke-width:0.5;"/><path d="M614.66,266.2969 L614.66,276.2969 L624.66,276.2969 L614.66,266.2969 " fill="#FEFFDD" style="stroke:#181818;stroke-width:0.5;"/><text fill="#000000" font-family="sans-serif" font-size="13" lengthAdjust="spacing" textLength="287" x="314.66" y="291.3638">move_base_msgs/MoveBaseActionGoal.msg</text><text fill="#000000" font-family="sans-serif" font-size="13" lengthAdjust="spacing" textLength="24" x="887.55" y="203.3638">pub</text></g><!--MD5=[da592faeaf6e9f5ce5b1377e02236cbd]
link MOVE_BASE_NAV to TOPIC_MOVE_BASE_CANCEL--><g id="link_MOVE_BASE_NAV_TOPIC_MOVE_BASE_CANCEL"><path codeLine="35" d="M911.6039,183.8191 C911.4558,183.8303 911.3059,183.8417 911.1541,183.8534 C906.2968,184.2256 899.5196,184.8234 891.2386,185.7531 C874.6766,187.6125 852.0994,190.7994 826.8363,196.1644 C776.31,206.8944 715.04,226.3369 669.66,261.2969 C648.46,277.6269 657.69,294.5469 637.66,312.2969 C631.41,317.8369 627.29,315.2269 620.66,320.2969 C578.72,352.3869 542.01,404.3469 526.51,427.9469 " fill="none" id="MOVE_BASE_NAV-to-TOPIC_MOVE_BASE_CANCEL" style="stroke:#181818;stroke-width:1.0;"/><polygon fill="#181818" points="523.69,432.2669,531.9345,426.8791,526.4039,428.0675,525.2155,422.5369,523.69,432.2669" style="stroke:#181818;stroke-width:1.0;"/><path d="M674.66,266.2969 L674.66,307.2969 L884.66,307.2969 L884.66,276.2969 L874.66,266.2969 L674.66,266.2969 " fill="#FEFFDD" style="stroke:#181818;stroke-width:0.5;"/><path d="M874.66,266.2969 L874.66,276.2969 L884.66,276.2969 L874.66,266.2969 " fill="#FEFFDD" style="stroke:#181818;stroke-width:0.5;"/><text fill="#000000" font-family="sans-serif" font-size="13" lengthAdjust="spacing" textLength="173" x="688.66" y="291.3638">actionlib_msgs/GoalID.msg</text><text fill="#000000" font-family="sans-serif" font-size="13" lengthAdjust="spacing" textLength="24" x="915.3329" y="204.9909">pub</text></g><!--MD5=[57b92e13d3f46b5c771147ad763ee43d]
link MOVE_BASE_NAV.SWITCH to SRV_MOVE_BASE_NAV_SWITCH--><g id="link_MOVE_BASE_NAV.SWITCH_SRV_MOVE_BASE_NAV_SWITCH"><path codeLine="39" d="M1062.22,213.6669 C1061.61,228.0869 1060.96,245.5769 1060.66,261.2969 C1060.22,283.9569 1057.97,289.7869 1060.66,312.2969 C1065.75,354.9669 1080.08,403.9669 1087.33,427.0069 " fill="none" id="MOVE_BASE_NAV.SWITCH-to-SRV_MOVE_BASE_NAV_SWITCH" style="stroke:#181818;stroke-width:1.0;"/><polygon fill="#181818" points="1088.93,432.0369,1089.985,422.2447,1087.4004,427.2766,1082.3685,424.692,1088.93,432.0369" style="stroke:#181818;stroke-width:1.0;"/><path d="M1065.66,266.2969 L1065.66,307.2969 L1232.66,307.2969 L1232.66,276.2969 L1222.66,266.2969 L1065.66,266.2969 " fill="#FEFFDD" style="stroke:#181818;stroke-width:0.5;"/><path d="M1222.66,266.2969 L1222.66,276.2969 L1232.66,276.2969 L1222.66,266.2969 " fill="#FEFFDD" style="stroke:#181818;stroke-width:0.5;"/><text fill="#000000" font-family="sans-serif" font-size="13" lengthAdjust="spacing" textLength="130" x="1079.66" y="291.3638">std_srvs/SetBool.srv</text><text fill="#000000" font-family="sans-serif" font-size="13" lengthAdjust="spacing" textLength="19" x="1031.9647" y="241.7755">srv</text></g><!--MD5=[f1e3a7c3e2b40bc205f9f431c07a0bf3]
reverse link MOVE_BASE_NAV.SWITCH to SRV_MOVE_BASE_NAV_SIGNAL--><g id="link_MOVE_BASE_NAV.SWITCH_SRV_MOVE_BASE_NAV_SIGNAL"><path codeLine="43" d="M1112.94,216.0269 C1135.47,229.5569 1163.03,244.1769 1189.66,253.2969 C1211.78,260.8669 1224.62,245.2869 1241.66,261.2969 C1291.72,308.3469 1285.07,403.4369 1281.77,431.9969 " fill="none" id="MOVE_BASE_NAV.SWITCH-backto-SRV_MOVE_BASE_NAV_SIGNAL" style="stroke:#181818;stroke-width:1.0;"/><polygon fill="#181818" points="1108.5,213.3369,1114.108,221.4332,1112.771,215.9366,1118.2676,214.5996,1108.5,213.3369" style="stroke:#181818;stroke-width:1.0;"/><path d="M1276.66,266.2969 L1276.66,307.2969 L1434.66,307.2969 L1434.66,276.2969 L1424.66,266.2969 L1276.66,266.2969 " fill="#FEFFDD" style="stroke:#181818;stroke-width:0.5;"/><path d="M1424.66,266.2969 L1424.66,276.2969 L1434.66,276.2969 L1424.66,266.2969 " fill="#FEFFDD" style="stroke:#181818;stroke-width:0.5;"/><text fill="#000000" font-family="sans-serif" font-size="13" lengthAdjust="spacing" textLength="121" x="1290.66" y="291.3638">std_srvs/Empty.srv</text><text fill="#000000" font-family="sans-serif" font-size="13" lengthAdjust="spacing" textLength="10" x="1259.9801" y="413.1799">cl</text></g><!--MD5=[20a9f2f50883da4763227de18227ba62]
reverse link MOVE_BASE_NAV.SWITCH to SRV_HEAD_ORIENT_SWITCH--><g id="link_MOVE_BASE_NAV.SWITCH_SRV_HEAD_ORIENT_SWITCH"><path codeLine="47" d="M1110.24,216.1869 C1133.06,230.4169 1161.62,245.5669 1189.66,253.2969 C1203.48,257.1069 1436.58,252.1869 1447.66,261.2969 C1501.09,305.2469 1493.4,403.3069 1489.82,432.1569 " fill="none" id="MOVE_BASE_NAV.SWITCH-backto-SRV_HEAD_ORIENT_SWITCH" style="stroke:#181818;stroke-width:1.0;"/><polygon fill="#181818" points="1105.75,213.3569,1111.2224,221.5455,1109.9771,216.0274,1115.4952,214.7821,1105.75,213.3569" style="stroke:#181818;stroke-width:1.0;"/><path d="M1484.66,266.2969 L1484.66,307.2969 L1651.66,307.2969 L1651.66,276.2969 L1641.66,266.2969 L1484.66,266.2969 " fill="#FEFFDD" style="stroke:#181818;stroke-width:0.5;"/><path d="M1641.66,266.2969 L1641.66,276.2969 L1651.66,276.2969 L1641.66,266.2969 " fill="#FEFFDD" style="stroke:#181818;stroke-width:0.5;"/><text fill="#000000" font-family="sans-serif" font-size="13" lengthAdjust="spacing" textLength="130" x="1498.66" y="291.3638">std_srvs/SetBool.srv</text><text fill="#000000" font-family="sans-serif" font-size="13" lengthAdjust="spacing" textLength="10" x="1467.898" y="413.0838">cl</text></g><!--MD5=[ebc1971700207afc3ddafa1619e5be94]
@startuml

''' INFOS
title NODE move_base_nav
skinparam Padding 8
allow_mixing


''' COMPONENTS
database "ROS parameter server" as PARAMETERS {
	node "des_pos_x"
	node "des_pos_y"
}

component "move_base_nav" <<ROSPy node>> as MOVE_BASE_NAV {
	node "move_base_nav_switch" as MOVE_BASE_NAV.SWITCH
	node "clbk_odom" as MOVE_BASE_NAV.READ_ODOM
	
}

MOVE_BASE_NAV "get" <- - PARAMETERS

() "/odom" as TOPIC_ODOM
MOVE_BASE_NAV.READ_ODOM "sub" <- - TOPIC_ODOM
note on link: nav_msgs/Odometry.msg

() "/cmd_vel" as TOPIC_VEL
MOVE_BASE_NAV "pub" - -> TOPIC_VEL
note on link: geometry_msgs/Twist.msg

() "/move_base/goal" as TOPIC_MOVE_BASE_GOAL
MOVE_BASE_NAV "pub" - -> TOPIC_MOVE_BASE_GOAL
note on link: move_base_msgs/MoveBaseActionGoal.msg

() "/move_base/cancel" as TOPIC_MOVE_BASE_CANCEL
MOVE_BASE_NAV "pub" - -> TOPIC_MOVE_BASE_CANCEL
note on link: actionlib_msgs/GoalID.msg

() "/nav_stack_switch" as SRV_MOVE_BASE_NAV_SWITCH
MOVE_BASE_NAV.SWITCH "srv" - -> SRV_MOVE_BASE_NAV_SWITCH
note on link: std_srvs/SetBool.srv

() "/nav_stack_signal" as SRV_MOVE_BASE_NAV_SIGNAL
MOVE_BASE_NAV.SWITCH <- - "cl" SRV_MOVE_BASE_NAV_SIGNAL
note on link: std_srvs/Empty.srv

() "/nav_stack_signal" as SRV_HEAD_ORIENT_SWITCH
MOVE_BASE_NAV.SWITCH <- - "cl" SRV_HEAD_ORIENT_SWITCH
note on link: std_srvs/SetBool.srv

@enduml

@startuml

title NODE move_base_nav
skinparam Padding 8
allow_mixing


database "ROS parameter server" as PARAMETERS {
	node "des_pos_x"
	node "des_pos_y"
}

component "move_base_nav" <<ROSPy node>> as MOVE_BASE_NAV {
	node "move_base_nav_switch" as MOVE_BASE_NAV.SWITCH
	node "clbk_odom" as MOVE_BASE_NAV.READ_ODOM
	
}

MOVE_BASE_NAV "get" <- - PARAMETERS

() "/odom" as TOPIC_ODOM
MOVE_BASE_NAV.READ_ODOM "sub" <- - TOPIC_ODOM
note on link: nav_msgs/Odometry.msg

() "/cmd_vel" as TOPIC_VEL
MOVE_BASE_NAV "pub" - -> TOPIC_VEL
note on link: geometry_msgs/Twist.msg

() "/move_base/goal" as TOPIC_MOVE_BASE_GOAL
MOVE_BASE_NAV "pub" - -> TOPIC_MOVE_BASE_GOAL
note on link: move_base_msgs/MoveBaseActionGoal.msg

() "/move_base/cancel" as TOPIC_MOVE_BASE_CANCEL
MOVE_BASE_NAV "pub" - -> TOPIC_MOVE_BASE_CANCEL
note on link: actionlib_msgs/GoalID.msg

() "/nav_stack_switch" as SRV_MOVE_BASE_NAV_SWITCH
MOVE_BASE_NAV.SWITCH "srv" - -> SRV_MOVE_BASE_NAV_SWITCH
note on link: std_srvs/SetBool.srv

() "/nav_stack_signal" as SRV_MOVE_BASE_NAV_SIGNAL
MOVE_BASE_NAV.SWITCH <- - "cl" SRV_MOVE_BASE_NAV_SIGNAL
note on link: std_srvs/Empty.srv

() "/nav_stack_signal" as SRV_HEAD_ORIENT_SWITCH
MOVE_BASE_NAV.SWITCH <- - "cl" SRV_HEAD_ORIENT_SWITCH
note on link: std_srvs/SetBool.srv

@enduml

PlantUML version 1.2022.6(Tue Jun 21 17:34:49 UTC 2022)
(GPL source distribution)
Java Runtime: Java(TM) SE Runtime Environment
JVM: Java HotSpot(TM) 64-Bit Server VM
Default Encoding: UTF-8
Language: en
Country: US
--></g></svg>