<?xml version="1.0" encoding="UTF-8" standalone="no"?><svg xmlns="http://www.w3.org/2000/svg" xmlns:xlink="http://www.w3.org/1999/xlink" contentStyleType="text/css" height="513px" preserveAspectRatio="none" style="width:961px;height:513px;background:#FFFFFF;" version="1.1" viewBox="0 0 961 513" width="961px" zoomAndPan="magnify"><defs/><g><rect height="42.2969" style="stroke:#00000000;stroke-width:1.0;fill:none;" width="164" x="391.675" y="5"/><text fill="#000000" font-family="sans-serif" font-size="14" font-weight="bold" lengthAdjust="spacing" textLength="138" x="404.675" y="30.9951">NODE go_to_point</text><!--MD5=[39c4eee9471449e046008ca5703679c3]
cluster PARAMETERS--><g id="cluster_PARAMETERS"><path d="M118.35,346.2969 C118.35,336.2969 298.85,336.2969 298.85,336.2969 C298.85,336.2969 479.35,336.2969 479.35,346.2969 L479.35,486.2969 C479.35,496.2969 298.85,496.2969 298.85,496.2969 C298.85,496.2969 118.35,496.2969 118.35,486.2969 L118.35,346.2969 " style="stroke:#181818;stroke-width:1.0;fill:none;"/><path d="M118.35,346.2969 C118.35,356.2969 298.85,356.2969 298.85,356.2969 C298.85,356.2969 479.35,356.2969 479.35,346.2969 " fill="none" style="stroke:#181818;stroke-width:1.0;"/><text fill="#000000" font-family="sans-serif" font-size="14" font-weight="bold" lengthAdjust="spacing" textLength="176" x="210.85" y="379.292">ROS parameter server</text></g><!--MD5=[df00c08cd854dd1b88de766977ab372e]
cluster NODE_GO_TO_POINT--><g id="cluster_NODE_GO_TO_POINT"><rect height="177" rx="2.5" ry="2.5" style="stroke:#181818;stroke-width:1.0;fill:none;" width="422" x="377.35" y="60.2969"/><rect height="10" style="stroke:#181818;stroke-width:1.0;fill:none;" width="15" x="779.35" y="65.2969"/><rect height="2" style="stroke:#181818;stroke-width:1.0;fill:none;" width="4" x="777.35" y="67.2969"/><rect height="2" style="stroke:#181818;stroke-width:1.0;fill:none;" width="4" x="777.35" y="71.2969"/><text fill="#000000" font-family="sans-serif" font-size="14" font-style="italic" lengthAdjust="spacing" textLength="104" x="536.35" y="94.292">«ROSPy node»</text><text fill="#000000" font-family="sans-serif" font-size="14" font-weight="bold" lengthAdjust="spacing" textLength="155" x="510.85" y="126.5889">go_to_point_service</text></g><!--MD5=[3d2d0cdc5a87e8d33dbbdf625e1e368a]
entity des_pos_x--><g id="elem_des_pos_x"><polygon fill="#F1F1F1" points="325.85,420.2969,335.85,410.2969,454.85,410.2969,454.85,462.5938,444.85,472.5938,325.85,472.5938,325.85,420.2969" style="stroke:#181818;stroke-width:0.5;"/><line style="stroke:#181818;stroke-width:0.5;" x1="444.85" x2="454.85" y1="420.2969" y2="410.2969"/><line style="stroke:#181818;stroke-width:0.5;" x1="325.85" x2="444.85" y1="420.2969" y2="420.2969"/><line style="stroke:#181818;stroke-width:0.5;" x1="444.85" x2="444.85" y1="420.2969" y2="472.5938"/><text fill="#000000" font-family="sans-serif" font-size="14" lengthAdjust="spacing" textLength="73" x="348.85" y="451.292">des_pos_x</text></g><!--MD5=[f8ee79e2f34056c410e55b7856b01451]
entity des_pos_y--><g id="elem_des_pos_y"><polygon fill="#F1F1F1" points="161.85,420.2969,171.85,410.2969,290.85,410.2969,290.85,462.5938,280.85,472.5938,161.85,472.5938,161.85,420.2969" style="stroke:#181818;stroke-width:0.5;"/><line style="stroke:#181818;stroke-width:0.5;" x1="280.85" x2="290.85" y1="420.2969" y2="410.2969"/><line style="stroke:#181818;stroke-width:0.5;" x1="161.85" x2="280.85" y1="420.2969" y2="420.2969"/><line style="stroke:#181818;stroke-width:0.5;" x1="280.85" x2="280.85" y1="420.2969" y2="472.5938"/><text fill="#000000" font-family="sans-serif" font-size="14" lengthAdjust="spacing" textLength="73" x="184.85" y="451.292">des_pos_y</text></g><!--MD5=[6b7c611f4394f9bfafc9e5b5a678ac73]
entity NODE_GO_TO_POINT.GOTOPOINT_SWITCH--><g id="elem_NODE_GO_TO_POINT.GOTOPOINT_SWITCH"><polygon fill="#F1F1F1" points="420.35,161.2969,430.35,151.2969,608.35,151.2969,608.35,203.5938,598.35,213.5938,420.35,213.5938,420.35,161.2969" style="stroke:#181818;stroke-width:0.5;"/><line style="stroke:#181818;stroke-width:0.5;" x1="598.35" x2="608.35" y1="161.2969" y2="151.2969"/><line style="stroke:#181818;stroke-width:0.5;" x1="420.35" x2="598.35" y1="161.2969" y2="161.2969"/><line style="stroke:#181818;stroke-width:0.5;" x1="598.35" x2="598.35" y1="161.2969" y2="213.5938"/><text fill="#000000" font-family="sans-serif" font-size="14" lengthAdjust="spacing" textLength="132" x="443.35" y="192.292">go_to_point_switch</text></g><!--MD5=[9cdd4e2256d6d2f0608115b42c9cffed]
entity NODE_GO_TO_POINT.READ_ODOM--><g id="elem_NODE_GO_TO_POINT.READ_ODOM"><polygon fill="#F1F1F1" points="643.85,161.2969,653.85,151.2969,774.85,151.2969,774.85,203.5938,764.85,213.5938,643.85,213.5938,643.85,161.2969" style="stroke:#181818;stroke-width:0.5;"/><line style="stroke:#181818;stroke-width:0.5;" x1="764.85" x2="774.85" y1="161.2969" y2="151.2969"/><line style="stroke:#181818;stroke-width:0.5;" x1="643.85" x2="764.85" y1="161.2969" y2="161.2969"/><line style="stroke:#181818;stroke-width:0.5;" x1="764.85" x2="764.85" y1="161.2969" y2="213.5938"/><text fill="#000000" font-family="sans-serif" font-size="14" lengthAdjust="spacing" textLength="75" x="666.85" y="192.292">clbk_odom</text></g><!--MD5=[a29493d5c3d449fd805f8038216f6f38]
entity TOPIC_VEL--><g id="elem_TOPIC_VEL"><ellipse cx="45.35" cy="441.2969" fill="#F1F1F1" rx="8" ry="8" style="stroke:#181818;stroke-width:0.5;"/><text fill="#000000" font-family="sans-serif" font-size="14" lengthAdjust="spacing" textLength="61" x="14.85" y="479.292">/cmd_vel</text></g><!--MD5=[9c0f7ecf381f88014a7ea481e5efb054]
entity TOPIC_ODOM--><g id="elem_TOPIC_ODOM"><ellipse cx="774.35" cy="441.2969" fill="#F1F1F1" rx="8" ry="8" style="stroke:#181818;stroke-width:0.5;"/><text fill="#000000" font-family="sans-serif" font-size="14" lengthAdjust="spacing" textLength="45" x="751.85" y="479.292">/odom</text></g><!--MD5=[e6d9a3d81fc487a20f0b2c2970d6073d]
entity SRV_GOTO_SWITCH--><g id="elem_SRV_GOTO_SWITCH"><ellipse cx="587.35" cy="441.2969" fill="#F1F1F1" rx="8" ry="8" style="stroke:#181818;stroke-width:0.5;"/><text fill="#000000" font-family="sans-serif" font-size="14" lengthAdjust="spacing" textLength="137" x="518.85" y="479.292">/go_to_point_switch</text></g><!--MD5=[9bdf0863ea8b3a9cff9085e23e341ae2]
reverse link NODE_GO_TO_POINT to PARAMETERS--><g id="link_NODE_GO_TO_POINT_PARAMETERS"><path d="M377.1917,198.7422 C377.1098,198.8878 377.0274,199.0343 376.9443,199.1816 C376.7783,199.4763 376.6098,199.7742 376.4391,200.0753 C370.9744,209.7112 363.1138,222.6331 353.1825,236.4994 C333.32,264.2319 305.175,295.7419 271.35,312.2969 C246.15,324.6369 166.1,301.4069 145.35,320.2969 C140.4375,324.7706 136.4463,329.9603 133.2239,335.622 C133.1232,335.7989 133.0233,335.9763 132.9241,336.1542 " fill="none" id="NODE_GO_TO_POINT-backto-PARAMETERS" style="stroke:#181818;stroke-width:1.0;"/><polygon fill="#181818" points="377.1917,198.7422,369.2953,204.6283,374.7421,203.101,376.2694,208.5477,377.1917,198.7422" style="stroke:#181818;stroke-width:1.0;"/><text fill="#000000" font-family="sans-serif" font-size="13" lengthAdjust="spacing" textLength="21" x="356.32" y="203.4338">get</text></g><!--MD5=[1a33593d04dbb53e66cf90ffc61b646d]
link NODE_GO_TO_POINT to TOPIC_VEL--><g id="link_NODE_GO_TO_POINT_TOPIC_VEL"><path codeLine="23" d="M377.0046,183.8498 C375.3494,183.9666 373.4656,184.1025 371.3691,184.2585 C362.9834,184.8822 351.1959,185.8257 337.0273,187.1383 C308.6903,189.7634 270.8294,193.865 231.6112,199.8381 C153.175,211.7844 69.31,231.2169 45.35,261.2969 C6,310.6969 29.13,394.4869 40.34,426.9169 " fill="none" id="NODE_GO_TO_POINT-to-TOPIC_VEL" style="stroke:#181818;stroke-width:1.0;"/><polygon fill="#181818" points="42.15,432.0169,42.9126,422.1976,40.4792,427.3043,35.3725,424.8709,42.15,432.0169" style="stroke:#181818;stroke-width:1.0;"/><path d="M50.35,266.2969 L50.35,307.2969 L258.35,307.2969 L258.35,276.2969 L248.35,266.2969 L50.35,266.2969 " fill="#FEFFDD" style="stroke:#181818;stroke-width:0.5;"/><path d="M248.35,266.2969 L248.35,276.2969 L258.35,276.2969 L248.35,266.2969 " fill="#FEFFDD" style="stroke:#181818;stroke-width:0.5;"/><text fill="#000000" font-family="sans-serif" font-size="13" lengthAdjust="spacing" textLength="171" x="64.35" y="291.3638">geometry_msgs/Twist.msg</text><text fill="#000000" font-family="sans-serif" font-size="13" lengthAdjust="spacing" textLength="24" x="353.3" y="172.3638">pub</text></g><!--MD5=[5cc843e29abf169b4dabc65559b8d294]
reverse link NODE_GO_TO_POINT.READ_ODOM to TOPIC_ODOM--><g id="link_NODE_GO_TO_POINT.READ_ODOM_TOPIC_ODOM"><path codeLine="27" d="M721.89,218.2669 C726.45,231.6269 731.44,247.0769 735.35,261.2969 C753.21,326.3169 768.24,406.4069 772.87,432.0169 " fill="none" id="NODE_GO_TO_POINT.READ_ODOM-backto-TOPIC_ODOM" style="stroke:#181818;stroke-width:1.0;"/><polygon fill="#181818" points="720.24,213.4369,719.3888,223.2489,721.8682,218.1643,726.9527,220.6438,720.24,213.4369" style="stroke:#181818;stroke-width:1.0;"/><path d="M752.35,266.2969 L752.35,307.2969 L954.35,307.2969 L954.35,276.2969 L944.35,266.2969 L752.35,266.2969 " fill="#FEFFDD" style="stroke:#181818;stroke-width:0.5;"/><path d="M944.35,266.2969 L944.35,276.2969 L954.35,276.2969 L944.35,266.2969 " fill="#FEFFDD" style="stroke:#181818;stroke-width:0.5;"/><text fill="#000000" font-family="sans-serif" font-size="13" lengthAdjust="spacing" textLength="165" x="766.35" y="291.3638">nav_msgs/Odometry.msg</text><text fill="#000000" font-family="sans-serif" font-size="13" lengthAdjust="spacing" textLength="23" x="687.7063" y="241.7969">sub</text></g><!--MD5=[09852e61db4ae9e5c2e19dca149f57fc]
link NODE_GO_TO_POINT.GOTOPOINT_SWITCH to SRV_GOTO_SWITCH--><g id="link_NODE_GO_TO_POINT.GOTOPOINT_SWITCH_SRV_GOTO_SWITCH"><path codeLine="31" d="M522.71,213.5569 C529.96,239.7069 540.76,278.5269 550.35,312.2969 C562.29,354.3169 576.75,404.0069 583.51,427.1769 " fill="none" id="NODE_GO_TO_POINT.GOTOPOINT_SWITCH-to-SRV_GOTO_SWITCH" style="stroke:#181818;stroke-width:1.0;"/><polygon fill="#181818" points="584.99,432.2169,586.31,422.4569,583.59,427.4169,578.63,424.6969,584.99,432.2169" style="stroke:#181818;stroke-width:1.0;"/><path d="M555.35,266.2969 L555.35,307.2969 L722.35,307.2969 L722.35,276.2969 L712.35,266.2969 L555.35,266.2969 " fill="#FEFFDD" style="stroke:#181818;stroke-width:0.5;"/><path d="M712.35,266.2969 L712.35,276.2969 L722.35,276.2969 L712.35,266.2969 " fill="#FEFFDD" style="stroke:#181818;stroke-width:0.5;"/><text fill="#000000" font-family="sans-serif" font-size="13" lengthAdjust="spacing" textLength="130" x="569.35" y="291.3638">std_srvs/SetBool.srv</text><text fill="#000000" font-family="sans-serif" font-size="13" lengthAdjust="spacing" textLength="19" x="494.1391" y="241.6465">srv</text></g><!--MD5=[01d51bef699aead287f771e2caba7d06]
@startuml

''' INFOS
title NODE go_to_point
skinparam Padding 8
allow_mixing


''' COMPONENTS
database "ROS parameter server" as PARAMETERS {
	node "des_pos_x"
	node "des_pos_y"
}

component "go_to_point_service" <<ROSPy node>> as NODE_GO_TO_POINT {
	node "go_to_point_switch" as NODE_GO_TO_POINT.GOTOPOINT_SWITCH
	node "clbk_odom" as NODE_GO_TO_POINT.READ_ODOM
	
}

NODE_GO_TO_POINT "get" <- - PARAMETERS

() "/cmd_vel" as TOPIC_VEL
NODE_GO_TO_POINT "pub" - -> TOPIC_VEL
note on link: geometry_msgs/Twist.msg

() "/odom" as TOPIC_ODOM
NODE_GO_TO_POINT.READ_ODOM "sub" <- - TOPIC_ODOM
note on link: nav_msgs/Odometry.msg

() "/go_to_point_switch" as SRV_GOTO_SWITCH
NODE_GO_TO_POINT.GOTOPOINT_SWITCH "srv" - -> SRV_GOTO_SWITCH
note on link: std_srvs/SetBool.srv

@enduml

@startuml

title NODE go_to_point
skinparam Padding 8
allow_mixing


database "ROS parameter server" as PARAMETERS {
	node "des_pos_x"
	node "des_pos_y"
}

component "go_to_point_service" <<ROSPy node>> as NODE_GO_TO_POINT {
	node "go_to_point_switch" as NODE_GO_TO_POINT.GOTOPOINT_SWITCH
	node "clbk_odom" as NODE_GO_TO_POINT.READ_ODOM
	
}

NODE_GO_TO_POINT "get" <- - PARAMETERS

() "/cmd_vel" as TOPIC_VEL
NODE_GO_TO_POINT "pub" - -> TOPIC_VEL
note on link: geometry_msgs/Twist.msg

() "/odom" as TOPIC_ODOM
NODE_GO_TO_POINT.READ_ODOM "sub" <- - TOPIC_ODOM
note on link: nav_msgs/Odometry.msg

() "/go_to_point_switch" as SRV_GOTO_SWITCH
NODE_GO_TO_POINT.GOTOPOINT_SWITCH "srv" - -> SRV_GOTO_SWITCH
note on link: std_srvs/SetBool.srv

@enduml

PlantUML version 1.2022.6(Tue Jun 21 17:34:49 UTC 2022)
(GPL source distribution)
Java Runtime: Java(TM) SE Runtime Environment
JVM: Java HotSpot(TM) 64-Bit Server VM
Default Encoding: UTF-8
Language: en
Country: US
--></g></svg>