<?xml version="1.0" encoding="UTF-8" standalone="no"?><svg xmlns="http://www.w3.org/2000/svg" xmlns:xlink="http://www.w3.org/1999/xlink" contentStyleType="text/css" height="623px" preserveAspectRatio="none" style="width:1182px;height:623px;background:#FFFFFF;" version="1.1" viewBox="0 0 1182 623" width="1182px" zoomAndPan="magnify"><defs/><g><rect height="42.2969" style="stroke:#00000000;stroke-width:1.0;fill:none;" width="344" x="412" y="5"/><text fill="#000000" font-family="sans-serif" font-size="14" font-weight="bold" lengthAdjust="spacing" textLength="318" x="425" y="30.9951">robocluedo_rosplan KB_INTERFACE node</text><!--MD5=[7432bb33f23491b5805932b6a51580fb]
entity KB_INTERFACE--><g id="elem_KB_INTERFACE"><rect fill="#F1F1F1" height="94.5938" rx="2.5" ry="2.5" style="stroke:#181818;stroke-width:0.5;" width="139" x="628.5" y="60.2969"/><rect fill="#F1F1F1" height="10" style="stroke:#181818;stroke-width:0.5;" width="15" x="747.5" y="65.2969"/><rect fill="#F1F1F1" height="2" style="stroke:#181818;stroke-width:0.5;" width="4" x="745.5" y="67.2969"/><rect fill="#F1F1F1" height="2" style="stroke:#181818;stroke-width:0.5;" width="4" x="745.5" y="71.2969"/><text fill="#000000" font-family="sans-serif" font-size="14" font-style="italic" lengthAdjust="spacing" textLength="54" x="666" y="101.292">«node»</text><text fill="#000000" font-family="sans-serif" font-size="14" lengthAdjust="spacing" textLength="83" x="651.5" y="133.5889">KB interface</text></g><!--MD5=[bd16466989957d0d94b613fbf0f829dc]
class TOOLS--><g id="elem_TOOLS"><rect codeLine="11" fill="#F1F1F1" height="155.1875" id="TOOLS" rx="2.5" ry="2.5" style="stroke:#181818;stroke-width:0.5;" width="543" x="79.5" y="266.2969"/><ellipse cx="309.75" cy="287.4453" fill="#ADD1B2" rx="11" ry="11" style="stroke:#181818;stroke-width:1.0;"/><path d="M312.7188,293.0859 Q312.1406,293.3828 311.5,293.5313 Q310.8594,293.6797 310.1563,293.6797 Q307.6563,293.6797 306.3359,292.0313 Q305.0156,290.3828 305.0156,287.2578 Q305.0156,284.1328 306.3359,282.4766 Q307.6563,280.8203 310.1563,280.8203 Q310.8594,280.8203 311.5078,280.9766 Q312.1563,281.1328 312.7188,281.4297 L312.7188,284.1484 Q312.0938,283.5703 311.5,283.2969 Q310.9063,283.0234 310.2813,283.0234 Q308.9375,283.0234 308.25,284.0938 Q307.5625,285.1641 307.5625,287.2578 Q307.5625,289.3516 308.25,290.4219 Q308.9375,291.4922 310.2813,291.4922 Q310.9063,291.4922 311.5,291.2188 Q312.0938,290.9453 312.7188,290.3672 L312.7188,293.0859 Z " fill="#000000"/><text fill="#000000" font-family="sans-serif" font-size="14" lengthAdjust="spacing" textLength="58" x="338.25" y="292.292">kb_tools</text><line style="stroke:#181818;stroke-width:0.5;" x1="80.5" x2="621.5" y1="308.5938" y2="308.5938"/><line style="stroke:#181818;stroke-width:0.5;" x1="80.5" x2="621.5" y1="316.5938" y2="316.5938"/><ellipse cx="90.5" cy="327.5938" fill="#84BE84" rx="3" ry="3" style="stroke:#038048;stroke-width:1.0;"/><text fill="#000000" font-family="sans-serif" font-size="14" lengthAdjust="spacing" textLength="395" x="107.5" y="341.5889">get_predicate(string pname, map&lt;keyvalue&gt; args) : bool</text><ellipse cx="90.5" cy="359.8906" fill="#84BE84" rx="3" ry="3" style="stroke:#038048;stroke-width:1.0;"/><text fill="#000000" font-family="sans-serif" font-size="14" lengthAdjust="spacing" textLength="501" x="107.5" y="373.8857">set_predicate(string pname, map&lt;keyvalue&gt; args, bool newvalue) : bool</text><ellipse cx="90.5" cy="392.1875" fill="#84BE84" rx="3" ry="3" style="stroke:#038048;stroke-width:1.0;"/><text fill="#000000" font-family="sans-serif" font-size="14" lengthAdjust="spacing" textLength="465" x="107.5" y="406.1826">set_goal(string pname, map&lt;keyvalue&gt; args, bool newvalue) : bool</text></g><!--MD5=[988f27743aae5c0ae640882f424acb33]
entity SRV_REPLAN--><g id="elem_SRV_REPLAN"><ellipse cx="698" cy="343.7969" fill="#F1F1F1" rx="8" ry="8" style="stroke:#181818;stroke-width:0.5;"/><text fill="#000000" font-family="sans-serif" font-size="14" lengthAdjust="spacing" textLength="48" x="674" y="381.792">/replan</text></g><!--MD5=[7ee91087643798f90fd57e8454d6279a]
entity SRV_UPDATE_GOAL--><g id="elem_SRV_UPDATE_GOAL"><ellipse cx="896" cy="343.7969" fill="#F1F1F1" rx="8" ry="8" style="stroke:#181818;stroke-width:0.5;"/><text fill="#000000" font-family="sans-serif" font-size="14" lengthAdjust="spacing" textLength="90" x="851" y="381.792">/update_goal</text></g><!--MD5=[c601e9962b697d328cec0a57ddc55295]
entity SRV_KB_UPDATE--><g id="elem_SRV_KB_UPDATE"><ellipse cx="143" cy="577.2969" fill="#F1F1F1" rx="8" ry="8" style="stroke:#181818;stroke-width:0.5;"/><text fill="#000000" font-family="sans-serif" font-size="14" lengthAdjust="spacing" textLength="274" x="6" y="615.292">/rosplan_knowledge_base/update_array</text></g><!--MD5=[8cd373876d6b622e4e1028111b915192]
entity SRV_QUERY--><g id="elem_SRV_QUERY"><ellipse cx="559" cy="577.2969" fill="#F1F1F1" rx="8" ry="8" style="stroke:#181818;stroke-width:0.5;"/><text fill="#000000" font-family="sans-serif" font-size="14" lengthAdjust="spacing" textLength="266" x="426" y="615.292">/rosplan_knowledge_base/query_state</text></g><!--MD5=[5468a8816e1fba018c8c9e931197b22f]
reverse link KB_INTERFACE to TOOLS--><g id="link_KB_INTERFACE_TOOLS"><path codeLine="17" d="M612.19,166.6669 C567.64,196.7069 512.61,233.8069 464.58,266.2069 " fill="none" id="KB_INTERFACE-backto-TOOLS" style="stroke:#181818;stroke-width:1.0;"/><polygon fill="none" points="608.53,160.6869,629.03,155.3069,616.36,172.2969,608.53,160.6869" style="stroke:#181818;stroke-width:1.0;"/></g><!--MD5=[389a9da796c98382e48ebf05111c2a17]
link KB_INTERFACE to SRV_REPLAN--><g id="link_KB_INTERFACE_SRV_REPLAN"><path codeLine="20" d="M695.88,155.3069 C695.52,165.2069 695.19,175.5969 695,185.2969 C693.95,238.6469 696.25,302.1669 697.39,329.3669 " fill="none" id="KB_INTERFACE-to-SRV_REPLAN" style="stroke:#181818;stroke-width:1.0;"/><polygon fill="#181818" points="697.62,334.5969,701.2298,325.4334,697.4053,329.6015,693.2372,325.7769,697.62,334.5969" style="stroke:#181818;stroke-width:1.0;"/><path d="M700,190.2969 L700,231.2969 L848,231.2969 L848,200.2969 L838,190.2969 L700,190.2969 " fill="#FEFFDD" style="stroke:#181818;stroke-width:0.5;"/><path d="M838,190.2969 L838,200.2969 L848,200.2969 L838,190.2969 " fill="#FEFFDD" style="stroke:#181818;stroke-width:0.5;"/><text fill="#000000" font-family="sans-serif" font-size="13" lengthAdjust="spacing" textLength="111" x="714" y="215.3638">std_msgs::Empty</text><text fill="#000000" font-family="sans-serif" font-size="13" lengthAdjust="spacing" textLength="19" x="666.4888" y="183.086">srv</text></g><!--MD5=[85fd716f2e794869e16622bf000671ae]
link KB_INTERFACE to SRV_UPDATE_GOAL--><g id="link_KB_INTERFACE_SRV_UPDATE_GOAL"><path codeLine="24" d="M767.73,127.3669 C799.24,139.1169 834.39,157.4869 857,185.2969 C892.32,228.7369 896.3,299.6569 896.32,329.2069 " fill="none" id="KB_INTERFACE-to-SRV_UPDATE_GOAL" style="stroke:#181818;stroke-width:1.0;"/><polygon fill="#181818" points="896.28,334.5469,900.357,325.5815,896.3229,329.5471,892.3573,325.5129,896.28,334.5469" style="stroke:#181818;stroke-width:1.0;"/><path d="M887,190.2969 L887,231.2969 L1175,231.2969 L1175,200.2969 L1165,190.2969 L887,190.2969 " fill="#FEFFDD" style="stroke:#181818;stroke-width:0.5;"/><path d="M1165,190.2969 L1165,200.2969 L1175,200.2969 L1165,190.2969 " fill="#FEFFDD" style="stroke:#181818;stroke-width:0.5;"/><text fill="#000000" font-family="sans-serif" font-size="13" lengthAdjust="spacing" textLength="251" x="901" y="215.3638">robocluedo_rosplan_msgs::UpdateGoal</text><text fill="#000000" font-family="sans-serif" font-size="13" lengthAdjust="spacing" textLength="19" x="783.4989" y="116.8203">srv</text></g><!--MD5=[9c19015daee8a16ef4b2996d942b3ca6]
reverse link TOOLS to SRV_KB_UPDATE--><g id="link_TOOLS_SRV_KB_UPDATE"><path codeLine="40" d="M160.55,425.2769 C152.77,433.1869 145.82,441.8369 140,451.2969 C116.56,489.3769 132.79,547.1169 140.02,568.2169 " fill="none" id="TOOLS-backto-SRV_KB_UPDATE" style="stroke:#181818;stroke-width:1.0;"/><polygon fill="#181818" points="164.43,421.4569,155.2024,424.8994,160.8589,424.9565,160.8018,430.6131,164.43,421.4569" style="stroke:#181818;stroke-width:1.0;"/><path d="M145,456.2969 L145,497.2969 L511,497.2969 L511,466.2969 L501,456.2969 L145,456.2969 " fill="#FEFFDD" style="stroke:#181818;stroke-width:0.5;"/><path d="M501,456.2969 L501,466.2969 L511,466.2969 L501,456.2969 " fill="#FEFFDD" style="stroke:#181818;stroke-width:0.5;"/><text fill="#000000" font-family="sans-serif" font-size="13" lengthAdjust="spacing" textLength="329" x="159" y="481.3638">rosplan_knowledge_msgs/KnowledgeUpdateService</text><text fill="#000000" font-family="sans-serif" font-size="13" lengthAdjust="spacing" textLength="10" x="129.2795" y="449.5274">cl</text></g><!--MD5=[7d85df2867733b6bcdf1ed842fd02159]
reverse link TOOLS to SRV_QUERY--><g id="link_TOOLS_SRV_QUERY"><path codeLine="44" d="M495.54,424.9769 C504.49,433.1369 512.79,441.9169 520,451.2969 C548.54,488.4269 556.4,546.7369 558.38,568.1069 " fill="none" id="TOOLS-backto-SRV_QUERY" style="stroke:#181818;stroke-width:1.0;"/><polygon fill="#181818" points="491.66,421.5269,495.7101,430.5045,495.3899,424.8567,501.0377,424.5366,491.66,421.5269" style="stroke:#181818;stroke-width:1.0;"/><path d="M551,456.2969 L551,497.2969 L908,497.2969 L908,466.2969 L898,456.2969 L551,456.2969 " fill="#FEFFDD" style="stroke:#181818;stroke-width:0.5;"/><path d="M898,456.2969 L898,466.2969 L908,466.2969 L898,456.2969 " fill="#FEFFDD" style="stroke:#181818;stroke-width:0.5;"/><text fill="#000000" font-family="sans-serif" font-size="13" lengthAdjust="spacing" textLength="320" x="565" y="481.3638">rosplan_knowledge_msgs/KnowledgeQueryService</text><text fill="#000000" font-family="sans-serif" font-size="13" lengthAdjust="spacing" textLength="10" x="512.8652" y="449.6034">cl</text></g><!--MD5=[d5f5949ff8343b7443ebbc16e888f2ad]
@startuml

''' INFOS
title robocluedo_rosplan KB_INTERFACE node
skinparam Padding 8
allow_mixing


''' COMPONENTS
component "KB interface" <<node>> as KB_INTERFACE

class "kb_tools" as TOOLS {
+ get_predicate(string pname, map<keyvalue> args) : bool
+ set_predicate(string pname, map<keyvalue> args, bool newvalue) : bool
' + get_goal(string pname, map<keyvalue> args, bool newvalue) : bool
+ set_goal(string pname, map<keyvalue> args, bool newvalue) : bool
}
KB_INTERFACE <|- - TOOLS

() "/replan" as SRV_REPLAN
KB_INTERFACE "srv" - -> SRV_REPLAN
note on link: std_msgs::Empty

() "/update_goal" as SRV_UPDATE_GOAL
KB_INTERFACE "srv" - -> SRV_UPDATE_GOAL
note on link: robocluedo_rosplan_msgs::UpdateGoal


''' SERVICES
/'
() "srv" as SRV_
KB_INTERFACE "srv" <- - "cl" SRV_
note on link: 
'/

' () "/rosplan_knowledge_base/clear" as SRV_KB_CLEAR
' KB "srv" - -> "cl" SRV_KB_CLEAR
' note on link: std_srvs::Empty

() "/rosplan_knowledge_base/update_array" as SRV_KB_UPDATE
TOOLS "cl" <- - SRV_KB_UPDATE
note on link: rosplan_knowledge_msgs/KnowledgeUpdateService

() "/rosplan_knowledge_base/query_state" as SRV_QUERY
TOOLS "cl" <- - SRV_QUERY
note on link: rosplan_knowledge_msgs/KnowledgeQueryService


''' CONNECTIONS
' ...

@enduml

@startuml

title robocluedo_rosplan KB_INTERFACE node
skinparam Padding 8
allow_mixing


component "KB interface" <<node>> as KB_INTERFACE

class "kb_tools" as TOOLS {
+ get_predicate(string pname, map<keyvalue> args) : bool
+ set_predicate(string pname, map<keyvalue> args, bool newvalue) : bool
+ set_goal(string pname, map<keyvalue> args, bool newvalue) : bool
}
KB_INTERFACE <|- - TOOLS

() "/replan" as SRV_REPLAN
KB_INTERFACE "srv" - -> SRV_REPLAN
note on link: std_msgs::Empty

() "/update_goal" as SRV_UPDATE_GOAL
KB_INTERFACE "srv" - -> SRV_UPDATE_GOAL
note on link: robocluedo_rosplan_msgs::UpdateGoal




() "/rosplan_knowledge_base/update_array" as SRV_KB_UPDATE
TOOLS "cl" <- - SRV_KB_UPDATE
note on link: rosplan_knowledge_msgs/KnowledgeUpdateService

() "/rosplan_knowledge_base/query_state" as SRV_QUERY
TOOLS "cl" <- - SRV_QUERY
note on link: rosplan_knowledge_msgs/KnowledgeQueryService



@enduml

PlantUML version 1.2022.6(Tue Jun 21 17:34:49 UTC 2022)
(GPL source distribution)
Java Runtime: Java(TM) SE Runtime Environment
JVM: Java HotSpot(TM) 64-Bit Server VM
Default Encoding: UTF-8
Language: en
Country: US
--></g></svg>