<?xml version="1.0" encoding="UTF-8" standalone="no"?><svg xmlns="http://www.w3.org/2000/svg" xmlns:xlink="http://www.w3.org/1999/xlink" contentStyleType="text/css" height="357px" preserveAspectRatio="none" style="width:1078px;height:357px;background:#FFFFFF;" version="1.1" viewBox="0 0 1078 357" width="1078px" zoomAndPan="magnify"><defs/><g><rect height="42.2969" style="stroke:#00000000;stroke-width:1.0;fill:none;" width="168" x="448" y="5"/><text fill="#000000" font-family="sans-serif" font-size="14" font-weight="bold" lengthAdjust="spacing" textLength="142" x="461" y="30.9951">(ACTION) move_to</text><!--MD5=[ee80eaceb38a9d7ac48bc75c9505fbe0]
entity ACT_MOVE_TO--><g id="elem_ACT_MOVE_TO"><rect fill="#F1F1F1" height="94.5938" rx="2.5" ry="2.5" style="stroke:#181818;stroke-width:0.5;" width="158" x="575" y="60.2969"/><rect fill="#F1F1F1" height="10" style="stroke:#181818;stroke-width:0.5;" width="15" x="713" y="65.2969"/><rect fill="#F1F1F1" height="2" style="stroke:#181818;stroke-width:0.5;" width="4" x="711" y="67.2969"/><rect fill="#F1F1F1" height="2" style="stroke:#181818;stroke-width:0.5;" width="4" x="711" y="71.2969"/><text fill="#000000" font-family="sans-serif" font-size="14" font-style="italic" lengthAdjust="spacing" textLength="102" x="598" y="101.292">«PDDL action»</text><text fill="#000000" font-family="sans-serif" font-size="14" lengthAdjust="spacing" textLength="57" x="620.5" y="133.5889">move-to</text></g><!--MD5=[e293cfac2fb5aa10ca88722984eea57e]
entity TOPIC_FEEDBACK_MANAGER--><g id="elem_TOPIC_FEEDBACK_MANAGER"><ellipse cx="107" cy="311.2969" fill="#F1F1F1" rx="8" ry="8" style="stroke:#181818;stroke-width:0.5;"/><text fill="#000000" font-family="sans-serif" font-size="14" lengthAdjust="spacing" textLength="202" x="6" y="349.292">/robocluedo/action_feedback</text></g><!--MD5=[34c22eff6d64aeaae478320b55e782f7]
entity SRV_NAV--><g id="elem_SRV_NAV"><ellipse cx="466" cy="311.2969" fill="#F1F1F1" rx="8" ry="8" style="stroke:#181818;stroke-width:0.5;"/><text fill="#000000" font-family="sans-serif" font-size="14" lengthAdjust="spacing" textLength="235" x="348.5" y="349.292">/robocluedo/navigation_command</text></g><!--MD5=[82817458b664c54c40293f09e7dd8da8]
entity DISPATCH--><g id="elem_DISPATCH"><ellipse cx="842" cy="311.2969" fill="#F1F1F1" rx="8" ry="8" style="stroke:#181818;stroke-width:0.5;"/><text fill="#000000" font-family="sans-serif" font-size="14" lengthAdjust="spacing" textLength="105" x="789.5" y="349.292">action dispatch</text></g><!--MD5=[14ec68510050050bc5f07de05681fa1b]
entity DISP_FEEDBACK--><g id="elem_DISP_FEEDBACK"><ellipse cx="1016" cy="311.2969" fill="#F1F1F1" rx="8" ry="8" style="stroke:#181818;stroke-width:0.5;"/><text fill="#000000" font-family="sans-serif" font-size="14" lengthAdjust="spacing" textLength="110" x="961" y="349.292">action feedback</text></g><!--MD5=[d56990833df2b574f9bb06677ce2aefd]
link ACT_MOVE_TO to TOPIC_FEEDBACK_MANAGER--><g id="link_ACT_MOVE_TO_TOPIC_FEEDBACK_MANAGER"><path codeLine="14" d="M574.84,108.8369 C442.16,110.6769 183.37,122.4669 122,185.2969 C92.34,215.6569 99.05,271.8869 104.01,297.2669 " fill="none" id="ACT_MOVE_TO-to-TOPIC_FEEDBACK_MANAGER" style="stroke:#181818;stroke-width:1.0;"/><polygon fill="#181818" points="105.03,302.1869,107.1171,292.5617,104.0137,297.2913,99.2841,294.1878,105.03,302.1869" style="stroke:#181818;stroke-width:1.0;"/><path d="M127,190.2969 L127,231.2969 L436,231.2969 L436,200.2969 L426,190.2969 L127,190.2969 " fill="#FEFFDD" style="stroke:#181818;stroke-width:0.5;"/><path d="M426,190.2969 L426,200.2969 L436,200.2969 L426,190.2969 " fill="#FEFFDD" style="stroke:#181818;stroke-width:0.5;"/><text fill="#000000" font-family="sans-serif" font-size="13" lengthAdjust="spacing" textLength="272" x="141" y="215.3638">robocluedo_rosplan_msgs/ActionFeedback</text><text fill="#000000" font-family="sans-serif" font-size="13" lengthAdjust="spacing" textLength="24" x="534.9382" y="96.773">pub</text></g><!--MD5=[9d9aa48c11423ee8a76bbefcabd4ab7a]
link ACT_MOVE_TO to SRV_NAV--><g id="link_ACT_MOVE_TO_SRV_NAV"><path codeLine="18" d="M574.8,119.3369 C534.15,129.2069 488.02,148.3169 463,185.2969 C439.6,219.8769 453.05,273.0469 461.19,297.3569 " fill="none" id="ACT_MOVE_TO-to-SRV_NAV" style="stroke:#181818;stroke-width:1.0;"/><polygon fill="#181818" points="462.83,302.0969,463.6548,292.2826,461.1891,297.3738,456.0979,294.9081,462.83,302.0969" style="stroke:#181818;stroke-width:1.0;"/><path d="M468,190.2969 L468,231.2969 L811,231.2969 L811,200.2969 L801,190.2969 L468,190.2969 " fill="#FEFFDD" style="stroke:#181818;stroke-width:0.5;"/><path d="M801,190.2969 L801,200.2969 L811,200.2969 L801,190.2969 " fill="#FEFFDD" style="stroke:#181818;stroke-width:0.5;"/><text fill="#000000" font-family="sans-serif" font-size="13" lengthAdjust="spacing" textLength="306" x="482" y="215.3638">robocluedo_rosplan_msgs/NavigationCommand</text><text fill="#000000" font-family="sans-serif" font-size="13" lengthAdjust="spacing" textLength="19" x="540.0942" y="141.58">srv</text></g><!--MD5=[4f44ef3e626037bc016868f071508928]
reverse link ACT_MOVE_TO to DISPATCH--><g id="link_ACT_MOVE_TO_DISPATCH"><path codeLine="22" d="M738,129.7369 C768.15,141.3269 799.68,158.9369 820,185.2969 C847.84,221.4269 845.04,280.8569 842.95,302.2869 " fill="none" id="ACT_MOVE_TO-backto-DISPATCH" style="stroke:#181818;stroke-width:1.0;stroke-dasharray:7.0,7.0;"/><polygon fill="#181818" points="733.17,127.9269,740.1855,134.8394,737.8499,129.6872,743.002,127.3516,733.17,127.9269" style="stroke:#181818;stroke-width:1.0;"/></g><!--MD5=[e85822cfd552d0a211653955d2a2e32f]
link ACT_MOVE_TO to DISP_FEEDBACK--><g id="link_ACT_MOVE_TO_DISP_FEEDBACK"><path codeLine="24" d="M733.19,132.5969 C771.51,145.6469 817.44,163.5969 856,185.2969 C916.36,219.2669 978.32,274.7269 1003.87,298.6769 " fill="none" id="ACT_MOVE_TO-to-DISP_FEEDBACK" style="stroke:#181818;stroke-width:1.0;stroke-dasharray:7.0,7.0;"/><polygon fill="#181818" points="1007.65,302.2469,1003.8377,293.1658,1004.009,298.8201,998.3547,298.9914,1007.65,302.2469" style="stroke:#181818;stroke-width:1.0;"/></g><!--MD5=[ab028fc656827938d2a4556688300c73]
@startuml

''' DIAGRAM INFOS
title "(ACTION) move_to"
skinparam Padding 8
allow_mixing


''' COMPONENTS
component "move-to" <<PDDL action>> as ACT_MOVE_TO


''' LINKS
() "/robocluedo/action_feedback" as TOPIC_FEEDBACK_MANAGER
ACT_MOVE_TO "pub" - -> TOPIC_FEEDBACK_MANAGER
note on link: robocluedo_rosplan_msgs/ActionFeedback

() "/robocluedo/navigation_command" as SRV_NAV
ACT_MOVE_TO "srv" - -> SRV_NAV
note on link: robocluedo_rosplan_msgs/NavigationCommand

() "action dispatch" as DISPATCH
ACT_MOVE_TO <.. DISPATCH
() "action feedback" as DISP_FEEDBACK 
ACT_MOVE_TO ..> DISP_FEEDBACK

@enduml

@startuml

title "(ACTION) move_to"
skinparam Padding 8
allow_mixing


component "move-to" <<PDDL action>> as ACT_MOVE_TO


() "/robocluedo/action_feedback" as TOPIC_FEEDBACK_MANAGER
ACT_MOVE_TO "pub" - -> TOPIC_FEEDBACK_MANAGER
note on link: robocluedo_rosplan_msgs/ActionFeedback

() "/robocluedo/navigation_command" as SRV_NAV
ACT_MOVE_TO "srv" - -> SRV_NAV
note on link: robocluedo_rosplan_msgs/NavigationCommand

() "action dispatch" as DISPATCH
ACT_MOVE_TO <.. DISPATCH
() "action feedback" as DISP_FEEDBACK 
ACT_MOVE_TO ..> DISP_FEEDBACK

@enduml

PlantUML version 1.2022.6(Tue Jun 21 17:34:49 UTC 2022)
(GPL source distribution)
Java Runtime: Java(TM) SE Runtime Environment
JVM: Java HotSpot(TM) 64-Bit Server VM
Default Encoding: UTF-8
Language: en
Country: US
--></g></svg>