<?xml version="1.0" encoding="UTF-8" standalone="no"?><svg xmlns="http://www.w3.org/2000/svg" xmlns:xlink="http://www.w3.org/1999/xlink" contentStyleType="text/css" height="1110px" preserveAspectRatio="none" style="width:1156px;height:1110px;background:#FFFFFF;" version="1.1" viewBox="0 0 1156 1110" width="1156px" zoomAndPan="magnify"><defs/><g><rect height="26.2969" style="stroke:#00000000;stroke-width:1.0;fill:none;" width="440" x="354.25" y="10"/><text fill="#000000" font-family="sans-serif" font-size="14" font-weight="bold" lengthAdjust="spacing" textLength="430" x="359.25" y="27.9951">RCL#3 move_base navigation - node temporal diagram</text><line style="stroke:#181818;stroke-width:0.5;stroke-dasharray:5.0,5.0;" x1="46" x2="46" y1="73.5938" y2="1075.2422"/><line style="stroke:#181818;stroke-width:0.5;stroke-dasharray:5.0,5.0;" x1="249.5" x2="249.5" y1="73.5938" y2="1075.2422"/><line style="stroke:#181818;stroke-width:0.5;stroke-dasharray:5.0,5.0;" x1="508.5" x2="508.5" y1="73.5938" y2="1075.2422"/><line style="stroke:#181818;stroke-width:0.5;stroke-dasharray:5.0,5.0;" x1="705.5" x2="705.5" y1="73.5938" y2="1075.2422"/><line style="stroke:#181818;stroke-width:0.5;stroke-dasharray:5.0,5.0;" x1="861.5" x2="861.5" y1="73.5938" y2="1075.2422"/><line style="stroke:#181818;stroke-width:0.5;stroke-dasharray:5.0,5.0;" x1="969.5" x2="969.5" y1="73.5938" y2="1075.2422"/><line style="stroke:#181818;stroke-width:0.5;stroke-dasharray:5.0,5.0;" x1="1088.5" x2="1088.5" y1="73.5938" y2="1075.2422"/><rect fill="#E2E2F0" height="30.2969" rx="2.5" ry="2.5" style="stroke:#181818;stroke-width:0.5;" width="82" x="5" y="42.2969"/><text fill="#000000" font-family="sans-serif" font-size="14" lengthAdjust="spacing" textLength="68" x="12" y="62.292">MOVE_TO</text><rect fill="#E2E2F0" height="30.2969" rx="2.5" ry="2.5" style="stroke:#181818;stroke-width:0.5;" width="82" x="5" y="1074.2422"/><text fill="#000000" font-family="sans-serif" font-size="14" lengthAdjust="spacing" textLength="68" x="12" y="1094.2373">MOVE_TO</text><rect fill="#E2E2F0" height="30.2969" rx="2.5" ry="2.5" style="stroke:#181818;stroke-width:0.5;" width="137" x="181.5" y="42.2969"/><text fill="#000000" font-family="sans-serif" font-size="14" lengthAdjust="spacing" textLength="123" x="188.5" y="62.292">NAVIGATION_UNIT</text><rect fill="#E2E2F0" height="30.2969" rx="2.5" ry="2.5" style="stroke:#181818;stroke-width:0.5;" width="137" x="181.5" y="1074.2422"/><text fill="#000000" font-family="sans-serif" font-size="14" lengthAdjust="spacing" textLength="123" x="188.5" y="1094.2373">NAVIGATION_UNIT</text><rect fill="#E2E2F0" height="30.2969" rx="2.5" ry="2.5" style="stroke:#181818;stroke-width:0.5;" width="175" x="421.5" y="42.2969"/><text fill="#000000" font-family="sans-serif" font-size="14" lengthAdjust="spacing" textLength="161" x="428.5" y="62.292">NAVIGATION_MANAGER</text><rect fill="#E2E2F0" height="30.2969" rx="2.5" ry="2.5" style="stroke:#181818;stroke-width:0.5;" width="175" x="421.5" y="1074.2422"/><text fill="#000000" font-family="sans-serif" font-size="14" lengthAdjust="spacing" textLength="161" x="428.5" y="1094.2373">NAVIGATION_MANAGER</text><rect fill="#E2E2F0" height="30.2969" rx="2.5" ry="2.5" style="stroke:#181818;stroke-width:0.5;" width="199" x="606.5" y="42.2969"/><text fill="#000000" font-family="sans-serif" font-size="14" lengthAdjust="spacing" textLength="185" x="613.5" y="62.292">NAVIGATION_CONTROLLER</text><rect fill="#E2E2F0" height="30.2969" rx="2.5" ry="2.5" style="stroke:#181818;stroke-width:0.5;" width="199" x="606.5" y="1074.2422"/><text fill="#000000" font-family="sans-serif" font-size="14" lengthAdjust="spacing" textLength="185" x="613.5" y="1094.2373">NAVIGATION_CONTROLLER</text><rect fill="#E2E2F0" height="30.2969" rx="2.5" ry="2.5" style="stroke:#181818;stroke-width:0.5;" width="92" x="815.5" y="42.2969"/><text fill="#000000" font-family="sans-serif" font-size="14" lengthAdjust="spacing" textLength="78" x="822.5" y="62.292">BUGM_NAV</text><rect fill="#E2E2F0" height="30.2969" rx="2.5" ry="2.5" style="stroke:#181818;stroke-width:0.5;" width="92" x="815.5" y="1074.2422"/><text fill="#000000" font-family="sans-serif" font-size="14" lengthAdjust="spacing" textLength="78" x="822.5" y="1094.2373">BUGM_NAV</text><rect fill="#E2E2F0" height="30.2969" rx="2.5" ry="2.5" style="stroke:#181818;stroke-width:0.5;" width="105" x="917.5" y="42.2969"/><text fill="#000000" font-family="sans-serif" font-size="14" lengthAdjust="spacing" textLength="91" x="924.5" y="62.292">GOTO_POINT</text><rect fill="#E2E2F0" height="30.2969" rx="2.5" ry="2.5" style="stroke:#181818;stroke-width:0.5;" width="105" x="917.5" y="1074.2422"/><text fill="#000000" font-family="sans-serif" font-size="14" lengthAdjust="spacing" textLength="91" x="924.5" y="1094.2373">GOTO_POINT</text><rect fill="#E2E2F0" height="30.2969" rx="2.5" ry="2.5" style="stroke:#181818;stroke-width:0.5;" width="112" x="1032.5" y="42.2969"/><text fill="#000000" font-family="sans-serif" font-size="14" lengthAdjust="spacing" textLength="98" x="1039.5" y="62.292">HEAD_ORIENT</text><rect fill="#E2E2F0" height="30.2969" rx="2.5" ry="2.5" style="stroke:#181818;stroke-width:0.5;" width="112" x="1032.5" y="1074.2422"/><text fill="#000000" font-family="sans-serif" font-size="14" lengthAdjust="spacing" textLength="98" x="1039.5" y="1094.2373">HEAD_ORIENT</text><rect fill="#EEEEEE" height="3" style="stroke:#EEEEEE;stroke-width:1.0;" width="1149.5" x="0" y="104.1602"/><line style="stroke:#000000;stroke-width:1.0;" x1="0" x2="1149.5" y1="104.1602" y2="104.1602"/><line style="stroke:#000000;stroke-width:1.0;" x1="0" x2="1149.5" y1="107.1602" y2="107.1602"/><rect fill="#EEEEEE" height="23.1328" style="stroke:#000000;stroke-width:2.0;" width="76" x="536.75" y="93.5938"/><text fill="#000000" font-family="sans-serif" font-size="13" font-weight="bold" lengthAdjust="spacing" textLength="57" x="542.75" y="109.6606">request</text><polygon fill="#181818" points="238,143.8594,248,147.8594,238,151.8594,242,147.8594" style="stroke:#181818;stroke-width:1.0;"/><line style="stroke:#181818;stroke-width:1.0;" x1="46" x2="244" y1="147.8594" y2="147.8594"/><text fill="#000000" font-family="sans-serif" font-size="13" lengthAdjust="spacing" textLength="180" x="53" y="142.7935">using RCL ROSPlan interface</text><polygon fill="#FEFFDD" points="187,160.8594,313,160.8594,323,171.8594,313,183.8594,187,183.8594,177,171.8594,187,160.8594" style="stroke:#181818;stroke-width:0.5;"/><text fill="#000000" font-family="sans-serif" font-size="13" lengthAdjust="spacing" textLength="122" x="189" y="176.9263">waiting for markers</text><polygon fill="#181818" points="497,206.125,507,210.125,497,214.125,501,210.125" style="stroke:#181818;stroke-width:1.0;"/><line style="stroke:#181818;stroke-width:1.0;" x1="250" x2="503" y1="210.125" y2="210.125"/><text fill="#000000" font-family="sans-serif" font-size="13" lengthAdjust="spacing" textLength="157" x="257" y="205.0591">using RCL navigation req</text><path d="M402,223.125 L402,293.125 L616,293.125 L616,233.125 L606,223.125 L402,223.125 " fill="#FEFFDD" style="stroke:#181818;stroke-width:0.5;"/><path d="M606,223.125 L606,233.125 L616,233.125 L606,223.125 " fill="#FEFFDD" style="stroke:#181818;stroke-width:0.5;"/><text fill="#000000" font-family="sans-serif" font-size="13" lengthAdjust="spacing" textLength="157" x="408" y="240.1919">let's assume a controller</text><text fill="#000000" font-family="sans-serif" font-size="13" lengthAdjust="spacing" textLength="179" x="408" y="255.3247">has been activated before...</text><text fill="#000000" font-family="sans-serif" font-size="13" lengthAdjust="spacing" textLength="189" x="408" y="270.4575">otherwise, the service returns</text><text fill="#000000" font-family="sans-serif" font-size="13" lengthAdjust="spacing" textLength="79" x="408" y="285.5903">immediately</text><polygon fill="#181818" points="694,315.7891,704,319.7891,694,323.7891,698,319.7891" style="stroke:#181818;stroke-width:1.0;"/><line style="stroke:#181818;stroke-width:1.0;stroke-dasharray:2.0,2.0;" x1="509" x2="700" y1="319.7891" y2="319.7891"/><text fill="#000000" font-family="sans-serif" font-size="13" lengthAdjust="spacing" textLength="76" x="516" y="314.7231">call function</text><rect fill="#EEEEEE" height="3" style="stroke:#EEEEEE;stroke-width:1.0;" width="1149.5" x="0" y="348.3555"/><line style="stroke:#000000;stroke-width:1.0;" x1="0" x2="1149.5" y1="348.3555" y2="348.3555"/><line style="stroke:#000000;stroke-width:1.0;" x1="0" x2="1149.5" y1="351.3555" y2="351.3555"/><rect fill="#EEEEEE" height="23.1328" style="stroke:#000000;stroke-width:2.0;" width="124" x="512.75" y="337.7891"/><text fill="#000000" font-family="sans-serif" font-size="13" font-weight="bold" lengthAdjust="spacing" textLength="105" x="518.75" y="353.856">navigation job</text><polygon fill="#181818" points="849.5,388.0547,859.5,392.0547,849.5,396.0547,853.5,392.0547" style="stroke:#181818;stroke-width:1.0;"/><line style="stroke:#181818;stroke-width:1.0;" x1="706" x2="855.5" y1="392.0547" y2="392.0547"/><text fill="#000000" font-family="sans-serif" font-size="13" lengthAdjust="spacing" textLength="63" x="713" y="386.9888">switch ON</text><polygon fill="#FEFFDD" points="637,405.0547,775,405.0547,785,416.0547,775,428.0547,637,428.0547,627,416.0547,637,405.0547" style="stroke:#181818;stroke-width:0.5;"/><text fill="#000000" font-family="sans-serif" font-size="13" lengthAdjust="spacing" textLength="134" x="639" y="421.1216">waiting for a signal ...</text><path d="M760,438.1875 L760,493.1875 L962,493.1875 L962,448.1875 L952,438.1875 L760,438.1875 " fill="#FEFFDD" style="stroke:#181818;stroke-width:0.5;"/><path d="M952,438.1875 L952,448.1875 L962,448.1875 L952,438.1875 " fill="#FEFFDD" style="stroke:#181818;stroke-width:0.5;"/><text fill="#000000" font-family="sans-serif" font-size="13" lengthAdjust="spacing" textLength="145" x="766" y="455.2544">the behaviour receives</text><text fill="#000000" font-family="sans-serif" font-size="13" lengthAdjust="spacing" textLength="181" x="766" y="470.3872">a final orientation to achieve</text><text fill="#000000" font-family="sans-serif" font-size="13" lengthAdjust="spacing" textLength="136" x="766" y="485.52">and a target to reach</text><polygon fill="#181818" points="958,515.7188,968,519.7188,958,523.7188,962,519.7188" style="stroke:#181818;stroke-width:1.0;"/><line style="stroke:#181818;stroke-width:1.0;" x1="861.5" x2="964" y1="519.7188" y2="519.7188"/><text fill="#000000" font-family="sans-serif" font-size="13" lengthAdjust="spacing" textLength="63" x="868.5" y="514.6528">switch ON</text><path d="M747,532.7188 L747,587.7188 L976,587.7188 L976,542.7188 L966,532.7188 L747,532.7188 " fill="#FEFFDD" style="stroke:#181818;stroke-width:0.5;"/><path d="M966,532.7188 L966,542.7188 L976,542.7188 L966,532.7188 " fill="#FEFFDD" style="stroke:#181818;stroke-width:0.5;"/><text fill="#000000" font-family="sans-serif" font-size="13" lengthAdjust="spacing" textLength="173" x="753" y="549.7856">here the BUGM_NAV Could</text><text fill="#000000" font-family="sans-serif" font-size="13" lengthAdjust="spacing" textLength="208" x="753" y="564.9185">perform a backwards movement</text><text fill="#000000" font-family="sans-serif" font-size="13" lengthAdjust="spacing" textLength="178" x="753" y="580.0513">for gaining manouver space</text><polygon fill="#FEFFDD" points="783,598.1172,940,598.1172,950,609.1172,940,621.1172,783,621.1172,773,609.1172,783,598.1172" style="stroke:#181818;stroke-width:0.5;"/><text fill="#000000" font-family="sans-serif" font-size="13" lengthAdjust="spacing" textLength="153" x="785" y="614.1841">reading position error ...</text><polygon fill="#FEFFDD" points="901,631.25,1039,631.25,1049,650.25,1039,669.25,901,669.25,891,650.25,901,631.25" style="stroke:#181818;stroke-width:0.5;"/><text fill="#000000" font-family="sans-serif" font-size="13" lengthAdjust="spacing" textLength="45" x="903" y="647.3169">turning</text><text fill="#000000" font-family="sans-serif" font-size="13" lengthAdjust="spacing" textLength="134" x="903" y="662.4497">towards the target ...</text><polygon fill="#FEFFDD" points="906,679.5156,1033,679.5156,1043,698.5156,1033,717.5156,906,717.5156,896,698.5156,906,679.5156" style="stroke:#181818;stroke-width:0.5;"/><text fill="#000000" font-family="sans-serif" font-size="13" lengthAdjust="spacing" textLength="119" x="908" y="695.5825">navigating straight</text><text fill="#000000" font-family="sans-serif" font-size="13" lengthAdjust="spacing" textLength="81" x="908" y="710.7153">to the target</text><polygon fill="#181818" points="958,739.9141,968,743.9141,958,747.9141,962,743.9141" style="stroke:#181818;stroke-width:1.0;"/><line style="stroke:#181818;stroke-width:1.0;" x1="861.5" x2="964" y1="743.9141" y2="743.9141"/><text fill="#000000" font-family="sans-serif" font-size="13" lengthAdjust="spacing" textLength="67" x="868.5" y="738.8481">switch OFF</text><polygon fill="#181818" points="1076.5,769.0469,1086.5,773.0469,1076.5,777.0469,1080.5,773.0469" style="stroke:#181818;stroke-width:1.0;"/><line style="stroke:#181818;stroke-width:1.0;" x1="861.5" x2="1082.5" y1="773.0469" y2="773.0469"/><text fill="#000000" font-family="sans-serif" font-size="13" lengthAdjust="spacing" textLength="63" x="868.5" y="767.981">switch ON</text><polygon fill="#FEFFDD" points="773,786.0469,949,786.0469,959,797.0469,949,809.0469,773,809.0469,763,797.0469,773,786.0469" style="stroke:#181818;stroke-width:0.5;"/><text fill="#000000" font-family="sans-serif" font-size="13" lengthAdjust="spacing" textLength="172" x="775" y="802.1138">reading orientation error ...</text><polygon fill="#FEFFDD" points="1064,819.1797,1113,819.1797,1123,830.1797,1113,842.1797,1064,842.1797,1054,830.1797,1064,819.1797" style="stroke:#181818;stroke-width:0.5;"/><text fill="#000000" font-family="sans-serif" font-size="13" lengthAdjust="spacing" textLength="45" x="1066" y="835.2466">turning</text><polygon fill="#181818" points="1076.5,864.4453,1086.5,868.4453,1076.5,872.4453,1080.5,868.4453" style="stroke:#181818;stroke-width:1.0;"/><line style="stroke:#181818;stroke-width:1.0;" x1="861.5" x2="1082.5" y1="868.4453" y2="868.4453"/><text fill="#000000" font-family="sans-serif" font-size="13" lengthAdjust="spacing" textLength="67" x="868.5" y="863.3794">switch OFF</text><polygon fill="#181818" points="717,893.5781,707,897.5781,717,901.5781,713,897.5781" style="stroke:#181818;stroke-width:1.0;"/><line style="stroke:#181818;stroke-width:1.0;" x1="711" x2="860.5" y1="897.5781" y2="897.5781"/><text fill="#000000" font-family="sans-serif" font-size="13" lengthAdjust="spacing" textLength="72" x="723" y="892.5122">send signal</text><polygon fill="#181818" points="849.5,922.7109,859.5,926.7109,849.5,930.7109,853.5,926.7109" style="stroke:#181818;stroke-width:1.0;"/><line style="stroke:#181818;stroke-width:1.0;" x1="706" x2="855.5" y1="926.7109" y2="926.7109"/><text fill="#000000" font-family="sans-serif" font-size="13" lengthAdjust="spacing" textLength="67" x="713" y="921.645">switch OFF</text><rect fill="#EEEEEE" height="3" style="stroke:#EEEEEE;stroke-width:1.0;" width="1149.5" x="0" y="955.2773"/><line style="stroke:#000000;stroke-width:1.0;" x1="0" x2="1149.5" y1="955.2773" y2="955.2773"/><line style="stroke:#000000;stroke-width:1.0;" x1="0" x2="1149.5" y1="958.2773" y2="958.2773"/><rect fill="#EEEEEE" height="23.1328" style="stroke:#000000;stroke-width:2.0;" width="87" x="531.25" y="944.7109"/><text fill="#000000" font-family="sans-serif" font-size="13" font-weight="bold" lengthAdjust="spacing" textLength="68" x="537.25" y="960.7778">response</text><polygon fill="#181818" points="520,994.9766,510,998.9766,520,1002.9766,516,998.9766" style="stroke:#181818;stroke-width:1.0;"/><line style="stroke:#181818;stroke-width:1.0;stroke-dasharray:2.0,2.0;" x1="514" x2="705" y1="998.9766" y2="998.9766"/><text fill="#000000" font-family="sans-serif" font-size="13" lengthAdjust="spacing" textLength="39" x="526" y="993.9106">return</text><polygon fill="#181818" points="261,1024.1094,251,1028.1094,261,1032.1094,257,1028.1094" style="stroke:#181818;stroke-width:1.0;"/><line style="stroke:#181818;stroke-width:1.0;" x1="255" x2="508" y1="1028.1094" y2="1028.1094"/><text fill="#000000" font-family="sans-serif" font-size="13" lengthAdjust="spacing" textLength="235" x="267" y="1023.0435">response (RCL movement controller)</text><polygon fill="#181818" points="57,1053.2422,47,1057.2422,57,1061.2422,53,1057.2422" style="stroke:#181818;stroke-width:1.0;"/><line style="stroke:#181818;stroke-width:1.0;" x1="51" x2="249" y1="1057.2422" y2="1057.2422"/><text fill="#000000" font-family="sans-serif" font-size="13" lengthAdjust="spacing" textLength="155" x="63" y="1052.1763">response (RCL ROSPlan)</text><!--MD5=[68ba400be872b39061612a05f88ae313]
@startuml

title RCL#3 move_base navigation - node temporal diagram
' header ...
' footer ...

''' ENTITIES 
participant MOVE_TO order 0
participant NAVIGATION_UNIT order 1
participant NAVIGATION_MANAGER order 2
participant NAVIGATION_CONTROLLER order 3
participant BUGM_NAV order 5
participant HEAD_ORIENT order 6
participant GOTO_POINT order 5

''' SEQUENCE
' == section ==
' ...

== request ==
MOVE_TO -> NAVIGATION_UNIT : using RCL ROSPlan interface
hnote over NAVIGATION_UNIT 
	waiting for markers
end hnote
NAVIGATION_UNIT -> NAVIGATION_MANAGER : using RCL navigation req
note over NAVIGATION_MANAGER
	let's assume a controller 
	has been activated before...
	otherwise, the service returns 
	immediately
end note
NAVIGATION_MANAGER - -> NAVIGATION_CONTROLLER : call function


== navigation job ==
NAVIGATION_CONTROLLER -> BUGM_NAV : switch ON
hnote over NAVIGATION_CONTROLLER
	waiting for a signal ...
end hnote
note over BUGM_NAV
	the behaviour receives 
	a final orientation to achieve
	and a target to reach
end note
BUGM_NAV -> GOTO_POINT : switch ON

note over BUGM_NAV
here the BUGM_NAV Could 
perform a backwards movement
for gaining manouver space
end note

hnote over BUGM_NAV
	reading position error ...
end hnote

hnote over GOTO_POINT
turning 
towards the target ...
end hnote

hnote over GOTO_POINT
navigating straight 
to the target
end hnote

BUGM_NAV -> GOTO_POINT : switch OFF

BUGM_NAV -> HEAD_ORIENT : switch ON

hnote over BUGM_NAV
	reading orientation error ...
end hnote

hnote over HEAD_ORIENT
	turning
end hnote

BUGM_NAV -> HEAD_ORIENT : switch OFF

NAVIGATION_CONTROLLER <- BUGM_NAV : send signal
NAVIGATION_CONTROLLER -> BUGM_NAV : switch OFF

== response ==
NAVIGATION_MANAGER <- - NAVIGATION_CONTROLLER : return
NAVIGATION_UNIT <- NAVIGATION_MANAGER : response (RCL movement controller)
MOVE_TO <- NAVIGATION_UNIT : response (RCL ROSPlan)

@enduml

@startuml

title RCL#3 move_base navigation - node temporal diagram

participant MOVE_TO order 0
participant NAVIGATION_UNIT order 1
participant NAVIGATION_MANAGER order 2
participant NAVIGATION_CONTROLLER order 3
participant BUGM_NAV order 5
participant HEAD_ORIENT order 6
participant GOTO_POINT order 5


== request ==
MOVE_TO -> NAVIGATION_UNIT : using RCL ROSPlan interface
hnote over NAVIGATION_UNIT 
	waiting for markers
end hnote
NAVIGATION_UNIT -> NAVIGATION_MANAGER : using RCL navigation req
note over NAVIGATION_MANAGER
	let's assume a controller 
	has been activated before...
	otherwise, the service returns 
	immediately
end note
NAVIGATION_MANAGER - -> NAVIGATION_CONTROLLER : call function


== navigation job ==
NAVIGATION_CONTROLLER -> BUGM_NAV : switch ON
hnote over NAVIGATION_CONTROLLER
	waiting for a signal ...
end hnote
note over BUGM_NAV
	the behaviour receives 
	a final orientation to achieve
	and a target to reach
end note
BUGM_NAV -> GOTO_POINT : switch ON

note over BUGM_NAV
here the BUGM_NAV Could 
perform a backwards movement
for gaining manouver space
end note

hnote over BUGM_NAV
	reading position error ...
end hnote

hnote over GOTO_POINT
turning 
towards the target ...
end hnote

hnote over GOTO_POINT
navigating straight 
to the target
end hnote

BUGM_NAV -> GOTO_POINT : switch OFF

BUGM_NAV -> HEAD_ORIENT : switch ON

hnote over BUGM_NAV
	reading orientation error ...
end hnote

hnote over HEAD_ORIENT
	turning
end hnote

BUGM_NAV -> HEAD_ORIENT : switch OFF

NAVIGATION_CONTROLLER <- BUGM_NAV : send signal
NAVIGATION_CONTROLLER -> BUGM_NAV : switch OFF

== response ==
NAVIGATION_MANAGER <- - NAVIGATION_CONTROLLER : return
NAVIGATION_UNIT <- NAVIGATION_MANAGER : response (RCL movement controller)
MOVE_TO <- NAVIGATION_UNIT : response (RCL ROSPlan)

@enduml

PlantUML version 1.2022.6(Tue Jun 21 17:34:49 UTC 2022)
(GPL source distribution)
Java Runtime: Java(TM) SE Runtime Environment
JVM: Java HotSpot(TM) 64-Bit Server VM
Default Encoding: UTF-8
Language: en
Country: US
--></g></svg>