<?xml version="1.0" encoding="UTF-8" standalone="no"?><svg xmlns="http://www.w3.org/2000/svg" xmlns:xlink="http://www.w3.org/1999/xlink" contentStyleType="text/css" height="395px" preserveAspectRatio="none" style="width:1976px;height:395px;background:#FFFFFF;" version="1.1" viewBox="0 0 1976 395" width="1976px" zoomAndPan="magnify"><defs/><g><rect height="46.2969" style="stroke:#00000000;stroke-width:1.0;fill:none;" width="204" x="879.25" y="5"/><text fill="#000000" font-family="sans-serif" font-size="14" font-weight="bold" lengthAdjust="spacing" textLength="174" x="894.25" y="32.9951">ROSPlan main pipeline</text><!--MD5=[03c113a77f1f8b6b00d525166da001e4]
entity RCL_PIPELINE--><g id="elem_RCL_PIPELINE"><rect fill="#F1F1F1" height="118.8906" rx="2.5" ry="2.5" style="stroke:#181818;stroke-width:0.5;" width="183" x="938" y="64.2969"/><rect fill="#F1F1F1" height="10" style="stroke:#181818;stroke-width:0.5;" width="15" x="1101" y="69.2969"/><rect fill="#F1F1F1" height="2" style="stroke:#181818;stroke-width:0.5;" width="4" x="1099" y="71.2969"/><rect fill="#F1F1F1" height="2" style="stroke:#181818;stroke-width:0.5;" width="4" x="1099" y="75.2969"/><text fill="#000000" font-family="sans-serif" font-size="14" font-style="italic" lengthAdjust="spacing" textLength="108" x="970.5" y="107.292">«RoboCLuedo»</text><text fill="#000000" font-family="sans-serif" font-size="14" lengthAdjust="spacing" textLength="51" x="963" y="143.5889">rosplan</text><text fill="#000000" font-family="sans-serif" font-size="14" lengthAdjust="spacing" textLength="119" x="967" y="159.8857">pipeline manager</text></g><!--MD5=[3bd4b3459161f586c76f00998caa37eb]
entity SRV_PROBLEM_TRIG--><g id="elem_SRV_PROBLEM_TRIG"><ellipse cx="196.5" cy="347.2969" fill="#F1F1F1" rx="8" ry="8" style="stroke:#181818;stroke-width:0.5;"/><text fill="#000000" font-family="sans-serif" font-size="14" lengthAdjust="spacing" textLength="381" x="6" y="387.292">/rosplan_problem_interface/problem_generation_server</text></g><!--MD5=[0b85c392a0b8fe141436d3f77ffe2266]
entity SRV_PLAN_TRIG--><g id="elem_SRV_PLAN_TRIG"><ellipse cx="617.5" cy="347.2969" fill="#F1F1F1" rx="8" ry="8" style="stroke:#181818;stroke-width:0.5;"/><text fill="#000000" font-family="sans-serif" font-size="14" lengthAdjust="spacing" textLength="296" x="469.5" y="387.292">/rosplan_planner_interface/planning_server</text></g><!--MD5=[f51f5ff6095acc1b588cb3a3ff7105a5]
entity SRV_PARSE_TRIG--><g id="elem_SRV_PARSE_TRIG"><ellipse cx="1029.5" cy="347.2969" fill="#F1F1F1" rx="8" ry="8" style="stroke:#181818;stroke-width:0.5;"/><text fill="#000000" font-family="sans-serif" font-size="14" lengthAdjust="spacing" textLength="362" x="848.5" y="387.292">rosservice call /rosplan_parsing_interface/parse_plan</text></g><!--MD5=[89cc3e41ea68916f9c58895ce792ddd3]
entity SRV_DISPATCH_TRIG--><g id="elem_SRV_DISPATCH_TRIG"><ellipse cx="1429.5" cy="347.2969" fill="#F1F1F1" rx="8" ry="8" style="stroke:#181818;stroke-width:0.5;"/><text fill="#000000" font-family="sans-serif" font-size="14" lengthAdjust="spacing" textLength="272" x="1293.5" y="387.292">/rosplan_plan_dispatcher/dispatch_plan</text></g><!--MD5=[7ee91087643798f90fd57e8454d6279a]
entity SRV_UPDATE_GOAL--><g id="elem_SRV_UPDATE_GOAL"><ellipse cx="1741.5" cy="347.2969" fill="#F1F1F1" rx="8" ry="8" style="stroke:#181818;stroke-width:0.5;"/><text fill="#000000" font-family="sans-serif" font-size="14" lengthAdjust="spacing" textLength="90" x="1696.5" y="387.292">/update_goal</text></g><!--MD5=[f8474edefc65b0c27e7df913d004612b]
entity TOPIC_ACT_FEEDBACK--><g id="elem_TOPIC_ACT_FEEDBACK"><ellipse cx="559.5" cy="123.7969" fill="#F1F1F1" rx="8" ry="8" style="stroke:#181818;stroke-width:0.5;"/><text fill="#000000" font-family="sans-serif" font-size="14" lengthAdjust="spacing" textLength="202" x="458.5" y="163.792">/robocluedo/action_feedback</text></g><!--MD5=[601780bd27ca849c314945d3c11d2b31]
entity SRV_PIPELINE--><g id="elem_SRV_PIPELINE"><ellipse cx="1600.5" cy="123.7969" fill="#F1F1F1" rx="8" ry="8" style="stroke:#181818;stroke-width:0.5;"/><text fill="#000000" font-family="sans-serif" font-size="14" lengthAdjust="spacing" textLength="211" x="1495" y="163.792">/robocluedo/pipeline_manager</text></g><!--MD5=[aba0e4da85f88dae7c26358d06ec8054]
reverse link RCL_PIPELINE to SRV_PROBLEM_TRIG--><g id="link_RCL_PIPELINE_SRV_PROBLEM_TRIG"><path codeLine="13" d="M932.81,142.6269 C848.3,158.8769 722.55,184.6569 614.5,213.2969 C448.14,257.3869 249.74,327.2869 205.52,343.0669 " fill="none" id="RCL_PIPELINE-backto-SRV_PROBLEM_TRIG" style="stroke:#181818;stroke-width:1.0;"/><polygon fill="#181818" points="937.81,141.6669,928.2175,139.4343,932.8996,142.609,929.7249,147.291,937.81,141.6669" style="stroke:#181818;stroke-width:1.0;"/><path d="M619.5,218.2969 L619.5,263.2969 L758.5,263.2969 L758.5,228.2969 L748.5,218.2969 L619.5,218.2969 " fill="#FEFFDD" style="stroke:#181818;stroke-width:0.5;"/><path d="M748.5,218.2969 L748.5,228.2969 L758.5,228.2969 L748.5,218.2969 " fill="#FEFFDD" style="stroke:#181818;stroke-width:0.5;"/><text fill="#000000" font-family="sans-serif" font-size="13" lengthAdjust="spacing" textLength="98" x="635.5" y="245.3638">std_srvs/Empty</text><text fill="#000000" font-family="sans-serif" font-size="13" lengthAdjust="spacing" textLength="10" x="909.975" y="166.3401">cl</text></g><!--MD5=[f32d367106a3a4299bc8e4e53d941cb1]
reverse link RCL_PIPELINE to SRV_PLAN_TRIG--><g id="link_RCL_PIPELINE_SRV_PLAN_TRIG"><path codeLine="17" d="M933.11,176.6169 C827.01,233.6569 666.17,320.1369 626.55,341.4269 " fill="none" id="RCL_PIPELINE-backto-SRV_PLAN_TRIG" style="stroke:#181818;stroke-width:1.0;"/><polygon fill="#181818" points="937.81,174.0969,927.9878,174.8209,933.4026,176.458,931.7656,181.8728,937.81,174.0969" style="stroke:#181818;stroke-width:1.0;"/><path d="M865.5,218.2969 L865.5,263.2969 L1004.5,263.2969 L1004.5,228.2969 L994.5,218.2969 L865.5,218.2969 " fill="#FEFFDD" style="stroke:#181818;stroke-width:0.5;"/><path d="M994.5,218.2969 L994.5,228.2969 L1004.5,228.2969 L994.5,218.2969 " fill="#FEFFDD" style="stroke:#181818;stroke-width:0.5;"/><text fill="#000000" font-family="sans-serif" font-size="13" lengthAdjust="spacing" textLength="98" x="881.5" y="245.3638">std_srvs/Empty</text><text fill="#000000" font-family="sans-serif" font-size="13" lengthAdjust="spacing" textLength="10" x="909.975" y="201.1517">cl</text></g><!--MD5=[8f38636f1291675e3bb7fdaab6435684]
reverse link RCL_PIPELINE to SRV_PARSE_TRIG--><g id="link_RCL_PIPELINE_SRV_PARSE_TRIG"><path codeLine="21" d="M1029.5,188.7069 C1029.5,242.3269 1029.5,313.9069 1029.5,337.9969 " fill="none" id="RCL_PIPELINE-backto-SRV_PARSE_TRIG" style="stroke:#181818;stroke-width:1.0;"/><polygon fill="#181818" points="1029.5,183.5769,1025.5,192.5769,1029.5,188.5769,1033.5,192.5769,1029.5,183.5769" style="stroke:#181818;stroke-width:1.0;"/><path d="M1034.5,218.2969 L1034.5,263.2969 L1173.5,263.2969 L1173.5,228.2969 L1163.5,218.2969 L1034.5,218.2969 " fill="#FEFFDD" style="stroke:#181818;stroke-width:0.5;"/><path d="M1163.5,218.2969 L1163.5,228.2969 L1173.5,228.2969 L1163.5,218.2969 " fill="#FEFFDD" style="stroke:#181818;stroke-width:0.5;"/><text fill="#000000" font-family="sans-serif" font-size="13" lengthAdjust="spacing" textLength="98" x="1050.5" y="245.3638">std_srvs/Empty</text><text fill="#000000" font-family="sans-serif" font-size="13" lengthAdjust="spacing" textLength="10" x="1008.0234" y="213.2629">cl</text></g><!--MD5=[2026dddc46e1056111520b389e082ed6]
reverse link RCL_PIPELINE to SRV_DISPATCH_TRIG--><g id="link_RCL_PIPELINE_SRV_DISPATCH_TRIG"><path codeLine="25" d="M1125.77,178.0269 C1146.78,189.6469 1168.89,201.8869 1189.5,213.2969 C1279.52,263.1369 1388.49,323.5569 1420.35,341.2169 " fill="none" id="RCL_PIPELINE-backto-SRV_DISPATCH_TRIG" style="stroke:#181818;stroke-width:1.0;"/><polygon fill="#181818" points="1121.31,175.5569,1127.2653,183.4012,1125.6902,177.9681,1131.1233,176.393,1121.31,175.5569" style="stroke:#181818;stroke-width:1.0;"/><path d="M1293.5,218.2969 L1293.5,263.2969 L1591.5,263.2969 L1591.5,228.2969 L1581.5,218.2969 L1293.5,218.2969 " fill="#FEFFDD" style="stroke:#181818;stroke-width:0.5;"/><path d="M1581.5,218.2969 L1581.5,228.2969 L1591.5,228.2969 L1581.5,218.2969 " fill="#FEFFDD" style="stroke:#181818;stroke-width:0.5;"/><text fill="#000000" font-family="sans-serif" font-size="13" lengthAdjust="spacing" textLength="257" x="1309.5" y="245.3638">rosplan_dispatch_msgs/DispatchService</text><text fill="#000000" font-family="sans-serif" font-size="13" lengthAdjust="spacing" textLength="10" x="1139.1539" y="202.7189">cl</text></g><!--MD5=[f7cdfbf15495e406f8b6e5ded5d2cfd6]
reverse link RCL_PIPELINE to SRV_UPDATE_GOAL--><g id="link_RCL_PIPELINE_SRV_UPDATE_GOAL"><path codeLine="29" d="M1126.15,132.3169 C1268.11,144.5769 1525.07,171.7569 1607.5,213.2969 C1668.97,244.2769 1719.76,313.9269 1736.03,337.9569 " fill="none" id="RCL_PIPELINE-backto-SRV_UPDATE_GOAL" style="stroke:#181818;stroke-width:1.0;"/><polygon fill="#181818" points="1121.15,131.8869,1129.7744,136.643,1126.1316,132.3151,1130.4595,128.6724,1121.15,131.8869" style="stroke:#181818;stroke-width:1.0;"/><path d="M1681.5,218.2969 L1681.5,263.2969 L1969.5,263.2969 L1969.5,228.2969 L1959.5,218.2969 L1681.5,218.2969 " fill="#FEFFDD" style="stroke:#181818;stroke-width:0.5;"/><path d="M1959.5,218.2969 L1959.5,228.2969 L1969.5,228.2969 L1959.5,218.2969 " fill="#FEFFDD" style="stroke:#181818;stroke-width:0.5;"/><text fill="#000000" font-family="sans-serif" font-size="13" lengthAdjust="spacing" textLength="247" x="1697.5" y="245.3638">robocluedo_rosplan_msgs/UpdateGoal</text><text fill="#000000" font-family="sans-serif" font-size="13" lengthAdjust="spacing" textLength="10" x="1138.9821" y="118.2716">cl</text></g><!--MD5=[992b1765042fa08e36e2fdb5301e7131]
link TOPIC_ACT_FEEDBACK to RCL_PIPELINE--><g id="link_TOPIC_ACT_FEEDBACK_RCL_PIPELINE"><path codeLine="33" d="M568.89,123.7969 C613.99,123.7969 811.17,123.7969 932.45,123.7969 " fill="none" id="TOPIC_ACT_FEEDBACK-to-RCL_PIPELINE" style="stroke:#181818;stroke-width:1.0;"/><polygon fill="#181818" points="937.81,123.7969,928.81,119.7969,932.81,123.7969,928.81,127.7969,937.81,123.7969" style="stroke:#181818;stroke-width:1.0;"/><path d="M596.75,70.7969 L596.75,115.7969 L909.75,115.7969 L909.75,80.7969 L899.75,70.7969 L596.75,70.7969 " fill="#FEFFDD" style="stroke:#181818;stroke-width:0.5;"/><path d="M899.75,70.7969 L899.75,80.7969 L909.75,80.7969 L899.75,70.7969 " fill="#FEFFDD" style="stroke:#181818;stroke-width:0.5;"/><text fill="#000000" font-family="sans-serif" font-size="13" lengthAdjust="spacing" textLength="272" x="612.75" y="97.8638">robocluedo_rosplan_msgs/ActionFeedback</text><text fill="#000000" font-family="sans-serif" font-size="13" lengthAdjust="spacing" textLength="23" x="896.8513" y="147.1028">sub</text></g><!--MD5=[8962bffcf5a42a05badc40ef2c3c1804]
link RCL_PIPELINE to SRV_PIPELINE--><g id="link_RCL_PIPELINE_SRV_PIPELINE"><path codeLine="43" d="M1121.24,123.7969 C1262.01,123.7969 1521.76,123.7969 1585.9,123.7969 " fill="none" id="RCL_PIPELINE-to-SRV_PIPELINE" style="stroke:#181818;stroke-width:1.0;"/><polygon fill="#181818" points="1591.16,123.7969,1582.16,119.7969,1586.16,123.7969,1582.16,127.7969,1591.16,123.7969" style="stroke:#181818;stroke-width:1.0;"/><path d="M1149.25,70.7969 L1149.25,115.7969 L1563.25,115.7969 L1563.25,80.7969 L1553.25,70.7969 L1149.25,70.7969 " fill="#FEFFDD" style="stroke:#181818;stroke-width:0.5;"/><path d="M1553.25,70.7969 L1553.25,80.7969 L1563.25,80.7969 L1553.25,70.7969 " fill="#FEFFDD" style="stroke:#181818;stroke-width:0.5;"/><text fill="#000000" font-family="sans-serif" font-size="13" lengthAdjust="spacing" textLength="373" x="1165.25" y="97.8638">robocluedo_rosplan_msgs/RosplanPipelineManagerService</text><text fill="#000000" font-family="sans-serif" font-size="13" lengthAdjust="spacing" textLength="19" x="1139.0616" y="147.1028">srv</text></g><!--MD5=[94716f93f60e82e1ae1efc31ababfaad]
@startuml

''' INFOS
title ROSPlan main pipeline
skinparam Padding 10
allow_mixing


''' COMPONENTS
component "rosplan \n pipeline manager" <<RoboCLuedo>> as RCL_PIPELINE

''' INTERFACES
() "/rosplan_problem_interface/problem_generation_server" as SRV_PROBLEM_TRIG
RCL_PIPELINE "cl" <- - SRV_PROBLEM_TRIG
note on link : std_srvs/Empty

() "/rosplan_planner_interface/planning_server" as SRV_PLAN_TRIG
RCL_PIPELINE "cl" <- - SRV_PLAN_TRIG
note on link : std_srvs/Empty

() "rosservice call /rosplan_parsing_interface/parse_plan" as SRV_PARSE_TRIG
RCL_PIPELINE "cl" <- - SRV_PARSE_TRIG
note on link : std_srvs/Empty

() "/rosplan_plan_dispatcher/dispatch_plan" as SRV_DISPATCH_TRIG
RCL_PIPELINE "cl" <- - SRV_DISPATCH_TRIG
note on link : rosplan_dispatch_msgs/DispatchService

() "/update_goal" as SRV_UPDATE_GOAL
RCL_PIPELINE "cl" <- - SRV_UPDATE_GOAL
note on link : robocluedo_rosplan_msgs/UpdateGoal

() "/robocluedo/action_feedback" as TOPIC_ACT_FEEDBACK
RCL_PIPELINE "sub" <-left- TOPIC_ACT_FEEDBACK
note on link : robocluedo_rosplan_msgs/ActionFeedback

/'
() "/rosplan_problem_interface/problem_instance" as TOPIC_PROBLEM_INSTANCE
RCL_PIPELINE "sub" <- - TOPIC_PROBLEM_INSTANCE
note on link : std_msgs/String
'/

() "/robocluedo/pipeline_manager" as SRV_PIPELINE
RCL_PIPELINE "srv" -right-> SRV_PIPELINE
note on link : robocluedo_rosplan_msgs/RosplanPipelineManagerService

''' CONNECTIONS


@enduml

@startuml

title ROSPlan main pipeline
skinparam Padding 10
allow_mixing


component "rosplan \n pipeline manager" <<RoboCLuedo>> as RCL_PIPELINE

() "/rosplan_problem_interface/problem_generation_server" as SRV_PROBLEM_TRIG
RCL_PIPELINE "cl" <- - SRV_PROBLEM_TRIG
note on link : std_srvs/Empty

() "/rosplan_planner_interface/planning_server" as SRV_PLAN_TRIG
RCL_PIPELINE "cl" <- - SRV_PLAN_TRIG
note on link : std_srvs/Empty

() "rosservice call /rosplan_parsing_interface/parse_plan" as SRV_PARSE_TRIG
RCL_PIPELINE "cl" <- - SRV_PARSE_TRIG
note on link : std_srvs/Empty

() "/rosplan_plan_dispatcher/dispatch_plan" as SRV_DISPATCH_TRIG
RCL_PIPELINE "cl" <- - SRV_DISPATCH_TRIG
note on link : rosplan_dispatch_msgs/DispatchService

() "/update_goal" as SRV_UPDATE_GOAL
RCL_PIPELINE "cl" <- - SRV_UPDATE_GOAL
note on link : robocluedo_rosplan_msgs/UpdateGoal

() "/robocluedo/action_feedback" as TOPIC_ACT_FEEDBACK
RCL_PIPELINE "sub" <-left- TOPIC_ACT_FEEDBACK
note on link : robocluedo_rosplan_msgs/ActionFeedback


() "/robocluedo/pipeline_manager" as SRV_PIPELINE
RCL_PIPELINE "srv" -right-> SRV_PIPELINE
note on link : robocluedo_rosplan_msgs/RosplanPipelineManagerService



@enduml

PlantUML version 1.2022.6(Tue Jun 21 17:34:49 UTC 2022)
(GPL source distribution)
Java Runtime: Java(TM) SE Runtime Environment
JVM: Java HotSpot(TM) 64-Bit Server VM
Default Encoding: UTF-8
Language: en
Country: US
--></g></svg>