<?xml version="1.0" encoding="UTF-8" standalone="no"?><svg xmlns="http://www.w3.org/2000/svg" xmlns:xlink="http://www.w3.org/1999/xlink" contentStyleType="text/css" height="438px" preserveAspectRatio="none" style="width:527px;height:438px;background:#FFFFFF;" version="1.1" viewBox="0 0 527 438" width="527px" zoomAndPan="magnify"><defs/><g><line style="stroke:#181818;stroke-width:0.5;stroke-dasharray:5.0,5.0;" x1="148" x2="148" y1="36.2969" y2="403.625"/><line style="stroke:#181818;stroke-width:0.5;stroke-dasharray:5.0,5.0;" x1="242" x2="242" y1="36.2969" y2="403.625"/><line style="stroke:#181818;stroke-width:0.5;stroke-dasharray:5.0,5.0;" x1="327" x2="327" y1="36.2969" y2="403.625"/><rect fill="#E2E2F0" height="30.2969" rx="2.5" ry="2.5" style="stroke:#181818;stroke-width:0.5;" width="59" x="119" y="5"/><text fill="#000000" font-family="sans-serif" font-size="14" lengthAdjust="spacing" textLength="45" x="126" y="24.9951">node1</text><rect fill="#E2E2F0" height="30.2969" rx="2.5" ry="2.5" style="stroke:#181818;stroke-width:0.5;" width="59" x="119" y="402.625"/><text fill="#000000" font-family="sans-serif" font-size="14" lengthAdjust="spacing" textLength="45" x="126" y="422.6201">node1</text><rect fill="#E2E2F0" height="30.2969" rx="2.5" ry="2.5" style="stroke:#181818;stroke-width:0.5;" width="59" x="213" y="5"/><text fill="#000000" font-family="sans-serif" font-size="14" lengthAdjust="spacing" textLength="45" x="220" y="24.9951">node2</text><rect fill="#E2E2F0" height="30.2969" rx="2.5" ry="2.5" style="stroke:#181818;stroke-width:0.5;" width="59" x="213" y="402.625"/><text fill="#000000" font-family="sans-serif" font-size="14" lengthAdjust="spacing" textLength="45" x="220" y="422.6201">node2</text><rect fill="#E2E2F0" height="30.2969" rx="2.5" ry="2.5" style="stroke:#181818;stroke-width:0.5;" width="59" x="298" y="5"/><text fill="#000000" font-family="sans-serif" font-size="14" lengthAdjust="spacing" textLength="45" x="305" y="24.9951">node3</text><rect fill="#E2E2F0" height="30.2969" rx="2.5" ry="2.5" style="stroke:#181818;stroke-width:0.5;" width="59" x="298" y="402.625"/><text fill="#000000" font-family="sans-serif" font-size="14" lengthAdjust="spacing" textLength="45" x="305" y="422.6201">node3</text><rect fill="#EEEEEE" height="3" style="stroke:#EEEEEE;stroke-width:1.0;" width="520.5" x="0" y="66.8633"/><line style="stroke:#000000;stroke-width:1.0;" x1="0" x2="520.5" y1="66.8633" y2="66.8633"/><line style="stroke:#000000;stroke-width:1.0;" x1="0" x2="520.5" y1="69.8633" y2="69.8633"/><rect fill="#EEEEEE" height="23.1328" style="stroke:#000000;stroke-width:2.0;" width="69" x="225.75" y="56.2969"/><text fill="#000000" font-family="sans-serif" font-size="13" font-weight="bold" lengthAdjust="spacing" textLength="50" x="231.75" y="72.3638">Style 1</text><polygon fill="#181818" points="230.5,109.5625,240.5,113.5625,230.5,117.5625,234.5,113.5625" style="stroke:#181818;stroke-width:1.0;"/><line style="stroke:#181818;stroke-width:1.0;" x1="148.5" x2="236.5" y1="113.5625" y2="113.5625"/><text fill="#000000" font-family="sans-serif" font-size="13" lengthAdjust="spacing" textLength="61" x="155.5" y="108.4966">andata ...</text><path d="M247,94.4297 L247,119.4297 L389,119.4297 L389,104.4297 L379,94.4297 L247,94.4297 " fill="#FEFFDD" style="stroke:#181818;stroke-width:0.5;"/><path d="M379,94.4297 L379,104.4297 L389,104.4297 L379,94.4297 " fill="#FEFFDD" style="stroke:#181818;stroke-width:0.5;"/><text fill="#000000" font-family="sans-serif" font-size="13" lengthAdjust="spacing" textLength="121" x="253" y="111.4966">una nota di andata</text><polygon fill="#181818" points="159.5,144.6953,149.5,148.6953,159.5,152.6953,155.5,148.6953" style="stroke:#181818;stroke-width:1.0;"/><line style="stroke:#181818;stroke-width:1.0;" x1="153.5" x2="241.5" y1="148.6953" y2="148.6953"/><text fill="#000000" font-family="sans-serif" font-size="13" lengthAdjust="spacing" textLength="70" x="165.5" y="143.6294">... e ritorno</text><path d="M5,129.5625 L5,154.5625 L144,154.5625 L144,139.5625 L134,129.5625 L5,129.5625 " fill="#FEFFDD" style="stroke:#181818;stroke-width:0.5;"/><path d="M134,129.5625 L134,139.5625 L144,139.5625 L134,129.5625 " fill="#FEFFDD" style="stroke:#181818;stroke-width:0.5;"/><text fill="#000000" font-family="sans-serif" font-size="13" lengthAdjust="spacing" textLength="118" x="11" y="146.6294">una nota di ritorno</text><path d="M121,164.6953 L121,189.6953 L354,189.6953 L354,174.6953 L344,164.6953 L121,164.6953 " fill="#FEFFDD" style="stroke:#181818;stroke-width:0.5;"/><path d="M344,164.6953 L344,174.6953 L354,174.6953 L344,164.6953 " fill="#FEFFDD" style="stroke:#181818;stroke-width:0.5;"/><text fill="#000000" font-family="sans-serif" font-size="13" lengthAdjust="spacing" textLength="176" x="145" y="181.7622">a very long, exaustive, note</text><polygon fill="#181818" points="315.5,214.9609,325.5,218.9609,315.5,222.9609,319.5,218.9609" style="stroke:#181818;stroke-width:1.0;"/><line style="stroke:#181818;stroke-width:1.0;" x1="242.5" x2="321.5" y1="218.9609" y2="218.9609"/><text fill="#000000" font-family="sans-serif" font-size="13" lengthAdjust="spacing" textLength="61" x="249.5" y="213.895">andata ...</text><path d="M95,199.8281 L95,224.8281 L237,224.8281 L237,209.8281 L227,199.8281 L95,199.8281 " fill="#FEFFDD" style="stroke:#181818;stroke-width:0.5;"/><path d="M227,199.8281 L227,209.8281 L237,209.8281 L227,199.8281 " fill="#FEFFDD" style="stroke:#181818;stroke-width:0.5;"/><text fill="#000000" font-family="sans-serif" font-size="13" lengthAdjust="spacing" textLength="121" x="101" y="216.895">una nota di andata</text><polygon fill="#181818" points="159.5,250.0938,149.5,254.0938,159.5,258.0938,155.5,254.0938" style="stroke:#181818;stroke-width:1.0;"/><line style="stroke:#181818;stroke-width:1.0;" x1="153.5" x2="326.5" y1="254.0938" y2="254.0938"/><text fill="#000000" font-family="sans-serif" font-size="13" lengthAdjust="spacing" textLength="105" x="165.5" y="249.0278">... e aridanghete</text><path d="M332,234.9609 L332,259.9609 L471,259.9609 L471,244.9609 L461,234.9609 L332,234.9609 " fill="#FEFFDD" style="stroke:#181818;stroke-width:0.5;"/><path d="M461,234.9609 L461,244.9609 L471,244.9609 L461,234.9609 " fill="#FEFFDD" style="stroke:#181818;stroke-width:0.5;"/><text fill="#000000" font-family="sans-serif" font-size="13" lengthAdjust="spacing" textLength="118" x="338" y="252.0278">una nota di ritorno</text><rect fill="#EEEEEE" height="3" style="stroke:#EEEEEE;stroke-width:1.0;" width="520.5" x="0" y="285.6602"/><line style="stroke:#000000;stroke-width:1.0;" x1="0" x2="520.5" y1="285.6602" y2="285.6602"/><line style="stroke:#000000;stroke-width:1.0;" x1="0" x2="520.5" y1="288.6602" y2="288.6602"/><rect fill="#EEEEEE" height="23.1328" style="stroke:#000000;stroke-width:2.0;" width="69" x="225.75" y="275.0938"/><text fill="#000000" font-family="sans-serif" font-size="13" font-weight="bold" lengthAdjust="spacing" textLength="50" x="231.75" y="291.1606">Style 2</text><polygon fill="#181818" points="315.5,335.9258,325.5,339.9258,315.5,343.9258,319.5,339.9258" style="stroke:#181818;stroke-width:1.0;"/><line style="stroke:#181818;stroke-width:1.0;" x1="242.5" x2="321.5" y1="339.9258" y2="339.9258"/><text fill="#000000" font-family="sans-serif" font-size="13" lengthAdjust="spacing" textLength="61" x="249.5" y="334.8599">andata ...</text><path d="M332,313.2266 L332,353.2266 L510,353.2266 L510,323.2266 L500,313.2266 L332,313.2266 " fill="#FEFFDD" style="stroke:#181818;stroke-width:0.5;"/><path d="M500,313.2266 L500,323.2266 L510,323.2266 L500,313.2266 " fill="#FEFFDD" style="stroke:#181818;stroke-width:0.5;"/><text fill="#000000" font-family="sans-serif" font-size="13" lengthAdjust="spacing" textLength="121" x="338" y="330.2935">una nota di andata</text><text fill="#000000" font-family="sans-serif" font-size="13" lengthAdjust="spacing" textLength="157" x="338" y="345.4263">una nota piuttosto lunga</text><path d="M118,363.4922 L118,388.4922 L357,388.4922 L357,373.4922 L347,363.4922 L118,363.4922 " fill="#FEFFDD" style="stroke:#181818;stroke-width:0.5;"/><path d="M347,363.4922 L347,373.4922 L357,373.4922 L347,363.4922 " fill="#FEFFDD" style="stroke:#181818;stroke-width:0.5;"/><text fill="#000000" font-family="sans-serif" font-size="13" lengthAdjust="spacing" textLength="218" x="124" y="380.5591">another very long, exaustive, note</text><!--MD5=[65c1f3c86bf415da56611f446de74712]
@startuml

''' annotazioni
'''    STILE 1
== Style 1 ==
node1 -> node2 : andata ... 
note right: una nota di andata
node1 <- node2 : ... e ritorno
note left: una nota di ritorno

'''    NOTE OVER stile 1
note across: a very long, exaustive, note

node2 -> node3 : andata ... 
note left: una nota di andata
node1 <- node3 : ... e aridanghete
note right: una nota di ritorno

'''    STILE 2
== Style 2 ==
node2 -> node3 : andata ... 
note right
    una nota di andata
    una nota piuttosto lunga
end note

'''    NOTE OVER stile 2
note across
	another very long, exaustive, note
end note

@enduml

@startuml

== Style 1 ==
node1 -> node2 : andata ... 
note right: una nota di andata
node1 <- node2 : ... e ritorno
note left: una nota di ritorno

note across: a very long, exaustive, note

node2 -> node3 : andata ... 
note left: una nota di andata
node1 <- node3 : ... e aridanghete
note right: una nota di ritorno

== Style 2 ==
node2 -> node3 : andata ... 
note right
    una nota di andata
    una nota piuttosto lunga
end note

note across
	another very long, exaustive, note
end note

@enduml

PlantUML version 1.2022.6(Tue Jun 21 17:34:49 UTC 2022)
(GPL source distribution)
Java Runtime: Java(TM) SE Runtime Environment
JVM: Java HotSpot(TM) 64-Bit Server VM
Default Encoding: UTF-8
Language: en
Country: US
--></g></svg>