<?xml version="1.0" encoding="UTF-8" standalone="no"?><svg xmlns="http://www.w3.org/2000/svg" xmlns:xlink="http://www.w3.org/1999/xlink" contentStyleType="text/css" height="1026px" preserveAspectRatio="none" style="width:2772px;height:1026px;background:#FFFFFF;" version="1.1" viewBox="0 0 2772 1026" width="2772px" zoomAndPan="magnify"><defs/><g><rect height="42.2969" style="stroke:#00000000;stroke-width:1.0;fill:none;" width="186" x="1286.14" y="5"/><text fill="#000000" font-family="sans-serif" font-size="14" font-weight="bold" lengthAdjust="spacing" textLength="160" x="1299.14" y="30.9951">Project Architecture</text><!--MD5=[3290a3d2b9c0a2561ce47a49167ad83c]
cluster armor--><g id="cluster_armor"><path d="M1758.5,516.2969 L1822.5,516.2969 A3.75,3.75 0 0 1 1825,518.7969 L1832,554.5938 L1987.5,554.5938 A2.5,2.5 0 0 1 1990,557.0938 L1990,870.2969 A2.5,2.5 0 0 1 1987.5,872.7969 L1758.5,872.7969 A2.5,2.5 0 0 1 1756,870.2969 L1756,518.7969 A2.5,2.5 0 0 1 1758.5,516.2969 " style="stroke:#000000;stroke-width:1.5;fill:none;"/><line style="stroke:#000000;stroke-width:1.5;fill:none;" x1="1756" x2="1832" y1="554.5938" y2="554.5938"/><text fill="#000000" font-family="sans-serif" font-size="14" font-weight="bold" lengthAdjust="spacing" textLength="47" x="1768" y="539.292">armor</text></g><!--MD5=[72ec1ef6db8df4b6bc510ac98a681591]
cluster RCL Mission Manager--><g id="cluster_RCL Mission Manager"><path d="M1136.5,347.2969 L1320.5,347.2969 A3.75,3.75 0 0 1 1323,349.7969 L1330,385.5938 L1589.5,385.5938 A2.5,2.5 0 0 1 1592,388.0938 L1592,642.7969 A2.5,2.5 0 0 1 1589.5,645.2969 L1136.5,645.2969 A2.5,2.5 0 0 1 1134,642.7969 L1134,349.7969 A2.5,2.5 0 0 1 1136.5,347.2969 " style="stroke:#000000;stroke-width:1.5;fill:none;"/><line style="stroke:#000000;stroke-width:1.5;fill:none;" x1="1134" x2="1330" y1="385.5938" y2="385.5938"/><text fill="#000000" font-family="sans-serif" font-size="14" font-weight="bold" lengthAdjust="spacing" textLength="167" x="1146" y="370.292">RCL Mission Manager</text></g><!--MD5=[50a2f19a8c034c1bda91c457de53d287]
cluster RCL ROSPlan--><g id="cluster_RCL ROSPlan"><path d="M2067.5,59.2969 L2184.5,59.2969 A3.75,3.75 0 0 1 2187,61.7969 L2194,97.5938 L2716.5,97.5938 A2.5,2.5 0 0 1 2719,100.0938 L2719,992.7969 A2.5,2.5 0 0 1 2716.5,995.2969 L2067.5,995.2969 A2.5,2.5 0 0 1 2065,992.7969 L2065,61.7969 A2.5,2.5 0 0 1 2067.5,59.2969 " style="stroke:#000000;stroke-width:1.5;fill:none;"/><line style="stroke:#000000;stroke-width:1.5;fill:none;" x1="2065" x2="2194" y1="97.5938" y2="97.5938"/><text fill="#000000" font-family="sans-serif" font-size="14" font-weight="bold" lengthAdjust="spacing" textLength="100" x="2077" y="82.292">RCL ROSPlan</text></g><!--MD5=[d52787fb9afba253a951849d442c2cd9]
cluster ROSPLAN_ACTIONS--><g id="cluster_ROSPLAN_ACTIONS"><path d="M2291.5,508.2969 L2472.5,508.2969 A3.75,3.75 0 0 1 2475,510.7969 L2482,546.5938 L2600.5,546.5938 A2.5,2.5 0 0 1 2603,549.0938 L2603,878.7969 A2.5,2.5 0 0 1 2600.5,881.2969 L2291.5,881.2969 A2.5,2.5 0 0 1 2289,878.7969 L2289,510.7969 A2.5,2.5 0 0 1 2291.5,508.2969 " style="stroke:#000000;stroke-width:1.5;fill:none;"/><line style="stroke:#000000;stroke-width:1.5;fill:none;" x1="2289" x2="2482" y1="546.5938" y2="546.5938"/><text fill="#000000" font-family="sans-serif" font-size="14" font-weight="bold" lengthAdjust="spacing" textLength="164" x="2301" y="531.292">RCL ROSPlan Actions</text></g><!--MD5=[e82bd7715a39275f8d15834ea1ee8157]
cluster erl3--><g id="cluster_erl3"><path d="M1173.5,178.2969 L1221.5,178.2969 A3.75,3.75 0 0 1 1224,180.7969 L1231,216.5938 L1545.5,216.5938 A2.5,2.5 0 0 1 1548,219.0938 L1548,304.7969 A2.5,2.5 0 0 1 1545.5,307.2969 L1173.5,307.2969 A2.5,2.5 0 0 1 1171,304.7969 L1171,180.7969 A2.5,2.5 0 0 1 1173.5,178.2969 " style="stroke:#000000;stroke-width:1.5;fill:none;"/><line style="stroke:#000000;stroke-width:1.5;fill:none;" x1="1171" x2="1231" y1="216.5938" y2="216.5938"/><text fill="#000000" font-family="sans-serif" font-size="14" font-weight="bold" lengthAdjust="spacing" textLength="31" x="1183" y="201.292">erl3</text></g><!--MD5=[27e3bb7b1570ed677aba69e5ad0dddbd]
cluster RCL Vision--><g id="cluster_RCL Vision"><path d="M884.5,178.2969 L984.5,178.2969 A3.75,3.75 0 0 1 987,180.7969 L994,216.5938 L1107.5,216.5938 A2.5,2.5 0 0 1 1110,219.0938 L1110,473.7969 A2.5,2.5 0 0 1 1107.5,476.2969 L884.5,476.2969 A2.5,2.5 0 0 1 882,473.7969 L882,180.7969 A2.5,2.5 0 0 1 884.5,178.2969 " style="stroke:#000000;stroke-width:1.5;fill:none;"/><line style="stroke:#000000;stroke-width:1.5;fill:none;" x1="882" x2="994" y1="216.5938" y2="216.5938"/><text fill="#000000" font-family="sans-serif" font-size="14" font-weight="bold" lengthAdjust="spacing" textLength="83" x="894" y="201.292">RCL Vision</text></g><!--MD5=[4a4f0e6043b47fc8cab18a797167e00e]
cluster ENVIRONMENT--><g id="cluster_ENVIRONMENT"><path d="M8.5,339.2969 L206.5,339.2969 A3.75,3.75 0 0 1 209,341.7969 L216,377.5938 L395.5,377.5938 A2.5,2.5 0 0 1 398,380.0938 L398,650.7969 A2.5,2.5 0 0 1 395.5,653.2969 L8.5,653.2969 A2.5,2.5 0 0 1 6,650.7969 L6,341.7969 A2.5,2.5 0 0 1 8.5,339.2969 " style="stroke:#000000;stroke-width:1.5;fill:none;"/><line style="stroke:#000000;stroke-width:1.5;fill:none;" x1="6" x2="216" y1="377.5938" y2="377.5938"/><text fill="#000000" font-family="sans-serif" font-size="14" font-weight="bold" lengthAdjust="spacing" textLength="181" x="18" y="362.292">Simulated Environment</text></g><!--MD5=[f8c67dae79871263af26454ede3c252f]
cluster moveit--><g id="cluster_moveit"><path d="M834.5,516.2969 L904.5,516.2969 A3.75,3.75 0 0 1 907,518.7969 L914,554.5938 L967.5,554.5938 A2.5,2.5 0 0 1 970,557.0938 L970,642.7969 A2.5,2.5 0 0 1 967.5,645.2969 L834.5,645.2969 A2.5,2.5 0 0 1 832,642.7969 L832,518.7969 A2.5,2.5 0 0 1 834.5,516.2969 " style="stroke:#000000;stroke-width:1.5;fill:none;"/><line style="stroke:#000000;stroke-width:1.5;fill:none;" x1="832" x2="914" y1="554.5938" y2="554.5938"/><text fill="#000000" font-family="sans-serif" font-size="14" font-weight="bold" lengthAdjust="spacing" textLength="53" x="844" y="539.292">moveit</text></g><!--MD5=[769a1f78ddba76244a83e5d38770c221]
cluster NAVSTACK--><g id="cluster_NAVSTACK"><path d="M440.5,508.2969 L585.5,508.2969 A3.75,3.75 0 0 1 588,510.7969 L595,546.5938 L763.5,546.5938 A2.5,2.5 0 0 1 766,549.0938 L766,878.7969 A2.5,2.5 0 0 1 763.5,881.2969 L440.5,881.2969 A2.5,2.5 0 0 1 438,878.7969 L438,510.7969 A2.5,2.5 0 0 1 440.5,508.2969 " style="stroke:#000000;stroke-width:1.5;fill:none;"/><line style="stroke:#000000;stroke-width:1.5;fill:none;" x1="438" x2="595" y1="546.5938" y2="546.5938"/><text fill="#000000" font-family="sans-serif" font-size="14" font-weight="bold" lengthAdjust="spacing" textLength="128" x="450" y="531.292">navigation stack</text></g><!--MD5=[fb57ac82275689eb067e1d4d79e0f27c]
cluster RCL Movement Controller--><g id="cluster_RCL Movement Controller"><path d="M800.5,685.2969 L1018.5,685.2969 A3.75,3.75 0 0 1 1021,687.7969 L1028,723.5938 L1729.5,723.5938 A2.5,2.5 0 0 1 1732,726.0938 L1732,1016.7969 A2.5,2.5 0 0 1 1729.5,1019.2969 L800.5,1019.2969 A2.5,2.5 0 0 1 798,1016.7969 L798,687.7969 A2.5,2.5 0 0 1 800.5,685.2969 " style="stroke:#000000;stroke-width:1.5;fill:none;"/><line style="stroke:#000000;stroke-width:1.5;fill:none;" x1="798" x2="1028" y1="723.5938" y2="723.5938"/><text fill="#000000" font-family="sans-serif" font-size="14" font-weight="bold" lengthAdjust="spacing" textLength="201" x="810" y="708.292">RCL Movement Controller</text></g><!--MD5=[d40cf5c215657fb3fe2b2c6fb7de3704]
cluster behaviours--><g id="cluster_behaviours"><path d="M1333.5,744.2969 L1438.5,744.2969 A3.75,3.75 0 0 1 1441,746.7969 L1448,782.5938 L1705.5,782.5938 A2.5,2.5 0 0 1 1708,785.0938 L1708,992.7969 A2.5,2.5 0 0 1 1705.5,995.2969 L1333.5,995.2969 A2.5,2.5 0 0 1 1331,992.7969 L1331,746.7969 A2.5,2.5 0 0 1 1333.5,744.2969 " style="stroke:#000000;stroke-width:1.5;fill:none;"/><line style="stroke:#000000;stroke-width:1.5;fill:none;" x1="1331" x2="1448" y1="782.5938" y2="782.5938"/><text fill="#000000" font-family="sans-serif" font-size="14" font-weight="bold" lengthAdjust="spacing" textLength="88" x="1343" y="767.292">behaviours</text></g><!--MD5=[d966621a06b379d0f2866da504c15a36]
entity ARMOR--><g id="elem_ARMOR"><path d="M1829.5,805.7969 C1829.5,795.7969 1873,795.7969 1873,795.7969 C1873,795.7969 1916.5,795.7969 1916.5,805.7969 L1916.5,847.0938 C1916.5,857.0938 1873,857.0938 1873,857.0938 C1873,857.0938 1829.5,857.0938 1829.5,847.0938 L1829.5,805.7969 " fill="#F1F1F1" style="stroke:#181818;stroke-width:0.5;"/><path d="M1829.5,805.7969 C1829.5,815.7969 1873,815.7969 1873,815.7969 C1873,815.7969 1916.5,815.7969 1916.5,805.7969 " fill="none" style="stroke:#181818;stroke-width:0.5;"/><text fill="#000000" font-family="sans-serif" font-size="14" lengthAdjust="spacing" textLength="51" x="1847.5" y="840.792">aRMOR</text></g><!--MD5=[0f6829ecb44924df652b3631a96aadbd]
entity RCL_ARMOR--><g id="elem_RCL_ARMOR"><rect fill="#F1F1F1" height="62.2969" rx="2.5" ry="2.5" style="stroke:#181818;stroke-width:0.5;" width="202" x="1772" y="567.2969"/><rect fill="#F1F1F1" height="10" style="stroke:#181818;stroke-width:0.5;" width="15" x="1954" y="572.2969"/><rect fill="#F1F1F1" height="2" style="stroke:#181818;stroke-width:0.5;" width="4" x="1952" y="574.2969"/><rect fill="#F1F1F1" height="2" style="stroke:#181818;stroke-width:0.5;" width="4" x="1952" y="578.2969"/><text fill="#000000" font-family="sans-serif" font-size="14" lengthAdjust="spacing" textLength="146" x="1795" y="608.292">RCL aRMOR interface</text></g><!--MD5=[9a0d4b0340012a44161447de88fcc332]
entity MISSION_MANAGER--><g id="elem_MISSION_MANAGER"><rect fill="#F1F1F1" height="62.2969" rx="2.5" ry="2.5" style="stroke:#181818;stroke-width:0.5;" width="205" x="1149.5" y="398.2969"/><rect fill="#F1F1F1" height="10" style="stroke:#181818;stroke-width:0.5;" width="15" x="1334.5" y="403.2969"/><rect fill="#F1F1F1" height="2" style="stroke:#181818;stroke-width:0.5;" width="4" x="1332.5" y="405.2969"/><rect fill="#F1F1F1" height="2" style="stroke:#181818;stroke-width:0.5;" width="4" x="1332.5" y="409.2969"/><text fill="#000000" font-family="sans-serif" font-size="14" lengthAdjust="spacing" textLength="149" x="1172.5" y="439.292">RCL mission manager</text></g><!--MD5=[85f7837dfbb1d6f968ca872290da27d1]
entity MANIP_UNIT--><g id="elem_MANIP_UNIT"><rect fill="#F1F1F1" height="62.2969" rx="2.5" ry="2.5" style="stroke:#181818;stroke-width:0.5;" width="205" x="1149.5" y="567.2969"/><rect fill="#F1F1F1" height="10" style="stroke:#181818;stroke-width:0.5;" width="15" x="1334.5" y="572.2969"/><rect fill="#F1F1F1" height="2" style="stroke:#181818;stroke-width:0.5;" width="4" x="1332.5" y="574.2969"/><rect fill="#F1F1F1" height="2" style="stroke:#181818;stroke-width:0.5;" width="4" x="1332.5" y="578.2969"/><text fill="#000000" font-family="sans-serif" font-size="14" lengthAdjust="spacing" textLength="149" x="1172.5" y="608.292">RCL manipulation unit</text></g><!--MD5=[d3c6a3352a82e16776188b2bc459db07]
entity NAV_UNIT--><g id="elem_NAV_UNIT"><rect fill="#F1F1F1" height="62.2969" rx="2.5" ry="2.5" style="stroke:#181818;stroke-width:0.5;" width="187" x="1389.5" y="398.2969"/><rect fill="#F1F1F1" height="10" style="stroke:#181818;stroke-width:0.5;" width="15" x="1556.5" y="403.2969"/><rect fill="#F1F1F1" height="2" style="stroke:#181818;stroke-width:0.5;" width="4" x="1554.5" y="405.2969"/><rect fill="#F1F1F1" height="2" style="stroke:#181818;stroke-width:0.5;" width="4" x="1554.5" y="409.2969"/><text fill="#000000" font-family="sans-serif" font-size="14" lengthAdjust="spacing" textLength="131" x="1412.5" y="439.292">RCL navigation unit</text></g><!--MD5=[8fd27179cfada5ccc37b63382e72f2b8]
entity ROSPLAN--><g id="elem_ROSPLAN"><rect fill="#F1F1F1" height="62.2969" rx="2.5" ry="2.5" style="stroke:#181818;stroke-width:0.5;" width="238" x="2465" y="917.2969"/><rect fill="#F1F1F1" height="10" style="stroke:#181818;stroke-width:0.5;" width="15" x="2683" y="922.2969"/><rect fill="#F1F1F1" height="2" style="stroke:#181818;stroke-width:0.5;" width="4" x="2681" y="924.2969"/><rect fill="#F1F1F1" height="2" style="stroke:#181818;stroke-width:0.5;" width="4" x="2681" y="928.2969"/><text fill="#000000" font-family="sans-serif" font-size="14" lengthAdjust="spacing" textLength="182" x="2488" y="958.292">ROSPlan pipeline manager</text></g><!--MD5=[1ec02bda1596c59b8c0e4ea7203accd3]
entity RCL_KBTOOLS--><g id="elem_RCL_KBTOOLS"><rect fill="#F1F1F1" height="62.2969" rx="2.5" ry="2.5" style="stroke:#181818;stroke-width:0.5;" width="145" x="2557.5" y="398.2969"/><rect fill="#F1F1F1" height="10" style="stroke:#181818;stroke-width:0.5;" width="15" x="2682.5" y="403.2969"/><rect fill="#F1F1F1" height="2" style="stroke:#181818;stroke-width:0.5;" width="4" x="2680.5" y="405.2969"/><rect fill="#F1F1F1" height="2" style="stroke:#181818;stroke-width:0.5;" width="4" x="2680.5" y="409.2969"/><text fill="#000000" font-family="sans-serif" font-size="14" lengthAdjust="spacing" textLength="89" x="2580.5" y="439.292">RCL kb_tools</text></g><!--MD5=[f0473ce8c4294036dd7f66e3469f33ba]
entity ROSPLANKB--><g id="elem_ROSPLANKB"><path d="M2414.5,239.7969 C2414.5,229.7969 2521,229.7969 2521,229.7969 C2521,229.7969 2627.5,229.7969 2627.5,239.7969 L2627.5,281.0938 C2627.5,291.0938 2521,291.0938 2521,291.0938 C2521,291.0938 2414.5,291.0938 2414.5,281.0938 L2414.5,239.7969 " fill="#F1F1F1" style="stroke:#181818;stroke-width:0.5;"/><path d="M2414.5,239.7969 C2414.5,249.7969 2521,249.7969 2521,249.7969 C2521,249.7969 2627.5,249.7969 2627.5,239.7969 " fill="none" style="stroke:#181818;stroke-width:0.5;"/><text fill="#000000" font-family="sans-serif" font-size="14" lengthAdjust="spacing" textLength="177" x="2432.5" y="274.792">ROSPlan knowledge base</text></g><!--MD5=[51f810b966fae3ed1e8d909503f3944c]
entity ROSPLAN_COMPONENTS--><g id="elem_ROSPLAN_COMPONENTS"><rect fill="#F1F1F1" height="62.2969" rx="2.5" ry="2.5" style="stroke:#181818;stroke-width:0.5;" width="207" x="2277.5" y="398.2969"/><rect fill="#F1F1F1" height="10" style="stroke:#181818;stroke-width:0.5;" width="15" x="2464.5" y="403.2969"/><rect fill="#F1F1F1" height="2" style="stroke:#181818;stroke-width:0.5;" width="4" x="2462.5" y="405.2969"/><rect fill="#F1F1F1" height="2" style="stroke:#181818;stroke-width:0.5;" width="4" x="2462.5" y="409.2969"/><text fill="#000000" font-family="sans-serif" font-size="14" lengthAdjust="spacing" textLength="151" x="2300.5" y="439.292">ROSPlan components</text></g><!--MD5=[1c1ddfab09557eb457f2e2932fb59e45]
entity DOMAIN--><g id="elem_DOMAIN"><path d="M2492,112.7969 L2492,160.0938 A2.5,2.5 0 0 0 2494.5,162.5938 L2649.5,162.5938 A2.5,2.5 0 0 0 2652,160.0938 L2652,120.2969 L2642,110.2969 L2494.5,110.2969 A2.5,2.5 0 0 0 2492,112.7969 " fill="#F1F1F1" style="stroke:#181818;stroke-width:0.5;"/><path d="M2642,110.2969 L2642,117.7969 A2.5,2.5 0 0 0 2644.5,120.2969 L2652,120.2969 " fill="#F1F1F1" style="stroke:#181818;stroke-width:0.5;"/><text fill="#000000" font-family="sans-serif" font-size="14" lengthAdjust="spacing" textLength="124" x="2510" y="141.292">PDDL RCL domain</text></g><!--MD5=[e79c8e6bb3a9323b12a58d750a988a49]
entity PROBLEM--><g id="elem_PROBLEM"><path d="M2291,112.7969 L2291,160.0938 A2.5,2.5 0 0 0 2293.5,162.5938 L2454.5,162.5938 A2.5,2.5 0 0 0 2457,160.0938 L2457,120.2969 L2447,110.2969 L2293.5,110.2969 A2.5,2.5 0 0 0 2291,112.7969 " fill="#F1F1F1" style="stroke:#181818;stroke-width:0.5;"/><path d="M2447,110.2969 L2447,117.7969 A2.5,2.5 0 0 0 2449.5,120.2969 L2457,120.2969 " fill="#F1F1F1" style="stroke:#181818;stroke-width:0.5;"/><text fill="#000000" font-family="sans-serif" font-size="14" lengthAdjust="spacing" textLength="130" x="2309" y="141.292">PDDL RCL problem</text></g><!--MD5=[f538cd5cfea9b9f400fdca51e86c13d1]
entity FEEDBACK--><g id="elem_FEEDBACK"><polygon fill="#F1F1F1" points="2080.5,805.2969,2090.5,795.2969,2265.5,795.2969,2265.5,847.5938,2255.5,857.5938,2080.5,857.5938,2080.5,805.2969" style="stroke:#181818;stroke-width:0.5;"/><line style="stroke:#181818;stroke-width:0.5;" x1="2255.5" x2="2265.5" y1="805.2969" y2="795.2969"/><line style="stroke:#181818;stroke-width:0.5;" x1="2080.5" x2="2255.5" y1="805.2969" y2="805.2969"/><line style="stroke:#181818;stroke-width:0.5;" x1="2255.5" x2="2255.5" y1="805.2969" y2="857.5938"/><text fill="#000000" font-family="sans-serif" font-size="14" lengthAdjust="spacing" textLength="129" x="2103.5" y="836.292">feedback manager</text></g><!--MD5=[d2a866b1738f2713b1c256c1b3b522f0]
entity REPLAN--><g id="elem_REPLAN"><polygon fill="#F1F1F1" points="2332,577.2969,2342,567.2969,2442,567.2969,2442,619.5938,2432,629.5938,2332,629.5938,2332,577.2969" style="stroke:#181818;stroke-width:0.5;"/><line style="stroke:#181818;stroke-width:0.5;" x1="2432" x2="2442" y1="577.2969" y2="567.2969"/><line style="stroke:#181818;stroke-width:0.5;" x1="2332" x2="2432" y1="577.2969" y2="577.2969"/><line style="stroke:#181818;stroke-width:0.5;" x1="2432" x2="2432" y1="577.2969" y2="629.5938"/><text fill="#000000" font-family="sans-serif" font-size="14" lengthAdjust="spacing" textLength="54" x="2355" y="608.292">REPLAN</text></g><!--MD5=[5d298df35e955cc49a562ca8c4307f68]
entity SOLVE--><g id="elem_SOLVE"><polygon fill="#F1F1F1" points="2477.5,577.2969,2487.5,567.2969,2578.5,567.2969,2578.5,619.5938,2568.5,629.5938,2477.5,629.5938,2477.5,577.2969" style="stroke:#181818;stroke-width:0.5;"/><line style="stroke:#181818;stroke-width:0.5;" x1="2568.5" x2="2578.5" y1="577.2969" y2="567.2969"/><line style="stroke:#181818;stroke-width:0.5;" x1="2477.5" x2="2568.5" y1="577.2969" y2="577.2969"/><line style="stroke:#181818;stroke-width:0.5;" x1="2568.5" x2="2568.5" y1="577.2969" y2="629.5938"/><text fill="#000000" font-family="sans-serif" font-size="14" lengthAdjust="spacing" textLength="45" x="2500.5" y="608.292">SOLVE</text></g><!--MD5=[e76728030785b4949be71f6784ddb581]
entity COLLECT--><g id="elem_COLLECT"><polygon fill="#F1F1F1" points="2332.5,805.2969,2342.5,795.2969,2451.5,795.2969,2451.5,847.5938,2441.5,857.5938,2332.5,857.5938,2332.5,805.2969" style="stroke:#181818;stroke-width:0.5;"/><line style="stroke:#181818;stroke-width:0.5;" x1="2441.5" x2="2451.5" y1="805.2969" y2="795.2969"/><line style="stroke:#181818;stroke-width:0.5;" x1="2332.5" x2="2441.5" y1="805.2969" y2="805.2969"/><line style="stroke:#181818;stroke-width:0.5;" x1="2441.5" x2="2441.5" y1="805.2969" y2="857.5938"/><text fill="#000000" font-family="sans-serif" font-size="14" lengthAdjust="spacing" textLength="63" x="2355.5" y="836.292">COLLECT</text></g><!--MD5=[0ff8cde09c95e7bd5ad5c1a367aa2e4a]
entity ORACLE--><g id="elem_ORACLE"><rect fill="#F1F1F1" height="62.2969" rx="2.5" ry="2.5" style="stroke:#181818;stroke-width:0.5;" width="130" x="1187" y="229.2969"/><rect fill="#F1F1F1" height="10" style="stroke:#181818;stroke-width:0.5;" width="15" x="1297" y="234.2969"/><rect fill="#F1F1F1" height="2" style="stroke:#181818;stroke-width:0.5;" width="4" x="1295" y="236.2969"/><rect fill="#F1F1F1" height="2" style="stroke:#181818;stroke-width:0.5;" width="4" x="1295" y="240.2969"/><text fill="#000000" font-family="sans-serif" font-size="14" lengthAdjust="spacing" textLength="74" x="1210" y="270.292">erl3 Oracle</text></g><!--MD5=[5204d39963f022b927e8638925f341ea]
entity MARKERS--><g id="elem_MARKERS"><rect fill="#F1F1F1" height="62.2969" rx="2.5" ry="2.5" style="stroke:#181818;stroke-width:0.5;" width="180" x="1352" y="229.2969"/><rect fill="#F1F1F1" height="10" style="stroke:#181818;stroke-width:0.5;" width="15" x="1512" y="234.2969"/><rect fill="#F1F1F1" height="2" style="stroke:#181818;stroke-width:0.5;" width="4" x="1510" y="236.2969"/><rect fill="#F1F1F1" height="2" style="stroke:#181818;stroke-width:0.5;" width="4" x="1510" y="240.2969"/><text fill="#000000" font-family="sans-serif" font-size="14" lengthAdjust="spacing" textLength="124" x="1375" y="270.292">markers publisher</text></g><!--MD5=[81dfe9f25295c11202e400f169df631e]
entity VISION--><g id="elem_VISION"><rect fill="#F1F1F1" height="62.2969" rx="2.5" ry="2.5" style="stroke:#181818;stroke-width:0.5;" width="196" x="898" y="229.2969"/><rect fill="#F1F1F1" height="10" style="stroke:#181818;stroke-width:0.5;" width="15" x="1074" y="234.2969"/><rect fill="#F1F1F1" height="2" style="stroke:#181818;stroke-width:0.5;" width="4" x="1072" y="236.2969"/><rect fill="#F1F1F1" height="2" style="stroke:#181818;stroke-width:0.5;" width="4" x="1072" y="240.2969"/><text fill="#000000" font-family="sans-serif" font-size="14" lengthAdjust="spacing" textLength="140" x="921" y="270.292">RCL vision detection</text></g><!--MD5=[24161752abd23858f57440938ff69201]
entity VISION_DECODE--><g id="elem_VISION_DECODE"><rect fill="#F1F1F1" height="62.2969" rx="2.5" ry="2.5" style="stroke:#181818;stroke-width:0.5;" width="188" x="906" y="398.2969"/><rect fill="#F1F1F1" height="10" style="stroke:#181818;stroke-width:0.5;" width="15" x="1074" y="403.2969"/><rect fill="#F1F1F1" height="2" style="stroke:#181818;stroke-width:0.5;" width="4" x="1072" y="405.2969"/><rect fill="#F1F1F1" height="2" style="stroke:#181818;stroke-width:0.5;" width="4" x="1072" y="409.2969"/><text fill="#000000" font-family="sans-serif" font-size="14" lengthAdjust="spacing" textLength="132" x="929" y="439.292">RCL vision decoder</text></g><!--MD5=[6c29d6d58a9f0276963dc0c6a0f4c57d]
entity RCL robot 'hunter'--><g id="elem_RCL robot 'hunter'"><rect fill="#F1F1F1" height="62.2969" rx="2.5" ry="2.5" style="stroke:#181818;stroke-width:0.5;" width="180" x="30" y="398.2969"/><rect fill="#F1F1F1" height="10" style="stroke:#181818;stroke-width:0.5;" width="15" x="190" y="403.2969"/><rect fill="#F1F1F1" height="2" style="stroke:#181818;stroke-width:0.5;" width="4" x="188" y="405.2969"/><rect fill="#F1F1F1" height="2" style="stroke:#181818;stroke-width:0.5;" width="4" x="188" y="409.2969"/><text fill="#000000" font-family="sans-serif" font-size="14" lengthAdjust="spacing" textLength="124" x="53" y="439.292">RCL robot 'hunter'</text></g><!--MD5=[bbf9db7559709992d85d6a920c748d19]
entity Gazebo--><g id="elem_Gazebo"><polygon fill="#F1F1F1" points="245,408.2969,255,398.2969,355,398.2969,355,450.5938,345,460.5938,245,460.5938,245,408.2969" style="stroke:#181818;stroke-width:0.5;"/><line style="stroke:#181818;stroke-width:0.5;" x1="345" x2="355" y1="408.2969" y2="398.2969"/><line style="stroke:#181818;stroke-width:0.5;" x1="245" x2="345" y1="408.2969" y2="408.2969"/><line style="stroke:#181818;stroke-width:0.5;" x1="345" x2="345" y1="408.2969" y2="460.5938"/><text fill="#000000" font-family="sans-serif" font-size="14" lengthAdjust="spacing" textLength="54" x="268" y="439.292">Gazebo</text></g><!--MD5=[6cc809afb1025c0910cc05bebbdf57d7]
entity RViz--><g id="elem_RViz"><polygon fill="#F1F1F1" points="77,577.2969,87,567.2969,163,567.2969,163,619.5938,153,629.5938,77,629.5938,77,577.2969" style="stroke:#181818;stroke-width:0.5;"/><line style="stroke:#181818;stroke-width:0.5;" x1="153" x2="163" y1="577.2969" y2="567.2969"/><line style="stroke:#181818;stroke-width:0.5;" x1="77" x2="153" y1="577.2969" y2="577.2969"/><line style="stroke:#181818;stroke-width:0.5;" x1="153" x2="153" y1="577.2969" y2="629.5938"/><text fill="#000000" font-family="sans-serif" font-size="14" lengthAdjust="spacing" textLength="30" x="100" y="608.292">RViz</text></g><!--MD5=[6c629335c16ba9d7cc5a2834000a699b]
entity MOVEIT--><g id="elem_MOVEIT"><rect fill="#F1F1F1" height="62.2969" rx="2.5" ry="2.5" style="stroke:#181818;stroke-width:0.5;" width="106" x="848" y="567.2969"/><rect fill="#F1F1F1" height="10" style="stroke:#181818;stroke-width:0.5;" width="15" x="934" y="572.2969"/><rect fill="#F1F1F1" height="2" style="stroke:#181818;stroke-width:0.5;" width="4" x="932" y="574.2969"/><rect fill="#F1F1F1" height="2" style="stroke:#181818;stroke-width:0.5;" width="4" x="932" y="578.2969"/><text fill="#000000" font-family="sans-serif" font-size="14" lengthAdjust="spacing" textLength="50" x="871" y="608.292">MoveIt!</text></g><!--MD5=[83ad7d60e692cef2ec1145dd32723aeb]
entity Move Base--><g id="elem_Move Base"><rect fill="#F1F1F1" height="62.2969" rx="2.5" ry="2.5" style="stroke:#181818;stroke-width:0.5;" width="132" x="462" y="567.2969"/><rect fill="#F1F1F1" height="10" style="stroke:#181818;stroke-width:0.5;" width="15" x="574" y="572.2969"/><rect fill="#F1F1F1" height="2" style="stroke:#181818;stroke-width:0.5;" width="4" x="572" y="574.2969"/><rect fill="#F1F1F1" height="2" style="stroke:#181818;stroke-width:0.5;" width="4" x="572" y="578.2969"/><text fill="#000000" font-family="sans-serif" font-size="14" lengthAdjust="spacing" textLength="76" x="485" y="608.292">Move Base</text></g><!--MD5=[4e612f954c2a999e31288b6e9c5d5f6e]
entity AMCL--><g id="elem_AMCL"><rect fill="#F1F1F1" height="62.2969" rx="2.5" ry="2.5" style="stroke:#181818;stroke-width:0.5;" width="94" x="629" y="567.2969"/><rect fill="#F1F1F1" height="10" style="stroke:#181818;stroke-width:0.5;" width="15" x="703" y="572.2969"/><rect fill="#F1F1F1" height="2" style="stroke:#181818;stroke-width:0.5;" width="4" x="701" y="574.2969"/><rect fill="#F1F1F1" height="2" style="stroke:#181818;stroke-width:0.5;" width="4" x="701" y="578.2969"/><text fill="#000000" font-family="sans-serif" font-size="14" lengthAdjust="spacing" textLength="38" x="652" y="608.292">AMCL</text></g><!--MD5=[f37e858f0886a56eaba6701c96c5ef94]
entity SLAM/GMapping--><g id="elem_SLAM/GMapping"><rect fill="#F1F1F1" height="62.2969" rx="2.5" ry="2.5" style="stroke:#181818;stroke-width:0.5;" width="168" x="462" y="795.2969"/><rect fill="#F1F1F1" height="10" style="stroke:#181818;stroke-width:0.5;" width="15" x="610" y="800.2969"/><rect fill="#F1F1F1" height="2" style="stroke:#181818;stroke-width:0.5;" width="4" x="608" y="802.2969"/><rect fill="#F1F1F1" height="2" style="stroke:#181818;stroke-width:0.5;" width="4" x="608" y="806.2969"/><text fill="#000000" font-family="sans-serif" font-size="14" lengthAdjust="spacing" textLength="112" x="485" y="836.292">SLAM/GMapping</text></g><!--MD5=[80ad804a48cb6a09fe122341649e624a]
entity MOVEMENT--><g id="elem_MOVEMENT"><rect fill="#F1F1F1" height="62.2969" rx="2.5" ry="2.5" style="stroke:#181818;stroke-width:0.5;" width="222" x="1093" y="795.2969"/><rect fill="#F1F1F1" height="10" style="stroke:#181818;stroke-width:0.5;" width="15" x="1295" y="800.2969"/><rect fill="#F1F1F1" height="2" style="stroke:#181818;stroke-width:0.5;" width="4" x="1293" y="802.2969"/><rect fill="#F1F1F1" height="2" style="stroke:#181818;stroke-width:0.5;" width="4" x="1293" y="806.2969"/><text fill="#000000" font-family="sans-serif" font-size="14" lengthAdjust="spacing" textLength="166" x="1116" y="836.292">RCL navigation manager</text></g><!--MD5=[ecfc7fc8bacca92c250605c7d15849a2]
entity MANIPULATION--><g id="elem_MANIPULATION"><rect fill="#F1F1F1" height="62.2969" rx="2.5" ry="2.5" style="stroke:#181818;stroke-width:0.5;" width="244" x="814" y="795.2969"/><rect fill="#F1F1F1" height="10" style="stroke:#181818;stroke-width:0.5;" width="15" x="1038" y="800.2969"/><rect fill="#F1F1F1" height="2" style="stroke:#181818;stroke-width:0.5;" width="4" x="1036" y="802.2969"/><rect fill="#F1F1F1" height="2" style="stroke:#181818;stroke-width:0.5;" width="4" x="1036" y="806.2969"/><text fill="#000000" font-family="sans-serif" font-size="14" lengthAdjust="spacing" textLength="188" x="837" y="836.292">RCL manipulation controller</text></g><!--MD5=[3bce05297d300cfb2c59ee95a7d98da5]
entity bug_m--><g id="elem_bug_m"><polygon fill="#F1F1F1" points="1381.5,805.2969,1391.5,795.2969,1484.5,795.2969,1484.5,847.5938,1474.5,857.5938,1381.5,857.5938,1381.5,805.2969" style="stroke:#181818;stroke-width:0.5;"/><line style="stroke:#181818;stroke-width:0.5;" x1="1474.5" x2="1484.5" y1="805.2969" y2="795.2969"/><line style="stroke:#181818;stroke-width:0.5;" x1="1381.5" x2="1474.5" y1="805.2969" y2="805.2969"/><line style="stroke:#181818;stroke-width:0.5;" x1="1474.5" x2="1474.5" y1="805.2969" y2="857.5938"/><text fill="#000000" font-family="sans-serif" font-size="14" lengthAdjust="spacing" textLength="47" x="1404.5" y="836.292">bug_m</text></g><!--MD5=[d89e97997296693730c3fee15c3dce4b]
entity move_base_nav--><g id="elem_move_base_nav"><polygon fill="#F1F1F1" points="1520,805.2969,1530,795.2969,1686,795.2969,1686,847.5938,1676,857.5938,1520,857.5938,1520,805.2969" style="stroke:#181818;stroke-width:0.5;"/><line style="stroke:#181818;stroke-width:0.5;" x1="1676" x2="1686" y1="805.2969" y2="795.2969"/><line style="stroke:#181818;stroke-width:0.5;" x1="1520" x2="1676" y1="805.2969" y2="805.2969"/><line style="stroke:#181818;stroke-width:0.5;" x1="1676" x2="1676" y1="805.2969" y2="857.5938"/><text fill="#000000" font-family="sans-serif" font-size="14" lengthAdjust="spacing" textLength="110" x="1543" y="836.292">move_base_nav</text></g><!--MD5=[b8645edb20703ee1fdcef13886479323]
entity head_orientation--><g id="elem_head_orientation"><polygon fill="#F1F1F1" points="1347,927.2969,1357,917.2969,1519,917.2969,1519,969.5938,1509,979.5938,1347,979.5938,1347,927.2969" style="stroke:#181818;stroke-width:0.5;"/><line style="stroke:#181818;stroke-width:0.5;" x1="1509" x2="1519" y1="927.2969" y2="917.2969"/><line style="stroke:#181818;stroke-width:0.5;" x1="1347" x2="1509" y1="927.2969" y2="927.2969"/><line style="stroke:#181818;stroke-width:0.5;" x1="1509" x2="1509" y1="927.2969" y2="979.5938"/><text fill="#000000" font-family="sans-serif" font-size="14" lengthAdjust="spacing" textLength="116" x="1370" y="958.292">head_orientation</text></g><!--MD5=[12b301ae74e92ec17dcb045da6d8c140]
entity go_to_point--><g id="elem_go_to_point"><polygon fill="#F1F1F1" points="1554.5,927.2969,1564.5,917.2969,1691.5,917.2969,1691.5,969.5938,1681.5,979.5938,1554.5,979.5938,1554.5,927.2969" style="stroke:#181818;stroke-width:0.5;"/><line style="stroke:#181818;stroke-width:0.5;" x1="1681.5" x2="1691.5" y1="927.2969" y2="917.2969"/><line style="stroke:#181818;stroke-width:0.5;" x1="1554.5" x2="1681.5" y1="927.2969" y2="927.2969"/><line style="stroke:#181818;stroke-width:0.5;" x1="1681.5" x2="1681.5" y1="927.2969" y2="979.5938"/><text fill="#000000" font-family="sans-serif" font-size="14" lengthAdjust="spacing" textLength="81" x="1577.5" y="958.292">go_to_point</text></g><!--MD5=[baa7171b179f334bc22278a098c5fa40]
link RCL_ARMOR to ARMOR--><g id="link_RCL_ARMOR_ARMOR"><path codeLine="13" d="M1873,629.3069 C1873,672.6569 1873,752.3069 1873,795.5169 " fill="none" id="RCL_ARMOR-ARMOR" style="stroke:#181818;stroke-width:1.0;"/></g><!--MD5=[0aab3e68137ee0dacbe649f48fd6cdbf]
link MISSION_MANAGER to MANIP_UNIT--><g id="link_MISSION_MANAGER_MANIP_UNIT"><path codeLine="21" d="M1252,460.5369 C1252,490.8069 1252,537.0969 1252,567.2769 " fill="none" id="MISSION_MANAGER-MANIP_UNIT" style="stroke:#181818;stroke-width:1.0;"/></g><!--MD5=[a37d16129c1c7b2b911d1f44117703b0]
link FEEDBACK to ROSPLAN--><g id="link_FEEDBACK_ROSPLAN"><path codeLine="37" d="M2225.87,857.4469 C2252.24,871.3669 2285.04,887.0469 2316,897.2969 C2361.95,912.5169 2413.96,923.5569 2459.86,931.3269 " fill="none" id="FEEDBACK-to-ROSPLAN" style="stroke:#181818;stroke-width:1.0;"/><polygon fill="#181818" points="2464.85,932.1569,2456.6224,926.7433,2459.9169,931.3418,2455.3183,934.6363,2464.85,932.1569" style="stroke:#181818;stroke-width:1.0;"/></g><!--MD5=[d738a5db84756bdf331c2ee9f799dc8c]
link ROSPLAN_ACTIONS to FEEDBACK--><g id="link_ROSPLAN_ACTIONS_FEEDBACK"><path codeLine="38" d="M2288.8314,614.1806 C2288.7372,614.3523 2288.6423,614.5253 2288.5467,614.6995 C2288.3554,615.0481 2288.1614,615.4017 2287.9646,615.7604 C2287.5711,616.4776 2287.1665,617.215 2286.7514,617.9716 C2285.9211,619.485 2285.0483,621.0757 2284.1361,622.7383 C2276.8384,636.0391 2267.0169,653.94 2256.2188,673.6206 C2234.6225,712.9819 2209.12,759.4619 2192.09,790.4969 " fill="none" id="ROSPLAN_ACTIONS-to-FEEDBACK" style="stroke:#181818;stroke-width:1.0;"/><polygon fill="#181818" points="2189.5,795.2169,2197.3294,789.2419,2191.9003,790.8307,2190.3115,785.4015,2189.5,795.2169" style="stroke:#181818;stroke-width:1.0;"/></g><!--MD5=[e03eb768aca26201f2e9c5aa718dbf7d]
link ROSPLAN_COMPONENTS to ROSPLAN_ACTIONS--><g id="link_ROSPLAN_COMPONENTS_ROSPLAN_ACTIONS"><path codeLine="39" d="M2341.49,460.3869 C2331.78,469.6169 2322.36,480.4869 2316,492.2969 C2314.6163,494.8656 2313.3309,497.5157 2312.137,500.2275 C2311.54,501.5834 2310.9659,502.9546 2310.4139,504.3389 C2310.1379,505.031 2309.8673,505.7263 2309.6022,506.4246 C2309.4696,506.7737 2309.3384,507.1236 2309.2085,507.4742 C2309.1436,507.6494 2309.079,507.8249 2309.0147,508.0005 " fill="none" id="ROSPLAN_COMPONENTS-ROSPLAN_ACTIONS" style="stroke:#181818;stroke-width:1.0;"/></g><!--MD5=[c1f30674e5e2e1cb6cec7ea11d2def16]
link ROSPLANKB to ROSPLAN_COMPONENTS--><g id="link_ROSPLANKB_ROSPLAN_COMPONENTS"><path codeLine="41" d="M2495.97,291.1569 C2470.65,321.3669 2431.7,367.8169 2406.28,398.1369 " fill="none" id="ROSPLANKB-ROSPLAN_COMPONENTS" style="stroke:#181818;stroke-width:1.0;"/></g><!--MD5=[66d5ba8445835e16325a510c64673028]
link ROSPLANKB to RCL_KBTOOLS--><g id="link_ROSPLANKB_RCL_KBTOOLS"><path codeLine="42" d="M2540.49,291.1569 C2560.2,321.3669 2590.53,367.8169 2610.31,398.1369 " fill="none" id="ROSPLANKB-RCL_KBTOOLS" style="stroke:#181818;stroke-width:1.0;"/></g><!--MD5=[cbd4323208b0c2c89073adee208c515f]
link ROSPLANKB to ROSPLAN--><g id="link_ROSPLANKB_ROSPLAN"><path codeLine="43" d="M2512.94,291.1169 C2501.98,339.1169 2489.08,433.2869 2540,484.2969 C2554.5,498.8169 2617.89,477.3969 2632,492.2969 C2688.57,552.0269 2636.67,595.0469 2638,677.2969 C2639.58,775.0569 2677.15,807.6969 2638,897.2969 C2634.83,904.5569 2630.03,911.2269 2624.57,917.1769 " fill="none" id="ROSPLANKB-ROSPLAN" style="stroke:#181818;stroke-width:1.0;"/></g><!--MD5=[9d9a46e644c7cbebb22e58420f598ef5]
link RCL_KBTOOLS to ROSPLAN--><g id="link_RCL_KBTOOLS_ROSPLAN"><path codeLine="44" d="M2656.96,460.4169 C2663.88,469.9569 2670.39,480.9769 2674,492.2969 C2728.67,663.7969 2765.28,742.1569 2674,897.2969 C2669.47,904.9969 2663.27,911.5969 2656.24,917.2369 " fill="none" id="RCL_KBTOOLS-ROSPLAN" style="stroke:#181818;stroke-width:1.0;"/></g><!--MD5=[3efa3e478faaae081596a985e8ab5828]
link DOMAIN to ROSPLANKB--><g id="link_DOMAIN_ROSPLANKB"><path codeLine="45" d="M2561.43,162.5769 C2553.26,182.1169 2541.94,209.2169 2533.35,229.7569 " fill="none" id="DOMAIN-ROSPLANKB" style="stroke:#181818;stroke-width:1.0;"/></g><!--MD5=[100bc635c5fe94bc7c430e84986b7ef9]
link PROBLEM to ROSPLANKB--><g id="link_PROBLEM_ROSPLANKB"><path codeLine="46" d="M2404.46,162.5769 C2428.01,182.1169 2460.65,209.2169 2485.4,229.7569 " fill="none" id="PROBLEM-ROSPLANKB" style="stroke:#181818;stroke-width:1.0;"/></g><!--MD5=[20fa6ebb47b67f574e1b89935ab02d50]
link ROSPLAN_COMPONENTS to ROSPLAN--><g id="link_ROSPLAN_COMPONENTS_ROSPLAN"><path codeLine="47" d="M2443.36,460.3969 C2464.68,469.4869 2488.96,478.5769 2512,484.2969 C2529.98,488.7669 2582.54,478.5769 2595,492.2969 C2705.1,613.5169 2629.72,836.6769 2597.02,917.2669 " fill="none" id="ROSPLAN_COMPONENTS-ROSPLAN" style="stroke:#181818;stroke-width:1.0;"/></g><!--MD5=[b98d991b687c2d10d51f6a031a420aaa]
link VISION to VISION_DECODE--><g id="link_VISION_VISION_DECODE"><path codeLine="59" d="M996.72,291.5369 C997.45,321.8069 998.56,368.0969 999.28,398.2769 " fill="none" id="VISION-VISION_DECODE" style="stroke:#181818;stroke-width:1.0;"/></g><!--MD5=[842b2851b2cd1464c25f009b2944caad]
link MISSION_MANAGER to RCL_ARMOR--><g id="link_MISSION_MANAGER_RCL_ARMOR"><path codeLine="90" d="M1306.89,460.3669 C1326.81,469.8169 1349.87,479.1269 1372,484.2969 C1467.27,506.5669 1496.05,473.1469 1592,492.2969 C1669.76,507.8169 1754.42,542.0169 1810.26,567.1869 " fill="none" id="MISSION_MANAGER-RCL_ARMOR" style="stroke:#181818;stroke-width:1.0;"/></g><!--MD5=[47a0bb2913dc37425809b0f014cd8c46]
link MISSION_MANAGER to VISION_DECODE--><g id="link_MISSION_MANAGER_VISION_DECODE"><path codeLine="91" d="M1149.24,429.2969 C1130.83,429.2969 1112.42,429.2969 1094.01,429.2969 " fill="none" id="MISSION_MANAGER-VISION_DECODE" style="stroke:#181818;stroke-width:1.0;"/></g><!--MD5=[61381d6bf0e7dae87362e132ac3ded65]
link MISSION_MANAGER to ROSPLAN--><g id="link_MISSION_MANAGER_ROSPLAN"><path codeLine="92" d="M1306.23,460.3669 C1326.27,469.9469 1349.58,479.3369 1372,484.2969 C1388.76,488.0069 1976.9,481.1969 1990,492.2969 C2129.57,610.5069 1928.44,773.4169 2063,897.2969 C2091.96,923.9569 2320.34,937.4269 2464.96,943.3569 " fill="none" id="MISSION_MANAGER-ROSPLAN" style="stroke:#181818;stroke-width:1.0;"/></g><!--MD5=[c5c4b1e1921f196da47d5d28b1a00252]
link VISION_DECODE to ORACLE--><g id="link_VISION_DECODE_ORACLE"><path codeLine="93" d="M1034.81,398.1669 C1061.12,376.1169 1098.64,346.1769 1134,323.2969 C1151.49,311.9869 1171.26,300.9669 1189.56,291.4269 " fill="none" id="VISION_DECODE-ORACLE" style="stroke:#181818;stroke-width:1.0;"/></g><!--MD5=[6c99642df7c3e0ee62e4a2668d9d2e69]
link MARKERS to NAV_UNIT--><g id="link_MARKERS_NAV_UNIT"><path codeLine="94" d="M1449.42,291.5369 C1456.86,321.8069 1468.22,368.0969 1475.63,398.2769 " fill="none" id="MARKERS-NAV_UNIT" style="stroke:#181818;stroke-width:1.0;"/></g><!--MD5=[4b3f2976f7df1cc181a264440184a09c]
link VISION to ENVIRONMENT--><g id="link_VISION_ENVIRONMENT"><path codeLine="95" d="M897.96,288.3169 C812.875,311.7619 687.1975,346.3944 582.1425,375.3444 C529.615,389.8194 482.2431,402.8738 447.6788,412.3987 C430.3966,417.1613 416.3162,421.0414 406.3943,423.7756 C403.9138,424.4592 401.6932,425.0711 399.7475,425.6073 C399.261,425.7414 398.7918,425.8707 398.3399,425.9952 " fill="none" id="VISION-ENVIRONMENT" style="stroke:#181818;stroke-width:1.0;"/></g><!--MD5=[cbaab8b86e01fba88e79cd38bb824379]
link ENVIRONMENT to MOVEIT--><g id="link_ENVIRONMENT_MOVEIT"><path codeLine="96" d="M398.0712,430.0701 C398.2517,430.0664 398.4351,430.0628 398.6213,430.0591 C398.9937,430.0517 399.3776,430.0445 399.7726,430.0373 C400.5627,430.0229 401.3978,430.009 402.2768,429.9958 C409.3085,429.8902 419.1495,429.8319 431.2491,429.9888 C455.4481,430.3025 488.6813,431.4769 526.5425,434.8544 C602.265,441.6094 696.5,457.1769 774,492.2969 C812.83,509.8869 849.48,542.5769 873.34,566.8169 " fill="none" id="ENVIRONMENT-MOVEIT" style="stroke:#181818;stroke-width:1.0;"/></g><!--MD5=[7fc6cd56aeb823ff5315d751dc17b37e]
link ENVIRONMENT to NAVSTACK--><g id="link_ENVIRONMENT_NAVSTACK"><path d="M398.3972,430.534 C400.0635,430.5874 401.9602,430.6511 404.0715,430.7264 C412.5167,431.0275 424.3959,431.5138 438.6967,432.2669 C467.2984,433.7731 505.5869,436.3469 545.4638,440.6419 C625.2175,449.2319 711.325,464.7069 739,492.2969 C743.1325,496.4169 746.5356,501.1127 749.3263,506.1802 C749.6751,506.8136 750.0144,507.4528 750.3443,508.0975 " fill="none" id="ENVIRONMENT-NAVSTACK" style="stroke:#181818;stroke-width:1.0;"/></g><!--MD5=[f18de347d8226dee32ce12fb4c34c831]
link MOVEIT to MANIPULATION--><g id="link_MOVEIT_MANIPULATION"><path codeLine="98" d="M905.65,629.3069 C912.34,672.5369 924.63,751.8669 931.33,795.1569 " fill="none" id="MOVEIT-MANIPULATION" style="stroke:#181818;stroke-width:1.0;"/></g><!--MD5=[48caf0876454b705856ed0b25a92eb24]
link NAVSTACK to MOVEMENT--><g id="link_NAVSTACK_MOVEMENT"><path codeLine="99" d="M766.0801,611.1156 C766.1455,611.205 766.2113,611.2949 766.2775,611.3851 C766.8067,612.1068 767.3591,612.8523 767.9341,613.6192 C769.0841,615.1529 770.3245,616.7719 771.6503,618.4567 C774.3018,621.8265 777.2947,625.4597 780.5888,629.2006 C793.765,644.1644 811.76,660.8519 832,669.2969 C856.93,679.6969 1050.6,665.7069 1075,677.2969 C1127.49,702.2269 1167.29,759.5969 1188.01,795.1369 " fill="none" id="NAVSTACK-MOVEMENT" style="stroke:#181818;stroke-width:1.0;"/></g><!--MD5=[a1b89f6bdf32348038cb9443e7c941f4]
link MANIP_UNIT to MANIPULATION--><g id="link_MANIP_UNIT_MANIPULATION"><path codeLine="100" d="M1165.01,629.4669 C1135.08,641.9169 1102.27,657.9969 1075,677.2969 C1027.53,710.8969 983.5,762.6669 958.21,795.2269 " fill="none" id="MANIP_UNIT-MANIPULATION" style="stroke:#181818;stroke-width:1.0;"/></g><!--MD5=[c9eba2f4952e04cb26662c685fc57773]
link NAV_UNIT to MOVEMENT--><g id="link_NAV_UNIT_MOVEMENT"><path codeLine="101" d="M1478,460.7069 C1467.84,512.2269 1439.72,616.2669 1372,669.2969 C1357.38,680.7469 1347.05,667.9569 1331,677.2969 C1281.84,705.9169 1242.51,760.7069 1221.28,794.9969 " fill="none" id="NAV_UNIT-MOVEMENT" style="stroke:#181818;stroke-width:1.0;"/></g><!--MD5=[444b32534efa1621659967c1b45da228]
link NAV_UNIT to ROSPLAN_ACTIONS--><g id="link_NAV_UNIT_ROSPLAN_ACTIONS"><path codeLine="102" d="M1576.6,431.9769 C1690.82,435.9569 1888.99,449.1269 2053,492.2969 C2109.195,507.0869 2169.1825,532.7544 2215.6163,555.0094 C2238.8331,566.1369 2258.6616,576.4113 2272.9333,584.0463 C2276.5012,585.955 2279.7218,587.6988 2282.5613,589.2497 C2283.981,590.0252 2285.3055,590.7524 2286.5304,591.4279 C2287.1428,591.7657 2287.7304,592.0905 2288.2926,592.402 C2288.4331,592.4799 2288.5721,592.5569 2288.7094,592.6331 " fill="none" id="NAV_UNIT-ROSPLAN_ACTIONS" style="stroke:#181818;stroke-width:1.0;"/></g><!--MD5=[32706d944b046edaf8ba6762d3efa289]
link ORACLE to MISSION_MANAGER--><g id="link_ORACLE_MISSION_MANAGER"><path codeLine="103" d="M1252,291.5369 C1252,321.8069 1252,368.0969 1252,398.2769 " fill="none" id="ORACLE-MISSION_MANAGER" style="stroke:#181818;stroke-width:1.0;"/></g><!--MD5=[7970213995c36b45f8d463f216b45bb6]
@startuml

''' INFOS
title Project Architecture
skinparam Padding 8
allow_mixing


''' COMPONENTS
package armor{
database "aRMOR" as ARMOR
component "RCL aRMOR interface" as RCL_ARMOR

RCL_ARMOR - - ARMOR
}

package "RCL Mission Manager"{
component "RCL mission manager" as MISSION_MANAGER
component "RCL manipulation unit" as MANIP_UNIT
component "RCL navigation unit" as NAV_UNIT

MISSION_MANAGER - - MANIP_UNIT
}

package "RCL ROSPlan" {
component "ROSPlan pipeline manager" as ROSPLAN
component "RCL kb_tools" as RCL_KBTOOLS
database "ROSPlan knowledge base" as ROSPLANKB
component "ROSPlan components" as ROSPLAN_COMPONENTS
file "PDDL RCL domain" as DOMAIN
file "PDDL RCL problem" as PROBLEM
node "feedback manager" as FEEDBACK
package "RCL ROSPlan Actions" as ROSPLAN_ACTIONS {
node REPLAN
node SOLVE
node COLLECT
}
FEEDBACK - -> ROSPLAN
ROSPLAN_ACTIONS - -> FEEDBACK
ROSPLAN_COMPONENTS - - ROSPLAN_ACTIONS

ROSPLANKB- - ROSPLAN_COMPONENTS
ROSPLANKB - - RCL_KBTOOLS
ROSPLANKB - - ROSPLAN
RCL_KBTOOLS - - ROSPLAN
DOMAIN - - ROSPLANKB
PROBLEM - - ROSPLANKB
ROSPLAN_COMPONENTS - - ROSPLAN
}

package "erl3"{
component "erl3 Oracle" as ORACLE
component "markers publisher" as MARKERS
}

package "RCL Vision" {
component "RCL vision detection" as VISION
component "RCL vision decoder" as VISION_DECODE

VISION - - VISION_DECODE
}

package "Simulated Environment" as ENVIRONMENT {
component "RCL robot 'hunter'"
node "Gazebo"
node "RViz"
}

package moveit {
component "MoveIt!" as MOVEIT
}

package "navigation stack" as NAVSTACK {
component "Move Base"
component "AMCL"
component "SLAM/GMapping"
}

package "RCL Movement Controller" {
component "RCL navigation manager" as MOVEMENT
component "RCL manipulation controller" as MANIPULATION
package behaviours {
node "bug_m"
node "move_base_nav"
node "head_orientation"
node "go_to_point"
}
}

''' CONNECTIONS
MISSION_MANAGER - - RCL_ARMOR
MISSION_MANAGER - - VISION_DECODE
MISSION_MANAGER - - ROSPLAN
VISION_DECODE - - ORACLE
MARKERS - - NAV_UNIT
VISION - - ENVIRONMENT
ENVIRONMENT - - MOVEIT
ENVIRONMENT - - NAVSTACK
MOVEIT - - MANIPULATION
NAVSTACK - - MOVEMENT
MANIP_UNIT - - MANIPULATION
NAV_UNIT - - MOVEMENT
NAV_UNIT - - ROSPLAN_ACTIONS
ORACLE - - MISSION_MANAGER

@enduml

@startuml

title Project Architecture
skinparam Padding 8
allow_mixing


package armor{
database "aRMOR" as ARMOR
component "RCL aRMOR interface" as RCL_ARMOR

RCL_ARMOR - - ARMOR
}

package "RCL Mission Manager"{
component "RCL mission manager" as MISSION_MANAGER
component "RCL manipulation unit" as MANIP_UNIT
component "RCL navigation unit" as NAV_UNIT

MISSION_MANAGER - - MANIP_UNIT
}

package "RCL ROSPlan" {
component "ROSPlan pipeline manager" as ROSPLAN
component "RCL kb_tools" as RCL_KBTOOLS
database "ROSPlan knowledge base" as ROSPLANKB
component "ROSPlan components" as ROSPLAN_COMPONENTS
file "PDDL RCL domain" as DOMAIN
file "PDDL RCL problem" as PROBLEM
node "feedback manager" as FEEDBACK
package "RCL ROSPlan Actions" as ROSPLAN_ACTIONS {
node REPLAN
node SOLVE
node COLLECT
}
FEEDBACK - -> ROSPLAN
ROSPLAN_ACTIONS - -> FEEDBACK
ROSPLAN_COMPONENTS - - ROSPLAN_ACTIONS

ROSPLANKB- - ROSPLAN_COMPONENTS
ROSPLANKB - - RCL_KBTOOLS
ROSPLANKB - - ROSPLAN
RCL_KBTOOLS - - ROSPLAN
DOMAIN - - ROSPLANKB
PROBLEM - - ROSPLANKB
ROSPLAN_COMPONENTS - - ROSPLAN
}

package "erl3"{
component "erl3 Oracle" as ORACLE
component "markers publisher" as MARKERS
}

package "RCL Vision" {
component "RCL vision detection" as VISION
component "RCL vision decoder" as VISION_DECODE

VISION - - VISION_DECODE
}

package "Simulated Environment" as ENVIRONMENT {
component "RCL robot 'hunter'"
node "Gazebo"
node "RViz"
}

package moveit {
component "MoveIt!" as MOVEIT
}

package "navigation stack" as NAVSTACK {
component "Move Base"
component "AMCL"
component "SLAM/GMapping"
}

package "RCL Movement Controller" {
component "RCL navigation manager" as MOVEMENT
component "RCL manipulation controller" as MANIPULATION
package behaviours {
node "bug_m"
node "move_base_nav"
node "head_orientation"
node "go_to_point"
}
}

MISSION_MANAGER - - RCL_ARMOR
MISSION_MANAGER - - VISION_DECODE
MISSION_MANAGER - - ROSPLAN
VISION_DECODE - - ORACLE
MARKERS - - NAV_UNIT
VISION - - ENVIRONMENT
ENVIRONMENT - - MOVEIT
ENVIRONMENT - - NAVSTACK
MOVEIT - - MANIPULATION
NAVSTACK - - MOVEMENT
MANIP_UNIT - - MANIPULATION
NAV_UNIT - - MOVEMENT
NAV_UNIT - - ROSPLAN_ACTIONS
ORACLE - - MISSION_MANAGER

@enduml

PlantUML version 1.2022.6(Tue Jun 21 17:34:49 UTC 2022)
(GPL source distribution)
Java Runtime: Java(TM) SE Runtime Environment
JVM: Java HotSpot(TM) 64-Bit Server VM
Default Encoding: UTF-8
Language: en
Country: US
--></g></svg>