<?xml version="1.0" encoding="UTF-8" standalone="no"?><svg xmlns="http://www.w3.org/2000/svg" xmlns:xlink="http://www.w3.org/1999/xlink" contentStyleType="text/css" height="1149px" preserveAspectRatio="none" style="width:1027px;height:1149px;background:#FFFFFF;" version="1.1" viewBox="0 0 1027 1149" width="1027px" zoomAndPan="magnify"><defs/><g><rect height="42.2969" style="stroke:#00000000;stroke-width:1.0;fill:none;" width="180" x="416.5" y="5"/><text fill="#000000" font-family="sans-serif" font-size="14" font-weight="bold" lengthAdjust="spacing" textLength="154" x="429.5" y="30.9951">robocluedo rosplan</text><!--MD5=[19e394d6c1aed6b811eba8f457712ea3]
cluster robocluedo rosplan--><g id="cluster_robocluedo rosplan"><path d="M8.5,59.2969 L179.5,59.2969 A3.75,3.75 0 0 1 182,61.7969 L189,97.5938 L813.5,97.5938 A2.5,2.5 0 0 1 816,100.0938 L816,1006.2969 A2.5,2.5 0 0 1 813.5,1008.7969 L8.5,1008.7969 A2.5,2.5 0 0 1 6,1006.2969 L6,61.7969 A2.5,2.5 0 0 1 8.5,59.2969 " style="stroke:#000000;stroke-width:1.5;fill:none;"/><line style="stroke:#000000;stroke-width:1.5;fill:none;" x1="6" x2="189" y1="97.5938" y2="97.5938"/><text fill="#000000" font-family="sans-serif" font-size="14" font-weight="bold" lengthAdjust="spacing" textLength="154" x="18" y="82.292">robocluedo rosplan</text></g><!--MD5=[214036b6393beeef3a45e6f3b8ce1c8f]
cluster ROSplan--><g id="cluster_ROSplan"><path d="M32.5,221.2969 L114.5,221.2969 A3.75,3.75 0 0 1 117,223.7969 L124,259.5938 L420.5,259.5938 A2.5,2.5 0 0 1 423,262.0938 L423,853.7969 A2.5,2.5 0 0 1 420.5,856.2969 L32.5,856.2969 A2.5,2.5 0 0 1 30,853.7969 L30,223.7969 A2.5,2.5 0 0 1 32.5,221.2969 " style="stroke:#000000;stroke-width:1.5;fill:none;"/><line style="stroke:#000000;stroke-width:1.5;fill:none;" x1="30" x2="124" y1="259.5938" y2="259.5938"/><text fill="#000000" font-family="sans-serif" font-size="14" font-weight="bold" lengthAdjust="spacing" textLength="65" x="42" y="244.292">ROSplan</text></g><!--MD5=[c6f484c93ca94aa050b568abff685dd1]
cluster actions dispatch--><g id="cluster_actions dispatch"><path d="M633.5,710.7969 L779.5,710.7969 A3.75,3.75 0 0 1 782,713.2969 L789,749.0938 L789.5,749.0938 A2.5,2.5 0 0 1 792,751.5938 L792,837.2969 A2.5,2.5 0 0 1 789.5,839.7969 L633.5,839.7969 A2.5,2.5 0 0 1 631,837.2969 L631,713.2969 A2.5,2.5 0 0 1 633.5,710.7969 " style="stroke:#000000;stroke-width:1.5;fill:none;"/><line style="stroke:#000000;stroke-width:1.5;fill:none;" x1="631" x2="789" y1="749.0938" y2="749.0938"/><text fill="#000000" font-family="sans-serif" font-size="14" font-weight="bold" lengthAdjust="spacing" textLength="129" x="643" y="733.792">actions dispatch</text></g><!--MD5=[c32029475a673329c3ad8c466c13ff13]
entity PDDL_DOM--><g id="elem_PDDL_DOM"><path d="M176.5,125.7969 L176.5,189.3906 A2.5,2.5 0 0 0 179,191.8906 L261,191.8906 A2.5,2.5 0 0 0 263.5,189.3906 L263.5,133.2969 L253.5,123.2969 L179,123.2969 A2.5,2.5 0 0 0 176.5,125.7969 " fill="#F1F1F1" style="stroke:#181818;stroke-width:0.5;"/><path d="M253.5,123.2969 L253.5,130.7969 A2.5,2.5 0 0 0 256,133.2969 L263.5,133.2969 " fill="#F1F1F1" style="stroke:#181818;stroke-width:0.5;"/><text fill="#000000" font-family="sans-serif" font-size="14" lengthAdjust="spacing" textLength="30" x="194.5" y="154.292">pddl</text><text fill="#000000" font-family="sans-serif" font-size="14" lengthAdjust="spacing" textLength="51" x="194.5" y="170.5889">domain</text></g><!--MD5=[032fa86fe1238ac49b7d1f0d93309a4a]
entity PDDL_PROB--><g id="elem_PDDL_PROB"><path d="M48.5,125.7969 L48.5,189.3906 A2.5,2.5 0 0 0 51,191.8906 L139,191.8906 A2.5,2.5 0 0 0 141.5,189.3906 L141.5,133.2969 L131.5,123.2969 L51,123.2969 A2.5,2.5 0 0 0 48.5,125.7969 " fill="#F1F1F1" style="stroke:#181818;stroke-width:0.5;"/><path d="M131.5,123.2969 L131.5,130.7969 A2.5,2.5 0 0 0 134,133.2969 L141.5,133.2969 " fill="#F1F1F1" style="stroke:#181818;stroke-width:0.5;"/><text fill="#000000" font-family="sans-serif" font-size="14" lengthAdjust="spacing" textLength="30" x="66.5" y="154.292">pddl</text><text fill="#000000" font-family="sans-serif" font-size="14" lengthAdjust="spacing" textLength="57" x="66.5" y="170.5889">problem</text></g><!--MD5=[f538cd5cfea9b9f400fdca51e86c13d1]
entity FEEDBACK--><g id="elem_FEEDBACK"><rect fill="#F1F1F1" height="78.5938" rx="2.5" ry="2.5" style="stroke:#181818;stroke-width:0.5;" width="120" x="639" y="913.7969"/><rect fill="#F1F1F1" height="10" style="stroke:#181818;stroke-width:0.5;" width="15" x="739" y="918.7969"/><rect fill="#F1F1F1" height="2" style="stroke:#181818;stroke-width:0.5;" width="4" x="737" y="920.7969"/><rect fill="#F1F1F1" height="2" style="stroke:#181818;stroke-width:0.5;" width="4" x="737" y="924.7969"/><text fill="#000000" font-family="sans-serif" font-size="14" lengthAdjust="spacing" textLength="64" x="662" y="954.792">feedback</text><text fill="#000000" font-family="sans-serif" font-size="14" lengthAdjust="spacing" textLength="61" x="662" y="971.0889">manager</text></g><!--MD5=[d31e9ee264fe380d83edc82a54b843cf]
entity MANAGER--><g id="elem_MANAGER"><rect fill="#F1F1F1" height="110.8906" rx="2.5" ry="2.5" style="stroke:#181818;stroke-width:0.5;" width="175" x="439.5" y="737.2969"/><rect fill="#F1F1F1" height="10" style="stroke:#181818;stroke-width:0.5;" width="15" x="594.5" y="742.2969"/><rect fill="#F1F1F1" height="2" style="stroke:#181818;stroke-width:0.5;" width="4" x="592.5" y="744.2969"/><rect fill="#F1F1F1" height="2" style="stroke:#181818;stroke-width:0.5;" width="4" x="592.5" y="748.2969"/><text fill="#000000" font-family="sans-serif" font-size="14" font-style="italic" lengthAdjust="spacing" textLength="54" x="495" y="778.292">«node»</text><text fill="#000000" font-family="sans-serif" font-size="14" lengthAdjust="spacing" textLength="59" x="462.5" y="810.5889">ROSPlan</text><text fill="#000000" font-family="sans-serif" font-size="14" lengthAdjust="spacing" textLength="119" x="462.5" y="826.8857">pipeline manager</text></g><!--MD5=[db20a57565cba22683396279855de892]
entity IKB--><g id="elem_IKB"><rect fill="#F1F1F1" height="94.5938" rx="2.5" ry="2.5" style="stroke:#181818;stroke-width:0.5;" width="139" x="629.5" y="110.2969"/><rect fill="#F1F1F1" height="10" style="stroke:#181818;stroke-width:0.5;" width="15" x="748.5" y="115.2969"/><rect fill="#F1F1F1" height="2" style="stroke:#181818;stroke-width:0.5;" width="4" x="746.5" y="117.2969"/><rect fill="#F1F1F1" height="2" style="stroke:#181818;stroke-width:0.5;" width="4" x="746.5" y="121.2969"/><text fill="#000000" font-family="sans-serif" font-size="14" font-style="italic" lengthAdjust="spacing" textLength="54" x="667" y="151.292">«node»</text><text fill="#000000" font-family="sans-serif" font-size="14" lengthAdjust="spacing" textLength="83" x="652.5" y="183.5889">KB interface</text></g><!--MD5=[3287247eb5ef114031405aae8a2c204e]
entity KB--><g id="elem_KB"><path d="M46,282.7969 C46,272.7969 121,272.7969 121,272.7969 C121,272.7969 196,272.7969 196,282.7969 L196,356.3906 C196,366.3906 121,366.3906 121,366.3906 C121,366.3906 46,366.3906 46,356.3906 L46,282.7969 " fill="#F1F1F1" style="stroke:#181818;stroke-width:0.5;"/><path d="M46,282.7969 C46,292.7969 121,292.7969 121,292.7969 C121,292.7969 196,292.7969 196,282.7969 " fill="none" style="stroke:#181818;stroke-width:0.5;"/><text fill="#000000" font-family="sans-serif" font-size="14" font-style="italic" lengthAdjust="spacing" textLength="77" x="82.5" y="317.792">«ROSPlan»</text><text fill="#000000" font-family="sans-serif" font-size="14" lengthAdjust="spacing" textLength="114" x="64" y="350.0889">knowledge base</text></g><!--MD5=[e79c8e6bb3a9323b12a58d750a988a49]
entity PROBLEM--><g id="elem_PROBLEM"><rect fill="#F1F1F1" height="94.5938" rx="2.5" ry="2.5" style="stroke:#181818;stroke-width:0.5;" width="177" x="230.5" y="272.2969"/><rect fill="#F1F1F1" height="10" style="stroke:#181818;stroke-width:0.5;" width="15" x="387.5" y="277.2969"/><rect fill="#F1F1F1" height="2" style="stroke:#181818;stroke-width:0.5;" width="4" x="385.5" y="279.2969"/><rect fill="#F1F1F1" height="2" style="stroke:#181818;stroke-width:0.5;" width="4" x="385.5" y="283.2969"/><text fill="#000000" font-family="sans-serif" font-size="14" font-style="italic" lengthAdjust="spacing" textLength="77" x="275.5" y="313.292">«ROSPlan»</text><text fill="#000000" font-family="sans-serif" font-size="14" lengthAdjust="spacing" textLength="121" x="253.5" y="345.5889">problem interface</text></g><!--MD5=[02ea8b2314e0d0d23d286ba4611632a1]
entity PLAN--><g id="elem_PLAN"><rect fill="#F1F1F1" height="94.5938" rx="2.5" ry="2.5" style="stroke:#181818;stroke-width:0.5;" width="179" x="227.5" y="427.2969"/><rect fill="#F1F1F1" height="10" style="stroke:#181818;stroke-width:0.5;" width="15" x="386.5" y="432.2969"/><rect fill="#F1F1F1" height="2" style="stroke:#181818;stroke-width:0.5;" width="4" x="384.5" y="434.2969"/><rect fill="#F1F1F1" height="2" style="stroke:#181818;stroke-width:0.5;" width="4" x="384.5" y="438.2969"/><text fill="#000000" font-family="sans-serif" font-size="14" font-style="italic" lengthAdjust="spacing" textLength="77" x="273.5" y="468.292">«ROSPlan»</text><text fill="#000000" font-family="sans-serif" font-size="14" lengthAdjust="spacing" textLength="123" x="250.5" y="500.5889">planning interface</text></g><!--MD5=[014bc5ca5401618d6f7935a2c849fb3a]
entity PARSE--><g id="elem_PARSE"><rect fill="#F1F1F1" height="94.5938" rx="2.5" ry="2.5" style="stroke:#181818;stroke-width:0.5;" width="171" x="232.5" y="582.2969"/><rect fill="#F1F1F1" height="10" style="stroke:#181818;stroke-width:0.5;" width="15" x="383.5" y="587.2969"/><rect fill="#F1F1F1" height="2" style="stroke:#181818;stroke-width:0.5;" width="4" x="381.5" y="589.2969"/><rect fill="#F1F1F1" height="2" style="stroke:#181818;stroke-width:0.5;" width="4" x="381.5" y="593.2969"/><text fill="#000000" font-family="sans-serif" font-size="14" font-style="italic" lengthAdjust="spacing" textLength="77" x="274.5" y="623.292">«ROSPlan»</text><text fill="#000000" font-family="sans-serif" font-size="14" lengthAdjust="spacing" textLength="115" x="255.5" y="655.5889">parsing interface</text></g><!--MD5=[82817458b664c54c40293f09e7dd8da8]
entity DISPATCH--><g id="elem_DISPATCH"><rect fill="#F1F1F1" height="94.5938" rx="2.5" ry="2.5" style="stroke:#181818;stroke-width:0.5;" width="162" x="240" y="745.2969"/><rect fill="#F1F1F1" height="10" style="stroke:#181818;stroke-width:0.5;" width="15" x="382" y="750.2969"/><rect fill="#F1F1F1" height="2" style="stroke:#181818;stroke-width:0.5;" width="4" x="380" y="752.2969"/><rect fill="#F1F1F1" height="2" style="stroke:#181818;stroke-width:0.5;" width="4" x="380" y="756.2969"/><text fill="#000000" font-family="sans-serif" font-size="14" font-style="italic" lengthAdjust="spacing" textLength="77" x="277.5" y="786.292">«ROSPlan»</text><text fill="#000000" font-family="sans-serif" font-size="14" lengthAdjust="spacing" textLength="106" x="263" y="818.5889">plan dispatcher</text></g><!--MD5=[19a4372ec6384714f7128c4c3231e834]
entity ACTION--><g id="elem_ACTION"><rect fill="#F1F1F1" height="62.2969" rx="2.5" ry="2.5" style="stroke:#181818;stroke-width:0.5;" width="98" x="650" y="761.7969"/><rect fill="#F1F1F1" height="10" style="stroke:#181818;stroke-width:0.5;" width="15" x="728" y="766.7969"/><rect fill="#F1F1F1" height="2" style="stroke:#181818;stroke-width:0.5;" width="4" x="726" y="768.7969"/><rect fill="#F1F1F1" height="2" style="stroke:#181818;stroke-width:0.5;" width="4" x="726" y="772.7969"/><text fill="#000000" font-family="sans-serif" font-size="14" lengthAdjust="spacing" textLength="42" x="673" y="802.792">action</text></g><!--MD5=[4a6774d2d636828099b9e534edd85988]
entity TOPIC_FEEDBACK--><g id="elem_TOPIC_FEEDBACK"><ellipse cx="699" cy="1103.2969" fill="#F1F1F1" rx="8" ry="8" style="stroke:#181818;stroke-width:0.5;"/><text fill="#000000" font-family="sans-serif" font-size="14" lengthAdjust="spacing" textLength="102" x="648" y="1141.292">feedback topic</text></g><!--MD5=[344489d3fd119170a3238c0c85f4da92]
entity SRV_MANAGER--><g id="elem_SRV_MANAGER"><ellipse cx="934" cy="953.2969" fill="#F1F1F1" rx="8" ry="8" style="stroke:#181818;stroke-width:0.5;"/><text fill="#000000" font-family="sans-serif" font-size="14" lengthAdjust="spacing" textLength="172" x="848" y="991.292">service pipeline manager</text></g><!--MD5=[5d98fb7919dd88807c949731bc3424a6]
entity SRV_IKB--><g id="elem_SRV_IKB"><ellipse cx="916" cy="319.7969" fill="#F1F1F1" rx="8" ry="8" style="stroke:#181818;stroke-width:0.5;"/><text fill="#000000" font-family="sans-serif" font-size="14" lengthAdjust="spacing" textLength="136" x="848" y="357.792">KB interface service</text></g><!--MD5=[bb9595c6d383560a9747c5ee557e7288]
link KB to PROBLEM--><g id="link_KB_PROBLEM"><path d="M196.02,319.7969 C205.7,319.7969 215.39,319.7969 225.07,319.7969 " fill="none" id="KB-to-PROBLEM" style="stroke:#181818;stroke-width:1.0;"/><polygon fill="#181818" points="230.13,319.7969,221.13,315.7969,225.13,319.7969,221.13,323.7969,230.13,319.7969" style="stroke:#181818;stroke-width:1.0;"/></g><!--MD5=[a5428df31876122ec0a957eaa7670c51]
link PROBLEM to PLAN--><g id="link_PROBLEM_PLAN"><path d="M318.39,367.5369 C318.17,384.6569 317.91,404.1369 317.68,421.6969 " fill="none" id="PROBLEM-to-PLAN" style="stroke:#181818;stroke-width:1.0;"/><polygon fill="#181818" points="317.61,427.0869,321.7382,418.1449,317.6814,422.0874,313.739,418.0307,317.61,427.0869" style="stroke:#181818;stroke-width:1.0;"/></g><!--MD5=[aa8815982f1a66de47d205f89c42f108]
link PLAN to PARSE--><g id="link_PLAN_PARSE"><path d="M317.31,522.5369 C317.42,539.6569 317.54,559.1369 317.66,576.6969 " fill="none" id="PLAN-to-PARSE" style="stroke:#181818;stroke-width:1.0;"/><polygon fill="#181818" points="317.69,582.0869,321.6385,573.0642,317.6614,577.087,313.6386,573.1099,317.69,582.0869" style="stroke:#181818;stroke-width:1.0;"/></g><!--MD5=[1430abca236160ecee2090fced0690c9]
link KB to PARSE--><g id="link_KB_PARSE"><path d="M135.76,366.9469 C150.64,409.5269 176.22,473.3569 210,522.2969 C224.88,543.8569 244.51,564.7469 262.95,582.2369 " fill="none" id="KB-PARSE" style="stroke:#181818;stroke-width:1.0;"/></g><!--MD5=[38226559f342952f54409100cdf2b7fa]
link PARSE to DISPATCH--><g id="link_PARSE_DISPATCH"><path d="M318.87,677.3669 C319.23,696.9669 319.66,719.8669 320.03,739.9969 " fill="none" id="PARSE-to-DISPATCH" style="stroke:#181818;stroke-width:1.0;"/><polygon fill="#181818" points="320.13,745.0569,323.9751,735.9896,320.0443,740.0576,315.9763,736.1268,320.13,745.0569" style="stroke:#181818;stroke-width:1.0;"/></g><!--MD5=[cd597169a586affe267fac75c2503e56]
link DISPATCH to KB--><g id="link_DISPATCH_KB"><path d="M270.47,745.2569 C251.27,725.6469 230.35,701.7269 215,677.2969 C152.69,578.1069 131.43,438.5569 124.37,367.0369 " fill="none" id="DISPATCH-KB" style="stroke:#181818;stroke-width:1.0;"/></g><!--MD5=[1b737f43765de1e8258759bcc4c19216]
link ACTION to IKB--><g id="link_ACTION_IKB"><path d="M699,761.6469 C699,661.2469 699,337.4169 699,210.5069 " fill="none" id="ACTION-to-IKB" style="stroke:#181818;stroke-width:1.0;"/><polygon fill="#181818" points="699,205.3469,695,214.3469,699,210.3469,703,214.3469,699,205.3469" style="stroke:#181818;stroke-width:1.0;"/></g><!--MD5=[80f77982fa39c7cbdf9f1b50cbac05b0]
link DISPATCH to ACTION--><g id="link_DISPATCH_ACTION"><path d="M352.26,745.0869 C370.03,722.9569 394.51,699.4869 423.5,690.0469 C466.82,675.9369 585.18,675.9369 628.5,690.0469 C658.32,699.7569 676.98,731.4269 687.55,757.0669 " fill="none" id="DISPATCH-to-ACTION" style="stroke:#181818;stroke-width:1.0;"/><polygon fill="#181818" points="689.43,761.7769,689.8014,751.935,687.573,757.1345,682.3736,754.9061,689.43,761.7769" style="stroke:#181818;stroke-width:1.0;"/></g><!--MD5=[62991ef91f99bee3fb9d9e2d4fe55ada]
link PDDL_DOM to KB--><g id="link_PDDL_DOM_KB"><path d="M199.25,192.3369 C185.63,214.3369 167.58,243.5169 152.24,268.2969 " fill="none" id="PDDL_DOM-to-KB" style="stroke:#181818;stroke-width:1.0;"/><polygon fill="#181818" points="149.61,272.5569,157.7418,267.0005,152.2369,268.3025,150.9348,262.7975,149.61,272.5569" style="stroke:#181818;stroke-width:1.0;"/></g><!--MD5=[717701e14dda4d2e6deac24fc3b4f732]
link PDDL_PROB to KB--><g id="link_PDDL_PROB_KB"><path d="M100.45,192.3369 C103.98,214.0669 108.65,242.7969 112.64,267.3769 " fill="none" id="PDDL_PROB-to-KB" style="stroke:#181818;stroke-width:1.0;"/><polygon fill="#181818" points="113.49,272.5569,115.9694,263.0252,112.675,267.6238,108.0764,264.3293,113.49,272.5569" style="stroke:#181818;stroke-width:1.0;"/></g><!--MD5=[40b9ac208f37f07ab6d18a7540c8d111]
link IKB to KB--><g id="link_IKB_KB"><path d="M624.13,167.1069 C488.08,182.2169 214.13,212.7069 213,213.2969 C188.78,225.9869 168.08,247.8969 152.49,268.4769 " fill="none" id="IKB-KB" style="stroke:#181818;stroke-width:1.0;"/><polygon fill="#181818" points="149.44,272.5669,158.0207,267.7325,152.424,268.5549,151.6016,262.9582,149.44,272.5669" style="stroke:#181818;stroke-width:1.0;"/><polygon fill="#181818" points="629.31,166.5269,619.9205,163.5541,624.3411,167.0837,620.8115,171.5043,629.31,166.5269" style="stroke:#181818;stroke-width:1.0;"/></g><!--MD5=[16d15e542ce838403090355992ed061e]
link ACTION to FEEDBACK--><g id="link_ACTION_FEEDBACK"><path d="M699,823.9869 C699,847.8169 699,881.3969 699,908.2369 " fill="none" id="ACTION-to-FEEDBACK" style="stroke:#181818;stroke-width:1.0;"/><polygon fill="#181818" points="699,913.5069,703,904.5069,699,908.5069,695,904.5069,699,913.5069" style="stroke:#181818;stroke-width:1.0;"/></g><!--MD5=[1731a2b834dd093c2be5fedcecd3ae43]
link PROBLEM to MANAGER--><g id="link_PROBLEM_MANAGER"><path d="M375.27,367.5569 C393.01,384.7469 411.27,405.4169 424,427.2969 C480.99,525.2669 507.93,656.5469 519.45,731.8769 " fill="none" id="PROBLEM-to-MANAGER" style="stroke:#181818;stroke-width:1.0;"/><polygon fill="#181818" points="520.25,737.1969,522.868,727.7023,519.5069,732.2524,514.9568,728.8913,520.25,737.1969" style="stroke:#181818;stroke-width:1.0;"/></g><!--MD5=[bfa20aa4d3564532537a8b8a0c8c78a5]
link PLAN to MANAGER--><g id="link_PLAN_MANAGER"><path d="M368.51,522.2969 C386.42,540.0169 405.81,561.0669 421,582.2969 C454.75,629.4769 483.74,688.9469 502.82,732.4569 " fill="none" id="PLAN-to-MANAGER" style="stroke:#181818;stroke-width:1.0;"/><polygon fill="#181818" points="504.87,737.1469,504.9273,727.2982,502.8659,732.5661,497.598,730.5047,504.87,737.1469" style="stroke:#181818;stroke-width:1.0;"/></g><!--MD5=[9d26c7df7500e0a5c4d3642686c35ae3]
link PARSE to MANAGER--><g id="link_PARSE_MANAGER"><path d="M388.21,677.4069 C399.98,685.6569 411.95,694.3169 423,702.7969 C435.73,712.5669 448.98,723.3669 461.59,733.9869 " fill="none" id="PARSE-to-MANAGER" style="stroke:#181818;stroke-width:1.0;"/><polygon fill="#181818" points="465.48,737.2769,461.1784,728.417,461.6577,734.0536,456.0211,734.5328,465.48,737.2769" style="stroke:#181818;stroke-width:1.0;"/></g><!--MD5=[44304d84a77b9c12313e580eb8f02140]
link DISPATCH to MANAGER--><g id="link_DISPATCH_MANAGER"><path d="M402.27,792.7969 C412.88,792.7969 423.49,792.7969 434.09,792.7969 " fill="none" id="DISPATCH-to-MANAGER" style="stroke:#181818;stroke-width:1.0;"/><polygon fill="#181818" points="439.3,792.7969,430.3,788.7969,434.3,792.7969,430.3,796.7969,439.3,792.7969" style="stroke:#181818;stroke-width:1.0;"/></g><!--MD5=[0d91df645df5ea738140d6024ee71c06]
link FEEDBACK to TOPIC_FEEDBACK--><g id="link_FEEDBACK_TOPIC_FEEDBACK"><path d="M699,993.1869 C699,1024.7869 699,1067.5169 699,1088.9169 " fill="none" id="FEEDBACK-to-TOPIC_FEEDBACK" style="stroke:#181818;stroke-width:1.0;"/><polygon fill="#181818" points="699,1094.1169,703,1085.1169,699,1089.1169,695,1085.1169,699,1094.1169" style="stroke:#181818;stroke-width:1.0;"/></g><!--MD5=[eae5336970671b01d545cadf53e4732d]
link MANAGER to SRV_MANAGER--><g id="link_MANAGER_SRV_MANAGER"><path d="M602.93,848.3169 C613.09,854.2569 623.59,859.7769 634,864.2969 C710.33,897.4569 736.43,883.9369 816,908.2969 C854.32,920.0269 898.26,937.5169 920.13,946.5069 " fill="none" id="MANAGER-to-SRV_MANAGER" style="stroke:#181818;stroke-width:1.0;"/><polygon fill="#181818" points="924.95,948.4969,918.1432,941.3788,920.3245,946.5982,915.1052,948.7795,924.95,948.4969" style="stroke:#181818;stroke-width:1.0;"/></g><!--MD5=[1c56fd08e5c63a447014e9c0211f3a9c]
link IKB to SRV_IKB--><g id="link_IKB_SRV_IKB"><path d="M768.54,185.9469 C784.78,193.6869 801.54,202.8869 816,213.2969 C854.62,241.1069 890.61,285.1969 906.88,306.4869 " fill="none" id="IKB-to-SRV_IKB" style="stroke:#181818;stroke-width:1.0;"/><polygon fill="#181818" points="910.05,310.6669,907.8116,301.0758,907.034,306.6789,901.4309,305.9013,910.05,310.6669" style="stroke:#181818;stroke-width:1.0;"/></g><!--MD5=[8c4c21a4b421f5bf41727513509411a1]
@startuml

''' DIAGRAM INFOS
title "robocluedo rosplan"
skinparam Padding 8


''' DIAGRAM ELEMENTS
package "robocluedo rosplan" {

file "pddl\ndomain" as PDDL_DOM
file "pddl\nproblem" as PDDL_PROB

package "ROSplan" {
	database "knowledge base" <<ROSPlan>> as KB
	[problem interface] <<ROSPlan>> as PROBLEM
	[planning interface] <<ROSPlan>> as PLAN
	[parsing interface] <<ROSPlan>> as PARSE
	[plan dispatcher] <<ROSPlan>> as DISPATCH

	KB -right-> PROBLEM
	PROBLEM -down-> PLAN
	PLAN -down-> PARSE
	KB -right- PARSE
	PARSE -down-> DISPATCH
	KB -left- DISPATCH
}

package "actions dispatch" {
	[action] as ACTION
}

[feedback\nmanager] as FEEDBACK
[ROSPlan\npipeline manager] <<node>> as MANAGER
[KB interface] <<node>> as IKB
ACTION - -> IKB

DISPATCH -right-> ACTION
PDDL_DOM - -> KB
PDDL_PROB - -> KB
IKB <- -> KB

ACTION - -> FEEDBACK

PROBLEM -right-> MANAGER
PLAN -right-> MANAGER
PARSE -right-> MANAGER
DISPATCH -right-> MANAGER
}

() "feedback topic" as TOPIC_FEEDBACK
FEEDBACK - -> TOPIC_FEEDBACK
() "service pipeline manager" as SRV_MANAGER
MANAGER - -> SRV_MANAGER
() "KB interface service" as SRV_IKB
IKB - -> SRV_IKB
@enduml

@startuml

title "robocluedo rosplan"
skinparam Padding 8


package "robocluedo rosplan" {

file "pddl\ndomain" as PDDL_DOM
file "pddl\nproblem" as PDDL_PROB

package "ROSplan" {
	database "knowledge base" <<ROSPlan>> as KB
	[problem interface] <<ROSPlan>> as PROBLEM
	[planning interface] <<ROSPlan>> as PLAN
	[parsing interface] <<ROSPlan>> as PARSE
	[plan dispatcher] <<ROSPlan>> as DISPATCH

	KB -right-> PROBLEM
	PROBLEM -down-> PLAN
	PLAN -down-> PARSE
	KB -right- PARSE
	PARSE -down-> DISPATCH
	KB -left- DISPATCH
}

package "actions dispatch" {
	[action] as ACTION
}

[feedback\nmanager] as FEEDBACK
[ROSPlan\npipeline manager] <<node>> as MANAGER
[KB interface] <<node>> as IKB
ACTION - -> IKB

DISPATCH -right-> ACTION
PDDL_DOM - -> KB
PDDL_PROB - -> KB
IKB <- -> KB

ACTION - -> FEEDBACK

PROBLEM -right-> MANAGER
PLAN -right-> MANAGER
PARSE -right-> MANAGER
DISPATCH -right-> MANAGER
}

() "feedback topic" as TOPIC_FEEDBACK
FEEDBACK - -> TOPIC_FEEDBACK
() "service pipeline manager" as SRV_MANAGER
MANAGER - -> SRV_MANAGER
() "KB interface service" as SRV_IKB
IKB - -> SRV_IKB
@enduml

PlantUML version 1.2022.6(Tue Jun 21 17:34:49 UTC 2022)
(GPL source distribution)
Java Runtime: Java(TM) SE Runtime Environment
JVM: Java HotSpot(TM) 64-Bit Server VM
Default Encoding: UTF-8
Language: en
Country: US
--></g></svg>