<?xml version="1.0" encoding="UTF-8" standalone="no"?><svg xmlns="http://www.w3.org/2000/svg" xmlns:xlink="http://www.w3.org/1999/xlink" contentStyleType="text/css" height="1465px" preserveAspectRatio="none" style="width:638px;height:1465px;background:#FFFFFF;" version="1.1" viewBox="0 0 638 1465" width="638px" zoomAndPan="magnify"><defs/><g><rect height="42.2969" style="stroke:#00000000;stroke-width:1.0;fill:none;" width="180" x="222" y="5"/><text fill="#000000" font-family="sans-serif" font-size="14" font-weight="bold" lengthAdjust="spacing" textLength="154" x="235" y="30.9951">robocluedo rosplan</text><!--MD5=[19e394d6c1aed6b811eba8f457712ea3]
cluster robocluedo rosplan--><g id="cluster_robocluedo rosplan"><path d="M8.5,59.2969 L179.5,59.2969 A3.75,3.75 0 0 1 182,61.7969 L189,97.5938 L424.5,97.5938 A2.5,2.5 0 0 1 427,100.0938 L427,1321.7969 A2.5,2.5 0 0 1 424.5,1324.2969 L8.5,1324.2969 A2.5,2.5 0 0 1 6,1321.7969 L6,61.7969 A2.5,2.5 0 0 1 8.5,59.2969 " style="stroke:#000000;stroke-width:1.5;fill:none;"/><line style="stroke:#000000;stroke-width:1.5;fill:none;" x1="6" x2="189" y1="97.5938" y2="97.5938"/><text fill="#000000" font-family="sans-serif" font-size="14" font-weight="bold" lengthAdjust="spacing" textLength="154" x="18" y="82.292">robocluedo rosplan</text></g><!--MD5=[214036b6393beeef3a45e6f3b8ce1c8f]
cluster ROSplan--><g id="cluster_ROSplan"><path d="M32.5,221.2969 L114.5,221.2969 A3.75,3.75 0 0 1 117,223.7969 L124,259.5938 L313.5,259.5938 A2.5,2.5 0 0 1 316,262.0938 L316,999.7969 A2.5,2.5 0 0 1 313.5,1002.2969 L32.5,1002.2969 A2.5,2.5 0 0 1 30,999.7969 L30,223.7969 A2.5,2.5 0 0 1 32.5,221.2969 " style="stroke:#000000;stroke-width:1.5;fill:none;"/><line style="stroke:#000000;stroke-width:1.5;fill:none;" x1="30" x2="124" y1="259.5938" y2="259.5938"/><text fill="#000000" font-family="sans-serif" font-size="14" font-weight="bold" lengthAdjust="spacing" textLength="65" x="42" y="244.292">ROSplan</text></g><!--MD5=[c6f484c93ca94aa050b568abff685dd1]
cluster actions dispatch--><g id="cluster_actions dispatch"><path d="M244.5,1026.2969 L390.5,1026.2969 A3.75,3.75 0 0 1 393,1028.7969 L400,1064.5938 L400.5,1064.5938 A2.5,2.5 0 0 1 403,1067.0938 L403,1152.7969 A2.5,2.5 0 0 1 400.5,1155.2969 L244.5,1155.2969 A2.5,2.5 0 0 1 242,1152.7969 L242,1028.7969 A2.5,2.5 0 0 1 244.5,1026.2969 " style="stroke:#000000;stroke-width:1.5;fill:none;"/><line style="stroke:#000000;stroke-width:1.5;fill:none;" x1="242" x2="400" y1="1064.5938" y2="1064.5938"/><text fill="#000000" font-family="sans-serif" font-size="14" font-weight="bold" lengthAdjust="spacing" textLength="129" x="254" y="1049.292">actions dispatch</text></g><!--MD5=[c32029475a673329c3ad8c466c13ff13]
entity PDDL_DOM--><g id="elem_PDDL_DOM"><path d="M149.5,125.7969 L149.5,189.3906 A2.5,2.5 0 0 0 152,191.8906 L234,191.8906 A2.5,2.5 0 0 0 236.5,189.3906 L236.5,133.2969 L226.5,123.2969 L152,123.2969 A2.5,2.5 0 0 0 149.5,125.7969 " fill="#F1F1F1" style="stroke:#181818;stroke-width:0.5;"/><path d="M226.5,123.2969 L226.5,130.7969 A2.5,2.5 0 0 0 229,133.2969 L236.5,133.2969 " fill="#F1F1F1" style="stroke:#181818;stroke-width:0.5;"/><text fill="#000000" font-family="sans-serif" font-size="14" lengthAdjust="spacing" textLength="30" x="167.5" y="154.292">pddl</text><text fill="#000000" font-family="sans-serif" font-size="14" lengthAdjust="spacing" textLength="51" x="167.5" y="170.5889">domain</text></g><!--MD5=[032fa86fe1238ac49b7d1f0d93309a4a]
entity PDDL_PROB--><g id="elem_PDDL_PROB"><path d="M21.5,125.7969 L21.5,189.3906 A2.5,2.5 0 0 0 24,191.8906 L112,191.8906 A2.5,2.5 0 0 0 114.5,189.3906 L114.5,133.2969 L104.5,123.2969 L24,123.2969 A2.5,2.5 0 0 0 21.5,125.7969 " fill="#F1F1F1" style="stroke:#181818;stroke-width:0.5;"/><path d="M104.5,123.2969 L104.5,130.7969 A2.5,2.5 0 0 0 107,133.2969 L114.5,133.2969 " fill="#F1F1F1" style="stroke:#181818;stroke-width:0.5;"/><text fill="#000000" font-family="sans-serif" font-size="14" lengthAdjust="spacing" textLength="30" x="39.5" y="154.292">pddl</text><text fill="#000000" font-family="sans-serif" font-size="14" lengthAdjust="spacing" textLength="57" x="39.5" y="170.5889">problem</text></g><!--MD5=[f538cd5cfea9b9f400fdca51e86c13d1]
entity FEEDBACK--><g id="elem_FEEDBACK"><rect fill="#F1F1F1" height="78.5938" rx="2.5" ry="2.5" style="stroke:#181818;stroke-width:0.5;" width="120" x="264" y="1229.2969"/><rect fill="#F1F1F1" height="10" style="stroke:#181818;stroke-width:0.5;" width="15" x="364" y="1234.2969"/><rect fill="#F1F1F1" height="2" style="stroke:#181818;stroke-width:0.5;" width="4" x="362" y="1236.2969"/><rect fill="#F1F1F1" height="2" style="stroke:#181818;stroke-width:0.5;" width="4" x="362" y="1240.2969"/><text fill="#000000" font-family="sans-serif" font-size="14" lengthAdjust="spacing" textLength="64" x="287" y="1270.292">feedback</text><text fill="#000000" font-family="sans-serif" font-size="14" lengthAdjust="spacing" textLength="61" x="287" y="1286.5889">manager</text></g><!--MD5=[d31e9ee264fe380d83edc82a54b843cf]
entity MANAGER--><g id="elem_MANAGER"><rect fill="#F1F1F1" height="110.8906" rx="2.5" ry="2.5" style="stroke:#181818;stroke-width:0.5;" width="175" x="50.5" y="1052.7969"/><rect fill="#F1F1F1" height="10" style="stroke:#181818;stroke-width:0.5;" width="15" x="205.5" y="1057.7969"/><rect fill="#F1F1F1" height="2" style="stroke:#181818;stroke-width:0.5;" width="4" x="203.5" y="1059.7969"/><rect fill="#F1F1F1" height="2" style="stroke:#181818;stroke-width:0.5;" width="4" x="203.5" y="1063.7969"/><text fill="#000000" font-family="sans-serif" font-size="14" font-style="italic" lengthAdjust="spacing" textLength="54" x="106" y="1093.792">«node»</text><text fill="#000000" font-family="sans-serif" font-size="14" lengthAdjust="spacing" textLength="59" x="73.5" y="1126.0889">ROSPlan</text><text fill="#000000" font-family="sans-serif" font-size="14" lengthAdjust="spacing" textLength="119" x="73.5" y="1142.3857">pipeline manager</text></g><!--MD5=[db20a57565cba22683396279855de892]
entity IKB--><g id="elem_IKB"><rect fill="#F1F1F1" height="94.5938" rx="2.5" ry="2.5" style="stroke:#181818;stroke-width:0.5;" width="139" x="271.5" y="110.2969"/><rect fill="#F1F1F1" height="10" style="stroke:#181818;stroke-width:0.5;" width="15" x="390.5" y="115.2969"/><rect fill="#F1F1F1" height="2" style="stroke:#181818;stroke-width:0.5;" width="4" x="388.5" y="117.2969"/><rect fill="#F1F1F1" height="2" style="stroke:#181818;stroke-width:0.5;" width="4" x="388.5" y="121.2969"/><text fill="#000000" font-family="sans-serif" font-size="14" font-style="italic" lengthAdjust="spacing" textLength="54" x="309" y="151.292">«node»</text><text fill="#000000" font-family="sans-serif" font-size="14" lengthAdjust="spacing" textLength="83" x="294.5" y="183.5889">KB interface</text></g><!--MD5=[3287247eb5ef114031405aae8a2c204e]
entity KB--><g id="elem_KB"><path d="M134,282.2969 C134,272.2969 209,272.2969 209,272.2969 C209,272.2969 284,272.2969 284,282.2969 L284,355.8906 C284,365.8906 209,365.8906 209,365.8906 C209,365.8906 134,365.8906 134,355.8906 L134,282.2969 " fill="#F1F1F1" style="stroke:#181818;stroke-width:0.5;"/><path d="M134,282.2969 C134,292.2969 209,292.2969 209,292.2969 C209,292.2969 284,292.2969 284,282.2969 " fill="none" style="stroke:#181818;stroke-width:0.5;"/><text fill="#000000" font-family="sans-serif" font-size="14" font-style="italic" lengthAdjust="spacing" textLength="77" x="170.5" y="317.292">«ROSPlan»</text><text fill="#000000" font-family="sans-serif" font-size="14" lengthAdjust="spacing" textLength="114" x="152" y="349.5889">knowledge base</text></g><!--MD5=[e79c8e6bb3a9323b12a58d750a988a49]
entity PROBLEM--><g id="elem_PROBLEM"><rect fill="#F1F1F1" height="94.5938" rx="2.5" ry="2.5" style="stroke:#181818;stroke-width:0.5;" width="177" x="49.5" y="426.2969"/><rect fill="#F1F1F1" height="10" style="stroke:#181818;stroke-width:0.5;" width="15" x="206.5" y="431.2969"/><rect fill="#F1F1F1" height="2" style="stroke:#181818;stroke-width:0.5;" width="4" x="204.5" y="433.2969"/><rect fill="#F1F1F1" height="2" style="stroke:#181818;stroke-width:0.5;" width="4" x="204.5" y="437.2969"/><text fill="#000000" font-family="sans-serif" font-size="14" font-style="italic" lengthAdjust="spacing" textLength="77" x="94.5" y="467.292">«ROSPlan»</text><text fill="#000000" font-family="sans-serif" font-size="14" lengthAdjust="spacing" textLength="121" x="72.5" y="499.5889">problem interface</text></g><!--MD5=[02ea8b2314e0d0d23d286ba4611632a1]
entity PLAN--><g id="elem_PLAN"><rect fill="#F1F1F1" height="94.5938" rx="2.5" ry="2.5" style="stroke:#181818;stroke-width:0.5;" width="179" x="46.5" y="581.2969"/><rect fill="#F1F1F1" height="10" style="stroke:#181818;stroke-width:0.5;" width="15" x="205.5" y="586.2969"/><rect fill="#F1F1F1" height="2" style="stroke:#181818;stroke-width:0.5;" width="4" x="203.5" y="588.2969"/><rect fill="#F1F1F1" height="2" style="stroke:#181818;stroke-width:0.5;" width="4" x="203.5" y="592.2969"/><text fill="#000000" font-family="sans-serif" font-size="14" font-style="italic" lengthAdjust="spacing" textLength="77" x="92.5" y="622.292">«ROSPlan»</text><text fill="#000000" font-family="sans-serif" font-size="14" lengthAdjust="spacing" textLength="123" x="69.5" y="654.5889">planning interface</text></g><!--MD5=[014bc5ca5401618d6f7935a2c849fb3a]
entity PARSE--><g id="elem_PARSE"><rect fill="#F1F1F1" height="94.5938" rx="2.5" ry="2.5" style="stroke:#181818;stroke-width:0.5;" width="171" x="91.5" y="736.2969"/><rect fill="#F1F1F1" height="10" style="stroke:#181818;stroke-width:0.5;" width="15" x="242.5" y="741.2969"/><rect fill="#F1F1F1" height="2" style="stroke:#181818;stroke-width:0.5;" width="4" x="240.5" y="743.2969"/><rect fill="#F1F1F1" height="2" style="stroke:#181818;stroke-width:0.5;" width="4" x="240.5" y="747.2969"/><text fill="#000000" font-family="sans-serif" font-size="14" font-style="italic" lengthAdjust="spacing" textLength="77" x="133.5" y="777.292">«ROSPlan»</text><text fill="#000000" font-family="sans-serif" font-size="14" lengthAdjust="spacing" textLength="115" x="114.5" y="809.5889">parsing interface</text></g><!--MD5=[82817458b664c54c40293f09e7dd8da8]
entity DISPATCH--><g id="elem_DISPATCH"><rect fill="#F1F1F1" height="94.5938" rx="2.5" ry="2.5" style="stroke:#181818;stroke-width:0.5;" width="162" x="138" y="891.2969"/><rect fill="#F1F1F1" height="10" style="stroke:#181818;stroke-width:0.5;" width="15" x="280" y="896.2969"/><rect fill="#F1F1F1" height="2" style="stroke:#181818;stroke-width:0.5;" width="4" x="278" y="898.2969"/><rect fill="#F1F1F1" height="2" style="stroke:#181818;stroke-width:0.5;" width="4" x="278" y="902.2969"/><text fill="#000000" font-family="sans-serif" font-size="14" font-style="italic" lengthAdjust="spacing" textLength="77" x="175.5" y="932.292">«ROSPlan»</text><text fill="#000000" font-family="sans-serif" font-size="14" lengthAdjust="spacing" textLength="106" x="161" y="964.5889">plan dispatcher</text></g><!--MD5=[19a4372ec6384714f7128c4c3231e834]
entity ACTION--><g id="elem_ACTION"><rect fill="#F1F1F1" height="62.2969" rx="2.5" ry="2.5" style="stroke:#181818;stroke-width:0.5;" width="98" x="275" y="1077.2969"/><rect fill="#F1F1F1" height="10" style="stroke:#181818;stroke-width:0.5;" width="15" x="353" y="1082.2969"/><rect fill="#F1F1F1" height="2" style="stroke:#181818;stroke-width:0.5;" width="4" x="351" y="1084.2969"/><rect fill="#F1F1F1" height="2" style="stroke:#181818;stroke-width:0.5;" width="4" x="351" y="1088.2969"/><text fill="#000000" font-family="sans-serif" font-size="14" lengthAdjust="spacing" textLength="42" x="298" y="1118.292">action</text></g><!--MD5=[4a6774d2d636828099b9e534edd85988]
entity TOPIC_FEEDBACK--><g id="elem_TOPIC_FEEDBACK"><ellipse cx="324" cy="1418.7969" fill="#F1F1F1" rx="8" ry="8" style="stroke:#181818;stroke-width:0.5;"/><text fill="#000000" font-family="sans-serif" font-size="14" lengthAdjust="spacing" textLength="102" x="273" y="1456.792">feedback topic</text></g><!--MD5=[344489d3fd119170a3238c0c85f4da92]
entity SRV_MANAGER--><g id="elem_SRV_MANAGER"><ellipse cx="545" cy="1268.7969" fill="#F1F1F1" rx="8" ry="8" style="stroke:#181818;stroke-width:0.5;"/><text fill="#000000" font-family="sans-serif" font-size="14" lengthAdjust="spacing" textLength="172" x="459" y="1306.792">service pipeline manager</text></g><!--MD5=[5d98fb7919dd88807c949731bc3424a6]
entity SRV_IKB--><g id="elem_SRV_IKB"><ellipse cx="527" cy="319.2969" fill="#F1F1F1" rx="8" ry="8" style="stroke:#181818;stroke-width:0.5;"/><text fill="#000000" font-family="sans-serif" font-size="14" lengthAdjust="spacing" textLength="136" x="459" y="357.292">KB interface service</text></g><!--MD5=[bb9595c6d383560a9747c5ee557e7288]
link KB to PROBLEM--><g id="link_KB_PROBLEM"><path d="M187.5,366.4669 C178.69,385.3969 168.5,407.2869 159.67,426.2569 " fill="none" id="KB-PROBLEM" style="stroke:#181818;stroke-width:1.0;"/></g><!--MD5=[a5428df31876122ec0a957eaa7670c51]
link PROBLEM to PLAN--><g id="link_PROBLEM_PLAN"><path d="M137.39,521.5369 C137.14,540.4269 136.86,562.1869 136.61,581.0869 " fill="none" id="PROBLEM-PLAN" style="stroke:#181818;stroke-width:1.0;"/></g><!--MD5=[aa8815982f1a66de47d205f89c42f108]
link PLAN to PARSE--><g id="link_PLAN_PARSE"><path d="M148.52,676.5369 C153.59,695.4269 159.42,717.1869 164.48,736.0869 " fill="none" id="PLAN-PARSE" style="stroke:#181818;stroke-width:1.0;"/></g><!--MD5=[1430abca236160ecee2090fced0690c9]
link KB to PARSE--><g id="link_KB_PARSE"><path d="M227.79,366.4569 C234.3,384.7669 240.77,406.2069 244,426.2969 C248.79,456.0969 249.21,654.7369 243,676.2969 C236.92,697.4069 225.36,718.4369 213.59,736.1669 " fill="none" id="KB-PARSE" style="stroke:#181818;stroke-width:1.0;"/></g><!--MD5=[38226559f342952f54409100cdf2b7fa]
link PARSE to DISPATCH--><g id="link_PARSE_DISPATCH"><path d="M189.83,831.5369 C195.02,850.4269 200.99,872.1869 206.18,891.0869 " fill="none" id="PARSE-DISPATCH" style="stroke:#181818;stroke-width:1.0;"/></g><!--MD5=[15f512827a6da90ed22fc936b2504b19]
link KB to DISPATCH--><g id="link_KB_DISPATCH"><path d="M232.92,366.3569 C241.32,384.5669 249.92,405.9569 255,426.2969 C276.87,513.7769 303.19,744.1569 280,831.2969 C274.44,852.1969 263.7,873.2669 252.76,891.0869 " fill="none" id="KB-DISPATCH" style="stroke:#181818;stroke-width:1.0;"/></g><!--MD5=[1b737f43765de1e8258759bcc4c19216]
link ACTION to IKB--><g id="link_ACTION_IKB"><path d="M331.66,1077.2969 C345.44,1020.5669 373,893.5269 373,784.7969 C373,472.7969 373,472.7969 373,472.7969 C373,380.0569 359.01,272.7069 349.53,210.5869 " fill="none" id="ACTION-to-IKB" style="stroke:#181818;stroke-width:1.0;"/><polygon fill="#181818" points="348.75,205.4569,346.1588,214.9588,349.5071,210.3992,354.0666,213.7475,348.75,205.4569" style="stroke:#181818;stroke-width:1.0;"/></g><!--MD5=[80f77982fa39c7cbdf9f1b50cbac05b0]
link DISPATCH to ACTION--><g id="link_DISPATCH_ACTION"><path d="M250.44,986.4669 C257.31,996.8769 264.48,1007.9169 271,1018.2969 C283.15,1037.6369 296.29,1059.6869 306.45,1077.0069 " fill="none" id="DISPATCH-ACTION" style="stroke:#181818;stroke-width:1.0;"/></g><!--MD5=[62991ef91f99bee3fb9d9e2d4fe55ada]
link PDDL_DOM to KB--><g id="link_PDDL_DOM_KB"><path d="M196.39,192.6269 C198.71,215.7569 201.82,246.7169 204.37,272.1169 " fill="none" id="PDDL_DOM-KB" style="stroke:#181818;stroke-width:1.0;"/></g><!--MD5=[717701e14dda4d2e6deac24fc3b4f732]
link PDDL_PROB to KB--><g id="link_PDDL_PROB_KB"><path d="M97.9,192.6269 C118.35,215.7569 145.72,246.7169 168.18,272.1169 " fill="none" id="PDDL_PROB-KB" style="stroke:#181818;stroke-width:1.0;"/></g><!--MD5=[40b9ac208f37f07ab6d18a7540c8d111]
link IKB to KB--><g id="link_IKB_KB"><path d="M294.93,205.4169 C292.56,208.0469 290.23,210.6869 288,213.2969 C272.05,231.9269 255.56,253.4169 241.8,272.0969 " fill="none" id="IKB-KB" style="stroke:#181818;stroke-width:1.0;"/></g><!--MD5=[16d15e542ce838403090355992ed061e]
link ACTION to FEEDBACK--><g id="link_ACTION_FEEDBACK"><path d="M324,1139.4869 C324,1164.8969 324,1201.4269 324,1229.0069 " fill="none" id="ACTION-FEEDBACK" style="stroke:#181818;stroke-width:1.0;"/></g><!--MD5=[1731a2b834dd093c2be5fedcecd3ae43]
link PROBLEM to MANAGER--><g id="link_PROBLEM_MANAGER"><path d="M195.06,521.5269 C212.75,538.6469 230.79,559.2669 243,581.2969 C311.69,705.1769 300.44,750.6169 317,891.2969 C323.18,943.8269 351.75,970.4269 317,1010.2969 C308.45,1020.1069 271.06,1013.4069 259,1018.2969 C238.34,1026.6869 217.98,1039.3969 200.03,1052.6069 " fill="none" id="PROBLEM-MANAGER" style="stroke:#181818;stroke-width:1.0;"/></g><!--MD5=[bfa20aa4d3564532537a8b8a0c8c78a5]
link PLAN to MANAGER--><g id="link_PLAN_MANAGER"><path d="M101.69,676.4369 C90.58,694.2469 79.66,715.3269 74,736.2969 C44.2,846.7269 85.05,979.5469 113.88,1052.5369 " fill="none" id="PLAN-MANAGER" style="stroke:#181818;stroke-width:1.0;"/></g><!--MD5=[9d26c7df7500e0a5c4d3642686c35ae3]
link PARSE to MANAGER--><g id="link_PARSE_MANAGER"><path d="M145.58,831.5269 C135.31,849.4269 125.2,870.5469 120,891.2969 C106.54,944.9469 114.48,1008.2069 123.67,1052.3469 " fill="none" id="PARSE-MANAGER" style="stroke:#181818;stroke-width:1.0;"/></g><!--MD5=[44304d84a77b9c12313e580eb8f02140]
link DISPATCH to MANAGER--><g id="link_DISPATCH_MANAGER"><path d="M196.44,986.4569 C186.51,1006.9769 174.79,1031.2269 164.46,1052.5869 " fill="none" id="DISPATCH-MANAGER" style="stroke:#181818;stroke-width:1.0;"/></g><!--MD5=[0d91df645df5ea738140d6024ee71c06]
link FEEDBACK to TOPIC_FEEDBACK--><g id="link_FEEDBACK_TOPIC_FEEDBACK"><path d="M324,1308.6869 C324,1340.2869 324,1383.0169 324,1404.4169 " fill="none" id="FEEDBACK-to-TOPIC_FEEDBACK" style="stroke:#181818;stroke-width:1.0;"/><polygon fill="#181818" points="324,1409.6169,328,1400.6169,324,1404.6169,320,1400.6169,324,1409.6169" style="stroke:#181818;stroke-width:1.0;"/></g><!--MD5=[eae5336970671b01d545cadf53e4732d]
link MANAGER to SRV_MANAGER--><g id="link_MANAGER_SRV_MANAGER"><path d="M225.54,1149.7169 C236.74,1154.5969 248.1,1159.4069 259,1163.7969 C332.54,1193.4369 352.52,1196.6169 427,1223.7969 C464.65,1237.5369 508.88,1254.1569 530.97,1262.4969 " fill="none" id="MANAGER-to-SRV_MANAGER" style="stroke:#181818;stroke-width:1.0;"/><polygon fill="#181818" points="535.84,1264.3269,528.843,1257.3956,531.1648,1262.554,526.0065,1264.8759,535.84,1264.3269" style="stroke:#181818;stroke-width:1.0;"/></g><!--MD5=[1c56fd08e5c63a447014e9c0211f3a9c]
link IKB to SRV_IKB--><g id="link_IKB_SRV_IKB"><path d="M410.58,200.7769 C416.26,204.8369 421.81,209.0369 427,213.2969 C463.51,243.2669 500.23,285.7169 517.23,306.2469 " fill="none" id="IKB-to-SRV_IKB" style="stroke:#181818;stroke-width:1.0;"/><polygon fill="#181818" points="520.55,310.2869,517.941,300.7899,517.3815,306.419,511.7524,305.8595,520.55,310.2869" style="stroke:#181818;stroke-width:1.0;"/></g><!--MD5=[5f8a20cccccb21419f38e37841fb3c33]
@startuml

''' DIAGRAM INFOS
title "robocluedo rosplan"
skinparam Padding 8


''' DIAGRAM ELEMENTS
package "robocluedo rosplan" {

file "pddl\ndomain" as PDDL_DOM
file "pddl\nproblem" as PDDL_PROB

package "ROSplan" {
	database "knowledge base" <<ROSPlan>> as KB
	[problem interface] <<ROSPlan>> as PROBLEM
	[planning interface] <<ROSPlan>> as PLAN
	[parsing interface] <<ROSPlan>> as PARSE
	[plan dispatcher] <<ROSPlan>> as DISPATCH

	KB - - PROBLEM
	PROBLEM - - PLAN
	PLAN - - PARSE
	KB - - PARSE
	PARSE - - DISPATCH
	KB - - DISPATCH
}

package "actions dispatch" {
	[action] as ACTION
}

[feedback\nmanager] as FEEDBACK
[ROSPlan\npipeline manager] <<node>> as MANAGER
[KB interface] <<node>> as IKB
ACTION - -> IKB

DISPATCH - - ACTION
PDDL_DOM - - KB
PDDL_PROB - - KB
IKB - - KB

ACTION - - FEEDBACK

PROBLEM - - MANAGER
PLAN - - MANAGER
PARSE - - MANAGER
DISPATCH - - MANAGER
}

() "feedback topic" as TOPIC_FEEDBACK
FEEDBACK - -> TOPIC_FEEDBACK
() "service pipeline manager" as SRV_MANAGER
MANAGER - -> SRV_MANAGER
() "KB interface service" as SRV_IKB
IKB - -> SRV_IKB
@enduml

@startuml

title "robocluedo rosplan"
skinparam Padding 8


package "robocluedo rosplan" {

file "pddl\ndomain" as PDDL_DOM
file "pddl\nproblem" as PDDL_PROB

package "ROSplan" {
	database "knowledge base" <<ROSPlan>> as KB
	[problem interface] <<ROSPlan>> as PROBLEM
	[planning interface] <<ROSPlan>> as PLAN
	[parsing interface] <<ROSPlan>> as PARSE
	[plan dispatcher] <<ROSPlan>> as DISPATCH

	KB - - PROBLEM
	PROBLEM - - PLAN
	PLAN - - PARSE
	KB - - PARSE
	PARSE - - DISPATCH
	KB - - DISPATCH
}

package "actions dispatch" {
	[action] as ACTION
}

[feedback\nmanager] as FEEDBACK
[ROSPlan\npipeline manager] <<node>> as MANAGER
[KB interface] <<node>> as IKB
ACTION - -> IKB

DISPATCH - - ACTION
PDDL_DOM - - KB
PDDL_PROB - - KB
IKB - - KB

ACTION - - FEEDBACK

PROBLEM - - MANAGER
PLAN - - MANAGER
PARSE - - MANAGER
DISPATCH - - MANAGER
}

() "feedback topic" as TOPIC_FEEDBACK
FEEDBACK - -> TOPIC_FEEDBACK
() "service pipeline manager" as SRV_MANAGER
MANAGER - -> SRV_MANAGER
() "KB interface service" as SRV_IKB
IKB - -> SRV_IKB
@enduml

PlantUML version 1.2022.6(Tue Jun 21 17:34:49 UTC 2022)
(GPL source distribution)
Java Runtime: Java(TM) SE Runtime Environment
JVM: Java HotSpot(TM) 64-Bit Server VM
Default Encoding: UTF-8
Language: en
Country: US
--></g></svg>