<?xml version="1.0" encoding="UTF-8" standalone="no"?><svg xmlns="http://www.w3.org/2000/svg" xmlns:xlink="http://www.w3.org/1999/xlink" contentStyleType="text/css" height="738px" preserveAspectRatio="none" style="width:583px;height:738px;background:#FFFFFF;" version="1.1" viewBox="0 0 583 738" width="583px" zoomAndPan="magnify"><defs/><g><rect height="42.2969" style="stroke:#00000000;stroke-width:1.0;fill:none;" width="186" x="191.5" y="5"/><text fill="#000000" font-family="sans-serif" font-size="14" font-weight="bold" lengthAdjust="spacing" textLength="160" x="204.5" y="30.9951">Project Architecture</text><!--MD5=[d966621a06b379d0f2866da504c15a36]
entity ARMOR--><g id="elem_ARMOR"><path d="M31.5,436.7969 C31.5,426.7969 75,426.7969 75,426.7969 C75,426.7969 118.5,426.7969 118.5,436.7969 L118.5,478.0938 C118.5,488.0938 75,488.0938 75,488.0938 C75,488.0938 31.5,488.0938 31.5,478.0938 L31.5,436.7969 " fill="#F1F1F1" style="stroke:#181818;stroke-width:0.5;"/><path d="M31.5,436.7969 C31.5,446.7969 75,446.7969 75,446.7969 C75,446.7969 118.5,446.7969 118.5,436.7969 " fill="none" style="stroke:#181818;stroke-width:0.5;"/><text fill="#000000" font-family="sans-serif" font-size="14" lengthAdjust="spacing" textLength="51" x="49.5" y="471.792">aRMOR</text></g><!--MD5=[6c629335c16ba9d7cc5a2834000a699b]
entity MOVEIT--><g id="elem_MOVEIT"><rect fill="#F1F1F1" height="62.2969" rx="2.5" ry="2.5" style="stroke:#181818;stroke-width:0.5;" width="106" x="243" y="182.2969"/><rect fill="#F1F1F1" height="10" style="stroke:#181818;stroke-width:0.5;" width="15" x="329" y="187.2969"/><rect fill="#F1F1F1" height="2" style="stroke:#181818;stroke-width:0.5;" width="4" x="327" y="189.2969"/><rect fill="#F1F1F1" height="2" style="stroke:#181818;stroke-width:0.5;" width="4" x="327" y="193.2969"/><text fill="#000000" font-family="sans-serif" font-size="14" lengthAdjust="spacing" textLength="50" x="266" y="223.292">MoveIt!</text></g><!--MD5=[b5e3cc1932c6c86e88c5a7b580a739e5]
entity NAVSTACK--><g id="elem_NAVSTACK"><rect fill="#F1F1F1" height="62.2969" rx="2.5" ry="2.5" style="stroke:#181818;stroke-width:0.5;" width="169" x="39.5" y="182.2969"/><rect fill="#F1F1F1" height="10" style="stroke:#181818;stroke-width:0.5;" width="15" x="188.5" y="187.2969"/><rect fill="#F1F1F1" height="2" style="stroke:#181818;stroke-width:0.5;" width="4" x="186.5" y="189.2969"/><rect fill="#F1F1F1" height="2" style="stroke:#181818;stroke-width:0.5;" width="4" x="186.5" y="193.2969"/><text fill="#000000" font-family="sans-serif" font-size="14" lengthAdjust="spacing" textLength="113" x="62.5" y="223.292">Navigation Stack</text></g><!--MD5=[0ff8cde09c95e7bd5ad5c1a367aa2e4a]
entity ORACLE--><g id="elem_ORACLE"><rect fill="#F1F1F1" height="62.2969" rx="2.5" ry="2.5" style="stroke:#181818;stroke-width:0.5;" width="130" x="259" y="670.2969"/><rect fill="#F1F1F1" height="10" style="stroke:#181818;stroke-width:0.5;" width="15" x="369" y="675.2969"/><rect fill="#F1F1F1" height="2" style="stroke:#181818;stroke-width:0.5;" width="4" x="367" y="677.2969"/><rect fill="#F1F1F1" height="2" style="stroke:#181818;stroke-width:0.5;" width="4" x="367" y="681.2969"/><text fill="#000000" font-family="sans-serif" font-size="14" lengthAdjust="spacing" textLength="74" x="282" y="711.292">erl3 Oracle</text></g><!--MD5=[8fd27179cfada5ccc37b63382e72f2b8]
entity ROSPLAN--><g id="elem_ROSPLAN"><rect fill="#F1F1F1" height="62.2969" rx="2.5" ry="2.5" style="stroke:#181818;stroke-width:0.5;" width="115" x="455.5" y="426.2969"/><rect fill="#F1F1F1" height="10" style="stroke:#181818;stroke-width:0.5;" width="15" x="550.5" y="431.2969"/><rect fill="#F1F1F1" height="2" style="stroke:#181818;stroke-width:0.5;" width="4" x="548.5" y="433.2969"/><rect fill="#F1F1F1" height="2" style="stroke:#181818;stroke-width:0.5;" width="4" x="548.5" y="437.2969"/><text fill="#000000" font-family="sans-serif" font-size="14" lengthAdjust="spacing" textLength="59" x="478.5" y="467.292">ROSPlan</text></g><!--MD5=[9a0d4b0340012a44161447de88fcc332]
entity MISSION_MANAGER--><g id="elem_MISSION_MANAGER"><path d="M162.8066,435.3964 C165.8644,430.2075 171.945,428.9692 175.3469,435.0121 C179.0945,429.4251 184.1186,428.2853 188.6247,434.1313 C192.4279,427.8523 196.5995,428.0484 200.9235,433.5894 C204.8376,428.4748 209.6386,427.9871 212.6967,434.4593 C216.8467,427.5347 222.1631,428.4453 225.9038,434.8643 C229.7956,428.6459 235.7108,428.5092 239.3612,435.1175 C242.9582,429.9727 246.6438,429.4539 251.0734,434.1239 C254.4136,428.2032 260.7498,428.1358 264.3215,433.8605 C269.3333,428.2103 273.5663,427.9786 276.9739,435.4119 C280.3033,428.1681 285.3871,427.3131 290.3043,433.8792 C295.2401,428.971 300.4185,428.7117 303.5075,435.8956 C307.0493,429.7752 310.9568,428.6932 315.6182,434.7855 C320.2367,429.1433 324.4074,429.6449 327.8567,435.9802 C332.2457,429.9402 336.478,429.6748 341.4318,435.3243 C348.4559,436.7664 350.4363,441.3189 345.5583,446.9762 C353.2381,449.3776 353.3251,453.7169 348.9768,459.4221 C353.0846,464.8384 351.8853,468.1602 345.3434,469.8746 C349.9894,474.28 348.6248,479.8638 342.1786,481.158 C339.0506,487.2223 333.8468,488.4342 328.8071,483.4773 C325.4435,488.8153 320.3642,488.1493 317.1042,483.3577 C313.8128,490.0874 307.5897,489.0193 304.3015,483.3545 C300.9568,490.0434 295.2691,490.3298 291.4589,483.8069 C287.449,491.8083 281.7994,491.3736 276.6021,485.0373 C273.8752,489.8664 268.2428,490.0876 265.2473,485.3562 C260.5147,491.4205 254.7061,490.0191 251.367,483.7837 C248.7594,488.4247 243.4186,488.56 240.5803,484.0558 C236.8218,489.1428 230.2652,490.2071 227.56,482.9451 C223.4876,489.3991 218.2489,489.3002 213.574,483.6408 C209.3729,489.056 205.1603,489.1541 201.4485,483.1225 C197.7402,488.2321 191.6405,487.692 188.7726,482.1248 C185.9358,489.4724 179.8003,488.3365 175.7327,483.435 C171.426,489.4506 165.7836,489.4254 162.1803,482.6875 C147.5764,477.5899 147.8954,468.4278 157.435,458.5782 C147.8116,448.1667 149.6997,440.5409 162.8066,435.3964 " fill="#F1F1F1" style="stroke:#181818;stroke-width:0.5;"/><text fill="#000000" font-family="sans-serif" font-size="14" lengthAdjust="spacing" textLength="149" x="176.5" y="462.292">RCL mission manager</text></g><!--MD5=[81dfe9f25295c11202e400f169df631e]
entity VISION--><g id="elem_VISION"><rect fill="#F1F1F1" height="62.2969" rx="2.5" ry="2.5" style="stroke:#181818;stroke-width:0.5;" width="128" x="260" y="548.2969"/><rect fill="#F1F1F1" height="10" style="stroke:#181818;stroke-width:0.5;" width="15" x="368" y="553.2969"/><rect fill="#F1F1F1" height="2" style="stroke:#181818;stroke-width:0.5;" width="4" x="366" y="555.2969"/><rect fill="#F1F1F1" height="2" style="stroke:#181818;stroke-width:0.5;" width="4" x="366" y="559.2969"/><text fill="#000000" font-family="sans-serif" font-size="14" lengthAdjust="spacing" textLength="72" x="283" y="589.292">RCL Vision</text></g><!--MD5=[0f6829ecb44924df652b3631a96aadbd]
entity RCL_ARMOR--><g id="elem_RCL_ARMOR"><rect fill="#F1F1F1" height="62.2969" rx="2.5" ry="2.5" style="stroke:#181818;stroke-width:0.5;" width="202" x="7" y="548.2969"/><rect fill="#F1F1F1" height="10" style="stroke:#181818;stroke-width:0.5;" width="15" x="189" y="553.2969"/><rect fill="#F1F1F1" height="2" style="stroke:#181818;stroke-width:0.5;" width="4" x="187" y="555.2969"/><rect fill="#F1F1F1" height="2" style="stroke:#181818;stroke-width:0.5;" width="4" x="187" y="559.2969"/><text fill="#000000" font-family="sans-serif" font-size="14" lengthAdjust="spacing" textLength="146" x="30" y="589.292">RCL aRMOR interface</text></g><!--MD5=[47f35d3126ea50c850665eaf26625533]
entity RCL_ROSPLAN--><g id="elem_RCL_ROSPLAN"><rect fill="#F1F1F1" height="62.2969" rx="2.5" ry="2.5" style="stroke:#181818;stroke-width:0.5;" width="146" x="431" y="548.2969"/><rect fill="#F1F1F1" height="10" style="stroke:#181818;stroke-width:0.5;" width="15" x="557" y="553.2969"/><rect fill="#F1F1F1" height="2" style="stroke:#181818;stroke-width:0.5;" width="4" x="555" y="555.2969"/><rect fill="#F1F1F1" height="2" style="stroke:#181818;stroke-width:0.5;" width="4" x="555" y="559.2969"/><text fill="#000000" font-family="sans-serif" font-size="14" lengthAdjust="spacing" textLength="90" x="454" y="589.292">RCL ROSPlan</text></g><!--MD5=[80ad804a48cb6a09fe122341649e624a]
entity MOVEMENT--><g id="elem_MOVEMENT"><rect fill="#F1F1F1" height="62.2969" rx="2.5" ry="2.5" style="stroke:#181818;stroke-width:0.5;" width="231" x="117.5" y="304.2969"/><rect fill="#F1F1F1" height="10" style="stroke:#181818;stroke-width:0.5;" width="15" x="328.5" y="309.2969"/><rect fill="#F1F1F1" height="2" style="stroke:#181818;stroke-width:0.5;" width="4" x="326.5" y="311.2969"/><rect fill="#F1F1F1" height="2" style="stroke:#181818;stroke-width:0.5;" width="4" x="326.5" y="315.2969"/><text fill="#000000" font-family="sans-serif" font-size="14" lengthAdjust="spacing" textLength="175" x="140.5" y="345.292">RCL Movement Controller</text></g><!--MD5=[486232cd7de46315ddcadcacea223c06]
entity ENVIRONMENT--><g id="elem_ENVIRONMENT"><rect fill="#F1F1F1" height="62.2969" rx="2.5" ry="2.5" style="stroke:#181818;stroke-width:0.5;" width="224" x="184" y="60.2969"/><rect fill="#F1F1F1" height="10" style="stroke:#181818;stroke-width:0.5;" width="15" x="388" y="65.2969"/><rect fill="#F1F1F1" height="2" style="stroke:#181818;stroke-width:0.5;" width="4" x="386" y="67.2969"/><rect fill="#F1F1F1" height="2" style="stroke:#181818;stroke-width:0.5;" width="4" x="386" y="71.2969"/><text fill="#000000" font-family="sans-serif" font-size="14" lengthAdjust="spacing" textLength="168" x="207" y="101.292">RCL hunter environment</text></g><!--MD5=[7fc6cd56aeb823ff5315d751dc17b37e]
link ENVIRONMENT to NAVSTACK--><g id="link_ENVIRONMENT_NAVSTACK"><path codeLine="24" d="M248.24,125.6169 C224.2,142.3869 195.16,162.6569 171.2,179.3669 " fill="none" id="ENVIRONMENT-NAVSTACK" style="stroke:#181818;stroke-width:1.0;"/><polygon fill="#181818" points="167.09,182.2369,176.7609,180.373,171.1922,179.3782,172.187,173.8095,167.09,182.2369" style="stroke:#181818;stroke-width:1.0;"/><polygon fill="#181818" points="252.6,122.5769,242.9291,124.4407,248.4978,125.4355,247.503,131.0042,252.6,122.5769" style="stroke:#181818;stroke-width:1.0;"/></g><!--MD5=[cbaab8b86e01fba88e79cd38bb824379]
link ENVIRONMENT to MOVEIT--><g id="link_ENVIRONMENT_MOVEIT"><path codeLine="25" d="M296,127.8169 C296,143.2969 296,161.4169 296,176.8869 " fill="none" id="ENVIRONMENT-MOVEIT" style="stroke:#181818;stroke-width:1.0;"/><polygon fill="#181818" points="296,182.0269,300,173.0269,296,177.0269,292,173.0269,296,182.0269" style="stroke:#181818;stroke-width:1.0;"/><polygon fill="#181818" points="296,122.5769,292,131.5769,296,127.5769,300,131.5769,296,122.5769" style="stroke:#181818;stroke-width:1.0;"/></g><!--MD5=[96e6a4d3ff39bb4257129097999a6ac3]
link ENVIRONMENT to VISION--><g id="link_ENVIRONMENT_VISION"><path codeLine="26" d="M331.7,126.2769 C345.55,141.8669 359.78,161.4969 367,182.2969 C381.03,222.7369 419.78,248.2269 366,488.2969 C361.69,507.5169 352.86,527.5169 344.41,543.7569 " fill="none" id="ENVIRONMENT-VISION" style="stroke:#181818;stroke-width:1.0;"/><polygon fill="#181818" points="342.04,548.2369,349.7925,542.1624,344.384,543.8204,342.7261,538.4119,342.04,548.2369" style="stroke:#181818;stroke-width:1.0;"/><polygon fill="#181818" points="328.2,122.4069,331.2674,131.7659,331.5527,126.1162,337.2024,126.4016,328.2,122.4069" style="stroke:#181818;stroke-width:1.0;"/></g><!--MD5=[48caf0876454b705856ed0b25a92eb24]
link NAVSTACK to MOVEMENT--><g id="link_NAVSTACK_MOVEMENT"><path codeLine="27" d="M155.05,248.4869 C169.71,264.6169 187.16,283.8369 201.84,299.9869 " fill="none" id="NAVSTACK-MOVEMENT" style="stroke:#181818;stroke-width:1.0;"/><polygon fill="#181818" points="205.5,304.0269,202.4147,294.6738,202.1402,300.3239,196.49,300.0494,205.5,304.0269" style="stroke:#181818;stroke-width:1.0;"/><polygon fill="#181818" points="151.51,244.5769,154.5953,253.93,154.8698,248.2798,160.52,248.5543,151.51,244.5769" style="stroke:#181818;stroke-width:1.0;"/></g><!--MD5=[34b5f7a14996c7b8daebd1b3010a6b5c]
link MOVEIT to MOVEMENT--><g id="link_MOVEIT_MOVEMENT"><path codeLine="28" d="M277.59,249.3669 C269.34,265.0769 259.64,283.5469 251.4,299.2469 " fill="none" id="MOVEIT-MOVEMENT" style="stroke:#181818;stroke-width:1.0;"/><polygon fill="#181818" points="248.89,304.0269,256.619,297.9225,251.217,299.6014,249.5381,294.1994,248.89,304.0269" style="stroke:#181818;stroke-width:1.0;"/><polygon fill="#181818" points="280.1,244.5769,272.371,250.6812,277.773,249.0024,279.4519,254.4044,280.1,244.5769" style="stroke:#181818;stroke-width:1.0;"/></g><!--MD5=[0f53ab67025f86f4884f1e9deeca44d1]
link MOVEMENT to MISSION_MANAGER--><g id="link_MOVEMENT_MISSION_MANAGER"><path codeLine="29" d="M238.33,371.8169 C240.65,387.2969 243.37,405.4169 245.69,420.8869 " fill="none" id="MOVEMENT-MISSION_MANAGER" style="stroke:#181818;stroke-width:1.0;"/><polygon fill="#181818" points="246.46,426.0269,249.078,416.5323,245.7169,421.0824,241.1668,417.7213,246.46,426.0269" style="stroke:#181818;stroke-width:1.0;"/><polygon fill="#181818" points="237.54,366.5769,234.922,376.0714,238.2831,371.5213,242.8332,374.8824,237.54,366.5769" style="stroke:#181818;stroke-width:1.0;"/></g><!--MD5=[d765d9863f10af304e452562f2485cd3]
link MISSION_MANAGER to RCL_ROSPLAN--><g id="link_MISSION_MANAGER_RCL_ROSPLAN"><path codeLine="30" d="M319.07,490.5869 C355.2,507.7169 399.47,528.7169 435.64,545.8669 " fill="none" id="MISSION_MANAGER-RCL_ROSPLAN" style="stroke:#181818;stroke-width:1.0;"/><polygon fill="#181818" points="440.46,548.1569,434.0448,540.6839,435.9431,546.0128,430.6142,547.911,440.46,548.1569" style="stroke:#181818;stroke-width:1.0;"/><polygon fill="#181818" points="314.52,488.4269,320.9352,495.8998,319.0369,490.571,324.3658,488.6727,314.52,488.4269" style="stroke:#181818;stroke-width:1.0;"/></g><!--MD5=[a82cec19e3091a791be3f3903dec7221]
link ROSPLAN to RCL_ROSPLAN--><g id="link_ROSPLAN_RCL_ROSPLAN"><path codeLine="31" d="M510.34,493.8169 C509.17,509.2969 507.82,527.4169 506.66,542.8869 " fill="none" id="ROSPLAN-RCL_ROSPLAN" style="stroke:#181818;stroke-width:1.0;"/><polygon fill="#181818" points="506.27,548.0269,510.9276,539.3489,506.6415,543.0407,502.9497,538.7546,506.27,548.0269" style="stroke:#181818;stroke-width:1.0;"/><polygon fill="#181818" points="510.73,488.5769,506.0724,497.2548,510.3585,493.5631,514.0503,497.8492,510.73,488.5769" style="stroke:#181818;stroke-width:1.0;"/></g><!--MD5=[842b2851b2cd1464c25f009b2944caad]
link MISSION_MANAGER to RCL_ARMOR--><g id="link_MISSION_MANAGER_RCL_ARMOR"><path codeLine="32" d="M211.05,491.8269 C191.35,508.3569 167.66,528.2369 147.96,544.7669 " fill="none" id="MISSION_MANAGER-RCL_ARMOR" style="stroke:#181818;stroke-width:1.0;"/><polygon fill="#181818" points="144.07,548.0269,153.5398,545.3208,147.9053,544.8189,148.4071,539.1844,144.07,548.0269" style="stroke:#181818;stroke-width:1.0;"/><polygon fill="#181818" points="214.92,488.5769,205.4502,491.2829,211.0847,491.7848,210.5829,497.4194,214.92,488.5769" style="stroke:#181818;stroke-width:1.0;"/></g><!--MD5=[8827004c151b1f48bbed612bb6096fa9]
link ARMOR to RCL_ARMOR--><g id="link_ARMOR_RCL_ARMOR"><path codeLine="33" d="M84.49,492.7869 C88.84,508.6369 94,527.3969 98.38,543.3069 " fill="none" id="ARMOR-RCL_ARMOR" style="stroke:#181818;stroke-width:1.0;"/><polygon fill="#181818" points="99.71,548.1369,101.1791,538.3982,98.3836,543.316,93.4657,540.5205,99.71,548.1369" style="stroke:#181818;stroke-width:1.0;"/><polygon fill="#181818" points="83.16,487.9569,81.6983,497.6967,84.4901,492.7767,89.4101,495.5685,83.16,487.9569" style="stroke:#181818;stroke-width:1.0;"/></g><!--MD5=[4042427509d11f762c623369d219ea30]
link MISSION_MANAGER to VISION--><g id="link_MISSION_MANAGER_VISION"><path codeLine="34" d="M272.07,492.9269 C281.75,508.8469 293.21,527.6869 302.9,543.6169 " fill="none" id="MISSION_MANAGER-VISION" style="stroke:#181818;stroke-width:1.0;"/><polygon fill="#181818" points="305.58,548.0269,304.3173,538.2593,302.9803,543.7559,297.4837,542.4189,305.58,548.0269" style="stroke:#181818;stroke-width:1.0;"/><polygon fill="#181818" points="269.42,488.5769,270.6827,498.3444,272.0197,492.8479,277.5163,494.1849,269.42,488.5769" style="stroke:#181818;stroke-width:1.0;"/></g><!--MD5=[25bbfd9c28a5d50c7e6d004f48a96349]
link VISION to ORACLE--><g id="link_VISION_ORACLE"><path codeLine="35" d="M324,615.8169 C324,631.2969 324,649.4169 324,664.8869 " fill="none" id="VISION-ORACLE" style="stroke:#181818;stroke-width:1.0;"/><polygon fill="#181818" points="324,670.0269,328,661.0269,324,665.0269,320,661.0269,324,670.0269" style="stroke:#181818;stroke-width:1.0;"/><polygon fill="#181818" points="324,610.5769,320,619.5769,324,615.5769,328,619.5769,324,610.5769" style="stroke:#181818;stroke-width:1.0;"/></g><!--MD5=[3021ac310949c6bbf5725874f80e9d43]
@startuml

''' INFOS
title Project Architecture
skinparam Padding 8
allow_mixing


''' COMPONENTS
database "aRMOR" as ARMOR
component "MoveIt!" as MOVEIT
component "Navigation Stack" as NAVSTACK
component "erl3 Oracle" as ORACLE
component "ROSPlan" as ROSPLAN

cloud "RCL mission manager" as MISSION_MANAGER
component "RCL Vision" as VISION
component "RCL aRMOR interface" as RCL_ARMOR
component "RCL ROSPlan" as RCL_ROSPLAN
component "RCL Movement Controller" as MOVEMENT
component "RCL hunter environment" as ENVIRONMENT


''' CONNECTIONS
ENVIRONMENT <- -> NAVSTACK
ENVIRONMENT <- -> MOVEIT
ENVIRONMENT <- -> VISION
NAVSTACK <- -> MOVEMENT
MOVEIT <- -> MOVEMENT
MOVEMENT <- -> MISSION_MANAGER
MISSION_MANAGER <- -> RCL_ROSPLAN
ROSPLAN <- -> RCL_ROSPLAN
MISSION_MANAGER <- -> RCL_ARMOR
ARMOR <- -> RCL_ARMOR
MISSION_MANAGER <- -> VISION
VISION <- -> ORACLE

@enduml

@startuml

title Project Architecture
skinparam Padding 8
allow_mixing


database "aRMOR" as ARMOR
component "MoveIt!" as MOVEIT
component "Navigation Stack" as NAVSTACK
component "erl3 Oracle" as ORACLE
component "ROSPlan" as ROSPLAN

cloud "RCL mission manager" as MISSION_MANAGER
component "RCL Vision" as VISION
component "RCL aRMOR interface" as RCL_ARMOR
component "RCL ROSPlan" as RCL_ROSPLAN
component "RCL Movement Controller" as MOVEMENT
component "RCL hunter environment" as ENVIRONMENT


ENVIRONMENT <- -> NAVSTACK
ENVIRONMENT <- -> MOVEIT
ENVIRONMENT <- -> VISION
NAVSTACK <- -> MOVEMENT
MOVEIT <- -> MOVEMENT
MOVEMENT <- -> MISSION_MANAGER
MISSION_MANAGER <- -> RCL_ROSPLAN
ROSPLAN <- -> RCL_ROSPLAN
MISSION_MANAGER <- -> RCL_ARMOR
ARMOR <- -> RCL_ARMOR
MISSION_MANAGER <- -> VISION
VISION <- -> ORACLE

@enduml

PlantUML version 1.2022.6(Tue Jun 21 17:34:49 UTC 2022)
(GPL source distribution)
Java Runtime: Java(TM) SE Runtime Environment
JVM: Java HotSpot(TM) 64-Bit Server VM
Default Encoding: UTF-8
Language: en
Country: US
--></g></svg>