<?xml version="1.0" encoding="UTF-8" standalone="no"?><svg xmlns="http://www.w3.org/2000/svg" xmlns:xlink="http://www.w3.org/1999/xlink" contentStyleType="text/css" height="513px" preserveAspectRatio="none" style="width:847px;height:513px;background:#FFFFFF;" version="1.1" viewBox="0 0 847 513" width="847px" zoomAndPan="magnify"><defs/><g><rect height="42.2969" style="stroke:#00000000;stroke-width:1.0;fill:none;" width="206" x="313.715" y="5"/><text fill="#000000" font-family="sans-serif" font-size="14" font-weight="bold" lengthAdjust="spacing" textLength="180" x="326.715" y="30.9951">NODE head_orientation</text><!--MD5=[39c4eee9471449e046008ca5703679c3]
cluster PARAMETERS--><g id="cluster_PARAMETERS"><path d="M116.43,346.2969 C116.43,336.2969 220.43,336.2969 220.43,336.2969 C220.43,336.2969 324.43,336.2969 324.43,346.2969 L324.43,486.2969 C324.43,496.2969 220.43,496.2969 220.43,496.2969 C220.43,496.2969 116.43,496.2969 116.43,486.2969 L116.43,346.2969 " style="stroke:#181818;stroke-width:1.0;fill:none;"/><path d="M116.43,346.2969 C116.43,356.2969 220.43,356.2969 220.43,356.2969 C220.43,356.2969 324.43,356.2969 324.43,346.2969 " fill="none" style="stroke:#181818;stroke-width:1.0;"/><text fill="#000000" font-family="sans-serif" font-size="14" font-weight="bold" lengthAdjust="spacing" textLength="176" x="132.43" y="379.292">ROS parameter server</text></g><!--MD5=[c0e23e30defb7e0e01d0293383cfa63b]
cluster NODE_HEAD_ORIENT--><g id="cluster_NODE_HEAD_ORIENT"><rect height="177" rx="2.5" ry="2.5" style="stroke:#181818;stroke-width:1.0;fill:none;" width="423" x="285.43" y="60.2969"/><rect height="10" style="stroke:#181818;stroke-width:1.0;fill:none;" width="15" x="688.43" y="65.2969"/><rect height="2" style="stroke:#181818;stroke-width:1.0;fill:none;" width="4" x="686.43" y="67.2969"/><rect height="2" style="stroke:#181818;stroke-width:1.0;fill:none;" width="4" x="686.43" y="71.2969"/><text fill="#000000" font-family="sans-serif" font-size="14" font-style="italic" lengthAdjust="spacing" textLength="104" x="444.93" y="94.292">«ROSPy node»</text><text fill="#000000" font-family="sans-serif" font-size="14" font-weight="bold" lengthAdjust="spacing" textLength="132" x="430.93" y="126.5889">head_orientation</text></g><!--MD5=[acc9675f3f958e31865bb2808a39cf41]
entity des_yaw--><g id="elem_des_yaw"><polygon fill="#F1F1F1" points="184.93,420.2969,194.93,410.2969,299.93,410.2969,299.93,462.5938,289.93,472.5938,184.93,472.5938,184.93,420.2969" style="stroke:#181818;stroke-width:0.5;"/><line style="stroke:#181818;stroke-width:0.5;" x1="289.93" x2="299.93" y1="420.2969" y2="410.2969"/><line style="stroke:#181818;stroke-width:0.5;" x1="184.93" x2="289.93" y1="420.2969" y2="420.2969"/><line style="stroke:#181818;stroke-width:0.5;" x1="289.93" x2="289.93" y1="420.2969" y2="472.5938"/><text fill="#000000" font-family="sans-serif" font-size="14" lengthAdjust="spacing" textLength="59" x="207.93" y="451.292">des_yaw</text></g><!--MD5=[6c4570fb0b8165746cd0872b13896130]
entity NODE_HEAD_ORIENT.SWITCH--><g id="elem_NODE_HEAD_ORIENT.SWITCH"><polygon fill="#F1F1F1" points="328.93,161.2969,338.93,151.2969,517.93,151.2969,517.93,203.5938,507.93,213.5938,328.93,213.5938,328.93,161.2969" style="stroke:#181818;stroke-width:0.5;"/><line style="stroke:#181818;stroke-width:0.5;" x1="507.93" x2="517.93" y1="161.2969" y2="151.2969"/><line style="stroke:#181818;stroke-width:0.5;" x1="328.93" x2="507.93" y1="161.2969" y2="161.2969"/><line style="stroke:#181818;stroke-width:0.5;" x1="507.93" x2="507.93" y1="161.2969" y2="213.5938"/><text fill="#000000" font-family="sans-serif" font-size="14" lengthAdjust="spacing" textLength="133" x="351.93" y="192.292">head_orient_switch</text></g><!--MD5=[441c6533b5c61fa274043da015ade5c4]
entity NODE_HEAD_ORIENT.READ_ODOM--><g id="elem_NODE_HEAD_ORIENT.READ_ODOM"><polygon fill="#F1F1F1" points="552.93,161.2969,562.93,151.2969,683.93,151.2969,683.93,203.5938,673.93,213.5938,552.93,213.5938,552.93,161.2969" style="stroke:#181818;stroke-width:0.5;"/><line style="stroke:#181818;stroke-width:0.5;" x1="673.93" x2="683.93" y1="161.2969" y2="151.2969"/><line style="stroke:#181818;stroke-width:0.5;" x1="552.93" x2="673.93" y1="161.2969" y2="161.2969"/><line style="stroke:#181818;stroke-width:0.5;" x1="673.93" x2="673.93" y1="161.2969" y2="213.5938"/><text fill="#000000" font-family="sans-serif" font-size="14" lengthAdjust="spacing" textLength="75" x="575.93" y="192.292">clbk_odom</text></g><!--MD5=[a29493d5c3d449fd805f8038216f6f38]
entity TOPIC_VEL--><g id="elem_TOPIC_VEL"><ellipse cx="46.43" cy="441.2969" fill="#F1F1F1" rx="8" ry="8" style="stroke:#181818;stroke-width:0.5;"/><text fill="#000000" font-family="sans-serif" font-size="14" lengthAdjust="spacing" textLength="61" x="15.93" y="479.292">/cmd_vel</text></g><!--MD5=[9c0f7ecf381f88014a7ea481e5efb054]
entity TOPIC_ODOM--><g id="elem_TOPIC_ODOM"><ellipse cx="648.43" cy="441.2969" fill="#F1F1F1" rx="8" ry="8" style="stroke:#181818;stroke-width:0.5;"/><text fill="#000000" font-family="sans-serif" font-size="14" lengthAdjust="spacing" textLength="45" x="625.93" y="479.292">/odom</text></g><!--MD5=[ce0550ece9e8498f5b487be6600f7375]
entity SRV_HEAD_ORIENT_SWITCH--><g id="elem_SRV_HEAD_ORIENT_SWITCH"><ellipse cx="433.43" cy="441.2969" fill="#F1F1F1" rx="8" ry="8" style="stroke:#181818;stroke-width:0.5;"/><text fill="#000000" font-family="sans-serif" font-size="14" lengthAdjust="spacing" textLength="138" x="364.43" y="479.292">/head_orient_switch</text></g><!--MD5=[51bfc269a799dad3a2a7180af6efdb6e]
reverse link NODE_HEAD_ORIENT to PARAMETERS--><g id="link_NODE_HEAD_ORIENT_PARAMETERS"><path d="M297.5377,237.6459 C297.5284,237.8601 297.5189,238.0745 297.509,238.2891 C297.4891,238.7183 297.4678,239.1484 297.4451,239.5794 C297.354,241.3033 297.2395,243.0405 297.0991,244.7869 C296.8183,248.2797 296.4339,251.8093 295.9269,255.343 C294.9129,262.4105 293.4083,269.4941 291.2603,276.3313 C286.9644,290.0056 280.095,302.6944 269.43,312.2969 C252.7,327.3569 184.96,305.0069 168.43,320.2969 C163.5525,324.8081 159.5877,330.0261 156.3847,335.7086 C156.2846,335.8861 156.1853,336.0642 156.0867,336.2426 " fill="none" id="NODE_HEAD_ORIENT-backto-PARAMETERS" style="stroke:#181818;stroke-width:1.0;"/><polygon fill="#181818" points="297.5377,237.6459,293.1544,246.4656,297.3227,242.6413,301.147,246.8096,297.5377,237.6459" style="stroke:#181818;stroke-width:1.0;"/><text fill="#000000" font-family="sans-serif" font-size="13" lengthAdjust="spacing" textLength="21" x="264.44" y="203.4338">get</text></g><!--MD5=[2152f260fbceda8c98f75566665bcebd]
link NODE_HEAD_ORIENT to TOPIC_VEL--><g id="link_NODE_HEAD_ORIENT_TOPIC_VEL"><path codeLine="22" d="M285.2549,182.7895 C285.0961,182.7819 284.9352,182.7743 284.7722,182.7666 C284.4461,182.7514 284.1116,182.7362 283.7688,182.7211 C278.2843,182.4791 270.6741,182.2617 261.4845,182.3022 C243.1053,182.3831 218.4081,183.4956 191.7613,187.5069 C138.4675,195.5294 77.375,215.1469 43.43,261.2969 C6,312.1869 29.89,395.0969 41.33,427.1069 " fill="none" id="NODE_HEAD_ORIENT-to-TOPIC_VEL" style="stroke:#181818;stroke-width:1.0;"/><polygon fill="#181818" points="43.18,432.1369,43.8276,422.3093,41.4541,427.4442,36.3193,425.0707,43.18,432.1369" style="stroke:#181818;stroke-width:1.0;"/><path d="M48.43,266.2969 L48.43,307.2969 L256.43,307.2969 L256.43,276.2969 L246.43,266.2969 L48.43,266.2969 " fill="#FEFFDD" style="stroke:#181818;stroke-width:0.5;"/><path d="M246.43,266.2969 L246.43,276.2969 L256.43,276.2969 L246.43,266.2969 " fill="#FEFFDD" style="stroke:#181818;stroke-width:0.5;"/><text fill="#000000" font-family="sans-serif" font-size="13" lengthAdjust="spacing" textLength="171" x="62.43" y="291.3638">geometry_msgs/Twist.msg</text><text fill="#000000" font-family="sans-serif" font-size="13" lengthAdjust="spacing" textLength="24" x="261.3" y="172.3538">pub</text></g><!--MD5=[5ba61eb15c82dd1f9bcae5f83b1c5138]
reverse link NODE_HEAD_ORIENT.READ_ODOM to TOPIC_ODOM--><g id="link_NODE_HEAD_ORIENT.READ_ODOM_TOPIC_ODOM"><path codeLine="26" d="M622.58,218.8569 C629.66,279.5069 643.67,399.5469 647.46,432.0269 " fill="none" id="NODE_HEAD_ORIENT.READ_ODOM-backto-TOPIC_ODOM" style="stroke:#181818;stroke-width:1.0;"/><polygon fill="#181818" points="621.96,213.5369,619.0405,222.9431,622.545,218.5025,626.9856,222.007,621.96,213.5369" style="stroke:#181818;stroke-width:1.0;"/><path d="M638.43,266.2969 L638.43,307.2969 L840.43,307.2969 L840.43,276.2969 L830.43,266.2969 L638.43,266.2969 " fill="#FEFFDD" style="stroke:#181818;stroke-width:0.5;"/><path d="M830.43,266.2969 L830.43,276.2969 L840.43,276.2969 L830.43,266.2969 " fill="#FEFFDD" style="stroke:#181818;stroke-width:0.5;"/><text fill="#000000" font-family="sans-serif" font-size="13" lengthAdjust="spacing" textLength="165" x="652.43" y="291.3638">nav_msgs/Odometry.msg</text><text fill="#000000" font-family="sans-serif" font-size="13" lengthAdjust="spacing" textLength="23" x="588.2152" y="241.6231">sub</text></g><!--MD5=[ecb43826177551880f94602bcf398a44]
link NODE_HEAD_ORIENT.SWITCH to SRV_HEAD_ORIENT_SWITCH--><g id="link_NODE_HEAD_ORIENT.SWITCH_SRV_HEAD_ORIENT_SWITCH"><path codeLine="30" d="M424.6,213.5369 C425.61,239.6769 427.11,278.4769 428.43,312.2969 C430.06,354.2669 432.01,403.9769 432.92,427.1669 " fill="none" id="NODE_HEAD_ORIENT.SWITCH-to-SRV_HEAD_ORIENT_SWITCH" style="stroke:#181818;stroke-width:1.0;"/><polygon fill="#181818" points="433.11,432.2069,436.7471,423.0542,432.9102,427.2109,428.7535,423.3739,433.11,432.2069" style="stroke:#181818;stroke-width:1.0;"/><path d="M433.43,266.2969 L433.43,307.2969 L600.43,307.2969 L600.43,276.2969 L590.43,266.2969 L433.43,266.2969 " fill="#FEFFDD" style="stroke:#181818;stroke-width:0.5;"/><path d="M590.43,266.2969 L590.43,276.2969 L600.43,276.2969 L590.43,266.2969 " fill="#FEFFDD" style="stroke:#181818;stroke-width:0.5;"/><text fill="#000000" font-family="sans-serif" font-size="13" lengthAdjust="spacing" textLength="130" x="447.43" y="291.3638">std_srvs/SetBool.srv</text><text fill="#000000" font-family="sans-serif" font-size="13" lengthAdjust="spacing" textLength="19" x="394.7933" y="241.6231">srv</text></g><!--MD5=[4bbc4ea4a15a88224cc3ebc5bfb7f420]
@startuml

''' INFOS
title NODE head_orientation
skinparam Padding 8
allow_mixing


''' COMPONENTS
database "ROS parameter server" as PARAMETERS {
	node "des_yaw"
}

component "head_orientation" <<ROSPy node>> as NODE_HEAD_ORIENT {
	node "head_orient_switch" as NODE_HEAD_ORIENT.SWITCH
	node "clbk_odom" as NODE_HEAD_ORIENT.READ_ODOM
	
}

NODE_HEAD_ORIENT "get" <- - PARAMETERS

() "/cmd_vel" as TOPIC_VEL
NODE_HEAD_ORIENT "pub" - -> TOPIC_VEL
note on link: geometry_msgs/Twist.msg

() "/odom" as TOPIC_ODOM
NODE_HEAD_ORIENT.READ_ODOM "sub" <- - TOPIC_ODOM
note on link: nav_msgs/Odometry.msg

() "/head_orient_switch" as SRV_HEAD_ORIENT_SWITCH
NODE_HEAD_ORIENT.SWITCH "srv" - -> SRV_HEAD_ORIENT_SWITCH
note on link: std_srvs/SetBool.srv

@enduml

@startuml

title NODE head_orientation
skinparam Padding 8
allow_mixing


database "ROS parameter server" as PARAMETERS {
	node "des_yaw"
}

component "head_orientation" <<ROSPy node>> as NODE_HEAD_ORIENT {
	node "head_orient_switch" as NODE_HEAD_ORIENT.SWITCH
	node "clbk_odom" as NODE_HEAD_ORIENT.READ_ODOM
	
}

NODE_HEAD_ORIENT "get" <- - PARAMETERS

() "/cmd_vel" as TOPIC_VEL
NODE_HEAD_ORIENT "pub" - -> TOPIC_VEL
note on link: geometry_msgs/Twist.msg

() "/odom" as TOPIC_ODOM
NODE_HEAD_ORIENT.READ_ODOM "sub" <- - TOPIC_ODOM
note on link: nav_msgs/Odometry.msg

() "/head_orient_switch" as SRV_HEAD_ORIENT_SWITCH
NODE_HEAD_ORIENT.SWITCH "srv" - -> SRV_HEAD_ORIENT_SWITCH
note on link: std_srvs/SetBool.srv

@enduml

PlantUML version 1.2022.6(Tue Jun 21 17:34:49 UTC 2022)
(GPL source distribution)
Java Runtime: Java(TM) SE Runtime Environment
JVM: Java HotSpot(TM) 64-Bit Server VM
Default Encoding: UTF-8
Language: en
Country: US
--></g></svg>