<?xml version="1.0" encoding="UTF-8" standalone="no"?><svg xmlns="http://www.w3.org/2000/svg" xmlns:xlink="http://www.w3.org/1999/xlink" contentStyleType="text/css" height="650px" preserveAspectRatio="none" style="width:1799px;height:650px;background:#FFFFFF;" version="1.1" viewBox="0 0 1799 650" width="1799px" zoomAndPan="magnify"><defs/><g><rect height="42.2969" style="stroke:#00000000;stroke-width:1.0;fill:none;" width="125" x="830.25" y="5"/><text fill="#000000" font-family="sans-serif" font-size="14" font-weight="bold" lengthAdjust="spacing" textLength="99" x="843.25" y="30.9951">NODE bug_m</text><!--MD5=[39c4eee9471449e046008ca5703679c3]
cluster PARAMETERS--><g id="cluster_PARAMETERS"><path d="M824.5,346.2969 C824.5,336.2969 1005,336.2969 1005,336.2969 C1005,336.2969 1185.5,336.2969 1185.5,346.2969 L1185.5,623.2969 C1185.5,633.2969 1005,633.2969 1005,633.2969 C1005,633.2969 824.5,633.2969 824.5,623.2969 L824.5,346.2969 " style="stroke:#181818;stroke-width:1.0;fill:none;"/><path d="M824.5,346.2969 C824.5,356.2969 1005,356.2969 1005,356.2969 C1005,356.2969 1185.5,356.2969 1185.5,346.2969 " fill="none" style="stroke:#181818;stroke-width:1.0;"/><text fill="#000000" font-family="sans-serif" font-size="14" font-weight="bold" lengthAdjust="spacing" textLength="176" x="917" y="379.292">ROS parameter server</text></g><!--MD5=[01bf3e4363d59cfe4feb1f9f5aa6a0d4]
cluster NODE_BUG_M--><g id="cluster_NODE_BUG_M"><rect height="177" rx="2.5" ry="2.5" style="stroke:#181818;stroke-width:1.0;fill:none;" width="527" x="767.5" y="60.2969"/><rect height="10" style="stroke:#181818;stroke-width:1.0;fill:none;" width="15" x="1274.5" y="65.2969"/><rect height="2" style="stroke:#181818;stroke-width:1.0;fill:none;" width="4" x="1272.5" y="67.2969"/><rect height="2" style="stroke:#181818;stroke-width:1.0;fill:none;" width="4" x="1272.5" y="71.2969"/><text fill="#000000" font-family="sans-serif" font-size="14" font-style="italic" lengthAdjust="spacing" textLength="104" x="979" y="94.292">«ROSPy node»</text><text fill="#000000" font-family="sans-serif" font-size="14" font-weight="bold" lengthAdjust="spacing" textLength="51" x="1005.5" y="126.5889">bug_m</text></g><!--MD5=[3d2d0cdc5a87e8d33dbbdf625e1e368a]
entity des_pos_x--><g id="elem_des_pos_x"><polygon fill="#F1F1F1" points="868,420.2969,878,410.2969,997,410.2969,997,462.5938,987,472.5938,868,472.5938,868,420.2969" style="stroke:#181818;stroke-width:0.5;"/><line style="stroke:#181818;stroke-width:0.5;" x1="987" x2="997" y1="420.2969" y2="410.2969"/><line style="stroke:#181818;stroke-width:0.5;" x1="868" x2="987" y1="420.2969" y2="420.2969"/><line style="stroke:#181818;stroke-width:0.5;" x1="987" x2="987" y1="420.2969" y2="472.5938"/><text fill="#000000" font-family="sans-serif" font-size="14" lengthAdjust="spacing" textLength="73" x="891" y="451.292">des_pos_x</text></g><!--MD5=[f8ee79e2f34056c410e55b7856b01451]
entity des_pos_y--><g id="elem_des_pos_y"><polygon fill="#F1F1F1" points="1032,420.2969,1042,410.2969,1161,410.2969,1161,462.5938,1151,472.5938,1032,472.5938,1032,420.2969" style="stroke:#181818;stroke-width:0.5;"/><line style="stroke:#181818;stroke-width:0.5;" x1="1151" x2="1161" y1="420.2969" y2="410.2969"/><line style="stroke:#181818;stroke-width:0.5;" x1="1032" x2="1151" y1="420.2969" y2="420.2969"/><line style="stroke:#181818;stroke-width:0.5;" x1="1151" x2="1151" y1="420.2969" y2="472.5938"/><text fill="#000000" font-family="sans-serif" font-size="14" lengthAdjust="spacing" textLength="73" x="1055" y="451.292">des_pos_y</text></g><!--MD5=[acc9675f3f958e31865bb2808a39cf41]
entity des_yaw--><g id="elem_des_yaw"><polygon fill="#F1F1F1" points="875,557.2969,885,547.2969,990,547.2969,990,599.5938,980,609.5938,875,609.5938,875,557.2969" style="stroke:#181818;stroke-width:0.5;"/><line style="stroke:#181818;stroke-width:0.5;" x1="980" x2="990" y1="557.2969" y2="547.2969"/><line style="stroke:#181818;stroke-width:0.5;" x1="875" x2="980" y1="557.2969" y2="557.2969"/><line style="stroke:#181818;stroke-width:0.5;" x1="980" x2="980" y1="557.2969" y2="609.5938"/><text fill="#000000" font-family="sans-serif" font-size="14" lengthAdjust="spacing" textLength="59" x="898" y="588.292">des_yaw</text></g><!--MD5=[8e1eacda4580b15fb4a71e0bfab2db93]
entity NODE_BUG_M.READ_ODOM--><g id="elem_NODE_BUG_M.READ_ODOM"><polygon fill="#F1F1F1" points="811,161.2969,821,151.2969,942,151.2969,942,203.5938,932,213.5938,811,213.5938,811,161.2969" style="stroke:#181818;stroke-width:0.5;"/><line style="stroke:#181818;stroke-width:0.5;" x1="932" x2="942" y1="161.2969" y2="151.2969"/><line style="stroke:#181818;stroke-width:0.5;" x1="811" x2="932" y1="161.2969" y2="161.2969"/><line style="stroke:#181818;stroke-width:0.5;" x1="932" x2="932" y1="161.2969" y2="213.5938"/><text fill="#000000" font-family="sans-serif" font-size="14" lengthAdjust="spacing" textLength="75" x="834" y="192.292">clbk_odom</text></g><!--MD5=[05030d403f5f485f3569c237755bb83a]
entity NODE_BUG_M.LISTENER_LASER--><g id="elem_NODE_BUG_M.LISTENER_LASER"><polygon fill="#F1F1F1" points="977.5,161.2969,987.5,151.2969,1101.5,151.2969,1101.5,203.5938,1091.5,213.5938,977.5,213.5938,977.5,161.2969" style="stroke:#181818;stroke-width:0.5;"/><line style="stroke:#181818;stroke-width:0.5;" x1="1091.5" x2="1101.5" y1="161.2969" y2="151.2969"/><line style="stroke:#181818;stroke-width:0.5;" x1="977.5" x2="1091.5" y1="161.2969" y2="161.2969"/><line style="stroke:#181818;stroke-width:0.5;" x1="1091.5" x2="1091.5" y1="161.2969" y2="213.5938"/><text fill="#000000" font-family="sans-serif" font-size="14" lengthAdjust="spacing" textLength="68" x="1000.5" y="192.292">clbk_laser</text></g><!--MD5=[405c75ce201b9d8a05cb609819e52244]
entity NODE_BUG_M.SWITCH--><g id="elem_NODE_BUG_M.SWITCH"><polygon fill="#F1F1F1" points="1136.5,161.2969,1146.5,151.2969,1270.5,151.2969,1270.5,203.5938,1260.5,213.5938,1136.5,213.5938,1136.5,161.2969" style="stroke:#181818;stroke-width:0.5;"/><line style="stroke:#181818;stroke-width:0.5;" x1="1260.5" x2="1270.5" y1="161.2969" y2="151.2969"/><line style="stroke:#181818;stroke-width:0.5;" x1="1136.5" x2="1260.5" y1="161.2969" y2="161.2969"/><line style="stroke:#181818;stroke-width:0.5;" x1="1260.5" x2="1260.5" y1="161.2969" y2="213.5938"/><text fill="#000000" font-family="sans-serif" font-size="14" lengthAdjust="spacing" textLength="78" x="1159.5" y="192.292">bug_switch</text></g><!--MD5=[9c0f7ecf381f88014a7ea481e5efb054]
entity TOPIC_ODOM--><g id="elem_TOPIC_ODOM"><ellipse cx="1247.5" cy="441.2969" fill="#F1F1F1" rx="8" ry="8" style="stroke:#181818;stroke-width:0.5;"/><text fill="#000000" font-family="sans-serif" font-size="14" lengthAdjust="spacing" textLength="45" x="1225" y="479.292">/odom</text></g><!--MD5=[cf4c761246342468269b9fda4f668b9a]
entity TOPIC_LASER--><g id="elem_TOPIC_LASER"><ellipse cx="1355.5" cy="441.2969" fill="#F1F1F1" rx="8" ry="8" style="stroke:#181818;stroke-width:0.5;"/><text fill="#000000" font-family="sans-serif" font-size="14" lengthAdjust="spacing" textLength="38" x="1336.5" y="479.292">/scan</text></g><!--MD5=[a29493d5c3d449fd805f8038216f6f38]
entity TOPIC_VEL--><g id="elem_TOPIC_VEL"><ellipse cx="36.5" cy="441.2969" fill="#F1F1F1" rx="8" ry="8" style="stroke:#181818;stroke-width:0.5;"/><text fill="#000000" font-family="sans-serif" font-size="14" lengthAdjust="spacing" textLength="61" x="6" y="479.292">/cmd_vel</text></g><!--MD5=[e15ecfc50d5ee6f9b14c4c0ec877aca4]
entity TOPIC_BUG_M_SIGNAL--><g id="elem_TOPIC_BUG_M_SIGNAL"><ellipse cx="294.5" cy="441.2969" fill="#F1F1F1" rx="8" ry="8" style="stroke:#181818;stroke-width:0.5;"/><text fill="#000000" font-family="sans-serif" font-size="14" lengthAdjust="spacing" textLength="99" x="245" y="479.292">/bug_m_signal</text></g><!--MD5=[e6d9a3d81fc487a20f0b2c2970d6073d]
entity SRV_GOTO_SWITCH--><g id="elem_SRV_GOTO_SWITCH"><ellipse cx="502.5" cy="441.2969" fill="#F1F1F1" rx="8" ry="8" style="stroke:#181818;stroke-width:0.5;"/><text fill="#000000" font-family="sans-serif" font-size="14" lengthAdjust="spacing" textLength="137" x="434" y="479.292">/go_to_point_switch</text></g><!--MD5=[ce0550ece9e8498f5b487be6600f7375]
entity SRV_HEAD_ORIENT_SWITCH--><g id="elem_SRV_HEAD_ORIENT_SWITCH"><ellipse cx="712.5" cy="441.2969" fill="#F1F1F1" rx="8" ry="8" style="stroke:#181818;stroke-width:0.5;"/><text fill="#000000" font-family="sans-serif" font-size="14" lengthAdjust="spacing" textLength="138" x="643.5" y="479.292">/head_orient_switch</text></g><!--MD5=[7b41821c8cfb3c757c9844b2404b064c]
entity SRV_BUG_SWITCH--><g id="elem_SRV_BUG_SWITCH"><ellipse cx="1630.5" cy="441.2969" fill="#F1F1F1" rx="8" ry="8" style="stroke:#181818;stroke-width:0.5;"/><text fill="#000000" font-family="sans-serif" font-size="14" lengthAdjust="spacing" textLength="83" x="1589" y="479.292">/bug_switch</text></g><!--MD5=[fcd0e82e8f507c8ad0b4edc4ec707135]
reverse link NODE_BUG_M to PARAMETERS--><g id="link_NODE_BUG_M_PARAMETERS"><path d="M782.6539,237.4113 C782.7055,237.5217 782.7575,237.632 782.8098,237.7421 C782.9144,237.9623 783.0203,238.1817 783.1276,238.4004 C783.3421,238.8378 783.5621,239.2721 783.7875,239.703 C784.6892,241.4267 785.679,243.0967 786.765,244.6956 C788.937,247.8934 791.4938,250.8069 794.5,253.2969 C812.18,267.9369 881.91,244.4469 897.5,261.2969 C912.89,277.9369 912.09,294.9469 897.5,312.2969 C884.14,328.1769 866.06,305.5169 851.5,320.2969 C846.8375,325.0306 843.0347,330.4163 839.9506,336.2217 " fill="none" id="NODE_BUG_M-backto-PARAMETERS" style="stroke:#181818;stroke-width:1.0;"/><polygon fill="#181818" points="782.6539,237.4113,782.8417,247.2583,784.7713,241.9408,790.0889,243.8704,782.6539,237.4113" style="stroke:#181818;stroke-width:1.0;"/><text fill="#000000" font-family="sans-serif" font-size="13" lengthAdjust="spacing" textLength="21" x="746.48" y="203.5038">get</text></g><!--MD5=[50606cfa1abf67bc0bfa867db0e0c6f4]
reverse link NODE_BUG_M.READ_ODOM to TOPIC_ODOM--><g id="link_NODE_BUG_M.READ_ODOM_TOPIC_ODOM"><path codeLine="24" d="M912.31,217.0069 C926.61,229.3969 943.66,242.9269 960.5,253.2969 C1016.6,287.8469 1032.72,295.7469 1096.5,312.2969 C1114.01,316.8369 1162.28,310.5269 1177.5,320.2969 C1219.72,347.3969 1239.54,409.6769 1245.49,432.0769 " fill="none" id="NODE_BUG_M.READ_ODOM-backto-TOPIC_ODOM" style="stroke:#181818;stroke-width:1.0;"/><polygon fill="#181818" points="908.35,213.5369,912.4916,222.4726,912.1138,216.8284,917.758,216.4506,908.35,213.5369" style="stroke:#181818;stroke-width:1.0;"/><path d="M1101.5,266.2969 L1101.5,307.2969 L1303.5,307.2969 L1303.5,276.2969 L1293.5,266.2969 L1101.5,266.2969 " fill="#FEFFDD" style="stroke:#181818;stroke-width:0.5;"/><path d="M1293.5,266.2969 L1293.5,276.2969 L1303.5,276.2969 L1293.5,266.2969 " fill="#FEFFDD" style="stroke:#181818;stroke-width:0.5;"/><text fill="#000000" font-family="sans-serif" font-size="13" lengthAdjust="spacing" textLength="165" x="1115.5" y="291.3638">nav_msgs/Odometry.msg</text><text fill="#000000" font-family="sans-serif" font-size="13" lengthAdjust="spacing" textLength="23" x="879.4727" y="241.6231">sub</text></g><!--MD5=[7d06c8ae2e1af6d4d11e89a8b0079aa3]
reverse link NODE_BUG_M.LISTENER_LASER to TOPIC_LASER--><g id="link_NODE_BUG_M.LISTENER_LASER_TOPIC_LASER"><path codeLine="28" d="M1068.58,217.3969 C1082.45,231.1669 1100.23,245.6069 1119.5,253.2969 C1139.85,261.4169 1299.72,247.2069 1316.5,261.2969 C1369.36,305.6769 1360.63,403.4369 1356.74,432.1869 " fill="none" id="NODE_BUG_M.LISTENER_LASER-backto-TOPIC_LASER" style="stroke:#181818;stroke-width:1.0;"/><polygon fill="#181818" points="1064.77,213.5369,1068.2498,222.7505,1068.284,217.0938,1073.9408,217.1281,1064.77,213.5369" style="stroke:#181818;stroke-width:1.0;"/><path d="M1352.5,266.2969 L1352.5,307.2969 L1577.5,307.2969 L1577.5,276.2969 L1567.5,266.2969 L1352.5,266.2969 " fill="#FEFFDD" style="stroke:#181818;stroke-width:0.5;"/><path d="M1567.5,266.2969 L1567.5,276.2969 L1577.5,276.2969 L1567.5,266.2969 " fill="#FEFFDD" style="stroke:#181818;stroke-width:0.5;"/><text fill="#000000" font-family="sans-serif" font-size="13" lengthAdjust="spacing" textLength="188" x="1366.5" y="291.3638">sensor_msgs/LaserScan.msg</text><text fill="#000000" font-family="sans-serif" font-size="13" lengthAdjust="spacing" textLength="23" x="1034.7617" y="241.6231">sub</text></g><!--MD5=[2cbf74590d6c00b3fca55a4630363409]
link NODE_BUG_M to TOPIC_VEL--><g id="link_NODE_BUG_M_TOPIC_VEL"><path codeLine="32" d="M767.3435,183.6006 C767.031,183.6127 766.71,183.6251 766.3804,183.6379 C761.1073,183.8428 753.6601,184.1395 744.3363,184.53 C725.6888,185.3109 699.5348,186.4668 668.2539,188.013 C605.6922,191.1053 522.6231,195.7588 438.0838,202.0956 C269.005,214.7694 94.045,234.1769 65.5,261.2969 C18.9,305.5769 28.19,393.0969 33.86,426.7069 " fill="none" id="NODE_BUG_M-to-TOPIC_VEL" style="stroke:#181818;stroke-width:1.0;"/><polygon fill="#181818" points="34.79,431.9869,37.1571,422.4267,33.917,427.0637,29.28,423.8235,34.79,431.9869" style="stroke:#181818;stroke-width:1.0;"/><path d="M70.5,266.2969 L70.5,307.2969 L278.5,307.2969 L278.5,276.2969 L268.5,266.2969 L70.5,266.2969 " fill="#FEFFDD" style="stroke:#181818;stroke-width:0.5;"/><path d="M268.5,266.2969 L268.5,276.2969 L278.5,276.2969 L268.5,266.2969 " fill="#FEFFDD" style="stroke:#181818;stroke-width:0.5;"/><text fill="#000000" font-family="sans-serif" font-size="13" lengthAdjust="spacing" textLength="171" x="84.5" y="291.3638">geometry_msgs/Twist.msg</text><text fill="#000000" font-family="sans-serif" font-size="13" lengthAdjust="spacing" textLength="24" x="743.38" y="172.3638">pub</text></g><!--MD5=[084004d7efffa6299b3c092e29c41db9]
reverse link NODE_BUG_M to TOPIC_BUG_M_SIGNAL--><g id="link_NODE_BUG_M_TOPIC_BUG_M_SIGNAL"><path codeLine="36" d="M766.7959,183.4347 C766.5509,183.4394 766.3011,183.4442 766.0465,183.4492 C765.5373,183.4592 765.0088,183.4698 764.4614,183.4811 C762.2717,183.5261 759.7794,183.5813 757.005,183.6486 C745.9077,183.9177 730.2995,184.3811 711.5145,185.1653 C673.9447,186.7338 623.6681,189.5856 571.3588,194.7344 C466.74,205.0319 353.99,224.5169 318.5,261.2969 C271.47,310.0369 286.72,403.9569 292.63,432.1169 " fill="none" id="NODE_BUG_M-backto-TOPIC_BUG_M_SIGNAL" style="stroke:#181818;stroke-width:1.0;"/><polygon fill="#181818" points="766.7959,183.4347,757.7207,179.6083,761.7968,183.5307,757.8744,187.6069,766.7959,183.4347" style="stroke:#181818;stroke-width:1.0;"/><path d="M323.5,266.2969 L323.5,307.2969 L481.5,307.2969 L481.5,276.2969 L471.5,266.2969 L323.5,266.2969 " fill="#FEFFDD" style="stroke:#181818;stroke-width:0.5;"/><path d="M471.5,266.2969 L471.5,276.2969 L481.5,276.2969 L471.5,266.2969 " fill="#FEFFDD" style="stroke:#181818;stroke-width:0.5;"/><text fill="#000000" font-family="sans-serif" font-size="13" lengthAdjust="spacing" textLength="121" x="337.5" y="291.3638">std_srvs/Empty.srv</text><text fill="#000000" font-family="sans-serif" font-size="13" lengthAdjust="spacing" textLength="10" x="757.43" y="203.3638">cl</text></g><!--MD5=[d2b55514db171e2cbb2b77beeba89690]
reverse link NODE_BUG_M to SRV_GOTO_SWITCH--><g id="link_NODE_BUG_M_SRV_GOTO_SWITCH"><path codeLine="40" d="M767.2,182.7973 C767.0386,182.7898 766.8751,182.7823 766.7094,182.7748 C766.378,182.7599 766.038,182.7449 765.6896,182.7301 C760.1147,182.4927 752.3728,182.2809 743.0075,182.3275 C724.2769,182.4206 699.0525,183.5469 671.6825,187.5669 C616.9425,195.6069 553.62,215.2219 516.5,261.2969 C474.46,313.4869 493.16,404.2669 500.23,432.0069 " fill="none" id="NODE_BUG_M-backto-SRV_GOTO_SWITCH" style="stroke:#181818;stroke-width:1.0;"/><polygon fill="#181818" points="767.2,182.7973,758.3956,178.3835,762.2054,182.565,758.0238,186.3748,767.2,182.7973" style="stroke:#181818;stroke-width:1.0;"/><path d="M521.5,266.2969 L521.5,307.2969 L688.5,307.2969 L688.5,276.2969 L678.5,266.2969 L521.5,266.2969 " fill="#FEFFDD" style="stroke:#181818;stroke-width:0.5;"/><path d="M678.5,266.2969 L678.5,276.2969 L688.5,276.2969 L678.5,266.2969 " fill="#FEFFDD" style="stroke:#181818;stroke-width:0.5;"/><text fill="#000000" font-family="sans-serif" font-size="13" lengthAdjust="spacing" textLength="130" x="535.5" y="291.3638">std_srvs/SetBool.srv</text><text fill="#000000" font-family="sans-serif" font-size="13" lengthAdjust="spacing" textLength="10" x="783.37" y="203.3538">cl</text></g><!--MD5=[c8ae8bb65eb275d034e3808df72582ff]
reverse link NODE_BUG_M to SRV_HEAD_ORIENT_SWITCH--><g id="link_NODE_BUG_M_SRV_HEAD_ORIENT_SWITCH"><path codeLine="50" d="M767.4829,189.7924 C767.4101,189.8543 767.337,189.9167 767.2634,189.9795 C766.9691,190.2307 766.6686,190.4883 766.3622,190.7523 C761.4594,194.9766 755.0388,200.8313 748.2575,207.8906 C734.695,222.0094 719.69,240.9469 712.5,261.2969 C690.44,323.7069 705.09,406.1769 710.63,432.1269 " fill="none" id="NODE_BUG_M-backto-SRV_HEAD_ORIENT_SWITCH" style="stroke:#181818;stroke-width:1.0;"/><polygon fill="#181818" points="767.4829,189.7924,758.0373,192.5817,763.6761,193.0339,763.2239,198.6727,767.4829,189.7924" style="stroke:#181818;stroke-width:1.0;"/><path d="M717.5,266.2969 L717.5,307.2969 L884.5,307.2969 L884.5,276.2969 L874.5,266.2969 L717.5,266.2969 " fill="#FEFFDD" style="stroke:#181818;stroke-width:0.5;"/><path d="M874.5,266.2969 L874.5,276.2969 L884.5,276.2969 L874.5,266.2969 " fill="#FEFFDD" style="stroke:#181818;stroke-width:0.5;"/><text fill="#000000" font-family="sans-serif" font-size="13" lengthAdjust="spacing" textLength="130" x="731.5" y="291.3638">std_srvs/SetBool.srv</text><text fill="#000000" font-family="sans-serif" font-size="13" lengthAdjust="spacing" textLength="10" x="783.36" y="172.4638">cl</text></g><!--MD5=[f9c5af0ec59368466f7e2f9d4180d47f]
link NODE_BUG_M.SWITCH to SRV_BUG_SWITCH--><g id="link_NODE_BUG_M.SWITCH_SRV_BUG_SWITCH"><path codeLine="54" d="M1270.64,188.1469 C1369.14,196.6469 1545.94,217.6569 1590.5,261.2969 C1636.95,306.7869 1634.75,393.5869 1631.96,426.8569 " fill="none" id="NODE_BUG_M.SWITCH-to-SRV_BUG_SWITCH" style="stroke:#181818;stroke-width:1.0;"/><polygon fill="#181818" points="1631.47,432.0769,1636.2751,423.4797,1631.9265,427.0978,1628.3085,422.7492,1631.47,432.0769" style="stroke:#181818;stroke-width:1.0;"/><path d="M1625.5,266.2969 L1625.5,307.2969 L1792.5,307.2969 L1792.5,276.2969 L1782.5,266.2969 L1625.5,266.2969 " fill="#FEFFDD" style="stroke:#181818;stroke-width:0.5;"/><path d="M1782.5,266.2969 L1782.5,276.2969 L1792.5,276.2969 L1782.5,266.2969 " fill="#FEFFDD" style="stroke:#181818;stroke-width:0.5;"/><text fill="#000000" font-family="sans-serif" font-size="13" lengthAdjust="spacing" textLength="130" x="1639.5" y="291.3638">std_srvs/SetBool.srv</text><text fill="#000000" font-family="sans-serif" font-size="13" lengthAdjust="spacing" textLength="19" x="1286.4428" y="176.3166">srv</text></g><!--MD5=[1fe8804a2f83e1105e22b944fd06d761]
@startuml

''' INFOS
title NODE bug_m
skinparam Padding 8
allow_mixing


''' COMPONENTS
database "ROS parameter server" as PARAMETERS {
	node "des_pos_x"
	node "des_pos_y"
	node "des_yaw"
}

component "bug_m" <<ROSPy node>> as NODE_BUG_M {
	node "clbk_odom" as NODE_BUG_M.READ_ODOM
	node "clbk_laser" as NODE_BUG_M.LISTENER_LASER
	node "bug_switch" as NODE_BUG_M.SWITCH
}

NODE_BUG_M "get" <- - PARAMETERS

() "/odom" as TOPIC_ODOM
NODE_BUG_M.READ_ODOM "sub" <- - TOPIC_ODOM
note on link: nav_msgs/Odometry.msg

() "/scan" as TOPIC_LASER
NODE_BUG_M.LISTENER_LASER "sub" <- - TOPIC_LASER
note on link: sensor_msgs/LaserScan.msg

() "/cmd_vel" as TOPIC_VEL
NODE_BUG_M "pub" - -> TOPIC_VEL
note on link: geometry_msgs/Twist.msg

() "/bug_m_signal" as TOPIC_BUG_M_SIGNAL
NODE_BUG_M "cl" <- - TOPIC_BUG_M_SIGNAL
note on link: std_srvs/Empty.srv

() "/go_to_point_switch" as SRV_GOTO_SWITCH
NODE_BUG_M "cl" <- - SRV_GOTO_SWITCH
note on link: std_srvs/SetBool.srv

/'
() "/wall_follower_switch" as SRV_WALL_SWITCH
NODE_BUG_M "cl" <- - SRV_WALL_SWITCH
note on link: std_srvs/SetBool.srv
'/

() "/head_orient_switch" as SRV_HEAD_ORIENT_SWITCH
NODE_BUG_M "cl" <- - SRV_HEAD_ORIENT_SWITCH
note on link: std_srvs/SetBool.srv

() "/bug_switch" as SRV_BUG_SWITCH
NODE_BUG_M.SWITCH "srv" - -> SRV_BUG_SWITCH
note on link: std_srvs/SetBool.srv

@enduml

@startuml

title NODE bug_m
skinparam Padding 8
allow_mixing


database "ROS parameter server" as PARAMETERS {
	node "des_pos_x"
	node "des_pos_y"
	node "des_yaw"
}

component "bug_m" <<ROSPy node>> as NODE_BUG_M {
	node "clbk_odom" as NODE_BUG_M.READ_ODOM
	node "clbk_laser" as NODE_BUG_M.LISTENER_LASER
	node "bug_switch" as NODE_BUG_M.SWITCH
}

NODE_BUG_M "get" <- - PARAMETERS

() "/odom" as TOPIC_ODOM
NODE_BUG_M.READ_ODOM "sub" <- - TOPIC_ODOM
note on link: nav_msgs/Odometry.msg

() "/scan" as TOPIC_LASER
NODE_BUG_M.LISTENER_LASER "sub" <- - TOPIC_LASER
note on link: sensor_msgs/LaserScan.msg

() "/cmd_vel" as TOPIC_VEL
NODE_BUG_M "pub" - -> TOPIC_VEL
note on link: geometry_msgs/Twist.msg

() "/bug_m_signal" as TOPIC_BUG_M_SIGNAL
NODE_BUG_M "cl" <- - TOPIC_BUG_M_SIGNAL
note on link: std_srvs/Empty.srv

() "/go_to_point_switch" as SRV_GOTO_SWITCH
NODE_BUG_M "cl" <- - SRV_GOTO_SWITCH
note on link: std_srvs/SetBool.srv


() "/head_orient_switch" as SRV_HEAD_ORIENT_SWITCH
NODE_BUG_M "cl" <- - SRV_HEAD_ORIENT_SWITCH
note on link: std_srvs/SetBool.srv

() "/bug_switch" as SRV_BUG_SWITCH
NODE_BUG_M.SWITCH "srv" - -> SRV_BUG_SWITCH
note on link: std_srvs/SetBool.srv

@enduml

PlantUML version 1.2022.6(Tue Jun 21 17:34:49 UTC 2022)
(GPL source distribution)
Java Runtime: Java(TM) SE Runtime Environment
JVM: Java HotSpot(TM) 64-Bit Server VM
Default Encoding: UTF-8
Language: en
Country: US
--></g></svg>