<?xml version="1.0" encoding="UTF-8" standalone="no"?><svg xmlns="http://www.w3.org/2000/svg" xmlns:xlink="http://www.w3.org/1999/xlink" contentStyleType="text/css" height="415px" preserveAspectRatio="none" style="width:410px;height:415px;background:#FFFFFF;" version="1.1" viewBox="0 0 410 415" width="410px" zoomAndPan="magnify"><defs/><g><rect height="42.2969" style="stroke:#00000000;stroke-width:1.0;fill:none;" width="286" x="55" y="5"/><text fill="#000000" font-family="sans-serif" font-size="14" font-weight="bold" lengthAdjust="spacing" textLength="260" x="68" y="30.9951">robocluedo movement controller</text><!--MD5=[4ae5bba0486438c9a7f3300acf13f1b6]
cluster pkg movement controller--><g id="cluster_pkg movement controller"><path d="M68.5,151.2969 L284.5,151.2969 A3.75,3.75 0 0 1 287,153.7969 L294,189.5938 L400.5,189.5938 A2.5,2.5 0 0 1 403,192.0938 L403,277.7969 A2.5,2.5 0 0 1 400.5,280.2969 L68.5,280.2969 A2.5,2.5 0 0 1 66,277.7969 L66,153.7969 A2.5,2.5 0 0 1 68.5,151.2969 " style="stroke:#000000;stroke-width:1.5;fill:none;"/><line style="stroke:#000000;stroke-width:1.5;fill:none;" x1="66" x2="294" y1="189.5938" y2="189.5938"/><text fill="#000000" font-family="sans-serif" font-size="14" font-weight="bold" lengthAdjust="spacing" textLength="199" x="78" y="174.292">pkg movement controller</text></g><!--MD5=[8b72dec5e510c742b6301d5e3b9143d1]
entity NAV--><g id="elem_NAV"><rect fill="#F1F1F1" height="62.2969" rx="2.5" ry="2.5" style="stroke:#181818;stroke-width:0.5;" width="126" x="82" y="202.2969"/><rect fill="#F1F1F1" height="10" style="stroke:#181818;stroke-width:0.5;" width="15" x="188" y="207.2969"/><rect fill="#F1F1F1" height="2" style="stroke:#181818;stroke-width:0.5;" width="4" x="186" y="209.2969"/><rect fill="#F1F1F1" height="2" style="stroke:#181818;stroke-width:0.5;" width="4" x="186" y="213.2969"/><text fill="#000000" font-family="sans-serif" font-size="14" lengthAdjust="spacing" textLength="70" x="105" y="243.292">navigation</text></g><!--MD5=[676eb1a727f85b05a058317adc15c18d]
entity MANIP--><g id="elem_MANIP"><rect fill="#F1F1F1" height="62.2969" rx="2.5" ry="2.5" style="stroke:#181818;stroke-width:0.5;" width="144" x="243" y="202.2969"/><rect fill="#F1F1F1" height="10" style="stroke:#181818;stroke-width:0.5;" width="15" x="367" y="207.2969"/><rect fill="#F1F1F1" height="2" style="stroke:#181818;stroke-width:0.5;" width="4" x="365" y="209.2969"/><rect fill="#F1F1F1" height="2" style="stroke:#181818;stroke-width:0.5;" width="4" x="365" y="213.2969"/><text fill="#000000" font-family="sans-serif" font-size="14" lengthAdjust="spacing" textLength="88" x="266" y="243.292">manipulation</text></g><!--MD5=[6c629335c16ba9d7cc5a2834000a699b]
entity MOVEIT--><g id="elem_MOVEIT"><polygon fill="#F1F1F1" points="262,69.2969,272,59.2969,368,59.2969,368,111.5938,358,121.5938,262,121.5938,262,69.2969" style="stroke:#181818;stroke-width:0.5;"/><line style="stroke:#181818;stroke-width:0.5;" x1="358" x2="368" y1="69.2969" y2="59.2969"/><line style="stroke:#181818;stroke-width:0.5;" x1="262" x2="358" y1="69.2969" y2="69.2969"/><line style="stroke:#181818;stroke-width:0.5;" x1="358" x2="358" y1="69.2969" y2="121.5938"/><text fill="#000000" font-family="sans-serif" font-size="14" lengthAdjust="spacing" textLength="50" x="285" y="100.292">MoveIt!</text></g><!--MD5=[34c22eff6d64aeaae478320b55e782f7]
entity SRV_NAV--><g id="elem_SRV_NAV"><ellipse cx="145" cy="369.2969" fill="#F1F1F1" rx="8" ry="8" style="stroke:#181818;stroke-width:0.5;"/><text fill="#000000" font-family="sans-serif" font-size="14" lengthAdjust="spacing" textLength="77" x="106.5" y="407.292">nav service</text></g><!--MD5=[a29493d5c3d449fd805f8038216f6f38]
entity TOPIC_VEL--><g id="elem_TOPIC_VEL"><ellipse cx="165" cy="90.2969" fill="#F1F1F1" rx="8" ry="8" style="stroke:#181818;stroke-width:0.5;"/><text fill="#000000" font-family="sans-serif" font-size="14" lengthAdjust="spacing" textLength="53" x="138.5" y="128.292">cmd vel</text></g><!--MD5=[9c0f7ecf381f88014a7ea481e5efb054]
entity TOPIC_ODOM--><g id="elem_TOPIC_ODOM"><ellipse cx="39" cy="90.2969" fill="#F1F1F1" rx="8" ry="8" style="stroke:#181818;stroke-width:0.5;"/><text fill="#000000" font-family="sans-serif" font-size="14" lengthAdjust="spacing" textLength="66" x="6" y="128.292">odometry</text></g><!--MD5=[bc367bcd7c3b1c01d40cff759d9fea2e]
entity SRV_MANIP--><g id="elem_SRV_MANIP"><ellipse cx="315" cy="369.2969" fill="#F1F1F1" rx="8" ry="8" style="stroke:#181818;stroke-width:0.5;"/><text fill="#000000" font-family="sans-serif" font-size="14" lengthAdjust="spacing" textLength="95" x="267.5" y="407.292">manip service</text></g><!--MD5=[804a47a1dcd8931de6f2dd87331d7107]
link NAV to SRV_NAV--><g id="link_NAV_SRV_NAV"><path codeLine="19" d="M145,264.3669 C145,292.8469 145,334.2569 145,355.1669 " fill="none" id="NAV-to-SRV_NAV" style="stroke:#181818;stroke-width:1.0;"/><polygon fill="#181818" points="145,360.2669,149,351.2669,145,355.2669,141,351.2669,145,360.2669" style="stroke:#181818;stroke-width:1.0;"/></g><!--MD5=[4c5f4817310bc595be40ac8f19580f3b]
reverse link TOPIC_VEL to NAV--><g id="link_TOPIC_VEL_NAV"><path codeLine="21" d="M163.08,104.8569 C159.91,127.1669 153.53,172.1469 149.26,202.2469 " fill="none" id="TOPIC_VEL-backto-NAV" style="stroke:#181818;stroke-width:1.0;"/><polygon fill="#181818" points="163.81,99.6969,158.5909,108.0492,163.1109,104.6478,166.5123,109.1678,163.81,99.6969" style="stroke:#181818;stroke-width:1.0;"/></g><!--MD5=[752cf94f3751401c7cb3a10df4007222]
link TOPIC_ODOM to NAV--><g id="link_TOPIC_ODOM_NAV"><path codeLine="23" d="M45.31,99.6969 C59.52,118.5869 94.66,165.3369 119.17,197.9469 " fill="none" id="TOPIC_ODOM-to-NAV" style="stroke:#181818;stroke-width:1.0;"/><polygon fill="#181818" points="122.41,202.2469,120.1935,192.6507,119.4031,198.252,113.8018,197.4617,122.41,202.2469" style="stroke:#181818;stroke-width:1.0;"/></g><!--MD5=[2013985ed2e9289b445740e938cd306a]
link MANIP to SRV_MANIP--><g id="link_MANIP_SRV_MANIP"><path codeLine="26" d="M315,264.3669 C315,292.8469 315,334.2569 315,355.1669 " fill="none" id="MANIP-to-SRV_MANIP" style="stroke:#181818;stroke-width:1.0;"/><polygon fill="#181818" points="315,360.2669,319,351.2669,315,355.2669,311,351.2669,315,360.2669" style="stroke:#181818;stroke-width:1.0;"/></g><!--MD5=[0dade96754c2613f297bd0a1715a7009]
link MOVEIT to MANIP--><g id="link_MOVEIT_MANIP"><path codeLine="28" d="M315,121.5469 C315,143.6669 315,173.7269 315,196.9569 " fill="none" id="MOVEIT-to-MANIP" style="stroke:#181818;stroke-width:1.0;"/><polygon fill="#181818" points="315,202.0969,319,193.0969,315,197.0969,311,193.0969,315,202.0969" style="stroke:#181818;stroke-width:1.0;"/></g><!--MD5=[bdbb05041bbe092b8399a97ccfd3795d]
@startuml

''' INFOS
title robocluedo movement controller
skinparam Padding 8
allow_mixing


''' COMPONENTS
package "pkg movement controller" {
component "navigation" as NAV
component "manipulation" as MANIP
}

node "MoveIt!" as MOVEIT


''' CONNECTIONS
() "nav service" as SRV_NAV
NAV - -> SRV_NAV
() "cmd vel" as TOPIC_VEL
NAV -up-> TOPIC_VEL
() "odometry" as TOPIC_ODOM
NAV <-up- TOPIC_ODOM

() "manip service" as SRV_MANIP
MANIP - -> SRV_MANIP

MOVEIT - -> MANIP

@enduml

@startuml

title robocluedo movement controller
skinparam Padding 8
allow_mixing


package "pkg movement controller" {
component "navigation" as NAV
component "manipulation" as MANIP
}

node "MoveIt!" as MOVEIT


() "nav service" as SRV_NAV
NAV - -> SRV_NAV
() "cmd vel" as TOPIC_VEL
NAV -up-> TOPIC_VEL
() "odometry" as TOPIC_ODOM
NAV <-up- TOPIC_ODOM

() "manip service" as SRV_MANIP
MANIP - -> SRV_MANIP

MOVEIT - -> MANIP

@enduml

PlantUML version 1.2022.6(Tue Jun 21 17:34:49 UTC 2022)
(GPL source distribution)
Java Runtime: Java(TM) SE Runtime Environment
JVM: Java HotSpot(TM) 64-Bit Server VM
Default Encoding: UTF-8
Language: en
Country: US
--></g></svg>