<?xml version="1.0" encoding="UTF-8" standalone="no"?><svg xmlns="http://www.w3.org/2000/svg" xmlns:xlink="http://www.w3.org/1999/xlink" contentStyleType="text/css" height="766px" preserveAspectRatio="none" style="width:652px;height:766px;background:#FFFFFF;" version="1.1" viewBox="0 0 652 766" width="652px" zoomAndPan="magnify"><defs/><g><rect height="46.2969" style="stroke:#00000000;stroke-width:1.0;fill:none;" width="270" x="184" y="5"/><text fill="#000000" font-family="sans-serif" font-size="14" font-weight="bold" lengthAdjust="spacing" textLength="240" x="199" y="32.9951">Project Architecture simplified</text><!--MD5=[d966621a06b379d0f2866da504c15a36]
entity ARMOR--><g id="elem_ARMOR"><path d="M54.5,452.7969 C54.5,442.7969 100,442.7969 100,442.7969 C100,442.7969 145.5,442.7969 145.5,452.7969 L145.5,498.0938 C145.5,508.0938 100,508.0938 100,508.0938 C100,508.0938 54.5,508.0938 54.5,498.0938 L54.5,452.7969 " fill="#F1F1F1" style="stroke:#181818;stroke-width:0.5;"/><path d="M54.5,452.7969 C54.5,462.7969 100,462.7969 100,462.7969 C100,462.7969 145.5,462.7969 145.5,452.7969 " fill="none" style="stroke:#181818;stroke-width:0.5;"/><text fill="#000000" font-family="sans-serif" font-size="14" lengthAdjust="spacing" textLength="51" x="74.5" y="489.792">aRMOR</text></g><!--MD5=[6c629335c16ba9d7cc5a2834000a699b]
entity MOVEIT--><g id="elem_MOVEIT"><rect fill="#F1F1F1" height="66.2969" rx="2.5" ry="2.5" style="stroke:#181818;stroke-width:0.5;" width="110" x="286" y="190.2969"/><rect fill="#F1F1F1" height="10" style="stroke:#181818;stroke-width:0.5;" width="15" x="376" y="195.2969"/><rect fill="#F1F1F1" height="2" style="stroke:#181818;stroke-width:0.5;" width="4" x="374" y="197.2969"/><rect fill="#F1F1F1" height="2" style="stroke:#181818;stroke-width:0.5;" width="4" x="374" y="201.2969"/><text fill="#000000" font-family="sans-serif" font-size="14" lengthAdjust="spacing" textLength="50" x="311" y="233.292">MoveIt!</text></g><!--MD5=[b5e3cc1932c6c86e88c5a7b580a739e5]
entity NAVSTACK--><g id="elem_NAVSTACK"><rect fill="#F1F1F1" height="66.2969" rx="2.5" ry="2.5" style="stroke:#181818;stroke-width:0.5;" width="173" x="77.5" y="190.2969"/><rect fill="#F1F1F1" height="10" style="stroke:#181818;stroke-width:0.5;" width="15" x="230.5" y="195.2969"/><rect fill="#F1F1F1" height="2" style="stroke:#181818;stroke-width:0.5;" width="4" x="228.5" y="197.2969"/><rect fill="#F1F1F1" height="2" style="stroke:#181818;stroke-width:0.5;" width="4" x="228.5" y="201.2969"/><text fill="#000000" font-family="sans-serif" font-size="14" lengthAdjust="spacing" textLength="113" x="102.5" y="233.292">Navigation Stack</text></g><!--MD5=[0ff8cde09c95e7bd5ad5c1a367aa2e4a]
entity ORACLE--><g id="elem_ORACLE"><rect fill="#F1F1F1" height="66.2969" rx="2.5" ry="2.5" style="stroke:#181818;stroke-width:0.5;" width="134" x="268" y="694.2969"/><rect fill="#F1F1F1" height="10" style="stroke:#181818;stroke-width:0.5;" width="15" x="382" y="699.2969"/><rect fill="#F1F1F1" height="2" style="stroke:#181818;stroke-width:0.5;" width="4" x="380" y="701.2969"/><rect fill="#F1F1F1" height="2" style="stroke:#181818;stroke-width:0.5;" width="4" x="380" y="705.2969"/><text fill="#000000" font-family="sans-serif" font-size="14" lengthAdjust="spacing" textLength="74" x="293" y="737.292">erl3 Oracle</text></g><!--MD5=[8fd27179cfada5ccc37b63382e72f2b8]
entity ROSPLAN--><g id="elem_ROSPLAN"><rect fill="#F1F1F1" height="66.2969" rx="2.5" ry="2.5" style="stroke:#181818;stroke-width:0.5;" width="119" x="511.5" y="442.2969"/><rect fill="#F1F1F1" height="10" style="stroke:#181818;stroke-width:0.5;" width="15" x="610.5" y="447.2969"/><rect fill="#F1F1F1" height="2" style="stroke:#181818;stroke-width:0.5;" width="4" x="608.5" y="449.2969"/><rect fill="#F1F1F1" height="2" style="stroke:#181818;stroke-width:0.5;" width="4" x="608.5" y="453.2969"/><text fill="#000000" font-family="sans-serif" font-size="14" lengthAdjust="spacing" textLength="59" x="536.5" y="485.292">ROSPlan</text></g><!--MD5=[9a0d4b0340012a44161447de88fcc332]
entity MISSION_MANAGER--><g id="elem_MISSION_MANAGER"><polygon fill="#F1F1F1" points="180.5,452.2969,190.5,442.2969,389.5,442.2969,389.5,498.5938,379.5,508.5938,180.5,508.5938,180.5,452.2969" style="stroke:#181818;stroke-width:0.5;"/><line style="stroke:#181818;stroke-width:0.5;" x1="379.5" x2="389.5" y1="452.2969" y2="442.2969"/><line style="stroke:#181818;stroke-width:0.5;" x1="180.5" x2="379.5" y1="452.2969" y2="452.2969"/><line style="stroke:#181818;stroke-width:0.5;" x1="379.5" x2="379.5" y1="452.2969" y2="508.5938"/><text fill="#000000" font-family="sans-serif" font-size="14" lengthAdjust="spacing" textLength="149" x="205.5" y="485.292">RCL mission manager</text></g><!--MD5=[81dfe9f25295c11202e400f169df631e]
entity VISION--><g id="elem_VISION"><rect fill="#F1F1F1" height="66.2969" rx="2.5" ry="2.5" style="stroke:#181818;stroke-width:0.5;" width="132" x="329" y="568.2969"/><rect fill="#F1F1F1" height="10" style="stroke:#181818;stroke-width:0.5;" width="15" x="441" y="573.2969"/><rect fill="#F1F1F1" height="2" style="stroke:#181818;stroke-width:0.5;" width="4" x="439" y="575.2969"/><rect fill="#F1F1F1" height="2" style="stroke:#181818;stroke-width:0.5;" width="4" x="439" y="579.2969"/><text fill="#000000" font-family="sans-serif" font-size="14" lengthAdjust="spacing" textLength="72" x="354" y="611.292">RCL Vision</text></g><!--MD5=[0f6829ecb44924df652b3631a96aadbd]
entity RCL_ARMOR--><g id="elem_RCL_ARMOR"><rect fill="#F1F1F1" height="66.2969" rx="2.5" ry="2.5" style="stroke:#181818;stroke-width:0.5;" width="206" x="7" y="568.2969"/><rect fill="#F1F1F1" height="10" style="stroke:#181818;stroke-width:0.5;" width="15" x="193" y="573.2969"/><rect fill="#F1F1F1" height="2" style="stroke:#181818;stroke-width:0.5;" width="4" x="191" y="575.2969"/><rect fill="#F1F1F1" height="2" style="stroke:#181818;stroke-width:0.5;" width="4" x="191" y="579.2969"/><text fill="#000000" font-family="sans-serif" font-size="14" lengthAdjust="spacing" textLength="146" x="32" y="611.292">RCL aRMOR interface</text></g><!--MD5=[47f35d3126ea50c850665eaf26625533]
entity RCL_ROSPLAN--><g id="elem_RCL_ROSPLAN"><rect fill="#F1F1F1" height="66.2969" rx="2.5" ry="2.5" style="stroke:#181818;stroke-width:0.5;" width="150" x="496" y="568.2969"/><rect fill="#F1F1F1" height="10" style="stroke:#181818;stroke-width:0.5;" width="15" x="626" y="573.2969"/><rect fill="#F1F1F1" height="2" style="stroke:#181818;stroke-width:0.5;" width="4" x="624" y="575.2969"/><rect fill="#F1F1F1" height="2" style="stroke:#181818;stroke-width:0.5;" width="4" x="624" y="579.2969"/><text fill="#000000" font-family="sans-serif" font-size="14" lengthAdjust="spacing" textLength="90" x="521" y="611.292">RCL ROSPlan</text></g><!--MD5=[80ad804a48cb6a09fe122341649e624a]
entity MOVEMENT--><g id="elem_MOVEMENT"><rect fill="#F1F1F1" height="66.2969" rx="2.5" ry="2.5" style="stroke:#181818;stroke-width:0.5;" width="235" x="160.5" y="316.2969"/><rect fill="#F1F1F1" height="10" style="stroke:#181818;stroke-width:0.5;" width="15" x="375.5" y="321.2969"/><rect fill="#F1F1F1" height="2" style="stroke:#181818;stroke-width:0.5;" width="4" x="373.5" y="323.2969"/><rect fill="#F1F1F1" height="2" style="stroke:#181818;stroke-width:0.5;" width="4" x="373.5" y="327.2969"/><text fill="#000000" font-family="sans-serif" font-size="14" lengthAdjust="spacing" textLength="175" x="185.5" y="359.292">RCL Movement Controller</text></g><!--MD5=[486232cd7de46315ddcadcacea223c06]
entity ENVIRONMENT--><g id="elem_ENVIRONMENT"><rect fill="#F1F1F1" height="66.2969" rx="2.5" ry="2.5" style="stroke:#181818;stroke-width:0.5;" width="228" x="227" y="64.2969"/><rect fill="#F1F1F1" height="10" style="stroke:#181818;stroke-width:0.5;" width="15" x="435" y="69.2969"/><rect fill="#F1F1F1" height="2" style="stroke:#181818;stroke-width:0.5;" width="4" x="433" y="71.2969"/><rect fill="#F1F1F1" height="2" style="stroke:#181818;stroke-width:0.5;" width="4" x="433" y="75.2969"/><text fill="#000000" font-family="sans-serif" font-size="14" lengthAdjust="spacing" textLength="168" x="252" y="107.292">RCL hunter environment</text></g><!--MD5=[7fc6cd56aeb823ff5315d751dc17b37e]
link ENVIRONMENT to NAVSTACK--><g id="link_ENVIRONMENT_NAVSTACK"><path codeLine="24" d="M290.6,133.6069 C266.56,150.4469 237.9,170.5269 213.92,187.3269 " fill="none" id="ENVIRONMENT-NAVSTACK" style="stroke:#181818;stroke-width:1.0;"/><polygon fill="#181818" points="209.81,190.2069,219.4765,188.3204,213.9055,187.3386,214.8873,181.7676,209.81,190.2069" style="stroke:#181818;stroke-width:1.0;"/><polygon fill="#181818" points="294.96,130.5569,285.2935,132.4434,290.8645,133.4251,289.8827,138.9962,294.96,130.5569" style="stroke:#181818;stroke-width:1.0;"/></g><!--MD5=[cbaab8b86e01fba88e79cd38bb824379]
link ENVIRONMENT to MOVEIT--><g id="link_ENVIRONMENT_MOVEIT"><path codeLine="25" d="M341,135.8369 C341,151.4169 341,169.4669 341,185.0269 " fill="none" id="ENVIRONMENT-MOVEIT" style="stroke:#181818;stroke-width:1.0;"/><polygon fill="#181818" points="341,190.2069,345,181.2069,341,185.2069,337,181.2069,341,190.2069" style="stroke:#181818;stroke-width:1.0;"/><polygon fill="#181818" points="341,130.5569,337,139.5569,341,135.5569,345,139.5569,341,130.5569" style="stroke:#181818;stroke-width:1.0;"/></g><!--MD5=[96e6a4d3ff39bb4257129097999a6ac3]
link ENVIRONMENT to VISION--><g id="link_ENVIRONMENT_VISION"><path codeLine="26" d="M379.13,134.6069 C392.9,150.2669 406.82,169.7069 414,190.2969 C459.58,321.0569 425.01,489.5669 405.71,563.1569 " fill="none" id="ENVIRONMENT-VISION" style="stroke:#181818;stroke-width:1.0;"/><polygon fill="#181818" points="404.35,568.2869,410.5099,560.6021,405.6232,563.4517,402.7736,558.565,404.35,568.2869" style="stroke:#181818;stroke-width:1.0;"/><polygon fill="#181818" points="375.63,130.7069,378.6576,140.0788,378.9669,134.4305,384.6153,134.7398,375.63,130.7069" style="stroke:#181818;stroke-width:1.0;"/></g><!--MD5=[48caf0876454b705856ed0b25a92eb24]
link NAVSTACK to MOVEMENT--><g id="link_NAVSTACK_MOVEMENT"><path codeLine="27" d="M197.28,260.4969 C212.22,276.7469 229.81,295.8869 244.76,312.1369 " fill="none" id="NAVSTACK-MOVEMENT" style="stroke:#181818;stroke-width:1.0;"/><polygon fill="#181818" points="248.49,316.2069,245.3473,306.8729,245.1075,312.5247,239.4557,312.2849,248.49,316.2069" style="stroke:#181818;stroke-width:1.0;"/><polygon fill="#181818" points="193.65,256.5569,196.7927,265.8909,197.0325,260.2391,202.6843,260.4789,193.65,256.5569" style="stroke:#181818;stroke-width:1.0;"/></g><!--MD5=[34b5f7a14996c7b8daebd1b3010a6b5c]
link MOVEIT to MOVEMENT--><g id="link_MOVEIT_MOVEMENT"><path codeLine="28" d="M322.16,261.3869 C314.12,277.1969 304.77,295.5969 296.75,311.3869 " fill="none" id="MOVEIT-MOVEMENT" style="stroke:#181818;stroke-width:1.0;"/><polygon fill="#181818" points="294.31,316.2069,301.9446,309.9849,296.5689,311.7462,294.8075,306.3706,294.31,316.2069" style="stroke:#181818;stroke-width:1.0;"/><polygon fill="#181818" points="324.61,256.5569,316.9596,262.7594,322.3397,261.0117,324.0874,266.3919,324.61,256.5569" style="stroke:#181818;stroke-width:1.0;"/></g><!--MD5=[0f53ab67025f86f4884f1e9deeca44d1]
link MOVEMENT to MISSION_MANAGER--><g id="link_MOVEMENT_MISSION_MANAGER"><path codeLine="29" d="M280.12,387.8369 C281,403.4169 282.02,421.4669 282.9,437.0269 " fill="none" id="MOVEMENT-MISSION_MANAGER" style="stroke:#181818;stroke-width:1.0;"/><polygon fill="#181818" points="283.19,442.2069,286.6685,432.9928,282.9039,437.2151,278.6816,433.4505,283.19,442.2069" style="stroke:#181818;stroke-width:1.0;"/><polygon fill="#181818" points="279.82,382.5569,276.3415,391.771,280.1061,387.5487,284.3284,391.3133,279.82,382.5569" style="stroke:#181818;stroke-width:1.0;"/></g><!--MD5=[d765d9863f10af304e452562f2485cd3]
link MISSION_MANAGER to RCL_ROSPLAN--><g id="link_MISSION_MANAGER_RCL_ROSPLAN"><path codeLine="30" d="M363.78,510.4569 C403.69,527.7569 452.02,548.7069 491.96,566.0269 " fill="none" id="MISSION_MANAGER-RCL_ROSPLAN" style="stroke:#181818;stroke-width:1.0;"/><polygon fill="#181818" points="496.79,568.1169,490.1205,560.8699,492.2017,566.13,486.9416,568.2112,496.79,568.1169" style="stroke:#181818;stroke-width:1.0;"/><polygon fill="#181818" points="359.02,508.3869,365.6895,515.6338,363.6083,510.3737,368.8684,508.2925,359.02,508.3869" style="stroke:#181818;stroke-width:1.0;"/></g><!--MD5=[a82cec19e3091a791be3f3903dec7221]
link ROSPLAN to RCL_ROSPLAN--><g id="link_ROSPLAN_RCL_ROSPLAN"><path codeLine="31" d="M571,513.8369 C571,529.4169 571,547.4669 571,563.0269 " fill="none" id="ROSPLAN-RCL_ROSPLAN" style="stroke:#181818;stroke-width:1.0;"/><polygon fill="#181818" points="571,568.2069,575,559.2069,571,563.2069,567,559.2069,571,568.2069" style="stroke:#181818;stroke-width:1.0;"/><polygon fill="#181818" points="571,508.5569,567,517.5569,571,513.5569,575,517.5569,571,508.5569" style="stroke:#181818;stroke-width:1.0;"/></g><!--MD5=[842b2851b2cd1464c25f009b2944caad]
link MISSION_MANAGER to RCL_ARMOR--><g id="link_MISSION_MANAGER_RCL_ARMOR"><path codeLine="32" d="M235.17,511.6069 C211.5,528.3769 183.3,548.3569 159.65,565.1169 " fill="none" id="MISSION_MANAGER-RCL_ARMOR" style="stroke:#181818;stroke-width:1.0;"/><polygon fill="#181818" points="155.29,568.2069,164.9412,566.2435,159.3625,565.3061,160.2999,559.7274,155.29,568.2069" style="stroke:#181818;stroke-width:1.0;"/><polygon fill="#181818" points="239.48,508.5569,229.8243,510.4978,235.4007,511.4482,234.4503,517.0246,239.48,508.5569" style="stroke:#181818;stroke-width:1.0;"/></g><!--MD5=[8827004c151b1f48bbed612bb6096fa9]
link ARMOR to RCL_ARMOR--><g id="link_ARMOR_RCL_ARMOR"><path codeLine="33" d="M102.98,513.1869 C104.23,528.8069 105.7,546.9669 106.96,562.6569 " fill="none" id="ARMOR-RCL_ARMOR" style="stroke:#181818;stroke-width:1.0;"/><polygon fill="#181818" points="107.39,567.8769,110.6574,558.5858,106.9901,562.8929,102.6831,559.2256,107.39,567.8769" style="stroke:#181818;stroke-width:1.0;"/><polygon fill="#181818" points="102.55,507.9069,99.309,517.2072,102.964,512.8897,107.2815,516.5447,102.55,507.9069" style="stroke:#181818;stroke-width:1.0;"/></g><!--MD5=[4042427509d11f762c623369d219ea30]
link MISSION_MANAGER to VISION--><g id="link_MISSION_MANAGER_VISION"><path codeLine="34" d="M317.11,512.4969 C331.53,528.7469 348.51,547.8869 362.92,564.1369 " fill="none" id="MISSION_MANAGER-VISION" style="stroke:#181818;stroke-width:1.0;"/><polygon fill="#181818" points="366.53,568.2069,363.5381,558.8234,363.2073,564.4706,357.5601,564.1398,366.53,568.2069" style="stroke:#181818;stroke-width:1.0;"/><polygon fill="#181818" points="313.61,508.5569,316.6019,517.9403,316.9327,512.2931,322.5799,512.624,313.61,508.5569" style="stroke:#181818;stroke-width:1.0;"/></g><!--MD5=[25bbfd9c28a5d50c7e6d004f48a96349]
link VISION to ORACLE--><g id="link_VISION_ORACLE"><path codeLine="35" d="M377.05,639.3869 C369.4,655.1969 360.5,673.5969 352.86,689.3869 " fill="none" id="VISION-ORACLE" style="stroke:#181818;stroke-width:1.0;"/><polygon fill="#181818" points="350.53,694.2069,358.0602,687.8589,352.7145,689.7093,350.8641,684.3637,350.53,694.2069" style="stroke:#181818;stroke-width:1.0;"/><polygon fill="#181818" points="379.39,634.5569,371.8598,640.9048,377.2055,639.0544,379.0559,644.4001,379.39,634.5569" style="stroke:#181818;stroke-width:1.0;"/></g><!--MD5=[ab91a5f2e08068b9424c3ab9025a1626]
link MISSION_MANAGER to ORACLE--><g id="link_MISSION_MANAGER_ORACLE"><path codeLine="36" d="M289.77,508.5069 C294.69,540.5369 302.9,590.9969 312,634.2969 C316.2,654.2769 321.73,676.4869 326.31,694.0769 " fill="none" id="MISSION_MANAGER-ORACLE" style="stroke:#181818;stroke-width:1.0;"/></g><!--MD5=[fea67664c02feda2a0e4631895d915d8]
@startuml

''' INFOS
title Project Architecture simplified
skinparam Padding 10
allow_mixing


''' COMPONENTS
database "aRMOR" as ARMOR
component "MoveIt!" as MOVEIT
component "Navigation Stack" as NAVSTACK
component "erl3 Oracle" as ORACLE
component "ROSPlan" as ROSPLAN

node "RCL mission manager" as MISSION_MANAGER
component "RCL Vision" as VISION
component "RCL aRMOR interface" as RCL_ARMOR
component "RCL ROSPlan" as RCL_ROSPLAN
component "RCL Movement Controller" as MOVEMENT
component "RCL hunter environment" as ENVIRONMENT


''' CONNECTIONS
ENVIRONMENT <- -> NAVSTACK
ENVIRONMENT <- -> MOVEIT
ENVIRONMENT <- -> VISION
NAVSTACK <- -> MOVEMENT
MOVEIT <- -> MOVEMENT
MOVEMENT <- -> MISSION_MANAGER
MISSION_MANAGER <- -> RCL_ROSPLAN
ROSPLAN <- -> RCL_ROSPLAN
MISSION_MANAGER <- -> RCL_ARMOR
ARMOR <- -> RCL_ARMOR
MISSION_MANAGER <- -> VISION
VISION <- -> ORACLE
MISSION_MANAGER - - ORACLE

@enduml

@startuml

title Project Architecture simplified
skinparam Padding 10
allow_mixing


database "aRMOR" as ARMOR
component "MoveIt!" as MOVEIT
component "Navigation Stack" as NAVSTACK
component "erl3 Oracle" as ORACLE
component "ROSPlan" as ROSPLAN

node "RCL mission manager" as MISSION_MANAGER
component "RCL Vision" as VISION
component "RCL aRMOR interface" as RCL_ARMOR
component "RCL ROSPlan" as RCL_ROSPLAN
component "RCL Movement Controller" as MOVEMENT
component "RCL hunter environment" as ENVIRONMENT


ENVIRONMENT <- -> NAVSTACK
ENVIRONMENT <- -> MOVEIT
ENVIRONMENT <- -> VISION
NAVSTACK <- -> MOVEMENT
MOVEIT <- -> MOVEMENT
MOVEMENT <- -> MISSION_MANAGER
MISSION_MANAGER <- -> RCL_ROSPLAN
ROSPLAN <- -> RCL_ROSPLAN
MISSION_MANAGER <- -> RCL_ARMOR
ARMOR <- -> RCL_ARMOR
MISSION_MANAGER <- -> VISION
VISION <- -> ORACLE
MISSION_MANAGER - - ORACLE

@enduml

PlantUML version 1.2022.6(Tue Jun 21 17:34:49 UTC 2022)
(GPL source distribution)
Java Runtime: Java(TM) SE Runtime Environment
JVM: Java HotSpot(TM) 64-Bit Server VM
Default Encoding: UTF-8
Language: en
Country: US
--></g></svg>