<?xml version="1.0" encoding="UTF-8" standalone="no"?><svg xmlns="http://www.w3.org/2000/svg" xmlns:xlink="http://www.w3.org/1999/xlink" contentStyleType="text/css" height="401px" preserveAspectRatio="none" style="width:1627px;height:401px;background:#FFFFFF;" version="1.1" viewBox="0 0 1627 401" width="1627px" zoomAndPan="magnify"><defs/><g><rect height="26.2969" style="stroke:#00000000;stroke-width:1.0;fill:none;" width="269" x="672" y="5"/><text fill="#000000" font-family="sans-serif" font-size="14" font-weight="bold" lengthAdjust="spacing" textLength="259" x="677" y="22.9951">RoboCLuedo Vision UML diagram</text><!--MD5=[f544689554d4160f83e47f65d37b67a6]
cluster ROBOT--><g id="cluster_ROBOT"><path d="M8.5,43.2969 L63.5,43.2969 A3.75,3.75 0 0 1 66,45.7969 L73,65.5938 L161.5,65.5938 A2.5,2.5 0 0 1 164,68.0938 L164,380.7969 A2.5,2.5 0 0 1 161.5,383.2969 L8.5,383.2969 A2.5,2.5 0 0 1 6,380.7969 L6,45.7969 A2.5,2.5 0 0 1 8.5,43.2969 " style="stroke:#000000;stroke-width:1.5;fill:none;"/><line style="stroke:#000000;stroke-width:1.5;fill:none;" x1="6" x2="73" y1="65.5938" y2="65.5938"/><text fill="#000000" font-family="sans-serif" font-size="14" font-weight="bold" lengthAdjust="spacing" textLength="54" x="10" y="58.292">ROBOT</text></g><!--MD5=[62fec7d8fc3b707bc11fa36d89741d3e]
entity CAM_ARM--><g id="elem_CAM_ARM"><polygon fill="#F1F1F1" points="30.5,331.2969,40.5,321.2969,139.5,321.2969,139.5,357.5938,129.5,367.5938,30.5,367.5938,30.5,331.2969" style="stroke:#181818;stroke-width:0.5;"/><line style="stroke:#181818;stroke-width:0.5;" x1="129.5" x2="139.5" y1="331.2969" y2="321.2969"/><line style="stroke:#181818;stroke-width:0.5;" x1="30.5" x2="129.5" y1="331.2969" y2="331.2969"/><line style="stroke:#181818;stroke-width:0.5;" x1="129.5" x2="129.5" y1="331.2969" y2="367.5938"/><text fill="#000000" font-family="sans-serif" font-size="14" lengthAdjust="spacing" textLength="69" x="45.5" y="354.292">CAM_ARM</text></g><!--MD5=[709c70f16530fe01ba5adecac7923ecc]
entity CAM_LEFT--><g id="elem_CAM_LEFT"><polygon fill="#F1F1F1" points="29.5,250.2969,39.5,240.2969,140.5,240.2969,140.5,276.5938,130.5,286.5938,29.5,286.5938,29.5,250.2969" style="stroke:#181818;stroke-width:0.5;"/><line style="stroke:#181818;stroke-width:0.5;" x1="130.5" x2="140.5" y1="250.2969" y2="240.2969"/><line style="stroke:#181818;stroke-width:0.5;" x1="29.5" x2="130.5" y1="250.2969" y2="250.2969"/><line style="stroke:#181818;stroke-width:0.5;" x1="130.5" x2="130.5" y1="250.2969" y2="286.5938"/><text fill="#000000" font-family="sans-serif" font-size="14" lengthAdjust="spacing" textLength="71" x="44.5" y="273.292">CAM_LEFT</text></g><!--MD5=[615fc78e2c3679db247c1de208fc5c98]
entity CAM_RIGHT--><g id="elem_CAM_RIGHT"><polygon fill="#F1F1F1" points="24.5,169.2969,34.5,159.2969,145.5,159.2969,145.5,195.5938,135.5,205.5938,24.5,205.5938,24.5,169.2969" style="stroke:#181818;stroke-width:0.5;"/><line style="stroke:#181818;stroke-width:0.5;" x1="135.5" x2="145.5" y1="169.2969" y2="159.2969"/><line style="stroke:#181818;stroke-width:0.5;" x1="24.5" x2="135.5" y1="169.2969" y2="169.2969"/><line style="stroke:#181818;stroke-width:0.5;" x1="135.5" x2="135.5" y1="169.2969" y2="205.5938"/><text fill="#000000" font-family="sans-serif" font-size="14" lengthAdjust="spacing" textLength="81" x="39.5" y="192.292">CAM_RIGHT</text></g><!--MD5=[e8d72fcd0de6b8ac183579cdeb4d1c2b]
entity CAM_FRONT--><g id="elem_CAM_FRONT"><polygon fill="#F1F1F1" points="22,88.2969,32,78.2969,148,78.2969,148,114.5938,138,124.5938,22,124.5938,22,88.2969" style="stroke:#181818;stroke-width:0.5;"/><line style="stroke:#181818;stroke-width:0.5;" x1="138" x2="148" y1="88.2969" y2="78.2969"/><line style="stroke:#181818;stroke-width:0.5;" x1="22" x2="138" y1="88.2969" y2="88.2969"/><line style="stroke:#181818;stroke-width:0.5;" x1="138" x2="138" y1="88.2969" y2="124.5938"/><text fill="#000000" font-family="sans-serif" font-size="14" lengthAdjust="spacing" textLength="86" x="37" y="111.292">CAM_FRONT</text></g><!--MD5=[41ff7cc23ffdea9d14d6dfc364d7dca9]
entity VISION_DETECT--><g id="elem_VISION_DETECT"><rect fill="#F1F1F1" height="46.2969" rx="2.5" ry="2.5" style="stroke:#181818;stroke-width:0.5;" width="149" x="588" y="201.2969"/><rect fill="#F1F1F1" height="10" style="stroke:#181818;stroke-width:0.5;" width="15" x="717" y="206.2969"/><rect fill="#F1F1F1" height="2" style="stroke:#181818;stroke-width:0.5;" width="4" x="715" y="208.2969"/><rect fill="#F1F1F1" height="2" style="stroke:#181818;stroke-width:0.5;" width="4" x="715" y="212.2969"/><text fill="#000000" font-family="sans-serif" font-size="14" lengthAdjust="spacing" textLength="109" x="603" y="234.292">VISION_DETECT</text></g><!--MD5=[24161752abd23858f57440938ff69201]
entity VISION_DECODE--><g id="elem_VISION_DECODE"><rect fill="#F1F1F1" height="46.2969" rx="2.5" ry="2.5" style="stroke:#181818;stroke-width:0.5;" width="153" x="1200" y="248.2969"/><rect fill="#F1F1F1" height="10" style="stroke:#181818;stroke-width:0.5;" width="15" x="1333" y="253.2969"/><rect fill="#F1F1F1" height="2" style="stroke:#181818;stroke-width:0.5;" width="4" x="1331" y="255.2969"/><rect fill="#F1F1F1" height="2" style="stroke:#181818;stroke-width:0.5;" width="4" x="1331" y="259.2969"/><text fill="#000000" font-family="sans-serif" font-size="14" lengthAdjust="spacing" textLength="113" x="1215" y="281.292">VISION_DECODE</text></g><!--MD5=[0ff8cde09c95e7bd5ad5c1a367aa2e4a]
entity ORACLE--><g id="elem_ORACLE"><rect fill="#F1F1F1" height="46.2969" rx="2.5" ry="2.5" style="stroke:#181818;stroke-width:0.5;" width="96" x="614.5" y="294.2969"/><rect fill="#F1F1F1" height="10" style="stroke:#181818;stroke-width:0.5;" width="15" x="690.5" y="299.2969"/><rect fill="#F1F1F1" height="2" style="stroke:#181818;stroke-width:0.5;" width="4" x="688.5" y="301.2969"/><rect fill="#F1F1F1" height="2" style="stroke:#181818;stroke-width:0.5;" width="4" x="688.5" y="305.2969"/><text fill="#000000" font-family="sans-serif" font-size="14" lengthAdjust="spacing" textLength="56" x="629.5" y="327.292">ORACLE</text></g><!--MD5=[2200ff62dd5c916baed2da4f5307fb7f]
entity TOPIC_ARM--><g id="elem_TOPIC_ARM"><ellipse cx="369" cy="363.2969" fill="#F1F1F1" rx="8" ry="8" style="stroke:#181818;stroke-width:0.5;"/><text fill="#000000" font-family="sans-serif" font-size="14" lengthAdjust="spacing" textLength="295" x="221.5" y="393.292">/robocluedo_robot/camera_arm/image_raw</text></g><!--MD5=[a42b815582200b4b89d8c64fb0e9efa7]
entity TOPIC_FRONT--><g id="elem_TOPIC_FRONT"><ellipse cx="369" cy="84.2969" fill="#F1F1F1" rx="8" ry="8" style="stroke:#181818;stroke-width:0.5;"/><text fill="#000000" font-family="sans-serif" font-size="14" lengthAdjust="spacing" textLength="301" x="218.5" y="114.292">/robocluedo_robot/camera_front/image_raw</text></g><!--MD5=[a374ca8156ad542d5b084799e87e5c4c]
entity TOPIC_LEFT--><g id="elem_TOPIC_LEFT"><ellipse cx="369" cy="270.2969" fill="#F1F1F1" rx="8" ry="8" style="stroke:#181818;stroke-width:0.5;"/><text fill="#000000" font-family="sans-serif" font-size="14" lengthAdjust="spacing" textLength="290" x="224" y="300.292">/robocluedo_robot/camera_left/image_raw</text></g><!--MD5=[9667ef7157f655b601f2a1441d37df3b]
entity TOPIC_RIGHT--><g id="elem_TOPIC_RIGHT"><ellipse cx="369" cy="177.2969" fill="#F1F1F1" rx="8" ry="8" style="stroke:#181818;stroke-width:0.5;"/><text fill="#000000" font-family="sans-serif" font-size="14" lengthAdjust="spacing" textLength="300" x="219" y="207.292">/robocluedo_robot/camera_right/image_raw</text></g><!--MD5=[a951da9b8a9e139af2aa199a75bfdbe6]
entity TOPIC_IDS--><g id="elem_TOPIC_IDS"><ellipse cx="1061" cy="224.2969" fill="#F1F1F1" rx="8" ry="8" style="stroke:#181818;stroke-width:0.5;"/><text fill="#000000" font-family="sans-serif" font-size="14" lengthAdjust="spacing" textLength="141" x="990.5" y="254.292">/aruco_detected_ids</text></g><!--MD5=[33ac6d4b15f7a5169c71a56ac8103c18]
entity SRV_REAL_ORACLE--><g id="elem_SRV_REAL_ORACLE"><ellipse cx="1061" cy="317.2969" fill="#F1F1F1" rx="8" ry="8" style="stroke:#181818;stroke-width:0.5;"/><text fill="#000000" font-family="sans-serif" font-size="14" lengthAdjust="spacing" textLength="131" x="995.5" y="347.292">oracle_hint_original</text></g><!--MD5=[6bd9ba445a0df7171e7a6ce71dec91fa]
entity TOPIC_ORACLE--><g id="elem_TOPIC_ORACLE"><ellipse cx="1580" cy="271.2969" fill="#F1F1F1" rx="8" ry="8" style="stroke:#181818;stroke-width:0.5;"/><text fill="#000000" font-family="sans-serif" font-size="14" lengthAdjust="spacing" textLength="80" x="1540" y="301.292">/oracle_hint</text></g><!--MD5=[83682d6f40372e3cb3ba1345d784c012]
link CAM_ARM to CAM_LEFT--><!--MD5=[a93585fb1ee4de911cb6131637c84003]
link CAM_LEFT to CAM_RIGHT--><!--MD5=[cf14d442c0a1d1b187eb9972588d20cf]
link CAM_RIGHT to CAM_FRONT--><!--MD5=[5fd61e963f37ec6ba35aab509d0cb6c3]
link CAM_ARM to TOPIC_ARM--><g id="link_CAM_ARM_TOPIC_ARM"><path d="M139.71,347.9169 C206.72,352.4269 317.12,359.8669 354.87,362.4169 " fill="none" id="CAM_ARM-to-TOPIC_ARM" style="stroke:#181818;stroke-width:1.0;"/><polygon fill="#181818" points="359.9,362.7469,351.1956,358.1388,354.9118,362.4038,350.6468,366.12,359.9,362.7469" style="stroke:#181818;stroke-width:1.0;"/><text fill="#000000" font-family="sans-serif" font-size="13" lengthAdjust="spacing" textLength="24" x="147.4233" y="361.26">pub</text></g><!--MD5=[7b9a6d966196c1e70a3955843ee46eb9]
link CAM_LEFT to TOPIC_LEFT--><g id="link_CAM_LEFT_TOPIC_LEFT"><path d="M140.71,264.6569 C207.6,266.3169 316.61,269.0169 354.51,269.9669 " fill="none" id="CAM_LEFT-to-TOPIC_LEFT" style="stroke:#181818;stroke-width:1.0;"/><polygon fill="#181818" points="359.96,270.0969,351.0658,265.8668,354.9617,269.9683,350.8602,273.8642,359.96,270.0969" style="stroke:#181818;stroke-width:1.0;"/><text fill="#000000" font-family="sans-serif" font-size="13" lengthAdjust="spacing" textLength="24" x="148.539" y="277.7387">pub</text></g><!--MD5=[45d7aa76c5ac17ea69668feae20e0289]
link CAM_RIGHT to TOPIC_RIGHT--><g id="link_CAM_RIGHT_TOPIC_RIGHT"><path d="M145.8,181.2369 C213.02,180.0469 317.59,178.1869 354.52,177.5369 " fill="none" id="CAM_RIGHT-to-TOPIC_RIGHT" style="stroke:#181818;stroke-width:1.0;"/><polygon fill="#181818" points="359.85,177.4369,350.7718,173.6176,354.851,177.5369,350.9318,181.616,359.85,177.4369" style="stroke:#181818;stroke-width:1.0;"/><text fill="#000000" font-family="sans-serif" font-size="13" lengthAdjust="spacing" textLength="24" x="153.3075" y="193.9594">pub</text></g><!--MD5=[8674778ec630ca0c99a1993738a87291]
link CAM_FRONT to TOPIC_FRONT--><g id="link_CAM_FRONT_TOPIC_FRONT"><path d="M148.24,97.5469 C215.36,93.4969 317.56,87.3369 354.27,85.1269 " fill="none" id="CAM_FRONT-to-TOPIC_FRONT" style="stroke:#181818;stroke-width:1.0;"/><polygon fill="#181818" points="359.59,84.8069,350.3666,81.3531,354.599,85.1063,350.8457,89.3387,359.59,84.8069" style="stroke:#181818;stroke-width:1.0;"/><text fill="#000000" font-family="sans-serif" font-size="13" lengthAdjust="spacing" textLength="24" x="155.9991" y="109.992">pub</text></g><!--MD5=[b824ef31863dacfb9b38bd897105d289]
link TOPIC_ARM to VISION_DETECT--><g id="link_TOPIC_ARM_VISION_DETECT"><path d="M378.17,361.8569 C402,357.4769 473.16,342.9669 527,317.2969 C537.4,312.3369 588.73,276.2469 624.88,250.5169 " fill="none" id="TOPIC_ARM-to-VISION_DETECT" style="stroke:#181818;stroke-width:1.0;"/><polygon fill="#181818" points="629.21,247.4269,619.5588,249.3903,625.1375,250.3277,624.2001,255.9063,629.21,247.4269" style="stroke:#181818;stroke-width:1.0;"/><text fill="#000000" font-family="sans-serif" font-size="13" lengthAdjust="spacing" textLength="23" x="594.1727" y="267.7035">sub</text></g><!--MD5=[707edfcdcd4cb15ee0eb2357bbbf27cb]
link TOPIC_FRONT to VISION_DETECT--><g id="link_TOPIC_FRONT_VISION_DETECT"><path d="M378.18,85.7169 C402.03,90.0669 473.23,104.4869 527,130.2969 C565.03,148.5469 604.07,177.1369 630.22,197.9969 " fill="none" id="TOPIC_FRONT-to-VISION_DETECT" style="stroke:#181818;stroke-width:1.0;"/><polygon fill="#181818" points="634.31,201.2769,629.7927,192.5251,630.4098,198.1482,624.7868,198.7653,634.31,201.2769" style="stroke:#181818;stroke-width:1.0;"/><text fill="#000000" font-family="sans-serif" font-size="13" lengthAdjust="spacing" textLength="23" x="600.6433" y="190.1195">sub</text></g><!--MD5=[6eded28073d59a15a04b2acdd17258cb]
link TOPIC_LEFT to VISION_DETECT--><g id="link_TOPIC_LEFT_VISION_DETECT"><path d="M378.1,269.0169 C407.28,264.4169 509.19,248.3369 582.44,236.7769 " fill="none" id="TOPIC_LEFT-to-VISION_DETECT" style="stroke:#181818;stroke-width:1.0;"/><polygon fill="#181818" points="587.66,235.9469,578.1436,233.4094,582.722,236.7318,579.3996,241.3102,587.66,235.9469" style="stroke:#181818;stroke-width:1.0;"/><text fill="#000000" font-family="sans-serif" font-size="13" lengthAdjust="spacing" textLength="23" x="556.9703" y="249.712">sub</text></g><!--MD5=[097b74827c8f087619db4f3430025aed]
link TOPIC_RIGHT to VISION_DETECT--><g id="link_TOPIC_RIGHT_VISION_DETECT"><path d="M378.1,178.6069 C407.28,183.3069 509.19,199.7369 582.44,211.5469 " fill="none" id="TOPIC_RIGHT-to-VISION_DETECT" style="stroke:#181818;stroke-width:1.0;"/><polygon fill="#181818" points="587.66,212.3869,579.3996,207.0236,582.722,211.6019,578.1436,214.9244,587.66,212.3869" style="stroke:#181818;stroke-width:1.0;"/><text fill="#000000" font-family="sans-serif" font-size="13" lengthAdjust="spacing" textLength="23" x="556.9703" y="224.0537">sub</text></g><!--MD5=[7f7e36333e874d795a14d4778add8e07]
link VISION_DETECT to TOPIC_IDS--><g id="link_VISION_DETECT_TOPIC_IDS"><path d="M737.15,224.2969 C834.42,224.2969 999,224.2969 1046.69,224.2969 " fill="none" id="VISION_DETECT-to-TOPIC_IDS" style="stroke:#181818;stroke-width:1.0;"/><polygon fill="#181818" points="1051.91,224.2969,1042.91,220.2969,1046.91,224.2969,1042.91,228.2969,1051.91,224.2969" style="stroke:#181818;stroke-width:1.0;"/><text fill="#000000" font-family="sans-serif" font-size="13" lengthAdjust="spacing" textLength="130" x="795" y="220.3638">std_msgs/Int32.msg</text></g><!--MD5=[5ac3f629b44e101fc9ac4d435960c8aa]
link TOPIC_IDS to VISION_DECODE--><g id="link_TOPIC_IDS_VISION_DECODE"><path d="M1070.11,226.0869 C1090.65,230.6069 1146.56,242.9069 1194.86,253.5469 " fill="none" id="TOPIC_IDS-to-VISION_DECODE" style="stroke:#181818;stroke-width:1.0;"/><polygon fill="#181818" points="1199.81,254.6369,1191.8757,248.8019,1194.9261,253.5658,1190.1621,256.6162,1199.81,254.6369" style="stroke:#181818;stroke-width:1.0;"/><text fill="#000000" font-family="sans-serif" font-size="13" lengthAdjust="spacing" textLength="23" x="1168.9556" y="265.8807">sub</text></g><!--MD5=[a7ca29dfa923aee4654496e9506104a7]
link ORACLE to SRV_REAL_ORACLE--><g id="link_ORACLE_SRV_REAL_ORACLE"><path d="M710.54,317.2969 C800.79,317.2969 993.98,317.2969 1046.56,317.2969 " fill="none" id="ORACLE-to-SRV_REAL_ORACLE" style="stroke:#181818;stroke-width:1.0;"/><polygon fill="#181818" points="1051.73,317.2969,1042.73,313.2969,1046.73,317.2969,1042.73,321.2969,1051.73,317.2969" style="stroke:#181818;stroke-width:1.0;"/><text fill="#000000" font-family="sans-serif" font-size="13" lengthAdjust="spacing" textLength="184" x="768" y="313.3638">exp_assignment3/Marker.srv</text><text fill="#000000" font-family="sans-serif" font-size="13" lengthAdjust="spacing" textLength="19" x="718.6316" y="330.4069">srv</text></g><!--MD5=[e87ea68447d66936fe50b572c4797ea8]
link SRV_REAL_ORACLE to VISION_DECODE--><g id="link_SRV_REAL_ORACLE_VISION_DECODE"><path d="M1070.11,315.5469 C1090.65,311.1269 1146.56,299.0769 1194.86,288.6669 " fill="none" id="SRV_REAL_ORACLE-to-VISION_DECODE" style="stroke:#181818;stroke-width:1.0;"/><polygon fill="#181818" points="1199.81,287.6069,1190.1676,285.6007,1194.9231,288.6643,1191.8595,293.4197,1199.81,287.6069" style="stroke:#181818;stroke-width:1.0;"/><text fill="#000000" font-family="sans-serif" font-size="13" lengthAdjust="spacing" textLength="10" x="1182.0239" y="301.9353">cl</text></g><!--MD5=[71d10d70c5029b21c7c1beb1f69707c1]
link VISION_DECODE to TOPIC_ORACLE--><g id="link_VISION_DECODE_TOPIC_ORACLE"><path d="M1353.19,271.2969 C1425.38,271.2969 1528.41,271.2969 1565.25,271.2969 " fill="none" id="VISION_DECODE-to-TOPIC_ORACLE" style="stroke:#181818;stroke-width:1.0;"/><polygon fill="#181818" points="1570.58,271.2969,1561.58,267.2969,1565.58,271.2969,1561.58,275.2969,1570.58,271.2969" style="stroke:#181818;stroke-width:1.0;"/><text fill="#000000" font-family="sans-serif" font-size="13" lengthAdjust="spacing" textLength="117" x="1384" y="267.3638">erl2/ErlOracle.msg</text><text fill="#000000" font-family="sans-serif" font-size="13" lengthAdjust="spacing" textLength="24" x="1361.089" y="284.0244">pub</text></g><!--MD5=[7d11fa8e062e58dd4526c843483f7623]
@startuml

title RoboCLuedo Vision UML diagram
left to right direction

''' ENTITIES
component VISION_DETECT
component VISION_DECODE
component ORACLE
package ROBOT {
node CAM_ARM
node CAM_LEFT
node CAM_RIGHT
node CAM_FRONT

CAM_ARM -[hidden]> CAM_LEFT
CAM_LEFT -[hidden]> CAM_RIGHT
CAM_RIGHT -[hidden]> CAM_FRONT
}

() "/robocluedo_robot/camera_arm/image_raw" as TOPIC_ARM
() "/robocluedo_robot/camera_front/image_raw" as TOPIC_FRONT
() "/robocluedo_robot/camera_left/image_raw" as TOPIC_LEFT
() "/robocluedo_robot/camera_right/image_raw" as TOPIC_RIGHT

CAM_ARM "pub" - -> TOPIC_ARM
CAM_LEFT "pub" - -> TOPIC_LEFT
CAM_RIGHT "pub" - -> TOPIC_RIGHT
CAM_FRONT "pub" - -> TOPIC_FRONT

TOPIC_ARM - -> "sub" VISION_DETECT
TOPIC_FRONT - -> "sub" VISION_DETECT
TOPIC_LEFT - -> "sub" VISION_DETECT
TOPIC_RIGHT - -> "sub" VISION_DETECT

() "/aruco_detected_ids" as TOPIC_IDS
VISION_DETECT - -> TOPIC_IDS : std_msgs/Int32.msg

TOPIC_IDS - -> "sub" VISION_DECODE

() "oracle_hint_original" as SRV_REAL_ORACLE
ORACLE "srv" - -> SRV_REAL_ORACLE : exp_assignment3/Marker.srv

SRV_REAL_ORACLE - -> "cl" VISION_DECODE

() "/oracle_hint" as TOPIC_ORACLE
VISION_DECODE "pub" - -> TOPIC_ORACLE : erl2/ErlOracle.msg

@enduml

@startuml

title RoboCLuedo Vision UML diagram
left to right direction

component VISION_DETECT
component VISION_DECODE
component ORACLE
package ROBOT {
node CAM_ARM
node CAM_LEFT
node CAM_RIGHT
node CAM_FRONT

CAM_ARM -[hidden]> CAM_LEFT
CAM_LEFT -[hidden]> CAM_RIGHT
CAM_RIGHT -[hidden]> CAM_FRONT
}

() "/robocluedo_robot/camera_arm/image_raw" as TOPIC_ARM
() "/robocluedo_robot/camera_front/image_raw" as TOPIC_FRONT
() "/robocluedo_robot/camera_left/image_raw" as TOPIC_LEFT
() "/robocluedo_robot/camera_right/image_raw" as TOPIC_RIGHT

CAM_ARM "pub" - -> TOPIC_ARM
CAM_LEFT "pub" - -> TOPIC_LEFT
CAM_RIGHT "pub" - -> TOPIC_RIGHT
CAM_FRONT "pub" - -> TOPIC_FRONT

TOPIC_ARM - -> "sub" VISION_DETECT
TOPIC_FRONT - -> "sub" VISION_DETECT
TOPIC_LEFT - -> "sub" VISION_DETECT
TOPIC_RIGHT - -> "sub" VISION_DETECT

() "/aruco_detected_ids" as TOPIC_IDS
VISION_DETECT - -> TOPIC_IDS : std_msgs/Int32.msg

TOPIC_IDS - -> "sub" VISION_DECODE

() "oracle_hint_original" as SRV_REAL_ORACLE
ORACLE "srv" - -> SRV_REAL_ORACLE : exp_assignment3/Marker.srv

SRV_REAL_ORACLE - -> "cl" VISION_DECODE

() "/oracle_hint" as TOPIC_ORACLE
VISION_DECODE "pub" - -> TOPIC_ORACLE : erl2/ErlOracle.msg

@enduml

PlantUML version 1.2022.6(Tue Jun 21 17:34:49 UTC 2022)
(GPL source distribution)
Java Runtime: Java(TM) SE Runtime Environment
JVM: Java HotSpot(TM) 64-Bit Server VM
Default Encoding: UTF-8
Language: en
Country: US
--></g></svg>