<?xml version="1.0" encoding="UTF-8" standalone="no"?><svg xmlns="http://www.w3.org/2000/svg" xmlns:xlink="http://www.w3.org/1999/xlink" contentStyleType="text/css" height="892px" preserveAspectRatio="none" style="width:829px;height:892px;background:#FFFFFF;" version="1.1" viewBox="0 0 829 892" width="829px" zoomAndPan="magnify"><defs/><g><rect height="46.2969" style="stroke:#00000000;stroke-width:1.0;fill:none;" width="204" x="305.5" y="5"/><text fill="#000000" font-family="sans-serif" font-size="14" font-weight="bold" lengthAdjust="spacing" textLength="174" x="320.5" y="32.9951">ROSPlan main pipeline</text><!--MD5=[84ada0b0ae3db93eca028ef09b66d02a]
cluster ROSPlan--><g id="cluster_ROSPlan"><path d="M51,219.2969 L137,219.2969 A3.75,3.75 0 0 1 139.5,221.7969 L146.5,261.5938 L452,261.5938 A2.5,2.5 0 0 1 454.5,264.0938 L454.5,882.7969 A2.5,2.5 0 0 1 452,885.2969 L51,885.2969 A2.5,2.5 0 0 1 48.5,882.7969 L48.5,221.7969 A2.5,2.5 0 0 1 51,219.2969 " style="stroke:#000000;stroke-width:1.5;fill:none;"/><line style="stroke:#000000;stroke-width:1.5;fill:none;" x1="48.5" x2="146.5" y1="261.5938" y2="261.5938"/><text fill="#000000" font-family="sans-serif" font-size="14" font-weight="bold" lengthAdjust="spacing" textLength="65" x="62.5" y="244.292">ROSPlan</text></g><!--MD5=[0a37328e3bec901a7ec852b31cccb5b4]
entity RP_KB--><g id="elem_RP_KB"><path d="M64.5,284.7969 C64.5,274.7969 142.5,274.7969 142.5,274.7969 C142.5,274.7969 220.5,274.7969 220.5,284.7969 L220.5,366.3906 C220.5,376.3906 142.5,376.3906 142.5,376.3906 C142.5,376.3906 64.5,376.3906 64.5,366.3906 L64.5,284.7969 " fill="#F1F1F1" style="stroke:#181818;stroke-width:0.5;"/><path d="M64.5,284.7969 C64.5,294.7969 142.5,294.7969 142.5,294.7969 C142.5,294.7969 220.5,294.7969 220.5,284.7969 " fill="none" style="stroke:#181818;stroke-width:0.5;"/><text fill="#000000" font-family="sans-serif" font-size="14" font-style="italic" lengthAdjust="spacing" textLength="77" x="104" y="321.792">«ROSPlan»</text><text fill="#000000" font-family="sans-serif" font-size="14" lengthAdjust="spacing" textLength="116" x="84.5" y="358.0889">Knowledge Base</text></g><!--MD5=[a80ea3f7ba9fa25a23dbc735a6ad35f0]
entity RP_PROBLEM--><g id="elem_RP_PROBLEM"><rect fill="#F1F1F1" height="102.5938" rx="2.5" ry="2.5" style="stroke:#181818;stroke-width:0.5;" width="181" x="257" y="274.2969"/><rect fill="#F1F1F1" height="10" style="stroke:#181818;stroke-width:0.5;" width="15" x="418" y="279.2969"/><rect fill="#F1F1F1" height="2" style="stroke:#181818;stroke-width:0.5;" width="4" x="416" y="281.2969"/><rect fill="#F1F1F1" height="2" style="stroke:#181818;stroke-width:0.5;" width="4" x="416" y="285.2969"/><text fill="#000000" font-family="sans-serif" font-size="14" font-style="italic" lengthAdjust="spacing" textLength="77" x="304" y="317.292">«ROSPlan»</text><text fill="#000000" font-family="sans-serif" font-size="14" lengthAdjust="spacing" textLength="121" x="282" y="353.5889">Problem Interface</text></g><!--MD5=[4b8148de2ab915fe107cab0dd77e8cc6]
entity RP_PLAN--><g id="elem_RP_PLAN"><rect fill="#F1F1F1" height="102.5938" rx="2.5" ry="2.5" style="stroke:#181818;stroke-width:0.5;" width="183" x="237" y="438.2969"/><rect fill="#F1F1F1" height="10" style="stroke:#181818;stroke-width:0.5;" width="15" x="400" y="443.2969"/><rect fill="#F1F1F1" height="2" style="stroke:#181818;stroke-width:0.5;" width="4" x="398" y="445.2969"/><rect fill="#F1F1F1" height="2" style="stroke:#181818;stroke-width:0.5;" width="4" x="398" y="449.2969"/><text fill="#000000" font-family="sans-serif" font-size="14" font-style="italic" lengthAdjust="spacing" textLength="77" x="285" y="481.292">«ROSPlan»</text><text fill="#000000" font-family="sans-serif" font-size="14" lengthAdjust="spacing" textLength="123" x="262" y="517.5889">Planning Interface</text></g><!--MD5=[3cb66f5029d6046ee7ffa744c65f48eb]
entity RP_PARSE--><g id="elem_RP_PARSE"><rect fill="#F1F1F1" height="102.5938" rx="2.5" ry="2.5" style="stroke:#181818;stroke-width:0.5;" width="144" x="179.5" y="602.2969"/><rect fill="#F1F1F1" height="10" style="stroke:#181818;stroke-width:0.5;" width="15" x="303.5" y="607.2969"/><rect fill="#F1F1F1" height="2" style="stroke:#181818;stroke-width:0.5;" width="4" x="301.5" y="609.2969"/><rect fill="#F1F1F1" height="2" style="stroke:#181818;stroke-width:0.5;" width="4" x="301.5" y="613.2969"/><text fill="#000000" font-family="sans-serif" font-size="14" font-style="italic" lengthAdjust="spacing" textLength="77" x="208" y="645.292">«ROSPlan»</text><text fill="#000000" font-family="sans-serif" font-size="14" lengthAdjust="spacing" textLength="84" x="204.5" y="681.5889">Plan Parsing</text></g><!--MD5=[5f5e0fd2baf98afc0316d19079389ed6]
entity RP_DISPATCH--><g id="elem_RP_DISPATCH"><rect fill="#F1F1F1" height="102.5938" rx="2.5" ry="2.5" style="stroke:#181818;stroke-width:0.5;" width="168" x="90.5" y="766.2969"/><rect fill="#F1F1F1" height="10" style="stroke:#181818;stroke-width:0.5;" width="15" x="238.5" y="771.2969"/><rect fill="#F1F1F1" height="2" style="stroke:#181818;stroke-width:0.5;" width="4" x="236.5" y="773.2969"/><rect fill="#F1F1F1" height="2" style="stroke:#181818;stroke-width:0.5;" width="4" x="236.5" y="777.2969"/><text fill="#000000" font-family="sans-serif" font-size="14" font-style="italic" lengthAdjust="spacing" textLength="77" x="131" y="809.292">«ROSPlan»</text><text fill="#000000" font-family="sans-serif" font-size="14" lengthAdjust="spacing" textLength="108" x="115.5" y="845.5889">Plan Dispatcher</text></g><!--MD5=[e79c8e6bb3a9323b12a58d750a988a49]
entity PROBLEM--><g id="elem_PROBLEM"><path d="M161,65.7969 L161,169.6875 A2.5,2.5 0 0 0 163.5,172.1875 L277.5,172.1875 A2.5,2.5 0 0 0 280,169.6875 L280,73.2969 L270,63.2969 L163.5,63.2969 A2.5,2.5 0 0 0 161,65.7969 " fill="#F1F1F1" style="stroke:#181818;stroke-width:0.5;"/><path d="M270,63.2969 L270,70.7969 A2.5,2.5 0 0 0 272.5,73.2969 L280,73.2969 " fill="#F1F1F1" style="stroke:#181818;stroke-width:0.5;"/><text fill="#000000" font-family="sans-serif" font-size="14" font-style="italic" lengthAdjust="spacing" textLength="56" x="192.5" y="96.292">«PDDL»</text><text fill="#000000" font-family="sans-serif" font-size="14" lengthAdjust="spacing" textLength="79" x="181" y="132.5889">robolcuedo</text><text fill="#000000" font-family="sans-serif" font-size="14" lengthAdjust="spacing" textLength="57" x="181" y="148.8857">problem</text></g><!--MD5=[1c1ddfab09557eb457f2e2932fb59e45]
entity DOMAIN--><g id="elem_DOMAIN"><path d="M6,65.7969 L6,169.6875 A2.5,2.5 0 0 0 8.5,172.1875 L122.5,172.1875 A2.5,2.5 0 0 0 125,169.6875 L125,73.2969 L115,63.2969 L8.5,63.2969 A2.5,2.5 0 0 0 6,65.7969 " fill="#F1F1F1" style="stroke:#181818;stroke-width:0.5;"/><path d="M115,63.2969 L115,70.7969 A2.5,2.5 0 0 0 117.5,73.2969 L125,73.2969 " fill="#F1F1F1" style="stroke:#181818;stroke-width:0.5;"/><text fill="#000000" font-family="sans-serif" font-size="14" font-style="italic" lengthAdjust="spacing" textLength="56" x="37.5" y="96.292">«PDDL»</text><text fill="#000000" font-family="sans-serif" font-size="14" lengthAdjust="spacing" textLength="79" x="26" y="132.5889">robolcuedo</text><text fill="#000000" font-family="sans-serif" font-size="14" lengthAdjust="spacing" textLength="51" x="26" y="148.8857">domain</text></g><!--MD5=[3bd4b3459161f586c76f00998caa37eb]
entity SRV_PROBLEM_TRIG--><g id="elem_SRV_PROBLEM_TRIG"><ellipse cx="631.5" cy="325.7969" fill="#F1F1F1" rx="8" ry="8" style="stroke:#181818;stroke-width:0.5;"/><text fill="#000000" font-family="sans-serif" font-size="14" lengthAdjust="spacing" textLength="381" x="441" y="365.792">/rosplan_problem_interface/problem_generation_server</text></g><!--MD5=[0b85c392a0b8fe141436d3f77ffe2266]
entity SRV_PLAN_TRIG--><g id="elem_SRV_PLAN_TRIG"><ellipse cx="613.5" cy="489.7969" fill="#F1F1F1" rx="8" ry="8" style="stroke:#181818;stroke-width:0.5;"/><text fill="#000000" font-family="sans-serif" font-size="14" lengthAdjust="spacing" textLength="296" x="465.5" y="529.792">/rosplan_planner_interface/planning_server</text></g><!--MD5=[f51f5ff6095acc1b588cb3a3ff7105a5]
entity SRV_PARSE_TRIG--><g id="elem_SRV_PARSE_TRIG"><ellipse cx="517.5" cy="653.7969" fill="#F1F1F1" rx="8" ry="8" style="stroke:#181818;stroke-width:0.5;"/><text fill="#000000" font-family="sans-serif" font-size="14" lengthAdjust="spacing" textLength="261" x="387" y="693.792">/rosplan_parsing_interface/parse_plan</text></g><!--MD5=[89cc3e41ea68916f9c58895ce792ddd3]
entity SRV_DISPATCH_TRIG--><g id="elem_SRV_DISPATCH_TRIG"><ellipse cx="611.5" cy="817.7969" fill="#F1F1F1" rx="8" ry="8" style="stroke:#181818;stroke-width:0.5;"/><text fill="#000000" font-family="sans-serif" font-size="14" lengthAdjust="spacing" textLength="272" x="475.5" y="857.792">/rosplan_plan_dispatcher/dispatch_plan</text></g><!--MD5=[af271d268e873895b2ff951be2406625]
link RP_KB to RP_PROBLEM--><g id="link_RP_KB_RP_PROBLEM"><path codeLine="19" d="M220.58,325.7969 C230.94,325.7969 241.31,325.7969 251.68,325.7969 " fill="none" id="RP_KB-to-RP_PROBLEM" style="stroke:#181818;stroke-width:1.0;"/><polygon fill="#181818" points="256.77,325.7969,247.77,321.7969,251.77,325.7969,247.77,329.7969,256.77,325.7969" style="stroke:#181818;stroke-width:1.0;"/></g><!--MD5=[cc17e340d035a635732634a3ba1505b5]
link RP_PROBLEM to RP_PLAN--><g id="link_RP_PROBLEM_RP_PLAN"><path codeLine="20" d="M341.54,377.6069 C339.47,395.2569 337.14,415.1269 335.03,433.1369 " fill="none" id="RP_PROBLEM-to-RP_PLAN" style="stroke:#181818;stroke-width:1.0;"/><polygon fill="#181818" points="334.44,438.1669,339.4416,429.6825,335.011,433.1996,331.4939,428.769,334.44,438.1669" style="stroke:#181818;stroke-width:1.0;"/></g><!--MD5=[7e09ae14344600782adae61df5a86cbe]
link RP_PLAN to RP_PARSE--><g id="link_RP_PLAN_RP_PARSE"><path codeLine="21" d="M304.35,541.6069 C295.89,559.4069 286.36,579.4669 277.74,597.5969 " fill="none" id="RP_PLAN-to-RP_PARSE" style="stroke:#181818;stroke-width:1.0;"/><polygon fill="#181818" points="275.57,602.1669,283.043,595.7517,277.7141,597.6499,275.8159,592.3211,275.57,602.1669" style="stroke:#181818;stroke-width:1.0;"/></g><!--MD5=[2960d03b362b35fe6fde12ef0b31038c]
link RP_KB to RP_PARSE--><g id="link_RP_KB_RP_PARSE"><path codeLine="22" d="M159.29,377.0169 C179.23,436.6369 212.36,535.7369 233.01,597.4969 " fill="none" id="RP_KB-to-RP_PARSE" style="stroke:#181818;stroke-width:1.0;"/><polygon fill="#181818" points="234.6,602.2469,235.5398,592.443,233.0146,597.5049,227.9526,594.9796,234.6,602.2469" style="stroke:#181818;stroke-width:1.0;"/></g><!--MD5=[8902c5440cbd30b6b1d5314159cc6ae8]
link RP_PARSE to RP_DISPATCH--><g id="link_RP_PARSE_RP_DISPATCH"><path codeLine="23" d="M227.35,705.6069 C218.89,723.4069 209.36,743.4669 200.74,761.5969 " fill="none" id="RP_PARSE-to-RP_DISPATCH" style="stroke:#181818;stroke-width:1.0;"/><polygon fill="#181818" points="198.57,766.1669,206.043,759.7517,200.7141,761.6499,198.8159,756.3211,198.57,766.1669" style="stroke:#181818;stroke-width:1.0;"/></g><!--MD5=[332e4a8c777e610392b5cd163df32484]
link RP_KB to RP_DISPATCH--><g id="link_RP_KB_RP_DISPATCH"><path codeLine="24" d="M143.97,377.0669 C146.33,449.6469 151.72,587.9269 161.5,705.2969 C163.02,723.4969 165.16,743.3069 167.28,761.1169 " fill="none" id="RP_KB-to-RP_DISPATCH" style="stroke:#181818;stroke-width:1.0;"/><polygon fill="#181818" points="167.87,766.0769,170.7596,756.6614,167.2692,761.1131,162.8175,757.6227,167.87,766.0769" style="stroke:#181818;stroke-width:1.0;"/></g><!--MD5=[042bcb2186f94c2ce4030c47d2e7d559]
link RP_PROBLEM to SRV_PROBLEM_TRIG--><g id="link_RP_PROBLEM_SRV_PROBLEM_TRIG"><path codeLine="29" d="M438.14,325.7969 C503.21,325.7969 584.9,325.7969 617.31,325.7969 " fill="none" id="RP_PROBLEM-to-SRV_PROBLEM_TRIG" style="stroke:#181818;stroke-width:1.0;"/><polygon fill="#181818" points="622.43,325.7969,613.43,321.7969,617.43,325.7969,613.43,329.7969,622.43,325.7969" style="stroke:#181818;stroke-width:1.0;"/><path d="M460.75,272.7969 L460.75,317.7969 L599.75,317.7969 L599.75,282.7969 L589.75,272.7969 L460.75,272.7969 " fill="#FEFFDD" style="stroke:#181818;stroke-width:0.5;"/><path d="M589.75,272.7969 L589.75,282.7969 L599.75,282.7969 L589.75,272.7969 " fill="#FEFFDD" style="stroke:#181818;stroke-width:0.5;"/><text fill="#000000" font-family="sans-serif" font-size="13" lengthAdjust="spacing" textLength="98" x="476.75" y="299.8638">std_srvs/Empty</text><text fill="#000000" font-family="sans-serif" font-size="13" lengthAdjust="spacing" textLength="19" x="455.8842" y="349.1132">srv</text></g><!--MD5=[94ff5d8660434708004e192835d915f0]
link RP_PLAN to SRV_PLAN_TRIG--><g id="link_RP_PLAN_SRV_PLAN_TRIG"><path codeLine="33" d="M420.24,489.7969 C485.47,489.7969 567.01,489.7969 599.34,489.7969 " fill="none" id="RP_PLAN-to-SRV_PLAN_TRIG" style="stroke:#181818;stroke-width:1.0;"/><polygon fill="#181818" points="604.45,489.7969,595.45,485.7969,599.45,489.7969,595.45,493.7969,604.45,489.7969" style="stroke:#181818;stroke-width:1.0;"/><path d="M442.75,436.7969 L442.75,481.7969 L581.75,481.7969 L581.75,446.7969 L571.75,436.7969 L442.75,436.7969 " fill="#FEFFDD" style="stroke:#181818;stroke-width:0.5;"/><path d="M571.75,436.7969 L571.75,446.7969 L581.75,446.7969 L571.75,436.7969 " fill="#FEFFDD" style="stroke:#181818;stroke-width:0.5;"/><text fill="#000000" font-family="sans-serif" font-size="13" lengthAdjust="spacing" textLength="98" x="458.75" y="463.8638">std_srvs/Empty</text><text fill="#000000" font-family="sans-serif" font-size="13" lengthAdjust="spacing" textLength="19" x="438.0616" y="513.1132">srv</text></g><!--MD5=[fa469de3091ddaf27c9334aa035b13f1]
link RP_PARSE to SRV_PARSE_TRIG--><g id="link_RP_PARSE_SRV_PARSE_TRIG"><path codeLine="37" d="M323.83,653.7969 C385.79,653.7969 470.09,653.7969 503.26,653.7969 " fill="none" id="RP_PARSE-to-SRV_PARSE_TRIG" style="stroke:#181818;stroke-width:1.0;"/><polygon fill="#181818" points="508.49,653.7969,499.49,649.7969,503.49,653.7969,499.49,657.7969,508.49,653.7969" style="stroke:#181818;stroke-width:1.0;"/><path d="M346.5,600.7969 L346.5,645.7969 L485.5,645.7969 L485.5,610.7969 L475.5,600.7969 L346.5,600.7969 " fill="#FEFFDD" style="stroke:#181818;stroke-width:0.5;"/><path d="M475.5,600.7969 L475.5,610.7969 L485.5,610.7969 L475.5,600.7969 " fill="#FEFFDD" style="stroke:#181818;stroke-width:0.5;"/><text fill="#000000" font-family="sans-serif" font-size="13" lengthAdjust="spacing" textLength="98" x="362.5" y="627.8638">std_srvs/Empty</text><text fill="#000000" font-family="sans-serif" font-size="13" lengthAdjust="spacing" textLength="19" x="341.4347" y="677.3353">srv</text></g><!--MD5=[3ee4f1142f995a4b8a25882a6387155a]
link RP_DISPATCH to SRV_DISPATCH_TRIG--><g id="link_RP_DISPATCH_SRV_DISPATCH_TRIG"><path codeLine="41" d="M258.76,817.7969 C366.68,817.7969 545.95,817.7969 597.34,817.7969 " fill="none" id="RP_DISPATCH-to-SRV_DISPATCH_TRIG" style="stroke:#181818;stroke-width:1.0;"/><polygon fill="#181818" points="602.44,817.7969,593.44,813.7969,597.44,817.7969,593.44,821.7969,602.44,817.7969" style="stroke:#181818;stroke-width:1.0;"/><path d="M281.5,764.7969 L281.5,809.7969 L579.5,809.7969 L579.5,774.7969 L569.5,764.7969 L281.5,764.7969 " fill="#FEFFDD" style="stroke:#181818;stroke-width:0.5;"/><path d="M569.5,764.7969 L569.5,774.7969 L579.5,774.7969 L569.5,764.7969 " fill="#FEFFDD" style="stroke:#181818;stroke-width:0.5;"/><text fill="#000000" font-family="sans-serif" font-size="13" lengthAdjust="spacing" textLength="257" x="297.5" y="791.8638">rosplan_dispatch_msgs/DispatchService</text><text fill="#000000" font-family="sans-serif" font-size="13" lengthAdjust="spacing" textLength="19" x="276.3799" y="841.1687">srv</text></g><!--MD5=[1461fc5e741f88037c2ec27820709d3e]
link PROBLEM to RP_KB--><g id="link_PROBLEM_RP_KB"><path codeLine="45" d="M200.21,172.3869 C188.86,202.3669 174.73,239.6769 163.29,269.8769 " fill="none" id="PROBLEM-to-RP_KB" style="stroke:#181818;stroke-width:1.0;"/><polygon fill="#181818" points="161.48,274.6669,168.4112,267.6699,163.2528,269.9917,160.931,264.8333,161.48,274.6669" style="stroke:#181818;stroke-width:1.0;"/></g><!--MD5=[943de669c087ce16ba7f20ddf1e4c96a]
link DOMAIN to RP_KB--><g id="link_DOMAIN_RP_KB"><path codeLine="46" d="M85.53,172.3869 C96.74,202.3669 110.68,239.6769 121.97,269.8769 " fill="none" id="DOMAIN-to-RP_KB" style="stroke:#181818;stroke-width:1.0;"/><polygon fill="#181818" points="123.76,274.6669,124.3452,264.8354,122.0044,269.9852,116.8546,267.6444,123.76,274.6669" style="stroke:#181818;stroke-width:1.0;"/></g><!--MD5=[4f7f08f218804378ba6c1ba2b456cc15]
@startuml

''' INFOS
title ROSPlan main pipeline
skinparam Padding 10
allow_mixing


''' COMPONENTS
file "robolcuedo\nproblem" <<PDDL>> as PROBLEM
file "robolcuedo\ndomain" <<PDDL>> as DOMAIN

package "ROSPlan"{
  database "Knowledge Base" <<ROSPlan>> as RP_KB
  component "Problem Interface" <<ROSPlan>> as RP_PROBLEM
  component "Planning Interface" <<ROSPlan>> as RP_PLAN
  component "Plan Parsing" <<ROSPlan>> as RP_PARSE
  component "Plan Dispatcher" <<ROSPlan>> as RP_DISPATCH
  
  RP_KB -right-> RP_PROBLEM
  RP_PROBLEM - -> RP_PLAN
  RP_PLAN - -> RP_PARSE
  RP_KB - -> RP_PARSE
  RP_PARSE - -> RP_DISPATCH
  RP_KB - -> RP_DISPATCH
}

''' INTERFACES
() "/rosplan_problem_interface/problem_generation_server" as SRV_PROBLEM_TRIG
RP_PROBLEM "srv" -right-> SRV_PROBLEM_TRIG
note on link : std_srvs/Empty

() "/rosplan_planner_interface/planning_server" as SRV_PLAN_TRIG
RP_PLAN "srv" -right-> SRV_PLAN_TRIG
note on link : std_srvs/Empty

() "/rosplan_parsing_interface/parse_plan" as SRV_PARSE_TRIG
RP_PARSE "srv" -right-> SRV_PARSE_TRIG
note on link : std_srvs/Empty

() "/rosplan_plan_dispatcher/dispatch_plan" as SRV_DISPATCH_TRIG
RP_DISPATCH "srv" -right-> SRV_DISPATCH_TRIG
note on link : rosplan_dispatch_msgs/DispatchService

''' CONNECTIONS
RP_KB <-up- PROBLEM
RP_KB <-up- DOMAIN

@enduml

@startuml

title ROSPlan main pipeline
skinparam Padding 10
allow_mixing


file "robolcuedo\nproblem" <<PDDL>> as PROBLEM
file "robolcuedo\ndomain" <<PDDL>> as DOMAIN

package "ROSPlan"{
  database "Knowledge Base" <<ROSPlan>> as RP_KB
  component "Problem Interface" <<ROSPlan>> as RP_PROBLEM
  component "Planning Interface" <<ROSPlan>> as RP_PLAN
  component "Plan Parsing" <<ROSPlan>> as RP_PARSE
  component "Plan Dispatcher" <<ROSPlan>> as RP_DISPATCH
  
  RP_KB -right-> RP_PROBLEM
  RP_PROBLEM - -> RP_PLAN
  RP_PLAN - -> RP_PARSE
  RP_KB - -> RP_PARSE
  RP_PARSE - -> RP_DISPATCH
  RP_KB - -> RP_DISPATCH
}

() "/rosplan_problem_interface/problem_generation_server" as SRV_PROBLEM_TRIG
RP_PROBLEM "srv" -right-> SRV_PROBLEM_TRIG
note on link : std_srvs/Empty

() "/rosplan_planner_interface/planning_server" as SRV_PLAN_TRIG
RP_PLAN "srv" -right-> SRV_PLAN_TRIG
note on link : std_srvs/Empty

() "/rosplan_parsing_interface/parse_plan" as SRV_PARSE_TRIG
RP_PARSE "srv" -right-> SRV_PARSE_TRIG
note on link : std_srvs/Empty

() "/rosplan_plan_dispatcher/dispatch_plan" as SRV_DISPATCH_TRIG
RP_DISPATCH "srv" -right-> SRV_DISPATCH_TRIG
note on link : rosplan_dispatch_msgs/DispatchService

RP_KB <-up- PROBLEM
RP_KB <-up- DOMAIN

@enduml

PlantUML version 1.2022.6(Tue Jun 21 17:34:49 UTC 2022)
(GPL source distribution)
Java Runtime: Java(TM) SE Runtime Environment
JVM: Java HotSpot(TM) 64-Bit Server VM
Default Encoding: UTF-8
Language: en
Country: US
--></g></svg>