<?xml version="1.0" encoding="UTF-8" standalone="no"?><svg xmlns="http://www.w3.org/2000/svg" xmlns:xlink="http://www.w3.org/1999/xlink" contentStyleType="text/css" height="396.2px" preserveAspectRatio="none" style="width:1554px;height:396px;background:#FFFFFF;" version="1.1" viewBox="0 0 1554 396" width="1554.7px" zoomAndPan="magnify"><defs/><g><rect height="29.6078" style="stroke:#00000000;stroke-width:0.6999999999999998;fill:none;" width="126" x="709.45" y="3.5"/><text fill="#000000" font-family="sans-serif" font-size="9.8" font-weight="bold" lengthAdjust="spacing" textLength="107.8" x="718.55" y="21.6966">robocluedo rosplan</text><!--MD5=[19e394d6c1aed6b811eba8f457712ea3]
cluster robocluedo rosplan--><g id="cluster_robocluedo rosplan"><path d="M5.95,41.5078 L125.65,41.5078 A2.625,2.625 0 0 1 127.4,43.2578 L132.3,68.3156 L1385.65,68.3156 A1.75,1.75 0 0 1 1387.4,70.0656 L1387.4,317.6578 A1.75,1.75 0 0 1 1385.65,319.4078 L5.95,319.4078 A1.75,1.75 0 0 1 4.2,317.6578 L4.2,43.2578 A1.75,1.75 0 0 1 5.95,41.5078 " style="stroke:#000000;stroke-width:1.0499999999999998;fill:none;"/><line style="stroke:#000000;stroke-width:1.0499999999999998;fill:none;" x1="4.2" x2="132.3" y1="68.3156" y2="68.3156"/><text fill="#000000" font-family="sans-serif" font-size="9.8" font-weight="bold" lengthAdjust="spacing" textLength="107.8" x="12.6" y="57.6044">robocluedo rosplan</text></g><!--MD5=[214036b6393beeef3a45e6f3b8ce1c8f]
cluster ROSplan--><g id="cluster_ROSplan"><path d="M151.55,127.6078 L208.95,127.6078 A2.625,2.625 0 0 1 210.7,129.3578 L215.6,154.4156 L932.05,154.4156 A1.75,1.75 0 0 1 933.8,156.1656 L933.8,239.9578 A1.75,1.75 0 0 1 932.05,241.7078 L151.55,241.7078 A1.75,1.75 0 0 1 149.8,239.9578 L149.8,129.3578 A1.75,1.75 0 0 1 151.55,127.6078 " style="stroke:#000000;stroke-width:1.0499999999999998;fill:none;"/><line style="stroke:#000000;stroke-width:1.0499999999999998;fill:none;" x1="149.8" x2="215.6" y1="154.4156" y2="154.4156"/><text fill="#000000" font-family="sans-serif" font-size="9.8" font-weight="bold" lengthAdjust="spacing" textLength="45.5" x="158.2" y="143.7044">ROSplan</text></g><!--MD5=[483b1d07242863b202955b5a6b30a775]
cluster ACTION--><g id="cluster_ACTION"><path d="M974.75,95.4078 L1076.95,95.4078 A2.625,2.625 0 0 1 1078.7,97.1578 L1083.6,122.2156 L1083.95,122.2156 A1.75,1.75 0 0 1 1085.7,123.9656 L1085.7,208.4578 A1.75,1.75 0 0 1 1083.95,210.2078 L974.75,210.2078 A1.75,1.75 0 0 1 973,208.4578 L973,97.1578 A1.75,1.75 0 0 1 974.75,95.4078 " style="stroke:#000000;stroke-width:1.0499999999999998;fill:none;"/><line style="stroke:#000000;stroke-width:1.0499999999999998;fill:none;" x1="973" x2="1083.6" y1="122.2156" y2="122.2156"/><text fill="#000000" font-family="sans-serif" font-size="9.8" font-weight="bold" lengthAdjust="spacing" textLength="90.3" x="981.4" y="111.5044">actions dispatch</text></g><!--MD5=[c32029475a673329c3ad8c466c13ff13]
entity PDDL_DOM--><g id="elem_PDDL_DOM"><path d="M33.6,97.5078 L33.6,142.0234 A1.75,1.75 0 0 0 35.35,143.7734 L92.75,143.7734 A1.75,1.75 0 0 0 94.5,142.0234 L94.5,102.7578 L87.5,95.7578 L35.35,95.7578 A1.75,1.75 0 0 0 33.6,97.5078 " fill="#F1F1F1" style="stroke:#181818;stroke-width:0.3499999999999999;"/><path d="M87.5,95.7578 L87.5,101.0078 A1.75,1.75 0 0 0 89.25,102.7578 L94.5,102.7578 " fill="#F1F1F1" style="stroke:#181818;stroke-width:0.3499999999999999;"/><text fill="#000000" font-family="sans-serif" font-size="9.8" lengthAdjust="spacing" textLength="21" x="46.2" y="117.4544">pddl</text><text fill="#000000" font-family="sans-serif" font-size="9.8" lengthAdjust="spacing" textLength="35.7" x="46.2" y="128.8622">domain</text></g><!--MD5=[032fa86fe1238ac49b7d1f0d93309a4a]
entity PDDL_PROB--><g id="elem_PDDL_PROB"><path d="M31.5,170.3078 L31.5,214.8234 A1.75,1.75 0 0 0 33.25,216.5734 L94.85,216.5734 A1.75,1.75 0 0 0 96.6,214.8234 L96.6,175.5578 L89.6,168.5578 L33.25,168.5578 A1.75,1.75 0 0 0 31.5,170.3078 " fill="#F1F1F1" style="stroke:#181818;stroke-width:0.3499999999999999;"/><path d="M89.6,168.5578 L89.6,173.8078 A1.75,1.75 0 0 0 91.35,175.5578 L96.6,175.5578 " fill="#F1F1F1" style="stroke:#181818;stroke-width:0.3499999999999999;"/><text fill="#000000" font-family="sans-serif" font-size="9.8" lengthAdjust="spacing" textLength="21" x="44.1" y="190.2544">pddl</text><text fill="#000000" font-family="sans-serif" font-size="9.8" lengthAdjust="spacing" textLength="39.9" x="44.1" y="201.6622">problem</text></g><!--MD5=[f538cd5cfea9b9f400fdca51e86c13d1]
entity FEEDBACK--><g id="elem_FEEDBACK"><rect fill="#F1F1F1" height="55.0156" rx="1.75" ry="1.75" style="stroke:#181818;stroke-width:0.3499999999999999;" width="84" x="1127.7" y="148.9578"/><rect fill="#F1F1F1" height="7" style="stroke:#181818;stroke-width:0.3499999999999999;" width="10.5" x="1197.7" y="152.4578"/><rect fill="#F1F1F1" height="1.4" style="stroke:#181818;stroke-width:0.3499999999999999;" width="2.8" x="1196.3" y="153.8578"/><rect fill="#F1F1F1" height="1.4" style="stroke:#181818;stroke-width:0.3499999999999999;" width="2.8" x="1196.3" y="156.6578"/><text fill="#000000" font-family="sans-serif" font-size="9.8" lengthAdjust="spacing" textLength="44.8" x="1143.8" y="177.6544">feedback</text><text fill="#000000" font-family="sans-serif" font-size="9.8" lengthAdjust="spacing" textLength="42.7" x="1143.8" y="189.0622">manager</text></g><!--MD5=[d31e9ee264fe380d83edc82a54b843cf]
entity MANAGER--><g id="elem_MANAGER"><rect fill="#F1F1F1" height="77.6234" rx="1.75" ry="1.75" style="stroke:#181818;stroke-width:0.3499999999999999;" width="122.5" x="1253.7" y="204.2578"/><rect fill="#F1F1F1" height="7" style="stroke:#181818;stroke-width:0.3499999999999999;" width="10.5" x="1362.2" y="207.7578"/><rect fill="#F1F1F1" height="1.4" style="stroke:#181818;stroke-width:0.3499999999999999;" width="2.8" x="1360.8" y="209.1578"/><rect fill="#F1F1F1" height="1.4" style="stroke:#181818;stroke-width:0.3499999999999999;" width="2.8" x="1360.8" y="211.9578"/><text fill="#000000" font-family="sans-serif" font-size="9.8" font-style="italic" lengthAdjust="spacing" textLength="37.8" x="1292.55" y="232.9544">«node»</text><text fill="#000000" font-family="sans-serif" font-size="9.8" lengthAdjust="spacing" textLength="41.3" x="1269.8" y="255.5622">ROSPlan</text><text fill="#000000" font-family="sans-serif" font-size="9.8" lengthAdjust="spacing" textLength="83.3" x="1269.8" y="266.97">pipeline manager</text></g><!--MD5=[db20a57565cba22683396279855de892]
entity IKB--><g id="elem_IKB"><rect fill="#F1F1F1" height="66.2156" rx="1.75" ry="1.75" style="stroke:#181818;stroke-width:0.3499999999999999;" width="97.3" x="15.4" y="241.3578"/><rect fill="#F1F1F1" height="7" style="stroke:#181818;stroke-width:0.3499999999999999;" width="10.5" x="98.7" y="244.8578"/><rect fill="#F1F1F1" height="1.4" style="stroke:#181818;stroke-width:0.3499999999999999;" width="2.8" x="97.3" y="246.2578"/><rect fill="#F1F1F1" height="1.4" style="stroke:#181818;stroke-width:0.3499999999999999;" width="2.8" x="97.3" y="249.0578"/><text fill="#000000" font-family="sans-serif" font-size="9.8" font-style="italic" lengthAdjust="spacing" textLength="37.8" x="41.65" y="270.0544">«node»</text><text fill="#000000" font-family="sans-serif" font-size="9.8" lengthAdjust="spacing" textLength="58.1" x="31.5" y="292.6622">KB interface</text></g><!--MD5=[3287247eb5ef114031405aae8a2c204e]
entity KB--><g id="elem_KB"><path d="M161,171.0078 C161,164.0078 213.5,164.0078 213.5,164.0078 C213.5,164.0078 266,164.0078 266,171.0078 L266,222.5234 C266,229.5234 213.5,229.5234 213.5,229.5234 C213.5,229.5234 161,229.5234 161,222.5234 L161,171.0078 " fill="#F1F1F1" style="stroke:#181818;stroke-width:0.3499999999999999;"/><path d="M161,171.0078 C161,178.0078 213.5,178.0078 213.5,178.0078 C213.5,178.0078 266,178.0078 266,171.0078 " fill="none" style="stroke:#181818;stroke-width:0.3499999999999999;"/><text fill="#000000" font-family="sans-serif" font-size="9.8" font-style="italic" lengthAdjust="spacing" textLength="53.9" x="186.55" y="195.5044">«ROSPlan»</text><text fill="#000000" font-family="sans-serif" font-size="9.8" lengthAdjust="spacing" textLength="79.8" x="173.6" y="218.1122">knowledge base</text></g><!--MD5=[e79c8e6bb3a9323b12a58d750a988a49]
entity PROBLEM--><g id="elem_PROBLEM"><rect fill="#F1F1F1" height="66.2156" rx="1.75" ry="1.75" style="stroke:#181818;stroke-width:0.3499999999999999;" width="123.9" x="314.3" y="163.6578"/><rect fill="#F1F1F1" height="7" style="stroke:#181818;stroke-width:0.3499999999999999;" width="10.5" x="424.2" y="167.1578"/><rect fill="#F1F1F1" height="1.4" style="stroke:#181818;stroke-width:0.3499999999999999;" width="2.8" x="422.8" y="168.5578"/><rect fill="#F1F1F1" height="1.4" style="stroke:#181818;stroke-width:0.3499999999999999;" width="2.8" x="422.8" y="171.3578"/><text fill="#000000" font-family="sans-serif" font-size="9.8" font-style="italic" lengthAdjust="spacing" textLength="53.9" x="345.8" y="192.3544">«ROSPlan»</text><text fill="#000000" font-family="sans-serif" font-size="9.8" lengthAdjust="spacing" textLength="84.7" x="330.4" y="214.9622">problem interface</text></g><!--MD5=[02ea8b2314e0d0d23d286ba4611632a1]
entity PLAN--><g id="elem_PLAN"><rect fill="#F1F1F1" height="66.2156" rx="1.75" ry="1.75" style="stroke:#181818;stroke-width:0.3499999999999999;" width="125.3" x="480.2" y="163.6578"/><rect fill="#F1F1F1" height="7" style="stroke:#181818;stroke-width:0.3499999999999999;" width="10.5" x="591.5" y="167.1578"/><rect fill="#F1F1F1" height="1.4" style="stroke:#181818;stroke-width:0.3499999999999999;" width="2.8" x="590.1" y="168.5578"/><rect fill="#F1F1F1" height="1.4" style="stroke:#181818;stroke-width:0.3499999999999999;" width="2.8" x="590.1" y="171.3578"/><text fill="#000000" font-family="sans-serif" font-size="9.8" font-style="italic" lengthAdjust="spacing" textLength="53.9" x="512.4" y="192.3544">«ROSPlan»</text><text fill="#000000" font-family="sans-serif" font-size="9.8" lengthAdjust="spacing" textLength="86.1" x="496.3" y="214.9622">planning interface</text></g><!--MD5=[014bc5ca5401618d6f7935a2c849fb3a]
entity PARSE--><g id="elem_PARSE"><rect fill="#F1F1F1" height="66.2156" rx="1.75" ry="1.75" style="stroke:#181818;stroke-width:0.3499999999999999;" width="119.7" x="647.5" y="163.6578"/><rect fill="#F1F1F1" height="7" style="stroke:#181818;stroke-width:0.3499999999999999;" width="10.5" x="753.2" y="167.1578"/><rect fill="#F1F1F1" height="1.4" style="stroke:#181818;stroke-width:0.3499999999999999;" width="2.8" x="751.8" y="168.5578"/><rect fill="#F1F1F1" height="1.4" style="stroke:#181818;stroke-width:0.3499999999999999;" width="2.8" x="751.8" y="171.3578"/><text fill="#000000" font-family="sans-serif" font-size="9.8" font-style="italic" lengthAdjust="spacing" textLength="53.9" x="676.9" y="192.3544">«ROSPlan»</text><text fill="#000000" font-family="sans-serif" font-size="9.8" lengthAdjust="spacing" textLength="80.5" x="663.6" y="214.9622">parsing interface</text></g><!--MD5=[82817458b664c54c40293f09e7dd8da8]
entity DISPATCH--><g id="elem_DISPATCH"><rect fill="#F1F1F1" height="66.2156" rx="1.75" ry="1.75" style="stroke:#181818;stroke-width:0.3499999999999999;" width="113.4" x="809.2" y="163.6578"/><rect fill="#F1F1F1" height="7" style="stroke:#181818;stroke-width:0.3499999999999999;" width="10.5" x="908.6" y="167.1578"/><rect fill="#F1F1F1" height="1.4" style="stroke:#181818;stroke-width:0.3499999999999999;" width="2.8" x="907.2" y="168.5578"/><rect fill="#F1F1F1" height="1.4" style="stroke:#181818;stroke-width:0.3499999999999999;" width="2.8" x="907.2" y="171.3578"/><text fill="#000000" font-family="sans-serif" font-size="9.8" font-style="italic" lengthAdjust="spacing" textLength="53.9" x="835.45" y="192.3544">«ROSPlan»</text><text fill="#000000" font-family="sans-serif" font-size="9.8" lengthAdjust="spacing" textLength="74.2" x="825.3" y="214.9622">plan dispatcher</text></g><!--MD5=[66f9f88c9fb598cb139af963a53d9228]
entity actions--><g id="elem_actions"><polygon fill="#F1F1F1" points="991.9,143.7078,998.9,136.7078,1066.1,136.7078,1066.1,173.3156,1059.1,180.3156,991.9,180.3156,991.9,143.7078" style="stroke:#181818;stroke-width:0.3499999999999999;"/><line style="stroke:#181818;stroke-width:0.3499999999999999;" x1="1059.1" x2="1066.1" y1="143.7078" y2="136.7078"/><line style="stroke:#181818;stroke-width:0.3499999999999999;" x1="991.9" x2="1059.1" y1="143.7078" y2="143.7078"/><line style="stroke:#181818;stroke-width:0.3499999999999999;" x1="1059.1" x2="1059.1" y1="143.7078" y2="180.3156"/><text fill="#000000" font-family="sans-serif" font-size="9.8" lengthAdjust="spacing" textLength="35" x="1008" y="165.4044">actions</text></g><!--MD5=[344489d3fd119170a3238c0c85f4da92]
entity SRV_MANAGER--><g id="elem_SRV_MANAGER"><ellipse cx="1489.6" cy="243.1078" fill="#F1F1F1" rx="5.6" ry="5.6" style="stroke:#181818;stroke-width:0.3499999999999999;"/><text fill="#000000" font-family="sans-serif" font-size="9.8" lengthAdjust="spacing" textLength="120.4" x="1429.4" y="269.7044">service pipeline manager</text></g><!--MD5=[5d98fb7919dd88807c949731bc3424a6]
entity SRV_IKB--><g id="elem_SRV_IKB"><ellipse cx="213.5" cy="364.2078" fill="#F1F1F1" rx="5.6" ry="5.6" style="stroke:#181818;stroke-width:0.3499999999999999;"/><text fill="#000000" font-family="sans-serif" font-size="9.8" lengthAdjust="spacing" textLength="95.2" x="165.9" y="390.8044">KB interface service</text></g><!--MD5=[bb9595c6d383560a9747c5ee557e7288]
link KB to PROBLEM--><g id="link_KB_PROBLEM"><path d="M266.14,196.9078 C281.435,196.9078 298.312,196.9078 314.139,196.9078 " fill="none" id="KB-PROBLEM" style="stroke:#181818;stroke-width:0.6999999999999998;"/></g><!--MD5=[a5428df31876122ec0a957eaa7670c51]
link PROBLEM to PLAN--><g id="link_PROBLEM_PLAN"><path d="M438.228,196.9078 C451.913,196.9078 466.431,196.9078 480.144,196.9078 " fill="none" id="PROBLEM-PLAN" style="stroke:#181818;stroke-width:0.6999999999999998;"/></g><!--MD5=[aa8815982f1a66de47d205f89c42f108]
link PLAN to PARSE--><g id="link_PLAN_PARSE"><path d="M605.675,196.9078 C619.36,196.9078 633.815,196.9078 647.388,196.9078 " fill="none" id="PLAN-PARSE" style="stroke:#181818;stroke-width:0.6999999999999998;"/></g><!--MD5=[38226559f342952f54409100cdf2b7fa]
link PARSE to DISPATCH--><g id="link_PARSE_DISPATCH"><path d="M767.235,196.9078 C780.983,196.9078 795.578,196.9078 809.179,196.9078 " fill="none" id="PARSE-DISPATCH" style="stroke:#181818;stroke-width:0.6999999999999998;"/></g><!--MD5=[80f77982fa39c7cbdf9f1b50cbac05b0]
link DISPATCH to ACTION--><g id="link_DISPATCH_ACTION"><path d="M922.698,199.5818 C934.192,200.1278 946.4241,200.7092 958.3349,201.2757 C961.3126,201.4173 964.2702,201.558 967.1912,201.6969 C968.6517,201.7664 970.1031,201.8355 971.5432,201.904 C971.9032,201.9211 972.2625,201.9382 972.6211,201.9553 " fill="none" id="DISPATCH-ACTION" style="stroke:#181818;stroke-width:0.6999999999999998;"/></g><!--MD5=[62991ef91f99bee3fb9d9e2d4fe55ada]
link PDDL_DOM to KB--><g id="link_PDDL_DOM_KB"><path d="M94.535,135.3988 C113.533,145.2758 138.67,158.3518 160.888,169.9088 " fill="none" id="PDDL_DOM-KB" style="stroke:#181818;stroke-width:0.6999999999999998;"/></g><!--MD5=[717701e14dda4d2e6deac24fc3b4f732]
link PDDL_PROB to KB--><g id="link_PDDL_PROB_KB"><path d="M96.691,193.6108 C115.395,194.1428 139.461,194.8288 160.832,195.4308 " fill="none" id="PDDL_PROB-KB" style="stroke:#181818;stroke-width:0.6999999999999998;"/></g><!--MD5=[40b9ac208f37f07ab6d18a7540c8d111]
link IKB to KB--><g id="link_IKB_KB"><path d="M112.833,249.1278 C123.172,243.6678 134.043,237.9348 144.2,232.6078 C149.611,229.7728 155.267,226.8118 160.902,223.8718 " fill="none" id="IKB-KB" style="stroke:#181818;stroke-width:0.6999999999999998;"/></g><!--MD5=[16d15e542ce838403090355992ed061e]
link ACTION to FEEDBACK--><g id="link_ACTION_FEEDBACK"><path d="M1085.8057,193.5287 C1089.5607,192.7795 1093.2854,192.0341 1096.9,191.3078 C1106.854,189.3058 1117.585,187.1288 1127.637,185.0848 " fill="none" id="ACTION-FEEDBACK" style="stroke:#181818;stroke-width:0.6999999999999998;"/></g><!--MD5=[510197f3a92de441408b978bc9ffd316]
link FEEDBACK to MANAGER--><g id="link_FEEDBACK_MANAGER"><path d="M1211.812,195.7528 C1224.846,201.7798 1239.518,208.5628 1253.595,215.0658 " fill="none" id="FEEDBACK-MANAGER" style="stroke:#181818;stroke-width:0.6999999999999998;"/></g><!--MD5=[1731a2b834dd093c2be5fedcecd3ae43]
link PROBLEM to MANAGER--><g id="link_PROBLEM_MANAGER"><path d="M438.263,226.8468 C451.843,232.6498 466.326,238.2148 480.2,242.4078 C577.983,271.9338 604.506,281.6078 706.65,281.6078 C706.65,281.6078 706.65,281.6078 1029.7,281.6078 C1110.83,281.6078 1131.55,280.1868 1211.7,267.6078 C1225.35,265.4658 1239.875,262.4558 1253.56,259.2778 " fill="none" id="PROBLEM-MANAGER" style="stroke:#181818;stroke-width:0.6999999999999998;"/></g><!--MD5=[bfa20aa4d3564532537a8b8a0c8c78a5]
link PLAN to MANAGER--><g id="link_PLAN_MANAGER"><path d="M597.373,163.6018 C659.505,128.3988 765.912,77.9078 865.2,77.9078 C865.2,77.9078 865.2,77.9078 1029.7,77.9078 C1114.708,77.9078 1139.593,91.6838 1211.7,136.7078 C1240.099,154.4388 1266.195,181.7458 1284.955,204.2508 " fill="none" id="PLAN-MANAGER" style="stroke:#181818;stroke-width:0.6999999999999998;"/></g><!--MD5=[9d26c7df7500e0a5c4d3642686c35ae3]
link PARSE to MANAGER--><g id="link_PARSE_MANAGER"><path d="M767.347,228.5058 C780.752,234.2458 795.179,239.3698 809.2,242.4078 C966.441,276.5048 1157.758,262.0848 1253.504,251.1788 " fill="none" id="PARSE-MANAGER" style="stroke:#181818;stroke-width:0.6999999999999998;"/></g><!--MD5=[44304d84a77b9c12313e580eb8f02140]
link DISPATCH to MANAGER--><g id="link_DISPATCH_MANAGER"><path d="M922.796,209.2138 C935.571,211.6918 949.116,214.0648 961.8,215.8078 C1063.643,229.8078 1183.098,237.1788 1253.525,240.5948 " fill="none" id="DISPATCH-MANAGER" style="stroke:#181818;stroke-width:0.6999999999999998;"/></g><!--MD5=[eae5336970671b01d545cadf53e4732d]
link MANAGER to SRV_MANAGER--><g id="link_MANAGER_SRV_MANAGER"><path d="M1376.242,243.1078 C1414.504,243.1078 1460.235,243.1078 1479.555,243.1078 " fill="none" id="MANAGER-to-SRV_MANAGER" style="stroke:#181818;stroke-width:0.6999999999999998;"/><polygon fill="#181818" points="1483.265,243.1078,1476.965,240.3078,1479.765,243.1078,1476.965,245.9078,1483.265,243.1078" style="stroke:#181818;stroke-width:0.6999999999999998;"/></g><!--MD5=[1c56fd08e5c63a447014e9c0211f3a9c]
link IKB to SRV_IKB--><g id="link_IKB_SRV_IKB"><path d="M112.819,303.6998 C145.726,323.6148 186.466,348.2688 204.05,358.9088 " fill="none" id="IKB-to-SRV_IKB" style="stroke:#181818;stroke-width:0.6999999999999998;"/><polygon fill="#181818" points="207.053,360.7288,203.1136,355.071,204.0589,358.9163,200.2136,359.8616,207.053,360.7288" style="stroke:#181818;stroke-width:0.6999999999999998;"/></g><!--MD5=[70cb6db9676ea7915e7fb1731dfc2f89]
link IKB to MANAGER--><g id="link_IKB_MANAGER"><path d="M116.389,283.4418 C177.919,293.1858 283.913,307.5078 375.55,307.5078 C375.55,307.5078 375.55,307.5078 1029.7,307.5078 C1111.236,307.5078 1132.789,304.9388 1211.7,284.4078 C1224.349,281.1178 1237.523,276.6518 1250.053,271.8778 " fill="none" id="IKB-MANAGER" style="stroke:#181818;stroke-width:0.6999999999999998;"/><polygon fill="#181818" points="1253.567,270.5198,1246.6812,270.1793,1250.3024,271.7816,1248.7001,275.4028,1253.567,270.5198" style="stroke:#181818;stroke-width:0.6999999999999998;"/><polygon fill="#181818" points="112.77,282.8678,118.5506,286.6247,116.2264,283.4188,119.4322,281.0946,112.77,282.8678" style="stroke:#181818;stroke-width:0.6999999999999998;"/></g><!--MD5=[d0eb409afd2a42dfe4842f4e8a87d8a1]
@startuml
scale 0.7

''' DIAGRAM INFOS
title "robocluedo rosplan"
skinparam Padding 8
left to right direction


''' DIAGRAM ELEMENTS
package "robocluedo rosplan" {

file "pddl\ndomain" as PDDL_DOM
file "pddl\nproblem" as PDDL_PROB

package "ROSplan" {
	database "knowledge base" <<ROSPlan>> as KB
	[problem interface] <<ROSPlan>> as PROBLEM
	[planning interface] <<ROSPlan>> as PLAN
	[parsing interface] <<ROSPlan>> as PARSE
	[plan dispatcher] <<ROSPlan>> as DISPATCH

	KB - - PROBLEM
	PROBLEM - - PLAN
	PLAN - - PARSE
	' KB - - PARSE
	PARSE - - DISPATCH
	' KB - - DISPATCH
}

package "actions dispatch" as ACTION {
	node actions
}

[feedback\nmanager] as FEEDBACK
[ROSPlan\npipeline manager] <<node>> as MANAGER
[KB interface] <<node>> as IKB

DISPATCH - - ACTION
PDDL_DOM - - KB
PDDL_PROB - - KB
IKB - - KB

ACTION - - FEEDBACK
FEEDBACK - - MANAGER

PROBLEM -right- MANAGER
PLAN -right- MANAGER
PARSE -right- MANAGER
DISPATCH -right- MANAGER
}

() "service pipeline manager" as SRV_MANAGER
MANAGER - -> SRV_MANAGER
() "KB interface service" as SRV_IKB
IKB - -> SRV_IKB

IKB <- -> MANAGER
@enduml

@startuml
scale 0.7

title "robocluedo rosplan"
skinparam Padding 8
left to right direction


package "robocluedo rosplan" {

file "pddl\ndomain" as PDDL_DOM
file "pddl\nproblem" as PDDL_PROB

package "ROSplan" {
	database "knowledge base" <<ROSPlan>> as KB
	[problem interface] <<ROSPlan>> as PROBLEM
	[planning interface] <<ROSPlan>> as PLAN
	[parsing interface] <<ROSPlan>> as PARSE
	[plan dispatcher] <<ROSPlan>> as DISPATCH

	KB - - PROBLEM
	PROBLEM - - PLAN
	PLAN - - PARSE
	PARSE - - DISPATCH
}

package "actions dispatch" as ACTION {
	node actions
}

[feedback\nmanager] as FEEDBACK
[ROSPlan\npipeline manager] <<node>> as MANAGER
[KB interface] <<node>> as IKB

DISPATCH - - ACTION
PDDL_DOM - - KB
PDDL_PROB - - KB
IKB - - KB

ACTION - - FEEDBACK
FEEDBACK - - MANAGER

PROBLEM -right- MANAGER
PLAN -right- MANAGER
PARSE -right- MANAGER
DISPATCH -right- MANAGER
}

() "service pipeline manager" as SRV_MANAGER
MANAGER - -> SRV_MANAGER
() "KB interface service" as SRV_IKB
IKB - -> SRV_IKB

IKB <- -> MANAGER
@enduml

PlantUML version 1.2022.6(Tue Jun 21 17:34:49 UTC 2022)
(GPL source distribution)
Java Runtime: Java(TM) SE Runtime Environment
JVM: Java HotSpot(TM) 64-Bit Server VM
Default Encoding: UTF-8
Language: en
Country: US
--></g></svg>