<?xml version="1.0" encoding="UTF-8" standalone="no"?><svg xmlns="http://www.w3.org/2000/svg" xmlns:xlink="http://www.w3.org/1999/xlink" contentStyleType="text/css" height="630px" preserveAspectRatio="none" style="width:837px;height:630px;background:#FFFFFF;" version="1.1" viewBox="0 0 837 630" width="837px" zoomAndPan="magnify"><defs/><g><rect height="42.2969" style="stroke:#00000000;stroke-width:1.0;fill:none;" width="310" x="256.5" y="5"/><text fill="#000000" font-family="sans-serif" font-size="14" font-weight="bold" lengthAdjust="spacing" textLength="284" x="269.5" y="30.9951">robocluedo_armor project structure</text><!--MD5=[84ada0b0ae3db93eca028ef09b66d02a]
cluster ROSPlan--><g id="cluster_ROSPlan"><path d="M193.5,59.2969 L275.5,59.2969 A3.75,3.75 0 0 1 278,61.7969 L285,97.5938 L370.5,97.5938 A2.5,2.5 0 0 1 373,100.0938 L373,217.7969 A2.5,2.5 0 0 1 370.5,220.2969 L193.5,220.2969 A2.5,2.5 0 0 1 191,217.7969 L191,61.7969 A2.5,2.5 0 0 1 193.5,59.2969 " style="stroke:#000000;stroke-width:1.5;fill:none;"/><line style="stroke:#000000;stroke-width:1.5;fill:none;" x1="191" x2="285" y1="97.5938" y2="97.5938"/><text fill="#000000" font-family="sans-serif" font-size="14" font-weight="bold" lengthAdjust="spacing" textLength="65" x="203" y="82.292">ROSPlan</text></g><!--MD5=[3287247eb5ef114031405aae8a2c204e]
entity KB--><g id="elem_KB"><path d="M207,120.2969 C207,110.2969 282,110.2969 282,110.2969 C282,110.2969 357,110.2969 357,120.2969 L357,193.8906 C357,203.8906 282,203.8906 282,203.8906 C282,203.8906 207,203.8906 207,193.8906 L207,120.2969 " fill="#F1F1F1" style="stroke:#181818;stroke-width:0.5;"/><path d="M207,120.2969 C207,130.2969 282,130.2969 282,130.2969 C282,130.2969 357,130.2969 357,120.2969 " fill="none" style="stroke:#181818;stroke-width:0.5;"/><text fill="#000000" font-family="sans-serif" font-size="14" font-style="italic" lengthAdjust="spacing" textLength="77" x="243.5" y="155.292">«ROSPlan»</text><text fill="#000000" font-family="sans-serif" font-size="14" lengthAdjust="spacing" textLength="114" x="225" y="187.5889">knowledge base</text></g><!--MD5=[bd16466989957d0d94b613fbf0f829dc]
class TOOLS--><g id="elem_TOOLS"><rect codeLine="12" fill="#F1F1F1" height="155.1875" id="TOOLS" rx="2.5" ry="2.5" style="stroke:#181818;stroke-width:0.5;" width="543" x="9.5" y="468.2969"/><ellipse cx="239.75" cy="489.4453" fill="#ADD1B2" rx="11" ry="11" style="stroke:#181818;stroke-width:1.0;"/><path d="M242.7188,495.0859 Q242.1406,495.3828 241.5,495.5313 Q240.8594,495.6797 240.1563,495.6797 Q237.6563,495.6797 236.3359,494.0313 Q235.0156,492.3828 235.0156,489.2578 Q235.0156,486.1328 236.3359,484.4766 Q237.6563,482.8203 240.1563,482.8203 Q240.8594,482.8203 241.5078,482.9766 Q242.1563,483.1328 242.7188,483.4297 L242.7188,486.1484 Q242.0938,485.5703 241.5,485.2969 Q240.9063,485.0234 240.2813,485.0234 Q238.9375,485.0234 238.25,486.0938 Q237.5625,487.1641 237.5625,489.2578 Q237.5625,491.3516 238.25,492.4219 Q238.9375,493.4922 240.2813,493.4922 Q240.9063,493.4922 241.5,493.2188 Q242.0938,492.9453 242.7188,492.3672 L242.7188,495.0859 Z " fill="#000000"/><text fill="#000000" font-family="sans-serif" font-size="14" lengthAdjust="spacing" textLength="58" x="268.25" y="494.292">kb_tools</text><line style="stroke:#181818;stroke-width:0.5;" x1="10.5" x2="551.5" y1="510.5938" y2="510.5938"/><line style="stroke:#181818;stroke-width:0.5;" x1="10.5" x2="551.5" y1="518.5938" y2="518.5938"/><ellipse cx="20.5" cy="529.5938" fill="#84BE84" rx="3" ry="3" style="stroke:#038048;stroke-width:1.0;"/><text fill="#000000" font-family="sans-serif" font-size="14" lengthAdjust="spacing" textLength="395" x="37.5" y="543.5889">get_predicate(string pname, map&lt;keyvalue&gt; args) : bool</text><ellipse cx="20.5" cy="561.8906" fill="#84BE84" rx="3" ry="3" style="stroke:#038048;stroke-width:1.0;"/><text fill="#000000" font-family="sans-serif" font-size="14" lengthAdjust="spacing" textLength="501" x="37.5" y="575.8857">set_predicate(string pname, map&lt;keyvalue&gt; args, bool newvalue) : bool</text><ellipse cx="20.5" cy="594.1875" fill="#84BE84" rx="3" ry="3" style="stroke:#038048;stroke-width:1.0;"/><text fill="#000000" font-family="sans-serif" font-size="14" lengthAdjust="spacing" textLength="465" x="37.5" y="608.1826">set_goal(string pname, map&lt;keyvalue&gt; args, bool newvalue) : bool</text></g><!--MD5=[c601e9962b697d328cec0a57ddc55295]
entity SRV_KB_UPDATE--><g id="elem_SRV_KB_UPDATE"><ellipse cx="123" cy="362.2969" fill="#F1F1F1" rx="8" ry="8" style="stroke:#181818;stroke-width:0.5;"/><text fill="#000000" font-family="sans-serif" font-size="14" lengthAdjust="spacing" textLength="234" x="6" y="400.292">/rosplan_knowledge_base/update</text></g><!--MD5=[8cd373876d6b622e4e1028111b915192]
entity SRV_QUERY--><g id="elem_SRV_QUERY"><ellipse cx="465" cy="362.2969" fill="#F1F1F1" rx="8" ry="8" style="stroke:#181818;stroke-width:0.5;"/><text fill="#000000" font-family="sans-serif" font-size="14" lengthAdjust="spacing" textLength="266" x="332" y="400.292">/rosplan_knowledge_base/query_state</text></g><!--MD5=[42433cea24859ba38bfb9dd4ddfc1684]
link KB to SRV_KB_UPDATE--><g id="link_KB_SRV_KB_UPDATE"><path codeLine="28" d="M206.91,164.8169 C159.43,173.2769 101.47,192.5469 71,236.2969 C44.97,273.6769 88.15,326.0869 110.67,349.3569 " fill="none" id="KB-to-SRV_KB_UPDATE" style="stroke:#181818;stroke-width:1.0;"/><polygon fill="#181818" points="114.35,353.0969,110.8702,343.8832,110.836,349.54,105.1792,349.5057,114.35,353.0969" style="stroke:#181818;stroke-width:1.0;"/><path d="M76,241.2969 L76,282.2969 L442,282.2969 L442,251.2969 L432,241.2969 L76,241.2969 " fill="#FEFFDD" style="stroke:#181818;stroke-width:0.5;"/><path d="M432,241.2969 L432,251.2969 L442,251.2969 L432,241.2969 " fill="#FEFFDD" style="stroke:#181818;stroke-width:0.5;"/><text fill="#000000" font-family="sans-serif" font-size="13" lengthAdjust="spacing" textLength="329" x="90" y="266.3638">rosplan_knowledge_msgs/KnowledgeUpdateService</text><text fill="#000000" font-family="sans-serif" font-size="13" lengthAdjust="spacing" textLength="19" x="171.953" y="153.2212">srv</text></g><!--MD5=[32d27da4a47776cc5c9d4221a7762b42]
link SRV_KB_UPDATE to TOOLS--><g id="link_SRV_KB_UPDATE_TOOLS"><path codeLine="30" d="M130.2,371.5669 C144.64,388.1569 178.53,427.0769 210.52,463.8369 " fill="none" id="SRV_KB_UPDATE-to-TOOLS" style="stroke:#181818;stroke-width:1.0;"/><polygon fill="#181818" points="214.01,467.8369,211.114,458.4234,210.7256,464.0669,205.0821,463.6785,214.01,467.8369" style="stroke:#181818;stroke-width:1.0;"/><text fill="#000000" font-family="sans-serif" font-size="13" lengthAdjust="spacing" textLength="10" x="189.3858" y="449.1618">cl</text></g><!--MD5=[e9e1beea8ed5832efcb346ac2c86a2c0]
link KB to SRV_QUERY--><g id="link_KB_SRV_QUERY"><path codeLine="33" d="M357.37,175.0469 C391.36,186.5469 428.79,205.5069 451,236.2969 C475.47,270.2169 471.16,323.3369 467.44,347.9569 " fill="none" id="KB-to-SRV_QUERY" style="stroke:#181818;stroke-width:1.0;"/><polygon fill="#181818" points="466.62,353.0269,472.0066,344.7816,467.4189,348.0911,464.1093,343.5034,466.62,353.0269" style="stroke:#181818;stroke-width:1.0;"/><path d="M473,241.2969 L473,282.2969 L830,282.2969 L830,251.2969 L820,241.2969 L473,241.2969 " fill="#FEFFDD" style="stroke:#181818;stroke-width:0.5;"/><path d="M820,241.2969 L820,251.2969 L830,251.2969 L820,241.2969 " fill="#FEFFDD" style="stroke:#181818;stroke-width:0.5;"/><text fill="#000000" font-family="sans-serif" font-size="13" lengthAdjust="spacing" textLength="320" x="487" y="266.3638">rosplan_knowledge_msgs/KnowledgeQueryService</text><text fill="#000000" font-family="sans-serif" font-size="13" lengthAdjust="spacing" textLength="19" x="373.0608" y="164.3224">srv</text></g><!--MD5=[e374f437ca242ad3caa1c9fce041d6a1]
link SRV_QUERY to TOOLS--><g id="link_SRV_QUERY_TOOLS"><path codeLine="35" d="M456.62,371.5669 C439.73,388.2269 400.02,427.3969 362.63,464.2769 " fill="none" id="SRV_QUERY-to-TOOLS" style="stroke:#181818;stroke-width:1.0;"/><polygon fill="#181818" points="359.02,467.8369,368.2407,464.3759,362.584,464.3301,362.6298,458.6734,359.02,467.8369" style="stroke:#181818;stroke-width:1.0;"/><text fill="#000000" font-family="sans-serif" font-size="13" lengthAdjust="spacing" textLength="10" x="346.4045" y="449.1618">cl</text></g><!--MD5=[8506c841a3ce43c0a67a16360dd0ae31]
@startuml

''' INFOS
title robocluedo_armor project structure
skinparam Padding 8
allow_mixing


''' COMPONENTS
package "ROSPlan" {
database "knowledge base" <<ROSPlan>> as KB
}
class "kb_tools" as TOOLS {
+ get_predicate(string pname, map<keyvalue> args) : bool
+ set_predicate(string pname, map<keyvalue> args, bool newvalue) : bool
' + get_goal(string pname, map<keyvalue> args, bool newvalue) : bool
+ set_goal(string pname, map<keyvalue> args, bool newvalue) : bool
}


''' SERVICES
/'
() "srv" as SRV_
KB "srv" - -> "cl" SRV_
note on link: 
'/

() "/rosplan_knowledge_base/update" as SRV_KB_UPDATE
KB "srv" - -> SRV_KB_UPDATE
note on link: rosplan_knowledge_msgs/KnowledgeUpdateService
SRV_KB_UPDATE - -> "cl" TOOLS

() "/rosplan_knowledge_base/query_state" as SRV_QUERY
KB "srv" - -> SRV_QUERY
note on link: rosplan_knowledge_msgs/KnowledgeQueryService
SRV_QUERY - -> "cl" TOOLS


''' CONNECTIONS
' ...

@enduml

@startuml

title robocluedo_armor project structure
skinparam Padding 8
allow_mixing


package "ROSPlan" {
database "knowledge base" <<ROSPlan>> as KB
}
class "kb_tools" as TOOLS {
+ get_predicate(string pname, map<keyvalue> args) : bool
+ set_predicate(string pname, map<keyvalue> args, bool newvalue) : bool
+ set_goal(string pname, map<keyvalue> args, bool newvalue) : bool
}



() "/rosplan_knowledge_base/update" as SRV_KB_UPDATE
KB "srv" - -> SRV_KB_UPDATE
note on link: rosplan_knowledge_msgs/KnowledgeUpdateService
SRV_KB_UPDATE - -> "cl" TOOLS

() "/rosplan_knowledge_base/query_state" as SRV_QUERY
KB "srv" - -> SRV_QUERY
note on link: rosplan_knowledge_msgs/KnowledgeQueryService
SRV_QUERY - -> "cl" TOOLS



@enduml

PlantUML version 1.2022.6(Tue Jun 21 17:34:49 UTC 2022)
(GPL source distribution)
Java Runtime: Java(TM) SE Runtime Environment
JVM: Java HotSpot(TM) 64-Bit Server VM
Default Encoding: UTF-8
Language: en
Country: US
--></g></svg>