<?xml version="1.0" encoding="UTF-8" standalone="no"?><svg xmlns="http://www.w3.org/2000/svg" xmlns:xlink="http://www.w3.org/1999/xlink" contentStyleType="text/css" height="738px" preserveAspectRatio="none" style="width:587px;height:738px;background:#FFFFFF;" version="1.1" viewBox="0 0 587 738" width="587px" zoomAndPan="magnify"><defs/><g><rect height="42.2969" style="stroke:#00000000;stroke-width:1.0;fill:none;" width="186" x="193.5" y="5"/><text fill="#000000" font-family="sans-serif" font-size="14" font-weight="bold" lengthAdjust="spacing" textLength="160" x="206.5" y="30.9951">Project Architecture</text><!--MD5=[d966621a06b379d0f2866da504c15a36]
entity ARMOR--><g id="elem_ARMOR"><path d="M26.5,436.7969 C26.5,426.7969 70,426.7969 70,426.7969 C70,426.7969 113.5,426.7969 113.5,436.7969 L113.5,478.0938 C113.5,488.0938 70,488.0938 70,488.0938 C70,488.0938 26.5,488.0938 26.5,478.0938 L26.5,436.7969 " fill="#F1F1F1" style="stroke:#181818;stroke-width:0.5;"/><path d="M26.5,436.7969 C26.5,446.7969 70,446.7969 70,446.7969 C70,446.7969 113.5,446.7969 113.5,436.7969 " fill="none" style="stroke:#181818;stroke-width:0.5;"/><text fill="#000000" font-family="sans-serif" font-size="14" lengthAdjust="spacing" textLength="51" x="44.5" y="471.792">aRMOR</text></g><!--MD5=[6c629335c16ba9d7cc5a2834000a699b]
entity MOVEIT--><g id="elem_MOVEIT"><rect fill="#F1F1F1" height="62.2969" rx="2.5" ry="2.5" style="stroke:#181818;stroke-width:0.5;" width="106" x="248" y="182.2969"/><rect fill="#F1F1F1" height="10" style="stroke:#181818;stroke-width:0.5;" width="15" x="334" y="187.2969"/><rect fill="#F1F1F1" height="2" style="stroke:#181818;stroke-width:0.5;" width="4" x="332" y="189.2969"/><rect fill="#F1F1F1" height="2" style="stroke:#181818;stroke-width:0.5;" width="4" x="332" y="193.2969"/><text fill="#000000" font-family="sans-serif" font-size="14" lengthAdjust="spacing" textLength="50" x="271" y="223.292">MoveIt!</text></g><!--MD5=[b5e3cc1932c6c86e88c5a7b580a739e5]
entity NAVSTACK--><g id="elem_NAVSTACK"><rect fill="#F1F1F1" height="62.2969" rx="2.5" ry="2.5" style="stroke:#181818;stroke-width:0.5;" width="169" x="44.5" y="182.2969"/><rect fill="#F1F1F1" height="10" style="stroke:#181818;stroke-width:0.5;" width="15" x="193.5" y="187.2969"/><rect fill="#F1F1F1" height="2" style="stroke:#181818;stroke-width:0.5;" width="4" x="191.5" y="189.2969"/><rect fill="#F1F1F1" height="2" style="stroke:#181818;stroke-width:0.5;" width="4" x="191.5" y="193.2969"/><text fill="#000000" font-family="sans-serif" font-size="14" lengthAdjust="spacing" textLength="113" x="67.5" y="223.292">Navigation Stack</text></g><!--MD5=[0ff8cde09c95e7bd5ad5c1a367aa2e4a]
entity ORACLE--><g id="elem_ORACLE"><rect fill="#F1F1F1" height="62.2969" rx="2.5" ry="2.5" style="stroke:#181818;stroke-width:0.5;" width="130" x="262" y="670.2969"/><rect fill="#F1F1F1" height="10" style="stroke:#181818;stroke-width:0.5;" width="15" x="372" y="675.2969"/><rect fill="#F1F1F1" height="2" style="stroke:#181818;stroke-width:0.5;" width="4" x="370" y="677.2969"/><rect fill="#F1F1F1" height="2" style="stroke:#181818;stroke-width:0.5;" width="4" x="370" y="681.2969"/><text fill="#000000" font-family="sans-serif" font-size="14" lengthAdjust="spacing" textLength="74" x="285" y="711.292">erl3 Oracle</text></g><!--MD5=[8fd27179cfada5ccc37b63382e72f2b8]
entity ROSPLAN--><g id="elem_ROSPLAN"><rect fill="#F1F1F1" height="62.2969" rx="2.5" ry="2.5" style="stroke:#181818;stroke-width:0.5;" width="115" x="460.5" y="426.2969"/><rect fill="#F1F1F1" height="10" style="stroke:#181818;stroke-width:0.5;" width="15" x="555.5" y="431.2969"/><rect fill="#F1F1F1" height="2" style="stroke:#181818;stroke-width:0.5;" width="4" x="553.5" y="433.2969"/><rect fill="#F1F1F1" height="2" style="stroke:#181818;stroke-width:0.5;" width="4" x="553.5" y="437.2969"/><text fill="#000000" font-family="sans-serif" font-size="14" lengthAdjust="spacing" textLength="59" x="483.5" y="467.292">ROSPlan</text></g><!--MD5=[9a0d4b0340012a44161447de88fcc332]
entity MISSION_MANAGER--><g id="elem_MISSION_MANAGER"><rect fill="#F1F1F1" height="62.2969" rx="2.5" ry="2.5" style="stroke:#181818;stroke-width:0.5;" width="205" x="148.5" y="426.2969"/><rect fill="#F1F1F1" height="10" style="stroke:#181818;stroke-width:0.5;" width="15" x="333.5" y="431.2969"/><rect fill="#F1F1F1" height="2" style="stroke:#181818;stroke-width:0.5;" width="4" x="331.5" y="433.2969"/><rect fill="#F1F1F1" height="2" style="stroke:#181818;stroke-width:0.5;" width="4" x="331.5" y="437.2969"/><text fill="#000000" font-family="sans-serif" font-size="14" lengthAdjust="spacing" textLength="149" x="171.5" y="467.292">RCL mission manager</text></g><!--MD5=[81dfe9f25295c11202e400f169df631e]
entity VISION--><g id="elem_VISION"><rect fill="#F1F1F1" height="62.2969" rx="2.5" ry="2.5" style="stroke:#181818;stroke-width:0.5;" width="128" x="263" y="548.2969"/><rect fill="#F1F1F1" height="10" style="stroke:#181818;stroke-width:0.5;" width="15" x="371" y="553.2969"/><rect fill="#F1F1F1" height="2" style="stroke:#181818;stroke-width:0.5;" width="4" x="369" y="555.2969"/><rect fill="#F1F1F1" height="2" style="stroke:#181818;stroke-width:0.5;" width="4" x="369" y="559.2969"/><text fill="#000000" font-family="sans-serif" font-size="14" lengthAdjust="spacing" textLength="72" x="286" y="589.292">RCL Vision</text></g><!--MD5=[0f6829ecb44924df652b3631a96aadbd]
entity RCL_ARMOR--><g id="elem_RCL_ARMOR"><rect fill="#F1F1F1" height="62.2969" rx="2.5" ry="2.5" style="stroke:#181818;stroke-width:0.5;" width="202" x="7" y="548.2969"/><rect fill="#F1F1F1" height="10" style="stroke:#181818;stroke-width:0.5;" width="15" x="189" y="553.2969"/><rect fill="#F1F1F1" height="2" style="stroke:#181818;stroke-width:0.5;" width="4" x="187" y="555.2969"/><rect fill="#F1F1F1" height="2" style="stroke:#181818;stroke-width:0.5;" width="4" x="187" y="559.2969"/><text fill="#000000" font-family="sans-serif" font-size="14" lengthAdjust="spacing" textLength="146" x="30" y="589.292">RCL aRMOR interface</text></g><!--MD5=[47f35d3126ea50c850665eaf26625533]
entity RCL_ROSPLAN--><g id="elem_RCL_ROSPLAN"><rect fill="#F1F1F1" height="62.2969" rx="2.5" ry="2.5" style="stroke:#181818;stroke-width:0.5;" width="146" x="435" y="548.2969"/><rect fill="#F1F1F1" height="10" style="stroke:#181818;stroke-width:0.5;" width="15" x="561" y="553.2969"/><rect fill="#F1F1F1" height="2" style="stroke:#181818;stroke-width:0.5;" width="4" x="559" y="555.2969"/><rect fill="#F1F1F1" height="2" style="stroke:#181818;stroke-width:0.5;" width="4" x="559" y="559.2969"/><text fill="#000000" font-family="sans-serif" font-size="14" lengthAdjust="spacing" textLength="90" x="458" y="589.292">RCL ROSPlan</text></g><!--MD5=[80ad804a48cb6a09fe122341649e624a]
entity MOVEMENT--><g id="elem_MOVEMENT"><rect fill="#F1F1F1" height="62.2969" rx="2.5" ry="2.5" style="stroke:#181818;stroke-width:0.5;" width="231" x="122.5" y="304.2969"/><rect fill="#F1F1F1" height="10" style="stroke:#181818;stroke-width:0.5;" width="15" x="333.5" y="309.2969"/><rect fill="#F1F1F1" height="2" style="stroke:#181818;stroke-width:0.5;" width="4" x="331.5" y="311.2969"/><rect fill="#F1F1F1" height="2" style="stroke:#181818;stroke-width:0.5;" width="4" x="331.5" y="315.2969"/><text fill="#000000" font-family="sans-serif" font-size="14" lengthAdjust="spacing" textLength="175" x="145.5" y="345.292">RCL Movement Controller</text></g><!--MD5=[486232cd7de46315ddcadcacea223c06]
entity ENVIRONMENT--><g id="elem_ENVIRONMENT"><rect fill="#F1F1F1" height="62.2969" rx="2.5" ry="2.5" style="stroke:#181818;stroke-width:0.5;" width="224" x="189" y="60.2969"/><rect fill="#F1F1F1" height="10" style="stroke:#181818;stroke-width:0.5;" width="15" x="393" y="65.2969"/><rect fill="#F1F1F1" height="2" style="stroke:#181818;stroke-width:0.5;" width="4" x="391" y="67.2969"/><rect fill="#F1F1F1" height="2" style="stroke:#181818;stroke-width:0.5;" width="4" x="391" y="71.2969"/><text fill="#000000" font-family="sans-serif" font-size="14" lengthAdjust="spacing" textLength="168" x="212" y="101.292">RCL hunter environment</text></g><!--MD5=[7fc6cd56aeb823ff5315d751dc17b37e]
link ENVIRONMENT to NAVSTACK--><g id="link_ENVIRONMENT_NAVSTACK"><path codeLine="24" d="M253.24,125.6169 C229.2,142.3869 200.16,162.6569 176.2,179.3669 " fill="none" id="ENVIRONMENT-NAVSTACK" style="stroke:#181818;stroke-width:1.0;"/><polygon fill="#181818" points="172.09,182.2369,181.7609,180.373,176.1922,179.3782,177.187,173.8095,172.09,182.2369" style="stroke:#181818;stroke-width:1.0;"/><polygon fill="#181818" points="257.6,122.5769,247.9291,124.4407,253.4978,125.4355,252.503,131.0042,257.6,122.5769" style="stroke:#181818;stroke-width:1.0;"/></g><!--MD5=[cbaab8b86e01fba88e79cd38bb824379]
link ENVIRONMENT to MOVEIT--><g id="link_ENVIRONMENT_MOVEIT"><path codeLine="25" d="M301,127.8169 C301,143.2969 301,161.4169 301,176.8869 " fill="none" id="ENVIRONMENT-MOVEIT" style="stroke:#181818;stroke-width:1.0;"/><polygon fill="#181818" points="301,182.0269,305,173.0269,301,177.0269,297,173.0269,301,182.0269" style="stroke:#181818;stroke-width:1.0;"/><polygon fill="#181818" points="301,122.5769,297,131.5769,301,127.5769,305,131.5769,301,122.5769" style="stroke:#181818;stroke-width:1.0;"/></g><!--MD5=[96e6a4d3ff39bb4257129097999a6ac3]
link ENVIRONMENT to VISION--><g id="link_ENVIRONMENT_VISION"><path codeLine="26" d="M336.7,126.2769 C350.55,141.8669 364.78,161.4969 372,182.2969 C386.38,223.7369 426.14,252.1569 371,488.2969 C366.52,507.4969 357.38,527.3369 348.59,543.4869 " fill="none" id="ENVIRONMENT-VISION" style="stroke:#181818;stroke-width:1.0;"/><polygon fill="#181818" points="346.12,547.9369,353.9874,542.012,348.5482,543.5661,346.9942,538.1269,346.12,547.9369" style="stroke:#181818;stroke-width:1.0;"/><polygon fill="#181818" points="333.2,122.4069,336.2674,131.7659,336.5527,126.1162,342.2024,126.4016,333.2,122.4069" style="stroke:#181818;stroke-width:1.0;"/></g><!--MD5=[48caf0876454b705856ed0b25a92eb24]
link NAVSTACK to MOVEMENT--><g id="link_NAVSTACK_MOVEMENT"><path codeLine="27" d="M160.05,248.4869 C174.71,264.6169 192.16,283.8369 206.84,299.9869 " fill="none" id="NAVSTACK-MOVEMENT" style="stroke:#181818;stroke-width:1.0;"/><polygon fill="#181818" points="210.5,304.0269,207.4147,294.6738,207.1402,300.3239,201.49,300.0494,210.5,304.0269" style="stroke:#181818;stroke-width:1.0;"/><polygon fill="#181818" points="156.51,244.5769,159.5953,253.93,159.8698,248.2798,165.52,248.5543,156.51,244.5769" style="stroke:#181818;stroke-width:1.0;"/></g><!--MD5=[34b5f7a14996c7b8daebd1b3010a6b5c]
link MOVEIT to MOVEMENT--><g id="link_MOVEIT_MOVEMENT"><path codeLine="28" d="M282.59,249.3669 C274.34,265.0769 264.64,283.5469 256.4,299.2469 " fill="none" id="MOVEIT-MOVEMENT" style="stroke:#181818;stroke-width:1.0;"/><polygon fill="#181818" points="253.89,304.0269,261.619,297.9225,256.217,299.6014,254.5381,294.1994,253.89,304.0269" style="stroke:#181818;stroke-width:1.0;"/><polygon fill="#181818" points="285.1,244.5769,277.371,250.6812,282.773,249.0024,284.4519,254.4044,285.1,244.5769" style="stroke:#181818;stroke-width:1.0;"/></g><!--MD5=[0f53ab67025f86f4884f1e9deeca44d1]
link MOVEMENT to MISSION_MANAGER--><g id="link_MOVEMENT_MISSION_MANAGER"><path codeLine="29" d="M241.85,371.8169 C243.53,387.2969 245.49,405.4169 247.16,420.8869 " fill="none" id="MOVEMENT-MISSION_MANAGER" style="stroke:#181818;stroke-width:1.0;"/><polygon fill="#181818" points="247.72,426.0269,250.7194,416.6459,247.1772,421.0564,242.7667,417.5143,247.72,426.0269" style="stroke:#181818;stroke-width:1.0;"/><polygon fill="#181818" points="241.28,366.5769,238.2806,375.9579,241.8228,371.5473,246.2333,375.0895,241.28,366.5769" style="stroke:#181818;stroke-width:1.0;"/></g><!--MD5=[d765d9863f10af304e452562f2485cd3]
link MISSION_MANAGER to RCL_ROSPLAN--><g id="link_MISSION_MANAGER_RCL_ROSPLAN"><path codeLine="30" d="M320.15,490.5869 C356.85,507.7169 401.82,528.7169 438.56,545.8669 " fill="none" id="MISSION_MANAGER-RCL_ROSPLAN" style="stroke:#181818;stroke-width:1.0;"/><polygon fill="#181818" points="443.45,548.1569,436.9872,540.7251,438.9194,546.0417,433.6028,547.9739,443.45,548.1569" style="stroke:#181818;stroke-width:1.0;"/><polygon fill="#181818" points="315.52,488.4269,321.9828,495.8587,320.0506,490.5421,325.3672,488.6098,315.52,488.4269" style="stroke:#181818;stroke-width:1.0;"/></g><!--MD5=[a82cec19e3091a791be3f3903dec7221]
link ROSPLAN to RCL_ROSPLAN--><g id="link_ROSPLAN_RCL_ROSPLAN"><path codeLine="31" d="M515.04,493.8169 C513.75,509.2969 512.24,527.4169 510.95,542.8869 " fill="none" id="ROSPLAN-RCL_ROSPLAN" style="stroke:#181818;stroke-width:1.0;"/><polygon fill="#181818" points="510.52,548.0269,515.2515,539.389,510.934,543.044,507.279,538.7265,510.52,548.0269" style="stroke:#181818;stroke-width:1.0;"/><polygon fill="#181818" points="515.48,488.5769,510.7485,497.2147,515.066,493.5597,518.721,497.8772,515.48,488.5769" style="stroke:#181818;stroke-width:1.0;"/></g><!--MD5=[842b2851b2cd1464c25f009b2944caad]
link MISSION_MANAGER to RCL_ARMOR--><g id="link_MISSION_MANAGER_RCL_ARMOR"><path codeLine="32" d="M211.05,491.8269 C191.35,508.3569 167.66,528.2369 147.96,544.7669 " fill="none" id="MISSION_MANAGER-RCL_ARMOR" style="stroke:#181818;stroke-width:1.0;"/><polygon fill="#181818" points="144.07,548.0269,153.5398,545.3208,147.9053,544.8189,148.4071,539.1844,144.07,548.0269" style="stroke:#181818;stroke-width:1.0;"/><polygon fill="#181818" points="214.92,488.5769,205.4502,491.2829,211.0847,491.7848,210.5829,497.4194,214.92,488.5769" style="stroke:#181818;stroke-width:1.0;"/></g><!--MD5=[8827004c151b1f48bbed612bb6096fa9]
link ARMOR to RCL_ARMOR--><g id="link_ARMOR_RCL_ARMOR"><path codeLine="33" d="M80.92,492.7869 C85.94,508.6369 91.88,527.3969 96.92,543.3069 " fill="none" id="ARMOR-RCL_ARMOR" style="stroke:#181818;stroke-width:1.0;"/><polygon fill="#181818" points="98.45,548.1369,99.5401,538.3485,96.9375,543.3711,91.9149,540.7685,98.45,548.1369" style="stroke:#181818;stroke-width:1.0;"/><polygon fill="#181818" points="79.39,487.9569,78.2999,497.7452,80.9025,492.7226,85.9251,495.3252,79.39,487.9569" style="stroke:#181818;stroke-width:1.0;"/></g><!--MD5=[4042427509d11f762c623369d219ea30]
link MISSION_MANAGER to VISION--><g id="link_MISSION_MANAGER_VISION"><path codeLine="34" d="M272.93,492.9269 C283.01,508.8469 294.95,527.6869 305.04,543.6169 " fill="none" id="MISSION_MANAGER-VISION" style="stroke:#181818;stroke-width:1.0;"/><polygon fill="#181818" points="307.83,548.0269,306.4048,538.2817,305.1595,543.7998,299.6414,542.5545,307.83,548.0269" style="stroke:#181818;stroke-width:1.0;"/><polygon fill="#181818" points="270.18,488.5769,271.6052,498.3221,272.8505,492.804,278.3686,494.0493,270.18,488.5769" style="stroke:#181818;stroke-width:1.0;"/></g><!--MD5=[25bbfd9c28a5d50c7e6d004f48a96349]
link VISION to ORACLE--><g id="link_VISION_ORACLE"><path codeLine="35" d="M327,615.8169 C327,631.2969 327,649.4169 327,664.8869 " fill="none" id="VISION-ORACLE" style="stroke:#181818;stroke-width:1.0;"/><polygon fill="#181818" points="327,670.0269,331,661.0269,327,665.0269,323,661.0269,327,670.0269" style="stroke:#181818;stroke-width:1.0;"/><polygon fill="#181818" points="327,610.5769,323,619.5769,327,615.5769,331,619.5769,327,610.5769" style="stroke:#181818;stroke-width:1.0;"/></g><!--MD5=[6422c3f7540b1e7dcda38e08b258cd55]
@startuml

''' INFOS
title Project Architecture
skinparam Padding 8
allow_mixing


''' COMPONENTS
database "aRMOR" as ARMOR
component "MoveIt!" as MOVEIT
component "Navigation Stack" as NAVSTACK
component "erl3 Oracle" as ORACLE
component "ROSPlan" as ROSPLAN

component "RCL mission manager" as MISSION_MANAGER
component "RCL Vision" as VISION
component "RCL aRMOR interface" as RCL_ARMOR
component "RCL ROSPlan" as RCL_ROSPLAN
component "RCL Movement Controller" as MOVEMENT
component "RCL hunter environment" as ENVIRONMENT


''' CONNECTIONS
ENVIRONMENT <- -> NAVSTACK
ENVIRONMENT <- -> MOVEIT
ENVIRONMENT <- -> VISION
NAVSTACK <- -> MOVEMENT
MOVEIT <- -> MOVEMENT
MOVEMENT <- -> MISSION_MANAGER
MISSION_MANAGER <- -> RCL_ROSPLAN
ROSPLAN <- -> RCL_ROSPLAN
MISSION_MANAGER <- -> RCL_ARMOR
ARMOR <- -> RCL_ARMOR
MISSION_MANAGER <- -> VISION
VISION <- -> ORACLE

@enduml

@startuml

title Project Architecture
skinparam Padding 8
allow_mixing


database "aRMOR" as ARMOR
component "MoveIt!" as MOVEIT
component "Navigation Stack" as NAVSTACK
component "erl3 Oracle" as ORACLE
component "ROSPlan" as ROSPLAN

component "RCL mission manager" as MISSION_MANAGER
component "RCL Vision" as VISION
component "RCL aRMOR interface" as RCL_ARMOR
component "RCL ROSPlan" as RCL_ROSPLAN
component "RCL Movement Controller" as MOVEMENT
component "RCL hunter environment" as ENVIRONMENT


ENVIRONMENT <- -> NAVSTACK
ENVIRONMENT <- -> MOVEIT
ENVIRONMENT <- -> VISION
NAVSTACK <- -> MOVEMENT
MOVEIT <- -> MOVEMENT
MOVEMENT <- -> MISSION_MANAGER
MISSION_MANAGER <- -> RCL_ROSPLAN
ROSPLAN <- -> RCL_ROSPLAN
MISSION_MANAGER <- -> RCL_ARMOR
ARMOR <- -> RCL_ARMOR
MISSION_MANAGER <- -> VISION
VISION <- -> ORACLE

@enduml

PlantUML version 1.2022.6(Tue Jun 21 17:34:49 UTC 2022)
(GPL source distribution)
Java Runtime: Java(TM) SE Runtime Environment
JVM: Java HotSpot(TM) 64-Bit Server VM
Default Encoding: UTF-8
Language: en
Country: US
--></g></svg>