<?xml version="1.0" encoding="UTF-8" standalone="no"?><svg xmlns="http://www.w3.org/2000/svg" xmlns:xlink="http://www.w3.org/1999/xlink" contentStyleType="text/css" height="433px" preserveAspectRatio="none" style="width:738px;height:433px;background:#FFFFFF;" version="1.1" viewBox="0 0 738 433" width="738px" zoomAndPan="magnify"><defs/><g><rect height="42.2969" style="stroke:#00000000;stroke-width:1.0;fill:none;" width="225" x="249.75" y="5"/><text fill="#000000" font-family="sans-serif" font-size="14" font-weight="bold" lengthAdjust="spacing" textLength="199" x="262.75" y="30.9951">NODE wall_follow_service</text><!--MD5=[e12d9cd362ffb28dfd886312c6eed98e]
cluster NODE_WALL_FOLLOW--><g id="cluster_NODE_WALL_FOLLOW"><rect height="177" rx="2.5" ry="2.5" style="stroke:#181818;stroke-width:1.0;fill:none;" width="418" x="155.5" y="60.2969"/><rect height="10" style="stroke:#181818;stroke-width:1.0;fill:none;" width="15" x="553.5" y="65.2969"/><rect height="2" style="stroke:#181818;stroke-width:1.0;fill:none;" width="4" x="551.5" y="67.2969"/><rect height="2" style="stroke:#181818;stroke-width:1.0;fill:none;" width="4" x="551.5" y="71.2969"/><text fill="#000000" font-family="sans-serif" font-size="14" font-style="italic" lengthAdjust="spacing" textLength="104" x="312.5" y="94.292">«ROSPy node»</text><text fill="#000000" font-family="sans-serif" font-size="14" font-weight="bold" lengthAdjust="spacing" textLength="151" x="289" y="126.5889">wall_follow_service</text></g><!--MD5=[03336dcf5b3326811dc04367069399a0]
entity NODE_WALL_FOLLOW.WALL_FOLLOW_SWITCH--><g id="elem_NODE_WALL_FOLLOW.WALL_FOLLOW_SWITCH"><polygon fill="#F1F1F1" points="198.5,161.2969,208.5,151.2969,390.5,151.2969,390.5,203.5938,380.5,213.5938,198.5,213.5938,198.5,161.2969" style="stroke:#181818;stroke-width:0.5;"/><line style="stroke:#181818;stroke-width:0.5;" x1="380.5" x2="390.5" y1="161.2969" y2="151.2969"/><line style="stroke:#181818;stroke-width:0.5;" x1="198.5" x2="380.5" y1="161.2969" y2="161.2969"/><line style="stroke:#181818;stroke-width:0.5;" x1="380.5" x2="380.5" y1="161.2969" y2="213.5938"/><text fill="#000000" font-family="sans-serif" font-size="14" lengthAdjust="spacing" textLength="136" x="221.5" y="192.292">wall_follower_switch</text></g><!--MD5=[27d44b2477f96b01123200a50443c84b]
entity NODE_WALL_FOLLOW.LISTENER_LASER--><g id="elem_NODE_WALL_FOLLOW.LISTENER_LASER"><polygon fill="#F1F1F1" points="425.5,161.2969,435.5,151.2969,549.5,151.2969,549.5,203.5938,539.5,213.5938,425.5,213.5938,425.5,161.2969" style="stroke:#181818;stroke-width:0.5;"/><line style="stroke:#181818;stroke-width:0.5;" x1="539.5" x2="549.5" y1="161.2969" y2="151.2969"/><line style="stroke:#181818;stroke-width:0.5;" x1="425.5" x2="539.5" y1="161.2969" y2="161.2969"/><line style="stroke:#181818;stroke-width:0.5;" x1="539.5" x2="539.5" y1="161.2969" y2="213.5938"/><text fill="#000000" font-family="sans-serif" font-size="14" lengthAdjust="spacing" textLength="68" x="448.5" y="192.292">clbk_laser</text></g><!--MD5=[a29493d5c3d449fd805f8038216f6f38]
entity TOPIC_VEL--><g id="elem_TOPIC_VEL"><ellipse cx="36.5" cy="387.2969" fill="#F1F1F1" rx="8" ry="8" style="stroke:#181818;stroke-width:0.5;"/><text fill="#000000" font-family="sans-serif" font-size="14" lengthAdjust="spacing" textLength="61" x="6" y="425.292">/cmd_vel</text></g><!--MD5=[cf4c761246342468269b9fda4f668b9a]
entity TOPIC_LASER--><g id="elem_TOPIC_LASER"><ellipse cx="511.5" cy="387.2969" fill="#F1F1F1" rx="8" ry="8" style="stroke:#181818;stroke-width:0.5;"/><text fill="#000000" font-family="sans-serif" font-size="14" lengthAdjust="spacing" textLength="38" x="492.5" y="425.292">/scan</text></g><!--MD5=[0de5e037182cbe7d3ce53b2ba1c49cc1]
entity SRV_WALL_SWITCH--><g id="elem_SRV_WALL_SWITCH"><ellipse cx="294.5" cy="387.2969" fill="#F1F1F1" rx="8" ry="8" style="stroke:#181818;stroke-width:0.5;"/><text fill="#000000" font-family="sans-serif" font-size="14" lengthAdjust="spacing" textLength="141" x="224" y="425.292">/wall_follower_switch</text></g><!--MD5=[4ad012aca25ff41036241224281b2c4c]
link NODE_WALL_FOLLOW to TOPIC_VEL--><g id="link_NODE_WALL_FOLLOW_TOPIC_VEL"><path codeLine="15" d="M155.333,187.3152 C155.2403,187.363 155.1468,187.4112 155.0527,187.4599 C154.6764,187.6545 154.2893,187.8556 153.8919,188.0633 C153.097,188.4786 152.261,188.9199 151.3867,189.3869 C144.3928,193.1225 134.9569,198.4969 124.6712,205.2894 C104.1,218.8744 80.13,238.1319 65.5,261.2969 C42.81,297.2169 37.83,348.9869 36.77,373.0669 " fill="none" id="NODE_WALL_FOLLOW-to-TOPIC_VEL" style="stroke:#181818;stroke-width:1.0;"/><polygon fill="#181818" points="36.58,378.2969,40.886,369.4392,36.7513,373.2998,32.8907,369.1651,36.58,378.2969" style="stroke:#181818;stroke-width:1.0;"/><path d="M70.5,266.2969 L70.5,307.2969 L278.5,307.2969 L278.5,276.2969 L268.5,266.2969 L70.5,266.2969 " fill="#FEFFDD" style="stroke:#181818;stroke-width:0.5;"/><path d="M268.5,266.2969 L268.5,276.2969 L278.5,276.2969 L268.5,266.2969 " fill="#FEFFDD" style="stroke:#181818;stroke-width:0.5;"/><text fill="#000000" font-family="sans-serif" font-size="13" lengthAdjust="spacing" textLength="171" x="84.5" y="291.3638">geometry_msgs/Twist.msg</text><text fill="#000000" font-family="sans-serif" font-size="13" lengthAdjust="spacing" textLength="24" x="131.45" y="172.3838">pub</text></g><!--MD5=[273255a2633db1ed80ff87e82ca2ca34]
reverse link NODE_WALL_FOLLOW.LISTENER_LASER to TOPIC_LASER--><g id="link_NODE_WALL_FOLLOW.LISTENER_LASER_TOPIC_LASER"><path codeLine="19" d="M491.7,218.8569 C497.45,267.4569 507.4,351.6369 510.53,378.0969 " fill="none" id="NODE_WALL_FOLLOW.LISTENER_LASER-backto-TOPIC_LASER" style="stroke:#181818;stroke-width:1.0;"/><polygon fill="#181818" points="491.09,213.6869,488.1705,223.0931,491.675,218.6525,496.1156,222.157,491.09,213.6869" style="stroke:#181818;stroke-width:1.0;"/><path d="M506.5,266.2969 L506.5,307.2969 L731.5,307.2969 L731.5,276.2969 L721.5,266.2969 L506.5,266.2969 " fill="#FEFFDD" style="stroke:#181818;stroke-width:0.5;"/><path d="M721.5,266.2969 L721.5,276.2969 L731.5,276.2969 L721.5,266.2969 " fill="#FEFFDD" style="stroke:#181818;stroke-width:0.5;"/><text fill="#000000" font-family="sans-serif" font-size="13" lengthAdjust="spacing" textLength="188" x="520.5" y="291.3638">sensor_msgs/LaserScan.msg</text><text fill="#000000" font-family="sans-serif" font-size="13" lengthAdjust="spacing" textLength="23" x="457.3555" y="241.7989">sub</text></g><!--MD5=[44422f564b8c4d696d050f88bc7dac28]
link NODE_WALL_FOLLOW.WALL_FOLLOW_SWITCH to SRV_WALL_SWITCH--><g id="link_NODE_WALL_FOLLOW.WALL_FOLLOW_SWITCH_SRV_WALL_SWITCH"><path codeLine="23" d="M293.06,213.6669 C292.45,228.0869 291.8,245.5769 291.5,261.2969 C291.06,283.9569 291.04,289.6369 291.5,312.2969 C291.93,333.4069 293.04,357.8769 293.78,372.7169 " fill="none" id="NODE_WALL_FOLLOW.WALL_FOLLOW_SWITCH-to-SRV_WALL_SWITCH" style="stroke:#181818;stroke-width:1.0;"/><polygon fill="#181818" points="294.06,378.0869,297.5911,368.8928,293.8025,373.0935,289.6017,369.3049,294.06,378.0869" style="stroke:#181818;stroke-width:1.0;"/><path d="M296.5,266.2969 L296.5,307.2969 L463.5,307.2969 L463.5,276.2969 L453.5,266.2969 L296.5,266.2969 " fill="#FEFFDD" style="stroke:#181818;stroke-width:0.5;"/><path d="M453.5,266.2969 L453.5,276.2969 L463.5,276.2969 L453.5,266.2969 " fill="#FEFFDD" style="stroke:#181818;stroke-width:0.5;"/><text fill="#000000" font-family="sans-serif" font-size="13" lengthAdjust="spacing" textLength="130" x="310.5" y="291.3638">std_srvs/SetBool.srv</text><text fill="#000000" font-family="sans-serif" font-size="13" lengthAdjust="spacing" textLength="19" x="262.8047" y="241.7755">srv</text></g><!--MD5=[29973ff9233fc81a56205a45c5b8493d]
@startuml

''' INFOS
title NODE wall_follow_service
skinparam Padding 8
allow_mixing


''' COMPONENTS
component "wall_follow_service" <<ROSPy node>> as NODE_WALL_FOLLOW {
	node "wall_follower_switch" as NODE_WALL_FOLLOW.WALL_FOLLOW_SWITCH
	node "clbk_laser" as NODE_WALL_FOLLOW.LISTENER_LASER
}

() "/cmd_vel" as TOPIC_VEL
NODE_WALL_FOLLOW "pub" - -> TOPIC_VEL
note on link: geometry_msgs/Twist.msg

() "/scan" as TOPIC_LASER
NODE_WALL_FOLLOW.LISTENER_LASER "sub" <- - TOPIC_LASER
note on link: sensor_msgs/LaserScan.msg

() "/wall_follower_switch" as SRV_WALL_SWITCH
NODE_WALL_FOLLOW.WALL_FOLLOW_SWITCH "srv" - -> SRV_WALL_SWITCH
note on link: std_srvs/SetBool.srv

@enduml

@startuml

title NODE wall_follow_service
skinparam Padding 8
allow_mixing


component "wall_follow_service" <<ROSPy node>> as NODE_WALL_FOLLOW {
	node "wall_follower_switch" as NODE_WALL_FOLLOW.WALL_FOLLOW_SWITCH
	node "clbk_laser" as NODE_WALL_FOLLOW.LISTENER_LASER
}

() "/cmd_vel" as TOPIC_VEL
NODE_WALL_FOLLOW "pub" - -> TOPIC_VEL
note on link: geometry_msgs/Twist.msg

() "/scan" as TOPIC_LASER
NODE_WALL_FOLLOW.LISTENER_LASER "sub" <- - TOPIC_LASER
note on link: sensor_msgs/LaserScan.msg

() "/wall_follower_switch" as SRV_WALL_SWITCH
NODE_WALL_FOLLOW.WALL_FOLLOW_SWITCH "srv" - -> SRV_WALL_SWITCH
note on link: std_srvs/SetBool.srv

@enduml

PlantUML version 1.2022.6(Tue Jun 21 17:34:49 UTC 2022)
(GPL source distribution)
Java Runtime: Java(TM) SE Runtime Environment
JVM: Java HotSpot(TM) 64-Bit Server VM
Default Encoding: UTF-8
Language: en
Country: US
--></g></svg>