<?xml version="1.0" encoding="UTF-8" standalone="no"?><svg xmlns="http://www.w3.org/2000/svg" xmlns:xlink="http://www.w3.org/1999/xlink" contentStyleType="text/css" height="300px" preserveAspectRatio="none" style="width:2184px;height:300px;background:#FFFFFF;" version="1.1" viewBox="0 0 2184 300" width="2184px" zoomAndPan="magnify"><defs/><g><rect height="26.2969" style="stroke:#00000000;stroke-width:1.0;fill:none;" width="128" x="1021" y="5"/><text fill="#000000" font-family="sans-serif" font-size="14" font-weight="bold" lengthAdjust="spacing" textLength="118" x="1026" y="22.9951">Navigation Unit</text><!--MD5=[d3c6a3352a82e16776188b2bc459db07]
entity NAV_UNIT--><g id="elem_NAV_UNIT"><rect fill="#F1F1F1" height="62.5938" rx="2.5" ry="2.5" style="stroke:#181818;stroke-width:0.5;" width="205" x="1047" y="137.2969"/><rect fill="#F1F1F1" height="10" style="stroke:#181818;stroke-width:0.5;" width="15" x="1232" y="142.2969"/><rect fill="#F1F1F1" height="2" style="stroke:#181818;stroke-width:0.5;" width="4" x="1230" y="144.2969"/><rect fill="#F1F1F1" height="2" style="stroke:#181818;stroke-width:0.5;" width="4" x="1230" y="148.2969"/><text fill="#000000" font-family="sans-serif" font-size="14" font-style="italic" lengthAdjust="spacing" textLength="165" x="1062" y="170.292">«RCL Mission Manager»</text><text fill="#000000" font-family="sans-serif" font-size="14" lengthAdjust="spacing" textLength="67" x="1111" y="186.5889">NAV_UNIT</text></g><!--MD5=[85ef202db001cb86ff447339d93abb15]
entity NAV_MANAGER--><g id="elem_NAV_MANAGER"><rect fill="#F1F1F1" height="62.5938" rx="2.5" ry="2.5" style="stroke:#181818;stroke-width:0.5;" width="233" x="7" y="178.2969"/><rect fill="#F1F1F1" height="10" style="stroke:#181818;stroke-width:0.5;" width="15" x="220" y="183.2969"/><rect fill="#F1F1F1" height="2" style="stroke:#181818;stroke-width:0.5;" width="4" x="218" y="185.2969"/><rect fill="#F1F1F1" height="2" style="stroke:#181818;stroke-width:0.5;" width="4" x="218" y="189.2969"/><text fill="#000000" font-family="sans-serif" font-size="14" font-style="italic" lengthAdjust="spacing" textLength="193" x="22" y="211.292">«RCL Movement Controller»</text><text fill="#000000" font-family="sans-serif" font-size="14" lengthAdjust="spacing" textLength="105" x="66" y="227.5889">NAV_MANAGER</text></g><!--MD5=[3785e3996c802fce7478392b1ee76233]
entity MOVE_TO--><g id="elem_MOVE_TO"><rect fill="#F1F1F1" height="62.5938" rx="2.5" ry="2.5" style="stroke:#181818;stroke-width:0.5;" width="195" x="1983" y="137.2969"/><rect fill="#F1F1F1" height="10" style="stroke:#181818;stroke-width:0.5;" width="15" x="2158" y="142.2969"/><rect fill="#F1F1F1" height="2" style="stroke:#181818;stroke-width:0.5;" width="4" x="2156" y="144.2969"/><rect fill="#F1F1F1" height="2" style="stroke:#181818;stroke-width:0.5;" width="4" x="2156" y="148.2969"/><text fill="#000000" font-family="sans-serif" font-size="14" font-style="italic" lengthAdjust="spacing" textLength="155" x="1998" y="170.292">«RCL ROSPlan Action»</text><text fill="#000000" font-family="sans-serif" font-size="14" lengthAdjust="spacing" textLength="68" x="2041.5" y="186.5889">MOVE_TO</text></g><!--MD5=[11f799dd1e0bd24695833f642960eda2]
entity MARKERS_PUBLISHER--><g id="elem_MARKERS_PUBLISHER"><rect fill="#F1F1F1" height="62.5938" rx="2.5" ry="2.5" style="stroke:#181818;stroke-width:0.5;" width="192" x="27.5" y="44.2969"/><rect fill="#F1F1F1" height="10" style="stroke:#181818;stroke-width:0.5;" width="15" x="199.5" y="49.2969"/><rect fill="#F1F1F1" height="2" style="stroke:#181818;stroke-width:0.5;" width="4" x="197.5" y="51.2969"/><rect fill="#F1F1F1" height="2" style="stroke:#181818;stroke-width:0.5;" width="4" x="197.5" y="55.2969"/><text fill="#000000" font-family="sans-serif" font-size="14" font-style="italic" lengthAdjust="spacing" textLength="132" x="52.5" y="77.292">«erl_assignment3»</text><text fill="#000000" font-family="sans-serif" font-size="14" lengthAdjust="spacing" textLength="152" x="42.5" y="93.5889">MARKERS_PUBLISHER</text></g><!--MD5=[83939bd4eaca96de1f2d6a543c6665cf]
entity SRV_ROSPLAN_NAV--><g id="elem_SRV_ROSPLAN_NAV"><ellipse cx="1797" cy="168.7969" fill="#F1F1F1" rx="8" ry="8" style="stroke:#181818;stroke-width:0.5;"/><text fill="#000000" font-family="sans-serif" font-size="14" lengthAdjust="spacing" textLength="235" x="1679.5" y="198.792">/robocluedo/navigation_command</text></g><!--MD5=[34c22eff6d64aeaae478320b55e782f7]
entity SRV_NAV--><g id="elem_SRV_NAV"><ellipse cx="858" cy="168.7969" fill="#F1F1F1" rx="8" ry="8" style="stroke:#181818;stroke-width:0.5;"/><text fill="#000000" font-family="sans-serif" font-size="14" lengthAdjust="spacing" textLength="218" x="749" y="198.792">/navigation_manager/navigation</text></g><!--MD5=[941ebcf29341f49f7527c91f632a6706]
entity SRV_ALGO--><g id="elem_SRV_ALGO"><ellipse cx="858" cy="261.7969" fill="#F1F1F1" rx="8" ry="8" style="stroke:#181818;stroke-width:0.5;"/><text fill="#000000" font-family="sans-serif" font-size="14" lengthAdjust="spacing" textLength="241" x="737.5" y="291.792">/navigation_manager/set_algorithm</text></g><!--MD5=[3f133cceabc89a2b3ca3196e055bc0f7]
entity TOPIC_MARKER--><g id="elem_TOPIC_MARKER"><ellipse cx="858" cy="75.7969" fill="#F1F1F1" rx="8" ry="8" style="stroke:#181818;stroke-width:0.5;"/><text fill="#000000" font-family="sans-serif" font-size="14" lengthAdjust="spacing" textLength="143" x="786.5" y="105.792">/visualization_marker</text></g><!--MD5=[5d26cbadf9523cf2c79b8e6ff3774c21]
link NAV_UNIT to SRV_ROSPLAN_NAV--><g id="link_NAV_UNIT_SRV_ROSPLAN_NAV"><path d="M1252.07,168.7969 C1413.34,168.7969 1716.57,168.7969 1782.95,168.7969 " fill="none" id="NAV_UNIT-to-SRV_ROSPLAN_NAV" style="stroke:#181818;stroke-width:1.0;"/><polygon fill="#181818" points="1787.98,168.7969,1778.98,164.7969,1782.98,168.7969,1778.98,172.7969,1787.98,168.7969" style="stroke:#181818;stroke-width:1.0;"/><path d="M1287,138.7969 L1287,163.7969 L1637,163.7969 L1637,148.7969 L1627,138.7969 L1287,138.7969 " fill="#FEFFDD" style="stroke:#181818;stroke-width:0.5;"/><path d="M1627,138.7969 L1627,148.7969 L1637,148.7969 L1627,138.7969 " fill="#FEFFDD" style="stroke:#181818;stroke-width:0.5;"/><text fill="#000000" font-family="sans-serif" font-size="13" lengthAdjust="spacing" textLength="329" x="1293" y="155.8638">robocluedo_rosplan_msgs/NavigationCommand.srv</text><text fill="#000000" font-family="sans-serif" font-size="13" lengthAdjust="spacing" textLength="19" x="1259.9499" y="181.4101">srv</text></g><!--MD5=[204a97957c424fc892d29101e54cea17]
link NAV_MANAGER to SRV_NAV--><g id="link_NAV_MANAGER_SRV_NAV"><path d="M240.16,203.3269 C424.44,193.0069 771.32,173.5969 843.6,169.5469 " fill="none" id="NAV_MANAGER-to-SRV_NAV" style="stroke:#181818;stroke-width:1.0;"/><polygon fill="#181818" points="848.68,169.2669,839.4659,165.7883,843.6882,169.5529,839.9236,173.7752,848.68,169.2669" style="stroke:#181818;stroke-width:1.0;"/><path d="M275,147.7969 L275,172.7969 L695,172.7969 L695,157.7969 L685,147.7969 L275,147.7969 " fill="#FEFFDD" style="stroke:#181818;stroke-width:0.5;"/><path d="M685,147.7969 L685,157.7969 L695,157.7969 L685,147.7969 " fill="#FEFFDD" style="stroke:#181818;stroke-width:0.5;"/><text fill="#000000" font-family="sans-serif" font-size="13" lengthAdjust="spacing" textLength="399" x="281" y="164.8638">robocluedo_movement_controller_msgs/NavigationService.srv</text><text fill="#000000" font-family="sans-serif" font-size="13" lengthAdjust="spacing" textLength="19" x="247.8479" y="215.473">srv</text></g><!--MD5=[630d2729aa530fab62c309503df4171b]
link NAV_MANAGER to SRV_ALGO--><g id="link_NAV_MANAGER_SRV_ALGO"><path d="M240.04,239.8769 C250.13,241.8069 260.21,243.4969 270,244.7969 C497.59,275.1369 779.02,265.2469 843.44,262.4369 " fill="none" id="NAV_MANAGER-to-SRV_ALGO" style="stroke:#181818;stroke-width:1.0;"/><polygon fill="#181818" points="848.67,262.1969,839.4967,258.612,843.6752,262.4252,839.8621,266.6037,848.67,262.1969" style="stroke:#181818;stroke-width:1.0;"/><path d="M301.5,214.7969 L301.5,239.7969 L668.5,239.7969 L668.5,224.7969 L658.5,214.7969 L301.5,214.7969 " fill="#FEFFDD" style="stroke:#181818;stroke-width:0.5;"/><path d="M658.5,214.7969 L658.5,224.7969 L668.5,224.7969 L658.5,214.7969 " fill="#FEFFDD" style="stroke:#181818;stroke-width:0.5;"/><text fill="#000000" font-family="sans-serif" font-size="13" lengthAdjust="spacing" textLength="346" x="307.5" y="231.8638">robocluedo_movement_controller_msgs/Algorithm.srv</text><text fill="#000000" font-family="sans-serif" font-size="13" lengthAdjust="spacing" textLength="19" x="248.1144" y="254.3685">srv</text></g><!--MD5=[fe2a3a61a624eb2610713d0796dbb039]
link MARKERS_PUBLISHER to TOPIC_MARKER--><g id="link_MARKERS_PUBLISHER_TOPIC_MARKER"><path d="M219.51,75.7969 C397.21,75.7969 768.7,75.7969 843.65,75.7969 " fill="none" id="MARKERS_PUBLISHER-to-TOPIC_MARKER" style="stroke:#181818;stroke-width:1.0;"/><polygon fill="#181818" points="848.9,75.7969,839.9,71.7969,843.9,75.7969,839.9,79.7969,848.9,75.7969" style="stroke:#181818;stroke-width:1.0;"/><path d="M357.5,45.7969 L357.5,70.7969 L612.5,70.7969 L612.5,55.7969 L602.5,45.7969 L357.5,45.7969 " fill="#FEFFDD" style="stroke:#181818;stroke-width:0.5;"/><path d="M602.5,45.7969 L602.5,55.7969 L612.5,55.7969 L602.5,45.7969 " fill="#FEFFDD" style="stroke:#181818;stroke-width:0.5;"/><text fill="#000000" font-family="sans-serif" font-size="13" lengthAdjust="spacing" textLength="234" x="363.5" y="62.8638">visualization_msgs/MarkerArray.msg</text><text fill="#000000" font-family="sans-serif" font-size="13" lengthAdjust="spacing" textLength="24" x="227.442" y="88.4343">pub</text></g><!--MD5=[d41f873d72b31c4c275393e5c079a896]
link SRV_ROSPLAN_NAV to MOVE_TO--><g id="link_SRV_ROSPLAN_NAV_MOVE_TO"><path d="M1806.12,168.7969 C1831.38,168.7969 1910.87,168.7969 1977.67,168.7969 " fill="none" id="SRV_ROSPLAN_NAV-to-MOVE_TO" style="stroke:#181818;stroke-width:1.0;"/><polygon fill="#181818" points="1982.86,168.7969,1973.86,164.7969,1977.86,168.7969,1973.86,172.7969,1982.86,168.7969" style="stroke:#181818;stroke-width:1.0;"/><text fill="#000000" font-family="sans-serif" font-size="13" lengthAdjust="spacing" textLength="10" x="1965.0016" y="181.4586">cl</text></g><!--MD5=[bac621e37c33892489d68cb45a8ac2dc]
link SRV_NAV to NAV_UNIT--><g id="link_SRV_NAV_NAV_UNIT"><path d="M867.05,168.7969 C892.41,168.7969 973.09,168.7969 1041.6,168.7969 " fill="none" id="SRV_NAV-to-NAV_UNIT" style="stroke:#181818;stroke-width:1.0;"/><polygon fill="#181818" points="1046.93,168.7969,1037.93,164.7969,1041.93,168.7969,1037.93,172.7969,1046.93,168.7969" style="stroke:#181818;stroke-width:1.0;"/><text fill="#000000" font-family="sans-serif" font-size="13" lengthAdjust="spacing" textLength="10" x="1029.0303" y="181.4343">cl</text></g><!--MD5=[78533464c5735568fb320f98a0211c30]
link SRV_ALGO to NAV_UNIT--><g id="link_SRV_ALGO_NAV_UNIT"><path d="M867.05,259.2169 C892.86,250.9169 975.98,224.2169 1045.25,201.9669 " fill="none" id="SRV_ALGO-to-NAV_UNIT" style="stroke:#181818;stroke-width:1.0;"/><polygon fill="#181818" points="1050.22,200.3669,1040.4278,199.3119,1045.4597,201.8965,1042.8751,206.9284,1050.22,200.3669" style="stroke:#181818;stroke-width:1.0;"/><text fill="#000000" font-family="sans-serif" font-size="13" lengthAdjust="spacing" textLength="10" x="1028.8144" y="216.7365">cl</text></g><!--MD5=[ef327cd765a66b513ba553465bc6eb87]
link TOPIC_MARKER to NAV_UNIT--><g id="link_TOPIC_MARKER_NAV_UNIT"><path d="M867.05,78.3769 C892.86,86.6769 975.98,113.3769 1045.25,135.6269 " fill="none" id="TOPIC_MARKER-to-NAV_UNIT" style="stroke:#181818;stroke-width:1.0;"/><polygon fill="#181818" points="1050.22,137.2269,1042.8751,130.6654,1045.4597,135.6973,1040.4278,138.2819,1050.22,137.2269" style="stroke:#181818;stroke-width:1.0;"/><text fill="#000000" font-family="sans-serif" font-size="13" lengthAdjust="spacing" textLength="23" x="1015.7958" y="130.2925">sub</text></g><!--MD5=[a2a4430bbcf1dfa5b4d2121b22f0ed30]
@startuml

title Navigation Unit
left to right direction

''' COMPONENTS
component NAV_UNIT <<RCL Mission Manager>>
component NAV_MANAGER <<RCL Movement Controller>>
component MOVE_TO <<RCL ROSPlan Action>>
component MARKERS_PUBLISHER <<erl_assignment3>>

''' INTERFACES
() "/robocluedo/navigation_command" as SRV_ROSPLAN_NAV
NAV_UNIT "srv" - -> SRV_ROSPLAN_NAV
note on link: robocluedo_rosplan_msgs/NavigationCommand.srv

() "/navigation_manager/navigation" as SRV_NAV
NAV_MANAGER "srv" - -> SRV_NAV
note on link: robocluedo_movement_controller_msgs/NavigationService.srv

() "/navigation_manager/set_algorithm" as SRV_ALGO
NAV_MANAGER "srv" - -> SRV_ALGO
note on link: robocluedo_movement_controller_msgs/Algorithm.srv

() "/visualization_marker" as TOPIC_MARKER
TOPIC_MARKER <-up- "pub" MARKERS_PUBLISHER
note on link: visualization_msgs/MarkerArray.msg

''' LINKS
SRV_ROSPLAN_NAV - -> "cl" MOVE_TO
SRV_NAV - -> "cl" NAV_UNIT
SRV_ALGO - -> "cl" NAV_UNIT
TOPIC_MARKER -down-> "sub" NAV_UNIT

@enduml

@startuml

title Navigation Unit
left to right direction

component NAV_UNIT <<RCL Mission Manager>>
component NAV_MANAGER <<RCL Movement Controller>>
component MOVE_TO <<RCL ROSPlan Action>>
component MARKERS_PUBLISHER <<erl_assignment3>>

() "/robocluedo/navigation_command" as SRV_ROSPLAN_NAV
NAV_UNIT "srv" - -> SRV_ROSPLAN_NAV
note on link: robocluedo_rosplan_msgs/NavigationCommand.srv

() "/navigation_manager/navigation" as SRV_NAV
NAV_MANAGER "srv" - -> SRV_NAV
note on link: robocluedo_movement_controller_msgs/NavigationService.srv

() "/navigation_manager/set_algorithm" as SRV_ALGO
NAV_MANAGER "srv" - -> SRV_ALGO
note on link: robocluedo_movement_controller_msgs/Algorithm.srv

() "/visualization_marker" as TOPIC_MARKER
TOPIC_MARKER <-up- "pub" MARKERS_PUBLISHER
note on link: visualization_msgs/MarkerArray.msg

SRV_ROSPLAN_NAV - -> "cl" MOVE_TO
SRV_NAV - -> "cl" NAV_UNIT
SRV_ALGO - -> "cl" NAV_UNIT
TOPIC_MARKER -down-> "sub" NAV_UNIT

@enduml

PlantUML version 1.2022.6(Tue Jun 21 17:34:49 UTC 2022)
(GPL source distribution)
Java Runtime: Java(TM) SE Runtime Environment
JVM: Java HotSpot(TM) 64-Bit Server VM
Default Encoding: UTF-8
Language: en
Country: US
--></g></svg>